<?xml version="1.0"?>
<svg xmlns="http://www.w3.org/2000/svg" version="1.2" baseProfile="tiny" width="800" height="555" viewBox="0 0 800 555" stroke-linecap="round" stroke-linejoin="round">
<g id="13MEE250GC_SIR">
<path d="M 314.8611 352.4929 347.1226 322.6201 365.1011 294.0776 359.8106 263.8598 374.5162 239.4027 388.7963 233.2466 392.9573 213.1926 430.541 239.1178 426.257 211.0917 450.8575 205.5478 452.1571 222.0342 475.1589 227.9077 515.5184 246.4052 526.0103 231.1455 550.9615 223.6252 599.2954 233.3354 605.7389 173.8512 593.1544 163.9353 599.0396 142.8375 615.638 127.6521 632.2466 91.8311 684.6459 91.8327 693.3116 135.0892 718.2373 160.3368 755.3711 183.5743 798.4599 203.7149 799 216.5827 744.7221 333.2699 705.7848 420.7804 718.956 440.7051 702.7674 441.0208 685.9052 410.0751 688.5123 348.918 710.0404 328.2721 705.5141 310.6247 685.1299 280.828 656.9001 283.6646 631.6687 306.3741 610.9844 293.7474 595.0515 300.3146 537.5453 354.3299 505.3693 323.9624 486.2543 324.8123 417.3591 370.0459 383.9064 364.1422 346.4882 349.5897 327.3771 358.8908 314.8611 352.4929 Z"/>
<path d="M 599.0396 142.8375 593.1544 163.9353 605.7389 173.8512 599.2954 233.3354 550.9615 223.6252 526.0103 231.1455 515.5184 246.4052 475.1589 227.9077 452.1571 222.0342 450.8575 205.5478 426.257 211.0917 430.541 239.1178 392.9573 213.1926 361.2351 206.3574 337.7069 192.6355 330.3178 202.5715 297.4331 207.4499 275.1576 229.2653 262.0623 220.5507 218.1616 234.0847 193.0831 215.8366 202.9452 156.4046 193.189 127.467 172.7187 112.4845 173.3548 78.2884 210.2572 76.2905 206.4676 53.6658 182.4903 54.1389 182.5742 24.9975 259.8879 24.4994 295.0905 1 319.5049 47.4967 344.1984 69.2894 370.758 58.0735 397.104 60.326 413.6913 43.8141 432.1898 39.9445 447.6943 15.3678 479.8961 3.1514 508.7997 14.0006 505.3279 30.9335 521.9555 59.9565 521.4965 94.4055 533.61 118.7009 519.28 139.759 560.3791 170.3346 563.5585 138.5177 584.499 127.1316 599.0396 142.8375 Z"/>
<path d="M 193.0831 215.8366 218.1616 234.0847 262.0623 220.5507 275.1576 229.2653 297.4331 207.4499 330.3178 202.5715 337.7069 192.6355 361.2351 206.3574 392.9573 213.1926 388.7963 233.2466 374.5162 239.4027 359.8106 263.8598 365.1011 294.0776 347.1226 322.6201 314.8611 352.4929 300.776 370.7885 282.6965 376.1356 283.5665 405.2057 303.3932 394.3724 324.827 415.8739 295.6237 416.3855 285.4905 443.3977 270.9977 432.0696 239.6115 433.1675 210.3811 424.6377 184.4471 473.6298 172.8313 463.7244 56.8064 450.2797 1 430.0915 8.2809 414.0542 32.7693 397.9048 26.8711 380.5757 46.2664 338.2688 90.2093 310.9083 133.3647 303.6095 138.2872 295.7897 178.3263 297.3004 193.0831 215.8366 Z"/>
<path d="M 718.956 440.7051 708.51 466.1942 705.4035 507.4896 614.717 507.3623 536.5293 507.5938 525.7132 489.1052 502.5149 469.7196 467.9048 469.75 444.032 514.1697 413.4843 516.0272 371.1915 542.5144 341.6183 536.2445 321.6458 554.2083 237.3976 518.9563 184.4471 473.6298 210.3811 424.6377 239.6115 433.1675 270.9977 432.0696 285.4905 443.3977 295.6237 416.3855 324.827 415.8739 303.3932 394.3724 283.5665 405.2057 282.6965 376.1356 300.776 370.7885 314.8611 352.4929 327.3771 358.8908 346.4882 349.5897 383.9064 364.1422 417.3591 370.0459 486.2543 324.8123 505.3693 323.9624 537.5453 354.3299 595.0515 300.3146 610.9844 293.7474 631.6687 306.3741 656.9001 283.6646 685.1299 280.828 705.5141 310.6247 710.0404 328.2721 688.5123 348.918 685.9052 410.0751 702.7674 441.0208 718.956 440.7051 Z"/>
</g>
</svg>