<?xml version="1.0"?>
<svg xmlns="http://www.w3.org/2000/svg" version="1.2" baseProfile="tiny" width="800" height="849" viewBox="0 0 800 849" stroke-linecap="round" stroke-linejoin="round">
<g id="29MEE250GC_SIR">
<path d="M 744.1798 91.2201 733.9313 99.3717 705.3051 102.3993 672.9593 95.3142 630.1766 94.6905 605.1244 101.907 591.9847 113.7748 582.702 108.3915 549.5058 122.6106 530.7338 124.8076 502.2398 115.5648 465.48 125.0639 475.1766 146.6272 456.3361 159.3603 444.0712 182.0591 429.3104 197.5382 416.4387 187.7538 364.0651 238.6399 354.3863 214.3801 334.948 215.3134 321.9475 237.9658 336.2414 277.2563 330.5318 295.4749 302.5464 302.2703 317.5207 323.8637 324.0262 347.5091 322.7465 401.1058 317.8372 416.1619 304.2822 415.2826 293.4693 440.1031 276.3029 463.1295 266.1777 451.4968 253.4381 493.2053 246.5235 503.248 218.4443 496.3072 192.0635 498.2534 194.9804 478.314 224.2467 463.2989 243.2053 429.5979 239.6679 411.1067 255.6347 401.8414 264.8841 379.8359 266.4192 344.4645 246.6457 322.9379 257.2601 288.8588 235.7045 224.7148 225.5484 209.9356 236.2311 201.1246 220.5112 178.3441 241.868 153.4891 256.7763 112.0286 240.5113 89.3714 246.4316 80.0695 276.4186 63.7266 289.6751 77.0593 315.4285 75.44 329.9239 94.3177 358.2944 83.546 373.6306 68.0996 415.053 61.6589 424.3357 43.0911 440.7459 34.9125 454.6217 15.3077 476.2748 15.0461 494.4676 26.4111 503.1599 47.5906 516.2539 56.7951 509.3262 79.1229 520.3005 82.5061 543.4128 73.3309 550.6214 47.8098 577.0547 45.2779 583.5641 25.8361 602.5947 22.0336 624.8831 1 639.659 13.3006 665.0923 23.7459 678.5163 22.7752 692.518 39.5192 702.5304 36.1277 719.9578 52.8851 730.0155 77.0419 744.1798 91.2201 Z"/>
<path d="M 701.8834 324.4154 746.047 319.4852 756.8412 335.9206 747.4388 350.6597 716.9359 383.4996 691.8282 388.5466 667.8036 405.7596 646.0849 407.4302 637.9591 392.4353 620.7448 383.1191 622.832 353.8364 651.0947 343.4164 660.1846 349.7659 675.3489 332.4871 701.8834 324.4154 Z"/>
<path d="M 336.2414 277.2563 374.1106 280.6656 382.0986 306.6952 397.565 325.8043 403.6328 308.5737 419.7836 314.4965 424.5185 332.5661 449.3423 327.4285 456.9076 315.1719 451.5581 300.4103 465.663 292.1976 494.5381 301.8273 498.604 311.4761 473.9115 334.0244 489.3026 340.4737 488.4892 379.6421 506.1679 391.0371 524.3846 387.5092 538.6774 394.8408 568.4559 386.5815 588.663 371.6851 614.8303 389.051 620.7448 383.1191 637.9591 392.4353 646.0849 407.4302 624.8502 408.2371 620.6578 419.5675 590.441 436.0462 601.8193 463.676 574.1135 498.2592 596.6835 506.0853 595.2259 535.5721 579.4418 547.9807 589.0031 606.5681 604.8018 624.7616 581.6719 647.1325 554.412 630.559 525.6775 630.1187 513.594 618.3095 475.304 627.3837 458.9575 625.0121 456.7728 603.839 418.2808 569.2542 392.6916 576.3017 347.2376 555.6172 318.476 535.232 299.2194 530.2635 270.091 542.871 241.0063 532.0873 246.5235 503.248 253.4381 493.2053 266.1777 451.4968 276.3029 463.1295 293.4693 440.1031 304.2822 415.2826 317.8372 416.1619 322.7465 401.1058 324.0262 347.5091 317.5207 323.8637 302.5464 302.2703 330.5318 295.4749 336.2414 277.2563 Z"/>
<path d="M 591.9847 113.7748 605.1244 101.907 630.1766 94.6905 672.9593 95.3142 705.3051 102.3993 733.9313 99.3717 744.1798 91.2201 751.2508 124.8188 762.7426 128.1807 770.5354 156.1404 761.9539 160.0852 763.6861 187.1776 748.3602 192.8857 729.3022 189.4457 728.0007 206.7644 741.0782 220.5757 750.3469 247.7781 775.1499 262.7608 799 260.4334 781.3453 296.7412 756.8412 335.9206 746.047 319.4852 701.8834 324.4154 695.1595 292.3158 700.564 279.5134 682.8681 273.9494 672.6534 283.3021 653.714 286.15 645.7693 298.9687 610.9464 303.9732 582.2108 276.3752 577.012 256.472 594.1103 253.6343 578.163 235.4873 574.3343 203.8667 602.9329 209.3566 593.9948 174.763 597.7987 137.3223 591.9847 113.7748 Z"/>
<path d="M 591.9847 113.7748 597.7987 137.3223 593.9948 174.763 602.9329 209.3566 574.3343 203.8667 578.163 235.4873 594.1103 253.6343 577.012 256.472 582.2108 276.3752 610.9464 303.9732 645.7693 298.9687 653.714 286.15 672.6534 283.3021 682.8681 273.9494 700.564 279.5134 695.1595 292.3158 701.8834 324.4154 675.3489 332.4871 660.1846 349.7659 651.0947 343.4164 622.832 353.8364 620.7448 383.1191 614.8303 389.051 588.663 371.6851 568.4559 386.5815 538.6774 394.8408 524.3846 387.5092 506.1679 391.0371 488.4892 379.6421 489.3026 340.4737 473.9115 334.0244 498.604 311.4761 494.5381 301.8273 465.663 292.1976 451.5581 300.4103 456.9076 315.1719 449.3423 327.4285 424.5185 332.5661 419.7836 314.4965 403.6328 308.5737 397.565 325.8043 382.0986 306.6952 374.1106 280.6656 336.2414 277.2563 321.9475 237.9658 334.948 215.3134 354.3863 214.3801 364.0651 238.6399 416.4387 187.7538 429.3104 197.5382 444.0712 182.0591 456.3361 159.3603 475.1766 146.6272 465.48 125.0639 502.2398 115.5648 530.7338 124.8076 549.5058 122.6106 582.702 108.3915 591.9847 113.7748 Z"/>
<path d="M 220.5112 178.3441 236.2311 201.1246 225.5484 209.9356 235.7045 224.7148 257.2601 288.8588 246.6457 322.9379 266.4192 344.4645 264.8841 379.8359 255.6347 401.8414 239.6679 411.1067 243.2053 429.5979 224.2467 463.2989 194.9804 478.314 192.0635 498.2534 157.4964 517.4452 152.4343 525.2671 94.6548 555.1347 76.0272 571.1156 50.676 570.7298 57.9079 499.1487 32.383 482.9458 35.8919 421.9368 25.8588 409.1229 32.6525 337.8257 22.0291 325.6903 19.9937 304.0771 29.7721 290.7002 24.1624 279.2643 34.867 263.4334 9.4069 255.838 1 239.0217 12.1723 231.7106 29.5804 206.2592 38.6881 182.6484 68.8569 167.7874 81.3063 140.7703 88.8438 136.662 106.4232 167.4264 103.2125 180.638 119.7915 198.5648 147.0607 207.7721 200.4877 175.5954 220.5112 178.3441 Z"/>
<path d="M 646.0849 407.4302 667.8036 405.7596 663.7826 416.7996 669.4715 439.3543 660.8987 454.426 667.0977 465.7859 655.5887 528.0049 661.1367 559.3445 666.5719 618.1432 673.6776 634.0814 655.5464 684.8883 642.073 762.7617 648.9681 793.8357 636.7105 809.3809 617.8091 820.9698 601.2391 848.2046 555.0262 818.7119 559.2042 807.5481 545.349 788.5387 522.5236 770.2135 524.7623 739.4786 545.4521 713.8049 550.4224 696.8127 577.7127 675.0202 586.6942 656.9946 581.6719 647.1325 604.8018 624.7616 589.0031 606.5681 579.4418 547.9807 595.2259 535.5721 596.6835 506.0853 574.1135 498.2592 601.8193 463.676 590.441 436.0462 620.6578 419.5675 624.8502 408.2371 646.0849 407.4302 Z"/>
</g>
</svg>