<?xml version="1.0"?>
<svg xmlns="http://www.w3.org/2000/svg" version="1.2" baseProfile="tiny" width="800" height="985" viewBox="0 0 800 985" stroke-linecap="round" stroke-linejoin="round">
<g id="23MEE250GC_SIR">
<path d="M 318.7193 42.7862 495.7361 150.1304 467.0128 257.2585 576.3368 282.1653 609.5787 239.6395 685.0807 312.9014 652.7105 354.9691 549.9406 371.0033 315.6743 374.2337 304.2039 275.1178 323.9887 188.3697 304.898 133.8052 318.7193 42.7862 Z"/>
<path d="M 463.4209 648.6566 551.7302 672.077 503.8267 806.323 380.8805 808.7654 358.0123 780.3856 234.4866 788.3511 299.7898 762.837 320.8387 694.6285 463.4209 648.6566 Z"/>
<path d="M 318.7193 42.7862 304.898 133.8052 323.9887 188.3697 304.2039 275.1178 315.6743 374.2337 209.5564 388.4386 163.4187 337.3263 44.0438 438.0551 18.9881 407.9666 45.6084 247.9602 1 175.9452 14.7759 21.0751 165.6684 1 269.5604 14.0814 318.7193 42.7862 Z"/>
<path d="M 503.8267 806.323 548.7778 880.388 513.5969 945.0737 447.5096 983.5941 313.3286 887.4834 163.2626 886.7054 190.5402 785.2895 234.4866 788.3511 358.0123 780.3856 380.8805 808.7654 503.8267 806.323 Z"/>
<path d="M 549.9406 371.0033 652.7105 354.9691 685.0807 312.9014 799 400.4922 723.343 419.0346 629.2444 605.4717 551.7302 672.077 463.4209 648.6566 496.1092 587.1197 472.8376 499.4698 533.5038 462.777 549.9406 371.0033 Z"/>
<path d="M 44.0438 438.0551 163.4187 337.3263 209.5564 388.4386 315.6743 374.2337 549.9406 371.0033 533.5038 462.777 472.8376 499.4698 496.1092 587.1197 463.4209 648.6566 320.8387 694.6285 299.7898 762.837 234.4866 788.3511 190.5402 785.2895 124.2521 760.4995 86.4383 632.6247 81.5516 466.8993 44.0438 438.0551 Z"/>
<path d="M 495.7361 150.1304 562.7033 182.1862 609.5787 239.6395 576.3368 282.1653 467.0128 257.2585 495.7361 150.1304 Z"/>
</g>
</svg>