<?xml version="1.0"?>
<svg xmlns="http://www.w3.org/2000/svg" version="1.2" baseProfile="tiny" width="800" height="210" viewBox="0 0 800 210" stroke-linecap="round" stroke-linejoin="round">
<g id="32MEE250GC_SIR">
<path d="M 74.4886 8.2562 77.7088 3.6517 83.3949 1 86.7119 3.0723 93.901 2.8006 101.576 6.349 135.5762 27.912 131.7609 39.2617 130.6701 50.1778 130.8672 64.8866 134.1629 87.5085 131.6234 97.5326 126.6961 108.6484 117.0504 113.3238 111.516 120.3045 103.3285 133.4808 96.966 131.5492 93.4887 132.9958 87.6609 129.8241 87.3239 126.2869 82.5675 118.2622 82.7497 112.6955 86.6812 107.4857 92.0014 106.988 87.1593 93.4493 82.8875 89.1468 88.4173 85.9583 90.4339 77.1384 97.4092 73.4301 102.4381 63.0808 99.0388 58.896 90.4963 59.3276 90.8961 55.422 94.4595 51.9916 97.6576 42.851 104.8235 40.971 106.7212 37.3106 98.4029 37.7951 93.3342 30.6546 85.2237 30.6192 77.9944 28.3646 77.1377 25.1078 81.6147 19.9431 80.8289 14.4754 77.7342 13.9704 74.4886 8.2562 Z"/>
<path d="M 28.2726 142.8561 30.3055 141.7347 34.8028 131.1422 35.3087 126.2452 42.3453 123.4724 43.0498 115.8626 49.9701 116.1821 54.0204 118.1162 55.4214 113.2867 58.5913 111.4302 58.0867 106.2992 62.8192 104.2519 68.6954 108.8168 72.9907 107.0785 82.7497 112.6955 82.5675 118.2622 87.3239 126.2869 87.6609 129.8241 93.4887 132.9958 96.966 131.5492 103.3285 133.4808 104.5436 136.7723 102.9155 143.3903 96.5481 152.9063 93.0091 161.8362 88.6679 169.2197 86.6263 168.3939 79.3452 179.2558 75.0233 179.5636 68.5486 183.23 64.3072 184.7742 54.9887 183.4731 54.1026 178.0628 58.0617 171.8668 55.6656 158.5083 51.3139 159.7987 47.7647 155.2147 39.9359 158.428 35.5002 162.0699 31.9681 148.9623 34.3141 145.9216 28.2726 142.8561 Z"/>
<path d="M 74.4886 8.2562 77.7342 13.9704 80.8289 14.4754 81.6147 19.9431 77.1377 25.1078 77.9944 28.3646 85.2237 30.6192 93.3342 30.6546 98.4029 37.7951 106.7212 37.3106 104.8235 40.971 97.6576 42.851 94.4595 51.9916 90.8961 55.422 90.4963 59.3276 99.0388 58.896 102.4381 63.0808 97.4092 73.4301 90.4339 77.1384 88.4173 85.9583 82.8875 89.1468 87.1593 93.4493 92.0014 106.988 86.6812 107.4857 82.7497 112.6955 72.9907 107.0785 68.6954 108.8168 62.8192 104.2519 58.0867 106.2992 58.5913 111.4302 55.4214 113.2867 54.0204 118.1162 49.9701 116.1821 43.0498 115.8626 43.4281 110.0351 51.5001 103.7937 57.1529 97.0781 58.2023 81.6173 56.4523 76.7254 49.371 70.3798 51.7847 68.2453 39.4985 56.3735 45.5747 56.3446 46.9833 58.9285 55.9741 59.0654 57.3489 49.7507 50.6395 46.3688 52.3484 35.5197 43.1454 34.6326 44.014 26.3802 47.844 23.1501 50.5758 17.6018 59.3246 14.5179 63.2626 16.6634 67.6645 14.0722 60.6919 7.5145 65.5266 4.5342 68.9238 8.0654 74.4886 8.2562 Z"/>
<path d="M 28.2726 142.8561 34.3141 145.9216 31.9681 148.9623 35.5002 162.0699 39.9359 158.428 47.7647 155.2147 51.3139 159.7987 55.6656 158.5083 58.0617 171.8668 54.1026 178.0628 54.9887 183.4731 64.3072 184.7742 68.5486 183.23 62.4439 199.2974 54.0665 209.034 48.2688 204.9362 42.086 206.714 29.9351 203.6825 27.0663 204.699 8.6245 197.7622 10.212 190.9041 8.3844 180.2769 3.6548 179.2814 1 175.4638 3.8841 170.2039 2.1627 166.9642 4.432 163.1592 4.4701 156.0189 1.4296 151.6399 5.791 148.1988 7.348 142.8256 28.2726 142.8561 Z"/>
</g>
</svg>