<?xml version="1.0"?>
<svg xmlns="http://www.w3.org/2000/svg" version="1.2" baseProfile="tiny" width="800" height="749" viewBox="0 0 800 749" stroke-linecap="round" stroke-linejoin="round">
<g id="52MEE250GC_SIR">
<path d="M 390.1836 200.1955 414.3169 199.8104 449.514 233.3257 467.2111 218.4237 492.7301 243.5193 472.9473 287.0021 459.3258 292.3444 442.3738 352.3907 449.7168 381.9026 491.3972 400.0476 483.4 484.9698 423.7946 494.7723 385.9102 472.3746 385.7241 438.1106 356.0701 436.054 293.5929 460.9984 263.7802 447.6368 231.1602 465.85 205.7249 419.0946 234.8801 401.7538 221.1937 364.3777 304.3467 381.2894 371.585 365.6299 338.3206 308.4924 351.0517 266.4152 372.8258 256.7604 376.2626 209.4375 390.1836 200.1955 Z"/>
<path d="M 762.2471 46.681 720.4601 65.9405 701.4872 147.796 666.3608 178.4608 669.2384 208.0755 645.7303 237.1048 590.2764 233.8379 508.1805 258.1102 492.7301 243.5193 467.2111 218.4237 449.514 233.3257 414.3169 199.8104 390.1836 200.1955 368.8297 157.8094 365.3899 95.0901 425.7111 69.7486 450.1917 19.974 480.3966 18.1624 527.1107 71.1945 594.9351 73.8268 614.3497 52.8852 639.5902 69.2785 684.0895 55.099 712.4616 36.3027 762.2471 46.681 Z"/>
<path d="M 425.7111 69.7486 365.3899 95.0901 368.8297 157.8094 390.1836 200.1955 376.2626 209.4375 372.8258 256.7604 351.0517 266.4152 338.3206 308.4924 371.585 365.6299 304.3467 381.2894 221.1937 364.3777 234.8801 401.7538 205.7249 419.0946 182.0067 434.3438 140.6552 437.0536 128.161 420.0685 68.7791 424.8475 77.5664 386.2215 109.8694 356.4694 150.5423 349.3764 188.7071 265.803 237.6498 250.0522 247.4212 194.4808 265.6626 158.2412 263.0345 122.6037 289.9683 74.5839 309.1831 1 322.9849 19.7672 363.312 34.9636 425.7111 69.7486 Z"/>
<path d="M 762.2471 46.681 771.1764 83.5548 766.7418 160.6575 799 181.1345 793.8717 235.4848 763.2381 250.7964 742.6493 226.3838 726.1664 268.465 700.8239 259.7879 704.331 355.6429 644.6235 368.2895 649.8814 324.1917 639.3433 313.6091 553.7641 313.6593 545.2454 373.5864 651.3768 373.6273 634.7815 423.4599 658.2531 444.9065 669.7523 479.5462 629.1815 513.2963 607.1557 483.6744 565.8466 465.7266 531.707 410.0624 491.3972 400.0476 449.7168 381.9026 442.3738 352.3907 459.3258 292.3444 472.9473 287.0021 492.7301 243.5193 508.1805 258.1102 590.2764 233.8379 645.7303 237.1048 669.2384 208.0755 666.3608 178.4608 701.4872 147.796 720.4601 65.9405 762.2471 46.681 Z"/>
<path d="M 491.3972 400.0476 531.707 410.0624 565.8466 465.7266 607.1557 483.6744 629.1815 513.2963 649.815 594.7703 579.8025 641.4556 540.1523 628.9436 473.0943 620.667 421.4309 657.7412 354.4827 652.7653 322.2455 663.8662 292.6242 711.6743 254.3777 747.8849 236.7861 730.1508 175.1473 711.7328 99.7649 677.0799 51.5549 661.7363 17.2922 621.4785 19.9139 592.7015 1 546.3312 5.3025 512.2486 26.6022 462.5651 68.7791 424.8475 128.161 420.0685 140.6552 437.0536 182.0067 434.3438 205.7249 419.0946 231.1602 465.85 263.7802 447.6368 293.5929 460.9984 356.0701 436.054 385.7241 438.1106 385.9102 472.3746 423.7946 494.7723 483.4 484.9698 491.3972 400.0476 Z"/>
</g>
</svg>