<?xml version="1.0"?>
<svg xmlns="http://www.w3.org/2000/svg" version="1.2" baseProfile="tiny" width="800" height="1107" viewBox="0 0 800 1107" stroke-linecap="round" stroke-linejoin="round">
<g id="21MEE250GC_SIR">
<path d="M 370.7928 336.6807 418.5369 345.5641 492.4275 339.0349 472.5499 371.2114 488.1828 464.0495 536.4463 482.9343 553.7619 542.142 520.5745 578.6823 458.6333 600.1679 414.5128 639.3812 324.6026 654.8947 297.9467 676.57 244.1248 700.4482 199.1586 679.3852 203.8604 621.0953 200.3484 567.4773 248.9418 556.2944 250.9742 503.6006 307.2869 445.7292 376.339 483.4985 405.1385 414.2147 372.2534 366.9202 370.7928 336.6807 Z"/>
<path d="M 369.3501 63.4361 392.7941 101.1808 332.533 192.4081 337.5318 256.8634 370.7928 336.6807 372.2534 366.9202 405.1385 414.2147 376.339 483.4985 307.2869 445.7292 250.9742 503.6006 248.9418 556.2944 200.3484 567.4773 203.8604 621.0953 169.3748 626.1217 115.4629 606.401 106.984 540.5569 1 483.1436 96.8606 418.9199 236.8145 177.9688 272.7617 62.1119 272.8328 17.0491 320.2204 8.5855 374.0081 44.0314 369.3501 63.4361 Z"/>
<path d="M 369.3501 63.4361 439.6226 63.3574 469.4057 99.3877 488.1855 153.7104 449.4491 223.5137 471.4181 237.385 494.656 171.9864 539.9493 180.9779 624.1193 156.3589 705.9758 195.1474 747.238 196.8234 736.7172 245.3795 674.1813 260.3802 595.3137 231.8817 557.8832 269.6522 579.3191 309.2152 564.5561 347.5823 492.4275 339.0349 418.5369 345.5641 370.7928 336.6807 337.5318 256.8634 332.533 192.4081 392.7941 101.1808 369.3501 63.4361 Z"/>
<path d="M 115.4629 606.401 169.3748 626.1217 203.8604 621.0953 199.1586 679.3852 244.1248 700.4482 297.9467 676.57 340.8021 697.5716 455.1096 680.6001 501.4126 719.2697 448.1423 767.288 369.0698 789.8179 344.7328 824.3267 308.3898 927.5158 289.665 953.1848 313.4979 1012.6766 303.7074 1096.7544 249.5719 1105.5971 219.4277 1020.0174 160.6534 968.4814 194.7235 885.4378 223.0172 879.4314 215.6163 828.1455 160.1432 841.4341 107.3879 777.7344 101.1398 721.717 121.7211 631.1987 115.4629 606.401 Z"/>
<path d="M 747.238 196.8234 799 229.9834 748.5342 287.1088 709.9944 293.9079 654.2323 383.8707 674.1974 518.7247 640.8935 553.2559 644.1026 605.2769 671.4824 632.3797 662.6539 679.4281 597.6646 700.8238 556.9777 683.3129 501.4126 719.2697 455.1096 680.6001 340.8021 697.5716 297.9467 676.57 324.6026 654.8947 414.5128 639.3812 458.6333 600.1679 520.5745 578.6823 553.7619 542.142 536.4463 482.9343 488.1828 464.0495 472.5499 371.2114 492.4275 339.0349 564.5561 347.5823 579.3191 309.2152 557.8832 269.6522 595.3137 231.8817 674.1813 260.3802 736.7172 245.3795 747.238 196.8234 Z"/>
</g>
</svg>