<?xml version="1.0"?>
<svg xmlns="http://www.w3.org/2000/svg" version="1.2" baseProfile="tiny" width="800" height="619" viewBox="0 0 800 619" stroke-linecap="round" stroke-linejoin="round">
<g id="31MEE250GC_SIR">
<path d="M 530.7021 472.2502 535.1947 474.4616 541.8438 502.1647 525.815 509.8929 525.9554 520.1939 509.8617 518.4139 498.0264 522.3631 505.0151 530.0647 498.4332 534.5394 498.0052 529.7188 473.2901 520.3618 455.448 528.2562 446.1715 524.2731 430.5087 527.6403 428.9048 512.2956 422.9418 507.0746 412.6919 509.1677 404.2356 502.9882 407.7986 487.3389 412.3679 491.5685 426.8618 490.1431 448.9947 499.1291 459.1654 487.4746 456.4851 475.207 466.7803 470.6041 473.4679 461.9393 486.615 462.6456 501.1438 468.3672 508.1021 476.8147 519.1149 472.044 530.7021 472.2502 Z"/>
<path d="M 584.3335 277.2637 596.0128 275.0183 606.0751 264.7702 611.3738 263.3821 617.0282 253.8422 627.1323 253.3921 626.0673 257.8107 641.8398 275.8854 652.226 276.825 660.4691 264.1786 669.7673 262.213 676.5011 271.3657 670.3674 278.0987 675.8405 287.0227 694.0804 288.1313 693.6575 299.2719 704.5024 299.837 715.8285 301.098 713.8413 313.7138 721.6431 317.6463 720.0445 328.4778 709.5897 328.3186 722.6356 354.702 721.4152 372.6803 705.4556 387.7472 704.1965 403.3726 696.0141 406.5969 692.0948 421.044 688.0979 425.8226 670.644 406.9938 664.9386 410.9756 654.035 402.9009 642.1725 407.5799 620.9862 406.0465 606.8601 402.9606 608.3679 397.4868 588.6609 395.781 578.3856 390.7336 574.3792 381.0169 583.743 370.2597 594.2613 363.4914 592.9374 355.8716 583.8912 348.4525 571.7902 344.6645 561.8251 349.7453 559.105 340.1363 559.488 315.6337 566.9123 298.2624 584.1853 294.4496 578.747 285.2643 584.3335 277.2637 Z"/>
<path d="M 296.1981 424.0666 303.5799 412.9439 315.9888 414.0071 315.6128 408.3024 323.0658 401.0234 335.3052 402.1869 343.5178 395.7716 352.1571 395.7521 354.217 387.1442 364.5441 383.1888 365.1822 389.4561 374.5043 400.1553 376.0893 407.1313 398.7025 425.7816 405.5429 419.7945 404.8457 402.8958 416.366 409.0881 421.363 407.2197 435.9131 388.9434 447.7708 394.6239 462.9048 409.3514 471.7482 421.5629 464.5421 423.3554 456.5237 435.2118 465.6151 445.7343 473.803 442.5338 481.6561 453.5408 473.4679 461.9393 466.7803 470.6041 456.4851 475.207 459.1654 487.4746 448.9947 499.1291 426.8618 490.1431 412.3679 491.5685 407.7986 487.3389 398.7698 483.9531 379.8695 463.5226 361.6485 450.9545 350.3568 451.6972 343.1876 447.3497 336.1817 449.0704 323.8121 436.6717 302.2948 425.0423 296.1981 424.0666 Z"/>
<path d="M 520.3714 263.1071 516.3595 270.3327 502.449 283.6476 504.3442 293.1234 515.9654 296.9447 512.8854 302.8587 499.0596 309.2954 503.6085 316.1137 506.9153 327.1247 504.0557 333.2264 488.0281 336.3714 470.956 351.4984 458.211 356.2897 440.9871 373.8801 431.352 373.7787 435.9131 388.9434 421.363 407.2197 416.366 409.0881 404.8457 402.8958 405.5429 419.7945 398.7025 425.7816 376.0893 407.1313 374.5043 400.1553 365.1822 389.4561 364.5441 383.1888 370.4994 364.013 386.3995 323.906 382.8313 319.0125 388.2995 309.3121 386.2081 302.8595 395.9502 291.0457 403.1718 291.125 413.1325 284.2429 418.0444 267.6171 423.8936 263.5503 431.4893 272.7798 450.0594 279.3161 454.3988 273.6346 473.0548 273.8727 475.9417 263.8115 481.9688 262.0442 482.5992 247.1759 495.2391 240.9202 499.2524 228.7201 509.2254 237.7863 514.8787 256.6023 520.3714 263.1071 Z"/>
<path d="M 435.9131 388.9434 431.352 373.7787 440.9871 373.8801 458.211 356.2897 470.956 351.4984 488.0281 336.3714 504.0557 333.2264 506.9153 327.1247 503.6085 316.1137 520.2234 314.0348 539.2724 318.2264 531.4277 305.4997 543.0436 289.7463 551.7015 291.5302 557.8145 288.0946 564.9606 277.2581 572.4347 274.7237 584.3335 277.2637 578.747 285.2643 584.1853 294.4496 566.9123 298.2624 559.488 315.6337 559.105 340.1363 561.8251 349.7453 571.7902 344.6645 583.8912 348.4525 592.9374 355.8716 594.2613 363.4914 583.743 370.2597 574.3792 381.0169 578.3856 390.7336 588.6609 395.781 608.3679 397.4868 606.8601 402.9606 598.9313 410.697 579.7788 413.6613 572.9161 422.7793 566.7238 423.9024 561.9127 431.6203 562.8259 439.6551 569.1302 445.5175 556.9784 450.1797 546.1096 450.1209 543.4638 462.4501 535.0242 465.3482 530.7021 472.2502 519.1149 472.044 508.1021 476.8147 501.1438 468.3672 486.615 462.6456 473.4679 461.9393 481.6561 453.5408 473.803 442.5338 465.6151 445.7343 456.5237 435.2118 464.5421 423.3554 471.7482 421.5629 462.9048 409.3514 447.7708 394.6239 435.9131 388.9434 Z"/>
<path d="M 757.8639 189.1387 750.0279 195.9394 747.4846 207.7413 749.2017 217.7456 746.176 227.1674 756.038 237.7838 764.9654 242.2523 776.3708 257.9005 769.9935 262.9257 751.9303 260.9573 738.6037 270.1791 731.1524 265.067 723.9406 276.6764 713.7672 280.2625 706.1369 290.4703 704.5024 299.837 693.6575 299.2719 694.0804 288.1313 675.8405 287.0227 670.3674 278.0987 676.5011 271.3657 669.7673 262.213 660.4691 264.1786 652.226 276.825 641.8398 275.8854 626.0673 257.8107 627.1323 253.3921 630.9264 249.9123 626.1459 238.8144 630.4882 229.9081 637.4152 238.9041 646.3987 242.697 652.6588 234.9948 659.7724 232.7828 671.6981 213.7688 685.1941 220.3375 694.7677 217.0032 694.4675 201.6985 706.3029 198.4732 717.4723 192.1986 723.101 184.0313 728.3266 187.5992 743.9636 182.0515 757.8639 189.1387 Z"/>
<path d="M 693.922 107.5442 707.3058 109.5928 717.0387 105.4414 738.8253 102.123 748.7722 111.8442 772.4259 112.2066 777.3907 119.3219 791.8131 125.2809 799 133.9678 791.6066 148.8062 781.4219 157.0169 776.4617 167.0319 769.1417 166.7453 765.0503 180.7329 768.7033 190.121 757.8639 189.1387 743.9636 182.0515 728.3266 187.5992 723.101 184.0313 717.4723 192.1986 706.3029 198.4732 694.4675 201.6985 694.7677 217.0032 685.1941 220.3375 671.6981 213.7688 659.7724 232.7828 652.6588 234.9948 646.3987 242.697 637.4152 238.9041 630.4882 229.9081 626.1459 238.8144 630.9264 249.9123 627.1323 253.3921 617.0282 253.8422 611.3738 263.3821 606.0751 264.7702 596.0128 275.0183 584.3335 277.2637 572.4347 274.7237 564.9606 277.2581 557.8145 288.0946 551.7015 291.5302 543.0436 289.7463 531.4277 305.4997 539.2724 318.2264 520.2234 314.0348 503.6085 316.1137 499.0596 309.2954 512.8854 302.8587 515.9654 296.9447 504.3442 293.1234 502.449 283.6476 516.3595 270.3327 520.3714 263.1071 531.5343 250.6511 531.2509 242.0584 548.3747 234.43 561.2616 217.9818 565.2951 218.8786 582.0533 199.9916 590.7012 195.8476 593.8716 184.8144 615.8694 170.4519 613.0696 163.2976 649.7366 154.5023 653.9692 140.249 668.2441 137.2577 667.537 128.4872 693.922 107.5442 Z"/>
<path d="M 379.4329 63.1173 393.963 50.1189 402.9354 49.0714 417.5359 36.3268 441.5259 25.5324 445.693 19.0935 463.1405 7.5595 479.2248 1 495.8641 1.6932 517.7731 7.3065 512.4422 20.623 514.4367 31.1466 538.3786 40.0236 544.5804 34.5692 562.3565 29.6454 578.2082 33.7353 601.8841 50.516 627.468 63.4051 635.0725 61.5102 639.301 67.5431 649.4734 67.0597 660.3654 61.7417 692.0513 90.2112 693.922 107.5442 667.537 128.4872 668.2441 137.2577 653.9692 140.249 649.7366 154.5023 613.0696 163.2976 615.8694 170.4519 593.8716 184.8144 590.7012 195.8476 582.0533 199.9916 565.2951 218.8786 561.2616 217.9818 548.3747 234.43 531.2509 242.0584 531.5343 250.6511 520.3714 263.1071 514.8787 256.6023 509.2254 237.7863 499.2524 228.7201 495.2391 240.9202 482.5992 247.1759 481.9688 262.0442 475.9417 263.8115 473.0548 273.8727 454.3988 273.6346 450.0594 279.3161 431.4893 272.7798 423.8936 263.5503 418.0444 267.6171 400.3453 262.5499 398.9335 256.4641 404.7758 234.3539 392.1294 224.3924 397.5089 210.1218 396.3171 195.5957 387.9987 188.2827 380.7576 189.9123 371.1577 183.6685 368.8136 175.9753 361.4824 175.3495 368.5166 157.8684 364.2753 154.2308 350.2566 152.8366 341.1726 148.6856 354.9303 140.9134 358.0321 129.6183 369.1592 133.2922 374.7328 130.2798 380.6967 116.2857 391.0602 104.8174 389.3783 86.0085 380.3166 85.7791 379.4329 63.1173 Z"/>
<path d="M 269.3881 271.4033 277.1385 268.498 283.2737 282.9213 306.9283 290.8523 314.2318 297.3896 338.8971 308.1934 351.0538 304.9839 363.2976 306.3727 372.3974 310.9496 377.0486 301.7967 386.2081 302.8595 388.2995 309.3121 382.8313 319.0125 386.3995 323.906 370.4994 364.013 364.5441 383.1888 354.217 387.1442 352.1571 395.7521 343.5178 395.7716 335.3052 402.1869 323.0658 401.0234 315.6128 408.3024 315.9888 414.0071 303.5799 412.9439 296.1981 424.0666 273.0804 426.7534 260.4528 416.8432 256.5168 408.6839 243.941 414.4914 237.2352 410.2628 228.2441 410.6202 227.1511 418.1396 210.7186 421.5616 203.4239 413.9316 195.747 419.2399 159.609 422.6451 148.9186 425.9431 142.1108 422.1598 138.1932 430.6326 130.8557 432.9004 125.5816 423.0394 125.7034 408.3099 114.5583 409.559 110.2653 405.0126 83.5686 407.223 68.6697 402.2431 50.4467 401.4674 42.1335 395.4258 28.6699 404.5017 6.4881 413.723 1 392.266 6.9291 375.5058 16.9338 360.8536 28.0243 349.3771 33.882 349.6034 53.176 318.4633 69.8964 316.4303 74.174 311.2326 91.0326 314.2262 108.2407 306.1019 117.7812 314.4737 151.4325 290.3251 158.8989 293.1727 178.6927 293.2308 195.1113 295.7162 198.5594 292.0219 220.9378 303.8659 227.9951 301.9883 246.0123 290.8335 249.0284 283.5784 258.4741 280.4394 269.3881 271.4033 Z"/>
<path d="M 273.0804 426.7534 296.1981 424.0666 302.2948 425.0423 323.8121 436.6717 336.1817 449.0704 343.1876 447.3497 350.3568 451.6972 361.6485 450.9545 379.8695 463.5226 398.7698 483.9531 407.7986 487.3389 404.2356 502.9882 412.6919 509.1677 422.9418 507.0746 428.9048 512.2956 430.5087 527.6403 446.1715 524.2731 455.448 528.2562 473.2901 520.3618 498.0052 529.7188 498.4332 534.5394 494.7241 553.467 487.962 561.3495 490.7232 570.0576 486.6307 572.7157 472.6197 571.6907 456.5727 580.3949 428.2796 587.3162 402.9194 600.2368 379.2213 600.7714 377.4987 613.7261 367.3661 612.9268 360.2707 617.1982 350.8048 615.6755 336.2578 618.2809 337.0197 607.984 328.5487 591.0243 315.8334 584.8438 309.919 576.2676 315.0333 552.0933 311.5997 542.1332 325.164 521.6503 323.8606 514.4608 302.5894 508.576 288.6352 512.3323 285.8316 500.0235 280.7419 494.4172 279.309 481.186 272.4406 474.2607 277.4902 461.2914 282.6098 457.0441 278.5403 448.1775 268.8058 443.2563 268.2925 435.9737 273.0804 426.7534 Z"/>
<path d="M 530.7021 472.2502 535.0242 465.3482 543.4638 462.4501 546.1096 450.1209 556.9784 450.1797 569.1302 445.5175 562.8259 439.6551 561.9127 431.6203 566.7238 423.9024 572.9161 422.7793 579.7788 413.6613 598.9313 410.697 606.8601 402.9606 620.9862 406.0465 642.1725 407.5799 654.035 402.9009 664.9386 410.9756 670.644 406.9938 688.0979 425.8226 663.5003 425.8771 656.6183 436.1268 660.1538 441.2188 659.4724 457.7136 648.9876 474.0995 636.3078 479.593 640.1039 484.0818 631.2944 495.2093 627.7921 516.8424 619.8585 526.5469 620.6399 535.2928 583.2904 550.8556 569.4474 560.3832 556.6623 554.6162 541.7052 558.9499 519.4551 558.4702 490.7232 570.0576 487.962 561.3495 494.7241 553.467 498.4332 534.5394 505.0151 530.0647 498.0264 522.3631 509.8617 518.4139 525.9554 520.1939 525.815 509.8929 541.8438 502.1647 535.1947 474.4616 530.7021 472.2502 Z"/>
<path d="M 379.4329 63.1173 380.3166 85.7791 389.3783 86.0085 391.0602 104.8174 380.6967 116.2857 374.7328 130.2798 369.1592 133.2922 358.0321 129.6183 354.9303 140.9134 341.1726 148.6856 350.2566 152.8366 364.2753 154.2308 368.5166 157.8684 361.4824 175.3495 368.8136 175.9753 371.1577 183.6685 380.7576 189.9123 387.9987 188.2827 396.3171 195.5957 397.5089 210.1218 392.1294 224.3924 404.7758 234.3539 398.9335 256.4641 400.3453 262.5499 418.0444 267.6171 413.1325 284.2429 403.1718 291.125 395.9502 291.0457 386.2081 302.8595 377.0486 301.7967 372.3974 310.9496 363.2976 306.3727 351.0538 304.9839 338.8971 308.1934 314.2318 297.3896 306.9283 290.8523 283.2737 282.9213 277.1385 268.498 269.3881 271.4033 263.1121 256.1883 270.498 240.493 266.0517 234.5897 256.7962 235.5183 251.5242 225.2978 259.308 220.2777 264.7066 209.7364 279.5272 198.405 272.0371 175.8422 256.7488 161.8727 266.5627 142.3471 267.3712 128.2143 278.7672 121.2133 302.0504 117.6997 299.9097 98.6278 293.4032 94.7077 294.519 86.132 301.2637 77.8196 294.7197 72.7246 299.766 55.2638 316.273 60.9156 323.0221 54.9081 321.0469 41.8479 327.0093 33.5057 337.8999 41.3078 340.4199 49.4071 363.2977 52.0815 357.7606 62.9564 369.9961 65.8572 379.4329 63.1173 Z"/>
</g>
</svg>