<?xml version="1.0"?>
<svg xmlns="http://www.w3.org/2000/svg" version="1.2" baseProfile="tiny" width="800" height="758" viewBox="0 0 800 758" stroke-linecap="round" stroke-linejoin="round">
<g id="50MEE250GC_SIR">
<path d="M 544.3532 88.2203 574.8212 147.2261 719.1228 213.2813 781.4004 231.8901 799 248.9832 786.8119 279.3988 784.2585 336.3126 753.9974 347.8853 721.6729 392.1568 722.9243 413.13 694.6705 435.6652 689.1727 469.7026 627.3288 553.9327 562.4913 590.6222 550.1498 609.4151 500.5186 640.9048 517.2175 580.2673 483.2553 523.7613 501.9321 482.6028 495.2036 440.1303 437.6735 386.0591 439.7971 360.34 467.6995 346.6616 449.0003 321.5868 471.5407 307.8749 460.6991 278.2916 475.1609 256.6469 504.3606 283.2797 517.2521 263.0178 501.5929 226.4761 533.0765 203.5657 532.1887 173.1256 510.2033 133.7939 546.0336 101.9145 544.3532 88.2203 Z"/>
<path d="M 70.9737 549.1115 107.3891 516.3627 119.0397 492.2734 165.7188 458.6351 150.7227 440.6458 135.4289 355.1638 195.8856 345.5797 213.3016 381.3395 307.4154 430.9554 319.2658 420.0285 312.9692 441.1308 337.7737 480.6593 361.4015 456.6525 384.6895 457.5478 414.7548 423.9194 465.6012 479.533 501.9321 482.6028 483.2553 523.7613 517.2175 580.2673 500.5186 640.9048 484.8142 682.0531 461.4258 692.1507 448.7716 745.8433 432.4321 757.3416 386.0592 730.9338 342.5072 750.4149 310.7577 750.4439 290.7233 709.9845 275.7414 624.209 280.2436 599.4055 256.1304 561.6659 215.2548 560.4189 195.363 538.7548 145.4111 563.2086 70.9737 549.1115 Z"/>
<path d="M 319.2658 420.0285 307.4154 430.9554 213.3016 381.3395 195.8856 345.5797 135.4289 355.1638 150.7227 440.6458 165.7188 458.6351 119.0397 492.2734 107.3891 516.3627 70.9737 549.1115 18.4042 539.9116 33.5926 454.3317 27.0724 382.8549 1 325.4309 33.2148 305.4884 2.9399 281.9338 41.3686 201.7741 66.4379 113.9859 48.4242 68.3536 116.9212 62.1946 157.5921 11.049 210.9706 1 284.8147 19.1178 334.0261 48.4378 305.305 151.5829 298.0483 221.9939 327.4204 244.0153 305.5506 287.9145 342.3696 320.9618 311.2042 343.4728 332.6071 397.3614 319.2658 420.0285 Z"/>
<path d="M 334.0261 48.4378 404.4612 29.9497 426.5737 49.9675 450.6603 45.252 486.2672 4.0509 492.7877 49.9326 485.0071 87.4821 544.3532 88.2203 546.0336 101.9145 510.2033 133.7939 532.1887 173.1256 533.0765 203.5657 501.5929 226.4761 517.2521 263.0178 504.3606 283.2797 475.1609 256.6469 460.6991 278.2916 471.5407 307.8749 449.0003 321.5868 467.6995 346.6616 439.7971 360.34 437.6735 386.0591 495.2036 440.1303 501.9321 482.6028 465.6012 479.533 414.7548 423.9194 384.6895 457.5478 361.4015 456.6525 337.7737 480.6593 312.9692 441.1308 319.2658 420.0285 332.6071 397.3614 311.2042 343.4728 342.3696 320.9618 305.5506 287.9145 327.4204 244.0153 298.0483 221.9939 305.305 151.5829 334.0261 48.4378 Z"/>
</g>
</svg>