<?xml version="1.0"?>
<svg xmlns="http://www.w3.org/2000/svg" version="1.2" baseProfile="tiny" width="800" height="747" viewBox="0 0 800 747" stroke-linecap="round" stroke-linejoin="round">
<g id="51MEE250GC_SIR">
<path d="M 474.5801 538.0482 499.3485 518.2604 527.2371 506.6212 550.4285 507.6691 532.0031 520.5381 539.339 550.1477 597.8147 570.2201 612.8822 568.6576 639.8057 593.617 656.9831 595.709 636.3386 614.7211 632.3558 637.1871 603.7651 663.5157 590.1516 695.2706 587.4016 717.0543 599.6445 745.5519 550.6081 743.1907 555.53 719.4373 551.4052 690.4131 528.8807 716.4765 499.6557 706.7964 455.9209 718.834 422.5784 698.8263 434.3692 699.0196 470.7021 677.3475 467.743 641.0476 440.5321 625.3935 438.5932 604.3992 421.6292 584.7903 443.5096 569.3305 457.7862 540.6293 474.5801 538.0482 Z"/>
<path d="M 273.567 483.6466 284.4802 474.9169 341.4641 473.7586 377.1436 512.0356 401.7722 510.4606 431.3806 487.9212 473.597 478.1984 473.8492 490.1831 453.4662 507.3133 457.2244 533.2509 474.5801 538.0482 457.7862 540.6293 443.5096 569.3305 421.6292 584.7903 438.5932 604.3992 440.5321 625.3935 467.743 641.0476 470.7021 677.3475 434.3692 699.0196 422.5784 698.8263 377.2558 688.4832 343.4893 694.8401 317.7613 727.1942 290.904 733.4954 263.0398 704.6152 246.4341 704.482 227.1003 685.8608 224.758 625.6591 199.8729 624.6508 206.2593 605.3899 254.6612 590.8297 255.4494 575.5809 274.8936 564.8968 288.5093 584.3692 312.4693 587.5135 338.5022 540.648 329.5927 530.3855 344.0303 508.5328 328.5117 498.6121 305.0907 502.1641 273.567 483.6466 Z"/>
<path d="M 273.567 483.6466 305.0907 502.1641 328.5117 498.6121 344.0303 508.5328 329.5927 530.3855 338.5022 540.648 312.4693 587.5135 288.5093 584.3692 274.8936 564.8968 255.4494 575.5809 254.6612 590.8297 206.2593 605.3899 199.8729 624.6508 102.9036 621.7969 95.8754 506.621 81.1517 472.6506 88.1646 462.6817 147.4448 463.8887 164.4174 490.7711 178.0228 484.316 181.7813 463.2418 249.0461 463.2387 238.6884 490.2319 273.567 483.6466 Z"/>
<path d="M 631.4334 161.0513 799 172.1713 772.5407 229.3515 772.0817 257.9886 763.7502 280.0411 765.2913 365.9175 779.7714 384.799 772.0941 415.5397 754.8795 446.2313 756.5592 469.0088 744.9003 492.1711 738.655 527.6893 707.3735 537.7563 682.9808 591.1717 656.9831 595.709 639.8057 593.617 612.8822 568.6576 597.8147 570.2201 539.339 550.1477 532.0031 520.5381 550.4285 507.6691 563.0607 502.2191 587.4194 449.209 598.7977 436.4878 617.8813 382.6118 597.8144 349.6382 562.2638 305.1506 586.625 272.4456 582.7323 250.0989 596.0769 242.1584 606.1328 187.4223 631.4334 161.0513 Z"/>
<path d="M 631.4334 161.0513 606.1328 187.4223 596.0769 242.1584 582.7323 250.0989 586.625 272.4456 562.2638 305.1506 597.8144 349.6382 617.8813 382.6118 598.7977 436.4878 587.4194 449.209 563.0607 502.2191 550.4285 507.6691 527.2371 506.6212 499.3485 518.2604 474.5801 538.0482 457.2244 533.2509 453.4662 507.3133 473.8492 490.1831 473.597 478.1984 431.3806 487.9212 401.7722 510.4606 377.1436 512.0356 341.4641 473.7586 284.4802 474.9169 273.567 483.6466 238.6884 490.2319 249.0461 463.2387 181.7813 463.2418 178.0228 484.316 164.4174 490.7711 147.4448 463.8887 88.1646 462.6817 66.9109 436.9852 87.7735 425.0511 95.0199 399.1685 109.3842 384.9133 129.4108 347.4481 122.8427 340.4013 108.3311 292.6574 119.5104 282.9175 115.2689 263.6401 82.7257 252.5588 7.8433 251.8005 12.6226 212.673 2.8642 193.791 9.386 151.1286 1 137.9143 12.1033 107.7159 5.1644 99.3859 85.5158 99.0738 223.8905 99.2681 234.5767 52.8147 228.6305 36.2572 250.5888 1 266.6492 40.6321 279.9593 58.7128 283.3695 96.2644 310.6037 107.7653 325.1755 129.671 347.8261 139.0173 491.8773 150.8041 631.4334 161.0513 Z"/>
</g>
</svg>