<?xml version="1.0"?>
<svg xmlns="http://www.w3.org/2000/svg" version="1.2" baseProfile="tiny" width="800" height="775" viewBox="0 0 800 775" stroke-linecap="round" stroke-linejoin="round">
<g id="15MEE250GC_SIR">
<path d="M 626.491 256.2896 651.2487 222.7724 657.9367 252.9005 626.491 256.2896 Z"/>
<path d="M 133.3113 363.3426 240.9269 364.0796 238.6916 406.5414 269.2506 434.8844 300.2878 421.7873 289.6222 391.3267 299.0336 341.1816 358.5235 327.4218 412.5923 337.5506 438.8674 320.4072 493.548 355.8466 503.885 379.0232 559.8771 368.4908 556.3357 389.3409 547.4445 415.2749 498.1946 436.0683 496.345 481.9773 391.7419 487.7296 386.8915 513.2666 344.6829 538.4055 355.7406 559.7117 348.0151 609.6122 374.5731 695.4493 359.3333 761.4871 139.2819 744.2125 82.0034 706.2207 78.9729 672.851 29.665 591.3181 82.4614 472.6597 133.3113 363.3426 Z"/>
<path d="M 443.5971 232.5941 428.249 260.9662 438.8674 320.4072 412.5923 337.5506 358.5235 327.4218 299.0336 341.1816 289.6222 391.3267 300.2878 421.7873 269.2506 434.8844 238.6916 406.5414 240.9269 364.0796 133.3113 363.3426 155.3263 296.9919 46.5498 238.174 2.6181 183.2835 1 85.259 36.0131 62.75 85.6518 55.4416 113.4812 35.6494 153.8827 40.2969 172.8225 20.8965 246.0942 1 259.1243 51.241 283.5695 52.5923 330.613 77.2136 361.0524 119.42 356.7262 137.9361 396.5345 197.3755 409.1084 231.0692 443.5971 232.5941 Z"/>
<path d="M 653.0976 218.001 651.2487 222.7724 626.491 256.2896 563.6448 275.6739 547.0215 294.7328 563.5544 339.3873 559.8771 368.4908 503.885 379.0232 493.548 355.8466 438.8674 320.4072 428.249 260.9662 443.5971 232.5941 478.5489 169.0505 543.7556 140.5123 583.1728 143.6893 590.1247 172.1496 651.901 175.8013 653.0976 218.001 Z"/>
<path d="M 651.2487 222.7724 653.0976 218.001 696.9827 194.9184 763.5767 219.0119 799 230.4658 775.8387 315.3352 746.3988 312.3103 716.5172 341.2611 631.2469 372.8161 579.2832 374.0525 556.3357 389.3409 559.8771 368.4908 563.5544 339.3873 547.0215 294.7328 563.6448 275.6739 626.491 256.2896 657.9367 252.9005 651.2487 222.7724 Z"/>
<path d="M 556.3357 389.3409 579.2832 374.0525 631.2469 372.8161 716.5172 341.2611 746.3988 312.3103 775.8387 315.3352 762.681 346.3605 704.4647 442.9474 654.096 497.1287 664.2566 529.9829 638.0236 574.5986 603.3496 592.3513 592.8729 627.8621 606.3837 646.2027 598.7604 682.7809 551.8421 739.3624 540.2117 773.6744 359.3333 761.4871 374.5731 695.4493 348.0151 609.6122 355.7406 559.7117 344.6829 538.4055 386.8915 513.2666 391.7419 487.7296 496.345 481.9773 498.1946 436.0683 547.4445 415.2749 556.3357 389.3409 Z"/>
</g>
</svg>