<?xml version="1.0"?>
<svg xmlns="http://www.w3.org/2000/svg" version="1.2" baseProfile="tiny" width="800" height="460" viewBox="0 0 800 460" stroke-linecap="round" stroke-linejoin="round">
<g id="25MEE250GC_SIR">
<path d="M 306.8543 161.4912 343.4239 273.3405 306.9391 252.0513 144.5858 347.6472 30.0893 345.9055 44.7514 255.3918 1 196.2204 55.1158 73.7756 132.9852 97.6937 204.497 33.3546 302.4448 1 256.439 138.3904 306.8543 161.4912 Z"/>
<path d="M 683.8269 98.4781 763.7831 93.7458 799 227.9975 792.386 307.8494 700.8275 274.9848 683.8269 98.4781 Z"/>
<path d="M 510.0602 82.7524 683.8269 98.4781 700.8275 274.9848 652.5579 325.856 548.5872 357.3377 486.0077 270.934 510.0602 82.7524 Z"/>
<path d="M 306.8543 161.4912 387.3997 142.6303 454.9655 67.4598 510.0602 82.7524 486.0077 270.934 548.5872 357.3377 476.194 359.6391 362.1674 458.9897 291.8613 385.1526 343.4239 273.3405 306.8543 161.4912 Z"/>
</g>
</svg>