<?xml version="1.0"?>
<svg xmlns="http://www.w3.org/2000/svg" version="1.2" baseProfile="tiny" width="800" height="517" viewBox="0 0 800 517" stroke-linecap="round" stroke-linejoin="round">
<g id="26MEE250GC_SIR">
<path d="M 515.4048 337.479 524.1487 365.8592 520.2111 397.1713 467.1563 464.2373 446.1378 487.615 415.0969 503.4929 356.9325 488.8096 331.6678 469.2263 341.9851 455.7459 346.3975 418.5845 377.2886 427.0317 387.6995 404.7291 413.0938 391.8306 434.3494 364.276 481.7888 359.0028 515.4048 337.479 Z"/>
<path d="M 515.4048 337.479 538.4091 324.9721 575.8872 340.4954 574.7669 353.3955 548.2645 363.0813 542.5497 425.2452 556.6037 437.0803 545.4342 462.6157 512.3853 456.1587 467.1563 464.2373 520.2111 397.1713 524.1487 365.8592 515.4048 337.479 Z"/>
<path d="M 304.3414 466.4437 266.9873 502.5011 241.3597 467.7936 202.12 454.816 159.9757 430.9755 109.8457 477.3842 82.1404 480.0379 74.5848 506.7872 50.3603 516.404 46.1189 489.4556 1 434.4765 36.1105 408.6501 65.8304 414.7577 135.7611 413.5005 170.5045 386.0487 193.5306 416.2224 214.7783 403.1048 245.9755 418.2512 255.1746 407.244 291.5905 423.389 288.0634 469.1788 304.3414 466.4437 Z"/>
<path d="M 36.1105 408.6501 57.5289 378.5316 43.2741 332.3798 83.0663 318.2743 130.4379 320.6167 192.8738 365.3381 226.2012 348.6056 284.9679 358.8739 358.1041 315.8103 377.0424 325.995 361.3943 348.629 371.9024 405.5277 387.6995 404.7291 377.2886 427.0317 346.3975 418.5845 341.9851 455.7459 331.6678 469.2263 304.3414 466.4437 288.0634 469.1788 291.5905 423.389 255.1746 407.244 245.9755 418.2512 214.7783 403.1048 193.5306 416.2224 170.5045 386.0487 135.7611 413.5005 65.8304 414.7577 36.1105 408.6501 Z"/>
<path d="M 574.7669 353.3955 577.3069 374.9967 556.6037 437.0803 542.5497 425.2452 548.2645 363.0813 574.7669 353.3955 Z"/>
</g>
</svg>