<?xml version="1.0"?>
<svg xmlns="http://www.w3.org/2000/svg" version="1.2" baseProfile="tiny" width="800" height="503" viewBox="0 0 800 503" stroke-linecap="round" stroke-linejoin="round">
<g id="41MEE250GC_SIR">
<path d="M 400.6703 273.125 441.2487 285.7693 484.1708 284.2399 530.5214 320.5433 520.5098 363.5103 552.3699 380.4686 538.2772 402.6412 564.8464 426.5527 541.592 434.6969 507.5487 428.391 487.3391 432.7774 460.2378 457.8128 441.3369 453.3954 411.0766 465.5941 412.5242 501.7292 378.7014 496.4605 370.2956 461.5397 347.2364 453.8763 350.9677 431.207 386.4045 419.2026 443.6989 378.507 423.5284 365.1284 416.7617 323.6447 401.2732 296.2186 400.6703 273.125 Z"/>
<path d="M 620.9395 171.2096 594.0405 188.0554 582.0087 167.8615 558.8751 178.7481 531.1324 174.4888 517.0364 192.8273 483.0683 188.8318 453.8408 154.9573 442.4869 74.357 440.9321 32.1575 477.0345 51.7365 541.3554 51.8053 565.7372 44.8801 574.8766 63.7089 603.5456 78.8864 613.6329 102.4386 610.5016 132.3491 620.9395 171.2096 Z"/>
<path d="M 315.4207 1 372.8807 20.3256 385.9314 15.2476 440.9321 32.1575 442.4869 74.357 453.8408 154.9573 402.809 201.6383 431.9168 223.1939 421.1103 239.887 441.2487 285.7693 400.6703 273.125 379.913 250.4703 313.0692 249.4804 328.9705 192.7406 326.3907 169.1008 311.4062 147.0408 278.7216 125.1635 267.1734 115.0159 267.3516 86.1384 315.9862 57.7131 306.5101 46.4703 315.4207 1 Z"/>
<path d="M 238.5125 293.9308 262.7838 271.6683 313.0692 249.4804 379.913 250.4703 400.6703 273.125 401.2732 296.2186 416.7617 323.6447 423.5284 365.1284 443.6989 378.507 386.4045 419.2026 350.9677 431.207 347.2364 453.8763 370.2956 461.5397 378.7014 496.4605 317.8212 494.6063 305.2128 483.379 254.7619 474.1414 248.9607 440.7086 291.3233 395.8451 252.8937 388.1943 178.7287 365.5513 183.3684 350.1291 237.8851 327.8375 238.5125 293.9308 Z"/>
<path d="M 53.0346 179.8927 85.8262 201.9035 151.9393 210.8615 166.8809 200.411 173.977 243.0777 238.5125 293.9308 237.8851 327.8375 183.3684 350.1291 178.7287 365.5513 74.8234 374.4268 49.5901 368.1716 21.6206 383.3525 1 375.1818 1.7492 351.3283 21.0064 322.1352 19.5804 296.3558 42.0577 222.9909 32.3942 195.0064 53.0346 179.8927 Z"/>
<path d="M 655.6729 233.2036 648.3696 261.347 733.6061 261.9771 739.6427 299.1894 782.7045 311.9865 799 337.1539 769.9727 374.4853 757.0971 380.3682 736.2226 422.1878 666.083 425.2474 619.218 453.7667 564.8464 426.5527 538.2772 402.6412 552.3699 380.4686 575.0639 357.6096 595.5617 312.294 624.9898 289.4931 614.0884 258.0083 655.6729 233.2036 Z"/>
<path d="M 278.7216 125.1635 311.4062 147.0408 326.3907 169.1008 328.9705 192.7406 313.0692 249.4804 262.7838 271.6683 238.5125 293.9308 173.977 243.0777 166.8809 200.411 183.1823 171.2637 225.6863 183.6683 242.9363 174.3048 278.7216 125.1635 Z"/>
<path d="M 74.8234 374.4268 178.7287 365.5513 252.8937 388.1943 291.3233 395.8451 248.9607 440.7086 254.7619 474.1414 197.121 467.7781 184.8959 473.2127 159.0062 456.8396 118.2682 456.3638 95.935 422.2653 90.6051 383.3162 74.8234 374.4268 Z"/>
<path d="M 620.9395 171.2096 655.6729 233.2036 614.0884 258.0083 624.9898 289.4931 595.5617 312.294 575.0639 357.6096 552.3699 380.4686 520.5098 363.5103 530.5214 320.5433 484.1708 284.2399 441.2487 285.7693 421.1103 239.887 431.9168 223.1939 402.809 201.6383 453.8408 154.9573 483.0683 188.8318 517.0364 192.8273 531.1324 174.4888 558.8751 178.7481 582.0087 167.8615 594.0405 188.0554 620.9395 171.2096 Z"/>
<path d="M 315.4207 1 306.5101 46.4703 315.9862 57.7131 267.3516 86.1384 267.1734 115.0159 278.7216 125.1635 242.9363 174.3048 225.6863 183.6683 183.1823 171.2637 166.8809 200.411 151.9393 210.8615 85.8262 201.9035 53.0346 179.8927 61.2768 174.128 75.2974 114.6374 101.2114 103.4494 121.8696 51.478 199.7031 4.7963 233.4498 11.7243 246.6583 4.2584 291.614 17.6726 315.4207 1 Z"/>
</g>
</svg>