<?xml version="1.0"?>
<svg xmlns="http://www.w3.org/2000/svg" version="1.2" baseProfile="tiny" width="800" height="530" viewBox="0 0 800 530" stroke-linecap="round" stroke-linejoin="round">
<g id="33MEE250GC_SIR">
<path d="M 600.3626 199.4271 600.4809 170.0865 619.3477 156.727 625.007 148.5529 639.8721 143.1966 652.7153 153.7439 657.2735 146.2077 670.2061 144.1072 678.7885 136.0367 671.5565 112.1165 678.2179 109.1267 695.2348 95.9094 695.3208 90.0984 702.3013 92.7194 711.7981 89.3542 726.4758 92.2816 735.5682 97.0946 741.666 93.6652 752.0234 99.3899 772.4912 93.5046 799 110.6474 798.5046 122.1225 779.0323 146.1567 775.9226 155.6419 782.5673 174.975 788.0145 175.5211 785.6444 194.8338 795.7101 239.988 794.649 250.0498 789.8539 256.2429 775.0683 263.6988 756.6812 275.4777 736.958 283.1683 699.0336 293.0508 685.3424 297.5291 652.007 312.082 633.6245 325.8762 633.4332 331.3602 624.6316 336.6326 612.2712 336.8437 595.0228 330.7517 582.8064 330.7268 570.1221 341.1219 562.5172 334.2937 546.832 339.374 543.1144 334.3201 545.948 326.9065 543.7462 321.2213 534.0827 315.988 552.8259 297.6693 568.7711 292.7962 569.6962 286.4065 582.1204 283.9423 596.1471 275.8404 595.267 268.2946 600.6248 263.6666 610.6038 261.9263 620.6805 266.5288 624.0304 272.2527 632.5425 271.6029 637.3537 265.9227 634.8652 258.131 645.1144 248.2004 646.6004 230.5481 621.0064 229.0581 600.5241 226.0345 593.4816 212.2587 600.3626 199.4271 Z"/>
<path d="M 147.9292 461.8867 143.3292 444.6984 148.1417 435.4036 158.8362 427.5039 172.448 431.2655 183.5539 423.286 188.6964 431.9217 193.6434 431.3859 206.0636 416.6765 215.4661 413.1385 215.5636 400.1135 224.8604 392.4644 213.9219 383.6999 227.8675 375.1448 223.3454 363.695 228.2789 357.1246 226.8127 341.7405 238.3414 328.3097 249.6051 321.7676 251.8321 315.326 261.6921 314.3486 270.6194 305.6961 278.0906 307.9972 291.6588 295.8821 303.3018 295.8765 318.5332 308.5504 325.9901 327.2329 334.2586 315.2013 349.2984 314.9364 363.0082 309.1237 365.5551 301.1528 374.9957 294.1434 380.3844 284.8133 393.7419 280.1559 390.7781 269.9166 412.1044 277.6636 414.5734 284.9198 426.4703 276.7619 436.1433 276.8076 434.9892 289.7538 443.2759 310.2882 440.1308 320.4409 448.8116 331.7719 458.8139 331.8174 468.9405 324.0965 475.5048 328.7491 475.8506 344.4948 465.1326 361.7438 473.0094 377.8681 480.433 380.2165 480.0637 397.6609 497.9383 400.2396 496.9173 419.0083 486.2418 420.5861 471.999 415.2025 459.8221 421.1822 449.784 433.9082 457.4471 442.3142 439.937 446.0995 400.6182 449.9041 376.5256 449.8216 362.1791 445.5855 365.3539 438.8838 357.3491 430.8955 371.3869 414.9844 371.545 407.311 378.6306 403.7537 377.3235 392.5322 368.1649 389.9659 357.2462 397.0377 351.9061 396.0887 332.2415 405.5395 329.0614 416.4504 341.7914 434.2067 347.8263 433.7639 354.1031 444.9869 334.7244 455.2077 323.1113 458.3135 299.3654 458.5788 284.5439 462.1672 273.1473 467.3221 257.1379 456.336 244.294 452.8198 233.287 444.134 220.0959 438.2599 207.7678 435.7737 199.7399 440.9956 191.7905 440.1517 166.4844 445.2606 158.5509 459.7075 147.9292 461.8867 Z M 249.2487 463.6401 190.8436 472.6515 186.9908 464.1852 201.9761 468.9643 205.7218 463.5447 220.8839 467.4487 249.2487 463.6401 Z"/>
<path d="M 129.0943 477.6056 137.6461 473.2294 140.6117 479.2982 151.5062 480.3582 162.3767 490.4776 149.2543 489.9091 131.4462 495.8241 126.404 491.5071 112.6393 493.6303 119.4023 479.6012 129.0943 477.6056 Z M 295.8748 264.136 303.3018 295.8765 291.6588 295.8821 278.0906 307.9972 270.6194 305.6961 261.6921 314.3486 251.8321 315.326 249.6051 321.7676 238.3414 328.3097 226.8127 341.7405 228.2789 357.1246 223.3454 363.695 227.8675 375.1448 213.9219 383.6999 224.8604 392.4644 215.5636 400.1135 215.4661 413.1385 206.0636 416.6765 193.6434 431.3859 188.6964 431.9217 183.5539 423.286 172.448 431.2655 158.8362 427.5039 148.1417 435.4036 143.3292 444.6984 147.9292 461.8867 140.6772 462.7752 130.6128 454.541 119.9972 455.4867 116.4592 442.0099 107.1715 446.8778 95.6797 444.9726 92.3191 455.5633 83.2684 456.7272 64.1677 465.9932 50.5476 464.4992 42.5851 469.5494 39.7818 490.4259 35.1433 495.9743 40.4854 502.2301 62.31 502.1375 63.7747 509.9841 74.5247 510.3753 61.5964 528.5427 51.7324 522.2228 39.1999 524.0776 32.1793 529.2339 23.6529 523.5717 21.6892 515.7258 1 501.0033 3.9587 492.4968 14.1779 488.0277 15.3093 473.5657 20.7803 451.3165 30.6064 444.2361 51.7741 437.7637 58.2922 431.7165 68.8438 432.2665 83.2186 423.8012 86.7624 431.6406 95.6679 424.6417 104.1677 426.2365 127.2317 420.281 132.7987 412.6398 129.2659 407.6806 146.2642 394.5135 148.8012 389.6712 144.1494 381.3549 131.6973 375.0853 116.5736 372.8621 103.9236 368.4002 99.1669 373.5988 84.0583 376.0876 77.8686 381.9309 70.7005 375.1953 62.9876 378.6953 50.8822 373.702 50.7221 364.7668 37.0636 356.3309 35.5314 346.0514 31.0239 338.2156 20.2092 334.9745 20.5718 330.5049 37.8241 326.8456 47.923 327.7852 54.4488 320.047 67.1608 319.2846 80.6845 313.6306 93.607 303.0052 117.1697 304.6504 128.2189 301.5181 133.4949 305.9233 150.2096 298.088 160.998 287.2318 174.7542 282.8793 181.9658 283.6204 213.7284 272.0907 226.9424 265.3679 236.09 271.497 253.5071 265.1366 264.3391 263.3825 269.6709 269.7227 295.8748 264.136 Z"/>
<path d="M 475.8506 344.4948 509.0664 337.6074 515.5894 339.0975 528.3181 335.7931 527.9086 331.6118 538.9215 325.3522 545.948 326.9065 543.1144 334.3201 546.832 339.374 562.5172 334.2937 570.1221 341.1219 582.8064 330.7268 595.0228 330.7517 612.2712 336.8437 624.6316 336.6326 601.2936 361.0952 594.522 361.3996 587.6985 380.3921 590.1545 396.3499 603.3864 408.5447 601.203 416.3868 591.2225 422.7111 589.7153 431.1879 581.8121 434.3728 579.9445 448.3323 572.6297 445.966 521.4364 442.164 470.1249 441.3502 457.4471 442.3142 449.784 433.9082 459.8221 421.1822 471.999 415.2025 486.2418 420.5861 496.9173 419.0083 497.9383 400.2396 480.0637 397.6609 480.433 380.2165 473.0094 377.8681 465.1326 361.7438 475.8506 344.4948 Z"/>
<path d="M 533.497 193.9879 539.3465 190.5994 545.7292 208.0345 553.6979 223.3779 569.6835 211.6886 574.9975 211.3113 588.5061 198.6662 600.3626 199.4271 593.4816 212.2587 600.5241 226.0345 621.0064 229.0581 646.6004 230.5481 645.1144 248.2004 634.8652 258.131 637.3537 265.9227 632.5425 271.6029 624.0304 272.2527 620.6805 266.5288 610.6038 261.9263 600.6248 263.6666 595.267 268.2946 596.1471 275.8404 582.1204 283.9423 569.6962 286.4065 568.7711 292.7962 552.8259 297.6693 534.0827 315.988 543.7462 321.2213 545.948 326.9065 538.9215 325.3522 527.9086 331.6118 528.3181 335.7931 515.5894 339.0975 509.0664 337.6074 475.8506 344.4948 475.5048 328.7491 468.9405 324.0965 458.8139 331.8174 448.8116 331.7719 440.1308 320.4409 443.2759 310.2882 434.9892 289.7538 436.1433 276.8076 426.4703 276.7619 414.5734 284.9198 412.1044 277.6636 390.7781 269.9166 393.7419 280.1559 380.3844 284.8133 374.9957 294.1434 365.5551 301.1528 363.0082 309.1237 349.2984 314.9364 334.2586 315.2013 325.9901 327.2329 318.5332 308.5504 303.3018 295.8765 295.8748 264.136 309.9173 255.9818 320.3931 253.5174 332.8674 254.3958 343.581 259.5661 350.1706 256.3885 358.5401 257.9965 353.4866 267.0752 369.2653 270.8141 390.8974 254.9844 403.055 250.0327 408.6748 243.6898 427.6865 237.6603 448.5639 227.4331 515.0049 199.3841 519.9316 200.3583 533.497 193.9879 Z"/>
<path d="M 695.3208 90.0984 695.2348 95.9094 678.2179 109.1267 671.5565 112.1165 678.7885 136.0367 670.2061 144.1072 657.2735 146.2077 652.7153 153.7439 639.8721 143.1966 625.007 148.5529 619.3477 156.727 600.4809 170.0865 600.3626 199.4271 588.5061 198.6662 574.9975 211.3113 569.6835 211.6886 553.6979 223.3779 545.7292 208.0345 539.3465 190.5994 533.497 193.9879 532.1555 186.5632 526.3786 181.9054 518.672 182.9853 512.7804 174.4856 529.6491 156.1516 535.3667 146.8579 528.3245 142.166 531.1473 132.984 540.9332 123.3357 541.1996 106.274 549.1154 99.7858 545.3373 85.2708 554.4017 69.3664 559.2721 69.8154 570.4171 53.5919 559.0115 47.4955 559.61 40.8126 579.8118 34.1956 591.9907 35.6998 595.708 25.1733 606.9152 7.7834 617.6865 1 624.7981 8.5752 640.4554 11.8708 640.6235 21.7998 646.5056 47.0516 641.25 69.7553 655.8727 74.2556 657.7572 77.6793 671.0674 79.3021 673.1912 83.3494 695.3208 90.0984 Z"/>
</g>
</svg>