<?xml version="1.0"?>
<svg xmlns="http://www.w3.org/2000/svg" version="1.2" baseProfile="tiny" width="800" height="446" viewBox="0 0 800 446" stroke-linecap="round" stroke-linejoin="round">
<g id="24MEE250GC_SIR">
<path d="M 413.2154 59.0346 446.6833 89.4123 414.8202 196.8477 315.5906 296.0753 186.0861 304.1464 66.8232 372.8456 1 324.0785 101.9971 236.1845 208.6569 24.8598 294.421 3.8403 413.2154 59.0346 Z"/>
<path d="M 582.091 93.6493 642.012 143.7825 666.1328 247.3704 726.6549 278.2689 717.2229 381.4887 516.2566 359.0902 506.2565 326.9596 524.4176 234.4117 585.0854 216.6662 582.091 93.6493 Z"/>
<path d="M 582.091 93.6493 591.8013 54.2963 684.4262 75.8792 742.6775 169.6694 799 369.6814 717.2229 381.4887 726.6549 278.2689 666.1328 247.3704 642.012 143.7825 582.091 93.6493 Z"/>
<path d="M 413.2154 59.0346 591.8013 54.2963 582.091 93.6493 585.0854 216.6662 524.4176 234.4117 506.2565 326.9596 386.7949 424.0605 307.686 445.0902 243.0849 419.4078 315.5906 296.0753 414.8202 196.8477 446.6833 89.4123 413.2154 59.0346 Z"/>
</g>
</svg>