<?xml version="1.0"?>
<svg xmlns="http://www.w3.org/2000/svg" version="1.2" baseProfile="tiny" width="800" height="668" viewBox="0 0 800 668" stroke-linecap="round" stroke-linejoin="round">
<g id="11MEE250GC_SIR">
<path d="M 509.8765 71.0509 603.2568 111.2623 587.8402 254.8901 596.1485 351.6866 721.0998 352.9521 799 511.2874 691.4515 666.6205 556.5898 649.3644 437.0957 571.1988 446.2298 494.5158 386.0463 496.4553 356.6464 452.114 367.7627 268.9112 360.4931 184.9135 491.9431 181.8988 509.8765 71.0509 Z"/>
<path d="M 509.8765 71.0509 491.9431 181.8988 360.4931 184.9135 367.7627 268.9112 356.6464 452.114 386.0463 496.4553 446.2298 494.5158 437.0957 571.1988 332.6836 520.8818 260.3003 523.1126 155.3504 412.7098 145.2283 200.8874 1 225.4647 30.4201 170.3788 105.7164 186.3424 213.3977 118.9037 291.1751 114.1742 351.9575 1.0775 440.0781 1 509.8765 71.0509 Z"/>
</g>
</svg>