<?xml version="1.0"?>
<svg xmlns="http://www.w3.org/2000/svg" version="1.2" baseProfile="tiny" width="800" height="989" viewBox="0 0 800 989" stroke-linecap="round" stroke-linejoin="round">
<g id="14MEE250GC_SIR">
<path d="M 47.0259 408.954 9.302 314.08 1 226.6656 48.4267 200.1996 317.7808 170.5263 492.9399 101.7708 615.9453 1 612.5339 107.8127 667.9751 117.1821 707.1417 190.4993 638.1385 340.5054 675.008 478.1806 577.8774 516.8935 479.7915 468.815 510.4482 431.7414 473.5419 373.4245 155.6148 357.1025 47.0259 408.954 Z"/>
<path d="M 47.0259 408.954 155.6148 357.1025 473.5419 373.4245 510.4482 431.7414 479.7915 468.815 577.8774 516.8935 675.008 478.1806 746.0609 568.6358 798.9951 592.39 799 735.0419 629.9654 735.0367 537.4174 904.4033 475.9364 848.9125 408.3844 885.643 398.1281 988.2811 265.5464 889.6473 311.7737 821.716 272.6968 743.3414 274.1776 632.2124 220.5384 538.5873 231.738 483.9632 47.0259 408.954 Z"/>
</g>
</svg>