<?xml version="1.0"?>
<svg xmlns="http://www.w3.org/2000/svg" version="1.2" baseProfile="tiny" width="800" height="669" viewBox="0 0 800 669" stroke-linecap="round" stroke-linejoin="round">
<g id="43MEE250GC_SIR">
<path d="M 205.7895 156.9707 235.6634 154.4583 282.4679 173.9349 294.5079 160.0405 322.2764 181.0635 367.8366 176.3412 376.9496 166.5211 414.3655 194.0702 438.0033 201.2968 443.327 263.6572 433.7544 302.214 388.9152 340.2575 361.2306 315.1597 376.0347 288.8024 337.9092 277.3291 280.1325 299.0826 234.289 292.0257 257.4712 258.2516 283.5728 247.9437 272.1703 222.1011 237.7188 205.7884 231.3936 183.4408 205.7895 156.9707 Z"/>
<path d="M 544.4797 196.2924 584.8709 188.1271 597.339 229.6315 602.7341 250.4745 584.7243 274.1074 551.7396 280.5018 548.8183 332.9784 531.2066 324.5596 502.4681 312.9151 476.6358 323.8204 455.4531 352.5821 430.3818 320.478 433.7544 302.214 443.327 263.6572 438.0033 201.2968 464.588 200.758 475.5949 218.0189 521.4149 209.93 544.4797 196.2924 Z"/>
<path d="M 410.5537 653.5364 411.9431 608.1131 456.8634 566.2577 446.631 557.8947 485.8839 536.1652 506.5013 544.9295 491.8951 577.0664 449.5838 574.1652 446.8315 592.9075 420.675 609.001 410.5537 653.5364 Z"/>
<path d="M 597.339 229.6315 584.8709 188.1271 544.4797 196.2924 532.5808 168.4849 540.7123 152.5857 580.5369 152.3529 605.2133 91.6062 636.1452 56.713 675.1963 82.304 701.4515 119.471 725.4451 129.1736 794.5003 135.3058 772.879 163.5368 764.7946 222.6846 704.9754 243.5269 686.1612 212.8539 597.339 229.6315 Z"/>
<path d="M 368.3845 486.4741 385.2597 434.1087 410.7436 414.1635 419.2682 388.185 388.7044 366.532 388.9152 340.2575 433.7544 302.214 430.3818 320.478 455.4531 352.5821 476.6358 323.8204 502.4681 312.9151 531.2066 324.5596 520.0559 346.579 554.8598 379.865 577.9501 380.7065 585.1101 418.5994 567.9717 428.5411 562.8962 459.8584 542.8902 466.7555 556.0904 507.4902 536.2716 525.4081 515.7586 579.0786 487.1884 621.2777 426.9831 668.039 410.5537 653.5364 420.675 609.001 446.8315 592.9075 449.5838 574.1652 491.8951 577.0664 506.5013 544.9295 485.8839 536.1652 446.631 557.8947 405.2674 536.8733 388.6425 498.9784 368.3845 486.4741 Z M 557.5799 507.3308 563.964 483.4753 606.3018 462.4116 622.5243 439.8603 643.3764 436.0211 648.6107 440.7856 583.1682 482.874 557.5799 507.3308 Z"/>
<path d="M 636.1452 56.713 605.2133 91.6062 580.5369 152.3529 540.7123 152.5857 532.5808 168.4849 544.4797 196.2924 521.4149 209.93 475.5949 218.0189 464.588 200.758 438.0033 201.2968 414.3655 194.0702 376.9496 166.5211 367.8366 176.3412 322.2764 181.0635 294.5079 160.0405 282.4679 173.9349 235.6634 154.4583 205.7895 156.9707 217.094 93.9411 228.3731 77.7461 259.078 68.4686 271.4099 48.283 326.8101 30.8857 362.2446 3.838 478.7412 1 535.5873 16.084 575.8958 33.5682 596.4845 32.3187 636.1452 56.713 Z"/>
<path d="M 643.3764 436.0211 622.5243 439.8603 606.3018 462.4116 563.964 483.4753 557.5799 507.3308 556.0904 507.4902 542.8902 466.7555 562.8962 459.8584 567.9717 428.5411 585.1101 418.5994 622.2605 398.6881 649.3967 327.3387 714.3845 315.9193 692.4663 371.2299 649.5311 397.6976 643.3764 436.0211 Z"/>
<path d="M 597.339 229.6315 686.1612 212.8539 704.9754 243.5269 764.7946 222.6846 797.7939 220.3848 762.9996 272.8997 737.898 333.4996 691.1002 400.7767 648.6107 440.7856 643.3764 436.0211 649.5311 397.6976 692.4663 371.2299 714.3845 315.9193 649.3967 327.3387 622.2605 398.6881 585.1101 418.5994 577.9501 380.7065 554.8598 379.865 520.0559 346.579 531.2066 324.5596 548.8183 332.9784 551.7396 280.5018 584.7243 274.1074 602.7341 250.4745 597.339 229.6315 Z"/>
<path d="M 217.094 93.9411 205.7895 156.9707 231.3936 183.4408 237.7188 205.7884 272.1703 222.1011 283.5728 247.9437 257.4712 258.2516 234.289 292.0257 280.1325 299.0826 337.9092 277.3291 376.0347 288.8024 361.2306 315.1597 388.9152 340.2575 388.7044 366.532 419.2682 388.185 410.7436 414.1635 385.2597 434.1087 368.3845 486.4741 316.7629 455.734 303.5077 435.9299 278.1794 434.4485 236.2046 410.5077 202.8045 373.377 173.2243 396.8657 141.0654 349.4898 73.8185 297.1495 50.6917 297.4154 37.9133 317.0635 1 313.7238 76.6883 236.3795 100.3662 198.8125 129.6934 167.183 171.88 133.803 183.3222 109.6817 217.094 93.9411 Z"/>
</g>
</svg>