<?xml version="1.0"?>
<svg xmlns="http://www.w3.org/2000/svg" version="1.2" baseProfile="tiny" width="800" height="489" viewBox="0 0 800 489" stroke-linecap="round" stroke-linejoin="round">
<g id="42MEE250GC_SIR">
<path d="M 657.065 287.3153 673.7524 291.4256 679.1024 290.8178 680.8353 295.4557 686.8612 296.876 694.3702 294.4699 696.8831 300.9784 705.3532 307.0911 709.3006 311.3936 711.8815 306.4909 717.4496 307.573 725.623 306.4168 732.2046 309.691 744.678 307.9733 742.8193 302.6102 749.8421 296.4791 753.0181 290.9702 757.2331 287.8856 755.6028 295.8864 760.1435 300.1572 759.0039 304.9824 755.6126 308.4517 753.4559 317.8618 751.0695 322.7734 752.0016 330.9899 746.46 337.6888 744.063 346.2286 739.2977 353.7298 736.2075 362.988 738.9185 369.5769 727.0582 384.3771 722.0693 385.8435 705.6617 393.8363 688.402 403.9897 668.2842 417.6868 646.5572 435.7464 633.2023 448.6563 614.8826 468.3608 598.3615 487.9872 593.7424 485.3148 583.0051 483.4266 575.1603 474.4599 561.5693 470.7379 554.6869 474.6101 539.2955 479.9866 533.9912 477.2076 534.9016 470.5875 540.4209 472.5146 553.5144 465.4854 557.3307 458.8385 562.5286 454.1247 561.0943 444.912 565.8093 436.7571 562.8078 436.1726 561.2263 430.8815 563.4851 426.8626 561.6588 420.3854 561.7736 408.5204 575.1825 398.1431 579.1083 398.9138 579.5864 393.1162 588.3753 387.712 599.425 387.6296 606.7413 383.7383 607.2143 375.5964 612.3264 373.1031 615.785 369.0004 621.5903 366.7493 622.2056 360.3872 619.3031 356.6255 622.6773 352.4833 620.5421 350.1568 625.724 339.5577 623.8549 327.8112 627.5852 318.8084 630.722 314.4893 635.8846 315.7269 638.9358 312.5185 644.6722 311.9695 643.0184 307.9267 647.7027 305.5406 651.0136 295.3627 655.5081 293.4502 657.065 287.3153 Z"/>
<path d="M 751.0342 88.5611 747.4359 102.152 749.5173 114.9121 757.3303 119.3851 759.6966 124.7229 755.5462 127.6675 753.9852 135.536 756.7001 139.6608 755.3558 147.72 758.2803 150.8383 764.56 151.4159 758.26 164.752 762.1662 170.9112 767.1018 173.0672 771.345 167.9463 777.5313 172.4498 772.7959 176.9621 759.9064 181.8898 751.613 181.503 748.1375 178.5519 747.3005 170.5055 731.0809 172.6638 729.3135 169.7364 719.211 176.7698 703.4389 186.3479 696.4765 189.7461 684.1383 190.2897 676.6963 193.1634 672.6944 192.8563 667.9134 197.8905 661.3617 198.7925 656.5883 207.86 658.7487 212.5599 659.2917 219.2227 654.9887 225.643 655.3599 229.6891 650.2623 232.1483 641.7487 232.048 639.3435 235.2142 632.9447 232.7899 627.8945 237.6566 617.2724 241.927 609.6589 246.6739 606.9166 243.7673 601.4016 245.2409 594.3545 244.6349 595.0358 240.6395 592.3306 236.8975 583.0453 231.2301 578.2497 223.892 571.5862 221.7504 571.8923 217.7284 567.8456 211.8319 561.8248 209.2373 556.7346 210.4738 551.6734 203.8658 552.2059 197.5532 546.7894 196.476 537.9994 190.5525 531.1162 190.0175 513.9655 181.3499 514.3399 174.7947 511.4037 174.0674 509.506 166.7073 505.3018 163.5599 508.5279 160.8641 516.5354 139.897 519.0269 130.1359 523.7793 123.0806 532.5009 119.3391 541.8898 123.4586 545.6674 121.9161 553.5099 122.649 559.2894 120.2331 564.9286 121.188 569.7686 118.0697 572.1063 112.4333 578.4366 107.7594 583.9998 108.3831 589.4005 116.0253 593.7605 118.573 599.6843 106.9403 612.3912 105.0428 612.1532 97.4968 616.5105 95.4028 617.3525 88.8191 622.178 81.0019 635.9743 77.4511 641.1171 78.6687 646.9694 75.5093 653.5317 82.8181 659.203 83.4159 658.3723 87.5254 660.431 92.8267 673.0944 95.0058 678.0219 98.8059 695.222 99.3113 698.2896 104.2128 694.7869 107.7088 695.7789 115.9083 704.8174 111.711 711.1594 105.3425 713.5847 100.5438 718.7957 100.0928 723.0877 96.7824 722.017 89.343 722.9723 84.3364 730.1987 79.0978 738.0963 82.9473 744.7544 91.3234 751.0342 88.5611 Z"/>
<path d="M 759.9064 181.8898 758.0315 189.7444 761.2328 196.1753 769.0634 196.7039 771.0338 209.6345 777.2746 205.2629 786.9389 205.5954 793.3024 218.8786 788.52 224.0536 785.1671 231.0562 786.8599 236.0168 779.6322 245.0576 773.7664 258.6339 778.045 261.1984 775.1865 266.0276 769.8683 266.1499 768.6599 270.79 760.8964 274.1816 760.5598 278.4631 763.9142 280.1609 757.2331 287.8856 753.0181 290.9702 749.8421 296.4791 742.8193 302.6102 744.678 307.9733 732.2046 309.691 725.623 306.4168 717.4496 307.573 711.8815 306.4909 709.3006 311.3936 705.3532 307.0911 696.8831 300.9784 694.3702 294.4699 686.8612 296.876 680.8353 295.4557 679.1024 290.8178 673.7524 291.4256 657.065 287.3153 658.7293 277.6826 655.4491 271.079 652.1143 271.749 639.1881 262.7059 635.0482 260.9912 633.066 255.9966 633.5787 250.1909 628.4247 245.3453 627.8945 237.6566 632.9447 232.7899 639.3435 235.2142 641.7487 232.048 650.2623 232.1483 655.3599 229.6891 654.9887 225.643 659.2917 219.2227 658.7487 212.5599 656.5883 207.86 661.3617 198.7925 667.9134 197.8905 672.6944 192.8563 676.6963 193.1634 684.1383 190.2897 696.4765 189.7461 703.4389 186.3479 719.211 176.7698 729.3135 169.7364 731.0809 172.6638 747.3005 170.5055 748.1375 178.5519 751.613 181.503 759.9064 181.8898 Z"/>
<path d="M 318.0733 221.3505 328.6893 216.8922 329.4892 205.9962 332.6401 205.0827 327.9426 198.0356 321.1052 197.528 331.634 191.2945 335.3055 196.2492 343.4187 200.2201 346.4603 196.2024 350.2197 198.1174 361.9321 199.8822 366.5038 192.7732 362.8001 188.1901 369.8057 182.1916 378.0484 184.5102 379.6853 188.0148 387.269 192.0037 393.4763 185.4783 400.7428 186.8613 406.563 182.2679 409.3758 175.2291 416.0748 172.6413 419.5561 168.0926 427.7543 168.5675 428.2775 171.4408 433.4702 174.2507 441.5504 167.3342 448.8784 167.639 459.3472 158.701 464.3423 152.9969 465.9791 143.1854 469.957 139.605 470.4149 130.4733 474.788 125.7 480.3116 124.1116 479.3286 118.1649 483.2634 116.4132 480.8273 108.603 483.2404 100.1998 487.7405 100.8804 487.1983 105.7953 499.9226 112.0624 504.5665 111.7133 506.9999 118.0142 506.3153 124.877 513.9982 126.1374 519.0269 130.1359 516.5354 139.897 508.5279 160.8641 505.3018 163.5599 509.506 166.7073 511.4037 174.0674 514.3399 174.7947 513.9655 181.3499 531.1162 190.0175 537.9994 190.5525 546.7894 196.476 552.2059 197.5532 551.6734 203.8658 556.7346 210.4738 561.8248 209.2373 567.8456 211.8319 571.8923 217.7284 571.5862 221.7504 578.2497 223.892 583.0453 231.2301 592.3306 236.8975 595.0358 240.6395 594.3545 244.6349 601.4016 245.2409 606.9166 243.7673 609.6589 246.6739 617.2724 241.927 627.8945 237.6566 628.4247 245.3453 633.5787 250.1909 633.066 255.9966 635.0482 260.9912 639.1881 262.7059 652.1143 271.749 655.4491 271.079 658.7293 277.6826 657.065 287.3153 655.5081 293.4502 651.0136 295.3627 647.7027 305.5406 643.0184 307.9267 644.6722 311.9695 638.9358 312.5185 635.8846 315.7269 630.722 314.4893 627.5852 318.8084 623.8549 327.8112 625.724 339.5577 620.5421 350.1568 622.6773 352.4833 619.3031 356.6255 622.2056 360.3872 621.5903 366.7493 615.785 369.0004 612.3264 373.1031 607.2143 375.5964 606.7413 383.7383 599.425 387.6296 598.7191 380.8215 593.0683 373.9919 592.8436 367.9523 586.6222 368.3092 582.7814 364.4375 579.5621 368.3189 570.6561 363.6854 560.3971 360.1128 552.1723 365.0799 541.9649 366.5535 534.6592 361.4712 527.1045 360.7869 523.6687 363.4756 520.787 358.9192 516.3391 362.5714 512.1952 359.9757 506.4914 360.2229 502.4155 357.3448 493.6106 359.1402 487.5358 356.4223 478.6184 355.3882 476.7746 358.2596 469.6385 351.5628 459.1316 345.1974 459.1786 341.5332 454.7376 335.3719 446.2053 331.5914 445.138 324.358 441.9853 321.5832 440.3434 316.1379 430.8775 316.2932 428.4091 309.7853 428.4805 303.8574 426.4034 299.2629 421.509 297.6695 421.4026 291.7881 411.2447 288.0482 402.1547 281.8747 402.3216 276.5462 390.6874 267.2908 382.9352 263.5064 370.2717 259.2442 370.3269 255.9444 365.0855 254.0893 364.367 248.5403 357.8041 249.0834 354.7163 241.3115 346.6499 241.9463 341.0101 237.7016 337.1276 231.1976 324.6653 232.224 318.2843 229.0578 319.94 223.3174 318.0733 221.3505 Z"/>
<path d="M 751.0342 88.5611 744.7544 91.3234 738.0963 82.9473 730.1987 79.0978 722.9723 84.3364 722.017 89.343 723.0877 96.7824 718.7957 100.0928 713.5847 100.5438 711.1594 105.3425 704.8174 111.711 695.7789 115.9083 694.7869 107.7088 698.2896 104.2128 695.222 99.3113 678.0219 98.8059 673.0944 95.0058 660.431 92.8267 658.3723 87.5254 659.203 83.4159 653.5317 82.8181 646.9694 75.5093 641.1171 78.6687 635.9743 77.4511 622.178 81.0019 617.3525 88.8191 616.5105 95.4028 612.1532 97.4968 612.3912 105.0428 599.6843 106.9403 593.7605 118.573 589.4005 116.0253 583.9998 108.3831 578.4366 107.7594 572.1063 112.4333 569.7686 118.0697 564.9286 121.188 559.2894 120.2331 553.5099 122.649 545.6674 121.9161 541.8898 123.4586 532.5009 119.3391 523.7793 123.0806 519.0269 130.1359 513.9982 126.1374 506.3153 124.877 506.9999 118.0142 504.5665 111.7133 499.9226 112.0624 487.1983 105.7953 487.7405 100.8804 483.2404 100.1998 480.8273 108.603 483.2634 116.4132 479.3286 118.1649 474.5511 116.747 469.9859 112.063 463.4455 108.301 460.1152 102.9356 456.1435 100.3762 449.1281 104.7195 441.916 103.8355 438.1745 99.3888 430.9355 85.761 419.0504 84.5171 408.7538 76.5248 410.3156 70.9155 414.4849 66.4381 412.4433 63.3213 406.6896 63.4493 393.5677 61.2791 382.5865 70.2139 380.9445 66.5749 370.8915 60.7 374.1595 52.3833 388.6756 44.9331 395.47 44.0435 399.033 38.0012 402.0264 39.848 410.1589 37.871 414.4996 42.3902 418.5451 39.8387 423.5125 40.6552 423.5434 45.6494 432.6445 43.1262 439.4884 38.0085 444.9247 36.6606 447.3641 40.2666 451.7841 39.9468 449.7055 33.9394 453.4791 31.7748 457.1498 25.915 461.3258 23.6034 460.4545 18.9824 464.8857 13.3427 469.4016 14.5474 475.4199 12.9408 469.6416 8.2413 472.9844 4.5671 475.8077 9.8618 481.2855 8.0925 488.9282 8.1243 493.5001 13.4671 496.6295 12.8162 501.9359 15.83 502.5569 20.6735 509.2247 23.8148 507.7212 16.7316 512.5654 12.2639 518.9242 9.885 529.4281 15.6262 535.6966 8.1587 538.0191 11.6877 550.4205 8.3105 554.5399 6.2258 566.2202 8.6866 575.1735 9.1629 575.9942 12.2633 581.7732 17.9787 592.7989 22.4532 603.8416 31.9568 611.2386 35.7578 621.7764 38.3127 630.3264 35.5527 631.2618 31.0554 635.9914 27.8989 646.4397 27.1266 655.044 20.3195 658.1728 20.51 667.3835 8.7108 677.5296 4.3846 691.1988 4.4433 699.0149 6.5786 707.7178 1.4826 748.3206 1.9013 760.0808 1.4835 758.7659 11.7007 761.9484 26.8835 767.9932 29.2297 774.2662 38.8816 768.0843 49.5533 760.3589 67.3325 758.8347 73.0668 751.0342 88.5611 Z"/>
<path d="M 370.8915 60.7 380.9445 66.5749 382.5865 70.2139 393.5677 61.2791 406.6896 63.4493 412.4433 63.3213 414.4849 66.4381 410.3156 70.9155 408.7538 76.5248 419.0504 84.5171 430.9355 85.761 438.1745 99.3888 441.916 103.8355 449.1281 104.7195 456.1435 100.3762 460.1152 102.9356 463.4455 108.301 469.9859 112.063 474.5511 116.747 479.3286 118.1649 480.3116 124.1116 474.788 125.7 470.4149 130.4733 469.957 139.605 465.9791 143.1854 464.3423 152.9969 459.3472 158.701 448.8784 167.639 441.5504 167.3342 433.4702 174.2507 428.2775 171.4408 427.7543 168.5675 419.5561 168.0926 416.0748 172.6413 409.3758 175.2291 406.563 182.2679 400.7428 186.8613 393.4763 185.4783 387.269 192.0037 379.6853 188.0148 378.0484 184.5102 369.8057 182.1916 362.8001 188.1901 366.5038 192.7732 361.9321 199.8822 350.2197 198.1174 346.4603 196.2024 343.4187 200.2201 335.3055 196.2492 331.634 191.2945 321.1052 197.528 327.9426 198.0356 332.6401 205.0827 329.4892 205.9962 328.6893 216.8922 318.0733 221.3505 315.9073 225.3932 311.5226 223.7251 305.717 224.6792 300.7247 221.2772 293.3992 222.1313 287.2983 220.5525 278.7068 221.7544 273.8611 212.6219 265.0151 209.9231 264.9761 205.255 257.5986 200.643 248.3492 199.2791 246.0749 194.2157 240.977 195.9312 238.2338 190.4413 234.8747 197.2059 231.1942 197.8449 225.4177 191.4051 220.7831 196.6294 213.1597 192.2272 209.4412 194.41 200.4689 188.6573 201.6416 183.1319 194.5297 184.4486 194.6043 188.8808 179.5207 186.0729 174.3957 188.847 165.8638 185.935 164.444 191.1216 153.2357 186.4383 153.5972 181.19 145.325 179.6336 139.0946 174.9535 128.9843 179.8602 124.9916 173.9081 122.914 181.8362 118.6798 180.2428 120.8427 174.9624 114.863 173.2321 112.6405 168.3155 115.7119 165.3474 111.6461 162.2997 107.26 166.333 108.2884 172.9911 98.321 175.7292 93.9599 171.127 92.1224 177.7088 84.8339 175.0533 71.6378 180.9434 75.9606 170.6346 72.4069 167.3954 68.2592 167.7443 63.1134 163.8256 59.4425 170.0127 52.2747 172.9801 49.2169 170.3574 44.585 172.1888 47.2642 176.412 43.1057 179.5834 37.5653 175.277 28.5262 177.4192 18.6124 173.9582 12.0986 177.7117 9.0801 177.5236 5.5189 171.6084 2.0967 171.5021 1 166.276 2.4976 155.8579 9.6702 154.6977 10.5016 148.7574 16.3942 143.3908 15.5468 140.3802 20.4542 134.5232 16.9459 122.6881 11.2252 116.1926 10.8221 112.5371 13.201 99.9439 8.2256 98.2326 11.5741 93.8064 13.4827 86.1983 12.218 77.4568 18.4314 68.7541 15.5352 61.9462 18.6649 53.2404 24.716 45.4063 25.1092 42.2632 33.4699 42.0603 37.4164 46.1446 46.3741 48.4363 56.8451 45.0703 63.8379 39.5144 74.2822 41.9685 77.3266 40.1212 80.1219 46.4744 92.0284 54.518 97.7186 54.5988 100.1248 58.5646 105.0821 61.4468 111.9581 59.8685 119.6257 54.9815 125.9062 57.1108 138.1679 56.5087 140.9973 54.5035 151.4289 55.0113 156.9158 54.1796 159.8972 56.3994 165.3116 55.7174 177.6121 64.9524 188.0532 62.4906 196.8933 68.3851 205.7178 66.7262 209.1397 68.2447 220.1151 68.5446 224.1093 71.5396 230.985 72.3863 237.3236 69.189 240.1887 72.0856 248.2179 73.5413 252.6331 80.8538 259.4928 82.9898 263.2176 86.8979 279.0355 88.7532 282.2973 91.4214 290.6617 88.6536 296.0023 90.0318 302.7539 87.8359 309.3083 88.9316 314.3006 86.7305 318.0878 89.914 332.2136 90.578 338.0723 89.9391 343.9848 97.7028 346.8337 104.6321 350.9208 106.4464 353.2813 100.9968 359.7115 98.8599 367.3733 99.9271 375.8817 95.3717 377.0599 85.1505 370.4815 76.9448 373.3946 71.6584 367.6085 67.5856 367.7808 63.2243 370.8915 60.7 Z"/>
</g>
</svg>