<?xml version="1.0"?>
<svg xmlns="http://www.w3.org/2000/svg" version="1.2" baseProfile="tiny" width="800" height="890" viewBox="0 0 800 890" stroke-linecap="round" stroke-linejoin="round">
<g id="28MEE250GC_SIR">
<path d="M 470.0923 278.3098 554.7042 217.4949 616.6818 302.6202 725.0348 350.8915 799 423.9731 593.4797 537.8108 520.0586 625.9901 399.5024 827.8475 238.377 889.1153 107.1416 795.2147 153.423 724.7329 227.3955 719.3793 321.8804 601.2518 429.0362 546.679 491.3916 367.6532 470.0923 278.3098 Z"/>
<path d="M 470.0923 278.3098 491.3916 367.6532 429.0362 546.679 321.8804 601.2518 227.3955 719.3793 153.423 724.7329 107.1416 795.2147 107.7849 729.8274 1 607.1963 7.5526 520.004 103.502 537.3227 173.4477 462.219 304.3079 488.8474 384.1151 442.8869 356.6921 388.9607 470.0923 278.3098 Z"/>
<path d="M 554.7042 217.4949 470.0923 278.3098 356.6921 388.9607 384.1151 442.8869 304.3079 488.8474 173.4477 462.219 215.1452 352.3249 175.9114 211.5595 118.0548 194.6337 87.2 109.4879 104.1558 1 329.0644 96.7335 554.7042 217.4949 Z"/>
</g>
</svg>