<?xml version="1.0"?>
<svg xmlns="http://www.w3.org/2000/svg" version="1.2" baseProfile="tiny" width="800" height="507" viewBox="0 0 800 507" stroke-linecap="round" stroke-linejoin="round">
<g id="35MEE250GC_SIR">
<path d="M 208.6382 203.9511 197.0318 200.703 214.9939 180.8701 216.7783 171.1163 226.8696 176.2525 247.7321 175.6771 271.468 195.2293 305.0765 208.293 315.2447 215.7477 324.2563 229.9433 306.1079 244.4717 293.1171 247.3229 280.8708 250.9587 264.5167 246.4074 252.1601 249.7003 240.7888 245.3606 244.9789 220.9877 230.1576 217.088 208.6382 203.9511 Z"/>
<path d="M 112.0048 116.0906 125.4844 106.4316 124.4603 89.2676 150.914 53.0367 172.0372 46.2858 183.1772 60.7911 184.9931 70.6519 199.3491 69.3912 200.0682 81.7106 217.9377 90.9012 231.0475 91.3658 247.423 100.9244 264.1056 101.2389 269.5116 109.0442 259.1388 124.0575 287.7188 136.3551 280.1 161.9318 266.0094 165.2008 262.0332 174.1452 247.7321 175.6771 226.8696 176.2525 216.7783 171.1163 188.7425 151.4207 166.3855 146.1886 152.3422 137.876 122.2248 126.7614 112.0048 116.0906 Z"/>
<path d="M 540.0756 135.6673 553.7389 149.0899 560.6192 144.6378 587.6218 152.1082 589.2764 161.2348 572.0573 187.2366 576.4161 199.8804 569.9237 230.5683 577.4317 241.4553 593.573 249.3011 600.7075 276.2574 581.8617 279.0282 574.7773 271.5993 556.83 278.1819 552.1476 296.0812 531.0619 301.6696 521.857 309.0702 505.3115 301.6841 508.129 283.7594 499.4492 270.2118 517.6624 264.7206 537.1135 231.7434 523.2324 225.2487 526.1998 210.9343 491.7153 210.048 497.7335 196.1935 496.6203 184.0996 505.6197 179.8791 507.8759 167.6948 517.9071 161.5214 528.2253 140.3653 540.0756 135.6673 Z"/>
<path d="M 112.0048 116.0906 122.2248 126.7614 152.3422 137.876 166.3855 146.1886 188.7425 151.4207 216.7783 171.1163 214.9939 180.8701 197.0318 200.703 208.6382 203.9511 207.5961 224.6038 194.8545 249.9732 176.2118 244.8876 157.5693 251.5209 154.943 262.9728 131.2803 265.1159 102.8439 258.8724 79.8536 249.0681 71.2551 263.1564 38.0499 253.2484 28.2938 258.7629 3.3679 253.6456 1 246.647 47.251 221.6617 62.5237 199.474 82.0095 179.0061 82.1449 161.6947 97.8628 152.7295 105.1207 135.6024 102.3621 124.874 112.0048 116.0906 Z"/>
<path d="M 154.943 262.9728 157.5693 251.5209 176.2118 244.8876 194.8545 249.9732 207.5961 224.6038 208.6382 203.9511 230.1576 217.088 244.9789 220.9877 240.7888 245.3606 252.1601 249.7003 264.5167 246.4074 280.8708 250.9587 293.1171 247.3229 305.8641 258.4876 317.0996 248.4095 332.2563 262.2846 330.2303 282.5145 342.9079 295.8345 341.004 311.2991 343.7156 330.331 330.8754 340.0561 319.8786 341.4997 308.8641 334.0176 301.654 308.3701 280.4784 297.1597 273.7279 283.2523 255.719 288.3675 208.2104 288.3166 191.4167 273.9087 170.3592 270.8027 154.943 262.9728 Z"/>
<path d="M 287.7188 136.3551 259.1388 124.0575 269.5116 109.0442 264.1056 101.2389 247.423 100.9244 231.0475 91.3658 217.9377 90.9012 200.0682 81.7106 199.3491 69.3912 184.9931 70.6519 183.1772 60.7911 172.0372 46.2858 184.7356 24.2272 212.8941 12.5213 229.9853 1 240.5385 8.6695 263.6715 9.6542 282.5848 15.9759 316.4748 13.1699 321.9245 18.9413 336.0726 17.3557 335.9179 36.0539 342.6131 48.5718 365.5429 39.7399 366.3571 57.4242 373.2895 60.4813 390.895 112.5626 383.2463 120.4167 390.6018 131.6321 385.2547 149.5497 371.8613 145.0425 355.0258 153.7832 343.6996 172.2242 333.265 162.0747 319.1473 157.0432 310.1938 145.8171 287.7188 136.3551 Z"/>
<path d="M 579.8185 391.2271 543.8559 413.6109 543.7505 420.0912 493.2868 451.6835 467.7657 471.483 460.447 488.1334 443.3143 496.3135 433.9843 480.5425 416.2564 471.8265 402.178 471.0902 404.824 448.8128 417.1251 434.7884 421.5061 412.6434 457.7883 393.9153 477.3492 394.402 482.4883 387.1641 501.9929 389.9424 525.9767 383.1202 546.0163 388.8833 559.4772 378.2957 581.2581 384.1138 579.8185 391.2271 Z"/>
<path d="M 343.6996 172.2242 355.0258 153.7832 371.8613 145.0425 385.2547 149.5497 394.2593 160.7222 433.6686 154.0875 440.7852 150.1083 456.7817 165.6258 490.8527 177.9624 496.6203 184.0996 497.7335 196.1935 491.7153 210.048 480.0641 221.0754 458.2643 212.0585 443.8006 218.3159 425.0876 219.9894 407.9776 203.7553 387.7542 192.1287 363.9301 186.3735 343.6996 172.2242 Z"/>
<path d="M 610.876 309.4062 630.0262 283.2044 642.8495 277.105 655.7123 278.1197 657.899 261.6745 687.9823 260.9959 720.1758 244.594 743.7345 239.0135 757.4118 256.2822 778.9421 256.2362 799 259.6947 791.4563 277.052 771.8307 278.6217 743.9892 290.8908 741.0451 307.2605 733.6895 322.7718 709.4061 337.4662 703.0379 346.2847 688.3363 349.0129 689.272 365.6951 648.8821 361.1747 662.2004 349.7088 649.0409 335.2956 643.2996 338.2798 610.876 309.4062 Z"/>
<path d="M 600.7075 276.2574 603.3593 283.9019 621.8259 280.5943 630.0262 283.2044 610.876 309.4062 596.8476 321.0594 587.5031 314.0276 567.2784 315.1907 540.2333 324.4579 544.6495 338.5536 536.541 352.105 542.5544 368.2313 533.3793 369.478 525.9767 383.1202 501.9929 389.9424 482.4883 387.1641 477.3492 394.402 457.7883 393.9153 438.4355 376.0269 448.8269 360.964 466.0646 363.1332 461.4911 347.5252 470.7749 345.6541 477.2635 322.7613 487.0874 309.8805 489.1071 301.4626 505.3115 301.6841 521.857 309.0702 531.0619 301.6696 552.1476 296.0812 556.83 278.1819 574.7773 271.5993 581.8617 279.0282 600.7075 276.2574 Z"/>
<path d="M 540.0756 135.6673 528.2253 140.3653 517.9071 161.5214 507.8759 167.6948 505.6197 179.8791 496.6203 184.0996 490.8527 177.9624 456.7817 165.6258 440.7852 150.1083 433.6686 154.0875 394.2593 160.7222 385.2547 149.5497 390.6018 131.6321 383.2463 120.4167 390.895 112.5626 373.2895 60.4813 373.2336 45.8497 379.1137 35.5533 424.9889 31.2306 434.7342 24.492 443.9944 34.178 464.8545 29.8338 466.2421 20.2885 486.1683 25.2027 502.1327 17.8304 507.1292 28.1882 520.3792 35.4064 522.4324 42.9791 517.7328 61.7181 530.0902 67.9653 535.2562 79.2209 522.3471 101.0764 531.066 109.8677 532.885 126.664 540.0756 135.6673 Z"/>
<path d="M 459.8071 281.9675 475.5299 292.3334 469.3114 300.1563 487.0874 309.8805 477.2635 322.7613 470.7749 345.6541 461.4911 347.5252 466.0646 363.1332 448.8269 360.964 438.4355 376.0269 457.7883 393.9153 421.5061 412.6434 417.1251 434.7884 404.824 448.8128 397.7193 443.6045 383.1882 446.0503 362.077 442.3096 352.9069 445.3861 334.7618 443.1391 344.8025 414.3105 331.2616 403.0565 307.9994 368.6372 313.2885 356.2696 306.7918 347.8587 308.8641 334.0176 319.8786 341.4997 330.8754 340.0561 343.7156 330.331 352.3636 343.2491 364.973 348.9719 381.1016 350.41 397.2408 346.3063 394.4264 331.3609 403.3797 317.8238 420.1171 319.3556 458.9674 293.8449 459.8071 281.9675 Z"/>
<path d="M 247.7321 175.6771 262.0332 174.1452 266.0094 165.2008 280.1 161.9318 287.7188 136.3551 310.1938 145.8171 319.1473 157.0432 333.265 162.0747 343.6996 172.2242 363.9301 186.3735 387.7542 192.1287 407.9776 203.7553 425.0876 219.9894 431.3525 233.5312 427.812 248.5898 434.1876 257.6945 450.6893 267.114 459.8071 281.9675 458.9674 293.8449 420.1171 319.3556 403.3797 317.8238 394.4264 331.3609 397.2408 346.3063 381.1016 350.41 364.973 348.9719 352.3636 343.2491 343.7156 330.331 341.004 311.2991 342.9079 295.8345 330.2303 282.5145 332.2563 262.2846 317.0996 248.4095 305.8641 258.4876 293.1171 247.3229 306.1079 244.4717 324.2563 229.9433 315.2447 215.7477 305.0765 208.293 271.468 195.2293 247.7321 175.6771 Z"/>
<path d="M 610.876 309.4062 643.2996 338.2798 649.0409 335.2956 662.2004 349.7088 648.8821 361.1747 622.9896 368.9508 616.7102 382.5934 599.8671 380.517 579.8185 391.2271 581.2581 384.1138 559.4772 378.2957 546.0163 388.8833 525.9767 383.1202 533.3793 369.478 542.5544 368.2313 536.541 352.105 544.6495 338.5536 540.2333 324.4579 567.2784 315.1907 587.5031 314.0276 596.8476 321.0594 610.876 309.4062 Z"/>
<path d="M 425.0876 219.9894 443.8006 218.3159 458.2643 212.0585 480.0641 221.0754 491.7153 210.048 526.1998 210.9343 523.2324 225.2487 537.1135 231.7434 517.6624 264.7206 499.4492 270.2118 508.129 283.7594 505.3115 301.6841 489.1071 301.4626 487.0874 309.8805 469.3114 300.1563 475.5299 292.3334 459.8071 281.9675 450.6893 267.114 434.1876 257.6945 427.812 248.5898 431.3525 233.5312 425.0876 219.9894 Z"/>
</g>
</svg>