<?xml version="1.0"?>
<svg xmlns="http://www.w3.org/2000/svg" version="1.2" baseProfile="tiny" width="800" height="1358" viewBox="0 0 800 1358" stroke-linecap="round" stroke-linejoin="round">
<g id="17MEE250GC_SIR">
<path d="M 532.4999 368.1129 436.3813 490.9504 444.4797 594.0547 401.0189 690.5626 406.5282 805.5491 323.2833 899.7071 443.5272 1155.5015 438.3625 1335.801 315.8151 1276.7601 231.2094 1356.5706 18.4737 1276.1741 1 1036.0597 118.0079 681.4816 245.8124 527.3547 229.7749 377.757 258.3134 281.0262 352.7645 232.6682 484.7321 1 547.8844 43.8996 568.4623 170.4662 532.4999 368.1129 Z"/>
<path d="M 532.4999 368.1129 622.1125 464.0261 622.8251 641.4271 704.8938 713.3888 726.5862 814.9645 799 842.5772 697.4672 1020.286 742.7556 1098.9702 751.0784 1301.5499 562.1086 1355.8434 438.3625 1335.801 443.5272 1155.5015 323.2833 899.7071 406.5282 805.5491 401.0189 690.5626 444.4797 594.0547 436.3813 490.9504 532.4999 368.1129 Z"/>
</g>
</svg>