<?xml version="1.0"?>
<svg xmlns="http://www.w3.org/2000/svg" version="1.2" baseProfile="tiny" width="800" height="557" viewBox="0 0 800 557" stroke-linecap="round" stroke-linejoin="round">
<g id="13MIE250GC_SIR">
<path d="M 387.5709 218.1681 387.2972 234.0954 372.9649 240.274 358.2055 264.8205 358.0737 283.9413 363.5154 295.1487 347.5067 311.0858 345.4711 323.7956 329.3615 337.8333 314.0024 347.226 313.0917 353.7775 298.9551 372.1399 280.8096 377.5066 281.6828 406.683 293.9852 403.1564 301.582 395.8101 317.4746 399.3309 335.1581 406.6403 337.6517 413.4952 323.094 417.3902 310.187 414.8035 292.003 421.4661 288.1259 437.8906 283.6138 445.0146 269.068 433.645 237.5672 434.747 208.2299 426.1859 196.5017 435.8637 196.4979 445.1504 190.3249 461.1458 182.6275 466.4572 182.2011 475.3571 170.5428 465.4155 97.3204 456.969 54.0939 451.9217 1 432.712 3.6577 424.3925 26.0874 422.7515 34.5149 427.8147 44.8809 425.2366 63.1842 435.9267 99.5666 424.2651 111.2387 411.8431 127.343 410.2539 136.6891 413.0354 146.7484 405.0859 156.1312 410.1754 172.3868 407.595 186.8071 399.9379 194.5857 401.535 206.7631 393.5639 224.6565 399.6739 245.22 388.0573 255.2535 377.0392 252.5581 360.9189 255.8915 344.6057 278.8014 315.6994 298.8212 309.2923 315.7981 310.5999 315.0894 299.066 308.4068 294.2886 311.6599 274.9661 309.5564 261.5209 315.4537 250.0197 347.5553 245.5268 359.6571 224.3113 376.1 226.616 387.5709 218.1681 Z"/>
<path d="M 675.621 209.0601 684.8784 206.9241 708.854 211.9321 728.2802 231.4651 738.7529 226.6879 744.2275 217.4059 752.2076 229.022 741.7753 239.6714 730.4907 240.2186 717.2947 259.3157 707.8117 289.0144 719.9425 305.4864 705.1725 311.7563 684.7137 281.8507 669.8312 284.7398 675.122 273.8039 688.6029 262.8625 673.7968 255.4212 656.3863 241.0941 668.8835 228.4654 675.621 209.0601 Z"/>
<path d="M 182.2011 475.3571 182.6275 466.4572 190.3249 461.1458 196.4979 445.1504 196.5017 435.8637 208.2299 426.1859 237.5672 434.747 269.068 433.645 283.6138 445.0146 288.1259 437.8906 307.9505 426.919 331.6145 454.2793 318.9035 464.5467 314.5763 493.4518 304.6077 506.277 306.7237 515.7252 298.0038 524.699 296.1586 545.8408 287.3743 544.3937 235.3451 520.8493 182.2011 475.3571 Z"/>
<path d="M 391.4734 213.9681 387.5709 218.1681 376.1 226.616 359.6571 224.3113 347.5553 245.5268 315.4537 250.0197 309.5564 261.5209 311.6599 274.9661 308.4068 294.2886 315.0894 299.066 315.7981 310.5999 298.8212 309.2923 278.8014 315.6994 255.8915 344.6057 252.5581 360.9189 255.2535 377.0392 245.22 388.0573 224.6565 399.6739 206.7631 393.5639 194.5857 401.535 186.8071 399.9379 172.3868 407.595 156.1312 410.1754 146.7484 405.0859 136.6891 413.0354 127.343 410.2539 111.2387 411.8431 99.5666 424.2651 63.1842 435.9267 44.8809 425.2366 34.5149 427.8147 26.0874 422.7515 3.6577 424.3925 1 432.712 5.3911 415.5638 25.1772 407.0797 29.969 399.3554 24.0492 381.963 35.3397 366.8458 43.5154 339.5014 76.3922 320.7878 87.6188 312.0409 99.1267 313.0193 114.5409 306.6942 130.932 304.7154 135.8725 296.8671 159.3179 296.063 163.4555 303.5238 176.0579 298.3833 190.8687 216.6218 208.0934 223.6757 216.0388 234.9365 226.4547 233.4508 242.4891 223.6653 260.1 221.3531 273.2431 230.0996 295.6 208.2044 307.5529 208.975 328.6049 203.3082 336.021 193.3358 349.0683 195.7275 359.6352 207.1079 372.686 209.0444 381.4978 214.8081 391.4734 213.9681 Z"/>
<path d="M 387.5709 218.1681 391.4734 213.9681 396.8291 211.8874 409.3793 230.2088 408.1796 236.6339 418.1678 254.5039 445.9646 274.808 435.9804 285.9539 423.1541 289.9492 391.3745 316.9666 386.4738 316.4961 371.6399 336.5117 371.998 346.4746 361.774 354.5645 344.8344 350.8637 325.6534 360.1988 313.0917 353.7775 314.0024 347.226 329.3615 337.8333 345.4711 323.7956 347.5067 311.0858 363.5154 295.1487 358.0737 283.9413 358.2055 264.8205 372.9649 240.274 387.2972 234.0954 387.5709 218.1681 Z"/>
<path d="M 675.621 209.0601 668.9813 188.3725 673.5436 178.2907 655.5086 170.2528 661.8958 155.2358 643.2077 152.4105 632.8396 140.7195 633.3414 130.5115 641.1497 123.2289 637.3709 111.2014 622.9077 109.8969 631.6372 92.1631 684.2279 92.1647 685.4241 120.2894 692.0616 124.4707 692.9253 135.5792 705.461 145.3626 705.7286 151.4583 717.9421 160.9191 755.2117 184.2416 784.3034 199.0805 789.2964 206.0311 798.458 204.4558 799 217.3706 771.4558 277.3314 744.5237 334.4842 713.1696 402.3718 705.7778 408.8441 705.4441 422.3146 717.1157 434.8779 718.6635 442.3121 702.4157 442.629 697.7548 428.2293 685.4919 411.5701 688.1086 350.1895 703.5113 339.3761 719.9425 305.4864 707.8117 289.0144 717.2947 259.3157 730.4907 240.2186 741.7753 239.6714 752.2076 229.022 744.2275 217.4059 738.7529 226.6879 728.2802 231.4651 708.854 211.9321 684.8784 206.9241 675.621 209.0601 Z"/>
<path d="M 313.0917 353.7775 325.6534 360.1988 344.8344 350.8637 361.774 354.5645 374.4133 358.5036 382.3894 365.4694 415.9643 371.3946 428.8568 360.3782 444.1405 353.9371 448.0762 346.7474 462.4613 339.5655 478.1618 340.0556 485.1113 325.9957 493.8578 320.8786 504.2962 325.1428 536.5897 355.6212 497.8587 405.9477 489.2562 424.715 481.599 430.9216 483.7169 443.0308 466.6947 471.4632 452.7326 499.0355 442.6748 506.746 442.7347 516.0452 412.0753 517.9095 406.9263 528.7143 396.6523 539.1418 391.8751 530.4351 369.628 544.4934 358.5652 537.5928 339.9467 538.2007 334.1543 547.7382 319.9013 556.2301 296.1586 545.8408 298.0038 524.699 306.7237 515.7252 304.6077 506.277 314.5763 493.4518 318.9035 464.5467 331.6145 454.2793 307.9505 426.919 288.1259 437.8906 292.003 421.4661 310.187 414.8035 323.094 417.3902 337.6517 413.4952 335.1581 406.6403 317.4746 399.3309 301.582 395.8101 293.9852 403.1564 281.6828 406.683 280.8096 377.5066 298.9551 372.1399 313.0917 353.7775 Z"/>
<path d="M 190.8687 216.6218 200.7668 156.9726 190.4455 137.9958 190.975 127.9292 170.4299 112.8919 170.9399 101.15 178.4364 110.8931 206.6829 128.2951 222.7843 126.5995 245.5342 139.1457 257.5378 135.1862 257.7388 172.5784 281.2696 173.8967 286.9247 180.2884 306.1005 177.1206 324.7382 179.0434 339.3823 171.934 352.7111 169.8005 371.6256 173.4322 373.7255 179.6094 394.9574 188.6625 406.4205 201.4231 416.834 197.2609 418.7263 206.2165 432.357 208.5604 424.8947 211.8595 429.6801 225.7796 429.1944 239.988 445.2354 257.5926 441.9708 265.9198 445.9646 274.808 418.1678 254.5039 408.1796 236.6339 409.3793 230.2088 396.8291 211.8874 391.4734 213.9681 381.4978 214.8081 372.686 209.0444 359.6352 207.1079 349.0683 195.7275 336.021 193.3358 328.6049 203.3082 307.5529 208.975 295.6 208.2044 273.2431 230.0996 260.1 221.3531 242.4891 223.6653 226.4547 233.4508 216.0388 234.9365 208.0934 223.6757 190.8687 216.6218 Z"/>
<path d="M 432.357 208.5604 437.5739 202.0719 449.5851 206.2954 450.8895 222.842 458.9973 222.005 463.4584 234.7742 473.9753 228.737 498.3544 242.4311 514.4824 247.3021 525.0126 231.9866 550.055 224.4388 556.8741 235.9957 565.0984 232.5655 572.6719 251.4798 583.9713 260.1252 573.436 265.4217 585.0222 282.2153 579.8206 287.2639 596.2333 296.778 572.6834 323.5433 536.5897 355.6212 504.2962 325.1428 493.8578 320.8786 485.1113 325.9957 478.1618 340.0556 462.4613 339.5655 448.0762 346.7474 444.1405 353.9371 428.8568 360.3782 415.9643 371.3946 382.3894 365.4694 374.4133 358.5036 361.774 354.5645 371.998 346.4746 371.6399 336.5117 386.4738 316.4961 391.3745 316.9666 423.1541 289.9492 435.9804 285.9539 445.9646 274.808 441.9708 265.9198 445.2354 257.5926 429.1944 239.988 429.6801 225.7796 424.8947 211.8595 432.357 208.5604 Z"/>
<path d="M 565.0984 232.5655 575.8172 230.4671 588.1002 236.1998 598.5655 234.1845 596.4345 221.1778 599.3701 205.0728 605.8131 196.303 616.917 194.2606 633.4227 202.9489 631.8529 221.6417 646.9111 239.6075 656.3863 241.0941 673.7968 255.4212 688.6029 262.8625 675.122 273.8039 669.8312 284.7398 656.3808 284.6976 650.8697 297.5602 636.6569 298.2163 631.0572 307.4901 618.5915 297.117 596.2333 296.778 579.8206 287.2639 585.0222 282.2153 573.436 265.4217 583.9713 260.1252 572.6719 251.4798 565.0984 232.5655 Z"/>
<path d="M 596.2333 296.778 618.5915 297.117 631.0572 307.4901 636.6569 298.2163 650.8697 297.5602 656.3808 284.6976 669.8312 284.7398 684.7137 281.8507 705.1725 311.7563 719.9425 305.4864 703.5113 339.3761 688.1086 350.1895 685.4919 411.5701 697.7548 428.2293 702.4157 442.629 718.6635 442.3121 716.141 455.0909 708.1793 467.8944 712.0905 478.7853 705.0615 509.3407 614.0435 509.2129 560.5114 509.308 547.7786 511.8068 535.5701 509.4453 524.7145 490.8891 511.1722 483.0872 501.4313 471.4326 466.6947 471.4632 483.7169 443.0308 481.599 430.9216 489.2562 424.715 497.8587 405.9477 536.5897 355.6212 572.6834 323.5433 596.2333 296.778 Z"/>
<path d="M 616.917 194.2606 604.9804 189.9737 605.0326 174.4829 592.4021 164.5308 598.3088 143.3559 602.8433 144.8571 619.3292 134.9725 614.9679 128.1149 622.9077 109.8969 637.3709 111.2014 641.1497 123.2289 633.3414 130.5115 632.8396 140.7195 643.2077 152.4105 661.8958 155.2358 655.5086 170.2528 673.5436 178.2907 668.9813 188.3725 675.621 209.0601 668.8835 228.4654 656.3863 241.0941 646.9111 239.6075 631.8529 221.6417 633.4227 202.9489 616.917 194.2606 Z"/>
<path d="M 170.9399 101.15 171.0682 78.5709 191.1733 75.3313 196.9419 70.4335 208.1055 76.5657 212.4292 68.2506 204.3021 53.8583 180.2371 54.3331 180.3214 25.0852 193.6797 21.8182 201.388 24.6726 257.9176 24.5852 267.8381 20.0238 275.2893 10.8022 282.6354 11.1424 293.2489 1 298.3663 17.9516 306.6844 24.5408 307.1089 50.5808 317.7525 47.6666 342.5363 69.5389 350.2434 70.0255 369.1929 58.2821 395.6352 60.5428 412.2831 43.9705 430.8492 40.0868 446.2569 27.1458 446.4103 15.4203 457.1 13.6946 478.7299 3.1593 488.5553 4.2568 494.1971 11.5564 507.7391 14.0481 504.2546 31.0429 511.8643 38.0906 520.943 60.172 516.5445 73.2144 520.4824 94.7469 532.6401 119.1311 528.1247 133.4032 518.2577 140.2661 540.5189 156.8501 546.0812 168.5242 559.507 170.9535 562.698 139.0203 566.2653 134.4322 583.7151 127.5926 598.3088 143.3559 592.4021 164.5308 605.0326 174.4829 604.9804 189.9737 616.917 194.2606 605.8131 196.303 599.3701 205.0728 596.4345 221.1778 598.5655 234.1845 588.1002 236.1998 575.8172 230.4671 565.0984 232.5655 556.8741 235.9957 550.055 224.4388 525.0126 231.9866 514.4824 247.3021 498.3544 242.4311 473.9753 228.737 463.4584 234.7742 458.9973 222.005 450.8895 222.842 449.5851 206.2954 437.5739 202.0719 432.357 208.5604 418.7263 206.2165 416.834 197.2609 406.4205 201.4231 394.9574 188.6625 373.7255 179.6094 371.6256 173.4322 352.7111 169.8005 339.3823 171.934 324.7382 179.0434 306.1005 177.1206 286.9247 180.2884 281.2696 173.8967 257.7388 172.5784 257.5378 135.1862 245.5342 139.1457 222.7843 126.5995 206.6829 128.2951 178.4364 110.8931 170.9399 101.15 Z"/>
</g>
</svg>