<?xml version="1.0"?>
<svg xmlns="http://www.w3.org/2000/svg" version="1.2" baseProfile="tiny" width="800" height="929" viewBox="0 0 800 929" stroke-linecap="round" stroke-linejoin="round">
<g id="16MIE250GC_SIR">
<path d="M 242.484 383.7294 278.7771 423.1794 310.0703 505.9717 315.365 596.0207 400.8445 681.7009 503.1992 678.4497 583.7414 763.1909 505.4113 874.7429 502.6138 919.0956 398.3876 927.7757 365.0727 838.5034 259.5992 681.0167 271.0617 631.9578 220.6836 590.785 190.4116 520.1305 65.7685 454.8955 1 451.3154 9.682 354.8276 92.5619 384.9093 166.287 352.5863 242.484 383.7294 Z"/>
<path d="M 278.7771 423.1794 386.1993 408.4945 433.7129 355.5628 454.7982 526.9543 553.9198 525.9544 620.9343 582.1192 799 539.5503 766.7487 617.526 710.8616 645.0329 672.6929 713.4239 583.7414 763.1909 503.1992 678.4497 400.8445 681.7009 315.365 596.0207 310.0703 505.9717 278.7771 423.1794 Z"/>
<path d="M 670.0949 390.7006 712.9742 446.5926 795.8705 465.7938 799 539.5503 620.9343 582.1192 553.9198 525.9544 454.7982 526.9543 509.4341 422.0756 605.5784 384.5826 670.0949 390.7006 Z"/>
<path d="M 278.7771 423.1794 242.484 383.7294 344.4105 352.7553 465.3478 123.1743 509.9232 75.9552 512.96 1 604.7283 103.817 600.0116 175.3566 670.0949 390.7006 605.5784 384.5826 509.4341 422.0756 454.7982 526.9543 433.7129 355.5628 386.1993 408.4945 278.7771 423.1794 Z"/>
</g>
</svg>