<?xml version="1.0"?>
<svg xmlns="http://www.w3.org/2000/svg" version="1.2" baseProfile="tiny" width="800" height="968" viewBox="0 0 800 968" stroke-linecap="round" stroke-linejoin="round">
<g id="23MIE250GC_SIR">
<path d="M 572.4835 546.3703 639.7357 555.064 632.1244 595.2166 555.9252 660.692 540.24 651.7954 572.4835 546.3703 Z"/>
<path d="M 432.9511 105.8185 500.881 147.6004 471.2177 178.8802 403.2739 153.7848 432.9511 105.8185 Z"/>
<path d="M 474.923 253.6479 536.7289 265.753 546.121 279.3082 524.3827 287.5978 545.6396 362.9517 438.8884 354.7645 474.923 253.6479 Z"/>
<path d="M 166.4316 167.8774 168.0437 142.7293 192.7872 145.6873 201.1237 160.7236 166.4316 167.8774 Z"/>
<path d="M 189.121 251.8091 213.3374 221.5722 315.316 267.5422 323.8741 367.9017 285.6435 382.8084 219.5565 381.8656 200.0484 340.4828 159.0975 341.2491 189.121 251.8091 Z"/>
<path d="M 584.1651 249.2697 580.1143 277.3952 546.121 279.3082 536.7289 265.753 584.1651 249.2697 Z"/>
<path d="M 403.2739 153.7848 471.2177 178.8802 462.7992 232.862 458.3442 246.3209 336.22 249.8872 340.6474 199.8901 410.6896 183.7419 403.2739 153.7848 Z"/>
<path d="M 480.7796 513.5017 517.7113 464.5986 572.4835 546.3703 540.24 651.7954 469.1141 637.6689 501.2479 577.176 480.7796 513.5017 Z"/>
<path d="M 724.6265 411.9425 729.2435 371.9643 668.1161 380.7677 658.4503 346.0095 687.0134 307.6099 731.7691 352.6429 781.3677 366.6638 799 393.7147 724.6265 411.9425 Z"/>
<path d="M 326.8674 42.0773 274.0845 112.697 170.4416 88.271 112.2154 82.8225 108.4373 122.8407 51.4823 112.0535 21.9661 136.7976 1 107.7362 31.0334 59.1783 28.0805 20.7345 148.8685 13.4307 176.413 1 278.5425 13.8595 326.8674 42.0773 Z"/>
<path d="M 293.0281 874.9391 320.3693 814.2608 364.6079 810.387 437.8154 835.2039 458.9525 838.7768 456.7452 911.8019 435.6703 947.5316 372.9564 919.6464 321.5682 872.4439 293.0281 874.9391 Z"/>
<path d="M 462.7992 232.862 474.923 253.6479 438.8884 354.7645 353.5534 377.8803 323.8741 367.9017 315.316 267.5422 336.22 249.8872 458.3442 246.3209 462.7992 232.862 Z"/>
<path d="M 338.1796 775.3576 320.3693 814.2608 293.0281 874.9391 247.434 883.0141 174.0481 871.6791 200.863 771.9838 244.0638 774.9935 338.1796 775.3576 Z"/>
<path d="M 546.121 279.3082 580.1143 277.3952 586.4433 330.3076 554.166 364.7261 545.6396 362.9517 524.3827 287.5978 546.121 279.3082 Z"/>
<path d="M 320.3693 814.2608 338.1796 775.3576 387.9741 795.0614 428.0165 783.7958 442.9605 802.6666 437.8154 835.2039 364.6079 810.387 320.3693 814.2608 Z"/>
<path d="M 458.9525 838.7768 437.8154 835.2039 442.9605 802.6666 508.8344 792.6604 553.0229 865.4689 517.9277 930.0072 458.9525 838.7768 Z"/>
<path d="M 168.0437 142.7293 170.4416 88.271 274.0845 112.697 328.9933 161.0251 340.6474 199.8901 336.22 249.8872 315.316 267.5422 213.3374 221.5722 189.121 251.8091 134.2242 261.0774 120.4084 203.1005 166.4316 167.8774 201.1237 160.7236 192.7872 145.6873 168.0437 142.7293 Z"/>
<path d="M 538.5043 720.0204 508.8344 792.6604 442.9605 802.6666 428.0165 783.7958 442.8 754.9822 480.8592 728.6232 538.5043 720.0204 Z"/>
<path d="M 658.4503 346.0095 668.1161 380.7677 729.2435 371.9643 724.6265 411.9425 674.3815 522.1095 639.7357 555.064 572.4835 546.3703 517.7113 464.5986 527.8304 401.692 554.166 364.7261 586.4433 330.3076 620.4052 353.716 658.4503 346.0095 Z"/>
<path d="M 260.687 502.195 258.0314 553.7505 303.0185 604.1853 327.5694 685.2388 308.2591 749.9122 244.0638 774.9935 200.863 771.9838 135.6994 747.6144 107.4049 638.1212 148.0505 587.2655 231.4203 558.5673 260.687 502.195 Z"/>
<path d="M 134.2242 261.0774 189.121 251.8091 159.0975 341.2491 143.2298 369.1578 56.8518 430.6404 32.2212 401.0623 46.0343 323.9391 101.2898 324.9193 134.2242 261.0774 Z"/>
<path d="M 274.0845 112.697 326.8674 42.0773 432.9511 105.8185 403.2739 153.7848 328.9933 161.0251 274.0845 112.697 Z"/>
<path d="M 108.4373 122.8407 112.2154 82.8225 170.4416 88.271 168.0437 142.7293 166.4316 167.8774 120.4084 203.1005 100.1571 192.2821 108.4373 122.8407 Z"/>
<path d="M 545.6396 362.9517 554.166 364.7261 527.8304 401.692 517.7113 464.5986 480.7796 513.5017 420.3884 531.4143 361.2572 497.9442 267.9337 488.9792 285.6435 382.8084 323.8741 367.9017 353.5534 377.8803 438.8884 354.7645 545.6396 362.9517 Z"/>
<path d="M 458.9525 838.7768 517.9277 930.0072 453.4728 966.9241 435.6703 947.5316 456.7452 911.8019 458.9525 838.7768 Z"/>
<path d="M 260.687 502.195 267.9337 488.9792 361.2572 497.9442 420.3884 531.4143 480.7796 513.5017 501.2479 577.176 469.1141 637.6689 413.8954 642.4285 375.5901 680.2801 327.5694 685.2388 303.0185 604.1853 258.0314 553.7505 260.687 502.195 Z"/>
<path d="M 159.0975 341.2491 200.0484 340.4828 219.5565 381.8656 285.6435 382.8084 267.9337 488.9792 260.687 502.195 231.4203 558.5673 148.0505 587.2655 107.4049 638.1212 90.881 507.3232 93.7233 458.9952 56.8518 430.6404 143.2298 369.1578 159.0975 341.2491 Z"/>
<path d="M 469.1141 637.6689 540.24 651.7954 555.9252 660.692 538.5043 720.0204 480.8592 728.6232 442.8 754.9822 375.5901 680.2801 413.8954 642.4285 469.1141 637.6689 Z"/>
<path d="M 327.5694 685.2388 375.5901 680.2801 442.8 754.9822 428.0165 783.7958 387.9741 795.0614 338.1796 775.3576 244.0638 774.9935 308.2591 749.9122 327.5694 685.2388 Z"/>
<path d="M 403.2739 153.7848 410.6896 183.7419 340.6474 199.8901 328.9933 161.0251 403.2739 153.7848 Z"/>
<path d="M 21.9661 136.7976 51.4823 112.0535 108.4373 122.8407 100.1571 192.2821 120.4084 203.1005 134.2242 261.0774 101.2898 324.9193 46.0343 323.9391 58.3899 243.7704 14.5383 172.9772 21.9661 136.7976 Z"/>
<path d="M 471.2177 178.8802 500.881 147.6004 566.7122 179.1123 612.7923 235.5909 584.1651 249.2697 536.7289 265.753 474.923 253.6479 462.7992 232.862 471.2177 178.8802 Z"/>
<path d="M 584.1651 249.2697 612.7923 235.5909 687.0134 307.6099 658.4503 346.0095 620.4052 353.716 586.4433 330.3076 580.1143 277.3952 584.1651 249.2697 Z"/>
</g>
</svg>