<?xml version="1.0"?>
<svg xmlns="http://www.w3.org/2000/svg" version="1.2" baseProfile="tiny" width="800" height="210" viewBox="0 0 800 210" stroke-linecap="round" stroke-linejoin="round">
<g id="32MIE250GC_SIR">
<path d="M 28.2726 142.8561 34.3141 145.9216 31.9681 148.9623 34.4379 156.0788 33.6645 160.6535 28.6261 165.1524 30.9342 169.7381 29.2822 175.1562 25.9526 179.5448 25.9517 184.8055 17.9343 185.2996 15.0446 182.7837 8.7575 187.9948 8.3844 180.2769 3.6548 179.2814 1 175.4638 3.8841 170.2039 2.1627 166.9642 4.432 163.1592 4.4701 156.0189 1.4296 151.6399 5.791 148.1988 7.348 142.8256 28.2726 142.8561 Z"/>
<path d="M 54.1419 117.9308 55.4214 113.2867 58.5913 111.4302 58.0867 106.2992 62.8192 104.2519 66.9095 105.3651 68.6954 108.8168 72.9907 107.0785 82.7497 112.6955 82.5675 118.2622 84.2296 122.5473 89.5641 131.1589 88.3665 138.4343 91.1646 141.0538 90.073 144.3235 78.6253 145.1821 73.3019 141.7087 64.6041 140.2733 59.9453 142.6252 52.5737 141.8341 52.6775 139.3217 57.0801 135.2424 55.6741 132.531 57.6949 122.2849 54.1419 117.9308 Z"/>
<path d="M 78.6253 145.1821 90.073 144.3235 91.1646 141.0538 88.3665 138.4343 89.5641 131.1589 93.4887 132.9958 96.966 131.5492 103.3285 133.4808 104.5436 136.7723 102.9155 143.3903 96.5481 152.9063 91.961 162.981 82.1188 159.139 76.684 158.835 79.4617 148.4013 78.6253 145.1821 Z"/>
<path d="M 33.6645 160.6535 35.5002 162.0699 39.9359 158.428 47.7647 155.2147 51.3139 159.7987 54.4898 156.9301 55.6656 158.5083 58.0617 171.8668 54.1026 178.0628 55.0121 183.459 51.335 183.457 43.9319 195.2271 40.2639 197.3321 42.4842 205.4777 45.3547 205.4176 42.086 206.714 29.9351 203.6825 27.0663 204.699 17.6315 200.646 8.6245 197.7622 10.212 190.9041 8.7575 187.9948 15.0446 182.7837 17.9343 185.2996 25.9517 184.8055 25.9526 179.5448 29.2822 175.1562 30.9342 169.7381 28.6261 165.1524 33.6645 160.6535 Z"/>
<path d="M 49.7716 65.424 59.5261 65.1552 62.4791 65.1493 62.4238 70.1356 70.3375 70.9176 71.3553 75.4446 79.534 72.9944 87.6761 71.9724 92.1033 73.6614 88.4173 85.9583 82.8875 89.1468 87.1593 93.4493 89.5429 100.0119 92.3266 102.936 92.0014 106.988 86.6812 107.4857 82.7497 112.6955 72.9907 107.0785 68.6954 108.8168 66.9095 105.3651 62.8192 104.2519 58.0867 106.2992 58.5913 111.4302 55.4214 113.2867 54.1419 117.9308 49.9701 116.1821 43.0498 115.8626 43.4281 110.0351 51.5001 103.7937 57.1529 97.0781 58.0265 92.3673 58.2023 81.6173 56.4523 76.7254 49.371 70.3798 49.7716 65.424 Z"/>
<path d="M 74.4886 8.2562 77.7088 3.6517 83.3949 1 86.7119 3.0723 93.901 2.8006 101.576 6.349 102.2346 8.7849 108.6923 13.2952 109.5544 18.4969 107.1245 24.2912 115.751 25.1213 118.9665 32.7388 107.4514 37.4384 104.2581 36.3878 98.4029 37.7951 93.3342 30.6546 87.8931 29.6842 79.3319 30.0809 77.1377 25.1078 81.6147 19.9431 80.8289 14.4754 77.7342 13.9704 74.4886 8.2562 Z"/>
<path d="M 55.0121 183.459 64.3072 184.7742 68.5486 183.23 65.4954 188.9705 65.728 191.7517 62.4439 199.2974 58.8648 202.2363 54.0665 209.034 48.2688 204.9362 45.3547 205.4176 42.4842 205.4777 40.2639 197.3321 43.9319 195.2271 51.335 183.457 55.0121 183.459 Z"/>
<path d="M 74.4886 8.2562 77.7342 13.9704 80.8289 14.4754 81.6147 19.9431 77.1377 25.1078 79.3319 30.0809 77.1636 37.9991 71.695 42.0706 70.3338 47.9066 70.9881 53.9136 65.8557 59.2266 62.1787 60.4639 59.5261 65.1552 49.7716 65.424 43.5577 60.1118 38.8215 59.7756 39.4985 56.3735 45.5747 56.3446 46.9833 58.9285 55.9741 59.0654 57.3489 49.7507 50.6395 46.3688 52.3484 35.5197 43.1454 34.6326 44.6775 30.7291 44.014 26.3802 47.844 23.1501 50.5758 17.6018 59.3246 14.5179 63.2626 16.6634 67.6645 14.0722 60.6919 7.5145 65.5266 4.5342 68.9238 8.0654 74.4886 8.2562 Z"/>
<path d="M 101.576 6.349 135.5762 27.912 131.7609 39.2617 130.4404 58.8754 132.3087 74.7538 129.7249 78.6729 122.8135 75.6703 115.0968 68.5534 104.9756 65.9539 102.4381 63.0808 99.0388 58.896 90.4963 59.3276 90.8961 55.422 94.4595 51.9916 97.6576 42.851 100.9845 43.2095 107.4514 37.4384 118.9665 32.7388 115.751 25.1213 107.1245 24.2912 109.5544 18.4969 108.6923 13.2952 102.2346 8.7849 101.576 6.349 Z"/>
<path d="M 82.7497 112.6955 86.6812 107.4857 92.0014 106.988 92.3266 102.936 89.5429 100.0119 87.1593 93.4493 82.8875 89.1468 88.4173 85.9583 92.1033 73.6614 97.4092 73.4301 102.4381 63.0808 104.9756 65.9539 115.0968 68.5534 122.8135 75.6703 129.7249 78.6729 132.3087 74.7538 134.1629 87.5085 131.6234 97.5326 126.6961 108.6484 117.0504 113.3238 111.516 120.3045 105.3134 131.4057 103.3285 133.4808 96.966 131.5492 93.4887 132.9958 89.5641 131.1589 84.2296 122.5473 82.5675 118.2622 82.7497 112.6955 Z"/>
<path d="M 54.4898 156.9301 58.0553 156.9309 68.8614 160.7104 71.8711 156.8103 76.684 158.835 82.1188 159.139 91.961 162.981 88.6679 169.2197 86.6263 168.3939 79.3452 179.2558 75.0233 179.5636 68.5486 183.23 64.3072 184.7742 55.0121 183.459 54.1026 178.0628 58.0617 171.8668 55.6656 158.5083 54.4898 156.9301 Z"/>
<path d="M 28.2726 142.8561 30.3055 141.7347 34.8028 131.1422 35.3087 126.2452 38.7671 126.2953 42.3453 123.4724 43.0498 115.8626 49.9701 116.1821 54.1419 117.9308 57.6949 122.2849 55.6741 132.531 57.0801 135.2424 52.6775 139.3217 52.5737 141.8341 59.9453 142.6252 64.6041 140.2733 73.3019 141.7087 78.6253 145.1821 79.4617 148.4013 76.684 158.835 71.8711 156.8103 68.8614 160.7104 58.0553 156.9309 54.4898 156.9301 51.3139 159.7987 47.7647 155.2147 39.9359 158.428 35.5002 162.0699 33.6645 160.6535 34.4379 156.0788 31.9681 148.9623 34.3141 145.9216 28.2726 142.8561 Z"/>
<path d="M 79.3319 30.0809 87.8931 29.6842 93.3342 30.6546 98.4029 37.7951 104.2581 36.3878 107.4514 37.4384 100.9845 43.2095 97.6576 42.851 94.4595 51.9916 90.8961 55.422 90.4963 59.3276 99.0388 58.896 102.4381 63.0808 97.4092 73.4301 92.1033 73.6614 87.6761 71.9724 79.534 72.9944 71.3553 75.4446 70.3375 70.9176 62.4238 70.1356 62.4791 65.1493 59.5261 65.1552 62.1787 60.4639 65.8557 59.2266 70.9881 53.9136 70.3338 47.9066 71.695 42.0706 77.1636 37.9991 79.3319 30.0809 Z"/>
</g>
</svg>