<?xml version="1.0"?>
<svg xmlns="http://www.w3.org/2000/svg" version="1.2" baseProfile="tiny" width="800" height="749" viewBox="0 0 800 749" stroke-linecap="round" stroke-linejoin="round">
<g id="52MIE250GC_SIR">
<path d="M 363.4003 340.6838 405.0165 328.788 409.1532 313.7209 445.7268 324.6293 449.7168 381.9026 472.5163 382.5262 491.3972 400.0476 477.0154 413.8957 437.931 412.2431 390.4677 423.7165 353.1352 388.1358 352.1071 371.4812 363.4003 340.6838 Z"/>
<path d="M 762.2471 46.681 771.1764 83.5548 766.7418 160.6575 799 181.1345 793.8717 235.4848 763.2381 250.7964 742.6493 226.3838 726.1664 268.465 693.3608 264.9603 674.4275 237.173 669.2384 208.0755 666.3608 178.4608 701.4872 147.796 711.1807 87.6975 720.4601 65.9405 762.2471 46.681 Z"/>
<path d="M 264.5416 160.5947 273.164 184.983 261.0547 213.3852 269.3677 250.6302 301.3513 264.9344 322.3376 252.4291 350.6692 272.2869 338.3206 308.4924 343.278 330.8871 363.4003 340.6838 352.1071 371.4812 304.3467 381.2894 219 364.8035 184.2598 335.7858 170.6564 311.7597 188.7071 265.803 237.6498 250.0522 264.5416 160.5947 Z"/>
<path d="M 390.1836 200.1955 414.3169 199.8104 449.514 233.3257 467.2111 218.4237 496.0206 222.8268 492.7301 243.5193 472.9473 287.0021 445.7268 324.6293 409.1532 313.7209 405.0165 328.788 363.4003 340.6838 343.278 330.8871 338.3206 308.4924 350.6692 272.2869 372.8258 256.7604 376.2626 209.4375 390.1836 200.1955 Z"/>
<path d="M 557.0707 72.4563 594.9351 73.8268 614.3497 52.8852 639.5902 69.2785 684.0895 55.099 712.4616 36.3027 762.2471 46.681 720.4601 65.9405 711.1807 87.6975 701.4872 147.796 666.3608 178.4608 669.2384 208.0755 645.7303 237.1048 618.187 235.7893 600.705 219.3563 590.5198 190.8044 541.7062 143.1609 560.5697 122.1817 557.0707 72.4563 Z"/>
<path d="M 304.3467 381.2894 352.1071 371.4812 353.1352 388.1358 390.4677 423.7165 390.7769 441.6133 356.0701 436.054 286.4716 459.5795 304.3467 381.2894 Z"/>
<path d="M 412.6139 495.1196 461.4632 483.4506 487.9878 497.2539 487.3126 523.3615 524.5975 543.4992 516.1427 590.6507 475.1778 620.6311 421.4309 657.7412 406.7838 644.8884 380.365 657.3612 353.5303 652.9955 336.4398 602.6506 331.7961 588.554 340.9081 565.8726 365.5441 544.4336 390.0945 538.1696 412.6139 495.1196 Z"/>
<path d="M 477.0154 413.8957 491.3972 400.0476 531.707 410.0624 584.4786 478.116 552.5137 540.6967 524.5975 543.4992 487.3126 523.3615 487.9878 497.2539 489.6273 432.5042 477.0154 413.8957 Z"/>
<path d="M 693.3608 264.9603 703.1233 294.417 704.331 355.6429 644.6235 368.2895 649.8814 324.1917 639.3433 313.6091 553.7641 313.6593 545.2454 373.5864 651.3768 373.6273 634.7815 423.4599 658.2531 444.9065 669.7523 479.5462 629.1815 513.2963 607.1557 483.6744 584.4786 478.116 531.707 410.0624 491.3972 400.0476 472.5163 382.5262 449.7168 381.9026 445.7268 324.6293 472.9473 287.0021 492.7301 243.5193 508.1805 258.1102 590.2764 233.8379 600.705 219.3563 618.187 235.7893 645.7303 237.1048 669.2384 208.0755 674.4275 237.173 693.3608 264.9603 Z"/>
<path d="M 425.7111 69.7486 401.4992 72.7283 365.3899 95.0901 360.5378 116.0523 368.8297 157.8094 390.1836 200.1955 376.2626 209.4375 372.8258 256.7604 350.6692 272.2869 322.3376 252.4291 301.3513 264.9344 269.3677 250.6302 261.0547 213.3852 273.164 184.983 264.5416 160.5947 263.0345 122.6037 289.9683 74.5839 309.1831 1 322.9849 19.7672 363.312 34.9636 425.7111 69.7486 Z"/>
<path d="M 475.1778 620.6311 516.1427 590.6507 524.5975 543.4992 552.5137 540.6967 584.4786 478.116 607.1557 483.6744 629.1815 513.2963 649.815 594.7703 618.2983 621.4475 579.8025 641.4556 540.1523 628.9436 475.1778 620.6311 Z"/>
<path d="M 68.7791 424.8475 128.161 420.0685 140.6552 437.0536 182.0067 434.3438 205.7249 419.0946 222.5587 456.0453 241.2605 472.9662 298.842 525.3624 310.2787 573.9044 331.7961 588.554 336.4398 602.6506 315.3936 613.7194 290.7542 605.0668 236.6153 625.2274 205.1427 627.0126 189.4067 646.0673 163.5783 639.1104 149.3377 658.1282 167.9061 678.3638 171.2852 709.5753 99.7649 677.0799 88.6823 663.2046 51.5549 661.7363 17.2922 621.4785 19.9139 592.7015 1 546.3312 5.3025 512.2486 26.6022 462.5651 68.7791 424.8475 Z"/>
<path d="M 68.7791 424.8475 61.848 408.276 77.5664 386.2215 101.7277 375.8644 109.8694 356.4694 150.5423 349.3764 170.6564 311.7597 184.2598 335.7858 219 364.8035 234.8801 401.7538 205.7249 419.0946 182.0067 434.3438 140.6552 437.0536 128.161 420.0685 68.7791 424.8475 Z"/>
<path d="M 425.7111 69.7486 427.3639 51.68 450.1917 19.974 480.3966 18.1624 527.1107 71.1945 557.0707 72.4563 560.5697 122.1817 541.7062 143.1609 590.5198 190.8044 600.705 219.3563 590.2764 233.8379 508.1805 258.1102 492.7301 243.5193 496.0206 222.8268 467.2111 218.4237 449.514 233.3257 414.3169 199.8104 390.1836 200.1955 368.8297 157.8094 360.5378 116.0523 365.3899 95.0901 401.4992 72.7283 425.7111 69.7486 Z"/>
<path d="M 477.0154 413.8957 489.6273 432.5042 487.9878 497.2539 461.4632 483.4506 412.6139 495.1196 385.9102 472.3746 390.7769 441.6133 390.4677 423.7165 437.931 412.2431 477.0154 413.8957 Z"/>
<path d="M 219 364.8035 304.3467 381.2894 286.4716 459.5795 263.7802 447.6368 241.2605 472.9662 222.5587 456.0453 205.7249 419.0946 234.8801 401.7538 219 364.8035 Z"/>
<path d="M 241.2605 472.9662 263.7802 447.6368 286.4716 459.5795 356.0701 436.054 390.7769 441.6133 385.9102 472.3746 412.6139 495.1196 390.0945 538.1696 365.5441 544.4336 340.9081 565.8726 331.7961 588.554 310.2787 573.9044 298.842 525.3624 241.2605 472.9662 Z"/>
<path d="M 336.4398 602.6506 353.5303 652.9955 322.2455 663.8662 292.6242 711.6743 254.3777 747.8849 236.7861 730.1508 171.2852 709.5753 167.9061 678.3638 149.3377 658.1282 163.5783 639.1104 189.4067 646.0673 205.1427 627.0126 236.6153 625.2274 290.7542 605.0668 315.3936 613.7194 336.4398 602.6506 Z"/>
</g>
</svg>