<?xml version="1.0"?>
<svg xmlns="http://www.w3.org/2000/svg" version="1.2" baseProfile="tiny" width="800" height="1107" viewBox="0 0 800 1107" stroke-linecap="round" stroke-linejoin="round">
<g id="21MIE250GC_SIR">
<path d="M 670.4189 364.8531 658.8896 402.4058 621.0784 441.928 582.0409 435.3873 568.4843 415.2224 600.8472 382.569 627.589 357.7093 670.4189 364.8531 Z"/>
<path d="M 453.5989 459.4473 488.1828 464.0495 536.4697 482.919 553.7619 542.142 522.4704 575.8128 465.9721 576.274 477.3347 551.2869 450.8643 483.5751 453.5989 459.4473 Z"/>
<path d="M 492.4275 339.0349 564.4399 347.605 600.8472 382.569 568.4843 415.2224 582.0409 435.3873 551.5783 447.241 536.4697 482.919 488.1828 464.0495 472.5499 371.2114 492.4275 339.0349 Z"/>
<path d="M 370.7928 336.6807 418.5369 345.5641 457.5839 337.0119 492.4275 339.0349 472.5499 371.2114 488.1828 464.0495 453.5989 459.4473 407.8168 502.1553 376.339 483.4985 405.1385 414.2147 372.2534 366.9202 370.7928 336.6807 Z"/>
<path d="M 115.4629 606.401 169.3748 626.1217 203.8604 621.0953 199.1586 679.3852 251.7893 708.2022 247.7043 712.0727 218.6998 696.8729 187.2415 710.9346 200.8018 742.6338 154.4191 772.2201 141.4644 796.9254 190.8817 810.1634 191.1273 834.8216 160.1432 841.4341 107.3879 777.7344 101.1398 721.717 121.7211 631.1987 115.4629 606.401 Z"/>
<path d="M 465.9721 576.274 522.4704 575.8128 543.084 598.6884 641.352 587.2383 671.4824 632.3797 662.6539 679.4281 597.6646 700.8238 556.9777 683.3129 501.4126 719.2697 455.1096 680.6001 340.8021 697.5716 297.9467 676.57 324.6026 654.8947 384.1362 636.6599 414.5128 639.3812 458.6333 600.1679 465.9721 576.274 Z"/>
<path d="M 465.1103 239.6297 464.1817 240.2724 459.83 239.1262 465.1103 239.6297 Z M 387.265 117.7507 369.3501 63.4361 386.2655 50.7818 439.6226 63.3574 469.4057 99.3877 488.1855 153.7104 452.5102 221.1771 414.2992 133.5943 387.265 117.7507 Z"/>
<path d="M 332.7564 156.5385 337.5318 256.8634 370.7928 336.6807 372.2534 366.9202 405.1385 414.2147 376.339 483.4985 307.2869 445.7292 286.8653 459.0447 176.918 458.3658 156.9889 392.9046 176.5002 365.9881 204.1901 317.3644 238.7688 282.8285 299.686 177.0206 332.7564 156.5385 Z"/>
<path d="M 478.6614 260.5048 555.8639 269.7886 579.3191 309.2152 564.4399 347.605 492.4275 339.0349 457.5839 337.0119 455.689 293.6381 478.6614 260.5048 Z"/>
<path d="M 247.7043 712.0727 251.7893 708.2022 297.9467 676.57 340.8021 697.5716 455.1096 680.6001 501.4126 719.2697 448.1423 767.288 369.0698 789.8179 345.1851 823.9462 313.7295 807.3541 321.6479 763.0435 247.7043 712.0727 Z"/>
<path d="M 560.4859 163.6441 562.9989 165.6311 568.3849 175.3135 583.6118 238.7839 555.8639 269.7886 478.6614 260.5048 464.1817 240.2724 465.1103 239.6297 481.8603 209.8042 499.3632 205.0914 522.1945 202.936 560.4859 163.6441 Z"/>
<path d="M 536.4697 482.919 551.5783 447.241 582.0409 435.3873 621.0784 441.928 658.8896 402.4058 674.1974 518.7247 640.8935 553.2559 641.352 587.2383 543.084 598.6884 522.4704 575.8128 553.7619 542.142 536.4697 482.919 Z"/>
<path d="M 583.6118 238.7839 568.3849 175.3135 624.1193 156.3589 705.9758 195.1474 747.238 196.8234 736.7172 245.3795 674.1813 260.3802 647.7254 250.832 631.0263 233.5556 583.6118 238.7839 Z"/>
<path d="M 747.238 196.8234 785.1222 200.0636 799 229.9834 748.5342 287.1088 706.002 301.6039 636.3337 268.1235 647.7254 250.832 674.1813 260.3802 736.7172 245.3795 747.238 196.8234 Z"/>
<path d="M 286.8653 459.0447 307.2869 445.7292 376.339 483.4985 407.8168 502.1553 453.5989 459.4473 450.8643 483.5751 477.3347 551.2869 465.9721 576.274 458.6333 600.1679 414.5128 639.3812 384.1362 636.6599 324.6026 654.8947 297.9467 676.57 251.7893 708.2022 199.1586 679.3852 203.8604 621.0953 200.3484 567.4773 248.9418 556.2944 250.9742 503.6006 286.8653 459.0447 Z"/>
<path d="M 163.9456 307.5093 176.5002 365.9881 156.9889 392.9046 176.918 458.3658 286.8653 459.0447 250.9742 503.6006 248.9418 556.2944 200.3484 567.4773 203.8604 621.0953 169.3748 626.1217 115.4629 606.401 106.984 540.5569 61.757 509.834 24.8922 508.3002 1 483.1436 68.6441 430.0529 96.8606 418.9199 163.9456 307.5093 Z"/>
<path d="M 369.3501 63.4361 387.265 117.7507 369.1836 147.4818 332.7564 156.5385 299.686 177.0206 238.7688 282.8285 204.1901 317.3644 176.5002 365.9881 163.9456 307.5093 210.4292 230.4979 213.4821 191.0858 236.8145 177.9688 272.7617 62.1119 272.8328 17.0491 320.2204 8.5855 374.0081 44.0314 369.3501 63.4361 Z"/>
<path d="M 247.7043 712.0727 321.6479 763.0435 313.7295 807.3541 345.1851 823.9462 308.3898 927.5158 289.665 953.1848 313.4979 1012.6766 303.7074 1096.7544 249.5719 1105.5971 219.4277 1020.0174 160.6534 968.4814 194.7235 885.4378 232.4163 849.2759 191.1273 834.8216 190.8817 810.1634 141.4644 796.9254 154.4191 772.2201 200.8018 742.6338 187.2415 710.9346 218.6998 696.8729 247.7043 712.0727 Z"/>
<path d="M 332.7564 156.5385 369.1836 147.4818 387.265 117.7507 414.2992 133.5943 452.5102 221.1771 459.83 239.1262 464.1817 240.2724 478.6614 260.5048 455.689 293.6381 457.5839 337.0119 418.5369 345.5641 370.7928 336.6807 337.5318 256.8634 332.7564 156.5385 Z"/>
<path d="M 583.6118 238.7839 631.0263 233.5556 647.7254 250.832 636.3337 268.1235 706.002 301.6039 670.4189 364.8531 627.589 357.7093 600.8472 382.569 564.4399 347.605 579.3191 309.2152 555.8639 269.7886 583.6118 238.7839 Z"/>
<path d="M 499.3632 205.0914 481.8603 209.8042 494.656 171.9864 527.7508 162.1324 514.861 195.5606 499.3632 205.0914 Z"/>
</g>
</svg>