<?xml version="1.0"?>
<svg xmlns="http://www.w3.org/2000/svg" version="1.2" baseProfile="tiny" width="800" height="517" viewBox="0 0 800 517" stroke-linecap="round" stroke-linejoin="round">
<g id="26MIE250GC_SIR">
<path d="M 36.1105 408.6501 65.8304 414.7577 77.0216 428.7082 97.0752 413.3556 135.7611 413.5005 170.5045 386.0487 193.5306 416.2224 172.999 434.7588 163.2672 430.1303 136.6148 453.0213 116.6683 457.0068 109.8457 477.3842 82.1404 480.0379 74.5848 506.7872 50.3603 516.404 46.1189 489.4556 32.3948 479.8082 23.2842 457.6094 6.7561 452.6162 1 434.4765 36.1105 408.6501 Z"/>
<path d="M 445.3138 432.8121 463.3239 451.7162 467.1563 464.2373 446.1378 487.615 415.0969 503.4929 374.3439 500.4719 399.9645 448.2094 406.4095 447.4782 419.7219 450.5898 445.3138 432.8121 Z"/>
<path d="M 796.197 3.7203 794.8224 7.3986 792.7434 5.399 796.197 3.7203 Z"/>
<path d="M 499.2446 354.8296 492.1736 379.4705 478.6546 382.308 429.6489 374.1532 434.3494 364.276 478.4072 362.9048 499.2446 354.8296 Z"/>
<path d="M 234.6566 359.4397 232.2163 390.7201 238.668 407.9278 214.7783 403.1048 193.5306 416.2224 170.5045 386.0487 135.7611 413.5005 97.0752 413.3556 128.5012 373.8055 162.1707 346.1676 192.8738 365.3381 226.2012 348.6056 234.6566 359.4397 Z"/>
<path d="M 172.999 434.7588 193.5306 416.2224 214.7783 403.1048 238.668 407.9278 272.3378 406.8696 291.5905 423.389 288.0634 469.1788 304.3414 466.4437 289.138 486.6588 266.9873 502.5011 241.3597 467.7936 216.1899 453.7986 175.4627 443.8681 172.999 434.7588 Z"/>
<path d="M 574.7669 353.3955 575.789 367.5027 548.2645 363.0813 574.7669 353.3955 Z"/>
<path d="M 272.3378 406.8696 290.1928 389.3069 306.6729 388.9747 322.1166 372.6874 347.5669 377.0788 365.5852 382.6014 371.9024 405.5277 387.6995 404.7291 388.3661 421.685 377.2886 427.0317 346.3975 418.5845 341.9851 455.7459 331.6678 469.2263 304.3414 466.4437 288.0634 469.1788 291.5905 423.389 272.3378 406.8696 Z"/>
<path d="M 429.6489 374.1532 478.6546 382.308 492.1736 379.4705 518.9845 390.2672 514.6945 409.0368 511.0991 413.6783 461.2672 416.5437 445.3138 432.8121 419.7219 450.5898 406.4095 447.4782 388.3661 421.685 387.6995 404.7291 413.0938 391.8306 429.6489 374.1532 Z"/>
<path d="M 536.9348 403.7989 541.437 398.7784 567.4655 402.2047 556.6037 437.0803 542.5497 425.2452 536.9348 403.7989 Z"/>
<path d="M 574.7669 353.3955 548.2645 363.0813 545.8641 379.761 533.3362 376.4475 515.4048 337.479 538.4091 324.9721 575.8872 340.4954 574.7669 353.3955 Z"/>
<path d="M 515.4048 337.479 533.3362 376.4475 518.9845 390.2672 492.1736 379.4705 499.2446 354.8296 515.4048 337.479 Z"/>
<path d="M 511.0991 413.6783 514.6945 409.0368 536.9348 403.7989 542.5497 425.2452 556.6037 437.0803 545.4342 462.6157 512.3853 456.1587 493.0234 465.0303 467.1563 464.2373 463.3239 451.7162 482.7931 449.968 511.0991 413.6783 Z"/>
<path d="M 162.1707 346.1676 128.5012 373.8055 97.0752 413.3556 77.0216 428.7082 65.8304 414.7577 36.1105 408.6501 57.5289 378.5316 43.2741 332.3798 83.0663 318.2743 95.3471 325.62 130.4379 320.6167 162.1707 346.1676 Z"/>
<path d="M 347.5669 377.0788 322.1166 372.6874 306.6729 388.9747 290.1928 389.3069 272.3378 406.8696 238.668 407.9278 232.2163 390.7201 234.6566 359.4397 258.8968 353.9327 284.9679 358.8739 358.1041 315.8103 377.0424 325.995 361.3943 348.629 366.752 358.6377 347.5669 377.0788 Z"/>
<path d="M 545.8641 379.761 541.437 398.7784 536.9348 403.7989 514.6945 409.0368 518.9845 390.2672 533.3362 376.4475 545.8641 379.761 Z"/>
<path d="M 548.2645 363.0813 575.789 367.5027 567.4655 402.2047 541.437 398.7784 545.8641 379.761 548.2645 363.0813 Z"/>
<path d="M 388.3661 421.685 406.4095 447.4782 399.9645 448.2094 374.3439 500.4719 331.6678 469.2263 341.9851 455.7459 346.3975 418.5845 377.2886 427.0317 388.3661 421.685 Z"/>
<path d="M 511.0991 413.6783 482.7931 449.968 463.3239 451.7162 445.3138 432.8121 461.2672 416.5437 511.0991 413.6783 Z"/>
</g>
</svg>