<?xml version="1.0"?>
<svg xmlns="http://www.w3.org/2000/svg" version="1.2" baseProfile="tiny" width="800" height="1143" viewBox="0 0 800 1143" stroke-linecap="round" stroke-linejoin="round">
<g id="22MIE250GC_SIR">
<path d="M 702.5562 175.0771 671.7648 170.3143 606.0301 154.09 555.3879 55.452 602.5741 1 679.9656 18.4828 667.6456 103.4786 702.5562 175.0771 Z"/>
<path d="M 671.7648 170.3143 702.5562 175.0771 680.8528 273.834 726.7884 317.1038 730.0384 442.457 625.0281 446.3704 540.5957 388.6889 551.7244 301.8621 530.9503 228.1797 611.9783 227.6384 671.7648 170.3143 Z"/>
<path d="M 429.2847 370.153 458.2725 314.0346 435.2223 199.5897 530.9503 228.1797 551.7244 301.8621 540.5957 388.6889 526.7138 397.2581 429.2847 370.153 Z"/>
<path d="M 464.968 679.6587 489.7384 740.1544 468.2283 837.0844 569.8831 806.4036 657.6667 833.3203 596.5444 900.3645 455.7533 954.3774 367.2632 903.7841 317.9671 930.5093 292.966 890.5927 339.6806 760.1668 359.5056 739.6406 464.968 679.6587 Z"/>
<path d="M 799 569.803 757.4078 648.995 781.92 717.2913 657.6667 833.3203 569.8831 806.4036 468.2283 837.0844 489.7384 740.1544 464.968 679.6587 542.017 641.838 687.2348 616.0232 799 569.803 Z"/>
<path d="M 526.7138 397.2581 540.5957 388.6889 625.0281 446.3704 730.0384 442.457 746.7121 507.5253 688.4008 533.1523 606.8592 549.0225 528.9854 509.4422 526.7138 397.2581 Z"/>
<path d="M 241.4906 595.9843 266.0031 657.1625 231.802 774.8273 166.0992 760.3476 159.6764 828.9049 84.7215 931.3943 30.4302 934.7968 1 855.171 94.7848 662.219 241.4906 595.9843 Z"/>
<path d="M 296.7172 546.2731 364.7775 557.1083 442.1639 528.3646 486.4303 551.6503 542.017 641.838 464.968 679.6587 359.5056 739.6406 320.4637 682.7737 326.2591 572.5467 296.7172 546.2731 Z"/>
<path d="M 231.802 774.8273 339.6806 760.1668 292.966 890.5927 317.9671 930.5093 317.3928 931.2246 149.6872 983.7547 73.1595 1052.0685 17.5855 1024.7408 30.4302 934.7968 84.7215 931.3943 159.6764 828.9049 166.0992 760.3476 231.802 774.8273 Z"/>
<path d="M 317.3928 931.2246 310.1217 1052.2382 153.3242 1142.0143 80.8056 1097.1385 73.1595 1052.0685 149.6872 983.7547 317.3928 931.2246 Z"/>
<path d="M 296.7172 546.2731 326.2591 572.5467 320.4637 682.7737 359.5056 739.6406 339.6806 760.1668 231.802 774.8273 266.0031 657.1625 241.4906 595.9843 296.7172 546.2731 Z"/>
<path d="M 687.2348 616.0232 688.4008 533.1523 746.7121 507.5253 799 569.803 687.2348 616.0232 Z"/>
<path d="M 555.3879 55.452 606.0301 154.09 671.7648 170.3143 611.9783 227.6384 530.9503 228.1797 435.2223 199.5897 497.4498 76.5011 555.3879 55.452 Z"/>
<path d="M 688.4008 533.1523 687.2348 616.0232 542.017 641.838 486.4303 551.6503 528.9854 509.4422 606.8592 549.0225 688.4008 533.1523 Z"/>
<path d="M 526.7138 397.2581 528.9854 509.4422 486.4303 551.6503 442.1639 528.3646 419.6252 444.2581 429.2847 370.153 526.7138 397.2581 Z"/>
</g>
</svg>