<?xml version="1.0"?>
<svg xmlns="http://www.w3.org/2000/svg" version="1.2" baseProfile="tiny" width="800" height="511" viewBox="0 0 800 511" stroke-linecap="round" stroke-linejoin="round">
<g id="41MIE250GC_SIR">
<path d="M 278.7216 125.1635 319.3534 154.3495 328.9705 192.7406 313.0692 249.4804 266.7805 267.3745 250.3504 241.1571 228.9963 231.6177 241.9639 209.6406 224.9229 183.587 242.9363 174.3048 278.7216 125.1635 Z"/>
<path d="M 319.3534 154.3495 328.7954 146.4276 348.6688 160.0723 373.4187 191.2034 395.806 197.4928 425.3425 212.8788 421.1103 239.887 441.2487 285.7693 400.6703 273.125 391.198 272.7215 379.913 250.4703 313.0692 249.4804 328.9705 192.7406 319.3534 154.3495 Z"/>
<path d="M 315.4207 1 334.3814 11.8726 378.0723 19.4413 381.1532 65.6219 392.6461 68.514 368.9541 92.1291 356.8682 103.7381 324.6423 89.1232 300.6771 108.2188 267.3222 88.1822 315.9862 57.7131 306.5101 46.4703 315.4207 1 Z"/>
<path d="M 278.7216 125.1635 267.1734 115.0159 267.3222 88.1822 300.6771 108.2188 326.2608 139.939 328.7954 146.4276 319.3534 154.3495 278.7216 125.1635 Z"/>
<path d="M 448.0442 55.2222 440.9321 32.1575 454.2979 32.23 477.0345 51.7365 539.0498 51.6561 533.43 66.7327 540.2132 92.47 527.4173 102.8493 527.5002 129.5569 495.5781 149.1345 479.3642 127.3614 486.7735 111.8552 474.7607 88.1188 448.0442 55.2222 Z"/>
<path d="M 328.7954 146.4276 326.2608 139.939 343.9328 134.7688 371.78 146.7955 395.731 148.4673 400.5508 163.4192 429.7596 178.5463 430.9959 189.1376 395.806 197.4928 373.4187 191.2034 348.6688 160.0723 328.7954 146.4276 Z"/>
<path d="M 607.9803 258.7052 655.6729 233.2036 648.3696 261.347 733.6061 261.9771 747.668 271.4522 739.7581 292.3906 704.8091 281.4265 675.2243 307.2686 657.183 311.7448 625.4777 290.9786 607.9803 258.7052 Z"/>
<path d="M 608.4262 100.2863 610.5016 132.3491 619.2973 143.7364 620.9395 171.2096 607.3239 189.5472 594.0405 188.0554 582.0087 167.8615 567.337 168.0215 546.8074 117.4661 583.3885 110.6939 608.4262 100.2863 Z"/>
<path d="M 292.6657 395.3188 301.3202 411.7742 335.3909 428.3687 350.8228 424.5042 347.2364 453.8763 370.2956 461.5397 378.7014 496.4605 317.8212 494.6063 305.2128 483.379 254.7619 474.1414 248.9607 440.7086 274.6332 433.1236 271.9978 418.4174 292.6657 395.3188 Z"/>
<path d="M 368.9541 92.1291 392.6461 68.514 413.0498 63.7949 425.3292 81.7123 447.7984 70.4825 447.1706 108.4547 453.8408 154.9573 431.4299 168.4888 411.7972 147.6539 414.1557 125.9045 402.8025 105.1841 368.9541 92.1291 Z"/>
<path d="M 445.9598 386.2525 440.6871 413.8275 459.3333 424.5418 481.8402 421.3426 487.0027 432.8627 460.2378 457.8128 441.3369 453.3954 411.0766 465.5941 412.5242 501.7292 388.1071 509.5133 378.7014 496.4605 370.2956 461.5397 347.2364 453.8763 350.8228 424.5042 386.4045 419.2026 420.4563 394.0007 445.9598 386.2525 Z"/>
<path d="M 620.9395 171.2096 643.6307 207.0801 661.9633 222.3166 655.6729 233.2036 607.9803 258.7052 547.5164 246.3395 538.3045 232.2525 536.9753 179.7041 567.337 168.0215 582.0087 167.8615 594.0405 188.0554 607.3239 189.5472 620.9395 171.2096 Z"/>
<path d="M 356.8682 103.7381 368.9541 92.1291 402.8025 105.1841 414.1557 125.9045 411.7972 147.6539 431.4299 168.4888 429.7596 178.5463 400.5508 163.4192 395.731 148.4673 371.78 146.7955 343.9328 134.7688 362.4334 128.0325 356.8682 103.7381 Z"/>
<path d="M 740.9944 312.9215 758.7031 300.1862 782.7045 311.9865 799 337.1539 769.9727 374.4853 757.0971 380.3682 736.2226 422.1878 690.5024 423.5351 691.18 404.4367 690.9439 354.9533 705.627 340.5859 705.5368 322.6001 740.9944 312.9215 Z"/>
<path d="M 447.7984 70.4825 448.0442 55.2222 474.7607 88.1188 486.7735 111.8552 479.3642 127.3614 495.5781 149.1345 465.3799 164.8671 453.8408 154.9573 447.1706 108.4547 447.7984 70.4825 Z"/>
<path d="M 238.5125 293.9308 246.3416 298.2424 237.8851 327.8375 207.11 336.3238 183.3684 350.1291 178.7287 365.5513 135.0363 369.9956 112.7505 364.4682 119.8057 312.4371 106.5338 302.5365 140.3095 271.1735 141.8761 246.1326 162.6407 221.4078 173.977 243.0777 238.5125 293.9308 Z"/>
<path d="M 395.806 197.4928 430.9959 189.1376 429.7596 178.5463 431.4299 168.4888 453.8408 154.9573 465.3799 164.8671 483.0683 188.8318 517.0364 192.8273 536.9753 179.7041 538.3045 232.2525 547.5164 246.3395 544.6204 264.7643 526.6674 276.0588 511.3014 303.1196 484.1708 284.2399 441.2487 285.7693 421.1103 239.887 425.3425 212.8788 395.806 197.4928 Z"/>
<path d="M 425.1523 363.9738 416.7617 323.6447 401.2732 296.2186 400.6703 273.125 441.2487 285.7693 484.1708 284.2399 511.3014 303.1196 530.5214 320.5433 520.1051 367.2796 505.8069 382.9454 492.9879 357.9844 474.9279 346.0854 451.0137 350.4488 425.1523 363.9738 Z"/>
<path d="M 166.8809 200.411 179.4048 198.7731 183.1823 171.2637 200.7636 175.7141 224.9229 183.587 241.9639 209.6406 228.9963 231.6177 250.3504 241.1571 266.7805 267.3745 238.5125 293.9308 173.977 243.0777 162.6407 221.4078 166.8809 200.411 Z"/>
<path d="M 196.5465 86.377 245.2814 96.3158 267.1734 115.0159 278.7216 125.1635 242.9363 174.3048 224.9229 183.587 200.7636 175.7141 202.1914 152.7656 190.4881 124.4882 196.5465 86.377 Z"/>
<path d="M 527.5002 129.5569 546.8074 117.4661 567.337 168.0215 536.9753 179.7041 517.0364 192.8273 483.0683 188.8318 465.3799 164.8671 495.5781 149.1345 527.5002 129.5569 Z"/>
<path d="M 425.1523 363.9738 451.0137 350.4488 474.9279 346.0854 492.9879 357.9844 505.8069 382.9454 490.899 396.4766 481.8402 421.3426 459.3333 424.5418 440.6871 413.8275 445.9598 386.2525 425.1523 363.9738 Z"/>
<path d="M 691.18 404.4367 690.5024 423.5351 666.083 425.2474 619.218 453.7667 572.124 427.4754 622.9544 401.5137 646.1851 419.6344 668.5903 394.8249 691.18 404.4367 Z"/>
<path d="M 106.5338 302.5365 17.4367 307.3716 33.8639 261.2424 42.0577 222.9909 32.3942 195.0064 53.0346 179.8927 85.8262 201.9035 105.0164 198.3508 117.6402 209.3642 151.9393 210.8615 166.8809 200.411 162.6407 221.4078 141.8761 246.1326 140.3095 271.1735 106.5338 302.5365 Z"/>
<path d="M 391.198 272.7215 400.6703 273.125 401.2732 296.2186 416.7617 323.6447 425.1523 363.9738 445.9598 386.2525 420.4563 394.0007 386.4045 419.2026 350.8228 424.5042 335.3909 428.3687 301.3202 411.7742 292.6657 395.3188 278.7626 385.7638 252.8937 388.1943 213.8503 376.4824 178.7287 365.5513 183.3684 350.1291 207.11 336.3238 237.8851 327.8375 246.3416 298.2424 250.8369 306.8961 305.9222 298.3535 358.0335 309.2873 377.8413 295.6688 391.198 272.7215 Z"/>
<path d="M 106.5338 302.5365 119.8057 312.4371 112.7505 364.4682 74.8234 374.4268 49.5901 368.1716 21.6206 383.3525 1 375.1818 1.7492 351.3283 21.0064 322.1352 17.4367 307.3716 106.5338 302.5365 Z"/>
<path d="M 547.5164 246.3395 607.9803 258.7052 625.4777 290.9786 595.5617 312.294 582.5311 331.2594 592.5812 359.7957 575.0639 357.6096 552.3699 380.4686 520.1051 367.2796 530.5214 320.5433 511.3014 303.1196 526.6674 276.0588 544.6204 264.7643 547.5164 246.3395 Z"/>
<path d="M 315.4207 1 306.5101 46.4703 315.9862 57.7131 267.3222 88.1822 267.1734 115.0159 245.2814 96.3158 196.5465 86.377 130.2974 80.5003 108.6949 92.1781 121.8696 51.478 199.7031 4.7963 233.4498 11.7243 246.6583 4.2584 291.614 17.6726 315.4207 1 Z"/>
<path d="M 592.5812 359.7957 609.1971 374.71 622.9544 401.5137 572.124 427.4754 564.8464 426.5527 559.1306 410.332 538.2772 402.6412 552.3699 380.4686 575.0639 357.6096 592.5812 359.7957 Z"/>
<path d="M 135.0363 369.9956 178.7287 365.5513 213.8503 376.4824 215.5966 414.3153 202.1141 420.6122 214.832 449.9461 207.5606 469.2163 184.8959 473.2127 159.0062 456.8396 135.5473 462.2763 118.2682 456.3638 106.3301 430.41 128.8172 419.5382 149.9027 425.2528 151.4048 389.856 135.0363 369.9956 Z"/>
<path d="M 74.8234 374.4268 112.7505 364.4682 135.0363 369.9956 151.4048 389.856 149.9027 425.2528 128.8172 419.5382 106.3301 430.41 95.935 422.2653 90.6051 383.3162 74.8234 374.4268 Z"/>
<path d="M 292.6657 395.3188 271.9978 418.4174 274.6332 433.1236 248.9607 440.7086 254.7619 474.1414 207.5606 469.2163 214.832 449.9461 202.1141 420.6122 215.5966 414.3153 213.8503 376.4824 252.8937 388.1943 278.7626 385.7638 292.6657 395.3188 Z"/>
<path d="M 313.0692 249.4804 379.913 250.4703 391.198 272.7215 377.8413 295.6688 358.0335 309.2873 305.9222 298.3535 250.8369 306.8961 246.3416 298.2424 238.5125 293.9308 266.7805 267.3745 313.0692 249.4804 Z"/>
<path d="M 108.6949 92.1781 130.2974 80.5003 196.5465 86.377 190.4881 124.4882 202.1914 152.7656 200.7636 175.7141 183.1823 171.2637 179.4048 198.7731 166.8809 200.411 151.9393 210.8615 117.6402 209.3642 105.0164 198.3508 85.8262 201.9035 53.0346 179.8927 61.2768 174.128 75.2974 114.6374 108.6949 92.1781 Z"/>
<path d="M 625.4777 290.9786 657.183 311.7448 675.2243 307.2686 704.8091 281.4265 739.7581 292.3906 740.9944 312.9215 705.5368 322.6001 705.627 340.5859 690.9439 354.9533 691.18 404.4367 668.5903 394.8249 646.1851 419.6344 622.9544 401.5137 609.1971 374.71 592.5812 359.7957 582.5311 331.2594 595.5617 312.294 625.4777 290.9786 Z"/>
<path d="M 378.0723 19.4413 408.9624 16.7119 440.9321 32.1575 448.0442 55.2222 447.7984 70.4825 425.3292 81.7123 413.0498 63.7949 392.6461 68.514 381.1532 65.6219 378.0723 19.4413 Z"/>
<path d="M 539.0498 51.6561 565.7372 44.8801 574.8766 63.7089 603.5456 78.8864 608.4262 100.2863 583.3885 110.6939 546.8074 117.4661 527.5002 129.5569 527.4173 102.8493 540.2132 92.47 533.43 66.7327 539.0498 51.6561 Z"/>
<path d="M 300.6771 108.2188 324.6423 89.1232 356.8682 103.7381 362.4334 128.0325 343.9328 134.7688 326.2608 139.939 300.6771 108.2188 Z"/>
<path d="M 505.8069 382.9454 520.1051 367.2796 552.3699 380.4686 538.2772 402.6412 559.1306 410.332 564.8464 426.5527 541.592 434.6969 507.5487 428.391 487.0027 432.8627 481.8402 421.3426 490.899 396.4766 505.8069 382.9454 Z"/>
</g>
</svg>