<?xml version="1.0"?>
<svg xmlns="http://www.w3.org/2000/svg" version="1.2" baseProfile="tiny" width="800" height="469" viewBox="0 0 800 469" stroke-linecap="round" stroke-linejoin="round">
<g id="24MIE250GC_SIR">
<path d="M 591.8013 54.2963 582.091 93.6493 510.4903 105.1733 457.4485 130.1164 413.2154 59.0346 591.8013 54.2963 Z"/>
<path d="M 416.0714 196.2998 521.9179 240.2134 506.0971 289.3679 373.4578 315.3007 359.7444 304.542 416.0714 196.2998 Z"/>
<path d="M 315.5906 296.0753 359.7444 304.542 373.4578 315.3007 349.5083 419.3137 307.686 445.0902 243.0849 419.4078 266.8358 338.5254 315.5906 296.0753 Z"/>
<path d="M 742.4703 176.5498 765.951 258.3008 727.2167 253.1063 742.4703 176.5498 Z"/>
<path d="M 175.9576 89.627 256.0737 109.9819 285.1202 146.8529 252.5037 170.9719 219.1069 258.3448 152.0856 249.2977 116.137 208.1162 175.9576 89.627 Z"/>
<path d="M 377.0854 30.2005 366.2183 106.1242 312.0875 149.6387 285.1202 146.8529 256.0737 109.9819 175.9576 89.627 208.6569 24.8598 294.421 3.8403 315.4328 29.0554 377.0854 30.2005 Z"/>
<path d="M 457.4485 130.1164 510.4903 105.1733 573.1867 143.7315 584.8594 203.2852 587.9822 218.1594 521.9179 240.2134 416.0714 196.2998 416.7251 143.737 457.4485 130.1164 Z"/>
<path d="M 771.0752 293.2584 799 369.6814 717.2229 381.4887 722.1576 304.5851 771.0752 293.2584 Z"/>
<path d="M 670.6292 196.7232 681.7102 150.0394 736.1208 155.4733 742.4703 176.5498 727.2167 253.1063 765.951 258.3008 771.0752 293.2584 722.1576 304.5851 671.7717 274.2792 670.6292 196.7232 Z"/>
<path d="M 285.1202 146.8529 312.0875 149.6387 338.2337 206.1113 311.8283 272.9655 234.8611 295.9211 219.1069 258.3448 252.5037 170.9719 285.1202 146.8529 Z"/>
<path d="M 582.091 93.6493 591.8013 54.2963 684.4262 75.8792 736.1208 155.4733 681.7102 150.0394 670.6292 196.7232 652.9513 199.1649 582.091 93.6493 Z"/>
<path d="M 587.9822 218.1594 584.8594 203.2852 652.9513 199.1649 670.6292 196.7232 671.7717 274.2792 722.1576 304.5851 717.2229 381.4887 645.9198 361.185 645.9833 306.121 587.9822 218.1594 Z"/>
<path d="M 582.091 93.6493 652.9513 199.1649 584.8594 203.2852 573.1867 143.7315 510.4903 105.1733 582.091 93.6493 Z"/>
<path d="M 373.4578 315.3007 506.0971 289.3679 506.2565 326.9596 460.9385 341.5719 437.9865 468.1656 349.5083 419.3137 373.4578 315.3007 Z"/>
<path d="M 116.137 208.1162 152.0856 249.2977 119.4133 290.2136 163.784 336.0248 107.6125 374.7491 53.0475 363.3577 68.2888 276.8992 116.137 208.1162 Z"/>
<path d="M 506.2565 326.9596 506.0971 289.3679 521.9179 240.2134 587.9822 218.1594 645.9833 306.121 645.9198 361.185 583.8542 371.3994 516.2566 359.0902 506.2565 326.9596 Z"/>
<path d="M 68.2888 276.8992 53.0475 363.3577 1 324.0785 68.2888 276.8992 Z"/>
<path d="M 377.0854 30.2005 413.2154 59.0346 457.4485 130.1164 416.7251 143.737 416.0714 196.2998 359.7444 304.542 315.5906 296.0753 311.8283 272.9655 338.2337 206.1113 312.0875 149.6387 366.2183 106.1242 377.0854 30.2005 Z"/>
<path d="M 152.0856 249.2977 219.1069 258.3448 234.8611 295.9211 163.784 336.0248 119.4133 290.2136 152.0856 249.2977 Z"/>
</g>
</svg>