<?xml version="1.0"?>
<svg xmlns="http://www.w3.org/2000/svg" version="1.2" baseProfile="tiny" width="800" height="668" viewBox="0 0 800 668" stroke-linecap="round" stroke-linejoin="round">
<g id="11MIE250GC_SIR">
<path d="M 146.4079 287.4679 220.9524 290.6692 230.7256 326.287 357.116 334.4693 351.2839 354.7225 356.6464 452.114 386.0463 496.4553 466.2461 498.606 510.0008 530.4368 437.0957 571.1988 332.6836 520.8818 260.3003 523.1126 155.3504 412.7098 146.4079 287.4679 Z"/>
<path d="M 593.7931 352.5128 721.0998 352.9521 723.6716 406.3183 666.7813 441.4097 593.9427 426.4316 591.9379 525.4895 527.8222 606.7958 437.0957 571.1988 510.0008 530.4368 466.2461 498.606 546.8241 388.0484 593.7931 352.5128 Z"/>
<path d="M 590.9462 204.4096 593.7931 352.5128 546.8241 388.0484 437.5856 378.7816 351.2839 354.7225 357.116 334.4693 362.6177 294.8867 449.2104 294.712 488.3342 226.4053 528.6633 242.3202 590.9462 204.4096 Z"/>
<path d="M 351.2839 354.7225 437.5856 378.7816 546.8241 388.0484 466.2461 498.606 386.0463 496.4553 356.6464 452.114 351.2839 354.7225 Z"/>
<path d="M 735.9159 617.8073 691.4515 666.6205 629.0484 645.6337 556.5898 649.3644 527.8222 606.7958 591.9379 525.4895 725.7056 589.417 735.9159 617.8073 Z"/>
<path d="M 509.8765 71.0509 603.2568 111.2623 590.9462 204.4096 528.6633 242.3202 488.3342 226.4053 449.2104 294.712 362.6177 294.8867 360.4931 184.9135 491.9431 181.8988 509.8765 71.0509 Z"/>
<path d="M 509.8765 71.0509 491.9431 181.8988 360.4931 184.9135 362.6177 294.8867 357.116 334.4693 230.7256 326.287 220.9524 290.6692 146.4079 287.4679 145.2283 200.8874 1 225.4647 30.4201 170.3788 105.7164 186.3424 213.3977 118.9037 291.1751 114.1742 351.9575 1.0775 440.0781 1 509.8765 71.0509 Z"/>
<path d="M 721.0998 352.9521 775.4024 371.4427 763.8258 419.8619 799 511.2874 735.9159 617.8073 725.7056 589.417 591.9379 525.4895 593.9427 426.4316 666.7813 441.4097 723.6716 406.3183 721.0998 352.9521 Z"/>
</g>
</svg>