<?xml version="1.0"?>
<svg xmlns="http://www.w3.org/2000/svg" version="1.2" baseProfile="tiny" width="800" height="983" viewBox="0 0 800 983" stroke-linecap="round" stroke-linejoin="round">
<g id="14MIE250GC_SIR">
<path d="M 539.0523 51.9189 593.3008 264.2285 511.8045 413.9465 402.1136 338.5333 379.2232 372.4385 155.6148 357.678 47.0259 409.5295 9.302 314.6556 1 227.2411 48.4267 200.7751 317.7808 171.1018 492.9399 102.3463 539.0523 51.9189 Z"/>
<path d="M 511.8045 413.9465 479.7915 469.3905 577.8774 517.469 675.008 478.7561 722.4716 545.0468 659.0984 596.6656 440.6634 627.3652 375.359 728.7932 363.3621 981.8923 265.5464 890.2228 311.7737 822.2915 272.6968 743.9169 274.1776 632.788 220.5384 539.1628 231.738 484.5387 47.0259 409.5295 155.6148 357.678 379.2232 372.4385 402.1136 338.5333 511.8045 413.9465 Z"/>
<path d="M 722.4716 545.0468 798.9951 592.9655 799 735.6175 629.9654 735.6122 537.4174 904.9788 475.9364 849.488 419.8503 871.4716 363.3621 981.8923 375.359 728.7932 440.6634 627.3652 659.0984 596.6656 722.4716 545.0468 Z"/>
<path d="M 539.0523 51.9189 532.4348 1 615.9453 1.5755 612.5339 108.3883 667.9751 117.7577 707.1417 191.0748 670.0719 238.2957 638.1385 341.0809 675.008 478.7561 577.8774 517.469 479.7915 469.3905 511.8045 413.9465 593.3008 264.2285 539.0523 51.9189 Z"/>
</g>
</svg>