<?xml version="1.0"?>
<svg xmlns="http://www.w3.org/2000/svg" version="1.2" baseProfile="tiny" width="800" height="677" viewBox="0 0 800 677" stroke-linecap="round" stroke-linejoin="round">
<g id="43MIE250GC_SIR">
<path d="M 764.7946 230.4284 772.7368 214.577 797.7939 228.1285 762.9996 280.6434 737.898 341.2434 691.1002 408.5205 648.6107 448.5293 643.3764 443.7648 649.5311 405.4413 667.9933 402.2282 692.4663 378.9737 710.6664 344.7301 705.9581 316.0058 696.1116 293.735 698.3515 274.5426 737.1319 262.8653 733.6101 244.5899 764.7946 230.4284 Z"/>
<path d="M 630.2661 279.3663 644.0057 256.9722 682.0663 250.7203 698.3515 274.5426 696.1116 293.735 705.9581 316.0058 676.123 328.993 644.3662 313.8416 634.1683 318.8557 615.3117 323.1905 614.2611 347.6715 590.4732 347.166 601.4766 330.2324 597.6259 304.0253 635.7548 290.6598 630.2661 279.3663 Z"/>
<path d="M 495.8351 20.3111 506.8732 16.4816 553.1876 22.1481 582.5398 44.443 572.264 81.2058 529.4508 91.6516 507.2031 87.4278 488.8808 61.5599 495.8351 20.3111 Z"/>
<path d="M 205.7895 164.7145 235.6634 162.202 282.4679 181.6787 294.5079 167.7843 329.4795 187.4052 367.8366 184.0849 376.9496 174.2649 414.3655 201.8139 438.0033 209.0406 440.357 236.1964 427.2833 230.6605 398.1014 245.9542 400.885 255.7628 387.1194 231.1751 321.1896 238.8174 307.3145 225.8563 293.4177 234.3843 268.9179 227.576 237.7188 213.5322 231.3936 191.1846 205.7895 164.7145 Z"/>
<path d="M 329.4795 187.4052 322.1834 164.9456 350.1453 149.2163 366.2899 157.8701 381.0717 143.087 412.4782 150.9032 432.9228 112.7207 441.8679 107.7821 464.3567 130.2595 456.5113 142.897 462.2672 170.795 492.0921 162.4595 493.1281 195.4073 464.588 208.5018 438.0033 209.0406 414.3655 201.8139 376.9496 174.2649 367.8366 184.0849 329.4795 187.4052 Z"/>
<path d="M 217.094 101.6848 227.1052 89.4717 264.5064 111.5295 286.8869 114.0916 286.7898 130.2369 301.9361 137.2539 312.9157 102.9566 290.2224 93.9466 340.2313 85.396 355.1268 93.5645 371.5228 114.6907 350.3643 128.0258 350.1453 149.2163 322.1834 164.9456 329.4795 187.4052 294.5079 167.7843 282.4679 181.6787 235.6634 162.202 205.7895 164.7145 188.5239 159.2019 207.9285 139.3751 217.094 101.6848 Z"/>
<path d="M 645.9382 230.7841 644.0057 256.9722 630.2661 279.3663 602.3456 258.9128 597.339 237.3753 614.5878 230.0463 645.9382 230.7841 Z"/>
<path d="M 391.7048 9.969 405.7669 60.5988 387.7 67.9261 356.2247 66.8886 342.7605 51.4423 325.0582 56.9294 314.8963 40.2825 326.8101 38.6295 362.2446 11.5817 391.7048 9.969 Z"/>
<path d="M 487.6535 84.3441 504.3569 113.7912 502.4841 134.5958 464.3567 130.2595 441.8679 107.7821 432.9228 112.7207 411.688 102.9761 401.1802 87.4359 407.6582 66.9734 425.8698 53.4014 454.2706 53.0766 453.0814 68.374 487.6535 84.3441 Z"/>
<path d="M 555.8756 388.1269 577.9501 388.4503 587.4586 409.7432 585.1101 426.3432 567.9717 436.2848 562.8962 467.6022 543.3585 477.415 527.1304 479.1433 523.4627 500.5183 498.8595 488.7895 472.8502 487.4365 475.794 466.3346 465.4281 454.12 473.9154 429.4919 471.5645 404.3802 478.8548 390.0296 501.7325 392.4306 541.5633 385.2508 555.8756 388.1269 Z"/>
<path d="M 388.9152 348.0013 433.7544 309.9578 430.3818 328.2217 455.4531 360.3259 471.7008 357.2922 476.6358 331.5641 502.4681 320.6589 531.2066 332.3033 520.0559 354.3228 555.8756 388.1269 541.5633 385.2508 501.7325 392.4306 478.8548 390.0296 471.5645 404.3802 473.9154 429.4919 465.4281 454.12 475.794 466.3346 472.8502 487.4365 416.6155 485.4358 390.8997 508.8018 368.3845 494.2178 385.2597 441.8525 410.7436 421.9073 419.2682 395.9288 388.7044 374.2758 388.9152 348.0013 Z"/>
<path d="M 410.5537 661.2802 411.9431 615.8568 456.8634 574.0015 446.631 565.6385 464.7923 558.8177 493.0259 516.5126 502.8474 513.4314 495.4918 531.0836 506.5013 552.6733 491.8951 584.8101 449.5838 581.909 446.8315 600.6513 420.675 616.7448 420.0797 652.6952 410.5537 661.2802 Z"/>
<path d="M 374.4967 346.3245 388.9152 348.0013 388.7044 374.2758 419.2682 395.9288 410.7436 421.9073 385.2597 441.8525 368.3845 494.2178 354.8045 491.6822 316.7629 463.4778 303.5077 443.6736 278.1794 442.1923 257.9558 426.1558 250.7209 388.4662 260.3702 369.4407 276.9411 370.4683 289.9791 356.4013 318.5086 359.0756 346.7834 374.7552 374.4967 346.3245 Z"/>
<path d="M 400.885 255.7628 411.9191 272.0086 399.0391 284.6138 409.8735 302.1112 451.7813 292.6534 433.7544 309.9578 388.9152 348.0013 374.4967 346.3245 361.2306 322.9035 376.0347 296.5462 337.9092 285.0729 303.6054 292.0624 280.1325 306.8264 251.3272 301.3053 229.8156 304.1232 257.4712 265.9954 283.5728 255.6875 268.9179 227.576 293.4177 234.3843 307.3145 225.8563 321.1896 238.8174 387.1194 231.1751 400.885 255.7628 Z"/>
<path d="M 557.5799 515.0746 563.964 491.2191 606.3018 470.1553 622.5243 447.6041 643.3764 443.7648 648.6107 448.5293 624.1273 467.9342 583.1682 490.6178 557.5799 515.0746 Z M 502.8474 513.4314 523.4627 500.5183 527.1304 479.1433 543.3585 477.415 545.3712 502.7572 556.0904 515.2339 536.2716 533.1519 515.7586 586.8224 487.1884 629.0215 426.9831 675.7828 410.5537 661.2802 420.0797 652.6952 420.675 616.7448 446.8315 600.6513 449.5838 581.909 491.8951 584.8101 506.5013 552.6733 495.4918 531.0836 502.8474 513.4314 Z"/>
<path d="M 590.4732 347.166 614.2611 347.6715 615.3117 323.1905 634.1683 318.8557 649.3967 335.0825 622.2605 406.4318 585.1101 426.3432 587.4586 409.7432 577.9501 388.4503 555.8756 388.1269 520.0559 354.3228 531.2066 332.3033 549.9004 340.798 567.8083 354.3096 590.4732 347.166 Z"/>
<path d="M 217.094 101.6848 207.9285 139.3751 188.5239 159.2019 205.7895 164.7145 231.3936 191.1846 237.7188 213.5322 268.9179 227.576 283.5728 255.6875 257.4712 265.9954 229.8156 304.1232 195.3976 310.7526 191.3135 335.7046 146.9667 342.2167 130.6957 349.883 120.9546 346.1615 73.8185 304.8933 50.6917 305.1592 37.9133 324.8073 1 321.4676 45.2503 272.5498 76.6883 244.1233 100.3662 206.5563 116.433 202.4659 129.6934 174.9268 140.4078 171.5867 171.88 141.5468 183.3222 117.4255 217.094 101.6848 Z"/>
<path d="M 705.9581 316.0058 710.6664 344.7301 692.4663 378.9737 667.9933 402.2282 649.5311 405.4413 643.3764 443.7648 622.5243 447.6041 606.3018 470.1553 563.964 491.2191 557.5799 515.0746 556.0904 515.2339 545.3712 502.7572 543.3585 477.415 562.8962 467.6022 567.9717 436.2848 585.1101 426.3432 622.2605 406.4318 649.3967 335.0825 634.1683 318.8557 644.3662 313.8416 676.123 328.993 705.9581 316.0058 Z"/>
<path d="M 374.4967 346.3245 346.7834 374.7552 318.5086 359.0756 289.9791 356.4013 276.9411 370.4683 260.3702 369.4407 250.7209 388.4662 257.9558 426.1558 236.2046 418.2515 202.8045 381.1208 173.2243 404.6095 161.1564 383.1272 130.6957 349.883 146.9667 342.2167 191.3135 335.7046 195.3976 310.7526 229.8156 304.1232 251.3272 301.3053 280.1325 306.8264 303.6054 292.0624 337.9092 285.0729 376.0347 296.5462 361.2306 322.9035 374.4967 346.3245 Z"/>
<path d="M 604.6237 141.6188 616.8707 133.3265 597.0834 108.1417 599.0198 95.1711 625.1302 84.4263 636.1452 64.4568 675.1963 90.0477 681.7898 107.1006 701.4515 127.2147 725.4451 136.9173 794.5003 143.0496 791.3909 156.8001 772.879 171.2805 773.4044 203.0161 758.0199 215.8134 764.7946 230.4284 733.6101 244.5899 704.9754 251.2707 700.5127 228.6275 681.717 219.6384 689.2945 195.0754 683.6256 177.1908 653.1634 182.5397 623.0638 174.6951 627.9328 155.3345 604.6237 141.6188 Z"/>
<path d="M 314.8963 40.2825 325.0582 56.9294 342.7605 51.4423 356.2247 66.8886 355.1268 93.5645 340.2313 85.396 290.2224 93.9466 256.3402 77.9478 271.4099 56.0268 314.8963 40.2825 Z"/>
<path d="M 355.1268 93.5645 356.2247 66.8886 387.7 67.9261 405.7669 60.5988 407.6582 66.9734 401.1802 87.4359 411.688 102.9761 432.9228 112.7207 412.4782 150.9032 381.0717 143.087 366.2899 157.8701 350.1453 149.2163 350.3643 128.0258 371.5228 114.6907 355.1268 93.5645 Z"/>
<path d="M 440.357 236.1964 438.0033 209.0406 464.588 208.5018 475.5949 225.7626 515.1674 219.4913 555.1599 244.8861 571.7929 271.3815 553.7921 267.8435 514.2741 282.972 505.4335 274.13 475.5535 282.2199 461.5704 250.534 440.357 236.1964 Z"/>
<path d="M 515.1674 219.4913 544.4797 204.0362 584.8709 195.8709 592.4784 208.2753 597.339 237.3753 602.3456 258.9128 590.5944 274.7727 571.7929 271.3815 555.1599 244.8861 515.1674 219.4913 Z"/>
<path d="M 492.0921 162.4595 510.5842 148.4689 540.699 160.1433 532.5808 176.2287 544.4797 204.0362 515.1674 219.4913 475.5949 225.7626 464.588 208.5018 493.1281 195.4073 492.0921 162.4595 Z"/>
<path d="M 602.3456 258.9128 630.2661 279.3663 635.7548 290.6598 597.6259 304.0253 601.4766 330.2324 590.4732 347.166 567.8083 354.3096 549.9004 340.798 553.7921 267.8435 571.7929 271.3815 590.5944 274.7727 602.3456 258.9128 Z"/>
<path d="M 604.6237 141.6188 627.9328 155.3345 623.0638 174.6951 590.9008 177.755 592.4784 208.2753 584.8709 195.8709 544.4797 204.0362 532.5808 176.2287 540.699 160.1433 580.5369 160.0967 592.082 138.6767 604.6237 141.6188 Z"/>
<path d="M 390.8997 508.8018 416.6155 485.4358 472.8502 487.4365 498.8595 488.7895 523.4627 500.5183 502.8474 513.4314 493.0259 516.5126 464.7923 558.8177 446.631 565.6385 405.2674 544.6171 390.8997 508.8018 Z"/>
<path d="M 644.0057 256.9722 645.9382 230.7841 681.717 219.6384 700.5127 228.6275 704.9754 251.2707 733.6101 244.5899 737.1319 262.8653 698.3515 274.5426 682.0663 250.7203 644.0057 256.9722 Z"/>
<path d="M 440.357 236.1964 461.5704 250.534 443.327 271.4009 451.7813 292.6534 409.8735 302.1112 399.0391 284.6138 411.9191 272.0086 400.885 255.7628 398.1014 245.9542 427.2833 230.6605 440.357 236.1964 Z"/>
<path d="M 461.5704 250.534 475.5535 282.2199 505.4335 274.13 514.2741 282.972 553.7921 267.8435 549.9004 340.798 531.2066 332.3033 502.4681 320.6589 476.6358 331.5641 471.7008 357.2922 455.4531 360.3259 430.3818 328.2217 433.7544 309.9578 451.7813 292.6534 443.327 271.4009 461.5704 250.534 Z"/>
<path d="M 623.0638 174.6951 653.1634 182.5397 683.6256 177.1908 689.2945 195.0754 681.717 219.6384 645.9382 230.7841 614.5878 230.0463 597.339 237.3753 592.4784 208.2753 590.9008 177.755 623.0638 174.6951 Z"/>
<path d="M 391.7048 9.969 411.9435 11.9656 425.8666 1 446.0537 10.6611 478.7412 8.7438 495.8351 20.3111 488.8808 61.5599 487.6535 84.3441 453.0814 68.374 454.2706 53.0766 425.8698 53.4014 407.6582 66.9734 405.7669 60.5988 391.7048 9.969 Z"/>
<path d="M 510.5842 148.4689 492.0921 162.4595 462.2672 170.795 456.5113 142.897 464.3567 130.2595 502.4841 134.5958 510.5842 148.4689 Z"/>
<path d="M 256.3402 77.9478 290.2224 93.9466 312.9157 102.9566 301.9361 137.2539 286.7898 130.2369 286.8869 114.0916 264.5064 111.5295 227.1052 89.4717 256.3402 77.9478 Z"/>
<path d="M 582.5398 44.443 616.5502 47.8834 636.1452 64.4568 625.1302 84.4263 599.0198 95.1711 597.0834 108.1417 574.4094 102.6363 572.264 81.2058 582.5398 44.443 Z"/>
<path d="M 487.6535 84.3441 488.8808 61.5599 507.2031 87.4278 529.4508 91.6516 572.264 81.2058 574.4094 102.6363 597.0834 108.1417 616.8707 133.3265 604.6237 141.6188 592.082 138.6767 580.5369 160.0967 540.699 160.1433 510.5842 148.4689 502.4841 134.5958 504.3569 113.7912 487.6535 84.3441 Z"/>
</g>
</svg>