<?xml version="1.0"?>
<svg xmlns="http://www.w3.org/2000/svg" version="1.2" baseProfile="tiny" width="800" height="492" viewBox="0 0 800 492" stroke-linecap="round" stroke-linejoin="round">
<g id="42MIE250GC_SIR">
<path d="M 289.8345 142.0944 291.4898 134.1131 299.9332 129.8152 303.0872 131.6712 307.9501 122.9619 297.0357 121.1525 298.035 113.6373 296.4362 110.1666 287.4412 109.1205 284.732 105.5894 289.0198 97.9822 290.1672 92.295 296.0023 93.1886 302.7539 90.9927 309.3083 92.0884 314.3006 89.8873 318.0878 93.0708 332.2136 93.7348 338.0723 93.0959 343.9848 100.8596 346.8337 107.7889 350.9208 109.6032 353.2813 104.1536 359.7115 102.0167 367.3733 103.0839 375.8817 98.5285 377.0599 88.3073 370.4815 80.1016 373.3946 74.8152 367.6085 70.7424 367.7808 66.3811 370.8915 63.8568 380.9445 69.7317 382.5865 73.3707 393.5677 64.4359 406.6896 66.6061 412.4433 66.4781 414.4849 69.5949 410.3156 74.0723 408.7538 79.6816 419.0504 87.6739 430.9355 88.9178 438.1745 102.5456 441.916 106.9923 449.1281 107.8763 456.1435 103.533 460.1152 106.0924 463.4455 111.4579 469.9859 115.2199 474.5511 119.9039 479.3286 121.3217 480.3116 127.2684 474.788 128.8568 470.4149 133.6301 469.957 142.7618 465.9791 146.3422 466.6395 149.6427 464.3423 156.1537 459.3472 161.8578 448.8784 170.7958 441.5504 170.491 433.4702 177.4075 428.2775 174.5976 427.7543 171.7243 419.5561 171.2494 416.0748 175.7981 409.3758 178.3859 406.563 185.4247 400.7428 190.0181 393.4763 188.6351 387.269 195.1605 379.6853 191.1716 378.0484 187.667 369.8057 185.3484 362.8001 191.3469 366.5038 195.93 361.9321 203.039 350.2197 201.2742 346.4603 199.3592 343.4187 203.3769 335.3055 199.406 331.634 194.4513 321.1052 200.6849 327.9426 201.1924 332.6401 208.2395 329.4892 209.153 328.6893 220.049 318.0733 224.5073 315.9073 228.55 308.072 223.2204 310.3437 216.2614 303.4893 210.7773 303.878 202.1976 299.4127 197.985 298.9614 191.2582 305.3358 184.9251 297.5549 183.334 291.5629 180.659 289.8534 176.5414 281.7141 170.428 282.5354 165.5966 289.0041 166.46 289.0814 162.921 292.9936 158.1967 284.4651 150.5335 290.6848 144.0202 289.8345 142.0944 Z"/>
<path d="M 95.3229 58.5652 90.7493 61.3015 81.9357 62.511 76.1782 70.4464 77.7177 73.625 83.4808 73.0348 85.1343 76.5705 82.6279 85.1318 85.1222 91.3287 84.5456 98.8998 76.1121 110.7787 70.7213 112.2232 66.5601 118.7992 61.8143 119.3092 62.5738 128.8671 58.0401 133.2534 62.1548 137.5818 67.1942 137.5935 75.9546 142.0288 76.8717 159.9252 71.2071 167.7786 66.8551 169.4847 63.1134 166.9824 59.4425 173.1695 52.2747 176.1369 49.2169 173.5142 44.585 175.3456 47.2642 179.5688 43.1057 182.7402 37.5653 178.4338 28.5262 180.576 18.6124 177.115 12.0986 180.8685 9.0801 180.6804 5.5189 174.7652 2.0967 174.6589 1 169.4328 2.4976 159.0147 9.6702 157.8545 10.5016 151.9142 16.3942 146.5476 15.5468 143.537 20.4542 137.6801 16.9459 125.8449 11.2252 119.3494 10.8221 115.6939 13.201 103.1007 8.2256 101.3894 11.5741 96.9632 13.4827 89.3551 12.218 80.6136 18.4314 71.9109 15.5352 65.103 18.6649 56.3972 24.716 48.5631 25.1092 45.42 33.4699 45.2171 37.4164 49.3014 46.3741 51.5931 56.8451 48.2271 63.8379 42.6712 74.2822 45.1253 77.3266 43.278 80.1219 49.6312 92.0284 57.6748 95.3229 58.5652 Z"/>
<path d="M 625.6842 343.8427 631.5334 343.4445 649.3701 348.8291 655.8728 357.929 669.661 362.1987 667.6444 365.8211 661.2724 369.7273 660.3096 374.1665 663.1072 376.7607 667.8371 385.3777 673.5337 391.7693 676.3511 392.9707 676.2615 404.4788 672.9675 406.5322 671.6538 413.5657 675.0297 415.9361 659.6511 427.8612 643.9385 420.637 639.9927 417.8544 634.8667 422.4779 626.4724 424.1183 624.2218 420.4684 618.4192 416.2227 615.1294 416.0309 613.7678 408.7873 604.2543 409.0046 603.3999 400.7597 598.0991 396.1499 599.2537 390.9542 599.425 390.7864 606.7413 386.8951 607.2143 378.7532 612.3264 376.2599 615.785 372.1572 621.5903 369.9061 622.2056 363.544 619.3031 359.7823 622.6773 355.6401 620.5421 353.3136 625.6842 343.8427 Z"/>
<path d="M 614.0077 40.4982 610.4527 50.5387 612.8282 56.4214 606.7894 58.7834 609.3466 62.3531 600.2453 65.1727 594.4404 69.3721 590.8913 74.5646 591.7004 79.9926 594.7775 87.3734 601.9256 94.0112 602.483 99.1208 598.6312 102.352 601.2088 108.0368 606.8712 108.5268 602.642 109.931 597.3035 112.7954 593.7605 121.7298 589.4005 119.1821 583.9998 111.5399 578.4366 110.9162 572.1063 115.5901 569.7686 121.2265 564.9286 124.3448 559.2894 123.3899 553.5099 125.8058 545.6674 125.0729 541.8898 126.6154 532.5009 122.4959 523.7793 126.2374 519.0269 133.2927 513.9982 129.2942 506.3153 128.0338 506.9999 121.171 504.5665 114.8701 499.9226 115.2192 489.8967 111.1149 487.1983 108.9521 487.7405 104.0372 483.2404 103.3566 480.8273 111.7598 483.2634 119.57 479.3286 121.3217 474.5511 119.9039 469.9859 115.2199 463.4455 111.4579 460.1152 106.0924 456.1435 103.533 449.1281 107.8763 441.916 106.9923 438.1745 102.5456 430.9355 88.9178 419.0504 87.6739 408.7538 79.6816 410.3156 74.0723 414.4849 69.5949 412.4433 66.4781 406.6896 66.6061 393.5677 64.4359 382.5865 73.3707 380.9445 69.7317 370.8915 63.8568 374.1595 55.5401 388.6756 48.0899 395.47 47.2003 399.033 41.158 402.0264 43.0048 410.1589 41.0278 414.4996 45.547 418.5451 42.9956 423.5125 43.812 423.5434 48.8062 432.6445 46.283 439.4884 41.1653 444.9247 39.8174 447.3641 43.4234 451.7841 43.1036 449.7055 37.0962 453.4791 34.9316 457.1498 29.0718 461.3258 26.7602 460.4545 22.1392 464.8857 16.4995 469.4016 17.7042 475.4199 16.0976 469.6416 11.3981 472.9844 7.7239 475.8077 13.0186 481.2855 11.2493 488.9282 11.2811 493.5001 16.6239 496.6295 15.973 501.9359 18.9868 502.5569 23.8303 509.2247 26.9716 507.7212 19.8884 512.5654 15.4207 518.9242 13.0418 527.9258 16.9096 529.4281 18.783 535.6966 11.3155 538.0191 14.8446 550.4205 11.4673 554.5399 9.3826 566.2202 11.8434 575.1735 12.3197 575.9942 15.4201 581.1856 18.4009 581.7732 21.1355 588.2169 24.7244 592.7989 25.61 603.8416 35.1136 606.5908 34.6861 614.0077 40.4982 Z"/>
<path d="M 722.914 99.9607 722.017 92.4998 722.9723 87.4932 730.1987 82.2546 738.0963 86.1041 744.7544 94.4802 747.483 90.7554 751.0342 91.7179 747.4359 105.3088 749.5173 118.0689 753.2165 118.6495 757.3303 122.5419 762.0874 122.821 759.6966 127.8797 755.5462 130.8243 753.9852 138.6928 756.7001 142.8176 755.3558 150.8768 758.2803 153.9951 764.56 154.5727 758.26 167.9088 762.1662 174.068 767.1018 176.224 771.345 171.1031 777.5313 175.6066 772.7959 180.1189 759.9064 185.0466 751.613 184.6598 748.1375 181.7087 747.3005 173.6623 731.0809 175.8206 729.3135 172.8932 732.4377 167.4344 724.7701 163.1607 721.1243 154.6797 724.8201 147.9544 723.2504 141.7002 717.3704 137.2775 711.3079 130.2945 704.5164 128.3351 703.8178 125.3762 716.7628 118.6571 728.881 126.5006 729.6613 119.6734 727.9422 115.7363 731.013 111.4446 730.9288 106.302 728.6412 100.6295 722.914 99.9607 Z"/>
<path d="M 757.2331 291.0424 755.6028 299.0432 760.1435 303.314 759.0039 308.1392 755.6126 311.6085 753.4559 321.0186 751.0695 325.9302 752.0016 334.1467 746.46 340.8457 744.063 349.3854 739.2977 356.8866 736.2075 366.1448 738.9185 372.7337 727.0582 387.5339 722.0693 389.0003 705.6617 396.9931 688.402 407.1465 675.0297 415.9361 671.6538 413.5657 672.9675 406.5322 676.2615 404.4788 676.3511 392.9707 673.5337 391.7693 667.8371 385.3777 663.1072 376.7607 660.3096 374.1665 661.2724 369.7273 667.6444 365.8211 669.661 362.1987 655.8728 357.929 649.3701 348.8291 631.5334 343.4445 625.6842 343.8427 623.8549 330.968 627.5852 321.9652 630.722 317.6461 635.8846 318.8837 638.9358 315.6753 644.6722 315.1263 643.0184 311.0835 647.7027 308.6974 651.0136 298.5195 655.5081 296.607 657.065 290.4721 673.7524 294.5824 679.1024 293.9746 680.8353 298.6125 686.8612 300.0328 694.3702 297.6267 696.8831 304.1352 705.3532 310.2479 709.3006 314.5504 711.8815 309.6477 717.3914 310.5828 725.623 309.5736 732.2046 312.8479 744.678 311.1301 742.8193 305.767 749.8421 299.6359 753.0181 294.127 757.2331 291.0424 Z"/>
<path d="M 153.2683 58.9955 165.3116 58.8742 177.6121 68.1092 188.0532 65.6474 196.8933 71.5419 205.7178 69.883 209.1397 71.4015 220.1151 71.7014 224.1093 74.6964 230.985 75.5431 237.3236 72.3458 240.1887 75.2424 248.2179 76.6981 252.6331 84.0106 259.4928 86.1467 263.2176 90.0547 279.0355 91.91 282.2973 94.5782 290.1672 92.295 289.0198 97.9822 284.732 105.5894 287.4412 109.1205 296.4362 110.1666 298.035 113.6373 297.0357 121.1525 307.9501 122.9619 303.0872 131.6712 299.9332 129.8152 291.4898 134.1131 289.8345 142.0944 286.5565 145.2436 275.7113 143.3998 269.5275 145.6679 242.0364 145.7842 237.4601 147.1012 227.2889 144.2191 218.4587 149.5714 209.4706 149.3055 202.4003 155.0325 193.0973 166.5323 190.3057 166.9431 184.0474 163.6587 178.4566 156.8612 179.2596 149.4382 172.9837 141.891 173.9712 133.5505 168.8016 131.9167 164.4412 125.0735 164.631 120.2109 171.2513 117.4198 174.7108 112.9388 175.758 102.7916 172.2056 98.8279 161.7278 92.4073 156.0115 81.4558 156.9594 74.5606 153.625 73.1383 153.6171 65.3586 151.355 62.7882 153.2683 58.9955 Z"/>
<path d="M 599.2537 390.9542 598.0991 396.1499 603.3999 400.7597 604.2543 409.0046 613.7678 408.7873 615.1294 416.0309 618.4192 416.2227 624.2218 420.4684 626.4724 424.1183 634.8667 422.4779 639.9927 417.8544 643.9385 420.637 659.6511 427.8612 646.5572 438.9032 633.2023 451.8131 614.8826 471.5176 598.3615 491.144 593.7424 488.4716 583.0051 486.5834 575.1603 477.6167 561.5693 473.8947 554.6869 477.7669 539.2955 483.1434 533.9912 480.3644 534.9016 473.7443 540.4209 475.6714 553.5144 468.6422 557.3307 461.9953 562.5286 457.2815 563.264 453.8511 561.0943 448.0688 565.8093 439.9139 562.8078 439.3294 561.2263 434.0383 563.4851 430.0194 561.6588 423.5422 561.7736 411.6772 575.1825 401.2999 579.1083 402.0706 579.5864 396.273 591.6234 388.9087 599.2537 390.9542 Z"/>
<path d="M 669.6002 186.9984 665.8377 193.984 669.6387 198.2845 661.3617 201.9493 656.5883 211.0168 658.7487 215.7167 659.2917 222.3795 654.9887 228.7998 654.1153 234.5187 658.1217 238.4788 654.8956 239.1239 650.2623 235.3051 641.7487 235.2048 639.3435 238.371 632.9447 235.9467 627.8945 240.8134 617.2724 245.0838 609.6589 249.8307 606.9166 246.9241 601.4016 248.3977 594.3545 247.7917 595.0358 243.7963 592.3306 240.0543 583.0453 234.3869 578.2497 227.0488 571.5862 224.9072 569.638 216.2613 574.3051 213.0651 579.2574 204.1574 584.2636 205.0404 591.2538 208.5468 601.2149 210.5607 612.8894 210.1503 619.5389 211.3985 628.6251 203.1913 642.1418 204.5859 644.1153 201.1598 651.1824 199.0336 655.5677 199.4257 656.4493 193.6926 662.1201 189.155 669.6002 186.9984 Z"/>
<path d="M 709.2251 244.6302 707.8844 242.7596 713.1856 236.8955 713.0804 232.5476 716.9455 223.2993 713.2946 220.8498 720.9785 216.7508 728.1085 209.8746 730.8015 205.6191 741.4298 202.9212 744.7525 204.9328 751.0819 203.9581 754.9423 201.0278 761.0354 199.3549 769.0634 199.8607 771.0338 212.7913 777.2746 208.4197 786.9389 208.7522 793.3024 222.0354 788.52 227.2104 785.1671 234.213 786.8599 239.1736 779.6322 248.2144 773.7664 261.7907 778.045 264.3552 775.1865 269.1844 769.8683 269.3067 768.6599 273.9468 760.8964 277.3384 760.5598 281.6199 763.9142 283.3177 757.2331 291.0424 753.0181 294.127 749.8421 299.6359 742.8193 305.767 744.678 311.1301 732.2046 312.8479 725.623 309.5736 717.3914 310.5828 722.0424 305.6959 724.5809 300.3709 725.5029 293.8966 723.8556 291.858 725.5738 282.9573 719.9875 280.3864 714.4561 275.6517 719.8862 271.3008 719.0791 267.3849 722.4478 263.4211 721.2576 257.6166 727.4211 257.7246 721.9238 249.4821 724.6256 244.4208 709.2251 244.6302 Z"/>
<path d="M 545.1634 197.5294 552.2059 200.71 551.6734 207.0226 556.7346 213.6306 561.8248 212.3941 569.638 216.2613 571.5862 224.9072 578.2497 227.0488 583.0453 234.3869 592.3306 240.0543 595.0358 243.7963 594.3545 247.7917 601.4016 248.3977 606.9166 246.9241 609.6589 249.8307 617.2724 245.0838 627.8945 240.8134 628.4247 248.5021 633.5787 253.3477 633.066 259.1534 635.0482 264.148 639.1881 265.8627 652.1143 274.9058 655.4491 274.2358 658.7293 280.8394 657.065 290.4721 655.5081 296.607 651.0136 298.5195 647.7027 308.6974 643.0184 311.0835 644.6722 315.1263 638.9358 315.6753 635.8846 318.8837 630.722 317.6461 627.5852 321.9652 623.8549 330.968 625.6842 343.8427 620.5421 353.3136 622.6773 355.6401 619.3031 359.7823 622.2056 363.544 621.5903 369.9061 615.785 372.1572 612.3264 376.2599 607.2143 378.7532 606.7413 386.8951 599.425 390.7864 598.7191 383.9783 593.0683 377.1487 595.9632 374.7484 592.8436 371.1091 586.6222 371.466 582.7814 367.5943 579.5621 371.4757 570.6561 366.8422 560.3971 363.2696 552.1723 368.2367 541.9649 369.7104 534.6592 364.628 532.9278 366.841 527.1045 363.9437 523.6687 366.6324 520.787 362.076 516.3391 365.7282 512.1952 363.1325 506.4914 363.3797 502.4155 360.5016 493.6106 362.297 487.5358 359.5791 478.6184 358.545 476.7746 361.4164 469.6385 354.7196 459.1316 348.3542 459.1786 344.69 454.7376 338.5287 446.2053 334.7482 445.138 327.5148 441.9853 324.74 440.3434 319.2947 430.8775 319.45 428.4091 312.9421 428.4805 307.0142 426.4034 302.4197 421.509 300.8263 421.4026 294.9449 411.2447 291.205 402.1547 285.0315 402.3216 279.703 390.6874 270.4476 386.977 270.1286 382.9352 266.6632 370.2717 262.401 370.3269 259.1012 365.0855 257.2461 364.367 251.6971 357.8041 252.2402 355.2054 249.5031 349.1949 248.7178 343.6333 241.8393 349.6677 236.6052 350.8606 239.9191 364.3795 240.9779 368.6649 245.1072 373.2542 245.3499 376.3776 240.8574 386.0429 244.6391 389.423 242.5991 400.0975 247.6608 410.9568 246.7768 411.9131 241.5752 417.5694 233.5838 426.0327 234.446 432.6762 227.4347 438.2785 223.5376 446.2962 214.7707 451.8316 219.0204 455.3898 215.3816 459.1848 220.9916 463.6699 219.4833 467.7906 221.5634 473.9304 221.7821 481.1833 219.8918 485.291 220.7638 489.0975 225.1985 497.4988 222.5519 501.2499 226.4457 501.6343 232.8528 513.6554 228.5564 512.4713 225.6574 517.0185 220.5841 522.4289 223.8819 525.3868 219.535 531.719 217.8762 534.8204 208.4417 545.1634 197.5294 Z"/>
<path d="M 709.1929 5.9797 707.7178 4.6394 748.3206 5.0581 753.8126 1 755.3156 4.1943 760.0808 4.6403 758.7659 14.8575 761.9484 30.0403 767.9932 32.3865 774.2662 42.0384 768.0843 52.7101 760.3589 70.4893 758.8347 76.2236 751.0342 91.7179 747.483 90.7554 744.7544 94.4802 738.0963 86.1041 730.1987 82.2546 722.9723 87.4932 722.017 92.4998 722.914 99.9607 718.7957 103.2496 713.5847 103.7006 711.1594 108.4993 704.8174 114.8678 695.7789 119.0651 694.7869 110.8656 698.2896 107.3696 695.222 102.4681 678.0219 101.9627 673.0944 98.1626 660.431 95.9835 658.3723 90.6822 659.203 86.5727 653.5317 85.9749 646.9694 78.6661 641.1171 81.8255 637.5929 78.747 635.3436 77.6705 629.717 69.7583 637.8072 68.5122 638.7387 61.2159 643.2064 58.3878 652.3258 62.6459 659.5984 61.5265 668.2763 65.3462 676.3054 60.7528 674.7336 57.7624 676.0843 52.64 668.7418 46.4598 668.2686 43.3056 676.2352 37.7584 676.8587 32.1033 674.3772 28.6366 678.7799 24.1204 691.259 18.3561 694.367 11.5223 697.565 8.909 701.4439 11.2311 708.3575 10.183 709.1929 5.9797 Z"/>
<path d="M 519.0269 133.2927 523.7793 126.2374 532.5009 122.4959 541.8898 126.6154 545.6674 125.0729 553.5099 125.8058 559.2894 123.3899 564.9286 124.3448 569.7686 121.2265 572.1063 115.5901 578.4366 110.9162 583.9998 111.5399 589.4005 119.1821 593.7605 121.7298 597.3035 112.7954 602.642 109.931 607.9102 120.9728 619.5036 122.0282 622.1648 137.4521 627.6064 140.1122 634.9195 148.0902 633.1831 162.5348 635.1518 167.92 633.6939 171.0637 635.4236 175.556 634.6403 186.9716 636.9316 190.4017 647.6863 186.5894 652.475 187.791 665.401 182.4628 666.1145 180.0132 672.1436 177.0529 674.131 182.9966 669.6002 186.9984 662.1201 189.155 656.4493 193.6926 655.5677 199.4257 651.1824 199.0336 644.1153 201.1598 642.1418 204.5859 628.6251 203.1913 619.5389 211.3985 612.8894 210.1503 601.2149 210.5607 591.2538 208.5468 584.2636 205.0404 579.2574 204.1574 574.3051 213.0651 569.638 216.2613 561.8248 212.3941 556.7346 213.6306 551.6734 207.0226 552.2059 200.71 545.1634 197.5294 537.9994 193.7093 531.1162 193.1743 513.9655 184.5067 514.3399 177.9515 511.4037 177.2242 509.506 169.8641 505.3018 166.7167 508.5279 164.0209 516.5354 143.0538 519.0269 133.2927 Z"/>
<path d="M 479.3286 121.3217 483.2634 119.57 480.8273 111.7598 483.2404 103.3566 487.7405 104.0372 487.1983 108.9521 489.8967 111.1149 499.9226 115.2192 504.5665 114.8701 506.9999 121.171 506.3153 128.0338 513.9982 129.2942 519.0269 133.2927 516.5354 143.0538 508.5279 164.0209 505.3018 166.7167 509.506 169.8641 511.4037 177.2242 514.3399 177.9515 513.9655 184.5067 531.1162 193.1743 537.9994 193.7093 545.1634 197.5294 534.8204 208.4417 531.719 217.8762 525.3868 219.535 522.4289 223.8819 517.0185 220.5841 512.4713 225.6574 513.6554 228.5564 501.6343 232.8528 501.2499 226.4457 497.4988 222.5519 489.0975 225.1985 485.291 220.7638 481.1833 219.8918 473.9304 221.7821 467.7906 221.5634 463.6699 219.4833 459.1848 220.9916 455.3898 215.3816 451.8316 219.0204 446.2962 214.7707 438.2785 223.5376 432.6762 227.4347 426.0327 234.446 417.5694 233.5838 411.9131 241.5752 410.9568 246.7768 400.0975 247.6608 389.423 242.5991 386.0429 244.6391 376.3776 240.8574 373.2542 245.3499 368.6649 245.1072 364.3795 240.9779 350.8606 239.9191 349.6677 236.6052 343.6333 241.8393 341.0101 240.8584 339.835 235.3883 337.1276 234.3544 324.6653 235.3808 318.2843 232.2146 319.94 226.4743 318.0733 224.5073 328.6893 220.049 329.4892 209.153 332.6401 208.2395 327.9426 201.1924 321.1052 200.6849 331.634 194.4513 335.3055 199.406 343.4187 203.3769 346.4603 199.3592 350.2197 201.2742 361.9321 203.039 366.5038 195.93 362.8001 191.3469 369.8057 185.3484 378.0484 187.667 379.6853 191.1716 387.269 195.1605 393.4763 188.6351 400.7428 190.0181 406.563 185.4247 409.3758 178.3859 416.0748 175.7981 419.5561 171.2494 427.7543 171.7243 428.2775 174.5976 433.4702 177.4075 441.5504 170.491 448.8784 170.7958 459.3472 161.8578 464.3423 156.1537 466.6395 149.6427 465.9791 146.3422 469.957 142.7618 470.4149 133.6301 474.788 128.8568 480.3116 127.2684 479.3286 121.3217 Z"/>
<path d="M 669.6387 198.2845 684.1383 193.4465 696.4765 192.9029 703.4389 189.5047 719.211 179.9266 729.3135 172.8932 731.0809 175.8206 747.3005 173.6623 748.1375 181.7087 751.613 184.6598 759.9064 185.0466 758.0315 192.9012 761.0354 199.3549 754.9423 201.0278 751.0819 203.9581 744.7525 204.9328 741.4298 202.9212 730.8015 205.6191 728.1085 209.8746 720.9785 216.7508 713.2946 220.8498 716.9455 223.2993 713.0804 232.5476 713.1856 236.8955 707.8844 242.7596 709.2251 244.6302 700.4563 243.9972 692.5206 247.8843 688.9487 238.6067 675.3573 239.418 672.0023 241.3076 670.9645 248.7777 661.9531 247.7068 657.8617 242.7083 658.1217 238.4788 654.1153 234.5187 654.9887 228.7998 659.2917 222.3795 658.7487 215.7167 656.5883 211.0168 661.3617 201.9493 669.6387 198.2845 Z"/>
<path d="M 709.2251 244.6302 724.6256 244.4208 721.9238 249.4821 727.4211 257.7246 721.2576 257.6166 722.4478 263.4211 719.0791 267.3849 719.8862 271.3008 714.4561 275.6517 719.9875 280.3864 725.5738 282.9573 723.8556 291.858 725.5029 293.8966 724.5809 300.3709 722.0424 305.6959 717.3914 310.5828 711.8815 309.6477 709.3006 314.5504 705.3532 310.2479 696.8831 304.1352 694.3702 297.6267 686.8612 300.0328 680.8353 298.6125 679.1024 293.9746 673.7524 294.5824 657.065 290.4721 658.7293 280.8394 655.4491 274.2358 652.1143 274.9058 639.1881 265.8627 635.0482 264.148 633.066 259.1534 633.5787 253.3477 628.4247 248.5021 627.8945 240.8134 632.9447 235.9467 639.3435 238.371 641.7487 235.2048 650.2623 235.3051 654.8956 239.1239 658.1217 238.4788 657.8617 242.7083 661.9531 247.7068 670.9645 248.7777 672.0023 241.3076 675.3573 239.418 688.9487 238.6067 692.5206 247.8843 700.4563 243.9972 709.2251 244.6302 Z"/>
<path d="M 602.642 109.931 606.8712 108.5268 611.2174 110.1671 612.1532 100.6536 616.5105 98.5596 617.3525 91.9759 622.178 84.1587 626.0488 84.0624 637.5929 78.747 641.1171 81.8255 646.9694 78.6661 653.5317 85.9749 659.203 86.5727 658.3723 90.6822 660.431 95.9835 673.0944 98.1626 678.0219 101.9627 695.222 102.4681 698.2896 107.3696 694.7869 110.8656 695.7789 119.0651 704.8174 114.8678 711.1594 108.4993 713.5847 103.7006 718.7957 103.2496 722.914 99.9607 728.6412 100.6295 730.9288 106.302 731.013 111.4446 727.9422 115.7363 729.6613 119.6734 728.881 126.5006 716.7628 118.6571 703.8178 125.3762 704.5164 128.3351 711.3079 130.2945 717.3704 137.2775 723.2504 141.7002 724.8201 147.9544 721.1243 154.6797 724.7701 163.1607 732.4377 167.4344 729.3135 172.8932 719.211 179.9266 703.4389 189.5047 696.4765 192.9029 684.1383 193.4465 669.6387 198.2845 665.8377 193.984 669.6002 186.9984 674.131 182.9966 672.1436 177.0529 666.1145 180.0132 665.401 182.4628 652.475 187.791 647.6863 186.5894 636.9316 190.4017 634.6403 186.9716 635.4236 175.556 633.6939 171.0637 635.1518 167.92 633.1831 162.5348 634.9195 148.0902 627.6064 140.1122 622.1648 137.4521 619.5036 122.0282 607.9102 120.9728 602.642 109.931 Z"/>
<path d="M 95.3229 58.5652 105.0821 64.6036 111.9581 63.0253 119.6257 58.1383 125.9062 60.2676 138.1679 59.6655 140.9973 57.6603 153.2683 58.9955 151.355 62.7882 153.6171 65.3586 153.625 73.1383 156.9594 74.5606 156.0115 81.4558 161.7278 92.4073 172.2056 98.8279 175.758 102.7916 174.7108 112.9388 171.2513 117.4198 164.631 120.2109 164.4412 125.0735 168.8016 131.9167 173.9712 133.5505 172.9837 141.891 179.2596 149.4382 178.4566 156.8612 184.0474 163.6587 190.3057 166.9431 193.1979 174.0107 189.2007 175.044 188.5747 182.9265 185.0898 188.3437 179.5207 189.2297 174.3957 192.0038 165.8638 189.0918 164.444 194.2784 153.2357 189.5951 153.5972 184.3468 145.325 182.7904 139.0946 178.1103 133.3769 181.9674 128.9843 183.017 124.9916 177.0649 122.914 184.993 118.6798 183.3996 120.8427 178.1192 119.8921 173.8144 114.863 176.3889 112.6405 171.4723 115.7119 168.5042 111.6461 165.4565 107.26 169.4898 108.2884 176.1479 98.321 178.886 93.9599 174.2838 92.1224 180.8656 84.8339 178.2101 71.6378 184.1002 75.9606 173.7914 72.4069 170.5522 66.8551 169.4847 71.2071 167.7786 76.8717 159.9252 75.9546 142.0288 67.1942 137.5935 62.1548 137.5818 58.0401 133.2534 62.5738 128.8671 61.8143 119.3092 66.5601 118.7992 70.7213 112.2232 76.1121 110.7787 84.5456 98.8998 85.1222 91.3287 82.6279 85.1318 85.1343 76.5705 83.4808 73.0348 77.7177 73.625 76.1782 70.4464 81.9357 62.511 90.7493 61.3015 95.3229 58.5652 Z"/>
<path d="M 190.3057 166.9431 193.0973 166.5323 202.4003 155.0325 209.4706 149.3055 218.4587 149.5714 227.2889 144.2191 237.4601 147.1012 242.0364 145.7842 269.5275 145.6679 275.7113 143.3998 286.5565 145.2436 289.8345 142.0944 290.6848 144.0202 284.4651 150.5335 292.9936 158.1967 289.0814 162.921 289.0041 166.46 282.5354 165.5966 281.7141 170.428 289.8534 176.5414 291.5629 180.659 297.5549 183.334 305.3358 184.9251 298.9614 191.2582 299.4127 197.985 303.878 202.1976 303.4893 210.7773 310.3437 216.2614 308.072 223.2204 305.717 227.836 300.7247 224.434 293.3992 225.2881 290.4832 228.0334 287.2983 223.7093 278.7068 224.9112 273.8611 215.7787 265.0151 213.0799 264.9761 208.4118 257.5986 203.7998 248.3492 202.4359 246.0749 197.3725 240.977 199.088 238.2338 193.5981 234.8747 200.3627 231.1942 201.0017 225.4177 194.5619 220.7831 199.7862 213.1597 195.384 209.4412 197.5668 200.4689 191.8141 201.6416 186.2887 194.5297 187.6054 194.6043 192.0376 186.3361 191.2253 185.0898 188.3437 188.5747 182.9265 189.2007 175.044 193.1979 174.0107 190.3057 166.9431 Z"/>
<path d="M 709.1929 5.9797 708.3575 10.183 701.4439 11.2311 697.565 8.909 694.367 11.5223 691.259 18.3561 678.7799 24.1204 674.3772 28.6366 676.8587 32.1033 676.2352 37.7584 668.2686 43.3056 668.7418 46.4598 676.0843 52.64 674.7336 57.7624 676.3054 60.7528 668.2763 65.3462 659.5984 61.5265 652.3258 62.6459 643.2064 58.3878 638.7387 61.2159 637.8072 68.5122 629.717 69.7583 635.3436 77.6705 637.5929 78.747 626.0488 84.0624 622.178 84.1587 617.3525 91.9759 616.5105 98.5596 612.1532 100.6536 611.2174 110.1671 606.8712 108.5268 601.2088 108.0368 598.6312 102.352 602.483 99.1208 601.9256 94.0112 594.7775 87.3734 591.7004 79.9926 590.8913 74.5646 594.4404 69.3721 600.2453 65.1727 609.3466 62.3531 606.7894 58.7834 612.8282 56.4214 610.4527 50.5387 614.0077 40.4982 621.7764 41.4695 630.3264 38.7095 631.2618 34.2122 635.9914 31.0558 646.4397 30.2834 655.044 23.4764 658.1728 23.6668 667.3835 11.8676 677.5296 7.5414 691.1988 7.6001 695.6829 8.1002 697.6567 8.117 699.0149 9.7354 705.6639 5.9027 709.1929 5.9797 Z"/>
</g>
</svg>