<?xml version="1.0"?>
<svg xmlns="http://www.w3.org/2000/svg" version="1.2" baseProfile="tiny" width="800" height="936" viewBox="0 0 800 936" stroke-linecap="round" stroke-linejoin="round">
<g id="28MIE250GC_SIR">
<path d="M 607.9569 366.5298 678.5051 361.8932 746.7249 445.7185 799 463.8566 630.8542 559.1973 621.6498 557.8254 558.1412 511.9844 593.1213 423.9998 607.9569 366.5298 Z"/>
<path d="M 607.9569 366.5298 593.1213 423.9998 516.7229 386.5927 499.2387 450.3932 449.5434 490.4533 416.2673 465.6144 375.0655 409.0009 378.3071 351.7615 413.0874 388.9994 494.3233 292.6343 576.3369 311.638 607.9569 366.5298 Z"/>
<path d="M 494.3233 292.6343 583.3059 228.6779 648.4849 318.2004 762.4349 368.9652 799 463.8566 746.7249 445.7185 678.5051 361.8932 607.9569 366.5298 576.3369 311.638 494.3233 292.6343 Z"/>
<path d="M 252.5522 545.9798 259.2426 546.8375 298.9098 602.5924 354.2374 622.2811 354.2957 666.227 324.9293 658.3335 239.09 756.4873 199.3418 737.5229 129.3084 674.5587 252.5522 545.9798 Z"/>
<path d="M 354.2957 666.227 384.952 700.8209 330.0635 802.8111 286.5787 833.8727 273.431 914.5001 250.6388 934.991 126.6856 862.4566 112.6244 836.24 199.3418 737.5229 239.09 756.4873 324.9293 658.3335 354.2957 666.227 Z"/>
<path d="M 583.3059 228.6779 494.3233 292.6343 413.0874 388.9994 378.3071 351.7615 212.0658 307.8166 161.7221 208.0713 105.6133 176.8934 91.6526 115.0918 109.4843 1 152.333 6.8285 300.966 97.957 346.0107 101.6787 583.3059 228.6779 Z"/>
<path d="M 558.1412 511.9844 621.6498 557.8254 559.0794 614.5301 417.585 599.2958 457.5956 527.1253 489.4564 554.8166 558.1412 511.9844 Z"/>
<path d="M 593.1213 423.9998 558.1412 511.9844 489.4564 554.8166 457.5956 527.1253 449.5434 490.4533 499.2387 450.3932 516.7229 386.5927 593.1213 423.9998 Z"/>
<path d="M 212.0658 307.8166 378.3071 351.7615 375.0655 409.0009 416.2673 465.6144 259.2426 546.8375 252.5522 545.9798 182.3555 486.0433 180.7707 391.3594 226.2069 370.4727 212.0658 307.8166 Z"/>
<path d="M 354.2957 666.227 354.2374 622.2811 417.2646 600.6273 412.7451 665.0274 492.4308 750.6552 420.0871 870.5584 363.1279 912.142 273.431 914.5001 286.5787 833.8727 330.0635 802.8111 384.952 700.8209 354.2957 666.227 Z"/>
<path d="M 417.585 599.2958 559.0794 614.5301 621.6498 557.8254 630.8542 559.1973 546.8706 658.274 492.4308 750.6552 412.7451 665.0274 417.2646 600.6273 417.585 599.2958 Z"/>
<path d="M 259.2426 546.8375 416.2673 465.6144 449.5434 490.4533 457.5956 527.1253 417.585 599.2958 417.2646 600.6273 354.2374 622.2811 298.9098 602.5924 259.2426 546.8375 Z"/>
<path d="M 182.3555 486.0433 252.5522 545.9798 129.3084 674.5587 199.3418 737.5229 112.6244 836.24 113.3009 767.475 1 638.5094 7.8911 546.8132 108.7967 565.0265 189.9422 534.804 182.3555 486.0433 Z"/>
</g>
</svg>