<?xml version="1.0"?>
<svg xmlns="http://www.w3.org/2000/svg" version="1.2" baseProfile="tiny" width="800" height="506" viewBox="0 0 800 506" stroke-linecap="round" stroke-linejoin="round">
<g id="35MIE250GC_SIR">
<path d="M 558.0819 317.6433 570.1996 314.4132 586.8108 313.0847 596.0266 320.2182 585.4477 324.467 576.5121 330.4325 559.4466 327.8788 558.0819 317.6433 Z"/>
<path d="M 436.8216 100.5679 447.7713 104.4677 454.3337 99.5789 472.9276 101.2128 494.4722 113.8522 501.3056 141.8806 519.5478 151.5701 518.3403 158.4791 507.2776 166.9245 516.908 178.7895 496.0354 183.31 490.2746 177.18 468.3702 171.2101 465.3857 166.0654 456.2437 164.8581 442.7468 148.7912 436.1072 122.55 441.5639 113.1627 436.8216 100.5679 Z"/>
<path d="M 216.5236 170.3421 226.603 175.4722 247.4408 174.8975 260.5755 184.6399 247.5601 188.9896 247.0695 211.8896 240.8773 218.2318 229.8872 216.2595 222.6869 209.08 208.3931 203.1381 193.9655 198.3819 214.7413 180.0844 216.5236 170.3421 Z"/>
<path d="M 462.1076 31.6952 459.883 42.2948 449.5203 53.1173 463.7734 59.694 467.7855 68.7365 476.2481 74.179 488.052 83.6533 472.9276 101.2128 454.3337 99.5789 447.7713 104.4677 436.8216 100.5679 429.4474 87.091 422.9668 83.9776 413.4862 88.3992 408.3724 75.2827 416.438 67.8228 409.7947 59.0412 405.9899 42.5628 394.5105 35.4322 399.3645 32.6119 424.4885 30.6215 434.2223 23.8908 443.4716 33.5654 462.1076 31.6952 Z"/>
<path d="M 536.0725 350.6798 541.9152 367.2244 532.7509 368.4696 525.3571 382.0958 501.4016 388.9098 481.92 386.1349 476.787 393.3642 457.2491 392.8781 437.9192 375.0108 434.2503 368.4335 448.2983 359.9657 466.7074 359.3886 479.2509 356.1703 491.1796 360.0704 502.3631 348.1799 525.8637 347.6231 536.0725 350.6798 Z"/>
<path d="M 380.4361 277.628 390.7356 263.9742 398.0155 260.5476 394.6751 249.7545 402.2998 254.284 412.714 249.9704 422.8001 257.7388 429.3655 255.9342 450.1586 266.2264 450.1171 275.8566 459.2656 281.0624 458.4268 292.9258 449.2045 300.1911 438.2974 299.4474 431.1785 316.9552 419.6224 318.4064 408.5618 315.2279 410.4784 299.5164 397.2069 295.1175 394.6718 288.5803 381.2324 288.3213 380.4361 277.628 Z"/>
<path d="M 231.8459 64.0074 253.8095 63.8583 261.2884 67.5025 264.153 77.364 257.3375 99.4444 248.3933 102.243 230.776 90.6856 217.6817 90.2216 199.8333 81.0418 202.6475 69.5904 231.8459 64.0074 Z"/>
<path d="M 610.1562 308.4687 624.6901 319.52 610.3222 330.1788 598.902 334.5381 582.2784 333.0998 585.4477 324.467 596.0266 320.2182 610.1562 308.4687 Z"/>
<path d="M 381.3539 85.9184 387.9566 93.8447 381.9666 104.7922 390.4349 111.8574 382.7952 119.7023 390.142 130.9044 384.8012 148.8009 371.6106 144.2697 369.4351 137.2583 348.7193 127.46 353.4529 97.9816 367.1868 98.9421 381.3539 85.9184 Z"/>
<path d="M 429.3655 255.9342 431.7736 248.2431 447.4106 247.5492 458.9037 239.5668 465.9445 240.1291 482.6428 249.3662 490.7416 250.1948 499.0872 266.6819 495.9491 275.9019 507.5305 282.8522 504.7163 300.7557 488.531 300.5345 486.5137 308.9425 468.7586 299.2298 474.9698 291.416 459.2656 281.0624 450.1171 275.8566 450.1586 266.2264 429.3655 255.9342 Z"/>
<path d="M 231.0907 1 233.0712 18.7601 225.2121 26.4281 229.9773 38.0191 228.6685 47.4658 231.8459 64.0074 202.6475 69.5904 184.7759 69.9962 182.9622 60.1471 171.8353 45.6588 184.5187 23.6264 201.2956 14.6545 212.644 11.9342 219.8923 3.7258 231.0907 1 Z"/>
<path d="M 608.6919 361.2713 594.3606 366.2504 575.0965 382.1867 560.9002 376.4493 560.8209 346.6907 565.1384 339.4689 559.4466 327.8788 576.5121 330.4325 585.4477 324.467 582.2784 333.0998 598.902 334.5381 600.2236 349.8676 608.6919 361.2713 Z"/>
<path d="M 334.4152 166.569 343.2951 171.4486 371.0719 189.2667 372.3335 192.7455 375.2084 209.2531 359.2725 225.9374 370.5831 231.7879 375.1481 244.9602 383.9728 251.7002 394.6751 249.7545 398.0155 260.5476 390.7356 263.9742 380.4361 277.628 362.7614 275.4145 352.6791 262.2887 342.0079 269.9204 328.5918 271.4896 331.8654 261.4027 316.7265 247.544 305.5043 257.6103 295.9827 254.3919 292.7724 246.4587 305.7478 243.6108 323.8748 229.0996 314.8738 214.9208 295.6045 203.5566 303.0304 188.5333 313.2057 188.2074 325.1198 179.1925 334.4152 166.569 Z"/>
<path d="M 493.6725 214.8229 491.1362 209.2278 525.5799 210.1131 522.616 224.4105 536.4808 230.8976 522.915 252.7267 517.0526 263.8359 499.0872 266.6819 490.7416 250.1948 491.1927 243.7306 501.6599 229.34 493.6725 214.8229 Z"/>
<path d="M 525.5799 210.1131 534.3525 207.2744 549.1309 214.4257 554.7554 211.4171 552.4817 223.4085 568.4634 228.9137 578.1353 240.8511 562.1567 249.8683 549.7045 262.8688 539.0709 252.7539 531.8585 256.6461 522.915 252.7267 536.4808 230.8976 522.616 224.4105 525.5799 210.1131 Z"/>
<path d="M 688.1242 260.2972 684.6133 264.7261 671.8706 271.4409 663.2369 285.0831 647.6224 295.7206 645.5334 279.9935 659.9258 270.9528 657.1236 260.7934 688.1242 260.2972 Z"/>
<path d="M 499.0872 266.6819 517.0526 263.8359 522.915 252.7267 531.8585 256.6461 539.0709 252.7539 549.7045 262.8688 558.1655 277.4524 550.1125 289.3123 551.0349 295.7511 530.4363 300.7413 533.2371 312.0539 504.7163 300.7557 507.5305 282.8522 495.9491 275.9019 499.0872 266.6819 Z"/>
<path d="M 486.5137 308.9425 488.531 300.5345 504.7163 300.7557 533.2371 312.0539 547.1361 321.1686 539.5969 323.5026 544.1958 339.4822 540.8997 344.1814 536.0725 350.6798 525.8637 347.6231 502.3631 348.1799 491.1796 360.0704 479.2509 356.1703 466.7074 359.3886 460.9476 346.5427 470.2205 344.6738 470.4438 335.8059 476.7014 321.808 485.9982 324.9459 486.5137 308.9425 Z"/>
<path d="M 578.1353 240.8511 592.8737 248.4346 598.3228 261.1376 592.9275 266.98 599.9996 275.359 581.1761 278.1265 574.1001 270.7064 558.1655 277.4524 549.7045 262.8688 562.1567 249.8683 578.1353 240.8511 Z"/>
<path d="M 394.5105 35.4322 405.9899 42.5628 409.7947 59.0412 416.438 67.8228 408.3724 75.2827 413.4862 88.3992 397.903 95.7628 387.9566 93.8447 381.3539 85.9184 372.8501 59.8376 372.7943 45.2233 378.6675 34.9391 394.5105 35.4322 Z"/>
<path d="M 171.8353 45.6588 182.9622 60.1471 184.7759 69.9962 202.6475 69.5904 199.8333 81.0418 192.3888 100.3032 176.9596 117.0216 161.3446 141.6886 151.9915 137.2097 122.0817 126.0395 111.8738 115.3813 125.3375 105.7337 124.3146 88.59 127.9996 78.5524 136.4931 71.7133 150.7371 52.4018 171.8353 45.6588 Z"/>
<path d="M 136.8342 174.7308 144.0688 169.6398 151.9915 137.2097 161.3446 141.6886 188.5209 150.6697 193.6515 158.3519 202.2072 160.0076 216.5236 170.3421 214.7413 180.0844 193.9655 198.3819 136.8342 174.7308 Z"/>
<path d="M 558.1655 277.4524 574.1001 270.7064 581.1761 278.1265 599.9996 275.359 602.6484 282.9945 621.0931 279.6909 629.2838 282.2978 610.1562 308.4687 596.0266 320.2182 586.8108 313.0847 570.1996 314.4132 551.0349 295.7511 550.1125 289.3123 558.1655 277.4524 Z"/>
<path d="M 287.3804 135.6219 305.756 142.8092 318.7718 156.2855 332.8729 161.3111 334.4152 166.569 325.1198 179.1925 313.2057 188.2074 303.0304 188.5333 295.6045 203.5566 271.1488 194.4266 260.5755 184.6399 247.4408 174.8975 261.7251 173.3674 265.6967 164.4336 279.7706 161.1684 287.3804 135.6219 Z"/>
<path d="M 431.7736 248.2431 430.8445 232.6833 424.587 219.1574 435.1073 214.5741 443.278 217.4859 457.7246 211.2359 472.1177 214.3779 479.4987 220.2421 493.6725 214.8229 501.6599 229.34 491.1927 243.7306 490.7416 250.1948 482.6428 249.3662 465.9445 240.1291 458.9037 239.5668 447.4106 247.5492 431.7736 248.2431 Z"/>
<path d="M 283.8492 73.7433 298.8092 64.3527 306.5071 49.4654 305.5359 36.7536 312.8315 22.4238 307.1298 13.094 321.5457 18.3467 335.6771 16.7629 335.5226 35.439 342.2099 47.9422 351.5134 45.0668 356.4807 34.3238 365.1127 39.1207 365.9259 56.7841 372.8501 59.8376 381.3539 85.9184 367.1868 98.9421 353.4529 97.9816 348.7193 127.46 342.0633 122.0158 317.1528 129.3746 305.756 142.8092 287.3804 135.6219 269.7109 129.8199 258.8342 123.3388 269.1779 108.8044 274.37 102.6962 305.5892 107.3228 311.6613 94.6594 298.4918 77.908 283.8492 73.7433 Z"/>
<path d="M 757.7996 283.0162 748.353 273.6304 732.3959 281.2671 730.8884 260.471 748.4809 253.204 752.493 248.3405 756.519 255.4074 778.0239 255.3615 798.0582 258.8159 799 264.6764 790.5234 276.1527 770.9209 277.7205 757.7996 283.0162 Z"/>
<path d="M 308.5007 333.0511 319.5023 340.5243 330.486 339.0825 333.8944 327.8426 343.3111 329.3688 351.9489 342.2717 350.58 356.8555 364.5435 347.9877 397.8918 344.2235 407.1882 341.2337 421.4457 366.7722 403.1254 376.1363 400.9839 388.9205 392.1427 395.2503 379.2355 393.6642 364.3021 410.2489 354.1469 410.8407 339.6593 418.6687 325.6242 391.708 307.637 367.6298 312.9199 355.2768 306.4309 346.8758 308.5007 333.0511 Z"/>
<path d="M 496.0354 183.31 516.908 178.7895 526.5654 182.2348 525.8382 193.4546 533.7515 198.9905 548.7734 199.1607 554.7554 211.4171 549.1309 214.4257 534.3525 207.2744 525.5799 210.1131 491.1362 209.2278 497.1472 195.3896 496.0354 183.31 Z"/>
<path d="M 734.9062 309.945 743.5171 318.6617 719.4223 329.2964 702.2093 345.3037 687.5251 348.0286 688.4597 364.6912 648.1174 360.1762 652.3083 353.3738 660.7649 349.2032 671.7972 350.0795 684.5271 341.6325 708.4034 331.3098 713.6759 323.7056 734.9062 309.945 Z"/>
<path d="M 525.3571 382.0958 531.9419 382.8303 519.2587 392.4404 517.4936 407.1604 522.2463 416.0889 532.5178 415.027 536.3941 422.5721 521.2827 433.9448 492.7058 450.5781 467.2148 470.3542 459.9048 486.985 442.7923 495.1555 433.4733 479.403 415.7663 470.6974 405.0638 481.5867 401.7045 469.9619 404.3474 447.7108 416.634 433.703 421.2231 423.5659 421.0098 411.5841 457.2491 392.8781 476.787 393.3642 481.92 386.1349 501.4016 388.9098 525.3571 382.0958 Z"/>
<path d="M 328.5918 271.4896 342.0079 269.9204 352.6791 262.2887 362.7614 275.4145 380.4361 277.628 381.2324 288.3213 394.6718 288.5803 397.2069 295.1175 410.4784 299.5164 408.5618 315.2279 396.228 323.8399 393.9621 330.3976 397.8918 344.2235 364.5435 347.9877 350.58 356.8555 351.9489 342.2717 343.3111 329.3688 344.6734 317.4849 340.6027 310.3594 342.5044 294.913 328.3895 278.7364 328.5918 271.4896 Z"/>
<path d="M 531.9419 382.8303 545.3731 387.852 560.9002 376.4493 575.0965 382.1867 579.1354 390.1931 560.1392 400.2626 543.2152 412.5504 536.3941 422.5721 532.5178 415.027 522.2463 416.0889 517.4936 407.1604 519.2587 392.4404 531.9419 382.8303 Z"/>
<path d="M 629.2838 282.2978 645.5334 279.9935 647.6224 295.7206 663.2369 285.0831 671.8706 271.4409 684.6133 264.7261 693.8229 276.1237 697.6881 294.063 684.0035 311.2952 677.0681 307.5573 654.0639 315.493 651.2282 320.9287 652.9651 336.1844 642.5415 337.3083 624.6901 319.52 610.1562 308.4687 629.2838 282.2978 Z"/>
<path d="M 598.902 334.5381 610.3222 330.1788 624.6901 319.52 642.5415 337.3083 652.9651 336.1844 660.7649 349.2032 652.3083 353.3738 647.9002 349.8308 625.2206 357.9692 608.6919 361.2713 600.2236 349.8676 598.902 334.5381 Z"/>
<path d="M 516.908 178.7895 507.2776 166.9245 518.3403 158.4791 519.5478 151.5701 527.6031 139.6273 539.4393 134.9349 553.0866 148.3416 559.9587 143.8948 575.203 146.181 586.9294 151.3564 588.5821 160.4722 582.8078 172.13 571.3833 186.4433 575.7369 199.0722 571.888 204.5703 578.4302 214.7733 568.4634 228.9137 552.4817 223.4085 554.7554 211.4171 548.7734 199.1607 533.7515 198.9905 525.8382 193.4546 526.5654 182.2348 516.908 178.7895 Z"/>
<path d="M 372.3335 192.7455 387.2977 191.3296 403.7913 204.3097 412.7826 206.8972 424.587 219.1574 430.8445 232.6833 431.7736 248.2431 429.3655 255.9342 422.8001 257.7388 412.714 249.9704 402.2998 254.284 394.6751 249.7545 383.9728 251.7002 375.1481 244.9602 370.5831 231.7879 359.2725 225.9374 375.2084 209.2531 372.3335 192.7455 Z"/>
<path d="M 697.6881 294.063 714.2776 292.3034 721.3621 284.6578 732.3959 281.2671 748.353 273.6304 757.7996 283.0162 743.1122 289.9752 740.1717 306.3256 734.9062 309.945 713.6759 323.7056 708.4034 331.3098 684.5271 341.6325 671.7972 350.0795 660.7649 349.2032 652.9651 336.1844 651.2282 320.9287 654.0639 315.493 677.0681 307.5573 684.0035 311.2952 697.6881 294.063 Z"/>
<path d="M 94.7155 155.3672 102.1054 163.3358 114.2602 164.3154 136.8342 174.7308 193.9655 198.3819 208.3931 203.1381 207.3523 223.7664 194.6257 249.1058 195.6403 257.0676 185.1381 258.4362 184.1693 250.4048 176.005 244.0262 157.3845 250.6518 154.7613 262.0901 140.7547 260.4844 131.1265 264.2307 102.7237 257.9946 96.6786 252.4899 79.7605 248.2018 77.1313 259.4869 71.1722 262.2735 38.0062 252.3772 28.2616 257.8852 3.3651 252.774 1 245.7836 47.1964 220.8278 57.1883 210.833 62.4511 198.6663 81.9139 178.2225 86.8213 168.9117 82.0492 160.9315 94.7155 155.3672 Z"/>
<path d="M 248.3933 102.243 257.3375 99.4444 269.1779 108.8044 258.8342 123.3388 269.7109 129.8199 287.3804 135.6219 279.7706 161.1684 265.6967 164.4336 261.7251 173.3674 247.4408 174.8975 226.603 175.4722 216.5236 170.3421 202.2072 160.0076 222.5901 151.3149 235.6608 131.7882 240.8053 114.6264 248.3933 102.243 Z"/>
<path d="M 493.772 19.7673 501.5412 17.2371 506.5318 27.5827 519.7662 34.7924 521.8169 42.356 516.4721 51.839 517.1229 61.0729 529.4657 67.3128 534.6256 78.5551 528.1343 83.9404 522.8788 97.7796 508.146 94.5513 496.9401 85.8898 488.052 83.6533 476.2481 74.179 487.8058 63.8874 485.2498 45.9939 496.4486 30.0181 493.772 19.7673 Z"/>
<path d="M 536.0725 350.6798 540.8997 344.1814 554.5833 342.8168 560.8209 346.6907 560.9002 376.4493 545.3731 387.852 531.9419 382.8303 525.3571 382.0958 532.7509 368.4696 541.9152 367.2244 536.0725 350.6798 Z"/>
<path d="M 161.3446 141.6886 176.9596 117.0216 192.3888 100.3032 199.8333 81.0418 217.6817 90.2216 230.776 90.6856 248.3933 102.243 240.8053 114.6264 235.6608 131.7882 222.5901 151.3149 202.2072 160.0076 193.6515 158.3519 188.5209 150.6697 161.3446 141.6886 Z"/>
<path d="M 343.2951 171.4486 354.6079 153.0294 360.833 154.3702 371.6106 144.2697 384.8012 148.8009 393.7952 159.9603 411.0534 155.2841 433.1579 153.3334 442.7468 148.7912 456.2437 164.8581 465.3857 166.0654 456.9253 176.8726 454.9496 189.4155 437.9621 198.6831 430.7495 191.5574 421.5226 205.432 412.7826 206.8972 403.7913 204.3097 387.2977 191.3296 372.3335 192.7455 371.0719 189.2667 343.2951 171.4486 Z"/>
<path d="M 348.7193 127.46 369.4351 137.2583 371.6106 144.2697 360.833 154.3702 354.6079 153.0294 343.2951 171.4486 334.4152 166.569 332.8729 161.3111 318.7718 156.2855 305.756 142.8092 317.1528 129.3746 342.0633 122.0158 348.7193 127.46 Z"/>
<path d="M 608.6919 361.2713 625.2206 357.9692 647.9002 349.8308 652.3083 353.3738 648.1174 360.1762 622.2555 367.943 615.9835 381.5696 599.1603 379.4956 579.1354 390.1931 575.0965 382.1867 594.3606 366.2504 608.6919 361.2713 Z"/>
<path d="M 283.8492 73.7433 298.4918 77.908 311.6613 94.6594 305.5892 107.3228 274.37 102.6962 269.1779 108.8044 257.3375 99.4444 264.153 77.364 261.2884 67.5025 283.8492 73.7433 Z"/>
<path d="M 413.4862 88.3992 422.9668 83.9776 429.4474 87.091 436.8216 100.5679 441.5639 113.1627 436.1072 122.55 442.7468 148.7912 433.1579 153.3334 411.0534 155.2841 393.7952 159.9603 384.8012 148.8009 390.142 130.9044 382.7952 119.7023 390.4349 111.8574 381.9666 104.7922 387.9566 93.8447 397.903 95.7628 413.4862 88.3992 Z"/>
<path d="M 307.1298 13.094 312.8315 22.4238 305.5359 36.7536 306.5071 49.4654 298.8092 64.3527 283.8492 73.7433 261.2884 67.5025 253.8095 63.8583 263.8162 54.2113 270.0993 32.6198 268.1642 12.773 282.2524 15.3847 307.1298 13.094 Z"/>
<path d="M 431.1785 316.9552 438.5311 315.1802 449.1255 330.7705 457.5091 328.5544 470.4438 335.8059 470.2205 344.6738 460.9476 346.5427 466.7074 359.3886 448.2983 359.9657 434.2503 368.4335 421.4457 366.7722 407.1882 341.2337 397.8918 344.2235 393.9621 330.3976 396.228 323.8399 408.5618 315.2279 419.6224 318.4064 431.1785 316.9552 Z"/>
<path d="M 459.2656 281.0624 474.9698 291.416 468.7586 299.2298 486.5137 308.9425 485.9982 324.9459 476.7014 321.808 470.4438 335.8059 457.5091 328.5544 449.1255 330.7705 438.5311 315.1802 431.1785 316.9552 438.2974 299.4474 449.2045 300.1911 458.4268 292.9258 459.2656 281.0624 Z"/>
<path d="M 208.3931 203.1381 222.6869 209.08 229.8872 216.2595 240.8773 218.2318 244.6909 220.1546 240.5057 244.4987 251.8636 248.8333 264.2057 245.5442 282.296 248.7034 282.0204 260.4533 274.5415 263.3867 267.3765 283.07 255.4184 287.4548 225.9446 286.608 212.1519 282.1797 207.9658 287.404 191.1919 273.0132 170.1593 269.9108 154.7613 262.0901 157.3845 250.6518 176.005 244.0262 184.1693 250.4048 185.1381 258.4362 195.6403 257.0676 194.6257 249.1058 207.3523 223.7664 208.3931 203.1381 Z"/>
<path d="M 547.1361 321.1686 558.0819 317.6433 559.4466 327.8788 565.1384 339.4689 560.8209 346.6907 554.5833 342.8168 540.8997 344.1814 544.1958 339.4822 539.5969 323.5026 547.1361 321.1686 Z"/>
<path d="M 424.587 219.1574 412.7826 206.8972 421.5226 205.432 430.7495 191.5574 437.9621 198.6831 454.9496 189.4155 456.9253 176.8726 465.3857 166.0654 468.3702 171.2101 490.2746 177.18 496.0354 183.31 497.1472 195.3896 491.1362 209.2278 493.6725 214.8229 479.4987 220.2421 472.1177 214.3779 457.7246 211.2359 443.278 217.4859 435.1073 214.5741 424.587 219.1574 Z"/>
<path d="M 493.772 19.7673 496.4486 30.0181 485.2498 45.9939 487.8058 63.8874 476.2481 74.179 467.7855 68.7365 463.7734 59.694 449.5203 53.1173 459.883 42.2948 462.1076 31.6952 465.693 19.6923 477.0932 19.2391 485.5957 24.6006 493.772 19.7673 Z"/>
<path d="M 472.9276 101.2128 488.052 83.6533 496.9401 85.8898 508.146 94.5513 522.8788 97.7796 530.4404 109.1657 532.2572 125.9422 539.4393 134.9349 527.6031 139.6273 519.5478 151.5701 501.3056 141.8806 494.4722 113.8522 472.9276 101.2128 Z"/>
<path d="M 752.493 248.3405 748.4809 253.204 730.8884 260.471 732.3959 281.2671 721.3621 284.6578 714.2776 292.3034 697.6881 294.063 693.8229 276.1237 684.6133 264.7261 688.1242 260.2972 719.3269 243.733 742.8579 238.1591 752.493 248.3405 Z"/>
<path d="M 240.8773 218.2318 247.0695 211.8896 247.5601 188.9896 260.5755 184.6399 271.1488 194.4266 295.6045 203.5566 314.8738 214.9208 323.8748 229.0996 305.7478 243.6108 292.7724 246.4587 282.296 248.7034 264.2057 245.5442 251.8636 248.8333 240.5057 244.4987 244.6909 220.1546 240.8773 218.2318 Z"/>
<path d="M 231.0907 1 240.2557 8.087 263.3615 9.0705 268.1642 12.773 270.0993 32.6198 263.8162 54.2113 253.8095 63.8583 231.8459 64.0074 228.6685 47.4658 229.9773 38.0191 225.2121 26.4281 233.0712 18.7601 231.0907 1 Z"/>
<path d="M 282.296 248.7034 292.7724 246.4587 295.9827 254.3919 305.5043 257.6103 316.7265 247.544 331.8654 261.4027 328.5918 271.4896 328.3895 278.7364 342.5044 294.913 340.6027 310.3594 344.6734 317.4849 343.3111 329.3688 333.8944 327.8426 330.486 339.0825 319.5023 340.5243 308.5007 333.0511 301.2991 307.4338 280.1486 296.2367 273.406 282.3457 267.3765 283.07 274.5415 263.3867 282.0204 260.4533 282.296 248.7034 Z"/>
<path d="M 111.8738 115.3813 122.0817 126.0395 151.9915 137.2097 144.0688 169.6398 136.8342 174.7308 114.2602 164.3154 102.1054 163.3358 94.7155 155.3672 104.9978 134.87 102.2425 124.1543 111.8738 115.3813 Z"/>
<path d="M 551.0349 295.7511 570.1996 314.4132 558.0819 317.6433 547.1361 321.1686 533.2371 312.0539 530.4363 300.7413 551.0349 295.7511 Z"/>
<path d="M 421.4457 366.7722 434.2503 368.4335 437.9192 375.0108 457.2491 392.8781 421.0098 411.5841 421.2231 423.5659 416.634 433.703 404.3474 447.7108 397.251 442.5086 382.7372 444.9515 361.6509 441.2153 352.4915 444.2882 334.3679 442.0438 339.6593 418.6687 354.1469 410.8407 364.3021 410.2489 379.2355 393.6642 392.1427 395.2503 400.9839 388.9205 403.1254 376.1363 421.4457 366.7722 Z"/>
</g>
</svg>