<?xml version="1.0"?>
<svg xmlns="http://www.w3.org/2000/svg" version="1.2" baseProfile="tiny" width="800" height="1360" viewBox="0 0 800 1360" stroke-linecap="round" stroke-linejoin="round">
<g id="17MIE250GC_SIR">
<path d="M 441.2325 570.8592 437.11 489.3706 532.4999 368.1129 622.1125 464.0261 699.5719 445.4707 622.8251 641.4271 704.8938 713.3888 726.5862 814.9645 799 842.5772 698.8305 1014.5739 587.1073 968.4956 509.5082 962.9916 474.0053 723.3738 540.5522 604.8444 441.2325 570.8592 Z"/>
<path d="M 265.5472 437.5692 324.1115 446.7995 350.8896 516.477 437.11 489.3706 441.2325 570.8592 401.0189 690.5626 406.5282 805.5491 349.6732 817.4578 275.2958 827.0134 226.3535 795.1354 130.2615 778.3429 130.1431 671.5648 245.8124 527.3547 265.5472 437.5692 Z"/>
<path d="M 399.6307 183.0001 494.2553 277.8137 541.8899 291.5391 532.4999 368.1129 437.11 489.3706 350.8896 516.477 324.1115 446.7995 265.5472 437.5692 229.7749 377.757 258.3134 281.0262 352.7645 232.6682 399.6307 183.0001 Z"/>
<path d="M 386.3281 1015.9473 495.1252 1007.8307 509.5082 962.9916 587.1073 968.4956 698.8305 1014.5739 742.7556 1098.9702 759.3558 1213.4724 751.0784 1301.5499 674.8501 1304.8254 562.1086 1355.8434 438.3625 1335.801 417.7749 1263.5445 443.5272 1155.5015 405.8095 1126.8692 386.3281 1015.9473 Z"/>
<path d="M 329.5865 936.7342 386.3281 1015.9473 405.8095 1126.8692 443.5272 1155.5015 417.7749 1263.5445 438.3625 1335.801 388.0879 1358.8077 315.8151 1276.7601 253.5896 1290.4129 193.1646 1208.5935 302.4662 1061.8232 158.4231 970.752 236.7818 927.3224 329.5865 936.7342 Z"/>
<path d="M 441.2325 570.8592 540.5522 604.8444 474.0053 723.3738 509.5082 962.9916 495.1252 1007.8307 386.3281 1015.9473 329.5865 936.7342 349.6732 817.4578 406.5282 805.5491 401.0189 690.5626 441.2325 570.8592 Z"/>
<path d="M 541.8899 291.5391 494.2553 277.8137 399.6307 183.0001 424.2227 111.1361 415.996 46.4098 484.7321 1 547.8844 43.8996 568.4623 170.4662 541.8899 291.5391 Z"/>
<path d="M 130.1431 671.5648 130.2615 778.3429 226.3535 795.1354 275.2958 827.0134 349.6732 817.4578 329.5865 936.7342 236.7818 927.3224 158.4231 970.752 302.4662 1061.8232 193.1646 1208.5935 253.5896 1290.4129 231.2094 1356.5706 134.6698 1302.7538 18.4737 1276.1741 1 1036.0597 42.6535 884.867 130.1431 671.5648 Z"/>
</g>
</svg>