<?xml version="1.0"?>
<svg xmlns="http://www.w3.org/2000/svg" version="1.2" baseProfile="tiny" width="800" height="691" viewBox="0 0 800 691" stroke-linecap="round" stroke-linejoin="round">
<g id="BRUFE250GC_SIR">
<path d="M 637.0855 261.7779 644.7156 265.7345 652.1254 268.6021 658.1153 274.2267 662.509 276.1841 665.5083 279.1475 657.1745 283.7636 654.1972 287.3393 648.797 295.8667 642.7751 298.009 637.7115 294.9502 635.8193 289.3968 633.1495 286.5772 633.4152 283.0415 637.3059 283.7438 640.4347 282.5785 640.0811 277.0475 641.833 276.2422 640.2421 270.5342 637.896 269.8478 636.6449 266.3952 637.0855 261.7779 Z"/>
<path d="M 569.472 142.2515 570.0048 145.9358 566.3907 150.8089 564.346 151.1846 562.6472 154.2644 557.0283 155.2557 554.4041 158.5269 553.5501 162.6403 548.8985 168.3718 551.3474 172.7043 549.5105 176.4268 552.1922 184.5769 551.8093 188.0328 546.9537 193.0673 547.4216 200.6517 551.4134 204.6032 550.1263 211.4626 548.665 212.9709 544.9836 213.1043 540.6512 214.582 537.4315 212.3337 534.7192 212.029 528.9634 213.8588 526.1289 218.6222 521.0516 221.308 518.8516 224.2721 507.3232 227.5568 503.775 232.588 503.0482 237.7412 501.609 239.4905 498.4764 247.6325 495.7464 251.3749 497.2904 257.8644 499.2211 260.0485 497.7937 272.3066 496.5959 274.9288 495.1453 273.4841 489.901 273.5958 487.7711 271.7245 486.5743 266.7741 484.2479 265.7629 485.5062 261.1188 481.164 258.0354 480.4147 255.2583 476.9372 253.6051 479.406 250.1391 481.9044 241.4977 486.0295 240.622 487.3998 236.2255 484.9505 233.1448 476.8628 235.0822 472.0191 228.5612 469.1713 225.7951 469.1183 222.4915 466.278 219.9712 468.2604 217.6281 469.1386 211.4789 471.261 204.431 470.0376 199.5372 469.1124 191.2159 462.5186 186.7366 457.1439 186.513 453.8344 184.8975 451.0831 185.3177 449.5501 187.8711 446.9144 188.0951 463.5227 175.1049 467.6365 173.4818 471.3695 168.5652 472.3217 165.0744 476.4512 161.6964 477.3283 156.6812 481.2328 152.0538 484.1942 146.0108 484.6393 140.2648 488.0411 138.3524 487.9858 134.1756 490.6347 131.5882 493.282 121.461 492.5301 119.6139 493.804 114.7425 500.2012 113.6571 502.944 115.9462 509.8303 119.8091 517.6095 121.6426 521.9517 126.8956 522.2126 129.7303 524.6897 134.8156 521.5216 138.4923 519.0421 144.9926 522.2451 147.0149 525.633 137.4802 530.4581 136.0435 532.2366 138.7911 535.8522 135.6931 537.666 137.8867 540.631 137.3938 541.5365 134.7916 544.5081 135.2017 556.4424 140.8569 559.9426 141.5118 565.1342 141.0094 569.472 142.2515 Z"/>
<path d="M 597.8364 411.5076 607.6445 417.8178 606.5762 421.0208 606.3184 428.4107 607.2689 434.9346 605.1155 441.0311 602.3338 442.3794 598.949 447.594 598.2575 451.0503 595.4006 456.3698 591.4601 461.3934 588.6887 462.1843 584.7709 470.2418 582.498 468.7994 576.3835 468.731 571.0651 466.7305 570.9959 461.6879 568.6101 460.7758 569.698 458.783 570.697 450.8874 576.8099 450.8963 578.7605 446.1058 580.7898 445.3062 581.102 441.431 585.0601 437.6944 585.3627 433.2357 582.1273 426.6925 583.6746 419.9417 581.0205 419.6858 583.1634 414.7743 589.3229 412.2736 592.628 409.9866 597.8364 411.5076 Z"/>
<path d="M 188.3805 54.3611 192.3734 55.0439 194.5412 57.8488 199.7447 58.8062 199.762 63.4146 198.4058 65.3364 201.3298 68.0444 204.8183 76.5291 203.1281 81.5406 204.7539 86.7775 204.6412 89.8144 209.3128 99.1839 207.6893 101.4547 207.5778 104.6679 203.7864 107.305 212.3402 113.6773 214.4775 118.163 219.6363 119.0965 219.2481 116.3698 220.7345 112.2704 220.8624 106.8263 222.2332 105.0633 228.9381 102.4352 236.2881 109.069 242.6227 105.2709 240.9469 102.6359 242.6296 98.0874 247.352 88.8215 267.5598 88.8222 268.0194 99.629 270.5699 101.2356 270.9018 105.504 275.7185 109.2632 275.8214 111.6055 280.5143 115.2408 294.835 124.2023 299.6831 125.3655 300.5828 127.4076 306.0134 129.9041 307.9319 132.5749 311.4522 131.9696 311.6605 136.932 301.0768 159.9717 290.7282 181.9325 278.6805 208.018 275.8403 210.5049 275.712 215.6809 280.1968 220.5083 280.974 223.5927 279.8223 228.2751 276.763 233.1948 278.2659 237.3796 275.565 249.1204 257.1969 249.1897 240.5917 249.0713 220.0222 249.1078 217.2149 247.2772 215.1297 250.068 210.4386 249.1606 209.3999 245.5753 206.2674 242.0304 201.0638 239.0326 200.4045 236.6245 197.3209 234.5544 183.9736 234.5661 180.967 240.8748 178.2628 240.839 178.6087 245.1607 174.744 248.1234 174.767 251.6966 171.5544 251.4102 166.8751 252.8367 162.9863 252.4129 161.0078 256.5646 157.06 260.5713 155.2244 257.2258 151.8009 258.1824 150.6876 260.981 146.6761 262.6277 142.4252 259.9761 135.2712 260.2097 133.0454 263.8745 127.5688 267.1375 118.4498 263.1461 115.0704 262.5894 95.0784 253.5425 70.1784 232.2423 42.0429 228.9967 25.4333 227.0573 3.9116 219.2718 6.7195 213.087 11.819 210.1291 14.3222 209.827 16.1634 206.859 13.6628 202.1702 13.8888 200.176 18.2271 194.3673 18.8511 190.1511 21.3686 183.8603 34.0014 176.6697 38.3152 173.3087 42.737 173.6847 48.6599 171.2543 54.9581 170.4939 56.8564 167.4782 61.9366 166.7557 65.8653 167.1693 67.4551 170.036 70.571 170.514 72.2975 168.0608 75.7052 149.481 79.3849 128.8665 81.7918 113.7243 77.8259 106.4326 78.0294 102.5645 70.135 96.7865 70.3803 83.5988 78.1056 82.354 80.3221 80.4721 84.6117 82.8283 86.2731 79.6333 85.0699 75.4387 83.1502 74.1031 73.9034 74.2855 73.9358 63.0471 79.0686 61.7918 82.0305 62.8886 103.7518 62.855 102.2228 59.4041 107.5637 61.1023 110.4268 57.559 113.2495 57.6897 117.3277 53.7925 119.294 60.3061 122.4902 62.838 122.6533 72.8437 126.7431 71.724 136.2662 80.1283 139.2276 80.3153 146.5089 75.8029 149.2303 75.6376 151.5792 81.3594 153.7656 77.0061 156.6692 76.6716 163.0661 70.3038 164.496 71.5776 167.8762 68.0978 170.2 68.8115 176.1204 63.8389 176.1794 59.3335 180.2868 58.6704 188.3805 54.3611 Z"/>
<path d="M 267.5592 71.7684 267.5598 88.8222 247.352 88.8215 242.6296 98.0874 240.9469 102.6359 242.6227 105.2709 236.2881 109.069 228.9381 102.4352 222.2332 105.0633 220.8624 106.8263 220.7345 112.2704 219.2481 116.3698 219.6363 119.0965 214.4775 118.163 212.3402 113.6773 203.7864 107.305 207.5778 104.6679 207.6893 101.4547 209.3128 99.1839 204.6412 89.8144 204.7539 86.7775 203.1281 81.5406 204.8183 76.5291 201.3298 68.0444 198.4058 65.3364 199.762 63.4146 199.7447 58.8062 194.5412 57.8488 192.3734 55.0439 188.3805 54.3611 186.1185 50.397 181.1506 51.1878 176.2306 49.1215 177.3537 44.4614 173.1529 38.4969 173.0301 32.5865 173.9882 30.523 172.1604 28.0467 168.8097 26.5679 162.9385 19.6453 165.164 18.5005 167.3607 20.9374 174.2338 20.4559 177.8302 24.8828 182.5713 23.7183 185.9221 25.4378 188.0054 23.0796 191.3315 23.6396 195.2081 29.6336 198.3181 27.4621 199.6299 22.0282 203.2214 21.8955 204.9066 19.4979 210.0309 21.3354 217.0618 18.2204 220.3978 18.2941 221.12 15.9407 230.9709 13.1158 232.1058 10.0646 234.6951 9.3769 237.692 5.8295 235.6924 1 245.676 1.0688 248.1964 5.2843 247.4889 10.3447 245.2681 13.8381 251.896 14.9582 252.6821 18.6135 256.5783 23.7231 252.1467 29.3683 251.4637 34.1438 249.6606 36.6693 248.3291 41.6561 248.2701 46.1121 250.0143 51.8163 252.9869 53.929 252.5152 60.7287 256.2738 63.1263 261.231 68.9286 267.1515 70.1963 267.5592 71.7684 Z"/>
<path d="M 493.6243 321.9655 490.8102 323.6821 489.8057 327.8891 491.854 330.5051 491.118 335.6907 491.1376 342.9602 496.3486 346.2681 494.9809 356.5751 490.5716 357.5212 487.2457 353.5776 485.767 355.6465 486.2569 358.8855 484.5831 360.3754 480.4893 358.9737 479.2378 363.3041 480.8607 364.5677 478.9113 368.756 480.5249 369.7282 481.0558 374.4581 475.2815 375.3295 472.475 377.121 471.4107 376.501 472.2601 369.3775 470.5577 367.6679 456.7333 367.6761 455.3572 377.3566 472.5016 377.3633 472.2547 380.5708 469.8208 385.4132 473.6124 388.8777 475.47 394.4733 471.7944 397.2836 468.5251 401.1429 469.8326 403.6776 473.2307 404.9113 471.399 408.8039 472.2493 413.0866 467.9061 415.5967 467.1581 417.396 460.9395 420.6281 455.3896 417.6907 454.5345 418.6069 445.5536 417.9761 443.702 417.2699 435.3563 423.2589 432.9902 421.1826 428.7225 423.1975 424.5415 422.4551 419.3339 424.2483 414.5489 431.9712 413.0962 431.9151 408.3588 437.8096 405.5288 434.9559 399.7721 432.4868 395.5717 431.9807 391.3116 429.4384 383.3945 426.3828 381.6042 424.1414 375.6067 423.9042 372.5004 421.4196 375.1198 417.36 370.0719 417.401 370.5561 412.4549 367.4401 405.2618 368.1351 399.7561 370.8624 395.3061 371.5758 391.7302 374.7132 390.1322 378.8019 385.0758 377.2694 382.9604 379.8086 379.3977 383.7116 377.7246 385.0268 374.5916 391.5971 373.4458 396.4882 361.6627 397.7622 359.9454 405.6684 357.401 407.8418 350.449 407.2468 348.424 410.1935 342.5699 409.769 336.813 411.4717 332.6205 414.1199 329.0559 415.857 320.9549 417.2238 317.1692 421.2659 313.9699 419.4534 320.2009 425.9678 322.6557 436.0477 328.2748 436.3147 325.356 440.0023 320.2343 443.0147 322.6604 444.8816 319.9416 449.6171 324.4641 452.4277 328.5084 457.2127 326.0836 457.5812 328.8414 463.3841 328.9336 465.9488 331.6901 466.5203 325.5507 470.5976 328.1989 477.786 325.9083 482.3692 322.872 489.0982 323.2207 493.6243 321.9655 Z"/>
<path d="M 420.8975 81.1684 417.175 82.8687 415.1161 87.9558 413.0778 90.2102 403.3822 95.5809 399.1121 102.5607 395.1207 107.5272 394.8204 112.2883 393.4413 113.6537 388.5479 114.3 383.6322 113.22 380.4823 108.6349 380.0559 103.637 377.2214 102.2629 377.4207 99.0423 372.1284 92.8925 368.7338 86.7314 369.9642 81.4651 364.5563 77.0454 363.7133 73.4312 361.3068 69.4609 353.7887 66.6732 347.9268 62.4582 340.9741 62.0739 339.9301 57.6517 340.6499 54.5299 338.7195 50.4366 346.4254 54.3961 350.803 54.9454 358.7171 51.4757 363.4671 53.5674 366.1163 51.9689 367.9312 54.6839 372.0462 55.1288 377.8379 51.4938 380.1967 47.807 381.0705 44.2809 390.8201 26.8492 395.6051 21.7804 395.9311 13.7343 398.6152 15.0013 403.3817 20.0815 404.0378 24.1577 405.782 24.7713 405.2757 32.4508 408.019 43.3 411.2706 50.0886 412.836 55.7489 417.4018 61.5669 422.0896 61.4475 426.3004 63.6281 426.9888 66.9511 426.8458 75.5552 423.1743 79.9159 420.8975 81.1684 Z"/>
<path d="M 357.0286 574.0186 362.6681 574.6154 365.095 572.7041 368.6136 574.3881 374.3112 574.0539 384.2196 576.683 387.2874 576.3903 391.2455 579.7306 394.8342 579.5128 398.3317 580.876 408.5539 588.2254 409.7032 591.1977 413.1303 594.7037 417.3124 596.3949 429.3489 597.4638 428.807 599.8605 425.5803 602.3845 425.5555 609.9312 429.9737 612.1727 423.8583 621.4468 419.483 632.0095 411.326 643.7361 403.3013 651.3292 392.5131 658.046 384.3389 665.4598 380.7634 674.8147 375.7835 682.1702 365.2896 690.3208 362.4691 689.339 362.6681 679.8755 370.4978 672.58 361.5045 667.4582 358.6067 660.853 354.7971 658.0955 352.7086 658.2315 346.0779 653.3154 343.7674 649.8635 339.3526 649.6053 332.0363 645.4323 326.2146 638.9603 321.0586 643.0545 318.4403 642.5601 318.9552 639.31 315.4533 634.7967 310.0818 631.1428 303.7319 625.6736 299.7008 625.72 297.4735 629.1447 291.0394 628.5626 298.7524 620.036 304.2321 615.0812 308.3593 608.5332 311.1597 607.8202 313.4711 603.0201 315.3386 602.4379 320.8243 597.2018 322.8187 592.9974 326.4815 591.6187 332.8751 586.2127 336.0232 585.8138 338.1727 582.2954 342.1179 580.3543 347.8291 579.263 355.092 573.7148 357.0286 574.0186 Z"/>
<path d="M 624.4953 228.294 627.6838 222.4313 623.845 217.2394 626.2321 213.6379 625.2272 212.129 627.1945 205.8971 632.1643 208.4422 635.4257 208.5944 639.6395 206.2279 641.7004 202.9491 646.7135 202.1713 650.2947 200.1102 651.9582 202.4342 648.1571 205.698 646.258 212.1652 649.2719 211.7927 651.4234 214.2188 654.7628 212.1601 657.7489 212.5373 661.8421 216.0639 663.6773 205.9416 667.5681 205.0695 668.1005 207.3423 673.5055 208.3266 678.529 207.4824 687.633 209.3825 690.7634 208.2239 692.5887 217.8171 693.864 220.0277 693.1437 226.9977 688.9582 224.3469 685.8086 223.9227 681.4625 225.8228 681.0147 228.6141 674.7801 230.5512 665.54 231.5783 661.4133 234.7407 661.3998 236.9454 655.5349 240.2956 651.997 237.9951 652.1462 235.1477 649.366 233.8169 652.3734 230.4801 651.3299 228.5306 654.3778 224.122 650.689 222.1382 636.4436 230.5261 631.9551 231.8513 631.3655 229.5636 626.3973 230.3733 624.4953 228.294 Z"/>
<path d="M 569.472 142.2515 573.2477 144.7141 578.3745 145.1531 579.5581 148.0939 576.7891 152.5708 578.3503 153.3707 578.0373 158.5858 582.0803 165.1127 581.9749 169.6537 580.0256 175.1999 579.6676 179.6145 582.6329 183.4693 585.3379 184.9557 585.7808 199.9759 587.857 205.0077 587.8374 208.8709 589.208 211.5655 593.3336 212.5684 594.204 217.8932 592.5059 222.9264 589.1175 225.9245 591.9552 231.7697 592.1433 234.355 587.9641 240.3375 584.4614 242.0322 580.3049 246.3745 577.7439 247.4971 574.5058 251.4933 571.1556 253.1629 569.2605 256.9536 560.8041 258.2685 557.6731 261.4219 551.8813 263.621 548.922 259.767 543.6644 260.0976 540.958 257.3757 534.8361 260.7121 533.6275 262.6112 534.8242 266.153 536.948 267.2367 533.9045 275.7009 528.5568 281.6735 525.4566 280.214 514.5493 286.7829 508.9823 284.9032 505.5976 281.2434 506.2531 278.5463 502.6642 272.2656 500.5272 273.1096 496.5959 274.9288 497.7937 272.3066 499.2211 260.0485 497.2904 257.8644 495.7464 251.3749 498.4764 247.6325 501.609 239.4905 503.0482 237.7412 503.775 232.588 507.3232 227.5568 518.8516 224.2721 521.0516 221.308 526.1289 218.6222 528.9634 213.8588 534.7192 212.029 537.4315 212.3337 540.6512 214.582 544.9836 213.1043 548.665 212.9709 550.1263 211.4626 551.4134 204.6032 547.4216 200.6517 546.9537 193.0673 551.8093 188.0328 552.1922 184.5769 549.5105 176.4268 551.3474 172.7043 548.8985 168.3718 553.5501 162.6403 554.4041 158.5269 557.0283 155.2557 562.6472 154.2644 564.346 151.1846 566.3907 150.8089 570.0048 145.9358 569.472 142.2515 Z"/>
<path d="M 369.9741 493.6033 371.8597 491.3261 380.8955 486.4449 387.6861 478.1114 387.7125 474.7294 390.7832 472.9779 391.6622 467.5359 396.1795 463.933 395.9795 460.5797 401.1476 453.5015 405.9858 451.6512 407.2007 448.7387 416.5953 443.3353 418.657 444.8337 426.8714 446.2611 433.4923 445.7129 437.321 446.5307 438.5988 452.6292 445.7297 450.0858 454.6921 449.2413 458.4051 449.8171 466.6444 448.0637 469.7633 446.6234 473.328 450.0571 472.811 455.1975 476.2345 458.6169 473.7125 462.8867 477.7288 472.3287 481.1895 471.3971 486.4649 472.8565 486.7881 474.6396 483.4241 479.7194 484.2757 482.1896 483.0073 488.1849 487.6275 491.8446 489.7284 496.0507 489.5394 498.6044 499.7673 497.4747 500.1945 494.2619 506.0718 494.1294 512.3612 490.925 516.7033 489.7765 519.6358 493.2085 527.7607 493.8752 526.2869 497.2662 522.4528 497.5728 517.0135 499.9698 515.2904 504.2982 518.2101 506.7914 515.0013 506.1982 506.1409 511.3248 506.3237 514.5839 497.4439 513.8274 493.3745 515.2199 492.1477 517.8852 488.8572 517.4796 479.3635 522.7066 477.894 525.211 468.0351 531.383 463.0492 535.2511 461.6194 538.504 458.5713 541.128 456.4495 537.021 450.2357 535.1744 449.3646 529.8046 437.0649 529.7137 439.0265 524.0816 436.3811 521.883 431.8365 515.1587 432.0524 506.7832 430.5968 503.3846 426.4599 501.1945 425.1411 498.4775 421.6228 499.4768 412.3413 499.4669 409.0604 496.6521 402.5184 494.4128 397.3118 494.9343 391.7564 493.7145 387.2649 491.7991 385.585 494.5514 379.0979 492.6158 377.1919 493.6931 372.3223 492.6934 369.9741 493.6033 Z"/>
<path d="M 449.7413 552.9412 451.3547 557.5489 448.4046 563.9011 449.3005 567.3136 449.7738 576.628 453.6637 579.3818 449.733 586.0898 449.6417 589.2405 445.6286 599.456 438.4996 603.4964 429.9737 612.1727 425.5555 609.9312 425.5803 602.3845 428.807 599.8605 429.3489 597.4638 417.3124 596.3949 413.1303 594.7037 409.7032 591.1977 408.5539 588.2254 398.3317 580.876 394.8342 579.5128 391.2455 579.7306 387.2874 576.3903 384.2196 576.683 374.3112 574.0539 368.6136 574.3881 365.095 572.7041 362.6681 574.6154 357.0286 574.0186 359.9206 569.1498 358.8012 566.9264 358.9216 562.2279 360.5332 557.788 366.4497 557.9234 370.1856 560.286 377.4912 559.591 385.4571 561.6129 389.3667 563.3731 403.0324 564.4009 402.8235 559.1866 407.1901 557.4263 409.9175 558.0638 413.8282 554.4512 416.7445 553.8182 421.6569 554.7281 427.2056 553.9442 432.8584 557.4799 439.621 553.3646 449.7413 552.9412 Z"/>
<path d="M 693.1437 226.9977 693.385 233.6665 687.5056 251.1448 680.7397 249.4751 676.9684 251.2031 674.085 250.215 670.2499 251.9206 667.8361 255.6021 661.79 258.6948 656.3575 257.9049 650.4608 255.8348 646.0093 252.125 643.1967 252.5387 641.4707 249.951 637.2559 255.4159 632.9414 258.5016 631.5075 255.1624 627.9497 251.7413 625.9056 252.4337 623.0471 249.0154 620.3066 249.2136 615.1143 247.0811 612.0978 244.5699 607.5476 248.864 603.6624 249.6403 602.3335 253.6094 596.9371 254.1263 595.4655 259.3365 590.747 261.2096 588.5066 260.5189 589.9209 255.9606 587.2478 254.0815 585.4732 249.7577 581.7591 247.4375 577.7439 247.4971 580.3049 246.3745 584.4614 242.0322 587.9641 240.3375 592.1433 234.355 591.9552 231.7697 589.1175 225.9245 592.5059 222.9264 597.1175 222.6181 599.5095 224.0489 606.3445 223.0744 611.3071 225.6285 611.0823 227.4263 616.9395 230.0115 618.5056 231.7852 624.4953 228.294 626.3973 230.3733 631.3655 229.5636 631.9551 231.8513 636.4436 230.5261 650.689 222.1382 654.3778 224.122 651.3299 228.5306 652.3734 230.4801 649.366 233.8169 652.1462 235.1477 651.997 237.9951 655.5349 240.2956 661.3998 236.9454 661.4133 234.7407 665.54 231.5783 674.7801 230.5512 681.0147 228.6141 681.4625 225.8228 685.8086 223.9227 688.9582 224.3469 693.1437 226.9977 Z"/>
<path d="M 568.6101 460.7758 570.9959 461.6879 571.0651 466.7305 576.3835 468.731 582.498 468.7994 584.7709 470.2418 582.797 474.2124 584.5207 481.5601 581.1208 484.6518 574.9061 486.5728 570.4008 489.0422 566.4 493.7913 567.7666 496.2438 565.0873 499.5037 556.1577 499.1016 546.0506 499.4184 538.9982 501.3641 533.3027 498.6158 529.0153 500.7008 523.2455 500.3397 518.913 501.5581 518.2101 506.7914 515.2904 504.2982 517.0135 499.9698 522.4528 497.5728 526.2869 497.2662 527.7607 493.8752 519.6358 493.2085 516.7033 489.7765 523.3577 487.0498 526.8325 487.304 534.9731 483.7711 540.4912 483.89 544.2007 482.8152 547.3714 484.2455 550.8045 481.8826 560.0674 478.023 561.8412 473.4472 562.7098 468.0821 568.6101 460.7758 Z"/>
<path d="M 287.7794 404.1505 288.9765 406.8393 292.5022 409.4171 299.2902 407.8246 303.2792 403.5935 305.7928 399.6473 310.7979 399.9397 314.3271 398.0406 318.5598 398.3529 326.1335 400.9373 327.9163 402.6333 334.2092 405.7116 338.9209 405.2009 340.9364 403.363 345.2629 402.6691 348.7983 405.8696 352.6493 405.1157 358.3422 398.5284 359.8059 398.6516 359.3847 405.8641 356.6958 406.5958 355.1879 409.0276 358.1407 411.8676 370.5561 412.4549 370.0719 417.401 375.1198 417.36 372.5004 421.4196 375.6067 423.9042 381.6042 424.1414 383.3945 426.3828 391.3116 429.4384 395.5717 431.9807 399.7721 432.4868 405.5288 434.9559 408.3588 437.8096 406.394 442.5517 407.2007 448.7387 405.9858 451.6512 401.1476 453.5015 395.9795 460.5797 396.1795 463.933 391.6622 467.5359 390.7832 472.9779 387.7125 474.7294 387.6861 478.1114 380.8955 486.4449 371.8597 491.3261 369.9741 493.6033 361.0909 499.4296 360.575 502.5018 358.1099 506.9291 354.3705 508.5435 352.3473 517.128 349.252 519.0787 346.3624 516.2845 342.3207 514.7442 335.3575 517.8589 330.2813 517.8635 327.0782 511.3948 326.6274 505.8852 324.6828 497.6808 325.4026 493.7152 323.6606 492.3626 321.5474 487.6813 315.0121 487.4819 311.8317 484.0182 303.8453 487.9279 301.1436 486.5388 295.3282 486.8298 283.5391 484.2031 285.4634 477.1035 284.097 473.9349 285.9675 470.5204 284.925 459.0925 283.1659 457.9876 280.7565 449.9114 285.9071 446.723 281.0666 442.957 287.2107 430.1409 287.525 427.7599 291.2189 416.1051 288.3388 408.8093 287.7794 404.1505 Z"/>
<path d="M 235.4777 335.6749 241.1624 331.4599 242.9938 324.9182 246.6243 321.3153 247.5117 316.6711 248.9494 316.3297 251.6859 311.8462 250.0258 310.0652 248.3031 304.2237 246.8583 303.7993 246.3581 297.9982 249.1836 295.5365 248.1116 290.6643 241.0981 289.7019 239.8866 287.8636 220.9605 287.6719 221.8532 284.2879 222.1685 277.7827 219.7021 273.0104 221.3527 267.8986 221.3504 262.2278 219.2309 258.888 221.0529 256.9639 220.5065 254.3028 222.0372 251.2555 220.0222 249.1078 240.5917 249.0713 257.1969 249.1897 275.565 249.1204 278.2659 237.3796 276.763 233.1948 279.8223 228.2751 280.974 223.5927 285.2244 229.2838 286.372 234.3005 289.7361 238.8703 288.9421 242.18 290.598 248.3612 297.4812 251.268 301.1641 256.8045 304.2672 257.0255 306.8889 259.1667 325.7751 260.7327 343.2969 262.1458 372.6904 264.3196 394.3988 265.8378 420.9202 267.5462 416.3601 279.0232 414.2328 281.9981 414.1167 289.2359 412.011 294.8096 412.8447 309.5675 413.8671 313.783 412.4005 316.5142 413.8355 319.8805 415.857 320.9549 414.1199 329.0559 411.4717 332.6205 409.769 336.813 410.1935 342.5699 407.2468 348.424 407.8418 350.449 405.6684 357.401 397.7622 359.9454 396.4882 361.6627 391.5971 373.4458 385.0268 374.5916 383.7116 377.7246 379.8086 379.3977 377.2694 382.9604 378.8019 385.0758 374.7132 390.1322 371.5758 391.7302 370.8624 395.3061 368.1351 399.7561 367.4401 405.2618 370.5561 412.4549 358.1407 411.8676 355.1879 409.0276 356.6958 406.5958 359.3847 405.8641 359.8059 398.6516 358.3422 398.5284 352.6493 405.1157 348.7983 405.8696 345.2629 402.6691 340.9364 403.363 338.9209 405.2009 334.2092 405.7116 327.9163 402.6333 326.1335 400.9373 318.5598 398.3529 314.3271 398.0406 310.7979 399.9397 305.7928 399.6473 303.2792 403.5935 299.2902 407.8246 292.5022 409.4171 288.9765 406.8393 287.7794 404.1505 285.4597 402.1179 281.2628 402.0842 276.3763 397.3778 275.0054 392.6542 275.207 388.0154 277.3162 385.6366 275.7843 382.1622 256.2161 381.3859 244.9864 381.1861 243.8033 367.1733 238.0299 360.7144 243.7022 360.5044 243.21 352.0761 242.2912 351.7544 239.4887 343.4903 240.8418 341.6416 239.7899 337.8179 235.4777 335.6749 Z"/>
<path d="M 494.9809 356.5751 496.3486 346.2681 491.1376 342.9602 491.118 335.6907 491.854 330.5051 489.8057 327.8891 490.8102 323.6821 493.6243 321.9655 490.3284 322.53 491.1927 313.3336 489.0239 310.8562 488.6083 306.4438 490.6046 303.7129 489.4594 301.3782 491.6447 298.1463 486.447 296.5957 484.7307 293.1626 487.0116 291.67 488.5297 288.0479 490.5655 286.474 492.4248 281.6539 498.5839 278.6199 500.9646 275.0378 500.5272 273.1096 502.6642 272.2656 506.2531 278.5463 505.5976 281.2434 508.9823 284.9032 514.5493 286.7829 525.4566 280.214 528.5568 281.6735 533.9045 275.7009 536.948 267.2367 534.8242 266.153 533.6275 262.6112 534.8361 260.7121 540.958 257.3757 543.6644 260.0976 548.922 259.767 551.8813 263.621 557.6731 261.4219 560.8041 258.2685 569.2605 256.9536 571.1556 253.1629 574.5058 251.4933 577.7439 247.4971 581.7591 247.4375 585.4732 249.7577 587.2478 254.0815 589.9209 255.9606 588.5066 260.5189 590.747 261.2096 595.4655 259.3365 596.9371 254.1263 602.3335 253.6094 603.6624 249.6403 607.5476 248.864 612.0978 244.5699 615.1143 247.0811 620.3066 249.2136 623.0471 249.0154 625.9056 252.4337 627.9497 251.7413 631.5075 255.1624 632.9414 258.5016 637.0855 261.7779 636.6449 266.3952 637.896 269.8478 640.2421 270.5342 641.833 276.2422 640.0811 277.0475 640.4347 282.5785 637.3059 283.7438 633.4152 283.0415 633.1495 286.5772 635.8193 289.3968 637.7115 294.9502 642.7751 298.009 648.797 295.8667 641.2232 309.9463 637.1178 315.9537 630.8906 322.6581 625.7648 323.6884 620.7089 327.2797 621.2006 334.0609 619.4505 337.1378 620.716 339.457 618.3664 352.1591 619.499 358.5572 620.6087 370.5611 622.0593 373.8149 618.3578 384.1872 615.6072 400.0852 617.0148 406.4291 614.5124 409.6026 610.6536 411.9685 607.6445 417.8178 597.8364 411.5076 598.6893 409.2285 595.8607 405.3477 591.2009 401.6065 591.6579 395.3319 593.0612 392.1751 595.8818 390.0906 596.8965 386.6216 602.4679 382.1726 604.3015 378.4926 597.711 373.0958 591.8448 373.0059 589.3779 370.595 581.5609 372.4475 578.2237 371.9634 577.7777 367.6408 569.9195 360.5803 564.6954 362.019 555.4159 357.7962 549.5441 353.6346 545.6128 352.6202 539.6662 355.1941 533.7285 352.9926 533.2339 350.3827 534.556 347.0801 529.1224 345.688 524.9958 345.5161 521.0069 347.1428 515.6464 351.6002 509.6967 354.2772 506.0757 357.438 503.8506 357.6977 500.0477 360.9603 494.8722 360.8815 494.9809 356.5751 Z"/>
<path d="M 472.5016 377.3633 472.475 377.121 475.2815 375.3295 481.0558 374.4581 480.5249 369.7282 478.9113 368.756 480.8607 364.5677 479.2378 363.3041 480.4893 358.9737 484.5831 360.3754 486.2569 358.8855 485.767 355.6465 487.2457 353.5776 490.5716 357.5212 494.9809 356.5751 494.8722 360.8815 500.0477 360.9603 503.8506 357.6977 506.0757 357.438 509.6967 354.2772 515.6464 351.6002 521.0069 347.1428 524.9958 345.5161 529.1224 345.688 534.556 347.0801 533.2339 350.3827 533.7285 352.9926 539.6662 355.1941 545.6128 352.6202 549.5441 353.6346 555.4159 357.7962 564.6954 362.019 569.9195 360.5803 577.7777 367.6408 578.2237 371.9634 581.5609 372.4475 589.3779 370.595 591.8448 373.0059 597.711 373.0958 604.3015 378.4926 602.4679 382.1726 596.8965 386.6216 595.8818 390.0906 593.0612 392.1751 591.6579 395.3319 591.2009 401.6065 595.8607 405.3477 598.6893 409.2285 597.8364 411.5076 592.628 409.9866 589.3229 412.2736 583.1634 414.7743 581.0205 419.6858 583.6746 419.9417 582.1273 426.6925 585.3627 433.2357 585.0601 437.6944 581.102 441.431 580.7898 445.3062 578.7605 446.1058 576.8099 450.8963 570.697 450.8874 569.698 458.783 568.6101 460.7758 562.7098 468.0821 561.8412 473.4472 560.0674 478.023 550.8045 481.8826 547.3714 484.2455 544.2007 482.8152 540.4912 483.89 534.9731 483.7711 526.8325 487.304 523.3577 487.0498 516.7033 489.7765 512.3612 490.925 506.0718 494.1294 500.1945 494.2619 499.7673 497.4747 489.5394 498.6044 489.7284 496.0507 487.6275 491.8446 483.0073 488.1849 484.2757 482.1896 483.4241 479.7194 486.7881 474.6396 486.4649 472.8565 481.1895 471.3971 477.7288 472.3287 473.7125 462.8867 476.2345 458.6169 472.811 455.1975 473.328 450.0571 469.7633 446.6234 466.6444 448.0637 458.4051 449.8171 454.6921 449.2413 445.7297 450.0858 438.5988 452.6292 437.321 446.5307 433.4923 445.7129 426.8714 446.2611 418.657 444.8337 416.5953 443.3353 407.2007 448.7387 406.394 442.5517 408.3588 437.8096 413.0962 431.9151 414.5489 431.9712 419.3339 424.2483 424.5415 422.4551 428.7225 423.1975 432.9902 421.1826 435.3563 423.2589 443.702 417.2699 445.5536 417.9761 454.5345 418.6069 455.3896 417.6907 460.9395 420.6281 467.1581 417.396 467.9061 415.5967 472.2493 413.0866 471.399 408.8039 473.2307 404.9113 469.8326 403.6776 468.5251 401.1429 471.7944 397.2836 475.47 394.4733 473.6124 388.8777 469.8208 385.4132 472.2547 380.5708 472.5016 377.3633 Z"/>
<path d="M 637.0855 261.7779 632.9414 258.5016 637.2559 255.4159 641.4707 249.951 643.1967 252.5387 646.0093 252.125 650.4608 255.8348 656.3575 257.9049 661.79 258.6948 667.8361 255.6021 670.2499 251.9206 674.085 250.215 676.9684 251.2031 680.7397 249.4751 687.5056 251.1448 683.9422 257.1825 675.8129 265.5949 672.0434 271.1616 667.6348 275.3131 665.5083 279.1475 662.509 276.1841 658.1153 274.2267 652.1254 268.6021 644.7156 265.7345 637.0855 261.7779 Z"/>
<path d="M 578.3745 145.1531 590.4221 143.8761 592.9616 142.7301 602.3776 143.9157 614.9108 150.4275 618.5942 153.8421 625.6044 158.6103 628.9459 159.1514 630.7706 162.1955 635.1116 166.87 644.1637 175.1504 648.7365 176.4431 650.3621 178.9371 643.5051 180.6176 638.8727 190.7747 635.6936 193.772 634.9767 197.5149 631.7225 201.146 629.8356 200.6382 627.1945 205.8971 625.2272 212.129 626.2321 213.6379 623.845 217.2394 627.6838 222.4313 624.4953 228.294 618.5056 231.7852 616.9395 230.0115 611.0823 227.4263 611.3071 225.6285 606.3445 223.0744 599.5095 224.0489 597.1175 222.6181 592.5059 222.9264 594.204 217.8932 593.3336 212.5684 589.208 211.5655 587.8374 208.8709 587.857 205.0077 585.7808 199.9759 585.3379 184.9557 582.6329 183.4693 579.6676 179.6145 580.0256 175.1999 581.9749 169.6537 582.0803 165.1127 578.0373 158.5858 578.3503 153.3707 576.7891 152.5708 579.5581 148.0939 578.3745 145.1531 Z"/>
<path d="M 690.7634 208.2239 687.633 209.3825 678.529 207.4824 673.5055 208.3266 668.1005 207.3423 667.5681 205.0695 663.6773 205.9416 661.8421 216.0639 657.7489 212.5373 654.7628 212.1601 651.4234 214.2188 649.2719 211.7927 646.258 212.1652 648.1571 205.698 651.9582 202.4342 650.2947 200.1102 646.7135 202.1713 641.7004 202.9491 639.6395 206.2279 635.4257 208.5944 632.1643 208.4422 627.1945 205.8971 629.8356 200.6382 631.7225 201.146 634.9767 197.5149 635.6936 193.772 638.8727 190.7747 643.5051 180.6176 650.3621 178.9371 652.0428 180.9531 655.539 180.4802 660.3377 183.4811 670.2374 183.5534 673.4327 182.7039 681.5471 184.6971 683.6487 186.9529 686.2048 192.1964 687.4999 198.6695 690.7634 208.2239 Z"/>
<path d="M 369.9741 493.6033 372.3223 492.6934 377.1919 493.6931 379.0979 492.6158 385.585 494.5514 387.2649 491.7991 391.7564 493.7145 397.3118 494.9343 402.5184 494.4128 409.0604 496.6521 412.3413 499.4669 421.6228 499.4768 425.1411 498.4775 426.4599 501.1945 430.5968 503.3846 432.0524 506.7832 431.8365 515.1587 436.3811 521.883 439.0265 524.0816 437.0649 529.7137 449.3646 529.8046 450.2357 535.1744 456.4495 537.021 458.5713 541.128 454.6123 546.0396 452.7544 546.8885 449.7413 552.9412 439.621 553.3646 432.8584 557.4799 427.2056 553.9442 421.6569 554.7281 416.7445 553.8182 413.8282 554.4512 409.9175 558.0638 407.1901 557.4263 402.8235 559.1866 403.0324 564.4009 389.3667 563.3731 385.4571 561.6129 377.4912 559.591 370.1856 560.286 366.4497 557.9234 360.5332 557.788 357.3485 552.9343 356.5794 547.3139 350.6609 545.1285 346.6249 547.3191 343.6494 546.1401 343.7575 542.698 346.5363 538.4855 346.3305 534.7655 348.3916 529.6986 349.574 524.1789 349.252 519.0787 352.3473 517.128 354.3705 508.5435 358.1099 506.9291 360.575 502.5018 361.0909 499.4296 369.9741 493.6033 Z"/>
<path d="M 130.815 268.5534 127.5688 267.1375 133.0454 263.8745 135.2712 260.2097 142.4252 259.9761 146.6761 262.6277 150.6876 260.981 151.8009 258.1824 155.2244 257.2258 157.06 260.5713 161.0078 256.5646 162.9863 252.4129 166.8751 252.8367 171.5544 251.4102 174.767 251.6966 174.744 248.1234 178.6087 245.1607 178.2628 240.839 180.967 240.8748 183.9736 234.5661 197.3209 234.5544 200.4045 236.6245 201.0638 239.0326 206.2674 242.0304 209.3999 245.5753 210.4386 249.1606 215.1297 250.068 217.2149 247.2772 220.0222 249.1078 222.0372 251.2555 220.5065 254.3028 221.0529 256.9639 219.2309 258.888 221.3504 262.2278 221.3527 267.8986 219.7021 273.0104 222.1685 277.7827 221.8532 284.2879 220.9605 287.6719 239.8866 287.8636 241.0981 289.7019 248.1116 290.6643 249.1836 295.5365 246.3581 297.9982 246.8583 303.7993 248.3031 304.2237 250.0258 310.0652 251.6859 311.8462 248.9494 316.3297 247.5117 316.6711 246.6243 321.3153 242.9938 324.9182 241.1624 331.4599 235.4777 335.6749 231.5056 332.9812 225.9438 332.1953 222.0246 333.2384 219.9783 332.2723 214.9687 332.7604 210.6029 327.9891 204.8152 324.831 199.6662 323.8043 194.8362 320.5805 192.0526 316.6207 189.7344 317.7905 185.2251 314.7232 181.0542 313.2995 177.9225 315.0992 170.0905 313.6374 168.5566 310.8807 164.6644 308.8004 162.4245 305.9192 159.0758 305.6885 157.9861 300.5617 156.3509 300.808 154.194 296.9149 153.3706 290.196 155.1502 287.7697 151.9861 278.8624 154.4786 274.2446 152.6608 264.8308 148.5557 267.4547 147.472 265.9164 139.211 266.5639 130.815 268.5534 Z"/>
<path d="M 472.475 377.121 472.5016 377.3633 455.3572 377.3566 456.7333 367.6761 470.5577 367.6679 472.2601 369.3775 471.4107 376.501 472.475 377.121 Z"/>
<path d="M 3.9116 219.2718 25.4333 227.0573 42.0429 228.9967 70.1784 232.2423 95.0784 253.5425 115.0704 262.5894 118.4498 263.1461 127.5688 267.1375 130.815 268.5534 121.0231 276.3599 118.7206 276.032 113.9711 279.2594 111.7442 282.7232 106.1557 281.8566 101.5984 287.854 93.8592 290.6176 91.5199 287.8917 81.6727 286.759 75.7635 287.3945 72.344 286.6388 65.6017 289.2648 61.7752 286.89 60.1669 288.0367 60.1743 267.3887 60.5857 263.4444 57.7381 263.3689 49.7343 269.7613 46.7881 270.3557 32.5845 270.3557 33.1058 266.7993 29.7545 261.6323 23.0876 259.9494 14.3411 259.9498 19.1476 253.8892 12.2923 243.4981 8.5918 241.0918 7.5836 236.704 4.8854 234.142 5.9942 231.0202 1.421 227.881 1 223.5129 5.3859 223.11 3.9116 219.2718 Z"/>
<path d="M 267.5598 88.8222 267.5592 71.7684 270.8314 70.6673 274.6195 71.0552 277.5175 65.3472 281.1072 66.9705 283.7319 64.1325 288.3552 63.0089 291.6356 63.2686 293.4176 59.7701 299.5508 57.6393 301.0714 59.7468 304.596 60.3342 311.0417 58.9612 318.7897 61.0911 320.5039 57.5883 316.4284 53.4434 319.9281 48.6715 323.2469 50.8471 336.3927 47.6547 338.7195 50.4366 340.6499 54.5299 339.9301 57.6517 340.9741 62.0739 347.9268 62.4582 353.7887 66.6732 361.3068 69.4609 363.7133 73.4312 364.5563 77.0454 369.9642 81.4651 368.7338 86.7314 372.1284 92.8925 377.4207 99.0423 377.2214 102.2629 380.0559 103.637 380.4823 108.6349 383.6322 113.22 388.5479 114.3 393.4413 113.6537 394.8204 112.2883 395.1207 107.5272 399.1121 102.5607 403.3822 95.5809 413.0778 90.2102 415.1161 87.9558 417.175 82.8687 420.8975 81.1684 424.2523 84.0348 421.9281 87.4641 428.2961 87.6099 432.291 86.0777 433.139 88.3677 430.21 90.8209 435.5616 92.3835 435.1163 96.4623 442.2849 96.317 447.1164 97.9034 452.6865 97.5009 451.3201 107.8174 453.8009 109.7362 459.362 105.1472 460.5655 105.7332 465.5085 102.9381 467.5832 104.7719 470.5063 103.8258 476.3304 105.4066 476.7761 107.1837 482.9962 108.4739 484.449 109.7907 487.911 111.6493 492.0952 109.1691 493.804 114.7425 492.5301 119.6139 493.282 121.461 490.6347 131.5882 487.9858 134.1756 488.0411 138.3524 484.6393 140.2648 484.1942 146.0108 481.2328 152.0538 477.3283 156.6812 476.4512 161.6964 472.3217 165.0744 471.3695 168.5652 467.6365 173.4818 463.5227 175.1049 446.9144 188.0951 449.7163 189.393 453.3108 188.8919 455.3417 191.478 456.2006 198.2362 454.3507 199.6822 452.8932 204.8878 449.5315 207.5307 448.7395 210.9256 446.6677 212.5307 442.2497 213.4772 438.8777 215.9748 439.3065 221.4534 435.8979 226.0747 436.6558 229.121 439.7406 231.2911 438.7658 238.4163 437.5724 241.6945 432.1055 249.8295 430.4792 250.1299 424.2281 257.7872 423.3123 262.3203 420.9202 267.5462 394.3988 265.8378 372.6904 264.3196 343.2969 262.1458 325.7751 260.7327 306.8889 259.1667 304.2672 257.0255 301.1641 256.8045 297.4812 251.268 290.598 248.3612 288.9421 242.18 289.7361 238.8703 286.372 234.3005 285.2244 229.2838 280.974 223.5927 280.1968 220.5083 275.712 215.6809 275.8403 210.5049 278.6805 208.018 290.7282 181.9325 301.0768 159.9717 311.6605 136.932 311.4522 131.9696 307.9319 132.5749 306.0134 129.9041 300.5828 127.4076 299.6831 125.3655 294.835 124.2023 280.5143 115.2408 275.8214 111.6055 275.7185 109.2632 270.9018 105.504 270.5699 101.2356 268.0194 99.629 267.5598 88.8222 Z"/>
<path d="M 415.857 320.9549 413.8355 319.8805 412.4005 316.5142 413.8671 313.783 412.8447 309.5675 412.011 294.8096 414.1167 289.2359 414.2328 281.9981 416.3601 279.0232 420.9202 267.5462 423.3123 262.3203 424.2281 257.7872 430.4792 250.1299 432.1055 249.8295 437.5724 241.6945 438.7658 238.4163 439.7406 231.2911 436.6558 229.121 435.8979 226.0747 439.3065 221.4534 438.8777 215.9748 442.2497 213.4772 446.6677 212.5307 448.7395 210.9256 449.5315 207.5307 452.8932 204.8878 454.3507 199.6822 456.2006 198.2362 455.3417 191.478 453.3108 188.8919 449.7163 189.393 446.9144 188.0951 449.5501 187.8711 451.0831 185.3177 453.8344 184.8975 457.1439 186.513 462.5186 186.7366 469.1124 191.2159 470.0376 199.5372 471.261 204.431 469.1386 211.4789 468.2604 217.6281 466.278 219.9712 469.1183 222.4915 469.1713 225.7951 472.0191 228.5612 476.8628 235.0822 484.9505 233.1448 487.3998 236.2255 486.0295 240.622 481.9044 241.4977 479.406 250.1391 476.9372 253.6051 480.4147 255.2583 481.164 258.0354 485.5062 261.1188 484.2479 265.7629 486.5743 266.7741 487.7711 271.7245 489.901 273.5958 495.1453 273.4841 496.5959 274.9288 500.5272 273.1096 500.9646 275.0378 498.5839 278.6199 492.4248 281.6539 490.5655 286.474 488.5297 288.0479 487.0116 291.67 484.7307 293.1626 486.447 296.5957 491.6447 298.1463 489.4594 301.3782 490.6046 303.7129 488.6083 306.4438 489.0239 310.8562 491.1927 313.3336 490.3284 322.53 493.6243 321.9655 489.0982 323.2207 482.3692 322.872 477.786 325.9083 470.5976 328.1989 466.5203 325.5507 465.9488 331.6901 463.3841 328.9336 457.5812 328.8414 457.2127 326.0836 452.4277 328.5084 449.6171 324.4641 444.8816 319.9416 443.0147 322.6604 440.0023 320.2343 436.3147 325.356 436.0477 328.2748 425.9678 322.6557 419.4534 320.2009 421.2659 313.9699 417.2238 317.1692 415.857 320.9549 Z"/>
</g>
</svg>