<?xml version="1.0"?>
<svg xmlns="http://www.w3.org/2000/svg" version="1.2" baseProfile="tiny" width="800" height="441" viewBox="0 0 800 441" stroke-linecap="round" stroke-linejoin="round">
<g id="12MIE250GC_SIR">
<path d="M 625.7778 232.6904 702.2149 267.2824 722.9889 270.7046 799 303.9447 738.8071 351.9326 724.6532 349.917 695.4571 369.7569 681.7682 391.0496 649.4268 385.4831 639.6855 354.5704 615.5699 360.4948 596.1156 342.2009 571.729 356.8735 524.7156 356.8858 503.7954 367.7925 577.218 297.734 573.571 280.1514 613.6565 254.1539 625.7778 232.6904 Z"/>
<path d="M 315.0541 296.2946 314.8891 282.4115 356.8324 246.7004 397.5502 202.342 449.6636 200.2333 478.7997 167.5936 492.6495 137.4161 579.3198 211.6694 625.7778 232.6904 613.6565 254.1539 573.571 280.1514 577.218 297.734 503.7954 367.7925 476.7825 355.3585 409.5991 391.3267 364.7263 391.8278 364.7571 296.785 349.7812 272.0741 315.0541 296.2946 Z"/>
<path d="M 364.7263 391.8278 409.5991 391.3267 476.7825 355.3585 503.7954 367.7925 524.7156 356.8858 571.729 356.8735 596.1156 342.2009 615.5699 360.4948 639.6855 354.5704 649.4268 385.4831 619.3996 422.5894 571.8249 439.5779 557.4448 422.8214 496.9119 415.8586 439.5666 415.1192 398.1201 431.262 374.5979 416.6638 364.7263 391.8278 Z"/>
<path d="M 220.7108 56.987 426.2541 80.7325 492.6495 137.4161 478.7997 167.5936 449.6636 200.2333 397.5502 202.342 356.8324 246.7004 314.8891 282.4115 315.0541 296.2946 282.4689 315.0239 195.1568 315.0239 198.3611 293.1618 177.7581 261.6028 209.9745 227.8215 209.9922 195.468 191.512 173.7677 186.7598 105.3376 214.6843 76.7343 220.7108 56.987 Z"/>
<path d="M 220.7108 56.987 214.6843 76.7343 186.7598 105.3376 191.512 173.7677 209.9922 195.468 209.9745 227.8215 177.7581 261.6028 136.7773 251.0539 83.0105 251.0563 112.5569 213.8004 70.4162 149.9242 47.6682 135.1325 41.4708 108.1596 24.8845 92.4108 31.7007 73.2201 3.5881 53.9226 1 27.0712 27.9609 24.5942 18.8982 1 151.1969 48.8596 220.7108 56.987 Z"/>
</g>
</svg>