<?xml version="1.0"?>
<svg xmlns="http://www.w3.org/2000/svg" version="1.2" baseProfile="tiny" width="800" height="435" viewBox="0 0 800 435" stroke-linecap="round" stroke-linejoin="round">
<g id="27MIE250GC_SIR">
<path d="M 530.1259 202.9059 532.9011 206.0353 581.5903 227.0691 575.851 256.7047 604.3289 269.0369 572.7491 318.1003 512.5457 374.6071 485.1502 366.2717 486.058 337.7618 462.0313 314.6622 443.647 255.4319 486.6923 246.6486 477.7523 215.3761 488.9643 200.8932 530.1259 202.9059 Z"/>
<path d="M 487.64 104.1729 478.9941 157.706 494.5205 179.6405 522.549 172.9351 530.1259 202.9059 488.9643 200.8932 477.7523 215.3761 451.6097 203.8714 364.66 190.4363 326.0771 173.6034 313.2539 149.161 326.3347 140.6238 382.6804 117.8983 422.8238 135.8103 468.0112 102.5551 487.64 104.1729 Z"/>
<path d="M 624.545 14.1801 644.7623 26.2667 699.9063 1 747.6024 11.6703 751.3491 69.3253 720.53 65.3797 684.5074 107.8859 705.2799 128.9785 611.3945 155.4581 579.5222 196.265 532.9011 206.0353 530.1259 202.9059 522.549 172.9351 539.7668 126.6611 564.4237 103.5447 608.5103 83.4629 624.545 14.1801 Z"/>
<path d="M 218.7661 54.9599 257.1682 93.9915 297.6192 111.4081 326.3347 140.6238 313.2539 149.161 222.7167 177.7499 239.9525 190.7422 258.8802 238.0447 244.2065 261.7297 150.2929 222.8497 151.8888 153.4178 169.4911 123.2078 211.954 89.2541 218.7661 54.9599 Z"/>
<path d="M 22.0041 112.3671 95.4765 152.858 122.2334 122.3779 151.8888 153.4178 150.2929 222.8497 119.6854 212.8808 42.3356 161.7736 10.057 156.2705 1 132.9854 22.0041 112.3671 Z"/>
<path d="M 477.7523 215.3761 486.6923 246.6486 443.647 255.4319 462.0313 314.6622 395.0482 318.0821 334.12 269.7568 350.6769 240.6021 329.0336 227.1745 364.66 190.4363 451.6097 203.8714 477.7523 215.3761 Z"/>
<path d="M 313.2539 149.161 326.0771 173.6034 364.66 190.4363 329.0336 227.1745 286.5631 283.8696 244.2065 261.7297 258.8802 238.0447 239.9525 190.7422 222.7167 177.7499 313.2539 149.161 Z"/>
<path d="M 747.6024 11.6703 799 25.8902 746.7339 113.6969 716.1185 140.2889 705.2799 128.9785 684.5074 107.8859 720.53 65.3797 751.3491 69.3253 747.6024 11.6703 Z"/>
<path d="M 218.7661 54.9599 211.954 89.2541 169.4911 123.2078 151.8888 153.4178 122.2334 122.3779 95.4765 152.858 22.0041 112.3671 64.0861 87.8659 125.7151 7.9593 150.9526 45.7966 192.0791 39.7464 218.7661 54.9599 Z"/>
<path d="M 522.549 172.9351 494.5205 179.6405 478.9941 157.706 487.64 104.1729 511.2298 90.5891 546.5243 36.7579 602.602 11.8193 624.545 14.1801 608.5103 83.4629 564.4237 103.5447 539.7668 126.6611 522.549 172.9351 Z"/>
<path d="M 360.5701 351.9046 395.0482 318.0821 462.0313 314.6622 486.058 337.7618 485.1502 366.2717 512.5457 374.6071 479.9406 434.4553 433.3372 391.5381 360.5701 351.9046 Z"/>
<path d="M 705.2799 128.9785 716.1185 140.2889 655.1214 219.6985 604.3289 269.0369 575.851 256.7047 581.5903 227.0691 532.9011 206.0353 579.5222 196.265 611.3945 155.4581 705.2799 128.9785 Z"/>
<path d="M 286.5631 283.8696 329.0336 227.1745 350.6769 240.6021 334.12 269.7568 395.0482 318.0821 360.5701 351.9046 330.3904 305.6641 286.5631 283.8696 Z"/>
</g>
</svg>