<?xml version="1.0"?>
<svg xmlns="http://www.w3.org/2000/svg" version="1.2" baseProfile="tiny" width="800" height="435" viewBox="0 0 800 435" stroke-linecap="round" stroke-linejoin="round">
<g id="27MEE250GC_SIR">
<path d="M 487.64 104.1729 511.2298 90.5891 546.5243 36.7579 602.602 11.8193 644.7623 26.2667 699.9063 1 799 25.8902 746.7339 113.6969 627.8672 236.7038 572.7491 318.1003 508.2869 378.8024 479.9406 434.4553 433.3372 391.5381 360.5701 351.9046 394.9366 320.2408 445.9284 316.7957 457.4013 289.7613 443.647 255.4319 486.6923 246.6486 515.0553 208.9009 478.9941 157.706 487.64 104.1729 Z"/>
<path d="M 326.3347 140.6238 337.9354 209.5356 286.5631 283.8696 198.5584 240.8427 173.1623 238.7445 1 132.9854 38.5784 92.3639 64.0861 87.8659 125.7151 7.9593 150.9526 45.7966 192.0791 39.7464 257.1682 93.9915 326.3347 140.6238 Z"/>
<path d="M 326.3347 140.6238 382.6804 117.8983 422.8238 135.8103 487.64 104.1729 478.9941 157.706 515.0553 208.9009 486.6923 246.6486 443.647 255.4319 457.4013 289.7613 445.9284 316.7957 394.9366 320.2408 360.5701 351.9046 330.3904 305.6641 286.5631 283.8696 337.9354 209.5356 326.3347 140.6238 Z"/>
</g>
</svg>