<?xml version="1.0"?>
<svg xmlns="http://www.w3.org/2000/svg" version="1.2" baseProfile="tiny" width="800" height="556" viewBox="0 0 800 556" stroke-linecap="round" stroke-linejoin="round">
<g id="13MUE250GC_SIR">
<path d="M 565.3061 176.6797 567.8398 186.5047 562.355 189.948 553.4222 190.8079 539.0003 194.8815 533.8793 202.1138 501.9255 211.482 491.7631 217.95 478.2478 218.5413 467.9389 212.4102 460.7253 216.184 451.2117 216.466 449.5826 205.9497 437.5915 201.7333 432.3835 208.2109 418.7758 205.871 416.8866 196.9305 406.4907 201.0857 395.0469 188.3465 389.0079 185.8507 385.8706 180.928 389.3978 172.4908 399.3498 171.1422 399.8898 163.9739 403.9961 152.1586 408.8804 151.0956 412.8809 140.904 411.0998 127.7462 429.2873 120.1444 444.6962 117.2873 449.9052 104.1559 450.811 96.5381 445.392 77.3829 432.9461 70.3115 428.6702 64.9097 409.5658 49.2899 411.4372 45.3699 416.0583 47.2077 424.8407 38.1669 430.8782 40.021 446.26 27.1017 446.4132 15.3961 457.0848 13.6732 469.3904 6.1308 478.6783 3.1557 488.4872 4.2513 494.1194 11.5386 507.6386 14.0261 507.6835 25.9993 504.16 30.9923 511.757 38.0282 517.2198 54.3152 520.8204 60.0723 519.8879 68.4205 516.4293 73.0928 516.672 80.7389 520.6533 86.6988 520.3604 94.589 526.1892 104.2544 532.4977 118.9322 528.2796 124.832 527.99 133.1803 518.1395 140.0317 540.3633 156.5877 545.9162 168.2421 559.3194 170.6673 565.3061 176.6797 Z"/>
<path d="M 669.4578 284.2621 676.5031 286.226 684.3153 281.3778 696.6922 301.2484 696.0125 307.7565 704.7396 311.2331 716.1885 304.0837 719.4847 304.9737 714.247 313.2487 709.2747 328.9151 703.0812 338.8064 698.328 340.0149 687.7044 349.6016 685.7049 358.0197 687.6718 367.737 685.6768 397.3725 675.388 397.7191 665.5049 403.7664 638.9206 417.1594 635.0807 408.4108 641.453 399.6047 648.6558 401.1779 664.534 401.0278 661.5356 393.7149 662.1508 384.8581 651.1868 369.5671 654.0129 359.4285 645.8068 352.0155 648.2017 346.8629 635.5819 327.8288 622.908 330.0488 619.8548 335.8436 600.7621 335.8275 599.7203 339.0921 591.0894 339.0782 573.6288 320.6489 579.4069 312.9447 594.0599 300.9027 595.9838 296.28 601.7701 297.4134 610.0242 294.3226 619.8841 295.4947 620.3847 298.7363 630.7491 306.974 635.1847 305.7886 636.3393 297.7159 650.5282 297.0608 656.03 284.2199 669.4578 284.2621 Z"/>
<path d="M 305.3973 224.6888 314.0882 229.4604 323.7802 229.0309 329.3667 225.5352 327.5633 215.4187 336.8069 213.94 341.8414 223.6267 330.1716 232.1104 329.8845 248.448 315.677 249.6004 309.7896 261.0823 311.8896 274.5048 311.3349 287.3879 308.642 293.7947 314.518 301.5206 316.0209 310.0786 309.7144 311.4316 299.0725 308.7732 279.0864 315.1695 271.2882 323.7985 265.5374 324.3595 265.558 331.4954 256.2151 344.0271 255.3177 355.8638 252.8874 360.3129 255.5782 376.406 251.4053 382.1824 234.1214 393.9493 234.9513 398.4494 225.0327 399.0027 214.3958 396.9445 207.1694 392.9029 204.1634 396.4474 195.0125 400.8606 187.247 399.2662 172.851 406.9104 156.6228 409.4865 147.2558 404.4055 157.5008 393.183 165.8555 389.7298 177.0978 368.6665 178.3909 358.7601 176.7598 350.8755 192.1887 343.3956 194.9791 343.9566 206.4968 327.0887 211.1513 324.4577 217.6586 314.5127 218.9342 303.7719 226.9519 289.1004 227.7659 278.1236 236.7384 273.7881 244.8941 277.5972 253.6763 273.8613 257.0809 277.3901 263.8079 275.7483 264.0864 263.3468 273.0704 257.3472 276.7032 240.6857 278.7337 237.563 298.027 236.6222 301.5191 227.4413 305.3973 224.6888 Z"/>
<path d="M 751.2192 223.132 755.7238 216.9628 752.2695 213.5234 763.0302 211.2815 781.4494 215.2868 792.3524 209.148 799 208.8269 798.4091 217.0063 779.6605 257.2829 768.84 251.5853 770.1816 238.8828 777.6074 238.0999 779.6176 232.0331 762.747 229.1757 751.2192 223.132 Z"/>
<path d="M 209.703 497.6845 218.3832 498.1945 226.1607 487.8 225.3429 479.588 229.1941 476.6387 244.1531 473.8161 256.1614 475.4965 266.3425 480.857 269.8048 487.7957 283.132 493.8863 287.5132 497.9449 292.383 495.0775 308.7435 494.9639 304.8493 505.4263 306.9617 514.8585 298.2565 523.8172 298.3644 541.2558 296.4144 544.9234 287.6449 543.4788 235.7033 519.974 209.703 497.6845 Z"/>
<path d="M 624.5522 258.4617 648.159 258.2095 643.4121 263.2855 640.9766 280.5088 635.2525 286.2193 630.122 286.1677 625.1161 294.245 619.8841 295.4947 610.0242 294.3226 601.7701 297.4134 595.9838 296.28 605.2678 289.1028 606.8102 280.1407 618.0213 272.2041 619.1837 262.3633 624.5522 258.4617 Z"/>
<path d="M 661.577 156.8635 642.8792 152.1555 639.679 146.0118 632.5285 140.4842 633.0295 130.2934 640.8246 123.0231 637.0522 111.0158 629.2816 106.3294 622.6134 109.7135 631.3281 92.0096 666.9218 92.0103 672.855 93.8743 677.2461 101.93 683.5625 104.4223 682.0769 123.9634 690.3784 134.6512 691.2691 141.5057 699.6891 149.7102 701.8864 157.7305 707.6988 162.4794 712.5712 172.9174 724.0744 181.9448 727.7136 197.6793 736.3361 205.6679 752.2695 213.5234 755.7238 216.9628 743.7288 217.0416 738.2635 226.3079 728.787 230.8631 730.0801 224.0089 732.5915 219.5529 723.3746 206.3725 716.3434 201.2096 712.8537 192.8017 707.7277 192.3795 700.3798 186.5264 697.5599 178.2794 690.9819 172.9507 682.4993 170.376 678.0717 164.6087 661.577 156.8635 Z"/>
<path d="M 180.9965 273.5326 190.162 273.6655 199.2709 274.9276 201.4386 280.3768 199.9145 293.99 194.9348 300.6827 183.2274 305.0253 175.611 300.1739 180.9965 273.5326 Z"/>
<path d="M 564.9014 232.1756 575.6021 230.0807 587.8284 236.7545 587.8693 242.2394 601.6552 248.6855 615.8558 248.0562 616.7753 256.0237 603.6672 262.5775 600.5427 274.8613 585.0635 279.7303 580.3692 274.1854 571.8478 273.9743 568.2553 270.5713 573.2249 264.9765 583.7425 259.6889 581.6527 253.6053 572.4621 251.058 568.3462 236.5267 564.9014 232.1756 Z"/>
<path d="M 111.8058 411.1514 106.0682 419.3844 100.1534 423.5525 82.9334 425.9668 79.2452 430.5263 63.8323 435.1944 61.7396 430.9646 52.5716 430.284 45.5598 424.5222 35.2112 427.0961 26.7979 422.0414 4.406 423.6796 1.7528 431.9851 1 423.1263 6.1365 414.8657 19.3856 407.1808 25.8893 406.396 30.673 398.6846 24.176 386.5028 24.7632 381.3215 36.0347 366.2298 37.6559 355.2758 44.1966 338.9315 63.9056 328.0193 64.5505 325.0363 77.0181 320.2494 88.2258 311.5172 99.7143 312.494 102.88 309.4126 115.1025 306.1795 125.5939 306.3624 131.466 304.204 136.3982 296.3689 149.597 294.4916 159.8041 295.5662 160.2288 300.9084 167.2918 301.1614 167.8331 310.9629 161.6149 317.8159 167.6906 327.8176 165.6544 337.3655 162.0579 340.343 155.3018 355.1644 151.4603 368.6732 144.4742 380.7357 145.7235 391.0753 134.3064 402.5361 125.3376 404.8375 111.8058 411.1514 Z"/>
<path d="M 288.3952 437.155 299.2958 429.3059 308.1864 426.2018 316.8819 438.0944 330.4637 448.3905 331.8106 453.5161 319.121 463.7662 317.6924 476.0198 314.2978 486.4367 314.8011 492.6227 308.7435 494.9639 292.383 495.0775 287.5132 497.9449 283.132 493.8863 269.8048 487.7957 266.3425 480.857 256.1614 475.4965 244.1531 473.8161 229.1941 476.6387 225.3429 479.588 226.1607 487.8 218.3832 498.1945 209.703 497.6845 182.6488 474.5584 183.0744 465.6735 190.7589 460.371 196.9215 444.4025 196.9253 435.1315 202.8984 426.3732 208.6337 425.47 223.9464 430.6265 235.2739 430.5716 237.9216 434.0167 269.3694 432.9166 278.0967 437.8755 283.8907 444.267 288.3952 437.155 Z"/>
<path d="M 730.0801 224.0089 724.2871 225.8221 716.7171 222.2136 708.4149 211.577 703.0414 209.4782 691.7524 209.7031 684.4797 206.5773 675.2378 208.7097 672.4175 203.9263 673.3246 196.3645 668.6093 188.057 673.164 177.9922 670.2327 170.5892 664.9928 172.3115 655.1593 169.9679 661.577 156.8635 678.0717 164.6087 682.4993 170.376 690.9819 172.9507 697.5599 178.2794 700.3798 186.5264 707.7277 192.3795 712.8537 192.8017 716.3434 201.2096 723.3746 206.3725 732.5915 219.5529 730.0801 224.0089 Z"/>
<path d="M 536.4407 355.0241 543.8275 347.4222 563.007 331.1399 573.6288 320.6489 591.0894 339.0782 599.7203 339.0921 594.664 347.7886 606.655 350.0978 603.3159 361.7068 607.7105 367.6586 608.1243 376.3605 604.4784 380.6379 608.3441 385.8446 608.0902 422.833 583.7214 422.8172 575.924 432.4514 577.6021 437.5697 571.5389 443.4593 574.0828 456.9722 572.5489 468.9909 579.614 471.2234 583.2762 480.4778 574.5029 483.5963 566.4506 481.1628 564.324 502.584 554.3417 503.3588 548.4608 505.7281 545.6231 511.4025 542.5613 508.4899 542.0434 492.6631 545.097 480.6801 539.7041 467.5603 547.155 460.4754 546.7123 450.7602 548.6589 441.721 539.9163 436.0108 556.1235 415.3308 555.2911 402.7639 548.6496 392.1962 534.2139 388.5733 511.94 400.8045 501.4816 399.5997 525.906 371.4711 536.4407 355.0241 Z"/>
<path d="M 401.5045 429.1613 423.0004 429.2529 426.4462 446.6188 430.5945 454.6399 428.8473 466.9784 430.5577 481.2717 426.0869 486.6405 426.1472 499.0721 433.963 506.5778 425.8674 509.2281 422.658 517.1707 412.1359 517.0392 406.0652 523.4274 406.9956 527.8258 396.7389 538.2357 391.9698 529.5437 383.0751 532.0289 380.1826 539.3002 372.0823 538.4462 369.7601 543.5783 358.7159 536.6893 340.1288 537.2962 334.3461 546.8177 321.7204 552.3104 320.1171 555.2953 296.4144 544.9234 298.3644 541.2558 298.2565 523.8172 306.9617 514.8585 304.8493 505.4263 308.7435 494.9639 314.8011 492.6227 314.2978 486.4367 317.6924 476.0198 319.121 463.7662 331.8106 453.5161 330.4637 448.3905 316.8819 438.0944 308.1864 426.2018 299.2958 429.3059 288.3952 437.155 288.8488 433.6682 301.5677 423.9688 309.8355 424.3083 317.9499 432.8561 339.9212 437.582 350.5662 441.3847 369.7351 435.8755 383.0273 438.8409 401.5045 429.1613 Z"/>
<path d="M 755.7238 216.9628 751.2192 223.132 748.2361 233.1217 741.2808 239.2695 730.0152 239.8159 721.954 251.8673 716.1316 250.6177 716.8402 243.601 719.9062 235.511 728.787 230.8631 738.2635 226.3079 743.7288 217.0416 755.7238 216.9628 Z"/>
<path d="M 549.2771 272.3943 539.6381 268.2685 537.1221 254.7612 539.1404 258.3109 548.6246 254.9621 573.2249 264.9765 568.2553 270.5713 565.0965 273.4551 549.2771 272.3943 Z"/>
<path d="M 357.2795 169.0864 371.7543 173.1418 373.8507 179.3087 389.0079 185.8507 395.0469 188.3465 406.4907 201.0857 416.8866 196.9305 418.7758 205.871 432.3835 208.2109 424.9338 211.5045 429.7111 225.4011 426.1788 229.9505 429.2262 239.5856 445.2402 257.1606 441.9811 265.4738 452.9521 272.1503 445.9682 274.347 428.8483 263.283 425.2697 257.0081 418.2594 254.1004 413.1853 249.2777 416.2171 247.4706 408.2468 236.2372 409.4444 229.8228 396.9154 211.5324 391.5687 213.6095 381.6099 214.4481 372.813 208.6941 359.7841 206.7609 357.2885 202.6832 357.2795 169.0864 Z"/>
<path d="M 638.9206 417.1594 665.5049 403.7664 675.388 397.7191 685.6768 397.3725 685.0921 410.8788 690.7923 420.5984 697.3344 427.51 702.1564 428.1885 698.6011 439.0127 701.9875 441.8854 718.2079 441.569 715.1893 446.8672 715.6897 454.3264 707.7413 467.1082 711.6459 477.9808 704.6288 508.4848 656.9062 508.665 613.7641 508.3572 613.3763 501.7437 608.7644 494.495 612.8114 476.3974 606.0624 458.3607 602.1037 456.9568 603.9968 439.0915 601.0458 432.521 638.9206 417.1594 Z"/>
<path d="M 565.0965 273.4551 568.2553 270.5713 571.8478 273.9743 580.3692 274.1854 585.0635 279.7303 579.5988 286.7819 595.9838 296.28 594.0599 300.9027 579.4069 312.9447 573.6288 320.6489 563.007 331.1399 543.8275 347.4222 536.4407 355.0241 504.2015 324.597 495.2175 324.3245 497.7193 318.3606 503.0033 319.1078 526.1187 313.8031 545.7138 299.335 555.7423 299.5975 561.025 291.1981 569.879 282.8072 565.0965 273.4551 Z"/>
<path d="M 656.0356 240.6898 662.5459 249.0133 646.8512 244.7795 637.3467 248.3137 631.2064 249.2911 623.7897 246.3539 611.4921 246.1294 598.3121 233.7919 596.1847 220.8071 601.1209 211.9358 599.1154 204.7292 605.5476 195.9741 616.6327 193.9352 633.0505 201.5509 630.9332 211.1125 631.5435 221.2702 635.7753 222.6017 646.5763 239.2058 656.0356 240.6898 Z"/>
<path d="M 314.518 301.5206 359.6407 301.4748 347.676 310.5637 345.6439 323.252 339.5448 325.8161 329.5614 337.2662 324.422 336.4523 314.2281 346.643 313.319 353.1835 311.7989 356.8414 302.3222 363.6398 296.1237 370.5632 286.3531 375.8248 280.6435 381.8454 251.4053 382.1824 255.5782 376.406 252.8874 360.3129 255.3177 355.8638 256.2151 344.0271 265.558 331.4954 265.5374 324.3595 271.2882 323.7985 279.0864 315.1695 299.0725 308.7732 309.7144 311.4316 316.0209 310.0786 314.518 301.5206 Z"/>
<path d="M 79.2452 430.5263 82.9334 425.9668 100.1534 423.5525 106.0682 419.3844 111.8058 411.1514 118.8742 413.2477 127.8831 409.5648 133.8234 413.222 143.5015 407.1892 144.0562 417.2449 140.0139 428.7837 128.0752 438.1934 118.8028 450.8746 110.0435 457.6101 73.8388 453.3956 74.5547 441.6557 79.2452 430.5263 Z"/>
<path d="M 668.265 252.9915 678.5499 253.1975 688.1979 262.4216 682.8318 267.1448 674.7397 273.3446 676.5766 279.0444 669.4578 284.2621 656.03 284.2199 650.5282 297.0608 636.3393 297.7159 635.1847 305.7886 630.7491 306.974 620.3847 298.7363 619.8841 295.4947 625.1161 294.245 630.122 286.1677 635.2525 286.2193 640.9766 280.5088 643.4121 263.2855 653.7093 266.9039 660.0157 265.166 668.2953 258.0788 668.265 252.9915 Z"/>
<path d="M 276.7032 240.6857 256.5128 240.5907 246.3963 235.0407 238.8626 235.1167 233.1389 229.7496 242.8353 223.2904 251.2778 220.3869 260.4165 220.9821 266.8665 227.698 273.5375 229.7138 285.1244 217.846 285.7099 214.0754 295.8568 207.8555 297.1818 203.9832 303.5758 214.0744 300.1038 217.8866 305.3973 224.6888 301.5191 227.4413 298.027 236.6222 278.7337 237.563 276.7032 240.6857 Z"/>
<path d="M 638.9206 417.1594 601.0458 432.521 603.9968 439.0915 602.1037 456.9568 606.0624 458.3607 612.8114 476.3974 608.7644 494.495 613.3763 501.7437 613.7641 508.3572 560.3221 508.4521 554.3417 503.3588 564.324 502.584 566.4506 481.1628 574.5029 483.5963 583.2762 480.4778 579.614 471.2234 572.5489 468.9909 574.0828 456.9722 571.5389 443.4593 577.6021 437.5697 575.924 432.4514 583.7214 422.8172 608.0902 422.833 608.3441 385.8446 604.4784 380.6379 608.1243 376.3605 607.7105 367.6586 603.3159 361.7068 606.655 350.0978 594.664 347.7886 599.7203 339.0921 600.7621 335.8275 619.8548 335.8436 622.908 330.0488 635.5819 327.8288 648.2017 346.8629 645.8068 352.0155 654.0129 359.4285 651.1868 369.5671 662.1508 384.8581 661.5356 393.7149 664.534 401.0278 648.6558 401.1779 641.453 399.6047 635.0807 408.4108 638.9206 417.1594 Z"/>
<path d="M 1.7528 431.9851 4.406 423.6796 26.7979 422.0414 35.2112 427.0961 45.5598 424.5222 52.5716 430.284 61.7396 430.9646 63.8323 435.1944 79.2452 430.5263 74.5547 441.6557 73.8388 453.3956 54.7573 451.1624 1.7528 431.9851 Z"/>
<path d="M 616.7753 256.0237 624.6847 258.2722 624.5522 258.4617 619.1837 262.3633 618.0213 272.2041 606.8102 280.1407 605.2678 289.1028 595.9838 296.28 579.5988 286.7819 585.0635 279.7303 600.5427 274.8613 603.6672 262.5775 616.7753 256.0237 Z"/>
<path d="M 598.0558 143.1162 602.5827 144.6149 619.0408 134.747 614.6869 127.9009 622.6134 109.7135 629.2816 106.3294 637.0522 111.0158 640.8246 123.0231 633.0295 130.2934 632.5285 140.4842 639.679 146.0118 642.8792 152.1555 661.577 156.8635 655.1593 169.9679 664.9928 172.3115 670.2327 170.5892 673.164 177.9922 668.6093 188.057 673.3246 196.3645 672.4175 203.9263 675.2378 208.7097 666.3067 218.0903 663.0406 213.0334 655.7556 210.0551 647.9126 201.17 642.1412 203.4242 633.0505 201.5509 616.6327 193.9352 604.7162 189.6556 604.7683 174.1908 594.8356 171.2739 592.1591 164.2554 598.0558 143.1162 Z"/>
<path d="M 387.6728 217.8025 391.5687 213.6095 396.9154 211.5324 409.4444 229.8228 408.2468 236.2372 416.2171 247.4706 413.1853 249.2777 405.7824 244.7604 395.6506 261.5999 383.7234 268.435 374.374 270.4863 363.9925 285.9988 363.316 294.0421 358.2253 283.4649 358.3568 264.3763 373.0913 239.8711 387.3995 233.7029 385.5557 227.6106 391.2711 223.909 387.6728 217.8025 Z"/>
<path d="M 637.3467 248.3137 646.8512 244.7795 662.5459 249.0133 668.265 252.9915 668.2953 258.0788 660.0157 265.166 653.7093 266.9039 643.4121 263.2855 648.159 258.2095 624.5522 258.4617 624.6847 258.2722 637.493 253.7147 637.3467 248.3137 Z"/>
<path d="M 598.0558 143.1162 592.1591 164.2554 594.8356 171.2739 604.7683 174.1908 604.7162 189.6556 616.6327 193.9352 605.5476 195.9741 599.1154 204.7292 601.1209 211.9358 596.1847 220.8071 598.3121 233.7919 587.8284 236.7545 575.6021 230.0807 564.9014 232.1756 556.691 235.6001 549.8833 224.0626 539.3831 225.8211 536.8901 228.7448 524.8831 231.5977 518.9002 236.5629 514.3706 246.8874 498.2697 242.0246 498.4813 235.2545 486.526 234.4969 481.2003 228.2042 473.9317 228.3535 463.4325 234.3806 458.9789 221.6329 450.8848 222.4685 451.2117 216.466 460.7253 216.184 467.9389 212.4102 478.2478 218.5413 491.7631 217.95 501.9255 211.482 533.8793 202.1138 539.0003 194.8815 553.4222 190.8079 562.355 189.948 567.8398 186.5047 565.3061 176.6797 558.3108 163.5831 562.1727 152.9326 560.4302 149.062 562.505 138.7879 566.0663 134.2075 583.4867 127.3794 590.4431 131.9465 598.0558 143.1162 Z"/>
<path d="M 236.3771 252.559 257.1843 244.9591 267.5032 249.3486 268.0702 257.1271 273.0704 257.3472 264.0864 263.3468 263.8079 275.7483 257.0809 277.3901 253.6763 273.8613 244.8941 277.5972 236.7384 273.7881 236.3771 252.559 Z"/>
<path d="M 487.6284 418.7183 492.925 418.6496 501.4816 399.5997 511.94 400.8045 534.2139 388.5733 548.6496 392.1962 555.2911 402.7639 556.1235 415.3308 539.9163 436.0108 548.6589 441.721 546.7123 450.7602 547.155 460.4754 539.7041 467.5603 545.097 480.6801 542.0434 492.6631 542.5613 508.4899 545.6231 511.4025 535.4227 508.5892 532.7239 499.2742 524.3443 494.4304 524.5854 490.0643 511.066 482.2754 509.3529 476.0189 501.3415 470.6405 466.6634 470.671 467.4465 464.7908 473.6172 460.1794 483.6569 442.2866 481.5426 430.1977 489.1868 424.0015 487.6284 418.7183 Z"/>
<path d="M 342.8078 70.2921 358.6668 67.0802 369.3257 58.1856 376.3962 57.7562 382.4989 72.6219 388.1796 61.3115 395.7235 60.4426 396.3439 52.8143 402.2823 52.8849 411.4372 45.3699 409.5658 49.2899 428.6702 64.9097 432.9461 70.3115 445.392 77.3829 450.811 96.5381 449.9052 104.1559 444.6962 117.2873 429.2873 120.1444 411.0998 127.7462 412.8809 140.904 408.8804 151.0956 403.9961 152.1586 399.8898 163.9739 399.3498 171.1422 389.3978 172.4908 385.8706 180.928 389.0079 185.8507 373.8507 179.3087 371.7543 173.1418 357.2795 169.0864 346.253 172.6811 339.5653 171.6462 324.9458 178.7436 306.3395 176.824 287.196 179.9866 281.5504 173.6056 288.49 166.3679 305.6258 156.2757 315.4435 155.4 314.8678 148.9339 322.2446 149.5795 325.5892 142.1563 324.72 135.9029 336.2409 129.6486 342.0121 130.6865 351.1578 126.1807 355.1875 115.3489 352.0639 102.6484 339.3306 95.985 343.9844 88.3121 343.1632 83.3915 351.6495 77.7558 342.8078 70.2921 Z"/>
<path d="M 748.2361 233.1217 751.2192 223.132 762.747 229.1757 779.6176 232.0331 777.6074 238.0999 770.1816 238.8828 768.84 251.5853 779.6605 257.2829 774.8971 267.8209 759.6686 272.9476 753.9225 265.5979 753.7502 257.2718 749.9753 254.2233 748.2361 233.1217 Z"/>
<path d="M 432.3835 208.2109 431.4872 211.7992 444.5239 217.2642 455.8284 246.0539 465.2258 257.5293 473.2845 260.101 488.2796 270.4045 495.0629 268.4454 514.4863 281.4025 514.94 288.0386 524.5386 292.0888 512.7175 308.2451 497.3144 311.764 493.7807 320.34 485.049 325.4485 478.1112 339.4847 469.7474 341.0636 462.437 338.9954 448.0762 346.1653 444.1471 353.3428 428.8892 359.7731 427.3539 364.6932 416.0184 370.771 405.0795 368.1407 394.2604 367.6473 386.9167 363.5717 382.5 364.8557 374.5374 357.9016 361.9193 353.9692 364.0956 348.7642 372.1261 345.8929 371.7686 335.9468 386.5775 315.9649 391.47 316.4346 423.1961 289.4627 436.0008 285.4741 441.6045 281.7564 445.9682 274.347 452.9521 272.1503 441.9811 265.4738 445.2402 257.1606 429.2262 239.5856 426.1788 229.9505 429.7111 225.4011 424.9338 211.5045 432.3835 208.2109 Z"/>
<path d="M 487.6284 418.7183 489.1868 424.0015 481.5426 430.1977 483.6569 442.2866 473.6172 460.1794 467.4465 464.7908 466.6634 470.671 458.8521 487.0619 451.8262 486.9687 452.7247 498.197 442.6839 505.8945 442.7437 515.178 434.9522 517.5409 422.658 517.1707 425.8674 509.2281 433.963 506.5778 426.1472 499.0721 426.0869 486.6405 430.5577 481.2717 428.8473 466.9784 430.5945 454.6399 426.4462 446.6188 423.0004 429.2529 401.5045 429.1613 403.0273 416.4913 413.9757 413.1814 420.5611 397.2363 436.6912 377.0273 487.6284 418.7183 Z"/>
<path d="M 251.4053 382.1824 280.6435 381.8454 280.7696 391.5385 276.7336 397.4524 281.963 405.9999 294.2447 402.4793 301.8286 395.1453 317.6945 398.6602 321.5371 402.661 335.3482 405.9573 337.8376 412.8007 323.3045 416.6891 310.4192 414.1068 299.609 418.3682 294.0438 417.2017 288.8488 433.6682 288.3952 437.155 283.8907 444.267 278.0967 437.8755 269.3694 432.9166 237.9216 434.0167 235.2739 430.5716 223.9464 430.6265 208.6337 425.47 202.8984 426.3732 196.9253 435.1315 195.5105 433.9855 194.9948 428.007 202.5772 420.8859 204.1634 396.4474 207.1694 392.9029 214.3958 396.9445 225.0327 399.0027 234.9513 398.4494 234.1214 393.9493 251.4053 382.1824 Z"/>
<path d="M 195.5105 433.9855 196.9253 435.1315 196.9215 444.4025 190.7589 460.371 183.0744 465.6735 182.6488 474.5584 171.0101 464.6335 123.5163 459.1704 139.8839 452.8042 157.197 448.1019 170.9772 437.7951 178.2769 439.1114 179.5373 433.7734 195.5105 433.9855 Z"/>
<path d="M 236.3771 252.559 236.7384 273.7881 227.7659 278.1236 226.9519 289.1004 218.9342 303.7719 217.6586 314.5127 211.1513 324.4577 206.4968 327.0887 194.9791 343.9566 192.1887 343.3956 176.7598 350.8755 178.3909 358.7601 177.0978 368.6665 165.8555 389.7298 157.5008 393.183 153.9804 385.4014 159.3969 380.3849 161.8705 362.3195 166.909 343.6478 173.5876 334.6581 178.8061 321.6463 191.2441 314.3115 198.8538 304.3205 194.9348 300.6827 199.9145 293.99 201.4386 280.3768 199.2709 274.9276 190.162 273.6655 196.9261 265.1618 208.1699 260.5218 211.6878 255.2153 231.3973 249.661 236.3771 252.559 Z"/>
<path d="M 418.2594 254.1004 425.2697 257.0081 428.8483 263.283 445.9682 274.347 441.6045 281.7564 436.0008 285.4741 423.1961 289.4627 391.47 316.4346 386.5775 315.9649 371.7686 335.9468 372.1261 345.8929 364.0956 348.7642 361.9193 353.9692 345.0082 350.2746 328.3756 356.2759 325.8596 359.594 315.8441 356.7235 313.319 353.1835 314.2281 346.643 324.422 336.4523 329.5614 337.2662 339.5448 325.8161 345.6439 323.252 347.676 310.5637 359.6407 301.4748 361.5387 301.3843 372.6848 294.3314 395.507 283.7304 401.9229 275.4012 405.6379 264.5301 418.2594 254.1004 Z"/>
<path d="M 676.6707 223.0022 689.112 223.0578 701.8516 228.3201 710.9916 224.1324 715.1029 225.8125 719.9062 235.511 716.8402 243.601 707.7063 248.6264 706.427 241.9818 695.0233 243.4214 685.2441 236.1439 676.6707 223.0022 Z"/>
<path d="M 493.7807 320.34 495.2175 324.3245 504.2015 324.597 536.4407 355.0241 525.906 371.4711 501.4816 399.5997 492.925 418.6496 487.6284 418.7183 436.6912 377.0273 420.5611 397.2363 413.9757 413.1814 403.0273 416.4913 401.5045 429.1613 383.0273 438.8409 369.7351 435.8755 350.5662 441.3847 339.9212 437.582 317.9499 432.8561 309.8355 424.3083 301.5677 423.9688 288.8488 433.6682 294.0438 417.2017 299.609 418.3682 310.4192 414.1068 323.3045 416.6891 337.8376 412.8007 335.3482 405.9573 321.5371 402.661 317.6945 398.6602 301.8286 395.1453 294.2447 402.4793 281.963 405.9999 276.7336 397.4524 280.7696 391.5385 280.6435 381.8454 286.3531 375.8248 296.1237 370.5632 302.3222 363.6398 311.7989 356.8414 313.319 353.1835 315.8441 356.7235 325.8596 359.594 328.3756 356.2759 345.0082 350.2746 361.9193 353.9692 374.5374 357.9016 382.5 364.8557 386.9167 363.5717 394.2604 367.6473 405.0795 368.1407 416.0184 370.771 427.3539 364.6932 428.8892 359.7731 444.1471 353.3428 448.0762 346.1653 462.437 338.9954 469.7474 341.0636 478.1112 339.4847 485.049 325.4485 493.7807 320.34 Z"/>
<path d="M 171.4065 100.9814 178.8904 110.708 191.7259 114.2705 191.74 118.3913 207.0893 128.0808 223.1636 126.3881 233.3936 130.3657 238.0833 137.3963 245.8752 138.9131 257.8586 134.9602 258.0593 172.2895 281.5504 173.6056 287.196 179.9866 306.3395 176.824 324.9458 178.7436 339.5653 171.6462 346.253 172.6811 357.2795 169.0864 357.2885 202.6832 349.5582 198.976 340.9238 198.0457 336.2097 193.012 328.8061 202.9676 307.7895 208.6248 297.1818 203.9832 295.8568 207.8555 285.7099 214.0754 285.1244 217.846 273.5375 229.7138 266.8665 227.698 260.4165 220.9821 251.2778 220.3869 242.8353 223.2904 233.1389 229.7496 226.8278 233.0594 216.4295 234.5426 208.4974 223.3007 196.2023 216.6805 191.3018 216.2587 199.7461 167.8729 201.1832 156.71 198.1872 148.5733 190.8793 137.7651 191.4079 127.7155 170.8974 112.7035 171.4065 100.9814 Z"/>
<path d="M 666.9218 92.0103 683.8303 92.0112 685.0244 120.0886 691.6508 124.2628 692.5131 135.3526 705.0276 145.1195 705.2948 151.205 717.4877 160.6498 722.284 154.97 726.4134 157.545 725.0392 165.2979 754.6945 183.933 767.2905 186.9551 769.628 192.2606 783.7373 198.747 788.7218 205.6858 797.868 204.1132 799 208.8269 792.3524 209.148 781.4494 215.2868 763.0302 211.2815 752.2695 213.5234 736.3361 205.6679 727.7136 197.6793 724.0744 181.9448 712.5712 172.9174 707.6988 162.4794 701.8864 157.7305 699.6891 149.7102 691.2691 141.5057 690.3784 134.6512 682.0769 123.9634 683.5625 104.4223 677.2461 101.93 672.855 93.8743 666.9218 92.0103 Z"/>
<path d="M 633.0505 201.5509 642.1412 203.4242 647.9126 201.17 655.7556 210.0551 663.0406 213.0334 666.3067 218.0903 671.8629 219.8067 668.5117 228.0824 656.0356 240.6898 646.5763 239.2058 635.7753 222.6017 631.5435 221.2702 630.9332 211.1125 633.0505 201.5509 Z"/>
<path d="M 669.4578 284.2621 676.5766 279.0444 674.7397 273.3446 682.8318 267.1448 684.7987 269.7428 696.3842 270.6532 705.3736 275.4316 708.9141 268.764 711.8237 279.3345 707.3744 288.5295 719.4847 304.9737 716.1885 304.0837 704.7396 311.2331 696.0125 307.7565 696.6922 301.2484 684.3153 281.3778 676.5031 286.226 669.4578 284.2621 Z"/>
<path d="M 297.1818 203.9832 307.7895 208.6248 328.8061 202.9676 336.2097 193.012 340.9238 198.0457 349.5582 198.976 357.2885 202.6832 359.7841 206.7609 372.813 208.6941 381.6099 214.4481 391.5687 213.6095 387.6728 217.8025 376.2212 226.2361 366.6038 223.2325 359.8059 223.9353 354.9096 229.3436 347.7246 245.1151 342.3061 249.2599 329.8845 248.448 330.1716 232.1104 341.8414 223.6267 336.8069 213.94 327.5633 215.4187 329.3667 225.5352 323.7802 229.0309 314.0882 229.4604 305.3973 224.6888 300.1038 217.8866 303.5758 214.0744 297.1818 203.9832 Z"/>
<path d="M 656.0356 240.6898 668.5117 228.0824 671.8629 219.8067 676.6707 223.0022 685.2441 236.1439 695.0233 243.4214 706.427 241.9818 707.7063 248.6264 716.8402 243.601 716.1316 250.6177 721.954 251.8673 721.7416 256.0599 716.8414 258.8807 716.6462 264.8011 708.9141 268.764 705.3736 275.4316 696.3842 270.6532 684.7987 269.7428 682.8318 267.1448 688.1979 262.4216 678.5499 253.1975 668.265 252.9915 662.5459 249.0133 656.0356 240.6898 Z"/>
<path d="M 537.1221 254.7612 520.7245 261.334 520.1437 255.4799 514.3706 246.8874 518.9002 236.5629 524.8831 231.5977 536.8901 228.7448 539.3831 225.8211 549.8833 224.0626 556.691 235.6001 564.9014 232.1756 568.3462 236.5267 572.4621 251.058 581.6527 253.6053 583.7425 259.6889 573.2249 264.9765 548.6246 254.9621 539.1404 258.3109 537.1221 254.7612 Z"/>
<path d="M 676.6707 223.0022 671.8629 219.8067 666.3067 218.0903 675.2378 208.7097 684.4797 206.5773 691.7524 209.7031 703.0414 209.4782 708.4149 211.577 716.7171 222.2136 724.2871 225.8221 730.0801 224.0089 728.787 230.8631 719.9062 235.511 715.1029 225.8125 710.9916 224.1324 701.8516 228.3201 689.112 223.0578 676.6707 223.0022 Z"/>
<path d="M 167.2918 301.1614 175.611 300.1739 183.2274 305.0253 194.9348 300.6827 198.8538 304.3205 191.2441 314.3115 178.8061 321.6463 173.5876 334.6581 166.909 343.6478 161.8705 362.3195 159.3969 380.3849 153.9804 385.4014 157.5008 393.183 147.2558 404.4055 143.5015 407.1892 133.8234 413.222 127.8831 409.5648 118.8742 413.2477 111.8058 411.1514 125.3376 404.8375 134.3064 402.5361 145.7235 391.0753 144.4742 380.7357 151.4603 368.6732 155.3018 355.1644 162.0579 340.343 165.6544 337.3655 167.6906 327.8176 161.6149 317.8159 167.8331 310.9629 167.2918 301.1614 Z"/>
<path d="M 708.9141 268.764 716.6462 264.8011 716.8414 258.8807 721.7416 256.0599 727.2402 257.7971 732.5638 254.7436 734.3598 248.1204 742.6193 248.126 742.3577 256.0497 753.9225 265.5979 759.6686 272.9476 774.8971 267.8209 744.0246 333.9227 712.7233 401.6959 705.3439 408.1573 702.8417 415.7514 705.0107 421.6052 716.6627 434.1473 718.2079 441.569 701.9875 441.8854 698.6011 439.0127 702.1564 428.1885 697.3344 427.51 690.7923 420.5984 685.0921 410.8788 685.6768 397.3725 687.6718 367.737 685.7049 358.0197 687.7044 349.6016 698.328 340.0149 703.0812 338.8064 709.2747 328.9151 714.247 313.2487 719.4847 304.9737 707.3744 288.5295 711.8237 279.3345 708.9141 268.764 Z"/>
<path d="M 748.2361 233.1217 749.9753 254.2233 753.7502 257.2718 753.9225 265.5979 742.3577 256.0497 742.6193 248.126 734.3598 248.1204 732.5638 254.7436 727.2402 257.7971 721.7416 256.0599 721.954 251.8673 730.0152 239.8159 741.2808 239.2695 748.2361 233.1217 Z"/>
<path d="M 413.1853 249.2777 418.2594 254.1004 405.6379 264.5301 401.9229 275.4012 395.507 283.7304 372.6848 294.3314 361.5387 301.3843 363.316 294.0421 363.9925 285.9988 374.374 270.4863 383.7234 268.435 395.6506 261.5999 405.7824 244.7604 413.1853 249.2777 Z"/>
<path d="M 549.2771 272.3943 565.0965 273.4551 569.879 282.8072 561.025 291.1981 555.7423 299.5975 545.7138 299.335 526.1187 313.8031 503.0033 319.1078 497.7193 318.3606 495.2175 324.3245 493.7807 320.34 497.3144 311.764 512.7175 308.2451 524.5386 292.0888 542.0376 292.1453 548.1765 287.5962 549.2771 272.3943 Z"/>
<path d="M 432.3835 208.2109 437.5915 201.7333 449.5826 205.9497 451.2117 216.466 450.8848 222.4685 458.9789 221.6329 463.4325 234.3806 473.9317 228.3535 481.2003 228.2042 486.526 234.4969 498.4813 235.2545 498.2697 242.0246 514.3706 246.8874 520.1437 255.4799 520.7245 261.334 537.1221 254.7612 539.6381 268.2685 549.2771 272.3943 548.1765 287.5962 542.0376 292.1453 524.5386 292.0888 514.94 288.0386 514.4863 281.4025 495.0629 268.4454 488.2796 270.4045 473.2845 260.101 465.2258 257.5293 455.8284 246.0539 444.5239 217.2642 431.4872 211.7992 432.3835 208.2109 Z"/>
<path d="M 276.7032 240.6857 273.0704 257.3472 268.0702 257.1271 267.5032 249.3486 257.1843 244.9591 236.3771 252.559 231.3973 249.661 211.6878 255.2153 208.1699 260.5218 196.9261 265.1618 190.162 273.6655 180.9965 273.5326 191.3018 216.2587 196.2023 216.6805 208.4974 223.3007 216.4295 234.5426 226.8278 233.0594 233.1389 229.7496 238.8626 235.1167 246.3963 235.0407 256.5128 240.5907 276.7032 240.6857 Z"/>
<path d="M 587.8284 236.7545 598.3121 233.7919 611.4921 246.1294 623.7897 246.3539 631.2064 249.2911 637.3467 248.3137 637.493 253.7147 624.6847 258.2722 616.7753 256.0237 615.8558 248.0562 601.6552 248.6855 587.8693 242.2394 587.8284 236.7545 Z"/>
<path d="M 342.8078 70.2921 351.6495 77.7558 343.1632 83.3915 343.9844 88.3121 339.3306 95.985 352.0639 102.6484 355.1875 115.3489 351.1578 126.1807 342.0121 130.6865 336.2409 129.6486 324.72 135.9029 325.5892 142.1563 322.2446 149.5795 314.8678 148.9339 315.4435 155.4 305.6258 156.2757 288.49 166.3679 281.5504 173.6056 258.0593 172.2895 257.8586 134.9602 245.8752 138.9131 238.0833 137.3963 233.3936 130.3657 223.1636 126.3881 207.0893 128.0808 191.74 118.3913 191.7259 114.2705 178.8904 110.708 171.4065 100.9814 171.5346 78.4403 191.6059 75.2061 197.3648 70.3166 208.5096 76.4384 212.826 68.1374 209.7001 57.2394 204.7126 53.7693 180.6881 54.2433 180.7722 25.0446 194.108 21.7832 201.8033 24.6328 258.2378 24.5455 254.2654 15.5795 268.1416 19.9917 275.5802 10.7857 282.914 11.1253 286.0811 5.7007 293.5096 1 298.6184 17.9231 304.1805 19.1594 306.9225 24.5012 308.0736 37.8276 307.3462 50.4973 317.972 47.588 342.8078 70.2921 Z"/>
<path d="M 204.1634 396.4474 202.5772 420.8859 194.9948 428.007 195.5105 433.9855 179.5373 433.7734 178.2769 439.1114 170.9772 437.7951 157.197 448.1019 139.8839 452.8042 123.5163 459.1704 110.0435 457.6101 118.8028 450.8746 128.0752 438.1934 140.0139 428.7837 144.0562 417.2449 143.5015 407.1892 147.2558 404.4055 156.6228 409.4865 172.851 406.9104 187.247 399.2662 195.0125 400.8606 204.1634 396.4474 Z"/>
<path d="M 387.6728 217.8025 391.2711 223.909 385.5557 227.6106 387.3995 233.7029 373.0913 239.8711 358.3568 264.3763 358.2253 283.4649 363.316 294.0421 361.5387 301.3843 359.6407 301.4748 314.518 301.5206 308.642 293.7947 311.3349 287.3879 311.8896 274.5048 309.7896 261.0823 315.677 249.6004 329.8845 248.448 342.3061 249.2599 347.7246 245.1151 354.9096 229.3436 359.8059 223.9353 366.6038 223.2325 376.2212 226.2361 387.6728 217.8025 Z"/>
</g>
</svg>