<?xml version="1.0"?>
<svg xmlns="http://www.w3.org/2000/svg" version="1.2" baseProfile="tiny" width="800" height="925" viewBox="0 0 800 925" stroke-linecap="round" stroke-linejoin="round">
<g id="16MUE250GC_SIR">
<path d="M 690.0668 494.0789 629.4214 470.2946 566.2055 458.6761 544.8089 473.3642 555.5311 518.3836 457.839 519.3691 502.5 465.7804 513.6304 428.4971 546.3045 445.4126 572.3347 425.5994 677.0615 436.0999 690.0668 494.0789 Z"/>
<path d="M 284.3564 417.0909 315.3701 404.391 373.056 465.2261 383.8245 524.5568 424.9436 569.0541 486.3416 574.731 491.5176 571.7771 504.3053 618.9203 453.1611 620.6686 417.8876 638.052 399.7885 662.9611 367.5616 616.1263 334.0376 599.4165 298.3917 537.3332 315.1984 498.6891 299.6546 480.0513 284.3564 417.0909 Z"/>
<path d="M 712.41 540.3824 735.9816 519.1536 770.1872 535.6058 731.2016 579.8429 637.0859 603.6006 636.0788 571.8842 712.41 540.3824 Z"/>
<path d="M 594.2142 97.6231 586.4219 139.018 590.4927 191.1127 497.0982 339.5866 453.7438 337.5227 390.2294 402.6177 315.3701 404.391 284.3564 417.0909 248.5867 378.2098 295.8676 381.056 349.0433 347.6824 378.7225 281.4587 468.2365 121.4124 512.169 74.8742 515.162 1 539.8056 12.6335 583.5684 59.2762 594.2142 97.6231 Z"/>
<path d="M 399.7885 662.9611 441.6972 651.0028 505.5419 668.6798 526.2551 697.9271 532.5851 725.0609 584.9227 752.1988 507.7127 862.3845 466.3875 874.528 447.1683 837.221 443.1089 787.8285 409.7573 774.1211 374.1874 735.6413 375.9223 686.4985 334.0376 599.4165 367.5616 616.1263 399.7885 662.9611 Z"/>
<path d="M 248.5867 378.2098 284.3564 417.0909 299.6546 480.0513 315.1984 498.6891 298.3917 537.3332 334.0376 599.4165 375.9223 686.4985 374.1874 735.6413 409.7573 774.1211 443.1089 787.8285 447.1683 837.221 466.3875 874.528 434.5276 881.7049 409.7808 862.7589 382.344 868.0266 369.4075 826.4252 343.3831 813.8096 345.2124 784.2399 296.6227 727.7769 265.4551 671.2097 276.7523 622.8583 227.1007 582.2793 197.2653 512.6438 128.2395 487.0493 74.4197 448.3496 10.5853 444.8211 1 404.2195 19.1422 349.7249 60.6347 374.3289 100.8268 379.3726 173.4886 347.5158 248.5867 378.2098 Z"/>
<path d="M 491.5176 571.7771 539.8947 594.3599 560.6188 626.3276 610.8683 664.449 538.6284 657.2128 526.2551 697.9271 505.5419 668.6798 441.6972 651.0028 399.7885 662.9611 417.8876 638.052 453.1611 620.6686 504.3053 618.9203 491.5176 571.7771 Z"/>
<path d="M 690.0668 494.0789 712.41 540.3824 636.0788 571.8842 589.0575 565.1175 561.5641 577.6616 542.9267 559.8318 555.5311 518.3836 544.8089 473.3642 566.2055 458.6761 629.4214 470.2946 690.0668 494.0789 Z"/>
<path d="M 670.0308 385.0804 712.2917 440.1664 755.3317 439.0699 793.9925 459.0907 797.0769 531.7835 770.1872 535.6058 735.9816 519.1536 712.41 540.3824 690.0668 494.0789 677.0615 436.0999 572.3347 425.5994 546.3045 445.4126 513.6304 428.4971 523.013 404.6161 557.8602 405.4406 606.4447 379.0507 670.0308 385.0804 Z"/>
<path d="M 714.5431 631.9715 676.3873 699.2985 654.9911 644.595 681.331 611.0626 714.5431 631.9715 Z"/>
<path d="M 491.5176 571.7771 486.3416 574.731 459.9527 555.9973 457.839 519.3691 555.5311 518.3836 542.9267 559.8318 561.5641 577.6616 589.0575 565.1175 636.0788 571.8842 637.0859 603.6006 610.8683 664.449 560.6188 626.3276 539.8947 594.3599 491.5176 571.7771 Z"/>
<path d="M 382.344 868.0266 409.7808 862.7589 434.5276 881.7049 466.3875 874.528 507.7127 862.3845 504.9651 905.8551 447.3746 924.3255 402.2419 914.41 382.344 868.0266 Z"/>
<path d="M 526.2551 697.9271 538.6284 657.2128 599.4828 749.0371 584.9227 752.1988 532.5851 725.0609 526.2551 697.9271 Z"/>
<path d="M 538.6284 657.2128 610.8683 664.449 637.0859 603.6006 731.2016 579.8429 770.1872 535.6058 797.0769 531.7835 799 568.5973 765.2907 608.6346 714.5431 631.9715 681.331 611.0626 654.9911 644.595 676.3873 699.2985 622.7961 726.4108 599.4828 749.0371 538.6284 657.2128 Z"/>
<path d="M 315.3701 404.391 390.2294 402.6177 453.7438 337.5227 445.7414 361.5493 456.3822 402.8822 448.1262 431.0721 449.1102 497.9969 457.839 519.3691 459.9527 555.9973 486.3416 574.731 424.9436 569.0541 383.8245 524.5568 373.056 465.2261 315.3701 404.391 Z"/>
<path d="M 594.2142 97.6231 605.6069 102.3343 600.9582 172.8421 626.1455 272.452 655.9988 334.7806 670.0308 385.0804 606.4447 379.0507 557.8602 405.4406 523.013 404.6161 513.6304 428.4971 502.5 465.7804 457.839 519.3691 449.1102 497.9969 448.1262 431.0721 456.3822 402.8822 445.7414 361.5493 453.7438 337.5227 497.0982 339.5866 590.4927 191.1127 586.4219 139.018 594.2142 97.6231 Z"/>
</g>
</svg>