<?xml version="1.0"?>
<svg xmlns="http://www.w3.org/2000/svg" version="1.2" baseProfile="tiny" width="800" height="929" viewBox="0 0 800 929" stroke-linecap="round" stroke-linejoin="round">
<g id="16MEE250GC_SIR">
<path d="M 193.3253 335.9608 304.2553 302.2506 435.8753 52.3901 484.3882 1 587.5677 31.3229 582.4344 109.1818 659.0846 345.3905 795.5941 425.2742 799 505.5457 605.2053 551.8749 532.2712 490.7488 424.3939 491.8371 349.7354 362.9134 232.8243 378.8955 193.3253 335.9608 Z"/>
<path d="M 799 505.5457 763.8998 590.4092 661.5358 694.7781 563.2371 749.2291 476.4332 918.6174 363.0003 928.0642 326.7427 830.9062 211.9524 659.5083 224.4274 606.1159 136.6533 484.4106 1 413.4132 30.1602 337.2448 110.3976 302.0667 193.3253 335.9608 232.8243 378.8955 349.7354 362.9134 424.3939 491.8371 532.2712 490.7488 605.2053 551.8749 799 505.5457 Z"/>
</g>
</svg>