<?xml version="1.0"?>
<svg xmlns="http://www.w3.org/2000/svg" version="1.2" baseProfile="tiny" width="800" height="849" viewBox="0 0 800 849" stroke-linecap="round" stroke-linejoin="round">
<g id="29MIE250GC_SIR">
<path d="M 416.4387 187.292 430.2328 197.1257 449.8008 215.3974 456.8127 233.2334 452.622 252.1178 439.3524 261.8952 456.0926 274.2409 453.6 280.3301 451.5581 299.9485 456.9076 314.71 449.3423 326.9666 424.5185 332.1042 419.7836 314.0347 403.6328 308.1118 403.7774 323.1568 390.2612 324.1778 379.6991 304.1954 374.1106 280.2038 350.5817 275.3535 336.2414 276.7944 321.9475 237.504 334.948 214.8515 354.3863 213.9182 364.0651 238.178 380.1966 236.1154 378.638 225.812 393.3131 207.6685 416.4387 187.292 Z"/>
<path d="M 453.6 280.3301 465.663 291.7357 485.4962 300.3145 496.5695 299.2784 496.8352 313.5419 473.9115 333.5625 489.3026 340.0118 488.4892 379.1802 509.2235 390.5305 494.6087 404.8658 478.5747 414.3866 468.5591 427.4986 499.9183 437.226 512.3648 459.6237 498.0997 459.8704 486.994 477.4871 468.9676 465.6131 466.064 448.9762 434.9712 443.9543 444.8634 466.1609 439.2078 468.5705 426.0186 446.1475 404.0723 432.4054 409.6425 413.0925 392.0342 398.2572 390.1597 388.3468 398.8866 377.1738 399.7343 343.8599 390.2612 324.1778 403.7774 323.1568 403.6328 308.1118 419.7836 314.0347 424.5185 332.1042 449.3423 326.9666 456.9076 314.71 451.5581 299.9485 453.6 280.3301 Z"/>
<path d="M 611.5985 428.1118 624.8502 407.7752 646.0849 406.9684 667.8036 405.2977 663.7826 416.3377 669.4715 438.8924 660.8987 453.9641 667.0977 465.3241 661.8924 492.2282 638.2449 498.5654 625.1476 493.86 632.0646 482.1405 622.1099 464.008 630.3012 443.66 628.7783 433.8773 611.5985 428.1118 Z"/>
<path d="M 709.7759 154.7335 724.8531 153.7195 734.588 166.4631 760.6428 165.2687 763.6861 186.7157 748.3602 192.4238 729.3022 188.9839 728.0007 206.3025 749.2109 230.6602 748.117 243.2286 738.9978 251.7002 724.7078 250.2139 721.4447 267.7392 702.4928 252.6416 679.5261 244.2048 679.5263 244.2047 699.1408 224.5066 696.1067 212.4812 680.4062 193.8942 686.8285 170.6764 697.1978 153.2727 709.7759 154.7335 Z"/>
<path d="M 744.1798 90.7583 751.2508 124.3569 762.7426 127.7188 770.5354 155.6785 760.6428 165.2687 734.588 166.4631 724.8531 153.7195 709.7759 154.7335 694.4319 145.0162 671.4405 124.017 662.2653 106.9078 650.8536 95.8812 672.9593 94.8523 705.3051 101.9374 733.9313 98.9098 744.1798 90.7583 Z"/>
<path d="M 321.9531 412.3238 341.5334 426.798 342.841 441.0818 356.1451 445.3948 369.9626 441.0185 371.9873 453.6869 388.0896 461.5628 393.4781 478.3218 381.8757 488.2837 387.4207 525.1221 396.5722 538.1298 385.7298 544.617 376.9634 569.8801 347.2376 555.1553 318.476 534.7701 299.2194 529.8016 277.625 535.7831 270.091 542.4091 241.0063 531.6254 238.5834 518.8413 246.5235 502.7862 253.4381 492.7434 266.1777 451.0349 276.3029 462.6676 293.4693 439.6412 304.2822 414.8208 321.9531 412.3238 Z"/>
<path d="M 496.5695 299.2784 492.6758 284.4238 505.164 279.6511 518.0473 285.975 532.3203 284.9239 541.8665 266.8873 577.012 256.0102 582.2108 275.9134 570.175 288.964 578.0929 296.4388 571.4506 314.9558 562.1192 321.4964 580.0179 344.7261 592.3271 348.4321 586.7921 369.0493 582.9709 375.8975 557.0341 390.976 538.6774 394.379 530.5344 382.0331 509.2235 390.5305 488.4892 379.1802 489.3026 340.0118 473.9115 333.5625 496.8352 313.5419 496.5695 299.2784 Z"/>
<path d="M 586.2595 240.5947 603.5863 231.8161 631.1634 211.0165 665.664 218.0217 671.9873 243.4795 679.5263 244.2047 679.5261 244.2048 689.151 273.5146 672.6534 282.8402 653.714 285.6882 645.7693 298.5068 610.9464 303.5113 582.2108 275.9134 577.012 256.0102 594.1103 253.1724 586.2595 240.5947 Z"/>
<path d="M 581.6719 646.6706 587.8651 644.6422 595.97 644.2329 628.9622 657.3828 647.8873 651.1975 665.3978 654.6754 655.5464 684.4264 642.073 762.2998 648.9681 793.3738 636.7105 808.919 617.8091 820.5079 601.2391 847.7427 555.0262 818.25 559.2042 807.0862 545.349 788.0768 522.5236 769.7516 524.7623 739.0167 531.6361 723.5534 545.4521 713.343 550.4224 696.3508 577.7127 674.5584 586.6942 656.5327 581.6719 646.6706 Z"/>
<path d="M 764.8967 258.6529 775.1499 262.2989 799 259.9715 781.3453 296.2793 756.8412 335.4587 754.3617 323.0096 740.4176 313.8016 730.4198 309.7718 723.9043 296.9045 743.5297 272.3611 763.7779 277.315 764.8967 258.6529 Z"/>
<path d="M 629.7754 93.5492 622.3423 84.4302 629.9654 65.1071 618.3392 25.9859 630.0168 1 639.659 12.8388 665.0923 23.284 678.5163 22.3134 692.518 39.0574 702.5304 35.6658 719.9578 52.4232 730.0155 76.5801 744.1798 90.7583 733.9313 98.9098 705.3051 101.9374 672.9593 94.8523 650.8536 95.8812 629.7754 93.5492 Z"/>
<path d="M 572.6568 203.4311 578.163 235.0254 586.2595 240.5947 594.1103 253.1724 577.012 256.0102 541.8665 266.8873 532.3203 284.9239 518.0473 285.975 505.164 279.6511 492.6758 284.4238 496.5695 299.2784 485.4962 300.3145 465.663 291.7357 453.6 280.3301 456.0926 274.2409 439.3524 261.8952 452.622 252.1178 456.8127 233.2334 449.8008 215.3974 430.2328 197.1257 438.1442 192.3382 449.2519 196.3167 492.6833 179.0213 533.393 189.2159 538.8206 195.7555 572.6568 203.4311 Z"/>
<path d="M 573.8166 496.4565 592.1594 479.094 601.8193 463.2142 590.441 435.5843 611.5985 428.1118 628.7783 433.8773 630.3012 443.66 622.1099 464.008 632.0646 482.1405 625.1476 493.86 638.2449 498.5654 661.8924 492.2282 655.5887 527.5431 661.1367 558.8826 661.7292 584.9991 666.5719 617.6814 673.6776 633.6196 665.3978 654.6754 647.8873 651.1975 628.9622 657.3828 595.97 644.2329 587.8651 644.6422 592.6706 630.4075 604.8018 624.2998 602.4367 613.9059 589.0031 606.1063 583.2636 564.6256 576.3217 556.4738 579.4418 547.5188 595.2259 535.1102 599.5771 512.5466 596.6835 505.6234 578.7665 504.8407 573.8166 496.4565 Z"/>
<path d="M 509.2235 390.5305 530.5344 382.0331 538.6774 394.379 557.0341 390.976 582.9709 375.8975 586.7921 369.0493 614.8303 388.5892 620.7448 382.6572 637.9591 391.9734 646.0849 406.9684 624.8502 407.7752 611.5985 428.1118 590.441 435.5843 601.8193 463.2142 592.1594 479.094 573.8166 496.4565 558.0673 492.3281 556.5062 478.0623 512.3648 459.6237 499.9183 437.226 468.5591 427.4986 478.5747 414.3866 494.6087 404.8658 509.2235 390.5305 Z"/>
<path d="M 220.5112 177.8823 235.0265 160.9008 247.5973 160.9011 263.8094 148.351 290.0702 147.4251 347.3682 176.1108 360.7727 159.9573 365.886 142.8833 387.1822 149.192 401.1643 182.4508 416.4387 187.292 393.3131 207.6685 378.638 225.812 380.1966 236.1154 364.0651 238.178 354.3863 213.9182 334.948 214.8515 321.9475 237.504 336.2414 276.7944 326.4029 282.2694 330.5318 295.013 302.5464 301.8084 315.1884 316.9152 316.7738 328.9261 292.8367 333.0025 298.1251 353.8399 275.9447 347.8954 266.4192 344.0026 246.6457 322.476 235.4711 317.8661 250.9802 304.2906 257.2601 288.3969 247.6215 264.3382 235.7045 224.2529 225.5484 209.4737 236.2311 200.6628 232.8387 188.9213 220.5112 177.8823 Z"/>
<path d="M 678.6722 332.133 691.1023 348.1167 686.1876 378.208 678.4683 398.6683 667.8036 405.2977 646.0849 406.9684 637.9591 391.9734 620.7448 382.6572 617.8597 364.2024 622.832 353.3746 651.0947 342.9545 660.1846 349.304 673.7553 342.0341 678.6722 332.133 Z"/>
<path d="M 591.9847 113.3129 597.7987 136.8604 593.9948 174.3011 602.4437 196.7618 593.2143 209.5935 572.6568 203.4311 538.8206 195.7555 533.393 189.2159 492.6833 179.0213 449.2519 196.3167 438.1442 192.3382 456.3361 158.8984 475.1766 146.1653 465.48 124.6021 502.2398 115.1029 518.5539 117.0378 530.7338 124.3457 549.5058 122.1487 582.702 107.9296 591.9847 113.3129 Z"/>
<path d="M 576.3217 556.4738 583.2636 564.6256 589.0031 606.1063 602.4367 613.9059 604.8018 624.2998 592.6706 630.4075 587.8651 644.6422 581.6719 646.6706 573.9058 646.8304 554.412 630.0972 525.6775 629.6568 513.594 617.8476 475.304 626.9219 458.9575 624.5503 456.2966 602.9216 472.5732 606.4747 493.2276 598.5374 493.3979 589.4011 513.4013 566.5946 533.9321 562.7506 543.1309 569.021 576.3217 556.4738 Z"/>
<path d="M 145.8931 206.4649 140.3703 224.0195 145.9185 243.0298 168.36 248.8159 172.1279 274.884 148.3995 303.0678 154.8447 310.432 187.3616 312.6033 181.3771 326.16 200.6564 326.6812 200.4569 345.4654 212.2166 364.3375 211.9752 376.0572 198.1 397.0077 180.0371 381.8058 165.8208 393.4435 159.5333 385.8874 124.2391 397.5443 88.3355 402.7834 60.3918 412.4495 36.5682 427.0433 25.8588 408.661 32.6525 337.3638 22.0291 325.2284 19.9937 303.6153 29.7721 290.2383 24.1624 278.8024 34.867 262.9716 9.4069 255.3762 1 238.5599 12.1723 231.2487 19.6086 213.5065 29.5804 205.7973 38.6881 182.1866 68.8569 167.3255 81.3063 140.3084 88.8438 136.2002 106.4232 166.9646 103.2125 180.1761 119.7915 198.1029 145.8931 206.4649 Z"/>
<path d="M 630.0168 1 618.3392 25.9859 629.9654 65.1071 622.3423 84.4302 629.7754 93.5492 605.1244 101.4451 591.9847 113.3129 582.702 107.9296 549.5058 122.1487 530.7338 124.3457 518.5539 117.0378 502.2398 115.1029 465.48 124.6021 475.1766 146.1653 456.3361 158.8984 438.1442 192.3382 430.2328 197.1257 416.4387 187.292 401.1643 182.4508 387.1822 149.192 365.886 142.8833 360.7727 159.9573 347.3682 176.1108 290.0702 147.4251 263.8094 148.351 247.5973 160.9011 235.0265 160.9008 248.5992 133.3085 256.7479 126.0675 256.7763 111.5667 246.3732 106.2584 240.5113 88.9095 246.4316 79.6076 276.4186 63.2647 289.6751 76.5974 315.4285 74.9782 329.9239 93.8558 358.2944 83.0842 373.6306 67.6377 415.053 61.197 424.3357 42.6293 440.7459 34.4506 454.6217 14.8459 476.2748 14.5843 494.4676 25.9492 503.1599 47.1287 516.2539 56.3332 509.3262 78.661 520.3005 82.0443 543.4128 72.869 550.6214 47.3479 563.0364 49.7637 577.0547 44.816 583.5641 25.3742 602.5947 21.5717 609.3589 9.9884 630.0168 1 Z"/>
<path d="M 316.7738 328.9261 315.1884 316.9152 302.5464 301.8084 330.5318 295.013 326.4029 282.2694 336.2414 276.7944 350.5817 275.3535 374.1106 280.2038 379.6991 304.1954 390.2612 324.1778 399.7343 343.8599 398.8866 377.1738 390.1597 388.3468 377.9821 418.7835 365.8496 421.6042 369.9626 441.0185 356.1451 445.3948 342.841 441.0818 341.5334 426.798 321.9531 412.3238 322.7465 400.6439 316.0503 384.2462 323.7947 377.1658 324.0262 347.0472 316.7738 328.9261 Z"/>
<path d="M 512.3648 459.6237 556.5062 478.0623 558.0673 492.3281 573.8166 496.4565 578.7665 504.8407 596.6835 505.6234 599.5771 512.5466 595.2259 535.1102 579.4418 547.5188 576.3217 556.4738 543.1309 569.021 533.9321 562.7506 513.4013 566.5946 493.3979 589.4011 493.2276 598.5374 472.5732 606.4747 456.2966 602.9216 448.1366 595.584 454.8279 574.237 468.7166 559.8366 463.3833 539.5463 475.2193 524.2751 481.627 508.3963 479.6748 498.282 486.994 477.4871 498.0997 459.8704 512.3648 459.6237 Z"/>
<path d="M 267.9026 355.2963 275.9447 347.8954 298.1251 353.8399 292.8367 333.0025 316.7738 328.9261 324.0262 347.0472 323.7947 377.1658 316.0503 384.2462 322.7465 400.6439 321.9531 412.3238 304.2822 414.8208 293.4693 439.6412 276.3029 462.6676 266.1777 451.0349 253.4381 492.7434 246.5235 502.7862 218.4443 495.8453 192.0635 497.7916 194.9804 477.8521 224.2467 462.837 243.8288 448.1282 233.5322 443.6163 243.2053 429.1361 239.6679 410.6448 255.6347 401.3795 254.9126 380.9695 264.8841 379.374 267.9026 355.2963 Z"/>
<path d="M 145.8931 206.4649 200.4877 175.1335 220.5112 177.8823 232.8387 188.9213 236.2311 200.6628 225.5484 209.4737 235.7045 224.2529 247.6215 264.3382 257.2601 288.3969 250.9802 304.2906 235.4711 317.8661 246.6457 322.476 266.4192 344.0026 275.9447 347.8954 267.9026 355.2963 212.2166 364.3375 200.4569 345.4654 200.6564 326.6812 181.3771 326.16 187.3616 312.6033 154.8447 310.432 148.3995 303.0678 172.1279 274.884 168.36 248.8159 145.9185 243.0298 140.3703 224.0195 145.8931 206.4649 Z"/>
<path d="M 390.1597 388.3468 392.0342 398.2572 409.6425 413.0925 404.0723 432.4054 426.0186 446.1475 439.2078 468.5705 415.7574 471.1722 409.6815 478.0456 393.4781 478.3218 388.0896 461.5628 371.9873 453.6869 369.9626 441.0185 365.8496 421.6042 377.9821 418.7835 390.1597 388.3468 Z"/>
<path d="M 393.4781 478.3218 409.6815 478.0456 415.7574 471.1722 439.2078 468.5705 444.8634 466.1609 434.9712 443.9543 466.064 448.9762 468.9676 465.6131 486.994 477.4871 479.6748 498.282 481.627 508.3963 475.2193 524.2751 463.3833 539.5463 468.7166 559.8366 454.8279 574.237 448.1366 595.584 418.2808 568.7923 392.6916 575.8398 376.9634 569.8801 385.7298 544.617 396.5722 538.1298 387.4207 525.1221 381.8757 488.2837 393.4781 478.3218 Z"/>
<path d="M 701.8834 323.9535 714.8426 319.0655 723.925 324.2353 740.4176 313.8016 754.3617 323.0096 756.8412 335.4587 744.9472 351.8602 728.3535 349.2148 697.3732 354.8614 691.1023 348.1167 678.6722 332.133 692.1288 332.489 701.8834 323.9535 Z"/>
<path d="M 689.151 273.5146 700.564 279.0515 695.1595 291.854 696.7387 316.8999 701.8834 323.9535 692.1288 332.489 678.6722 332.133 673.7553 342.0341 660.1846 349.304 651.0947 342.9545 622.832 353.3746 617.8597 364.2024 620.7448 382.6572 614.8303 388.5892 586.7921 369.0493 592.3271 348.4321 580.0179 344.7261 562.1192 321.4964 571.4506 314.9558 578.0929 296.4388 570.175 288.964 582.2108 275.9134 610.9464 303.5113 645.7693 298.5068 653.714 285.6882 672.6534 282.8402 689.151 273.5146 Z"/>
<path d="M 591.9847 113.3129 605.1244 101.4451 629.7754 93.5492 650.8536 95.8812 662.2653 106.9078 671.4405 124.017 694.4319 145.0162 709.7759 154.7335 697.1978 153.2727 686.8285 170.6764 680.4062 193.8942 696.1067 212.4812 699.1408 224.5066 679.5263 244.2047 671.9873 243.4795 665.664 218.0217 631.1634 211.0165 603.5863 231.8161 586.2595 240.5947 578.163 235.0254 572.6568 203.4311 593.2143 209.5935 602.4437 196.7618 593.9948 174.3011 597.7987 136.8604 591.9847 113.3129 Z"/>
<path d="M 691.1023 348.1167 697.3732 354.8614 728.3535 349.2148 744.9472 351.8602 726.4526 373.9769 706.9545 388.0473 691.8282 388.0847 678.4683 398.6683 686.1876 378.208 691.1023 348.1167 Z"/>
<path d="M 748.117 243.2286 764.8967 258.6529 763.7779 277.315 743.5297 272.3611 723.9043 296.9045 730.4198 309.7718 740.4176 313.8016 723.925 324.2353 714.8426 319.0655 701.8834 323.9535 696.7387 316.8999 695.1595 291.854 700.564 279.0515 689.151 273.5146 679.5261 244.2048 702.4928 252.6416 721.4447 267.7392 724.7078 250.2139 738.9978 251.7002 748.117 243.2286 Z"/>
<path d="M 212.2166 364.3375 267.9026 355.2963 264.8841 379.374 254.9126 380.9695 255.6347 401.3795 239.6679 410.6448 243.2053 429.1361 233.5322 443.6163 243.8288 448.1282 224.2467 462.837 194.9804 477.8521 192.0635 497.7916 157.4964 516.9833 152.4343 524.8052 123.2911 537.9182 105.5544 553.4004 94.6548 554.6729 76.0272 570.6537 50.676 570.2679 57.4025 557.0571 51.2085 549.174 57.9079 498.6868 32.383 482.4839 32.2867 446.8754 40.2722 438.2664 36.5682 427.0433 60.3918 412.4495 88.3355 402.7834 124.2391 397.5443 159.5333 385.8874 165.8208 393.4435 180.0371 381.8058 198.1 397.0077 211.9752 376.0572 212.2166 364.3375 Z"/>
</g>
</svg>