<?xml version="1.0"?>
<svg xmlns="http://www.w3.org/2000/svg" version="1.2" baseProfile="tiny" width="800" height="619" viewBox="0 0 800 619" stroke-linecap="round" stroke-linejoin="round">
<g id="31MIE250GC_SIR">
<path d="M 435.7855 490.2155 438.6557 494.6751 445.778 498.2141 451.2472 497.5348 467.0503 507.6986 470.9698 519.4047 467.4108 523.5014 455.448 528.2562 446.1715 524.2731 440.8898 527.2117 430.5087 527.6403 428.3201 522.197 428.9048 512.2956 422.9418 507.0746 412.6919 509.1677 404.2356 502.9882 407.3109 495.921 407.7986 487.3389 412.3679 491.5685 435.7855 490.2155 Z"/>
<path d="M 612.7249 173.8225 615.8694 170.4519 612.7847 160.6907 624.5241 161.1524 637.9179 158.1504 639.4669 153.5412 649.7366 154.5023 653.4553 149.8872 667.2037 157.6019 667.6618 164.7471 671.7954 172.9787 677.7326 177.9242 692.1904 170.3398 697.0678 173.835 691.0653 188.8549 697.6807 199.4885 694.4675 201.6985 693.1439 212.5819 694.7677 217.0032 685.1941 220.3375 671.6981 213.7688 668.2742 216.9457 659.7724 232.7828 652.6588 234.9948 646.3987 242.697 637.4152 238.9041 632.585 228.7 639.8573 224.0236 640.4906 214.1572 630.2092 204.161 627.8562 196.5933 634.2672 191.9957 633.2179 188.548 622.1224 187.2507 611.6516 177.94 612.7249 173.8225 Z"/>
<path d="M 120.2992 313.7744 116.0127 328.7798 130.8279 335.2283 132.9138 343.8721 129.1309 349.4819 120.0544 348.686 116.8236 358.5534 113.0102 356.9848 108.5914 365.0947 100.312 363.4895 98.5028 359.5894 78.0051 361.199 66.9299 353.9377 61.0562 360.584 46.9938 355.6596 36.6528 357.2804 22.6807 355.0563 28.0243 349.3771 33.882 349.6034 40.2969 340.7231 39.5403 334.97 43.9798 332.2538 53.176 318.4633 63.8882 315.8675 69.8964 316.4303 74.174 311.2326 91.0326 314.2262 108.2407 306.1019 117.7812 314.4737 120.2992 313.7744 Z"/>
<path d="M 471.7797 421.6569 483.0861 423.8847 485.7164 429.4926 491.8218 426.6026 494.612 432.3817 499.6245 433.5051 506.042 429.6265 509.5413 441.531 498.9521 455.2317 488.1607 447.9591 481.0079 452.8811 473.803 442.5338 465.6151 445.7343 458.7179 440.0204 464.5421 423.3554 471.7797 421.6569 Z"/>
<path d="M 269.3881 271.4033 277.1385 268.498 283.277 277.0607 283.2737 282.9213 293.6515 282.6492 295.2506 287.2827 289.9674 288.816 292.3299 297.4878 300.6748 305.9204 303.3175 313.909 300.2911 316.2182 304.643 327.1145 304.1936 333.935 310.6743 335.2755 316.0052 331.2212 318.5561 340.2098 324.9362 335.131 331.4564 345.3255 322.312 353.5943 325.4873 362.1799 302.2107 362.3668 291.017 359.235 283.3683 352.8383 267.0039 348.9156 254.4825 349.3042 246.943 344.278 239.0103 334.3026 238.0637 327.7058 227.2629 327.6194 227.3146 319.2795 232.7917 310.9109 233.3119 305.1612 227.8986 300.5151 235.4206 297.7472 246.0123 290.8335 249.0284 283.5784 258.4741 280.4394 269.3881 271.4033 Z"/>
<path d="M 757.8639 189.1387 754.5441 188.3826 750.0279 195.9394 747.4846 207.7413 749.2017 217.7456 745.3545 220.4873 746.176 227.1674 751.0378 228.8954 756.038 237.7838 764.9654 242.2523 773.5387 250.831 776.3708 257.9005 769.9935 262.9257 755.7875 263.3671 751.9303 260.9573 738.6037 270.1791 731.1524 265.067 724.4284 267.5033 719.7074 265.0093 711.5135 268.4604 706.5498 261.5646 711.2173 256.7194 707.4019 243.4706 711.296 240.2248 719.8736 240.0072 722.9282 232.0042 717.4198 222.9211 704.6474 217.2265 702.828 213.1326 708.8347 205.3198 703.6284 199.8808 710.7875 193.2002 717.4723 192.1986 723.101 184.0313 728.3266 187.5992 743.9636 182.0515 750.6657 183.0219 757.8639 189.1387 Z"/>
<path d="M 602.5155 481.4649 592.4577 496.9392 582.3754 509.0095 565.2569 510.8226 554.0953 513.3861 550.2387 509.097 550.3314 502.5953 543.3687 500.32 545.0774 493.7207 549.6702 489.0547 558.2168 485.8526 557.8883 479.9234 571.7869 474.0096 577.7853 480.73 581.4365 472.4283 599.7152 476.0818 602.5155 481.4649 Z"/>
<path d="M 440.4129 542.1209 440.8898 527.2117 446.1715 524.2731 455.448 528.2562 467.4108 523.5014 470.9698 519.4047 476.3128 524.7057 484.2133 523.5724 498.0052 529.7188 498.4332 534.5394 496.4648 544.9205 505.1611 550.6698 503.3912 555.3614 494.7241 553.467 487.962 561.3495 490.7232 570.0576 486.6307 572.7157 472.6197 571.6907 468.0805 575.423 456.0266 580.3414 463.3278 565.1453 455.4714 560.0098 447.2603 544.392 440.4129 542.1209 Z"/>
<path d="M 387.1041 416.3374 388.5267 420.7351 399.6454 425.8699 402.8978 431.5656 414.4372 425.5876 422.8831 426.7827 424.0102 433.3099 428.982 436.4836 436.4588 432.8432 440.5673 439.1023 439.8622 444.7507 431.2924 447.095 430.8773 455.2776 426.1188 464.2094 421.732 458.7859 402.8911 458.0934 390.3943 460.1187 379.8695 463.5226 363.1873 453.0679 368.7194 449.6956 368.803 443.5617 376.4634 431.9865 384.6464 431.836 387.1041 416.3374 Z"/>
<path d="M 482.5992 247.1759 495.2391 240.9202 499.2524 228.7201 509.2254 237.7863 514.8787 256.6023 520.3714 263.1071 516.3595 270.3327 508.0174 272.7476 509.383 276.9663 502.449 283.6476 504.3442 293.1234 515.9654 296.9447 512.8854 302.8587 499.0596 309.2954 503.6085 316.1137 506.9153 327.1247 504.0557 333.2264 488.0281 336.3714 470.956 351.4984 466.2712 351.4457 458.211 356.2897 454.0045 354.5061 454.8165 343.9158 447.358 339.0253 448.1691 331.1037 433.184 327.2059 422.7279 328.2531 418.1058 325.1339 421.0818 311.2049 429.0422 304.283 437.7088 304.419 441.7799 299.5838 445.6675 289.6633 446.0789 280.6946 451.1962 278.4347 453.039 274.6737 465.123 271.9675 473.0548 273.8727 475.9417 263.8115 481.9688 262.0442 482.5992 247.1759 Z"/>
<path d="M 468.0022 385.3806 475.6425 381.1082 486.1901 380.9884 490.8965 386.8918 500.0475 379.9161 509.1622 376.3599 511.5465 381.1763 519.0453 383.3902 519.7669 391.3174 531.8864 390.2382 536.5939 393.8376 537.6278 405.408 533.5473 405.5994 525.2618 415.5162 527.8387 420.0983 515.2009 424.1023 506.042 429.6265 499.6245 433.5051 494.612 432.3817 491.8218 426.6026 485.7164 429.4926 483.0861 423.8847 471.7797 421.6569 464.8691 408.8006 479.1181 403.7982 467.9146 389.0702 468.0022 385.3806 Z"/>
<path d="M 348.982 468.2441 351.7115 462.2625 359.0627 460.6421 363.1873 453.0679 379.8695 463.5226 398.7698 483.9531 407.7986 487.3389 407.3109 495.921 404.2356 502.9882 412.6919 509.1677 422.9418 507.0746 428.9048 512.2956 428.3201 522.197 430.5087 527.6403 440.8898 527.2117 440.4129 542.1209 431.2494 541.6294 429.4577 538.094 417.3291 537.7405 407.0317 540.3615 407.8922 548.79 401.0853 552.1461 395.3461 539.1313 387.9192 536.5263 381.9083 530.7987 384.8394 524.8757 383.4707 513.4301 372.9231 510.5862 373.2932 505.3739 364.1284 499.1646 363.5133 488.5651 368.8761 478.3815 356.389 469.8312 348.982 468.2441 Z"/>
<path d="M 386.2081 302.8595 387.3892 298.3237 395.9502 291.0457 403.1718 291.125 409.4778 284.2287 413.1325 284.2429 418.0444 267.6171 423.8936 263.5503 430.7487 269.0285 431.4893 272.7798 451.1962 278.4347 446.0789 280.6946 445.6675 289.6633 441.7799 299.5838 437.7088 304.419 429.0422 304.283 421.0818 311.2049 418.1058 325.1339 422.7279 328.2531 433.184 327.2059 448.1691 331.1037 447.358 339.0253 454.8165 343.9158 454.0045 354.5061 449.904 365.111 440.9871 373.8801 432.6639 371.3394 427.7566 362.0188 415.387 358.9896 406.6405 362.2483 403.427 359.0179 376.8946 355.1641 376.2784 351.014 381.1587 342.0501 386.3995 323.906 382.8313 319.0125 388.2995 309.3121 386.2081 302.8595 Z"/>
<path d="M 473.4679 461.9393 486.615 462.6456 501.1438 468.3672 509.045 477.2696 503.8772 481.6411 508.7671 488.7107 502.7626 494.1014 503.1282 508.3477 499.66 511.4751 499.6138 519.3526 499.7645 524.3923 505.0151 530.0647 498.4332 534.5394 498.0052 529.7188 484.2133 523.5724 476.3128 524.7057 470.9698 519.4047 467.0503 507.6986 451.2472 497.5348 452.5838 492.8276 459.1654 487.4746 456.4851 475.207 459.9523 469.0033 466.7803 470.6041 473.4679 461.9393 Z"/>
<path d="M 697.6807 199.4885 703.6284 199.8808 708.8347 205.3198 702.828 213.1326 704.6474 217.2265 717.4198 222.9211 722.9282 232.0042 719.8736 240.0072 711.296 240.2248 707.4019 243.4706 711.2173 256.7194 706.5498 261.5646 711.5135 268.4604 719.7074 265.0093 724.4284 267.5033 733.6385 276.1581 728.5198 279.1713 723.9406 276.6764 713.7672 280.2625 706.1369 290.4703 704.5024 299.837 695.236 302.4824 696.9333 291.8677 694.0804 288.1313 675.8405 287.0227 670.3674 278.0987 676.5011 271.3657 669.7673 262.213 660.4691 264.1786 657.9369 271.4437 652.226 276.825 642.6131 278.8864 633.0514 267.9943 626.0673 257.8107 627.1323 253.3921 630.9264 249.9123 626.1459 238.8144 632.585 228.7 637.4152 238.9041 646.3987 242.697 652.6588 234.9948 659.7724 232.7828 668.2742 216.9457 671.6981 213.7688 685.1941 220.3375 694.7677 217.0032 693.1439 212.5819 694.4675 201.6985 697.6807 199.4885 Z"/>
<path d="M 660.2712 399.1551 657.4354 406.1533 664.9386 410.9756 670.644 406.9938 688.0979 425.8226 663.5003 425.8771 661.6898 432.1253 656.6183 436.1268 658.603 445.589 653.361 452.5342 646.5945 450.5012 632.7073 442.0595 626.3766 450.2139 619.1157 453.1274 617.0947 452.3027 618.6447 447.132 615.1476 442.1824 608.2322 440.3563 606.3882 435.6501 609.9748 425.227 618.9824 419.8036 624.1067 420.9696 634.5117 410.3999 642.1725 407.5799 648.0518 402.6911 654.035 402.9009 660.2712 399.1551 Z"/>
<path d="M 707.3058 109.5928 717.0387 105.4414 738.8253 102.123 748.7722 111.8442 754.2622 109.8602 761.8332 112.9001 772.4259 112.2066 777.3907 119.3219 781.8458 119.3058 788.4729 125.9811 791.8131 125.2809 799 133.9678 791.6066 148.8062 785.5393 155.9492 781.4219 157.0169 776.4617 167.0319 769.1417 166.7453 765.0503 180.7329 770.9005 185.1267 768.7033 190.121 757.8639 189.1387 750.6657 183.0219 743.9636 182.0515 728.3266 187.5992 723.101 184.0313 717.4723 192.1986 710.7875 193.2002 703.6284 199.8808 697.6807 199.4885 691.0653 188.8549 697.0678 173.835 692.1904 170.3398 684.4061 163.0612 683.8509 157.3115 695.8796 149.6018 695.4747 143.1112 701.9427 131.0078 721.8767 132.7536 723.1193 124.0527 718.8125 121.2675 715.2545 111.545 707.3058 109.5928 Z"/>
<path d="M 642.6131 278.8864 652.226 276.825 657.9369 271.4437 660.4691 264.1786 669.7673 262.213 676.5011 271.3657 670.3674 278.0987 675.8405 287.0227 694.0804 288.1313 696.9333 291.8677 695.236 302.4824 687.76 306.3963 680.9729 306.635 681.8939 313.5828 692.8004 323.1824 698.6572 330.2827 691.9708 341.4099 679.5378 342.4861 673.4598 348.1146 667.2676 359.2931 661.6408 355.3449 654.158 355.3824 648.2725 349.8794 645.1408 356.2704 635.2621 363.0199 629.581 350.928 636.7578 343.4998 620.3292 334.5059 621.0648 321.5659 620.3263 314.5724 616.227 311.9538 618.7283 295.1014 621.9618 293.9027 631.3145 297.2751 631.9322 284.1528 642.739 282.4086 642.6131 278.8864 Z"/>
<path d="M 408.3769 562.25 400.3444 559.3884 401.0853 552.1461 407.8922 548.79 407.0317 540.3615 417.3291 537.7405 429.4577 538.094 431.2494 541.6294 440.4129 542.1209 447.2603 544.392 455.4714 560.0098 463.3278 565.1453 456.0266 580.3414 451.4788 579.4888 444.3047 584.2952 424.8637 588.7001 431.0783 578.0365 427.4825 566.8171 419.3839 567.9348 408.3769 562.25 Z"/>
<path d="M 509.045 477.2696 519.1149 472.044 530.7021 472.2502 535.1947 474.4616 539.3147 490.6428 545.0774 493.7207 543.3687 500.32 525.815 509.8929 528.5547 517.9196 525.9554 520.1939 509.8617 518.4139 499.6138 519.3526 499.66 511.4751 503.1282 508.3477 502.7626 494.1014 508.7671 488.7107 503.8772 481.6411 509.045 477.2696 Z"/>
<path d="M 282.3584 459.7659 290.6284 465.3015 300.6203 476.4233 307.6081 478.0889 313.4956 474.8566 317.4832 485.5868 323.306 487.543 327.8703 482.0577 335.3253 481.7006 346.1555 507.8398 343.733 512.5203 335.3947 520.0722 337.8784 523.3213 324.375 522.7642 323.8606 514.4608 314.6122 510.3792 302.5894 508.576 297.1695 512.0832 288.6352 512.3323 285.8316 500.0235 280.7419 494.4172 279.309 481.186 272.4406 474.2607 277.4902 461.2914 282.3584 459.7659 Z"/>
<path d="M 563.1721 347.9784 571.7902 344.6645 578.625 350.6253 592.7603 350.671 594.2613 363.4914 590.5643 368.5313 583.743 370.2597 581.1374 376.4579 574.3792 381.0169 578.3856 390.7336 588.6609 395.781 608.3679 397.4868 611.9933 393.427 606.8601 402.9606 600.7268 405.9398 598.9313 410.697 579.7788 413.6613 572.9161 422.7793 563.2254 423.7633 554.0069 426.4028 550.2225 421.0877 538.3564 420.3493 533.2376 426.638 527.8387 420.0983 525.2618 415.5162 533.5473 405.5994 537.6278 405.408 536.5939 393.8376 531.8864 390.2382 519.7669 391.3174 519.0453 383.3902 523.5762 378.9999 529.4135 379.6475 537.3593 376.9687 540.4533 369.6993 547.4293 370.3211 551.5344 376.2808 561.5597 367.4307 566.8407 356.7422 563.1721 347.9784 Z"/>
<path d="M 609.3752 53.3138 614.5627 58.9048 627.468 63.4051 635.0725 61.5102 639.301 67.5431 649.4734 67.0597 660.3654 61.7417 692.0513 90.2112 693.922 107.5442 692.8424 111.8497 686.4836 116.5603 682.6138 115.7575 667.537 128.4872 668.2441 137.2577 653.9692 140.249 650.966 145.92 653.4553 149.8872 649.7366 154.5023 639.4669 153.5412 637.9179 158.1504 624.5241 161.1524 612.7847 160.6907 609.7131 144.7926 601.5294 137.386 595.7927 137.138 592.0482 121.0216 588.1661 118.7405 591.8376 110.4387 588.8119 96.5881 593.0866 87.6189 588.3523 71.7302 590.2282 66.3319 603.4234 59.0931 609.3752 53.3138 Z"/>
<path d="M 509.5413 441.531 524.0425 444.0351 527.644 442.0318 533.4605 447.3856 531.9988 451.2084 542.133 456.2172 543.4638 462.4501 535.0242 465.3482 530.7021 472.2502 519.1149 472.044 509.045 477.2696 501.1438 468.3672 486.615 462.6456 473.4679 461.9393 481.0079 452.8811 488.1607 447.9591 498.9521 455.2317 509.5413 441.531 Z"/>
<path d="M 627.1323 253.3921 626.0673 257.8107 633.0514 267.9943 642.6131 278.8864 642.739 282.4086 631.9322 284.1528 631.3145 297.2751 621.9618 293.9027 618.7283 295.1014 616.227 311.9538 620.3263 314.5724 621.0648 321.5659 608.2538 320.7658 594.9332 313.8253 597.2603 310.361 596.546 298.0476 594.2058 288.7587 587.3069 280.0015 587.0358 275.4651 596.0128 275.0183 606.0751 264.7702 611.3738 263.3821 612.9572 256.7606 617.0282 253.8422 627.1323 253.3921 Z"/>
<path d="M 582.3754 509.0095 592.4577 496.9392 608.1449 498.8521 617.9447 503.9153 629.3528 506.8993 627.7921 516.8424 619.8585 526.5469 626.9371 533.5763 620.6399 535.2928 583.2904 550.8556 581.2793 553.0991 580.5381 548.7384 584.6193 539.2056 582.9656 528.3604 585.6987 520.1373 581.3464 518.902 582.3754 509.0095 Z"/>
<path d="M 367.5742 133.4825 370.6648 137.9259 378.592 135.0747 388.3553 138.4996 396.157 144.2428 406.1022 149.0312 415.587 144.7689 426.4751 136.2624 428.8767 143.1671 428.1612 151.8504 429.4785 156.0804 423.9758 160.1844 426.6208 173.5708 431.8242 179.719 446.2338 174.779 455.4262 174.3753 458.2468 181.2058 469.2335 196.797 470.5387 202.3834 478.6914 193.665 483.3331 196.6384 478.5266 204.9646 484.3054 208.4393 480.0488 214.9647 473.3948 222.7387 473.5428 229.0647 470.0614 240.2086 475.2861 246.5225 482.5992 247.1759 481.9688 262.0442 475.9417 263.8115 473.0548 273.8727 465.123 271.9675 453.039 274.6737 451.1962 278.4347 431.4893 272.7798 430.7487 269.0285 423.8936 263.5503 418.0444 267.6171 400.3453 262.5499 398.9335 256.4641 403.4133 244.8344 404.7758 234.3539 396.2514 229.3215 392.1294 224.3924 396.1586 220.179 397.5089 210.1218 394.4465 204.1942 396.3171 195.5957 387.9987 188.2827 380.7576 189.9123 371.1577 183.6685 368.8136 175.9753 361.4824 175.3495 368.5166 157.8684 364.2753 154.2308 350.2566 152.8366 341.1726 148.6856 346.8289 142.9715 354.9303 140.9134 358.0321 129.6183 361.7451 126.959 367.5742 133.4825 Z"/>
<path d="M 506.042 429.6265 515.2009 424.1023 527.8387 420.0983 533.2376 426.638 538.3564 420.3493 550.2225 421.0877 554.0069 426.4028 563.2254 423.7633 563.6162 447.6107 556.9784 450.1797 553.1666 446.6141 546.1096 450.1209 542.133 456.2172 531.9988 451.2084 533.4605 447.3856 527.644 442.0318 524.0425 444.0351 509.5413 441.531 506.042 429.6265 Z"/>
<path d="M 324.375 522.7642 337.8784 523.3213 349.0528 523.7274 355.1359 543.6506 342.7417 563.7176 344.8491 576.5477 341.0447 581.2814 331.2541 581.8192 328.3248 590.9664 315.8334 584.8438 309.919 576.2676 313.0382 566.9018 317.1575 564.4764 311.9978 556.4295 315.0333 552.0933 311.5997 542.1332 316.2312 537.0883 324.375 522.7642 Z"/>
<path d="M 295.2506 287.2827 306.9283 290.8523 314.2318 297.3896 338.8971 308.1934 351.0538 304.9839 363.2976 306.3727 372.3974 310.9496 377.0486 301.7967 386.2081 302.8595 388.2995 309.3121 382.8313 319.0125 386.3995 323.906 381.1587 342.0501 376.2784 351.014 370.4994 364.013 367.8241 378.1765 364.5441 383.1888 355.9307 386.1597 350.9174 378.8307 349.7917 369.0632 340.4716 370.5739 333.0304 368.4525 330.7761 363.3832 325.4873 362.1799 322.312 353.5943 331.4564 345.3255 324.9362 335.131 318.5561 340.2098 316.0052 331.2212 310.6743 335.2755 304.1936 333.935 304.643 327.1145 300.2911 316.2182 303.3175 313.909 300.6748 305.9204 292.3299 297.4878 289.9674 288.816 295.2506 287.2827 Z"/>
<path d="M 408.3769 562.25 419.3839 567.9348 427.4825 566.8171 431.0783 578.0365 424.8637 588.7001 420.4641 592.1249 402.9194 600.2368 391.8333 600.5828 380.1316 597.8886 369.5148 597.6394 363.9599 591.4785 366.3234 587.4475 373.2543 590.0666 382.268 589.3782 385.6366 573.3164 394.2428 579.8061 400.3784 579.0093 405.7972 572.3353 404.1118 565.7409 408.3769 562.25 Z"/>
<path d="M 695.236 302.4824 704.5024 299.837 715.8285 301.098 713.8413 313.7138 721.6431 317.6463 720.0445 328.4778 700.1241 329.3771 698.6572 330.2827 692.8004 323.1824 681.8939 313.5828 680.9729 306.635 687.76 306.3963 695.236 302.4824 Z"/>
<path d="M 228.7514 346.5017 232.4649 342.5516 240.0774 343.6739 239.0103 334.3026 246.943 344.278 254.4825 349.3042 267.0039 348.9156 283.3683 352.8383 291.017 359.235 302.2107 362.3668 325.4873 362.1799 330.7761 363.3832 333.0304 368.4525 340.4716 370.5739 349.7917 369.0632 350.9174 378.8307 355.9307 386.1597 352.1571 395.7521 343.5178 395.7716 335.3052 402.1869 323.0658 401.0234 315.6128 408.3024 315.9888 414.0071 303.5799 412.9439 296.1981 424.0666 273.0804 426.7534 270.8905 422.5294 260.4528 416.8432 254.6434 408.9345 250.5928 403.5434 245.115 379.7958 234.9984 376.9793 232.7781 366.9038 233.3711 357.9244 228.7514 346.5017 Z"/>
<path d="M 534.4615 194.5855 534.3601 202.2414 540.4382 209.9467 554.674 206.8291 567.3695 206.7149 569.8696 213.1747 565.2951 218.8786 558.538 221.7397 559.3148 226.7141 554.869 225.3872 548.3747 234.43 538.9518 237.1099 531.2509 242.0584 531.5343 250.6511 520.3714 263.1071 514.8787 256.6023 509.2254 237.7863 499.2524 228.7201 495.2391 240.9202 482.5992 247.1759 475.2861 246.5225 470.0614 240.2086 473.5428 229.0647 473.3948 222.7387 480.0488 214.9647 487.6179 216.9866 491.8427 210.733 502.0759 205.2326 504.6178 199.9978 513.2009 190.3336 519.6724 189.2264 534.4615 194.5855 Z"/>
<path d="M 379.8695 463.5226 390.3943 460.1187 402.8911 458.0934 421.732 458.7859 426.1188 464.2094 431.4607 471.3684 426.7827 476.8019 428.5671 485.2886 435.7855 490.2155 412.3679 491.5685 407.7986 487.3389 398.7698 483.9531 379.8695 463.5226 Z"/>
<path d="M 536.9611 41.3689 539.5154 46.1547 531.0827 61.2504 518.409 62.5284 502.3968 58.7395 498.6035 68.4808 508.6005 76.5035 508.4794 85.7306 503.3869 90.5613 499.6152 88.2999 495.1308 98.4043 486.8659 102.7193 480.7833 114.1489 472.176 113.4109 474.1721 120.7684 467.2971 130.9064 461.8505 131.7836 434.9972 151.0837 428.1612 151.8504 428.8767 143.1671 426.4751 136.2624 415.587 144.7689 406.1022 149.0312 396.157 144.2428 388.3553 138.4996 378.592 135.0747 370.6648 137.9259 367.5742 133.4825 374.7328 130.2798 380.6967 116.2857 391.0602 104.8174 389.3783 86.0085 380.3166 85.7791 380.8552 71.7521 379.4329 63.1173 393.963 50.1189 402.9354 49.0714 417.5359 36.3268 425.3613 36.9159 428.7956 32.4612 441.5259 25.5324 445.693 19.0935 463.1405 7.5595 468.6937 6.6503 479.2248 1 495.8641 1.6932 499.8548 3.6187 515.7547 5.7278 517.7731 7.3065 512.4422 20.623 514.4367 31.1466 536.205 38.7794 536.9611 41.3689 Z"/>
<path d="M 621.0648 321.5659 620.3292 334.5059 611.5847 337.1426 606.1684 336.1654 604.1145 341.4099 592.7603 350.671 578.625 350.6253 571.7902 344.6645 563.1721 347.9784 555.0456 348.8512 559.105 340.1363 563.6797 337.7255 559.9758 330.2492 559.488 315.6337 563.5014 302.6804 566.9123 298.2624 584.1853 294.4496 578.747 285.2643 584.3335 277.2637 587.0358 275.4651 587.3069 280.0015 594.2058 288.7587 596.546 298.0476 597.2603 310.361 594.9332 313.8253 608.2538 320.7658 621.0648 321.5659 Z"/>
<path d="M 358.59 545.6483 369.3962 547.224 372.7908 538.8557 379.9471 539.9316 381.9083 530.7987 387.9192 536.5263 395.3461 539.1313 401.0853 552.1461 400.3444 559.3884 408.3769 562.25 404.1118 565.7409 405.7972 572.3353 400.3784 579.0093 394.2428 579.8061 385.6366 573.3164 382.268 589.3782 373.2543 590.0666 366.3234 587.4475 371.4839 578.9773 367.7295 553.8376 363.7037 552.8904 358.59 545.6483 Z"/>
<path d="M 629.581 350.928 635.2621 363.0199 645.1408 356.2704 648.2725 349.8794 654.158 355.3824 661.6408 355.3449 667.2676 359.2931 662.7194 368.7931 663.7515 382.3444 659.1063 390.3011 660.2712 399.1551 654.035 402.9009 648.0518 402.6911 642.1725 407.5799 634.5117 410.3999 633.5705 405.7853 620.9862 406.0465 606.8601 402.9606 611.9933 393.427 610.4294 377.3826 615.177 372.3396 617.0192 363.2353 629.581 350.928 Z"/>
<path d="M 22.6807 355.0563 36.6528 357.2804 46.9938 355.6596 61.0562 360.584 66.9299 353.9377 78.0051 361.199 98.5028 359.5894 100.312 363.4895 108.5914 365.0947 113.0102 356.9848 116.8236 358.5534 121.9232 362.6371 125.3527 371.5217 121.2757 378.2373 135.2639 382.8427 140.8982 381.0165 158.0491 381.9187 156.8639 390.0528 159.5601 395.6943 166.854 402.4073 175.368 401.146 179.9128 420.654 172.7612 422.9161 159.609 422.6451 154.977 430.756 156.4059 439.5334 149.56 439.8738 148.9186 425.9431 142.1108 422.1598 138.1932 430.6326 130.8557 432.9004 125.5816 423.0394 125.7034 408.3099 114.5583 409.559 110.2653 405.0126 91.1198 405.7366 83.5686 407.223 72.2359 405.0895 68.6697 402.2431 50.4467 401.4674 42.1335 395.4258 34.3865 398.0279 28.6699 404.5017 19.7197 406.6471 6.4881 413.723 1 392.266 6.9291 375.5058 13.1758 369.9617 16.9338 360.8536 22.6807 355.0563 Z"/>
<path d="M 542.133 456.2172 546.1096 450.1209 553.1666 446.6141 556.9784 450.1797 563.6162 447.6107 566.5085 453.9847 579.559 453.6225 591.4755 443.4337 602.7357 454.3378 614.7881 450.96 617.0947 452.3027 619.1157 453.1274 611.9237 462.5814 610.5289 471.4706 602.5155 481.4649 599.7152 476.0818 581.4365 472.4283 577.7853 480.73 571.7869 474.0096 557.8883 479.9234 558.2168 485.8526 549.6702 489.0547 545.0774 493.7207 539.3147 490.6428 535.1947 474.4616 530.7021 472.2502 535.0242 465.3482 543.4638 462.4501 542.133 456.2172 Z"/>
<path d="M 435.9131 388.9434 447.7708 394.6239 447.5312 401.3208 454.5991 402.3618 464.8691 408.8006 471.7797 421.6569 464.5421 423.3554 458.7179 440.0204 450.7371 450.7441 439.8622 444.7507 440.5673 439.1023 436.4588 432.8432 428.982 436.4836 424.0102 433.3099 422.8831 426.7827 414.4372 425.5876 402.8978 431.5656 399.6454 425.8699 405.5429 419.7945 404.7722 413.303 398.6531 401.8732 404.8457 402.8958 416.366 409.0881 421.363 407.2197 428.5478 396.6515 434.781 393.5003 435.9131 388.9434 Z"/>
<path d="M 227.8986 300.5151 233.3119 305.1612 232.7917 310.9109 227.3146 319.2795 227.2629 327.6194 238.0637 327.7058 239.0103 334.3026 240.0774 343.6739 232.4649 342.5516 228.7514 346.5017 223.9046 349.4141 225.1627 358.6465 211.9027 356.8761 207.5788 351.1011 201.9056 353.3796 188.8119 370.3114 186.5927 376.6102 178.6364 379.1545 169.0259 377.8989 165.1098 382.5997 158.0491 381.9187 140.8982 381.0165 135.2639 382.8427 121.2757 378.2373 125.3527 371.5217 121.9232 362.6371 116.8236 358.5534 120.0544 348.686 129.1309 349.4819 132.9138 343.8721 130.8279 335.2283 116.0127 328.7798 120.2992 313.7744 129.1396 305.8228 137.7488 295.8264 141.2855 298.2032 151.4325 290.3251 158.8989 293.1727 178.6927 293.2308 195.1113 295.7162 198.5594 292.0219 215.4331 299.4207 220.9378 303.8659 227.8986 300.5151 Z"/>
<path d="M 481.0079 452.8811 473.4679 461.9393 466.7803 470.6041 459.9523 469.0033 456.4851 475.207 459.1654 487.4746 452.5838 492.8276 451.2472 497.5348 445.778 498.2141 438.6557 494.6751 435.7855 490.2155 428.5671 485.2886 426.7827 476.8019 431.4607 471.3684 426.1188 464.2094 430.8773 455.2776 431.2924 447.095 439.8622 444.7507 450.7371 450.7441 458.7179 440.0204 465.6151 445.7343 473.803 442.5338 481.0079 452.8811 Z"/>
<path d="M 503.6085 316.1137 512.8641 316.3786 519.4018 325.7133 523.8182 338.4573 531.1757 347.0263 537.9667 351.1508 536.613 358.4676 540.4533 369.6993 537.3593 376.9687 529.4135 379.6475 523.5762 378.9999 519.0453 383.3902 511.5465 381.1763 509.1622 376.3599 500.0475 379.9161 490.8965 386.8918 486.1901 380.9884 475.6425 381.1082 468.0022 385.3806 463.2131 382.9055 459.3722 388.5541 440.9871 373.8801 449.904 365.111 454.0045 354.5061 458.211 356.2897 466.2712 351.4457 470.956 351.4984 488.0281 336.3714 504.0557 333.2264 506.9153 327.1247 503.6085 316.1137 Z"/>
<path d="M 379.4329 63.1173 380.8552 71.7521 380.3166 85.7791 389.3783 86.0085 391.0602 104.8174 380.6967 116.2857 374.7328 130.2798 367.5742 133.4825 361.7451 126.959 358.0321 129.6183 354.9303 140.9134 346.8289 142.9715 341.1726 148.6856 350.2566 152.8366 364.2753 154.2308 368.5166 157.8684 361.4824 175.3495 346.991 183.0653 347.6365 191.9025 342.4233 195.6756 329.5341 190.2 320.8004 188.7311 312.4632 182.5857 308.0107 187.4574 300.047 190.2661 295.3095 186.0306 294.2083 175.6297 287.8568 168.4385 273.4504 177.2359 268.5441 170.5356 258.9621 165.2449 256.7488 161.8727 259.0947 153.961 266.5627 142.3471 264.99 137.3378 267.3712 128.2143 274.0646 126.7527 278.7672 121.2133 285.6191 121.4891 302.0504 117.6997 302.8861 110.6738 299.9097 98.6278 293.4032 94.7077 294.519 86.132 301.2637 77.8196 294.7197 72.7246 299.766 55.2638 316.273 60.9156 323.0221 54.9081 321.0469 41.8479 327.0093 33.5057 337.8999 41.3078 340.4199 49.4071 354.5925 49.9952 359.3611 46.2428 363.2977 52.0815 362.6612 57.1617 357.7606 62.9564 369.9961 65.8572 379.4329 63.1173 Z"/>
<path d="M 435.9131 388.9434 431.352 373.7787 432.6639 371.3394 440.9871 373.8801 459.3722 388.5541 463.2131 382.9055 468.0022 385.3806 467.9146 389.0702 479.1181 403.7982 464.8691 408.8006 454.5991 402.3618 447.5312 401.3208 447.7708 394.6239 435.9131 388.9434 Z"/>
<path d="M 503.3869 90.5613 507.1619 92.2257 513.267 86.2165 522.5148 81.4726 528.7381 83.1177 543.2693 80.1341 548.9345 87.8347 538.5662 101.7753 531.8563 105.9232 531.1105 116.0149 535.0828 119.4319 536.8391 131.8314 555.7108 134.105 565.3803 142.415 563.6154 146.4715 563.0231 151.5833 545.9498 157.9187 543.076 171.6001 539.6459 177.9495 543.7295 193.9161 534.4615 194.5855 519.6724 189.2264 513.2009 190.3336 504.6178 199.9978 502.0759 205.2326 491.8427 210.733 487.6179 216.9866 480.0488 214.9647 484.3054 208.4393 478.5266 204.9646 483.3331 196.6384 478.6914 193.665 470.5387 202.3834 469.2335 196.797 458.2468 181.2058 455.4262 174.3753 446.2338 174.779 431.8242 179.719 426.6208 173.5708 423.9758 160.1844 429.4785 156.0804 428.1612 151.8504 434.9972 151.0837 461.8505 131.7836 467.2971 130.9064 474.1721 120.7684 472.176 113.4109 480.7833 114.1489 486.8659 102.7193 495.1308 98.4043 499.6152 88.2999 503.3869 90.5613 Z"/>
<path d="M 335.3253 481.7006 342.2628 476.1293 342.4451 471.5618 348.982 468.2441 356.389 469.8312 368.8761 478.3815 363.5133 488.5651 364.1284 499.1646 373.2932 505.3739 372.9231 510.5862 383.4707 513.4301 384.8394 524.8757 381.9083 530.7987 379.9471 539.9316 372.7908 538.8557 369.3962 547.224 358.59 545.6483 355.1359 543.6506 349.0528 523.7274 337.8784 523.3213 335.3947 520.0722 343.733 512.5203 346.1555 507.8398 335.3253 481.7006 Z"/>
<path d="M 543.3687 500.32 550.3314 502.5953 550.2387 509.097 554.0953 513.3861 565.2569 510.8226 582.3754 509.0095 581.3464 518.902 585.6987 520.1373 582.9656 528.3604 584.6193 539.2056 580.5381 548.7384 581.2793 553.0991 569.4474 560.3832 556.6623 554.6162 548.6008 555.1732 541.7052 558.9499 532.591 557.7728 522.6683 560.6231 519.4551 558.4702 503.6566 564.8816 496.2914 566.1501 490.7232 570.0576 487.962 561.3495 494.7241 553.467 503.3912 555.3614 505.1611 550.6698 496.4648 544.9205 498.4332 534.5394 505.0151 530.0647 499.7645 524.3923 499.6138 519.3526 509.8617 518.4139 525.9554 520.1939 528.5547 517.9196 525.815 509.8929 543.3687 500.32 Z"/>
<path d="M 376.2784 351.014 376.8946 355.1641 403.427 359.0179 406.6405 362.2483 415.387 358.9896 427.7566 362.0188 432.6639 371.3394 431.352 373.7787 435.9131 388.9434 434.781 393.5003 428.5478 396.6515 421.363 407.2197 416.366 409.0881 404.8457 402.8958 398.6531 401.8732 404.7722 413.303 405.5429 419.7945 399.6454 425.8699 388.5267 420.7351 387.1041 416.3374 376.0893 407.1313 374.5043 400.1553 365.1822 389.4561 364.5441 383.1888 367.8241 378.1765 370.4994 364.013 376.2784 351.014 Z"/>
<path d="M 273.0804 426.7534 296.1981 424.0666 302.2948 425.0423 305.5124 430.7162 311.2727 430.891 320.5635 437.2335 323.8121 436.6717 336.1817 449.0704 343.1876 447.3497 350.3568 451.6972 353.5184 449.1007 363.1873 453.0679 359.0627 460.6421 351.7115 462.2625 348.982 468.2441 342.4451 471.5618 342.2628 476.1293 335.3253 481.7006 327.8703 482.0577 323.306 487.543 317.4832 485.5868 313.4956 474.8566 307.6081 478.0889 300.6203 476.4233 290.6284 465.3015 282.3584 459.7659 278.5403 448.1775 268.8058 443.2563 268.2925 435.9737 273.0804 426.7534 Z"/>
<path d="M 355.1359 543.6506 358.59 545.6483 363.7037 552.8904 367.7295 553.8376 371.4839 578.9773 366.3234 587.4475 363.9599 591.4785 369.5148 597.6394 380.1316 597.8886 381.4313 608.7839 377.4987 613.7261 367.3661 612.9268 360.2707 617.1982 350.8048 615.6755 336.2578 618.2809 334.0051 612.7994 337.0197 607.984 328.5912 605.6506 332.8463 601.0429 328.3248 590.9664 331.2541 581.8192 341.0447 581.2814 344.8491 576.5477 342.7417 563.7176 355.1359 543.6506 Z"/>
<path d="M 503.3869 90.5613 508.4794 85.7306 508.6005 76.5035 498.6035 68.4808 502.3968 58.7395 518.409 62.5284 531.0827 61.2504 539.5154 46.1547 536.9611 41.3689 544.5804 34.5692 562.3565 29.6454 578.2082 33.7353 589.4168 42.9311 601.8841 50.516 609.3752 53.3138 603.4234 59.0931 590.2282 66.3319 588.3523 71.7302 593.0866 87.6189 588.8119 96.5881 591.8376 110.4387 588.1661 118.7405 592.0482 121.0216 595.7927 137.138 591.3267 135.4431 580.6979 136.634 566.8363 142.3742 563.6154 146.4715 565.3803 142.415 555.7108 134.105 536.8391 131.8314 535.0828 119.4319 531.1105 116.0149 531.8563 105.9232 538.5662 101.7753 548.9345 87.8347 543.2693 80.1341 528.7381 83.1177 522.5148 81.4726 513.267 86.2165 507.1619 92.2257 503.3869 90.5613 Z"/>
<path d="M 520.3714 263.1071 531.5343 250.6511 531.2509 242.0584 538.9518 237.1099 548.3747 234.43 554.869 225.3872 559.3148 226.7141 558.6132 237.3016 566.1365 260.5693 567.0013 273.053 565.069 276.1983 557.8145 288.0946 551.7015 291.5302 543.0436 289.7463 531.4277 305.4997 537.5683 311.1835 539.2724 318.2264 520.2234 314.0348 512.8641 316.3786 503.6085 316.1137 499.0596 309.2954 512.8854 302.8587 515.9654 296.9447 504.3442 293.1234 502.449 283.6476 509.383 276.9663 508.0174 272.7476 516.3595 270.3327 520.3714 263.1071 Z"/>
<path d="M 693.922 107.5442 702.1091 107.1051 707.3058 109.5928 715.2545 111.545 718.8125 121.2675 723.1193 124.0527 721.8767 132.7536 701.9427 131.0078 695.4747 143.1112 695.8796 149.6018 683.8509 157.3115 684.4061 163.0612 692.1904 170.3398 677.7326 177.9242 671.7954 172.9787 667.6618 164.7471 667.2037 157.6019 653.4553 149.8872 650.966 145.92 653.9692 140.249 668.2441 137.2577 667.537 128.4872 682.6138 115.7575 686.4836 116.5603 692.8424 111.8497 693.922 107.5442 Z"/>
<path d="M 612.7249 173.8225 611.6516 177.94 622.1224 187.2507 633.2179 188.548 634.2672 191.9957 627.8562 196.5933 630.2092 204.161 640.4906 214.1572 639.8573 224.0236 632.585 228.7 626.1459 238.8144 630.9264 249.9123 627.1323 253.3921 617.0282 253.8422 612.9572 256.7606 611.3738 263.3821 606.0751 264.7702 596.0128 275.0183 587.0358 275.4651 584.3335 277.2637 572.4347 274.7237 565.069 276.1983 567.0013 273.053 566.1365 260.5693 558.6132 237.3016 559.3148 226.7141 558.538 221.7397 565.2951 218.8786 569.8696 213.1747 575.8929 209.0176 582.0533 199.9916 590.7012 195.8476 593.8716 184.8144 598.8592 179.9884 605.3253 178.6232 612.7249 173.8225 Z"/>
<path d="M 667.2676 359.2931 673.4598 348.1146 679.5378 342.4861 691.9708 341.4099 698.6572 330.2827 700.1241 329.3771 705.6062 329.6946 715.1729 339.1526 712.3662 341.6346 720.6006 349.0135 722.6356 354.702 721.4152 372.6803 714.842 380.4894 705.4556 387.7472 704.1965 403.3726 696.0141 406.5969 692.0948 421.044 688.0979 425.8226 670.644 406.9938 664.9386 410.9756 657.4354 406.1533 660.2712 399.1551 659.1063 390.3011 663.7515 382.3444 662.7194 368.7931 667.2676 359.2931 Z"/>
<path d="M 606.8601 402.9606 620.9862 406.0465 633.5705 405.7853 634.5117 410.3999 624.1067 420.9696 618.9824 419.8036 609.9748 425.227 606.3882 435.6501 608.2322 440.3563 615.1476 442.1824 618.6447 447.132 617.0947 452.3027 614.7881 450.96 602.7357 454.3378 591.4755 443.4337 579.559 453.6225 566.5085 453.9847 563.6162 447.6107 563.2254 423.7633 572.9161 422.7793 579.7788 413.6613 598.9313 410.697 600.7268 405.9398 606.8601 402.9606 Z"/>
<path d="M 619.1157 453.1274 626.3766 450.2139 632.7073 442.0595 646.5945 450.5012 653.361 452.5342 658.603 445.589 659.4724 457.7136 648.9876 474.0995 636.3078 479.593 640.1039 484.0818 631.2944 495.2093 632.6215 500.3079 629.3528 506.8993 617.9447 503.9153 608.1449 498.8521 592.4577 496.9392 602.5155 481.4649 610.5289 471.4706 611.9237 462.5814 619.1157 453.1274 Z"/>
<path d="M 355.9307 386.1597 364.5441 383.1888 365.1822 389.4561 374.5043 400.1553 376.0893 407.1313 387.1041 416.3374 384.6464 431.836 376.4634 431.9865 368.803 443.5617 368.7194 449.6956 363.1873 453.0679 353.5184 449.1007 350.3568 451.6972 343.1876 447.3497 336.1817 449.0704 323.8121 436.6717 320.5635 437.2335 311.2727 430.891 305.5124 430.7162 302.2948 425.0423 296.1981 424.0666 303.5799 412.9439 315.9888 414.0071 315.6128 408.3024 323.0658 401.0234 335.3052 402.1869 343.5178 395.7716 352.1571 395.7521 355.9307 386.1597 Z"/>
<path d="M 565.069 276.1983 572.4347 274.7237 584.3335 277.2637 578.747 285.2643 584.1853 294.4496 566.9123 298.2624 563.5014 302.6804 559.488 315.6337 559.9758 330.2492 563.6797 337.7255 559.105 340.1363 555.0456 348.8512 563.1721 347.9784 566.8407 356.7422 561.5597 367.4307 551.5344 376.2808 547.4293 370.3211 540.4533 369.6993 536.613 358.4676 537.9667 351.1508 531.1757 347.0263 523.8182 338.4573 519.4018 325.7133 512.8641 316.3786 520.2234 314.0348 539.2724 318.2264 537.5683 311.1835 531.4277 305.4997 543.0436 289.7463 551.7015 291.5302 557.8145 288.0946 565.069 276.1983 Z"/>
<path d="M 158.0491 381.9187 165.1098 382.5997 169.0259 377.8989 178.6364 379.1545 186.5927 376.6102 188.8119 370.3114 201.9056 353.3796 207.5788 351.1011 211.9027 356.8761 225.1627 358.6465 223.9046 349.4141 228.7514 346.5017 233.3711 357.9244 232.7781 366.9038 234.9984 376.9793 245.115 379.7958 250.5928 403.5434 254.6434 408.9345 243.941 414.4914 237.2352 410.2628 228.2441 410.6202 227.1511 418.1396 210.7186 421.5616 203.4239 413.9316 195.747 419.2399 179.9128 420.654 175.368 401.146 166.854 402.4073 159.5601 395.6943 156.8639 390.0528 158.0491 381.9187 Z"/>
<path d="M 592.7603 350.671 604.1145 341.4099 606.1684 336.1654 611.5847 337.1426 620.3292 334.5059 636.7578 343.4998 629.581 350.928 617.0192 363.2353 615.177 372.3396 610.4294 377.3826 611.9933 393.427 608.3679 397.4868 588.6609 395.781 578.3856 390.7336 574.3792 381.0169 581.1374 376.4579 583.743 370.2597 590.5643 368.5313 594.2613 363.4914 592.7603 350.671 Z"/>
<path d="M 273.4504 177.2359 287.8568 168.4385 294.2083 175.6297 295.3095 186.0306 300.047 190.2661 308.0107 187.4574 312.4632 182.5857 320.8004 188.7311 329.5341 190.2 342.4233 195.6756 347.6365 191.9025 346.991 183.0653 361.4824 175.3495 368.8136 175.9753 371.1577 183.6685 380.7576 189.9123 387.9987 188.2827 396.3171 195.5957 394.4465 204.1942 397.5089 210.1218 396.1586 220.179 392.1294 224.3924 396.2514 229.3215 404.7758 234.3539 403.4133 244.8344 398.9335 256.4641 400.3453 262.5499 418.0444 267.6171 413.1325 284.2429 409.4778 284.2287 403.1718 291.125 395.9502 291.0457 387.3892 298.3237 386.2081 302.8595 377.0486 301.7967 372.3974 310.9496 363.2976 306.3727 351.0538 304.9839 338.8971 308.1934 314.2318 297.3896 306.9283 290.8523 295.2506 287.2827 293.6515 282.6492 283.2737 282.9213 283.277 277.0607 277.1385 268.498 269.3881 271.4033 263.1121 256.1883 270.498 240.493 266.0517 234.5897 256.7962 235.5183 251.5242 225.2978 259.308 220.2777 264.7066 209.7364 279.5272 198.405 275.1171 189.5156 273.4504 177.2359 Z"/>
<path d="M 612.7847 160.6907 615.8694 170.4519 612.7249 173.8225 605.3253 178.6232 598.8592 179.9884 593.8716 184.8144 590.7012 195.8476 582.0533 199.9916 575.8929 209.0176 569.8696 213.1747 567.3695 206.7149 554.674 206.8291 540.4382 209.9467 534.3601 202.2414 534.4615 194.5855 543.7295 193.9161 539.6459 177.9495 543.076 171.6001 545.9498 157.9187 563.0231 151.5833 563.6154 146.4715 566.8363 142.3742 580.6979 136.634 591.3267 135.4431 595.7927 137.138 601.5294 137.386 609.7131 144.7926 612.7847 160.6907 Z"/>
</g>
</svg>