<?xml version="1.0"?>
<svg xmlns="http://www.w3.org/2000/svg" version="1.2" baseProfile="tiny" width="800" height="758" viewBox="0 0 800 758" stroke-linecap="round" stroke-linejoin="round">
<g id="50MIE250GC_SIR">
<path d="M 334.0261 48.4378 305.305 151.5829 290.9983 191.4258 258.6665 234.2972 241.8207 228.8045 182.8596 229.0724 183.0032 253.4002 128.6163 266.8287 120.962 308.8113 130.2212 328.5807 143.0615 372.6332 150.7227 440.6458 165.7188 458.6351 119.0397 492.2734 107.3891 516.3627 86.3917 526.4656 70.9737 549.1115 51.6941 539.6829 18.4042 539.9116 30.44 495.5064 21.8937 475.688 33.5926 454.3317 27.0724 382.8549 16.0702 375.9443 1 325.4309 33.2148 305.4884 2.9399 281.9338 41.3686 201.7741 66.4379 113.9859 48.4242 68.3536 74.465 72.1557 116.9212 62.1946 157.5921 11.049 188.8969 12.8778 210.9706 1 237.4443 2.9535 284.8147 19.1178 334.0261 48.4378 Z"/>
<path d="M 624.2039 258.8373 632.5846 235.1252 657.357 239.6108 679.1625 220.0334 722.722 228.2427 732.1961 213.8779 781.4004 231.8901 799 248.9832 786.8119 279.3988 791.778 319.3076 784.2585 336.3126 753.9974 347.8853 729.1145 377.0537 712.263 360.306 688.8132 366.4486 642.644 271.2322 624.2039 258.8373 Z"/>
<path d="M 200.5495 549.9617 240.5409 537.1486 228.655 518.1981 250.5339 503.7903 280.8883 437.6776 302.5511 430.4396 319.2658 420.0285 312.9692 441.1308 337.7737 480.6593 361.4015 456.6525 384.6895 457.5478 414.7548 423.9194 465.6012 479.533 501.9321 482.6028 503.3561 484.5731 489.5032 488.032 482.9565 521.3472 457.3087 518.5199 437.406 531.9518 423.8964 594.754 406.8712 647.8199 369.92 674.4455 358.0997 703.1077 312.0832 669.7867 290.6689 668.4624 275.7414 624.209 280.2436 599.4055 256.1304 561.6659 215.2548 560.4189 200.5495 549.9617 Z"/>
<path d="M 334.0261 48.4378 364.795 45.7851 404.4612 29.9497 426.5737 49.9675 450.6603 45.252 486.2672 4.0509 492.7877 49.9326 466.5382 69.7193 485.0071 87.4821 544.3532 88.2203 546.0336 101.9145 510.2033 133.7939 532.1887 173.1256 533.0765 203.5657 501.5929 226.4761 516.9464 262.9381 504.3606 283.2797 475.1609 256.6469 461.2953 277.9138 437.2769 265.7853 372.1425 248.3628 372.1025 220.4367 338.1206 235.1461 298.0483 221.9939 305.305 151.5829 334.0261 48.4378 Z"/>
<path d="M 338.1206 235.1461 372.1025 220.4367 372.1425 248.3628 437.2769 265.7853 461.2953 277.9138 471.5407 307.8749 449.0003 321.5868 467.6995 346.6616 439.7971 360.34 437.6735 386.0591 495.2036 440.1303 501.9321 482.6028 465.6012 479.533 414.7548 423.9194 384.6895 457.5478 361.4015 456.6525 337.7737 480.6593 312.9692 441.1308 319.2658 420.0285 332.6071 397.3614 311.2042 343.4728 342.3696 320.9618 313.6076 305.9884 305.5506 287.9145 338.1206 235.1461 Z"/>
<path d="M 130.2212 328.5807 120.962 308.8113 128.6163 266.8287 183.0032 253.4002 182.8596 229.0724 241.8207 228.8045 258.6665 234.2972 290.9983 191.4258 305.305 151.5829 298.0483 221.9939 338.1206 235.1461 305.5506 287.9145 313.6076 305.9884 342.3696 320.9618 311.2042 343.4728 332.6071 397.3614 319.2658 420.0285 302.5511 430.4396 273.6424 410.3446 242.4515 399.3439 195.0786 360.8383 130.2212 328.5807 Z"/>
<path d="M 130.2212 328.5807 195.0786 360.8383 242.4515 399.3439 273.6424 410.3446 302.5511 430.4396 280.8883 437.6776 250.5339 503.7903 228.655 518.1981 240.5409 537.1486 200.5495 549.9617 145.4111 563.2086 128.513 554.5203 70.9737 549.1115 86.3917 526.4656 107.3891 516.3627 119.0397 492.2734 165.7188 458.6351 150.7227 440.6458 143.0615 372.6332 130.2212 328.5807 Z"/>
<path d="M 544.3532 88.2203 559.6317 122.0916 591.2042 121.8348 574.8212 147.2261 594.2494 162.7666 631.7617 164.2501 642.9591 178.2693 732.1961 213.8779 722.722 228.2427 679.1625 220.0334 657.357 239.6108 632.5846 235.1252 624.2039 258.8373 586.0588 257.4814 568.4774 245.6352 516.9464 262.9381 501.5929 226.4761 533.0765 203.5657 532.1887 173.1256 510.2033 133.7939 546.0336 101.9145 544.3532 88.2203 Z"/>
<path d="M 290.6689 668.4624 312.0832 669.7867 358.0997 703.1077 369.92 674.4455 406.8712 647.8199 423.8964 594.754 437.406 531.9518 457.3087 518.5199 482.9565 521.3472 505.2782 546.3219 517.2175 580.2673 500.5186 640.9048 484.8142 682.0531 461.4258 692.1507 448.7716 745.8433 432.4321 757.3416 386.0592 730.9338 342.5072 750.4149 310.7577 750.4439 290.7233 709.9845 290.6689 668.4624 Z"/>
<path d="M 663.4431 504.5454 627.3288 553.9327 562.4913 590.6222 550.1498 609.4151 510.1626 628.3724 500.5186 640.9048 517.2175 580.2673 505.2782 546.3219 482.9565 521.3472 489.5032 488.032 503.3561 484.5731 555.0374 482.8968 604.6583 501.0597 647.7018 489.2384 663.4431 504.5454 Z"/>
<path d="M 516.9464 262.9381 568.4774 245.6352 586.0588 257.4814 624.2039 258.8373 642.644 271.2322 688.8132 366.4486 712.263 360.306 729.1145 377.0537 722.9243 413.13 694.6705 435.6652 689.1727 469.7026 669.9666 480.6574 663.4431 504.5454 647.7018 489.2384 604.6583 501.0597 555.0374 482.8968 503.3561 484.5731 501.9321 482.6028 495.2036 440.1303 437.6735 386.0591 439.7971 360.34 467.6995 346.6616 449.0003 321.5868 471.5407 307.8749 461.2953 277.9138 475.1609 256.6469 504.3606 283.2797 516.9464 262.9381 Z"/>
</g>
</svg>