<?xml version="1.0"?>
<svg xmlns="http://www.w3.org/2000/svg" version="1.2" baseProfile="tiny" width="800" height="747" viewBox="0 0 800 747" stroke-linecap="round" stroke-linejoin="round">
<g id="51MUE250GC_SIR">
<path d="M 432.4766 278.1971 454.0055 266.9725 470.2418 265.6092 486.2005 271.1404 483.8412 298.7583 477.9733 307.4013 460.2088 301.9975 444.8692 299.7471 432.4766 278.1971 Z"/>
<path d="M 444.0963 246.534 468.9262 255.9464 470.2418 265.6092 454.0055 266.9725 432.4766 278.1971 406.4807 274.9263 372.2408 259.7164 403.1622 244.5086 421.8286 250.3782 428.1953 254.3154 444.0963 246.534 Z"/>
<path d="M 344.7405 217.616 364.6029 231.114 366.6322 239.2312 354.9158 249.7839 359.246 259.9248 372.2408 259.7164 406.4807 274.9263 409.871 283.3097 397.3209 296.3689 381.4904 298.0714 331.3002 287.4007 320.79 278.9677 315.3043 275.6588 324.1219 261.7923 322.5111 251.3118 339.5285 251.9445 337.5428 234.6285 344.7405 217.616 Z"/>
<path d="M 333.1043 488.5974 328.9374 474.5165 341.4641 473.7586 356.8183 480.2765 356.2687 490.7717 344.0474 508.5887 344.0303 508.5328 333.1043 488.5974 Z"/>
<path d="M 343.1955 390.2357 340.7142 381.6807 359.6965 385.0591 352.1071 394.7419 370.7088 401.0302 383.2552 420.6873 396.5108 424.9216 403.2143 411.202 410.982 417.2182 422.6766 436.2285 428.0433 459.0972 438.0845 473.2715 426.262 464.7352 392.9015 478.7854 378.7702 474.4379 366.0611 451.8818 367.3863 440.1193 352.0266 417.668 343.1955 390.2357 Z"/>
<path d="M 326.4284 493.7483 328.4793 498.5291 328.2495 498.6649 305.0907 502.1641 274.877 489.9324 294.3309 484.7408 304.0115 493.0527 326.4284 493.7483 Z"/>
<path d="M 258.2674 549.27 247.9566 561.4229 239.406 557.8204 232.7846 545.9805 236.8797 543.7688 258.2674 549.27 Z"/>
<path d="M 717.093 254.9348 708.6331 265.1285 699.012 285.237 679.4408 289.7864 672.8495 273.9125 659.2981 255.5247 661.5262 248.8478 677.0605 253.9972 692.0062 248.7991 705.5797 255.7955 717.093 254.9348 Z"/>
<path d="M 491.736 672.3592 501.4931 680.9582 538.1471 676.2914 556.8964 688.8396 556.9545 690.8027 551.4052 690.4131 528.8807 716.4765 513.6438 719.4594 499.6557 706.7964 482.5377 709.5419 474.5633 716.8137 455.9209 718.834 431.0225 706.6547 422.5784 698.8263 434.3692 699.0196 472.235 678.4336 491.736 672.3592 Z"/>
<path d="M 399.1499 612.4014 407.9215 624.9429 430.3978 630.401 422.4051 698.7237 394.0028 689.719 377.2558 688.4832 363.2923 695.997 344.5095 694.7068 350.9137 680.4676 351.6066 663.9921 373.7854 630.9558 390.4563 624.9163 399.1499 612.4014 Z"/>
<path d="M 234.4303 388.2667 242.4426 406.3269 270.8898 410.9728 290.828 403.9792 281.5874 417.0677 287.0119 433.7132 299.3278 434.2129 278.3056 466.3862 273.549 483.5829 238.6884 490.2319 249.0461 463.2387 238.7308 458.3028 226.5754 432.1854 236.1006 402.0566 234.4303 388.2667 Z"/>
<path d="M 670.0835 343.3996 679.4739 342.4612 687.5608 361.5183 725.5279 351.0569 735.6952 353.6593 746.2781 351.8331 748.5401 371.809 736.8623 390.607 737.695 398.7344 718.1417 424.7455 703.7828 417.967 685.4096 424.2067 679.644 408.3751 666.08 400.7177 667.0542 369.5259 671.6347 360.4369 670.0835 343.3996 Z"/>
<path d="M 365.7949 340.5753 367.3919 335.7577 397.3209 296.3689 409.871 283.3097 413.4837 304.0203 401.4256 323.6362 402.1944 337.6332 390.6805 353.2062 377.8803 354.1432 365.7949 340.5753 Z"/>
<path d="M 572.114 491.4812 572.9532 481.8144 589.1922 447.4281 597.8453 437.6461 598.0124 437.7272 604.9264 459.3797 602.0779 470.5949 609.6936 481.0925 626.7275 501.8017 617.7904 517.7366 603.1976 514.8833 598.7675 522.9114 584.3996 523.4379 580.2912 503.6926 572.114 491.4812 Z"/>
<path d="M 544.3794 656.1323 569.8177 650.04 590.0181 635.2024 593.3068 640.7482 593.2761 640.8046 579.4495 662.8902 580.067 672.4903 565.4557 690.6586 556.8964 688.8396 538.1471 676.2914 534.8526 664.406 544.3794 656.1323 Z"/>
<path d="M 93.2325 467.5043 117.6132 466.428 125.999 475.3175 147.4448 463.8887 159.0419 461.7961 155.47 477.4992 163.0531 498.9486 140.8415 498.14 144.1619 520.5248 123.932 497.6767 107.0814 493.2313 93.2325 467.5043 Z"/>
<path d="M 598.0124 437.7272 645.3543 439.8272 671.8702 446.1975 668.3641 457.4107 685.6287 464.5792 677.9312 478.9937 662.9887 485.3922 651.6909 500.6233 647.9686 475.8908 609.6936 481.0925 602.0779 470.5949 604.9264 459.3797 598.0124 437.7272 Z"/>
<path d="M 194.8754 533.5632 204.2664 533.5358 204.0537 543.9903 206.1562 555.1338 194.9139 575.0785 178.7685 566.6744 178.5129 566.1318 193.091 544.2257 194.8754 533.5632 Z"/>
<path d="M 227.6844 595.1423 237.574 605.3783 245.649 592.4897 262.6666 585.7245 268.9285 586.7172 274.8936 564.8968 288.9578 566.6332 290.3647 577.7533 309.1325 592.7386 324.3759 589.4413 314.1215 603.2315 319.573 632.527 296.6653 647.8344 294.612 667.5968 301.2736 698.2677 290.0657 710.5607 276.4372 717.0917 263.0398 704.6152 246.4341 704.482 227.1003 685.8608 221.6763 667.1714 222.474 648.8176 230.8193 639.4056 224.758 625.6591 199.8729 624.6508 206.2593 605.3899 227.6844 595.1423 Z"/>
<path d="M 189.7057 368.1832 194.1401 338.1245 223.4899 317.8767 218.0688 342.7085 225.1161 359.3168 226.9838 378.9857 234.4303 388.2667 236.1006 402.0566 226.5754 432.1854 238.7308 458.3028 249.0461 463.2387 181.7813 463.2418 186.5118 451.8618 182.4524 435.0313 183.7575 407.5786 189.9282 390.8917 189.7057 368.1832 Z"/>
<path d="M 375.2906 556.9623 375.7049 547.8 387.4699 539.0631 400.2558 540.3894 406.8413 566.6339 419.2878 566.9226 431.2312 576.3556 421.6292 584.7903 387.6689 583.391 375.2906 556.9623 Z"/>
<path d="M 416.4973 200.747 425.0782 191.2081 435.4833 214.5774 441.5695 218.5346 453.2498 233.9433 444.0963 246.534 428.1953 254.3154 421.8286 250.3782 417.6052 240.4438 421.1723 220.1335 416.4973 200.747 Z"/>
<path d="M 7.1335 183.3022 19.7158 186.0355 43.6816 180.4342 53.6736 167.3419 69.8344 157.8887 66.9546 165.7209 72.1149 183.5423 70.4425 204.0329 78.279 230.0403 86.583 242.9725 82.7257 252.5588 7.8433 251.8005 12.6226 212.673 2.8642 193.791 7.1335 183.3022 Z"/>
<path d="M 390.6805 353.2062 402.1944 337.6332 401.4256 323.6362 413.4837 304.0203 428.3859 333.9796 425.7093 368.5046 433.2356 379.0565 443.8656 401.4927 442.1778 411.0417 452.8989 417.9898 458.8587 439.6062 441.9069 432.7117 434.9497 420.4593 423.7452 415.0263 410.982 417.2182 403.2143 411.202 403.4346 398.3347 386.7014 367.9027 390.6805 353.2062 Z"/>
<path d="M 410.982 417.2182 423.7452 415.0263 434.9497 420.4593 441.9069 432.7117 458.8587 439.6062 457.6405 442.3067 471.2612 462.4667 473.597 478.1984 447.9514 479.9791 438.0845 473.2715 428.0433 459.0972 422.6766 436.2285 410.982 417.2182 Z"/>
<path d="M 216.1562 109.1758 242.9618 123.4146 259.4277 146.1825 273.8651 149.1838 278.0627 163.5143 276.3263 173.3763 282.9993 187.3 282.8491 200.7165 254.8415 213.5823 231.5796 212.8594 233.7119 192.226 240.5539 172.4619 237.5153 151.909 213.8459 138.1172 208.6496 126.7293 216.1562 109.1758 Z"/>
<path d="M 651.6909 500.6233 671.2056 510.3387 694.4176 489.1935 696.3684 500.7814 673.6756 519.357 657.7647 520.887 648.167 529.3495 627.3635 523.566 617.7904 517.7366 626.7275 501.8017 609.6936 481.0925 647.9686 475.8908 651.6909 500.6233 Z"/>
<path d="M 662.1126 217.5016 676.8795 221.1116 687.8917 234.1488 719.9078 235.633 744.1084 236.7467 739.6031 245.1014 717.093 254.9348 705.5797 255.7955 692.0062 248.7991 677.0605 253.9972 661.5262 248.8478 662.1126 217.5016 Z"/>
<path d="M 673.6756 519.357 696.3684 500.7814 707.6229 489.9115 718.1589 497.8306 707.2616 513.502 701.4548 532.5161 720.2754 532.5083 702.3331 544.5511 682.9808 591.1717 676.7062 591.8483 665.3695 588.9056 662.4675 575.1626 670.5092 568.4171 673.6756 519.357 Z"/>
<path d="M 550.2439 273.3972 544.539 288.0524 525.3318 299.7591 514.7804 314.2584 494.9604 313.8381 494.284 300.7567 483.8412 298.7583 486.2005 271.1404 492.5619 266.0299 515.7023 278.3389 533.4166 270.6295 550.2439 273.3972 Z"/>
<path d="M 363.27 543.1884 377.8919 531.5464 392.7706 534.4362 387.4699 539.0631 375.7049 547.8 375.2906 556.9623 369.972 562.0474 363.27 543.1884 Z"/>
<path d="M 317.1259 505.7587 314.508 519.3188 301.7208 530.1629 272.5553 527.0779 279.4797 514.3053 294.3064 514.8071 317.1259 505.7587 Z"/>
<path d="M 406.4146 164.4616 422.0343 176.1589 425.8301 187.2936 425.0782 191.2081 416.4973 200.747 400.0785 210.4843 390.4586 207.0115 381.0651 197.4231 402.137 185.8956 406.4146 164.4616 Z"/>
<path d="M 314.508 519.3188 317.1259 505.7587 328.2495 498.6649 328.4793 498.5291 344.0303 508.5328 344.0474 508.5887 330.0638 528.7599 314.508 519.3188 Z"/>
<path d="M 439.7578 502.7286 428.3145 516.1627 454.7951 520.2613 457.2244 533.2509 474.5801 538.0482 457.7862 540.6293 444.4099 558.5475 443.5096 569.3305 431.2312 576.3556 419.2878 566.9226 406.8413 566.6339 400.2558 540.3894 387.4699 539.0631 392.7706 534.4362 393.853 526.2475 410.9487 521.1316 439.7578 502.7286 Z"/>
<path d="M 309.1325 592.7386 326.5934 565.7482 329.2725 571.0302 337.3362 566.1199 356.7374 569.8742 379.5444 576.1024 384.6849 586.9625 399.1499 612.4014 390.4563 624.9163 373.7854 630.9558 362.9863 622.8009 367.5786 606.4454 355.6007 599.0544 351.4275 587.9889 324.3759 589.4413 309.1325 592.7386 Z"/>
<path d="M 206.1562 555.1338 214.0689 568.8085 215.6124 581.7505 194.9139 575.0785 206.1562 555.1338 Z"/>
<path d="M 627.3635 523.566 648.167 529.3495 657.7647 520.887 673.6756 519.357 670.5092 568.4171 662.4675 575.1626 665.3695 588.9056 676.7062 591.8483 656.9831 595.709 639.8057 593.617 622.2922 583.6723 625.3618 572.4805 597.8147 570.2201 584.1233 555.6921 590.9206 548.0726 611.0905 550.0338 627.3635 523.566 Z"/>
<path d="M 324.3759 589.4413 351.4275 587.9889 355.6007 599.0544 367.5786 606.4454 362.9863 622.8009 373.7854 630.9558 351.6066 663.9921 350.9137 680.4676 344.5095 694.7068 317.7613 727.1942 290.904 733.4954 276.4372 717.0917 290.0657 710.5607 301.2736 698.2677 294.612 667.5968 296.6653 647.8344 319.573 632.527 314.1215 603.2315 324.3759 589.4413 Z"/>
<path d="M 600.9498 600.4403 606.0158 612.5632 594.9207 618.8032 590.0181 635.2024 569.8177 650.04 544.3794 656.1323 545.8931 645.4285 532.3456 635.9789 523.0333 638.6668 518.9155 625.6391 533.0018 629.2227 548.5165 617.7879 570.1457 613.1619 584.7816 616.0329 587.7791 604.0491 600.9498 600.4403 Z"/>
<path d="M 452.6291 197.9917 454.0879 199.1111 488.9424 214.3522 490.0544 220.9563 472.9709 234.2398 453.2498 233.9433 441.5695 218.5346 452.6291 197.9917 Z"/>
<path d="M 356.2687 490.7717 367.7034 499.6883 361.4315 509.5797 365.3963 515.3178 353.3126 523.2312 337.5799 543.3778 330.0638 528.7599 344.0474 508.5887 356.2687 490.7717 Z"/>
<path d="M 473.597 478.1984 471.2612 462.4667 457.6405 442.3067 481.6124 454.1615 489.9469 448.6573 487.8552 429.2537 506.7642 397.608 512.9699 365.2492 525.6552 347.9594 543.5964 339.7378 549.9951 329.7092 566.4635 319.8093 567.1816 327.1906 553.8323 351.338 546.373 377.634 535.0684 394.2184 534.311 416.1846 529.3988 440.2778 539.9416 447.5755 550.0088 434.5237 561.9068 447.7705 575.3653 438.9639 589.1922 447.4281 572.9532 481.8144 572.114 491.4812 550.4285 507.6691 527.2371 506.6212 511.9165 514.3481 506.9853 500.6453 477.8446 483.7997 473.597 478.1984 Z"/>
<path d="M 215.6416 581.7516 237.6503 582.8889 245.649 592.4897 237.574 605.3783 227.6844 595.1423 215.6416 581.7516 Z"/>
<path d="M 216.1562 109.1758 223.8905 99.2681 234.5767 52.8147 228.6305 36.2572 240.7348 16.7922 239.9727 5.4329 250.5888 1 262.1085 20.7832 266.6492 40.6321 279.9593 58.7128 276.818 71.8081 283.3695 96.2644 310.6037 107.7653 320.7294 126.1388 321.3126 150.3392 311.6429 168.6633 295.0237 161.7228 278.0627 163.5143 273.8651 149.1838 259.4277 146.1825 242.9618 123.4146 216.1562 109.1758 Z"/>
<path d="M 587.4129 268.171 582.7323 250.0989 596.2181 241.5161 611.1301 255.9811 640.5003 259.8814 659.2981 255.5247 672.8495 273.9125 679.4408 289.7864 699.012 285.237 708.6331 265.1285 765.7518 275.1802 764.3911 304.2775 748.5378 330.382 738.8232 328.9906 721.3011 312.5653 713.2235 300.5933 661.7791 306.587 657.305 311.1826 607.6496 294.0762 587.4129 268.171 Z"/>
<path d="M 406.4146 164.4616 399.6397 156.2725 404.2666 143.7083 465.1354 148.6706 467.9772 160.8046 455.6378 186.2094 447.7537 193.421 440.2538 196.2332 425.8301 187.2936 422.0343 176.1589 406.4146 164.4616 Z"/>
<path d="M 518.3614 645.2098 523.0333 638.6668 532.3456 635.9789 545.8931 645.4285 544.3794 656.1323 534.8526 664.406 538.1471 676.2914 501.4931 680.9582 491.736 672.3592 498.2563 642.9621 518.3614 645.2098 Z"/>
<path d="M 721.3011 312.5653 698.4383 320.6736 686.6436 313.4669 666.3453 322.2941 657.305 311.1826 661.7791 306.587 713.2235 300.5933 721.3011 312.5653 Z"/>
<path d="M 326.4284 493.7483 333.1043 488.5974 344.0303 508.5328 328.4793 498.5291 326.4284 493.7483 Z"/>
<path d="M 178.3296 509.8704 201.9293 504.7964 194.8754 533.5632 193.091 544.2257 178.5129 566.1318 183.5525 549.9935 183.1217 514.1149 178.3296 509.8704 Z"/>
<path d="M 183.2092 181.7886 174.1395 168.3541 154.2726 167.1846 144.2102 174.5758 131.2165 167.6683 120.9118 142.3283 96.0556 135.7178 70.9613 138.0576 69.8344 157.8887 53.6736 167.3419 43.6816 180.4342 19.7158 186.0355 7.1335 183.3022 9.386 151.1286 1 137.9143 12.1033 107.7159 5.1644 99.3859 114.8837 99.3721 175.9882 99.5389 183.6507 104.3262 182.8004 124.5384 189.2133 144.0544 182.3135 153.25 187.3079 179.3627 183.2092 181.7886 Z"/>
<path d="M 230.4508 249.0475 225.593 223.0668 231.5796 212.8594 254.8415 213.5823 282.8491 200.7165 314.1504 205.1403 327.4228 203.1339 344.7405 217.616 337.5428 234.6285 339.5285 251.9445 322.5111 251.3118 324.1219 261.7923 315.3043 275.6588 302.5358 270.6792 285.9112 276.0886 296.4215 287.7004 296.4533 303.629 296.2395 329.8535 286.8637 327.8573 273.6118 337.9066 252.5247 307.1768 242.3361 273.364 230.4508 249.0475 Z"/>
<path d="M 88.1646 462.6817 93.2325 467.5043 107.0814 493.2313 123.932 497.6767 144.1619 520.5248 153.624 530.3446 144.6885 533.3004 154.6958 549.109 150.5637 564.0583 113.7094 572.0882 114.0553 588.1834 122.4692 602.0463 138.1812 614.6716 151.8227 613.4891 152.0671 622.7398 102.9036 621.7969 98.2227 566.354 75.3799 540.7992 97.8227 539.968 95.8754 506.621 92.2397 505.3481 81.1517 472.6506 88.1646 462.6817 Z"/>
<path d="M 514.7804 314.2584 525.3318 299.7591 544.539 288.0524 550.2439 273.3972 557.6353 263.5849 577.8465 257.0509 582.7323 250.0989 587.4129 268.171 566.482 293.3087 562.2638 305.1506 566.4718 318.9677 566.4635 319.8093 549.9951 329.7092 545.1729 327.7573 486.3127 357.1664 468.0147 375.1346 445.4206 369.8922 460.041 348.9352 456.028 335.6648 464.089 339.8391 476.3926 332.1631 506.7011 322.8055 514.7804 314.2584 Z"/>
<path d="M 460.2088 301.9975 477.9733 307.4013 483.8412 298.7583 494.284 300.7567 494.9604 313.8381 514.7804 314.2584 506.7011 322.8055 476.3926 332.1631 464.089 339.8391 456.028 335.6648 443.3936 332.7672 438.3111 321.0284 460.2088 301.9975 Z"/>
<path d="M 425.0782 191.2081 425.8301 187.2936 440.2538 196.2332 447.7537 193.421 452.6291 197.9917 441.5695 218.5346 435.4833 214.5774 425.0782 191.2081 Z"/>
<path d="M 438.0845 473.2715 447.9514 479.9791 442.0103 485.9066 407.0091 499.2678 401.7722 510.4606 365.3963 515.3178 361.4315 509.5797 375.5006 507.0502 391.3404 492.5201 392.9015 478.7854 426.262 464.7352 438.0845 473.2715 Z"/>
<path d="M 670.2381 190.0975 696.7022 188.5807 734.0982 201.0061 726.0125 210.2626 719.9078 235.633 687.8917 234.1488 676.8795 221.1116 662.1126 217.5016 664.6747 202.0845 670.2381 190.0975 Z"/>
<path d="M 755.7455 169.3489 799 172.1713 780.9579 217.581 772.4996 229.5161 759.4361 228.8808 744.1084 236.7467 719.9078 235.633 726.0125 210.2626 734.0982 201.0061 774.9502 205.2346 772.2021 188.5139 761.25 183.2035 755.7455 169.3489 Z"/>
<path d="M 163.0531 498.9486 164.4174 490.7711 178.5588 482.5912 182.3027 507.3523 177.3754 509.5105 173.7049 515.9426 161.3615 524.6139 153.624 530.3446 144.1619 520.5248 140.8415 498.14 163.0531 498.9486 Z"/>
<path d="M 204.3724 533.5409 211.5645 521.1709 220.4515 511.1966 233.9701 519.5006 230.7056 527.0726 236.8797 543.7688 232.7846 545.9805 204.3724 533.5409 Z"/>
<path d="M 579.4495 662.8902 593.2761 640.8046 610.7373 660.0752 603.8023 663.6551 579.4495 662.8902 Z"/>
<path d="M 494.7977 595.0712 501.2666 608.0273 471.4128 621.9521 466.8524 636.012 454.3188 634.3906 440.2965 625.3559 446.2616 615.6836 470.0545 607.1959 492.197 601.8748 494.7977 595.0712 Z"/>
<path d="M 359.6965 385.0591 386.7014 367.9027 403.4346 398.3347 403.2143 411.202 396.5108 424.9216 383.2552 420.6873 370.7088 401.0302 352.1071 394.7419 359.6965 385.0591 Z"/>
<path d="M 367.3919 335.7577 365.7949 340.5753 357.944 347.4544 335.0605 349.0207 328.0847 344.1423 314.7775 323.7314 339.6137 317.2953 362.4888 323.1351 367.3919 335.7577 Z"/>
<path d="M 326.1052 559.83 326.5934 565.7482 309.1325 592.7386 290.3647 577.7533 302.98 564.5554 307.636 551.8017 320.8926 551.9423 326.1052 559.83 Z"/>
<path d="M 501.2666 608.0273 511.1853 625.9314 508.3029 639.4846 518.3614 645.2098 498.2563 642.9621 491.736 672.3592 472.235 678.4336 466.8524 636.012 471.4128 621.9521 501.2666 608.0273 Z"/>
<path d="M 622.2922 583.6723 601.8829 584.8016 586.6273 574.7966 571.407 573.7463 550.7228 595.5012 543.4421 586.9516 541.0869 567.5005 553.4357 557.1214 570.9366 559.8457 584.1233 555.6921 597.8147 570.2201 625.3618 572.4805 622.2922 583.6723 Z"/>
<path d="M 744.1084 236.7467 759.4361 228.8808 772.4996 229.5161 772.0817 257.9886 765.7518 275.1802 708.6331 265.1285 717.093 254.9348 739.6031 245.1014 744.1084 236.7467 Z"/>
<path d="M 470.953 602.0526 494.1489 594.9408 494.7977 595.0712 492.197 601.8748 470.0545 607.1959 470.953 602.0526 Z"/>
<path d="M 748.5401 371.809 759.7911 383.5514 766.9513 368.5901 779.7714 384.799 772.0941 415.5397 754.8795 446.2313 756.5592 469.0088 744.9003 492.1711 747.2543 500.1831 738.655 527.6893 720.2754 532.5083 701.4548 532.5161 707.2616 513.502 718.1589 497.8306 707.6229 489.9115 696.3684 500.7814 694.4176 489.1935 695.6057 465.6265 712.0726 436.5305 718.1417 424.7455 737.695 398.7344 736.8623 390.607 748.5401 371.809 Z"/>
<path d="M 627.1682 624.3063 632.3558 637.1871 623.3609 644.2866 608.8215 642.7533 627.1682 624.3063 Z"/>
<path d="M 195.8316 192.477 233.7119 192.226 231.5796 212.8594 225.593 223.0668 207.0421 229.8327 193.4634 214.5249 199.0882 202.7162 195.8316 192.477 Z"/>
<path d="M 253.6181 558.3202 262.4236 566.0322 255.5285 572.5177 262.6666 585.7245 245.649 592.4897 237.6503 582.8889 243.8566 581.8294 253.6181 558.3202 Z"/>
<path d="M 428.3859 333.9796 443.3936 332.7672 456.028 335.6648 460.041 348.9352 445.4206 369.8922 433.2356 379.0565 425.7093 368.5046 428.3859 333.9796 Z"/>
<path d="M 549.9951 329.7092 543.5964 339.7378 525.6552 347.9594 512.9699 365.2492 506.7642 397.608 487.8552 429.2537 489.9469 448.6573 481.6124 454.1615 457.6405 442.3067 458.8587 439.6062 452.8989 417.9898 442.1778 411.0417 443.8656 401.4927 433.2356 379.0565 445.4206 369.8922 468.0147 375.1346 486.3127 357.1664 545.1729 327.7573 549.9951 329.7092 Z"/>
<path d="M 601.8829 584.8016 600.9498 600.4403 587.7791 604.0491 584.7816 616.0329 570.1457 613.1619 548.5165 617.7879 550.7228 595.5012 571.407 573.7463 586.6273 574.7966 601.8829 584.8016 Z"/>
<path d="M 82.7257 252.5588 86.583 242.9725 103.6582 246.5779 123.1179 243.2882 151.7889 233.6457 159.37 239.3307 191.3622 238.4582 188.1575 251.4424 195.2137 267.1207 219.9402 276.9929 228.6646 270.2012 231.2475 288.6001 225.5235 297.8162 223.4899 317.8767 194.1401 338.1245 173.358 348.9068 161.6489 342.8237 130.5794 347.1204 122.8427 340.4013 116.0266 317.289 110.31 315.6097 108.3311 292.6574 119.5104 282.9175 115.2689 263.6401 87.5192 259.8324 82.7257 252.5588 Z"/>
<path d="M 670.2381 190.0975 659.9072 184.5428 656.9014 162.8398 755.7455 169.3489 761.25 183.2035 772.2021 188.5139 774.9502 205.2346 734.0982 201.0061 696.7022 188.5807 670.2381 190.0975 Z"/>
<path d="M 273.6118 337.9066 286.8637 327.8573 296.2395 329.8535 296.4533 303.629 311.2144 312.5583 314.7775 323.7314 328.0847 344.1423 329.2557 361.6365 340.7142 381.6807 343.1955 390.2357 323.9199 418.691 323.4816 432.3454 305.2968 449.6477 299.3278 434.2129 287.0119 433.7132 281.5874 417.0677 290.828 403.9792 302.6212 394.9313 293.8727 355.7951 273.6118 337.9066 Z"/>
<path d="M 587.8554 708.4396 599.6445 745.5519 576.4705 742.6036 569.1781 733.359 587.8554 708.4396 Z"/>
<path d="M 328.0847 344.1423 335.0605 349.0207 357.944 347.4544 365.7949 340.5753 377.8803 354.1432 390.6805 353.2062 386.7014 367.9027 359.6965 385.0591 340.7142 381.6807 329.2557 361.6365 328.0847 344.1423 Z"/>
<path d="M 498.4887 561.1447 496.1803 558.807 502.7262 536.1908 483.3652 531.3594 498.1089 518.0193 511.9165 514.3481 527.2371 506.6212 550.4285 507.6691 532.0031 520.5381 540.1338 539.0135 541.9905 551.5095 530.8627 560.5856 531.7745 576.2607 517.9223 572.1827 516.5706 556.5397 498.4887 561.1447 Z"/>
<path d="M 511.1853 625.9314 518.9155 625.6391 523.0333 638.6668 518.3614 645.2098 508.3029 639.4846 511.1853 625.9314 Z"/>
<path d="M 413.4837 304.0203 409.871 283.3097 406.4807 274.9263 432.4766 278.1971 444.8692 299.7471 460.2088 301.9975 438.3111 321.0284 443.3936 332.7672 428.3859 333.9796 413.4837 304.0203 Z"/>
<path d="M 278.0627 163.5143 295.0237 161.7228 311.6429 168.6633 321.3126 150.3392 333.255 164.0327 329.4177 178.8024 327.4228 203.1339 314.1504 205.1403 282.8491 200.7165 282.9993 187.3 276.3263 173.3763 278.0627 163.5143 Z"/>
<path d="M 189.7057 368.1832 189.9282 390.8917 183.7575 407.5786 182.4524 435.0313 186.5118 451.8618 181.7813 463.2418 178.5588 482.5912 164.4174 490.7711 163.0531 498.9486 155.47 477.4992 159.0419 461.7961 152.9259 442.1872 157.7088 426.2465 155.1792 413.4019 169.0142 387.5835 189.7057 368.1832 Z"/>
<path d="M 375.6845 141.3494 404.2666 143.7083 399.6397 156.2725 406.4146 164.4616 402.137 185.8956 381.0651 197.4231 390.4586 207.0115 375.1652 211.5772 378.5455 220.5131 364.6029 231.114 344.7405 217.616 327.4228 203.1339 329.4177 178.8024 368.089 177.5535 375.6845 141.3494 Z"/>
<path d="M 328.9374 474.5165 333.1043 488.5974 326.4284 493.7483 304.0115 493.0527 294.3309 484.7408 274.877 489.9324 273.567 483.6466 284.4802 474.9169 324.107 477.3561 328.9374 474.5165 Z"/>
<path d="M 670.0835 343.3996 663.1143 338.8201 666.3453 322.2941 686.6436 313.4669 698.4383 320.6736 717.1377 336.4515 724.902 347.5739 735.6952 353.6593 725.5279 351.0569 687.5608 361.5183 679.4739 342.4612 670.0835 343.3996 Z"/>
<path d="M 343.1955 390.2357 352.0266 417.668 367.3863 440.1193 366.0611 451.8818 347.3266 453.9036 347.5618 441.6288 309.9222 457.3397 305.2968 449.6477 323.4816 432.3454 323.9199 418.691 343.1955 390.2357 Z"/>
<path d="M 356.2687 490.7717 356.8183 480.2765 341.4641 473.7586 328.9374 474.5165 324.107 477.3561 284.4802 474.9169 273.567 483.6466 273.549 483.5829 278.3056 466.3862 299.3278 434.2129 305.2968 449.6477 309.9222 457.3397 347.5618 441.6288 347.3266 453.9036 366.0611 451.8818 378.7702 474.4379 392.9015 478.7854 391.3404 492.5201 375.5006 507.0502 361.4315 509.5797 367.7034 499.6883 356.2687 490.7717 Z"/>
<path d="M 363.27 543.1884 369.972 562.0474 356.7374 569.8742 337.3362 566.1199 329.2725 571.0302 357.226 542.8013 363.27 543.1884 Z"/>
<path d="M 566.4635 319.8093 566.4718 318.9677 610.0861 365.4863 617.8813 382.6118 610.7023 406.9463 600.133 424.4761 597.8453 437.6461 589.1922 447.4281 575.3653 438.9639 561.9068 447.7705 550.0088 434.5237 539.9416 447.5755 529.3988 440.2778 534.311 416.1846 535.0684 394.2184 546.373 377.634 553.8323 351.338 567.1816 327.1906 566.4635 319.8093 Z"/>
<path d="M 320.79 278.9677 331.3002 287.4007 381.4904 298.0714 397.3209 296.3689 367.3919 335.7577 362.4888 323.1351 339.6137 317.2953 314.7775 323.7314 311.2144 312.5583 296.4533 303.629 296.4215 287.7004 320.79 278.9677 Z"/>
<path d="M 439.7578 502.7286 453.4662 507.3133 469.749 492.5655 470.1523 518.7669 498.1089 518.0193 483.3652 531.3594 474.5801 538.0482 457.2244 533.2509 454.7951 520.2613 428.3145 516.1627 439.7578 502.7286 Z"/>
<path d="M 315.3043 275.6588 320.79 278.9677 296.4215 287.7004 285.9112 276.0886 302.5358 270.6792 315.3043 275.6588 Z"/>
<path d="M 587.4129 268.171 607.6496 294.0762 657.305 311.1826 666.3453 322.2941 663.1143 338.8201 670.0835 343.3996 671.6347 360.4369 667.0542 369.5259 666.08 400.7177 655.205 410.028 641.5868 390.5084 640.1208 374.8469 610.0861 365.4863 566.4718 318.9677 562.2638 305.1506 566.482 293.3087 587.4129 268.171 Z"/>
<path d="M 550.4285 507.6691 572.114 491.4812 580.2912 503.6926 584.3996 523.4379 565.12 530.4468 553.4098 542.4983 540.1338 539.0135 532.0031 520.5381 550.4285 507.6691 Z"/>
<path d="M 390.4586 207.0115 400.0785 210.4843 416.4973 200.747 421.1723 220.1335 417.6052 240.4438 421.8286 250.3782 403.1622 244.5086 372.2408 259.7164 359.246 259.9248 354.9158 249.7839 366.6322 239.2312 364.6029 231.114 378.5455 220.5131 375.1652 211.5772 390.4586 207.0115 Z"/>
<path d="M 175.9882 99.5389 223.8905 99.2681 216.1562 109.1758 208.6496 126.7293 213.8459 138.1172 237.5153 151.909 240.5539 172.4619 233.7119 192.226 195.8316 192.477 183.2092 181.7886 187.3079 179.3627 182.3135 153.25 189.2133 144.0544 182.8004 124.5384 183.6507 104.3262 175.9882 99.5389 Z"/>
<path d="M 556.9545 690.8027 556.8964 688.8396 565.4557 690.6586 580.067 672.4903 579.4495 662.8902 603.8023 663.6551 590.1516 695.2706 587.8554 708.4396 569.1781 733.359 576.4705 742.6036 550.6081 743.1907 538.9249 731.9542 555.53 719.4373 556.9545 690.8027 Z"/>
<path d="M 447.9514 479.9791 473.597 478.1984 477.8446 483.7997 469.749 492.5655 453.4662 507.3133 439.7578 502.7286 410.9487 521.1316 393.853 526.2475 392.7706 534.4362 377.8919 531.5464 363.27 543.1884 357.226 542.8013 329.2725 571.0302 326.5934 565.7482 326.1052 559.83 337.5799 543.3778 353.3126 523.2312 365.3963 515.3178 401.7722 510.4606 407.0091 499.2678 442.0103 485.9066 447.9514 479.9791 Z"/>
<path d="M 153.624 530.3446 161.3615 524.6139 173.7049 515.9426 177.3754 509.5105 178.3296 509.8704 183.1217 514.1149 183.5525 549.9935 178.5129 566.1318 178.7685 566.6744 171.1227 586.7107 151.8227 613.4891 138.1812 614.6716 122.4692 602.0463 114.0553 588.1834 113.7094 572.0882 150.5637 564.0583 154.6958 549.109 144.6885 533.3004 153.624 530.3446 Z"/>
<path d="M 617.7904 517.7366 627.3635 523.566 611.0905 550.0338 590.9206 548.0726 584.1233 555.6921 570.9366 559.8457 553.4357 557.1214 541.9905 551.5095 540.1338 539.0135 553.4098 542.4983 565.12 530.4468 584.3996 523.4379 598.7675 522.9114 603.1976 514.8833 617.7904 517.7366 Z"/>
<path d="M 606.0158 612.5632 613.1895 607.5678 641.8252 612.0344 627.1682 624.3063 608.8215 642.7533 593.3068 640.7482 590.0181 635.2024 594.9207 618.8032 606.0158 612.5632 Z"/>
<path d="M 466.5302 577.1056 470.953 602.0526 470.0545 607.1959 446.2616 615.6836 440.2965 625.3559 435.4691 598.3429 447.877 585.0203 466.5302 577.1056 Z"/>
<path d="M 356.7374 569.8742 369.972 562.0474 375.2906 556.9623 387.6689 583.391 384.6849 586.9625 379.5444 576.1024 356.7374 569.8742 Z"/>
<path d="M 221.0093 569.2834 234.6743 569.9943 239.406 557.8204 247.9566 561.4229 253.6181 558.3202 243.8566 581.8294 237.6503 582.8889 215.6416 581.7516 215.6124 581.7505 214.0689 568.8085 221.0093 569.2834 Z"/>
<path d="M 466.5302 577.1056 471.6255 567.9385 496.1803 558.807 498.4887 561.1447 487.547 592.5493 494.1489 594.9408 470.953 602.0526 466.5302 577.1056 Z"/>
<path d="M 721.3011 312.5653 738.8232 328.9906 723.3287 335.1326 724.902 347.5739 717.1377 336.4515 698.4383 320.6736 721.3011 312.5653 Z"/>
<path d="M 211.5645 521.1709 201.9293 504.7964 178.3296 509.8704 177.3754 509.5105 182.3027 507.3523 178.5588 482.5912 181.7813 463.2418 249.0461 463.2387 238.6884 490.2319 273.549 483.5829 273.567 483.6466 274.877 489.9324 305.0907 502.1641 328.2495 498.6649 317.1259 505.7587 294.3064 514.8071 279.4797 514.3053 272.5553 527.0779 254.2084 516.6076 238.9122 517.1173 233.9701 519.5006 220.4515 511.1966 211.5645 521.1709 Z"/>
<path d="M 206.1562 555.1338 204.0537 543.9903 215.8883 547.6878 221.0093 569.2834 214.0689 568.8085 206.1562 555.1338 Z"/>
<path d="M 465.1354 148.6706 527.3465 153.3301 516.5065 181.3889 497.2889 180.8489 487.9305 187.0928 455.6378 186.2094 467.9772 160.8046 465.1354 148.6706 Z"/>
<path d="M 262.4236 566.0322 268.9285 586.7172 262.6666 585.7245 255.5285 572.5177 262.4236 566.0322 Z"/>
<path d="M 130.5794 347.1204 161.6489 342.8237 173.358 348.9068 194.1401 338.1245 189.7057 368.1832 169.0142 387.5835 155.1792 413.4019 157.7088 426.2465 152.9259 442.1872 159.0419 461.7961 147.4448 463.8887 125.999 475.3175 117.6132 466.428 93.2325 467.5043 88.1646 462.6817 82.3433 450.2073 66.9109 436.9852 87.7735 425.0511 95.0199 399.1685 109.3842 384.9133 130.5794 347.1204 Z"/>
<path d="M 550.2439 273.3972 533.4166 270.6295 515.7023 278.3389 492.5619 266.0299 474.2473 250.2142 492.2281 224.8119 518.0422 213.6794 540.061 222.8156 558.6754 219.3934 582.5592 228.3692 597.9921 237.7081 596.2181 241.5161 582.7323 250.0989 577.8465 257.0509 557.6353 263.5849 550.2439 273.3972 Z"/>
<path d="M 597.9921 237.7081 601.4282 209.2156 605.2967 205.2419 612.2207 211.138 664.6747 202.0845 662.1126 217.5016 661.5262 248.8478 659.2981 255.5247 640.5003 259.8814 611.1301 255.9811 596.2181 241.5161 597.9921 237.7081 Z"/>
<path d="M 225.593 223.0668 230.4508 249.0475 228.6646 270.2012 219.9402 276.9929 195.2137 267.1207 188.1575 251.4424 191.3622 238.4582 207.0421 229.8327 225.593 223.0668 Z"/>
<path d="M 233.9701 519.5006 238.9122 517.1173 253.7327 533.2023 273.7529 533.2112 277.1376 543.0308 258.2674 549.27 236.8797 543.7688 230.7056 527.0726 233.9701 519.5006 Z"/>
<path d="M 69.8344 157.8887 70.9613 138.0576 96.0556 135.7178 120.9118 142.3283 131.2165 167.6683 144.2102 174.5758 154.2726 167.1846 174.1395 168.3541 183.2092 181.7886 195.8316 192.477 199.0882 202.7162 193.4634 214.5249 207.0421 229.8327 191.3622 238.4582 159.37 239.3307 151.7889 233.6457 123.1179 243.2882 103.6582 246.5779 86.583 242.9725 78.279 230.0403 70.4425 204.0329 72.1149 183.5423 66.9546 165.7209 69.8344 157.8887 Z"/>
<path d="M 541.9905 551.5095 553.4357 557.1214 541.0869 567.5005 543.4421 586.9516 550.7228 595.5012 548.5165 617.7879 533.0018 629.2227 518.9155 625.6391 511.1853 625.9314 501.2666 608.0273 494.7977 595.0712 494.1489 594.9408 487.547 592.5493 498.4887 561.1447 516.5706 556.5397 517.9223 572.1827 531.7745 576.2607 530.8627 560.5856 541.9905 551.5095 Z"/>
<path d="M 601.8829 584.8016 622.2922 583.6723 639.8057 593.617 656.9831 595.709 651.7812 608.1014 641.8252 612.0344 613.1895 607.5678 606.0158 612.5632 600.9498 600.4403 601.8829 584.8016 Z"/>
<path d="M 598.0124 437.7272 597.8453 437.6461 600.133 424.4761 610.7023 406.9463 617.8813 382.6118 610.0861 365.4863 640.1208 374.8469 641.5868 390.5084 655.205 410.028 666.08 400.7177 679.644 408.3751 685.4096 424.2067 703.7828 417.967 718.1417 424.7455 712.0726 436.5305 699.4297 437.1388 681.7124 447.6759 671.8702 446.1975 645.3543 439.8272 598.0124 437.7272 Z"/>
<path d="M 204.3724 533.5409 204.2664 533.5358 194.8754 533.5632 201.9293 504.7964 211.5645 521.1709 204.3724 533.5409 Z M 314.508 519.3188 330.0638 528.7599 337.5799 543.3778 326.1052 559.83 320.8926 551.9423 307.636 551.8017 302.98 564.5554 290.3647 577.7533 288.9578 566.6332 277.1376 543.0308 273.7529 533.2112 253.7327 533.2023 238.9122 517.1173 254.2084 516.6076 272.5553 527.0779 301.7208 530.1629 314.508 519.3188 Z"/>
<path d="M 178.7685 566.6744 194.9139 575.0785 215.6124 581.7505 215.6416 581.7516 227.6844 595.1423 206.2593 605.3899 199.8729 624.6508 152.0671 622.7398 151.8227 613.4891 171.1227 586.7107 178.7685 566.6744 Z"/>
<path d="M 735.6952 353.6593 724.902 347.5739 723.3287 335.1326 738.8232 328.9906 748.5378 330.382 764.3911 304.2775 767.0486 338.4323 771.0938 355.1112 766.9513 368.5901 759.7911 383.5514 748.5401 371.809 746.2781 351.8331 735.6952 353.6593 Z"/>
<path d="M 610.7373 660.0752 593.2761 640.8046 593.3068 640.7482 608.8215 642.7533 623.3609 644.2866 610.7373 660.0752 Z"/>
<path d="M 384.6849 586.9625 387.6689 583.391 421.6292 584.7903 435.4691 598.3429 440.2965 625.3559 454.3188 634.3906 466.8524 636.012 472.235 678.4336 434.3692 699.0196 422.5784 698.8263 422.4051 698.7237 430.3978 630.401 407.9215 624.9429 399.1499 612.4014 384.6849 586.9625 Z"/>
<path d="M 223.4899 317.8767 225.5235 297.8162 231.2475 288.6001 228.6646 270.2012 230.4508 249.0475 242.3361 273.364 252.5247 307.1768 273.6118 337.9066 293.8727 355.7951 302.6212 394.9313 290.828 403.9792 270.8898 410.9728 242.4426 406.3269 234.4303 388.2667 226.9838 378.9857 225.1161 359.3168 218.0688 342.7085 223.4899 317.8767 Z"/>
<path d="M 474.5801 538.0482 483.3652 531.3594 502.7262 536.1908 496.1803 558.807 471.6255 567.9385 466.5302 577.1056 447.877 585.0203 435.4691 598.3429 421.6292 584.7903 431.2312 576.3556 443.5096 569.3305 444.4099 558.5475 457.7862 540.6293 474.5801 538.0482 Z"/>
<path d="M 527.3465 153.3301 563.6088 156.0684 538.7127 173.2213 527.214 189.6769 499.6633 209.9108 457.1608 194.3165 454.0879 199.1111 452.6291 197.9917 447.7537 193.421 455.6378 186.2094 487.9305 187.0928 497.2889 180.8489 516.5065 181.3889 527.3465 153.3301 Z"/>
<path d="M 277.1376 543.0308 288.9578 566.6332 274.8936 564.8968 268.9285 586.7172 262.4236 566.0322 253.6181 558.3202 247.9566 561.4229 258.2674 549.27 277.1376 543.0308 Z"/>
<path d="M 221.0093 569.2834 215.8883 547.6878 204.0537 543.9903 204.2664 533.5358 204.3724 533.5409 232.7846 545.9805 239.406 557.8204 234.6743 569.9943 221.0093 569.2834 Z"/>
<path d="M 320.7294 126.1388 337.4531 130.5456 347.8261 139.0173 375.6845 141.3494 368.089 177.5535 329.4177 178.8024 333.255 164.0327 321.3126 150.3392 320.7294 126.1388 Z"/>
<path d="M 563.6088 156.0684 631.4334 161.0513 606.1328 187.4223 605.2967 205.2419 601.4282 209.2156 597.9921 237.7081 582.5592 228.3692 558.6754 219.3934 540.061 222.8156 518.0422 213.6794 492.2281 224.8119 490.0544 220.9563 488.9424 214.3522 454.0879 199.1111 457.1608 194.3165 499.6633 209.9108 527.214 189.6769 538.7127 173.2213 563.6088 156.0684 Z"/>
<path d="M 444.0963 246.534 453.2498 233.9433 472.9709 234.2398 490.0544 220.9563 492.2281 224.8119 474.2473 250.2142 492.5619 266.0299 486.2005 271.1404 470.2418 265.6092 468.9262 255.9464 444.0963 246.534 Z"/>
<path d="M 631.4334 161.0513 656.9014 162.8398 659.9072 184.5428 670.2381 190.0975 664.6747 202.0845 612.2207 211.138 605.2967 205.2419 606.1328 187.4223 631.4334 161.0513 Z"/>
<path d="M 671.8702 446.1975 681.7124 447.6759 699.4297 437.1388 712.0726 436.5305 695.6057 465.6265 694.4176 489.1935 671.2056 510.3387 651.6909 500.6233 662.9887 485.3922 677.9312 478.9937 685.6287 464.5792 668.3641 457.4107 671.8702 446.1975 Z"/>
<path d="M 469.749 492.5655 477.8446 483.7997 506.9853 500.6453 511.9165 514.3481 498.1089 518.0193 470.1523 518.7669 469.749 492.5655 Z"/>
</g>
</svg>