<?xml version="1.0"?>
<svg xmlns="http://www.w3.org/2000/svg" version="1.2" baseProfile="tiny" width="800" height="747" viewBox="0 0 800 747" stroke-linecap="round" stroke-linejoin="round">
<g id="51MIE250GC_SIR">
<path d="M 409.871 283.3097 423.0153 325.0031 433.5198 377.3182 468.0147 375.1346 486.3127 357.1664 545.1729 327.7573 549.9951 329.7092 525.6552 347.9594 512.9699 365.2492 506.7642 397.608 487.8552 429.2537 489.9469 448.6573 471.2612 462.4667 473.597 478.1984 431.3806 487.9212 407.0091 499.2678 401.7722 510.4606 365.3963 515.3178 361.4315 509.5797 375.5006 507.0502 396.4002 483.6134 378.7702 474.4379 366.0611 451.8818 367.3863 440.1193 342.6993 398.3014 342.164 383.9982 329.2557 361.6365 316.4923 323.3695 339.6137 317.2953 362.4888 323.1351 368.2728 336.2735 389.8871 301.7909 409.871 283.3097 Z"/>
<path d="M 566.4718 318.9677 566.482 293.3087 587.4129 268.171 607.6496 294.0762 647.074 303.0039 667.186 325.0761 670.4447 344.2804 666.3693 401.1137 685.4096 424.2067 703.7828 417.967 718.1417 424.7455 695.6057 465.6265 691.3452 505.1476 680.7875 517.235 640.38 526.433 623.1651 534.7213 611.0905 550.0338 584.1233 555.6921 570.9366 559.8457 541.9905 551.5095 532.0031 520.5381 550.4285 507.6691 563.0607 502.2191 587.4194 449.209 598.7977 436.4878 617.8813 382.6118 597.8144 349.6382 566.4718 318.9677 Z"/>
<path d="M 597.9921 237.7081 606.1328 187.4223 631.4334 161.0513 799 172.1713 780.9579 217.581 772.5407 229.3515 772.0817 257.9886 763.7502 280.0411 766.9513 368.5901 759.7911 383.5514 743.6878 383.9923 718.1417 424.7455 703.7828 417.967 685.4096 424.2067 666.3693 401.1137 670.4447 344.2804 667.186 325.0761 647.074 303.0039 607.6496 294.0762 587.4129 268.171 582.7323 250.0989 597.9921 237.7081 Z"/>
<path d="M 223.8905 99.2681 234.5767 52.8147 228.6305 36.2572 250.5888 1 266.6492 40.6321 279.9593 58.7128 276.818 71.8081 283.3695 96.2644 310.6037 107.7653 325.1755 129.671 347.8261 139.0173 404.2666 143.7083 399.6397 156.2725 422.0343 176.1589 423.2778 198.901 389.6773 206.9966 364.6029 231.114 338.5079 210.5486 293.2153 201.0707 254.8415 213.5823 231.5796 212.8594 240.5539 172.4619 237.5153 151.909 213.8459 138.1172 208.6496 126.7293 223.8905 99.2681 Z"/>
<path d="M 544.3794 656.1323 569.8177 650.04 585.8038 633.5188 603.8023 663.6551 590.1516 695.2706 587.4016 717.0543 599.6445 745.5519 550.6081 743.1907 538.9249 731.9542 555.53 719.4373 556.9545 690.8027 533.544 668.6561 544.3794 656.1323 Z"/>
<path d="M 404.2666 143.7083 491.8773 150.8041 631.4334 161.0513 606.1328 187.4223 597.9921 237.7081 558.6754 219.3934 540.061 222.8156 518.0422 213.6794 472.9709 234.2398 459.197 233.6102 444.0963 246.534 410.9118 252.212 403.1622 244.5086 372.2408 259.7164 354.9158 249.7839 364.6029 231.114 389.6773 206.9966 423.2778 198.901 422.0343 176.1589 399.6397 156.2725 404.2666 143.7083 Z"/>
<path d="M 550.4285 507.6691 532.0031 520.5381 541.9905 551.5095 498.4887 561.1447 471.6255 567.9385 435.4691 598.3429 421.6292 584.7903 443.5096 569.3305 457.7862 540.6293 474.5801 538.0482 499.3485 518.2604 527.2371 506.6212 550.4285 507.6691 Z"/>
<path d="M 231.5796 212.8594 254.8415 213.5823 293.2153 201.0707 338.5079 210.5486 364.6029 231.114 354.9158 249.7839 372.2408 259.7164 405.045 273.0038 409.871 283.3097 389.8871 301.7909 368.2728 336.2735 362.4888 323.1351 339.6137 317.2953 316.4923 323.3695 329.2557 361.6365 342.164 383.9982 342.6993 398.3014 367.3863 440.1193 366.0611 451.8818 347.5618 441.6288 309.9222 457.3397 287.0119 433.7132 281.5874 417.0677 290.828 403.9792 302.6212 394.9313 293.8727 355.7951 265.5718 331.2001 252.5247 307.1768 242.3361 273.364 230.4508 249.0475 225.6111 222.9557 231.5796 212.8594 Z"/>
<path d="M 273.567 483.6466 284.4802 474.9169 324.107 477.3561 341.4641 473.7586 356.8183 480.2765 367.7034 499.6883 361.4315 509.5797 365.3963 515.3178 337.5799 543.3778 329.5927 530.3855 344.0303 508.5328 328.5117 498.6121 305.0907 502.1641 273.567 483.6466 Z"/>
<path d="M 288.9578 566.6332 274.8936 564.8968 255.4494 575.5809 254.6612 590.8297 228.288 595.0233 206.2593 605.3899 199.8729 624.6508 152.0671 622.7398 194.8754 533.5632 204.2664 533.5358 220.4515 511.1966 253.7327 533.2023 273.7529 533.2112 288.9578 566.6332 Z"/>
<path d="M 435.4691 598.3429 471.6255 567.9385 498.4887 561.1447 487.547 592.5493 502.3748 597.4566 502.4263 619.7604 520.1533 637.6038 545.8931 645.4285 544.3794 656.1323 533.544 668.6561 556.9545 690.8027 528.8807 716.4765 513.6438 719.4594 499.6557 706.7964 455.9209 718.834 422.5784 698.8263 434.3692 699.0196 470.7021 677.3475 467.743 641.0476 440.5321 625.3935 435.4691 598.3429 Z"/>
<path d="M 473.597 478.1984 471.2612 462.4667 489.9469 448.6573 487.8552 429.2537 506.7642 397.608 512.9699 365.2492 525.6552 347.9594 549.9951 329.7092 566.4718 318.9677 597.8144 349.6382 617.8813 382.6118 598.7977 436.4878 587.4194 449.209 563.0607 502.2191 550.4285 507.6691 527.2371 506.6212 499.3485 518.2604 474.5801 538.0482 457.2244 533.2509 439.7578 502.7286 453.4662 507.3133 473.8492 490.1831 473.597 478.1984 Z"/>
<path d="M 178.5588 482.5912 179.7257 497.9365 200.7383 505.3569 194.8754 533.5632 152.0671 622.7398 102.9036 621.7969 98.2227 566.354 75.3799 540.7992 97.8227 539.968 95.8754 506.621 81.1517 472.6506 88.1646 462.6817 117.6132 466.428 125.999 475.3175 147.4448 463.8887 164.4174 490.7711 178.5588 482.5912 Z"/>
<path d="M 718.1417 424.7455 743.6878 383.9923 759.7911 383.5514 766.9513 368.5901 779.7714 384.799 772.0941 415.5397 754.8795 446.2313 756.5592 469.0088 744.9003 492.1711 738.655 527.6893 707.3735 537.7563 682.9808 591.1717 656.9831 595.709 639.8057 593.617 612.8822 568.6576 597.8147 570.2201 584.1233 555.6921 611.0905 550.0338 623.1651 534.7213 640.38 526.433 680.7875 517.235 691.3452 505.1476 695.6057 465.6265 718.1417 424.7455 Z"/>
<path d="M 223.8905 99.2681 208.6496 126.7293 213.8459 138.1172 237.5153 151.909 240.5539 172.4619 231.5796 212.8594 225.6111 222.9557 230.4508 249.0475 242.3361 273.364 252.5247 307.1768 265.5718 331.2001 293.8727 355.7951 302.6212 394.9313 290.828 403.9792 270.8898 410.9728 242.4426 406.3269 240.659 391.8483 226.9838 378.9857 218.0688 342.7085 218.3912 322.365 173.358 348.9068 161.6489 342.8237 130.5794 347.1204 122.8427 340.4013 108.3311 292.6574 119.5104 282.9175 115.2689 263.6401 87.5192 259.8324 82.7257 252.5588 7.8433 251.8005 12.6226 212.673 2.8642 193.791 9.386 151.1286 1 137.9143 12.1033 107.7159 5.1644 99.3859 85.5158 99.0738 223.8905 99.2681 Z"/>
<path d="M 199.8729 624.6508 206.2593 605.3899 228.288 595.0233 254.6612 590.8297 255.4494 575.5809 274.8936 564.8968 288.9578 566.6332 288.5093 584.3692 309.1325 592.7386 324.2522 585.0822 351.4275 587.9889 367.5786 606.4454 362.9863 622.8009 407.9215 624.9429 430.3978 630.401 422.4051 698.7237 377.2558 688.4832 343.4893 694.8401 317.7613 727.1942 290.904 733.4954 263.0398 704.6152 246.4341 704.482 227.1003 685.8608 222.474 648.8176 224.758 625.6591 199.8729 624.6508 Z"/>
<path d="M 597.9921 237.7081 582.7323 250.0989 587.4129 268.171 566.482 293.3087 566.4718 318.9677 549.9951 329.7092 545.1729 327.7573 486.3127 357.1664 468.0147 375.1346 433.5198 377.3182 423.0153 325.0031 409.871 283.3097 405.045 273.0038 372.2408 259.7164 403.1622 244.5086 410.9118 252.212 444.0963 246.534 459.197 233.6102 472.9709 234.2398 518.0422 213.6794 540.061 222.8156 558.6754 219.3934 597.9921 237.7081 Z"/>
<path d="M 326.5934 565.7482 337.5799 543.3778 365.3963 515.3178 401.7722 510.4606 407.0091 499.2678 431.3806 487.9212 473.597 478.1984 473.8492 490.1831 453.4662 507.3133 439.7578 502.7286 410.9487 521.1316 393.853 526.2475 369.972 562.0474 326.5934 565.7482 Z"/>
<path d="M 439.7578 502.7286 457.2244 533.2509 474.5801 538.0482 457.7862 540.6293 443.5096 569.3305 421.6292 584.7903 435.4691 598.3429 440.5321 625.3935 467.743 641.0476 470.7021 677.3475 434.3692 699.0196 422.5784 698.8263 422.4051 698.7237 430.3978 630.401 407.9215 624.9429 362.9863 622.8009 367.5786 606.4454 351.4275 587.9889 324.2522 585.0822 309.1325 592.7386 326.5934 565.7482 369.972 562.0474 393.853 526.2475 410.9487 521.1316 439.7578 502.7286 Z"/>
<path d="M 178.5588 482.5912 164.4174 490.7711 147.4448 463.8887 125.999 475.3175 117.6132 466.428 88.1646 462.6817 66.9109 436.9852 87.7735 425.0511 95.0199 399.1685 109.3842 384.9133 130.5794 347.1204 161.6489 342.8237 173.358 348.9068 218.3912 322.365 218.0688 342.7085 226.9838 378.9857 240.659 391.8483 242.4426 406.3269 270.8898 410.9728 290.828 403.9792 281.5874 417.0677 287.0119 433.7132 309.9222 457.3397 347.5618 441.6288 366.0611 451.8818 378.7702 474.4379 396.4002 483.6134 375.5006 507.0502 361.4315 509.5797 367.7034 499.6883 356.8183 480.2765 341.4641 473.7586 324.107 477.3561 284.4802 474.9169 273.567 483.6466 238.6884 490.2319 249.0461 463.2387 181.7813 463.2418 178.5588 482.5912 Z"/>
<path d="M 194.8754 533.5632 200.7383 505.3569 179.7257 497.9365 178.5588 482.5912 181.7813 463.2418 249.0461 463.2387 238.6884 490.2319 273.567 483.6466 305.0907 502.1641 328.5117 498.6121 344.0303 508.5328 329.5927 530.3855 337.5799 543.3778 326.5934 565.7482 309.1325 592.7386 288.5093 584.3692 288.9578 566.6332 273.7529 533.2112 253.7327 533.2023 220.4515 511.1966 204.2664 533.5358 194.8754 533.5632 Z"/>
<path d="M 584.1233 555.6921 597.8147 570.2201 612.8822 568.6576 639.8057 593.617 656.9831 595.709 636.3386 614.7211 632.3558 637.1871 603.8023 663.6551 585.8038 633.5188 569.8177 650.04 544.3794 656.1323 545.8931 645.4285 520.1533 637.6038 502.4263 619.7604 502.3748 597.4566 487.547 592.5493 498.4887 561.1447 541.9905 551.5095 570.9366 559.8457 584.1233 555.6921 Z"/>
</g>
</svg>