<?xml version="1.0"?>
<svg xmlns="http://www.w3.org/2000/svg" version="1.2" baseProfile="tiny" width="800" height="779" viewBox="0 0 800 779" stroke-linecap="round" stroke-linejoin="round">
<g id="15MIE250GC_SIR">
<path d="M 629.0049 535.5585 533.6998 616.0754 485.5233 567.942 485.4026 551.2877 496.1 537.0477 605.1429 524.956 629.0049 535.5585 Z"/>
<path d="M 218.721 65.9074 200.3333 12.2854 247.4428 1 260.5445 51.5175 285.1243 52.8761 332.4266 77.6329 363.0334 120.0716 358.6834 138.6895 398.7108 198.456 411.3539 232.335 446.0323 233.8683 430.5998 262.3966 441.2767 322.1647 414.8569 339.4024 369.55 329.6145 325.5031 223.8923 240.4121 121.6902 218.721 65.9074 Z"/>
<path d="M 635.0761 497.0417 657.6895 499.8585 657.8281 546.9118 629.0049 535.5585 605.1429 524.956 496.1 537.0477 485.4026 551.2877 512.2013 486.1298 553.6901 502.0559 593.4236 503.3369 619.7393 464.7705 635.0761 497.0417 Z"/>
<path d="M 519.7384 146.966 586.376 144.4744 593.3662 173.0913 655.4824 176.7631 656.6855 219.195 654.8265 223.9927 652.9389 226.3031 629.9325 257.6943 593.7624 270.0392 582.2098 248.1098 589.8266 205.4912 550.5312 192.0013 519.7384 146.966 Z"/>
<path d="M 607.6476 608.3858 602.0494 686.5322 554.873 743.425 543.1785 777.9258 475.6785 773.6554 489.2269 755.5751 491.7716 705.1384 519.7414 674.7612 568.0671 683.5469 567.9927 623.5036 607.6476 608.3858 Z"/>
<path d="M 200.3333 12.2854 218.721 65.9074 218.7342 250.0903 233.7038 267.5643 196.19 306.2257 160.5059 366.706 134.0393 365.3363 156.1754 298.6205 97.4284 271.1609 46.8004 239.479 2.627 184.2865 1 85.7226 36.2057 63.0897 86.1176 55.7411 114.1001 35.84 154.7239 40.5131 200.3333 12.2854 Z"/>
<path d="M 740.6091 213.4121 694.1014 229.1964 654.8265 223.9927 656.6855 219.195 700.8122 195.9854 740.6091 213.4121 Z"/>
<path d="M 467.6627 192.1564 481.1765 169.9752 519.7384 146.966 550.5312 192.0013 589.8266 205.4912 582.2098 248.1098 593.7624 270.0392 549.0132 276.0503 527.4293 273.4947 481.1449 231.8408 467.6627 192.1564 Z"/>
<path d="M 446.0323 233.8683 467.6627 192.1564 481.1449 231.8408 527.4293 273.4947 549.0132 276.0503 550.3867 313.2944 566.6497 341.2492 562.9521 370.5128 544.1273 365.0023 506.652 381.1032 496.2581 357.799 441.2767 322.1647 430.5998 262.3966 446.0323 233.8683 Z"/>
<path d="M 218.721 65.9074 240.4121 121.6902 325.5031 223.8923 369.55 329.6145 300.6735 343.0533 291.2103 393.4743 301.9346 424.1025 254.4735 438.3305 239.9995 408.7727 242.247 366.0773 160.5059 366.706 196.19 306.2257 233.7038 267.5643 218.7342 250.0903 218.721 65.9074 Z"/>
<path d="M 593.7624 270.0392 629.9325 257.6943 649.1291 268.817 625.658 284.9034 591.3983 343.3598 590.2171 376.1141 559.3913 391.4776 562.9521 370.5128 566.6497 341.2492 550.3867 313.2944 549.0132 276.0503 593.7624 270.0392 Z"/>
<path d="M 689.21 273.22 683.5925 324.9966 661.5127 362.4996 624.4173 375.9695 590.2171 376.1141 591.3983 343.3598 625.658 284.9034 649.1291 268.817 663.9733 254.5112 689.21 273.22 Z"/>
<path d="M 703.9895 252.0469 752.6288 261.3758 785.7265 230.1523 799 261.4695 780.102 317.0647 750.5001 314.0231 720.4542 343.1333 617.9483 384.3609 624.4173 375.9695 661.5127 362.4996 683.5925 324.9966 689.21 273.22 703.9895 252.0469 Z"/>
<path d="M 619.7393 464.7705 593.4236 503.3369 553.6901 502.0559 512.2013 486.1298 499.0705 484.6237 500.9302 438.4621 550.4511 417.5543 559.3913 391.4776 590.2171 376.1141 624.4173 375.9695 617.9483 384.3609 615.1964 412.4401 581.819 417.2385 588.7023 443.9639 619.7393 464.7705 Z"/>
<path d="M 652.9389 226.3031 654.8265 223.9927 694.1014 229.1964 703.9895 252.0469 689.21 273.22 663.9733 254.5112 652.9389 226.3031 Z"/>
<path d="M 617.9483 384.3609 720.4542 343.1333 750.5001 314.0231 780.102 317.0647 766.8719 348.2607 708.3353 445.3791 635.0761 497.0417 619.7393 464.7705 588.7023 443.9639 581.819 417.2385 615.1964 412.4401 617.9483 384.3609 Z"/>
<path d="M 740.6091 213.4121 767.7726 220.2114 785.7265 230.1523 752.6288 261.3758 703.9895 252.0469 694.1014 229.1964 740.6091 213.4121 Z"/>
<path d="M 441.2767 322.1647 496.2581 357.799 506.652 381.1032 544.1273 365.0023 562.9521 370.5128 559.3913 391.4776 550.4511 417.5543 500.9302 438.4621 499.0705 484.6237 393.8919 490.4077 389.0148 516.0852 346.5739 541.3624 357.6925 562.7858 349.9244 612.9609 374.3184 672.9674 376.6286 699.2702 361.305 765.6715 268.7563 758.8337 237.6093 727.7088 231.2664 671.7142 244.1491 651.3705 231.431 625.1728 234.1214 580.5936 223.6203 553.3206 241.8354 538.4357 216.4326 486.3355 225.2057 454.2712 254.4735 438.3305 301.9346 424.1025 291.2103 393.4743 300.6735 343.0533 369.55 329.6145 414.8569 339.4024 441.2767 322.1647 Z"/>
<path d="M 629.0049 535.5585 657.8281 546.9118 641.5286 577.7546 607.6476 608.3858 567.9927 623.5036 568.0671 683.5469 519.7414 674.7612 533.6998 616.0754 629.0049 535.5585 Z"/>
<path d="M 533.6998 616.0754 519.7414 674.7612 491.7716 705.1384 489.2269 755.5751 475.6785 773.6554 361.305 765.6715 376.6286 699.2702 374.3184 672.9674 349.9244 612.9609 357.6925 562.7858 346.5739 541.3624 389.0148 516.0852 393.8919 490.4077 499.0705 484.6237 512.2013 486.1298 485.4026 551.2877 485.5233 567.942 533.6998 616.0754 Z"/>
<path d="M 663.9733 254.5112 649.1291 268.817 629.9325 257.6943 652.9389 226.3031 663.9733 254.5112 Z"/>
<path d="M 134.0393 365.3363 160.5059 366.706 242.247 366.0773 239.9995 408.7727 254.4735 438.3305 225.2057 454.2712 216.4326 486.3355 241.8354 538.4357 223.6203 553.3206 234.1214 580.5936 231.431 625.1728 244.1491 651.3705 231.2664 671.7142 237.6093 727.7088 268.7563 758.8337 140.0427 748.3018 82.449 710.101 79.402 676.5477 45.6778 611.6324 29.8227 594.5661 82.9096 475.2549 134.0393 365.3363 Z"/>
</g>
</svg>