<?xml version="1.0"?>
<svg xmlns="http://www.w3.org/2000/svg" version="1.2" baseProfile="tiny" width="800" height="780" viewBox="0 0 800 780" stroke-linecap="round" stroke-linejoin="round">
<g id="15MUE250GC_SIR">
<path d="M 780.8625 313.8467 770.4587 301.949 768.5942 273.6951 788.6371 271.7984 780.8625 313.8467 Z"/>
<path d="M 219.0082 250.3588 249.2116 277.8984 238.9509 298.4314 233.9967 267.8998 219.0082 250.3588 Z"/>
<path d="M 486.1427 357.8522 507.2885 381.5816 544.811 365.4605 563.6595 370.978 560.0942 391.9692 551.1428 418.0787 502.7495 404.0287 495.7213 430.1825 479.2479 405.1884 486.1427 357.8522 Z"/>
<path d="M 596.3455 329.5497 581.5101 350.6423 590.9588 376.5863 583.1291 382.7133 560.0942 391.9692 563.6595 370.978 559.7588 360.7649 564.4028 349.8879 574.6224 329.6871 596.3455 329.5497 Z"/>
<path d="M 706.9533 264.9619 725.287 263.2704 726.5287 263.4159 720.7738 292.9013 708.8065 280.6274 706.9533 264.9619 Z"/>
<path d="M 594.3742 456.2199 620.5154 465.3492 620.5182 465.3543 601.0452 487.9049 594.3742 456.2199 Z"/>
<path d="M 701.5248 228.9607 707.5456 227.3435 719.911 223.9085 720.5354 223.9414 714.7109 240.2024 705.7935 248.8291 701.5248 228.9607 Z"/>
<path d="M 672.3673 520.1729 649.9352 540.5732 644.1313 531.37 654.2492 513.4258 662.6121 506.8989 672.3673 520.1729 Z"/>
<path d="M 468.2501 192.3971 489.4134 204.1808 481.7493 232.1314 466.645 265.6154 435.002 277.0585 416.9489 256.9293 446.5925 234.1615 468.2501 192.3971 Z"/>
<path d="M 698.1787 253.7065 686.6555 261.5978 676.7959 259.162 684.0207 251.8059 698.1787 253.7065 Z"/>
<path d="M 740.5067 214.8523 744.9777 226.206 732.5086 225.4239 731.6939 223.1012 730.5618 220.2897 740.5067 214.8523 Z"/>
<path d="M 644.0599 237.4017 645.1173 236.1459 653.7595 226.5867 664.2569 232.029 661.0497 239.2086 661.524 253.6234 662.3828 254.6053 651.4565 258.3392 644.0599 237.4017 Z"/>
<path d="M 601.0452 487.9049 620.5182 465.3543 624.8286 472.4347 621.008 493.5417 624.0095 510.419 637.3732 529.652 629.7955 536.2314 605.9034 525.6156 591.9029 532.2518 568.8351 529.3775 496.7232 537.7224 486.0124 551.9804 498.6205 508.7268 512.8448 486.7405 525.6518 486.976 554.3859 502.6867 594.1693 503.9692 601.0452 487.9049 Z"/>
<path d="M 743.3671 385.9179 724.027 420.0015 692.3978 416.1186 681.1264 402.0667 723.6833 380.1981 743.3671 385.9179 Z"/>
<path d="M 654.2492 513.4258 644.1313 531.37 637.3732 529.652 624.0095 510.419 654.2492 513.4258 Z"/>
<path d="M 724.2886 243.3423 732.8971 239.4486 734.0288 249.7498 734.0151 250.033 725.4443 260.7013 719.5526 256.3864 718.9945 248.5386 724.2886 243.3423 Z"/>
<path d="M 551.1428 418.0787 582.5502 417.7625 589.4421 444.5215 593.9022 456.8066 538.1791 465.0064 525.6518 486.976 512.8448 486.7405 499.6974 485.2325 501.5596 439.0128 495.7213 430.1825 502.7495 404.0287 551.1428 418.0787 Z"/>
<path d="M 253.525 139.4386 283.2144 163.258 283.0713 178.5707 305.67 204.2208 310.0427 225.029 320.5838 270.7186 290.8523 313.9876 275.428 294.8266 283.8887 260.3101 267.1013 252.2566 268.9627 225.922 249.5461 178.6658 253.525 139.4386 Z"/>
<path d="M 684.5926 205.7229 698.0759 202.6014 694.7515 220.4874 689.354 221.0811 686.1649 211.3942 684.5926 205.7229 Z"/>
<path d="M 429.5207 485.2844 467.2897 485.2101 499.6974 485.2325 512.8448 486.7405 498.6205 508.7268 486.0124 551.9804 483.8396 567.6651 487.4849 577.4722 463.6392 578.8792 452.5105 602.4376 440.076 644.9776 423.6011 651.9603 427.8388 683.2649 446.3851 687.4029 441.5839 720.3458 458.0829 731.7947 477.4588 769.997 476.2761 774.6281 361.7585 766.6341 374.9549 750.0584 364.8004 733.5108 377.1014 700.1492 374.7884 673.8133 350.3637 613.7313 358.1415 563.493 347.0089 542.0426 389.5032 516.7336 394.3864 491.0238 429.5207 485.2844 Z"/>
<path d="M 679.7859 293.2683 683.8691 294.0289 685.2141 301.8647 686.1563 320.3516 662.3442 362.9547 649.9351 362.8386 652.1384 322.9744 655.5105 306.4594 679.7859 293.2683 Z"/>
<path d="M 661.0497 239.2086 662.1298 241.0444 661.8712 245.9717 661.524 253.6234 661.0497 239.2086 Z"/>
<path d="M 644.7783 464.1481 670.9677 470.2342 654.8582 482.8329 644.7783 464.1481 Z"/>
<path d="M 289.5959 375.7801 291.9158 367.2745 301.0507 343.4839 316.5534 343.5424 360.3069 392.2203 358.9014 392.7697 338.409 416.6728 301.2364 427.7169 300.6105 402.2761 289.5959 375.7801 Z"/>
<path d="M 520.3914 147.1498 530.8338 153.3978 551.223 192.2418 528.0864 208.0801 509.9877 194.5124 489.4134 204.1808 468.2501 192.3971 481.7809 170.1879 520.3914 147.1498 Z"/>
<path d="M 65.7915 513.4159 91.8316 510.7469 102.8195 526.722 136.7242 536.2651 126.4075 600.4531 107.4628 632.12 145.1952 680.3493 172.2911 689.0244 172.4838 751.9348 119.9534 740.8809 106.9167 721.2829 82.5516 710.9936 79.5007 677.398 45.7341 612.4011 29.859 595.3133 65.7915 513.4159 Z"/>
<path d="M 730.5618 220.2897 731.6939 223.1012 727.3303 223.4298 720.5354 223.9414 719.911 223.9085 721.8994 215.1356 730.5618 220.2897 Z"/>
<path d="M 631.2984 325.6401 652.1384 322.9744 649.9351 362.8386 625.1835 376.0725 618.5275 341.6794 631.2984 325.6401 Z"/>
<path d="M 714.7109 240.2024 718.9945 248.5386 719.5526 256.3864 704.8744 252.3629 705.7904 248.8342 705.7935 248.8291 714.7109 240.2024 Z"/>
<path d="M 698.1787 253.7065 704.8744 252.3629 719.5526 256.3864 725.4443 260.7013 725.287 263.2704 706.9533 264.9619 692.0624 264.768 686.6555 261.5978 698.1787 253.7065 Z"/>
<path d="M 527.7301 570.582 526.6173 554.0767 569.002 553.9813 578.9605 572.0788 574.8542 583.1615 558.0781 572.8491 527.7301 570.582 Z"/>
<path d="M 219.0082 250.3588 218.9951 65.9891 240.7135 121.8421 253.525 139.4386 249.5461 178.6658 268.9627 225.922 267.1013 252.2566 283.8887 260.3101 275.428 294.8266 238.9509 298.4314 249.2116 277.8984 219.0082 250.3588 Z"/>
<path d="M 608.4282 603.5711 608.4112 609.1503 568.7064 624.2872 568.6959 644.8523 536.1668 631.3471 534.3704 616.8496 608.4282 603.5711 Z"/>
<path d="M 481.7493 232.1314 489.4134 204.1808 509.9877 194.5124 528.0864 208.0801 532.5023 223.5645 562.1892 231.3566 559.4921 244.1928 540.0558 250.5156 542.0507 275.8369 539.1274 275.804 481.7493 232.1314 Z"/>
<path d="M 525.904 648.9739 529.7547 645.7843 566.9239 661.9242 568.7735 661.63 568.7809 684.4061 520.3944 675.6094 525.904 648.9739 Z"/>
<path d="M 720.5354 223.9414 727.3303 223.4298 724.2886 243.3423 718.9945 248.5386 714.7109 240.2024 720.5354 223.9414 Z"/>
<path d="M 748.2996 216.7877 757.3829 219.3542 745.9277 244.6832 736.1771 248.2363 734.0151 250.033 734.0288 249.7498 745.6369 226.0983 748.2996 216.7877 Z"/>
<path d="M 706.2251 206.9797 707.6923 206.4481 709.0844 222.1354 706.2251 206.9797 Z"/>
<path d="M 706.9533 264.9619 708.8065 280.6274 709.01 287.9963 685.2141 301.8647 683.8691 294.0289 690.0764 273.5627 692.0624 264.768 706.9533 264.9619 Z"/>
<path d="M 757.3829 219.3542 768.7378 220.4874 768.2793 223.704 774.0321 246.3709 757.1373 259.6565 745.9277 244.6832 757.3829 219.3542 Z"/>
<path d="M 1.0289 163.4481 43.0943 209.0135 57.0683 212.3511 92.8422 247.1353 135.3885 266.1881 145.6184 299.0313 46.858 239.7792 12.8318 205.3134 1.0289 163.4481 Z"/>
<path d="M 618.725 384.8435 627.8138 386.1468 658.8146 403.0107 658.867 414.287 619.4787 436.2544 589.4421 444.5215 582.5502 417.7625 615.9696 412.958 618.725 384.8435 Z"/>
<path d="M 707.6923 206.4481 719.0925 203.9125 722.1425 214.2633 721.8994 215.1356 719.911 223.9085 707.5456 227.3435 709.0844 222.1354 707.6923 206.4481 Z"/>
<path d="M 744.8164 279.106 751.728 297.7752 732.3735 325.1236 730.9894 304.7673 744.8164 279.106 Z"/>
<path d="M 721.2216 343.685 695.7531 349.2675 676.1299 363.6671 651.6707 366.8475 627.8138 386.1468 618.725 384.8435 625.202 376.4416 625.1835 376.0725 649.9351 362.8386 662.3442 362.9547 686.1563 320.3516 718.261 313.4874 724.6447 324.0661 721.2216 343.685 Z"/>
<path d="M 672.4114 213.8779 674.2859 209.9821 686.718 227.7991 681.8082 233.7479 669.766 225.799 672.4114 213.8779 Z"/>
<path d="M 487.4849 577.4722 483.8396 567.6651 493.0171 568.1604 494.5334 578.2621 526.0591 613.1072 497.0796 624.4043 486.7995 649.1773 446.3851 687.4029 427.8388 683.2649 423.6011 651.9603 440.076 644.9776 452.5105 602.4376 474.4499 603.7865 487.4849 577.4722 Z"/>
<path d="M 708.8065 280.6274 720.7738 292.9013 713.7702 296.117 709.01 287.9963 708.8065 280.6274 Z"/>
<path d="M 732.5086 225.4239 744.9777 226.206 745.6369 226.0983 734.0288 249.7498 732.8971 239.4486 732.5086 225.4239 Z"/>
<path d="M 135.3885 266.1881 176.7001 286.6225 176.1071 289.6661 145.6184 299.0313 135.3885 266.1881 Z"/>
<path d="M 644.0599 237.4017 651.4565 258.3392 655.5121 266.4313 649.945 269.1541 630.7242 258.0174 644.0599 237.4017 Z"/>
<path d="M 134.2067 365.7949 160.7067 367.1664 230.2499 365.7342 242.5507 366.5369 235.7136 404.8121 203.9316 418.8775 181.5767 404.1046 167.3922 422.9461 145.2722 432.2998 122.4243 391.8237 134.2067 365.7949 Z"/>
<path d="M 661.8712 245.9717 664.8079 254.8303 662.3828 254.6053 661.524 253.6234 661.8712 245.9717 Z"/>
<path d="M 232.1143 586.8555 231.7211 625.9585 244.4552 652.1892 231.5562 672.5585 237.9071 728.6236 252.7732 730.2126 269.0933 759.7877 172.4838 751.9348 172.2911 689.0244 178.2146 659.6998 167.9174 627.3871 173.0196 584.1175 198.4603 558.994 218.9125 567.9374 232.1143 586.8555 Z"/>
<path d="M 670.9677 470.2342 644.7783 464.1481 624.8286 472.4347 620.5182 465.3543 620.5154 465.3492 619.4787 436.2544 658.867 414.287 694.6637 451.684 670.9677 470.2342 Z"/>
<path d="M 576.3137 292.3021 600.6265 287.6356 601.9163 316.1921 573.9098 321.4998 576.3137 292.3021 Z"/>
<path d="M 520.3914 147.1498 530.6042 125.1898 547.4289 141.4565 587.1129 144.655 594.1118 173.308 625.6847 177.1338 620.1332 190.6421 607.5206 194.6917 589.9124 204.5231 551.223 192.2418 530.8338 153.3978 520.3914 147.1498 Z"/>
<path d="M 706.2251 206.9797 709.0844 222.1354 707.5456 227.3435 701.5248 228.9607 697.0554 229.1696 694.7515 220.4874 698.0759 202.6014 706.2251 206.9797 Z"/>
<path d="M 721.2216 343.685 751.4436 314.4172 781.0828 317.4626 767.836 348.6978 743.3671 385.9179 723.6833 380.1981 681.1264 402.0667 658.8146 403.0107 627.8138 386.1468 651.6707 366.8475 676.1299 363.6671 695.7531 349.2675 721.2216 343.685 Z"/>
<path d="M 649.945 269.1541 655.5121 266.4313 654.0429 280.1918 629.3557 312.5032 631.2984 325.6401 618.5275 341.6794 625.1835 376.0725 625.202 376.4416 590.9588 376.5863 581.5101 350.6423 596.3455 329.5497 606.0265 313.8584 626.4443 285.2608 649.945 269.1541 Z"/>
<path d="M 310.0427 225.029 305.67 204.2208 283.0713 178.5707 283.2144 163.258 253.525 139.4386 240.7135 121.8421 218.9951 65.9891 200.5842 12.2996 247.753 1 259.7235 24.8773 260.8712 51.5811 285.4819 52.9414 332.8438 77.7294 344.3465 104.5766 363.4892 120.2215 359.1337 138.8629 399.2114 198.7046 411.8704 232.6263 446.5925 234.1615 416.9489 256.9293 370.1242 271.9123 347.9728 272.259 325.9116 224.1729 310.0427 225.029 Z"/>
<path d="M 689.354 221.0811 694.7515 220.4874 697.0554 229.1696 694.9739 229.4836 686.718 227.7991 688.1962 223.6872 689.354 221.0811 Z"/>
<path d="M 727.3303 223.4298 731.6939 223.1012 732.5086 225.4239 732.8971 239.4486 724.2886 243.3423 727.3303 223.4298 Z"/>
<path d="M 587.7161 223.5433 590.0994 204.6289 608.5309 209.1193 628.9903 237.9218 645.1173 236.1459 644.0599 237.4017 630.7242 258.0174 623.8248 259.8654 606.7656 225.3953 587.7161 223.5433 Z"/>
<path d="M 643.9553 568.373 615.3222 591.209 594.795 566.292 608.0779 554.9569 643.9553 568.373 Z"/>
<path d="M 624.8286 472.4347 644.7783 464.1481 654.8582 482.8329 635.8743 497.6662 621.008 493.5417 624.8286 472.4347 Z"/>
<path d="M 629.7955 536.2314 637.3732 529.652 644.1313 531.37 649.9352 540.5732 658.6549 547.599 643.9553 568.373 608.0779 554.9569 629.7955 536.2314 Z"/>
<path d="M 529.4818 283.7184 539.1274 275.804 542.0507 275.8369 549.703 276.3965 551.0783 313.6875 564.4028 349.8879 559.7588 360.7649 549.6436 328.3978 522.1426 288.7239 529.4818 283.7184 Z"/>
<path d="M 609.7955 270.206 610.8686 269.3067 626.4443 285.2608 606.0265 313.8584 601.9163 316.1921 600.6265 287.6356 609.7955 270.206 Z"/>
<path d="M 690.0764 273.5627 683.8691 294.0289 679.7859 293.2683 678.4512 278.0441 690.0764 273.5627 Z"/>
<path d="M 623.8248 259.8654 630.7242 258.0174 649.945 269.1541 626.4443 285.2608 610.8686 269.3067 623.8248 259.8654 Z"/>
<path d="M 729.5564 204.0299 722.1425 214.2633 719.0925 203.9125 729.5564 204.0299 Z"/>
<path d="M 316.5534 343.5424 370.0139 330.0282 370.0251 330.0376 390.8161 379.6928 360.3069 392.2203 316.5534 343.5424 Z"/>
<path d="M 684.5926 205.7229 686.1649 211.3942 688.1962 223.6872 686.718 227.7991 674.2859 209.9821 684.5926 205.7229 Z"/>
<path d="M 574.8542 583.1615 574.6505 583.333 534.3704 616.8496 526.0591 613.1072 494.5334 578.2621 493.0171 568.1604 527.7301 570.582 558.0781 572.8491 574.8542 583.1615 Z"/>
<path d="M 587.5729 237.1436 587.7161 223.5433 606.7656 225.3953 623.8248 259.8654 610.8686 269.3067 609.7955 270.206 594.5085 270.3779 587.5729 237.1436 Z"/>
<path d="M 608.5309 209.1193 607.5206 194.6917 620.1332 190.6421 622.9209 203.5506 655.634 224.0462 655.6495 224.2734 653.7595 226.5867 645.1173 236.1459 628.9903 237.9218 608.5309 209.1193 Z"/>
<path d="M 574.6505 583.333 574.8542 583.1615 580.6114 578.2929 592.6952 596.4582 574.5643 602.046 574.6505 583.333 Z"/>
<path d="M 593.9022 456.8066 594.3742 456.2199 601.0452 487.9049 594.1693 503.9692 554.3859 502.6867 525.6518 486.976 538.1791 465.0064 593.9022 456.8066 Z"/>
<path d="M 694.9739 229.4836 697.0554 229.1696 701.5248 228.9607 705.7935 248.8291 705.7904 248.8342 694.9739 229.4836 Z"/>
<path d="M 662.1298 241.0444 670.1676 241.472 666.8569 254.5924 664.8079 254.8303 661.8712 245.9717 662.1298 241.0444 Z"/>
<path d="M 199.9419 12.3694 200.5842 12.2996 218.9951 65.9891 219.0082 250.3588 233.9967 267.8998 238.9509 298.4314 205.972 297.8906 188.3857 287.8951 202.8361 274.5363 201.0932 247.6614 181.6112 243.388 166.3699 211.1233 179.6115 187.9824 171.3401 149.9208 195.1244 111.4072 207.9233 79.4115 192.3596 52.4409 185.624 16.7914 199.9419 12.3694 Z"/>
<path d="M 655.5121 266.4313 651.4565 258.3392 662.3828 254.6053 664.8079 254.8303 678.4512 278.0441 679.7859 293.2683 655.5105 306.4594 652.1384 322.9744 631.2984 325.6401 629.3557 312.5032 654.0429 280.1918 655.5121 266.4313 Z"/>
<path d="M 255.3823 329.3697 255.3019 385.4063 248.403 401.2475 235.7136 404.8121 242.5507 366.5369 230.2499 365.7342 241.2364 322.3723 255.3823 329.3697 Z"/>
<path d="M 560.0942 391.9692 583.1291 382.7133 582.5502 417.7625 551.1428 418.0787 560.0942 391.9692 Z"/>
<path d="M 664.2569 232.029 674.5452 237.8875 670.1676 241.472 662.1298 241.0444 661.0497 239.2086 664.2569 232.029 Z"/>
<path d="M 1.0289 163.4481 1 85.8293 25.9916 83.3729 36.2501 63.1679 86.2247 55.81 114.2425 35.8839 132.1015 45.4232 154.9174 40.5628 182.3437 48.1023 173.9854 21.0312 186.3732 4.14 199.9419 12.3694 185.624 16.7914 192.3596 52.4409 207.9233 79.4115 195.1244 111.4072 171.3401 149.9208 179.6115 187.9824 166.3699 211.1233 181.6112 243.388 201.0932 247.6614 202.8361 274.5363 188.3857 287.8951 176.7001 286.6225 135.3885 266.1881 92.8422 247.1353 57.0683 212.3511 43.0943 209.0135 1.0289 163.4481 Z"/>
<path d="M 607.5206 194.6917 608.5309 209.1193 590.0994 204.6289 589.9124 204.5231 607.5206 194.6917 Z"/>
<path d="M 497.0796 624.4043 497.6813 637.5164 525.904 648.9739 520.3944 675.6094 503.6294 684.7119 493.6309 709.4357 489.8414 756.525 477.4588 769.997 458.0829 731.7947 441.5839 720.3458 446.3851 687.4029 486.7995 649.1773 497.0796 624.4043 Z"/>
<path d="M 686.1649 211.3942 689.354 221.0811 688.1962 223.6872 686.1649 211.3942 Z"/>
<path d="M 568.7809 684.4061 568.7735 661.63 597.9448 639.5234 610.4808 650.5694 607.0302 675.7909 590.3811 705.813 568.7809 684.4061 Z"/>
<path d="M 248.403 401.2475 255.3019 385.4063 289.5959 375.7801 300.6105 402.2761 301.2364 427.7169 254.7926 438.881 260.7422 406.102 248.403 401.2475 Z"/>
<path d="M 568.8351 529.3775 569.002 553.9813 526.6173 554.0767 527.7301 570.582 493.0171 568.1604 483.8396 567.6651 486.0124 551.9804 496.7232 537.7224 568.8351 529.3775 Z"/>
<path d="M 493.6309 709.4357 503.0654 723.3519 541.9493 721.3311 566.5359 731.3428 543.861 778.9038 476.2761 774.6281 477.4588 769.997 489.8414 756.525 493.6309 709.4357 Z"/>
<path d="M 591.9029 532.2518 584.6473 554.6731 594.795 566.292 580.6114 578.2929 574.8542 583.1615 578.9605 572.0788 569.002 553.9813 568.8351 529.3775 591.9029 532.2518 Z"/>
<path d="M 591.9029 532.2518 605.9034 525.6156 629.7955 536.2314 608.0779 554.9569 594.795 566.292 584.6473 554.6731 591.9029 532.2518 Z"/>
<path d="M 748.2996 216.7877 745.6369 226.0983 744.9777 226.206 740.5067 214.8523 741.5401 213.6794 748.2996 216.7877 Z"/>
<path d="M 410.2251 355.3155 435.3402 380.455 413.7718 397.5736 415.3889 415.199 442.7283 426.6667 427.7106 455.6356 429.5207 485.2844 394.3864 491.0238 389.5032 516.7336 347.0089 542.0426 358.1415 563.493 350.3637 613.7313 374.7884 673.8133 377.1014 700.1492 364.8004 733.5108 374.9549 750.0584 361.7585 766.6341 269.0933 759.7877 252.7732 730.2126 237.9071 728.6236 231.5562 672.5585 244.4552 652.1892 231.7211 625.9585 232.1143 586.8555 223.9005 554.0158 242.1385 539.1122 227.3687 508.0835 214.6659 459.2574 213.7259 452.0386 246.0866 450.2353 254.7926 438.881 301.2364 427.7169 338.409 416.6728 358.9014 392.7697 369.9774 409.1584 392.0654 401.9702 408.8651 383.9617 410.2251 355.3155 Z"/>
<path d="M 736.1771 248.2363 745.9277 244.6832 757.1373 259.6565 755.5029 281.7059 751.728 297.7752 744.8164 279.106 747.1248 262.5078 736.1771 248.2363 Z"/>
<path d="M 672.4114 213.8779 669.766 225.799 655.6495 224.2734 655.634 224.0462 657.5109 219.4697 672.4114 213.8779 Z"/>
<path d="M 601.9163 316.1921 606.0265 313.8584 596.3455 329.5497 574.6224 329.6871 573.9098 321.4998 601.9163 316.1921 Z"/>
<path d="M 559.4921 244.1928 575.2214 248.5772 582.4925 272.9779 575.5796 277.6863 549.703 276.3965 542.0507 275.8369 540.0558 250.5156 559.4921 244.1928 Z"/>
<path d="M 786.7143 230.4408 774.0321 246.3709 768.2793 223.704 786.7143 230.4408 Z"/>
<path d="M 205.972 297.8906 238.9509 298.4314 275.428 294.8266 290.8523 313.9876 301.0507 343.4839 291.9158 367.2745 291.8487 347.5966 268.3705 326.8487 255.3823 329.3697 241.2364 322.3723 230.2499 365.7342 160.7067 367.1664 196.4357 306.6099 205.972 297.8906 Z"/>
<path d="M 176.1071 289.6661 176.7001 286.6225 188.3857 287.8951 205.972 297.8906 196.4357 306.6099 160.7067 367.1664 134.2067 365.7949 157.108 316.5611 176.1071 289.6661 Z"/>
<path d="M 529.7547 645.7843 536.1668 631.3471 568.6959 644.8523 566.9239 661.9242 529.7547 645.7843 Z"/>
<path d="M 658.867 414.287 658.8146 403.0107 681.1264 402.0667 692.3978 416.1186 724.027 420.0015 709.2257 445.9385 694.6637 451.684 658.867 414.287 Z"/>
<path d="M 235.7136 404.8121 248.403 401.2475 260.7422 406.102 254.7926 438.881 246.0866 450.2353 213.7259 452.0386 203.9316 418.8775 235.7136 404.8121 Z"/>
<path d="M 487.4849 577.4722 474.4499 603.7865 452.5105 602.4376 463.6392 578.8792 487.4849 577.4722 Z"/>
<path d="M 529.4818 283.7184 522.1426 288.7239 549.6436 328.3978 559.7588 360.7649 563.6595 370.978 544.811 365.4605 507.2885 381.5816 486.1427 357.8522 461.9546 334.5748 448.4779 340.9153 441.8309 322.569 440.5664 284.5088 476.473 272.1766 529.4818 283.7184 Z"/>
<path d="M 549.703 276.3965 575.5796 277.6863 576.3137 292.3021 573.9098 321.4998 574.6224 329.6871 564.4028 349.8879 551.0783 313.6875 549.703 276.3965 Z"/>
<path d="M 122.4243 391.8237 145.2722 432.2998 167.3922 422.9461 181.5767 404.1046 203.9316 418.8775 213.7259 452.0386 214.6659 459.2574 183.9178 446.7913 165.9489 448.703 140.7085 493.931 145.039 509.9163 178.7091 516.6163 197.968 506.3974 227.3687 508.0835 242.1385 539.1122 223.9005 554.0158 232.1143 586.8555 218.9125 567.9374 198.4603 558.994 173.0196 584.1175 167.9174 627.3871 178.2146 659.6998 172.2911 689.0244 145.1952 680.3493 107.4628 632.12 126.4075 600.4531 136.7242 536.2651 102.8195 526.722 91.8316 510.7469 65.7915 513.4159 122.4243 391.8237 Z"/>
<path d="M 751.728 297.7752 755.5029 281.7059 770.4587 301.949 780.8625 313.8467 781.0828 317.4626 751.4436 314.4172 721.2216 343.685 724.6447 324.0661 732.3735 325.1236 751.728 297.7752 Z"/>
<path d="M 686.6555 261.5978 692.0624 264.768 690.0764 273.5627 678.4512 278.0441 664.8079 254.8303 666.8569 254.5924 676.7959 259.162 686.6555 261.5978 Z"/>
<path d="M 214.6659 459.2574 227.3687 508.0835 197.968 506.3974 178.7091 516.6163 145.039 509.9163 140.7085 493.931 165.9489 448.703 183.9178 446.7913 214.6659 459.2574 Z"/>
<path d="M 481.7493 232.1314 539.1274 275.804 529.4818 283.7184 476.473 272.1766 440.5664 284.5088 435.002 277.0585 466.645 265.6154 481.7493 232.1314 Z"/>
<path d="M 681.8082 233.7479 686.718 227.7991 694.9739 229.4836 705.7904 248.8342 704.8744 252.3629 698.1787 253.7065 684.0207 251.8059 680.8967 238.42 681.8082 233.7479 Z"/>
<path d="M 370.1242 271.9123 416.9489 256.9293 435.002 277.0585 440.5664 284.5088 441.8309 322.569 429.9727 337.5969 415.4079 339.9579 370.0251 330.0376 370.0139 330.0282 352.7865 293.481 370.1242 271.9123 Z"/>
<path d="M 624.0095 510.419 621.008 493.5417 635.8743 497.6662 662.6121 506.8989 654.2492 513.4258 624.0095 510.419 Z"/>
<path d="M 526.0591 613.1072 534.3704 616.8496 536.1668 631.3471 529.7547 645.7843 525.904 648.9739 497.6813 637.5164 497.0796 624.4043 526.0591 613.1072 Z"/>
<path d="M 622.9209 203.5506 620.1332 190.6421 625.6847 177.1338 656.3063 176.9843 651.4666 209.774 622.9209 203.5506 Z"/>
<path d="M 358.9014 392.7697 360.3069 392.2203 390.8161 379.6928 370.0251 330.0376 415.4079 339.9579 410.2251 355.3155 408.8651 383.9617 392.0654 401.9702 369.9774 409.1584 358.9014 392.7697 Z"/>
<path d="M 583.1291 382.7133 590.9588 376.5863 625.202 376.4416 618.725 384.8435 615.9696 412.958 582.5502 417.7625 583.1291 382.7133 Z"/>
<path d="M 709.01 287.9963 713.7702 296.117 718.261 313.4874 686.1563 320.3516 685.2141 301.8647 709.01 287.9963 Z"/>
<path d="M 622.9209 203.5506 651.4666 209.774 657.5109 219.4697 655.634 224.0462 622.9209 203.5506 Z"/>
<path d="M 608.4112 609.1503 597.9448 639.5234 568.7735 661.63 566.9239 661.9242 568.6959 644.8523 568.7064 624.2872 608.4112 609.1503 Z"/>
<path d="M 559.4921 244.1928 562.1892 231.3566 587.5729 237.1436 594.5085 270.3779 582.4925 272.9779 575.2214 248.5772 559.4921 244.1928 Z"/>
<path d="M 664.2569 232.029 653.7595 226.5867 655.6495 224.2734 669.766 225.799 681.8082 233.7479 680.8967 238.42 674.5452 237.8875 664.2569 232.029 Z"/>
<path d="M 619.4787 436.2544 620.5154 465.3492 594.3742 456.2199 593.9022 456.8066 589.4421 444.5215 619.4787 436.2544 Z"/>
<path d="M 594.5085 270.3779 609.7955 270.206 600.6265 287.6356 576.3137 292.3021 575.5796 277.6863 582.4925 272.9779 594.5085 270.3779 Z"/>
<path d="M 448.2858 357.3274 448.4779 340.9153 461.9546 334.5748 486.1427 357.8522 479.2479 405.1884 495.7213 430.1825 501.5596 439.0128 499.6974 485.2325 467.2897 485.2101 475.7944 458.0237 468.0798 405.9343 445.1127 382.1723 448.2858 357.3274 Z"/>
<path d="M 410.2251 355.3155 415.4079 339.9579 429.9727 337.5969 448.2858 357.3274 445.1127 382.1723 435.3402 380.455 410.2251 355.3155 Z"/>
<path d="M 747.1248 262.5078 726.5287 263.4159 725.287 263.2704 725.4443 260.7013 734.0151 250.033 736.1771 248.2363 747.1248 262.5078 Z"/>
<path d="M 291.9158 367.2745 289.5959 375.7801 255.3019 385.4063 255.3823 329.3697 268.3705 326.8487 291.8487 347.5966 291.9158 367.2745 Z"/>
<path d="M 574.6505 583.333 574.5643 602.046 592.6952 596.4582 580.6114 578.2929 594.795 566.292 615.3222 591.209 608.4282 603.5711 534.3704 616.8496 574.6505 583.333 Z"/>
<path d="M 726.5287 263.4159 747.1248 262.5078 744.8164 279.106 730.9894 304.7673 732.3735 325.1236 724.6447 324.0661 718.261 313.4874 713.7702 296.117 720.7738 292.9013 726.5287 263.4159 Z"/>
<path d="M 672.3673 520.1729 658.6549 547.599 649.9352 540.5732 672.3673 520.1729 Z"/>
<path d="M 528.0864 208.0801 551.223 192.2418 589.9124 204.5231 590.0994 204.6289 587.7161 223.5433 587.5729 237.1436 562.1892 231.3566 532.5023 223.5645 528.0864 208.0801 Z"/>
<path d="M 520.3944 675.6094 568.7809 684.4061 590.3811 705.813 566.5359 731.3428 541.9493 721.3311 503.0654 723.3519 493.6309 709.4357 503.6294 684.7119 520.3944 675.6094 Z"/>
<path d="M 310.0427 225.029 325.9116 224.1729 347.9728 272.259 370.1242 271.9123 352.7865 293.481 370.0139 330.0282 316.5534 343.5424 301.0507 343.4839 290.8523 313.9876 320.5838 270.7186 310.0427 225.029 Z"/>
<path d="M 786.7143 230.4408 798.2546 243.0191 788.6371 271.7984 768.5942 273.6951 770.4587 301.949 755.5029 281.7059 757.1373 259.6565 774.0321 246.3709 786.7143 230.4408 Z"/>
<path d="M 445.1127 382.1723 468.0798 405.9343 475.7944 458.0237 467.2897 485.2101 429.5207 485.2844 427.7106 455.6356 442.7283 426.6667 415.3889 415.199 413.7718 397.5736 435.3402 380.455 445.1127 382.1723 Z M 429.9727 337.5969 441.8309 322.569 448.4779 340.9153 448.2858 357.3274 429.9727 337.5969 Z"/>
<path d="M 729.5564 204.0299 741.5401 213.6794 740.5067 214.8523 730.5618 220.2897 721.8994 215.1356 722.1425 214.2633 729.5564 204.0299 Z"/>
<path d="M 674.5452 237.8875 680.8967 238.42 684.0207 251.8059 676.7959 259.162 666.8569 254.5924 670.1676 241.472 674.5452 237.8875 Z"/>
</g>
</svg>