<?xml version="1.0"?>
<svg xmlns="http://www.w3.org/2000/svg" version="1.2" baseProfile="tiny" width="800" height="459" viewBox="0 0 800 459" stroke-linecap="round" stroke-linejoin="round">
<g id="25MIE250GC_SIR">
<path d="M 585.5762 93.4515 668.332 93.2458 651.9461 125.1813 616.2257 159.3168 585.5762 93.4515 Z"/>
<path d="M 681.6686 203.1876 704.2886 187.7859 730.6437 184.7087 743.7591 242.7935 726.3853 275.6476 700.9364 274.6808 681.6686 203.1876 Z"/>
<path d="M 700.9364 274.6808 657.6949 294.0626 605.3907 291.2242 631.6141 223.3748 658.4531 210.068 681.6686 203.1876 700.9364 274.6808 Z"/>
<path d="M 424.1308 182.1743 417.7616 198.5441 368.3833 227.3846 319.8011 193.0416 307.4003 161.3131 387.8563 142.4732 424.1308 182.1743 Z"/>
<path d="M 510.3807 82.6617 503.3528 165.5193 460.0067 195.4577 458.0702 234.8769 422.6333 222.9304 417.7616 198.5441 424.1308 182.1743 455.3472 67.3861 510.3807 82.6617 Z"/>
<path d="M 726.3853 275.6476 743.7591 242.7935 797.2103 273.8855 792.3934 307.509 726.3853 275.6476 Z"/>
<path d="M 250.0112 196.7341 240.5269 260.044 143.8785 300.2615 134.7325 244.1335 93.7136 228.2023 95.1719 200.0642 250.0112 196.7341 Z"/>
<path d="M 147.8938 90.8627 161.4279 121.7089 261.0631 102.5226 257.041 138.238 250.0112 196.7341 95.1719 200.0642 82.9702 172.6701 95.1462 97.0766 147.8938 90.8627 Z"/>
<path d="M 651.9461 125.1813 668.332 93.2458 683.9547 98.37 704.2886 187.7859 681.6686 203.1876 658.4531 210.068 638.9911 164.2627 651.9461 125.1813 Z"/>
<path d="M 605.3907 291.2242 657.6949 294.0626 652.7203 325.4956 548.865 356.9424 581.3199 299.782 605.3907 291.2242 Z"/>
<path d="M 560.125 216.936 590.236 222.0118 631.6141 223.3748 605.3907 291.2242 581.3199 299.782 490.3313 234.631 560.125 216.936 Z"/>
<path d="M 95.1462 97.0766 82.9702 172.6701 95.1719 200.0642 93.7136 228.2023 42.66 264.0778 1 177.2114 29.0606 155.0032 23.8159 112.4833 55.9411 73.6949 95.1462 97.0766 Z"/>
<path d="M 616.2257 159.3168 651.9461 125.1813 638.9911 164.2627 658.4531 210.068 631.6141 223.3748 590.236 222.0118 599.8087 200.44 616.2257 159.3168 Z"/>
<path d="M 510.3807 82.6617 585.5762 93.4515 616.2257 159.3168 599.8087 200.44 560.125 216.936 490.3313 234.631 458.0702 234.8769 460.0067 195.4577 503.3528 165.5193 510.3807 82.6617 Z"/>
<path d="M 743.7591 242.7935 730.6437 184.7087 777.7479 169.6211 799 227.7456 797.2103 273.8855 743.7591 242.7935 Z"/>
<path d="M 777.7479 169.6211 730.6437 184.7087 704.2886 187.7859 683.9547 98.37 763.8222 93.6429 777.7479 169.6211 Z"/>
<path d="M 257.041 138.238 307.4003 161.3131 319.8011 193.0416 368.3833 227.3846 350.7816 234.9738 293.4836 235.2415 240.5269 260.044 250.0112 196.7341 257.041 138.238 Z"/>
<path d="M 343.9293 273.0383 307.485 251.7728 145.3118 347.2626 90.6847 345.442 143.8785 300.2615 240.5269 260.044 293.4836 235.2415 350.7816 234.9738 343.9293 273.0383 Z"/>
<path d="M 93.7136 228.2023 134.7325 244.1335 143.8785 300.2615 90.6847 345.442 30.9424 345.5228 9.1897 319.8714 42.66 264.0778 93.7136 228.2023 Z"/>
<path d="M 599.8087 200.44 590.236 222.0118 560.125 216.936 599.8087 200.44 Z"/>
<path d="M 581.3199 299.782 548.865 356.9424 476.5521 359.2412 447.9744 378.1688 432.3791 349.932 449.1176 302.9551 417.0346 250.1376 422.6333 222.9304 458.0702 234.8769 490.3313 234.631 581.3199 299.782 Z"/>
<path d="M 417.7616 198.5441 422.6333 222.9304 417.0346 250.1376 449.1176 302.9551 432.3791 349.932 447.9744 378.1688 429.4198 420.3412 362.6521 458.4815 322.376 432.2917 292.424 384.7264 343.9293 273.0383 350.7816 234.9738 368.3833 227.3846 417.7616 198.5441 Z"/>
<path d="M 261.0631 102.5226 161.4279 121.7089 147.8938 90.8627 205.1565 33.3187 302.9957 1 321.9342 27.4568 261.0631 102.5226 Z"/>
</g>
</svg>