<?xml version="1.0"?>
<svg xmlns="http://www.w3.org/2000/svg" version="1.2" baseProfile="tiny" width="800" height="1144" viewBox="0 0 800 1144" stroke-linecap="round" stroke-linejoin="round">
<g id="22MEE250GC_SIR">
<path d="M 435.4327 199.686 612.2744 227.7482 702.8962 175.1614 681.1823 273.9662 727.1401 317.2569 747.0735 507.7708 630.0005 555.4938 486.6655 551.9172 442.3777 528.6202 416.036 383.0013 455.3902 342.1968 435.4327 199.686 Z"/>
<path d="M 702.8962 175.1614 612.2744 227.7482 435.4327 199.686 497.6904 76.5377 602.8656 1 680.2947 18.4913 702.8962 175.1614 Z"/>
<path d="M 442.3777 528.6202 486.6655 551.9172 468.4547 837.4896 570.1588 806.7939 657.9849 833.7237 596.833 900.8003 455.9737 954.8394 367.4407 904.2216 310.2715 1052.7476 153.398 1142.5673 108.2769 1127.3324 1 855.585 94.8302 662.5394 188.2678 635.9165 270.2246 551.5164 442.3777 528.6202 Z"/>
<path d="M 747.0735 507.7708 799 584.2151 782.2984 717.6385 657.9849 833.7237 570.1588 806.7939 468.4547 837.4896 486.6655 551.9172 630.0005 555.4938 747.0735 507.7708 Z"/>
</g>
</svg>