<?xml version="1.0"?>
<svg xmlns="http://www.w3.org/2000/svg" version="1.2" baseProfile="tiny" width="800" height="441" viewBox="0 0 800 441" stroke-linecap="round" stroke-linejoin="round">
<g id="12MUE250GC_SIR">
<path d="M 494.9633 415.6946 463.0546 404.6139 458.7957 395.6399 481.0258 381.9963 485.7393 369.9314 503.7954 367.7925 526.6548 356.887 523.8201 370.7609 549.3343 377.867 558.9165 395.4324 568.2904 425.7832 494.9633 415.6946 Z"/>
<path d="M 185.8229 125.9 190.2448 128.1096 191.512 173.7677 175.8289 182.4864 146.2051 181.7011 130.576 176.5845 92.1296 181.4237 68.6502 163.0321 69.9363 149.2545 95.1127 134.295 105.6606 122.0201 153.3795 117.9686 185.8229 125.9 Z"/>
<path d="M 706.041 307.0844 722.132 284.8684 722.9889 270.7046 743.8189 279.8229 738.2865 283.4837 744.8718 311.8365 712.0422 325.46 703.6607 343.7033 689.1519 354.5399 670.9457 336.5455 704.9371 315.1754 706.041 307.0844 Z"/>
<path d="M 549.5392 186.1245 579.3198 211.6694 625.7778 232.6904 606.114 241.5065 613.6565 254.1539 604.2379 265.6073 583.6056 261.229 573.571 280.1514 577.218 297.734 527.8211 344.2655 507.1571 354.5918 503.7954 367.7925 485.7393 369.9314 476.7825 355.3585 450.5497 373.4917 409.5991 391.3267 364.7263 391.8278 364.7675 361.2278 404.3871 361.2872 420.0715 331.401 428.0142 300.4079 439.6963 272.7497 465.8812 231.2531 515.5561 210.6248 549.5392 186.1245 Z"/>
<path d="M 116.8883 36.4296 121.2651 62.1194 101.6331 61.613 78.6998 75.0157 48.2885 66.8315 30.6501 72.6605 3.5881 53.9226 1 27.0712 27.9609 24.5942 18.8982 1 116.8883 36.4296 Z"/>
<path d="M 743.8189 279.8229 799 303.9447 758.2815 339.9689 750.1553 337.0324 744.8718 311.8365 738.2865 283.4837 743.8189 279.8229 Z"/>
<path d="M 625.7778 232.6904 652.2052 244.6481 639.8645 266.9449 671.8888 289.1466 633.0388 310.7908 600.1655 274.268 604.2379 265.6073 613.6565 254.1539 606.114 241.5065 625.7778 232.6904 Z"/>
<path d="M 671.8888 289.1466 706.041 307.0844 704.9371 315.1754 670.9457 336.5455 645.2681 357.3092 615.5699 360.4948 596.1156 342.2009 571.729 356.8735 526.6548 356.887 503.7954 367.7925 507.1571 354.5918 527.8211 344.2655 577.218 297.734 573.571 280.1514 583.6056 261.229 604.2379 265.6073 600.1655 274.268 633.0388 310.7908 671.8888 289.1466 Z"/>
<path d="M 116.8883 36.4296 151.1969 48.8596 220.7108 56.987 214.6843 76.7343 191.3976 94.8562 185.8229 125.9 153.3795 117.9686 105.6606 122.0201 95.1127 134.295 69.9363 149.2545 47.6682 135.1325 37.3074 103.9797 62.6044 100.8708 84.3794 87.2542 111.5552 91.7798 145.0781 78.1998 121.2651 62.1194 116.8883 36.4296 Z"/>
<path d="M 376.2209 74.9947 426.2541 80.7325 492.6495 137.4161 478.7997 167.5936 457.9838 182.915 446.8987 201.6754 397.5502 202.342 377.9942 217.9024 356.8324 246.7004 339.1777 255.0958 314.8891 282.4115 315.0541 296.2946 300.5798 311.3696 282.4689 315.0239 195.1568 315.0239 198.1479 292.9264 223.4696 280.8356 243.4803 254.9306 256.3248 224.2514 261.9497 200.7667 271.0991 193.6154 284.9361 192.7213 316.5877 179.39 331.572 162.8133 338.9471 170.4088 357.3822 154.4547 358.2837 139.1741 371.8263 114.5943 362.8487 88.6421 376.2209 74.9947 Z"/>
<path d="M 744.8718 311.8365 750.1553 337.0324 758.2815 339.9689 738.8071 351.9326 724.6532 349.917 711.0386 363.6023 694.5172 370.5197 689.1519 354.5399 703.6607 343.7033 712.0422 325.46 744.8718 311.8365 Z"/>
<path d="M 526.6548 356.887 571.729 356.8735 596.1156 342.2009 615.5699 360.4948 645.2681 357.3092 649.4268 385.4831 623.6582 419.1654 607.4778 428.1636 602.5457 404.8242 576.1041 382.7263 558.9165 395.4324 549.3343 377.867 523.8201 370.7609 526.6548 356.887 Z"/>
<path d="M 722.9889 270.7046 722.132 284.8684 706.041 307.0844 671.8888 289.1466 639.8645 266.9449 652.2052 244.6481 702.2149 267.2824 722.9889 270.7046 Z"/>
<path d="M 558.9165 395.4324 576.1041 382.7263 602.5457 404.8242 607.4778 428.1636 571.8249 439.5779 568.2904 425.7832 558.9165 395.4324 Z"/>
<path d="M 185.8229 125.9 191.3976 94.8562 214.6843 76.7343 220.7108 56.987 376.2209 74.9947 362.8487 88.6421 371.8263 114.5943 358.2837 139.1741 357.3822 154.4547 338.9471 170.4088 331.572 162.8133 316.5877 179.39 284.9361 192.7213 271.0991 193.6154 256.3068 186.8146 256.8673 169.8625 233.0554 187.5749 216.6084 182.7986 206.3076 191.9591 191.512 173.7677 190.2448 128.1096 185.8229 125.9 Z"/>
<path d="M 492.6495 137.4161 549.5392 186.1245 515.5561 210.6248 465.8812 231.2531 439.6963 272.7497 428.0142 300.4079 420.0715 331.401 404.3871 361.2872 364.7675 361.2278 364.7585 323.6486 383.7219 308.3341 417.7291 265.3791 396.3283 249.3494 411.7913 235.7248 441.2362 232.9137 454.8752 218.314 446.8987 201.6754 457.9838 182.915 478.7997 167.5936 492.6495 137.4161 Z"/>
<path d="M 670.9457 336.5455 689.1519 354.5399 694.5172 370.5197 681.7682 391.0496 649.4268 385.4831 645.2681 357.3092 670.9457 336.5455 Z"/>
<path d="M 206.3076 191.9591 216.6084 182.7986 233.0554 187.5749 256.8673 169.8625 256.3068 186.8146 271.0991 193.6154 261.9497 200.7667 256.3248 224.2514 243.4803 254.9306 223.4696 280.8356 198.1479 292.9264 177.7581 261.6028 197.2807 249.1176 209.9745 227.8215 206.3076 191.9591 Z"/>
<path d="M 485.7393 369.9314 481.0258 381.9963 458.7957 395.6399 463.0546 404.6139 494.9633 415.6946 460.587 419.7646 439.5666 415.1192 398.1201 431.262 374.5979 416.6638 364.7263 391.8278 409.5991 391.3267 450.5497 373.4917 476.7825 355.3585 485.7393 369.9314 Z"/>
<path d="M 121.2651 62.1194 145.0781 78.1998 111.5552 91.7798 84.3794 87.2542 62.6044 100.8708 37.3074 103.9797 24.1744 85.561 30.6501 72.6605 48.2885 66.8315 78.6998 75.0157 101.6331 61.613 121.2651 62.1194 Z"/>
<path d="M 92.1296 181.4237 130.576 176.5845 146.2051 181.7011 175.8289 182.4864 191.512 173.7677 206.3076 191.9591 209.9745 227.8215 197.2807 249.1176 177.7581 261.6028 136.7773 251.0539 83.0105 251.0563 112.5569 213.8004 106.6142 197.5816 92.1296 181.4237 Z"/>
<path d="M 446.8987 201.6754 454.8752 218.314 441.2362 232.9137 411.7913 235.7248 396.3283 249.3494 417.7291 265.3791 383.7219 308.3341 364.7585 323.6486 364.7571 296.785 374.9552 284.8626 367.2858 272.5386 349.7812 272.0741 324.2537 295.0802 315.0541 296.2946 314.8891 282.4115 339.1777 255.0958 356.8324 246.7004 377.9942 217.9024 397.5502 202.342 446.8987 201.6754 Z"/>
</g>
</svg>