<?xml version="1.0"?>
<svg xmlns="http://www.w3.org/2000/svg" version="1.2" baseProfile="tiny" width="800" height="435" viewBox="0 0 800 435" stroke-linecap="round" stroke-linejoin="round">
<g id="27MUE250GC_SIR">
<path d="M 208.2336 94.7897 239.9938 98.2337 249.0458 86.7111 261.7861 105.9407 213.861 122.1337 217.8288 133.263 168.9391 121.4522 208.2336 94.7897 Z"/>
<path d="M 440.6409 185.1885 441.7945 184.5877 453.3902 177.1514 464.1366 203.9724 451.6097 203.4493 440.6409 185.1885 Z"/>
<path d="M 622.0159 115.6879 639.4301 127.1874 639.3044 147.5161 611.3945 155.036 623.6353 130.724 622.0159 115.6879 Z"/>
<path d="M 479.2611 215.8112 477.7523 214.954 489.0715 200.4469 513.7926 207.9967 514.2048 235.9935 491.0535 238.2757 479.2611 215.8112 Z"/>
<path d="M 743.5572 32.6309 747.6024 11.2482 799 25.4681 775.9008 64.0097 759.8778 54.6415 743.5572 32.6309 Z"/>
<path d="M 354.9781 318.0746 361.6522 308.5322 395.0482 317.6599 380.5415 337.9892 354.9781 318.0746 Z"/>
<path d="M 650.8296 79.6885 677.0223 80.9081 684.5074 107.4638 705.2799 128.5564 704.392 139.0823 660.7749 143.1081 650.8296 79.6885 Z"/>
<path d="M 373.613 119.795 365.931 148.3822 337.4013 144.882 343.3904 123.8379 373.613 119.795 Z"/>
<path d="M 105.5434 104.4866 144.5697 93.5747 160.2355 97.1859 168.9391 121.4522 169.0642 123.7895 151.8888 152.9957 132.6507 132.8594 122.2334 121.9558 105.5434 104.4866 Z"/>
<path d="M 379.3638 235.9559 384.5701 230.2143 401.0487 255.2671 386.495 274.199 379.3638 235.9559 Z"/>
<path d="M 479.6606 179.0667 491.7713 179.4841 513.5963 181.447 522.549 172.513 530.1259 202.4838 513.7926 207.9967 489.0715 200.4469 479.6606 179.0667 Z"/>
<path d="M 475.9928 249.8112 498.7111 276.6472 477.4261 273.4191 455.8197 295.5515 451.2726 271.4862 436.6223 264.2768 436.6295 264.2714 443.647 255.0097 475.9928 249.8112 Z"/>
<path d="M 598.0821 144.4012 611.3945 155.036 639.3044 147.5161 639.2778 148.029 632.2696 184.7359 608.8542 199.5584 590.1021 183.8342 598.0821 144.4012 Z"/>
<path d="M 661.7623 54.8522 662.1296 53.4939 693.4348 59.8931 708.5519 69.3359 715.2678 96.563 688.2974 88.0849 661.7623 54.8522 Z"/>
<path d="M 431.1065 193.6177 440.6409 185.1885 451.6097 203.4493 464.1366 203.9724 477.7523 214.954 479.2611 215.8112 447.7461 226.3125 441.0432 218.7577 431.1065 193.6177 Z"/>
<path d="M 150.2929 222.4276 156.1748 203.407 147.2018 185.8292 161.4843 175.6946 199.889 215.3555 228.8515 212.1881 242.6916 211.7626 230.675 225.4216 258.8802 237.6226 244.2065 261.3076 198.5584 240.4206 173.1623 238.3223 150.2929 222.4276 Z"/>
<path d="M 132.6507 132.8594 151.8888 152.9957 151.8347 153.0574 147.2018 185.8292 156.1748 203.407 150.2929 222.4276 103.25 197.1216 115.7104 188.0431 121.2557 162.532 134.0829 146.6474 132.6507 132.8594 Z"/>
<path d="M 251.1942 165.5503 272.6158 192.4346 289.8248 186.6531 283.0142 203.2507 281.2618 206.6087 255.8587 197.8567 239.9702 190.3285 224.5775 182.992 251.1942 165.5503 Z"/>
<path d="M 663.3183 150.354 696.2017 151.7157 702.6441 161.7445 693.8771 173.3576 663.3183 150.354 Z"/>
<path d="M 306.1762 129.3934 326.3347 140.2017 313.2539 148.7389 294.3793 165.2887 282.57 160.0233 306.1762 129.3934 Z"/>
<path d="M 242.6916 211.7626 258.8802 237.6226 230.675 225.4216 242.6916 211.7626 Z"/>
<path d="M 627.705 197.2739 633.0924 202.4802 613.9233 209.2453 627.705 197.2739 Z"/>
<path d="M 590.1021 183.8342 608.8542 199.5584 613.8012 209.011 571.9778 220.8841 560.2747 221.5145 532.9011 205.6131 579.5222 195.8429 590.1021 183.8342 Z"/>
<path d="M 711.2972 32.3485 720.9309 34.3282 692.31 49.922 688.4832 24.2883 711.2972 32.3485 Z"/>
<path d="M 313.2539 148.7389 326.0771 173.1813 363.2094 184.8369 364.66 190.0142 350.1952 202.2403 307.6777 207.4365 283.0142 203.2507 289.8248 186.6531 294.3793 165.2887 313.2539 148.7389 Z"/>
<path d="M 568.6622 119.9478 579.0617 116.0124 608.5103 83.0408 622.0159 115.6879 623.6353 130.724 611.3945 155.036 598.0821 144.4012 575.4128 150.0276 568.6622 119.9478 Z"/>
<path d="M 478.1488 386.0662 501.5868 394.4535 479.9406 434.0332 468.366 415.8897 453.636 415.2712 448.3861 401.1837 478.1488 386.0662 Z"/>
<path d="M 548.4855 54.3707 550.0987 61.8269 546.4448 86.8387 531.4636 102.5518 505.271 92.0911 528.3543 59.3428 548.4855 54.3707 Z"/>
<path d="M 639.2778 148.029 659.7234 143.2203 663.3183 150.354 693.8771 173.3576 670.0045 194.3091 655.1214 219.2764 634.0446 231.1971 633.7026 223.2848 633.0924 202.4802 627.705 197.2739 632.2696 184.7359 639.2778 148.029 Z"/>
<path d="M 604.3289 268.6148 589.3506 290.548 574.1983 285.2901 569.0944 269.2627 572.8067 257.0707 604.3289 268.6148 Z"/>
<path d="M 428.7852 228.3902 441.0432 218.7577 447.7461 226.3125 479.2611 215.8112 491.0535 238.2757 475.9928 249.8112 443.647 255.0097 436.6295 264.2714 428.7852 228.3902 Z"/>
<path d="M 261.7861 105.9407 277.3354 115.9899 239.963 138.084 206.0934 139.7589 169.0642 123.7895 168.9391 121.4522 217.8288 133.263 213.861 122.1337 261.7861 105.9407 Z"/>
<path d="M 708.5519 69.3359 742.1149 70.2467 757.561 85.2922 762.0024 87.4958 750.6287 106.9321 715.2678 96.563 708.5519 69.3359 Z"/>
<path d="M 539.7668 126.239 548.5998 132.9109 539.4052 169.5672 525.8856 165.0578 525.0909 164.4269 539.7668 126.239 Z"/>
<path d="M 401.0487 255.2671 426.7667 272.6837 412.4651 302.3202 402.3577 296.2421 385.0308 275.5365 386.495 274.199 401.0487 255.2671 Z"/>
<path d="M 571.9778 220.8841 613.8012 209.011 613.9233 209.2453 633.7026 223.2848 634.0446 231.1971 617.127 251.1396 604.1093 257.2438 578.5124 245.6603 571.9778 220.8841 Z"/>
<path d="M 59.3148 87.6274 71.1397 110.7397 62.3846 134.1989 22.0041 111.945 38.5784 91.9418 59.3148 87.6274 Z"/>
<path d="M 532.1829 254.3593 515.9271 236.7044 560.2747 221.5145 571.9778 220.8841 578.5124 245.6603 572.8067 257.0707 569.0944 269.2627 556.9484 271.9957 532.1829 254.3593 Z"/>
<path d="M 307.6777 207.4365 350.1952 202.2403 345.9228 209.56 329.0336 226.7524 322.91 233.7741 303.7106 217.559 307.6777 207.4365 Z"/>
<path d="M 22.0041 111.945 62.3846 134.1989 95.4765 152.4359 89.8234 186.8054 65.2055 183.6583 42.3356 161.3515 10.057 155.8483 1 132.5633 22.0041 111.945 Z"/>
<path d="M 491.0535 238.2757 514.2048 235.9935 515.9271 236.7044 532.1829 254.3593 507.0455 288.9981 498.7111 276.6472 475.9928 249.8112 491.0535 238.2757 Z"/>
<path d="M 575.4128 150.0276 598.0821 144.4012 590.1021 183.8342 579.5222 195.8429 532.9011 205.6131 530.1259 202.4838 522.549 172.513 525.8856 165.0578 539.4052 169.5672 575.4128 150.0276 Z"/>
<path d="M 416.5081 371.5866 420.9537 357.5336 444.2658 351.5428 452.615 324.2809 462.0313 314.2401 462.6882 316.3217 486.058 337.3397 483.6606 365.441 478.1488 386.0662 448.3861 401.1837 453.636 415.2712 434.0286 414.388 433.3372 391.116 416.5081 371.5866 Z"/>
<path d="M 426.7667 272.6837 436.6223 264.2768 451.2726 271.4862 455.8197 295.5515 462.0313 314.2401 452.615 324.2809 445.9284 316.3736 409.5738 314.743 412.4651 302.3202 426.7667 272.6837 Z"/>
<path d="M 608.5103 83.0408 626.5442 88.2553 650.8296 79.6885 660.7749 143.1081 659.7234 143.2203 639.2778 148.029 639.3044 147.5161 639.4301 127.1874 622.0159 115.6879 608.5103 83.0408 Z"/>
<path d="M 218.7661 54.5377 249.0458 86.7111 239.9938 98.2337 208.2336 94.7897 218.7661 54.5377 Z"/>
<path d="M 360.5701 351.4825 333.4158 325.2365 354.9781 318.0746 380.5415 337.9892 360.5701 351.4825 Z"/>
<path d="M 711.2972 32.3485 688.4832 24.2883 690.8562 6.6128 698.706 1 699.604 18.4896 711.2972 32.3485 Z"/>
<path d="M 613.9233 209.2453 633.0924 202.4802 633.7026 223.2848 613.9233 209.2453 Z"/>
<path d="M 582.7027 22.4496 602.602 11.3972 624.545 13.758 622.4774 43.2079 615.767 61.1049 591.4472 55.3005 591.7248 33.4653 582.7027 22.4496 Z"/>
<path d="M 487.64 103.7507 495.2302 120.8835 491.7885 121.4215 453.8272 152.3098 418.0903 133.0905 468.0112 102.1329 487.64 103.7507 Z"/>
<path d="M 677.0223 80.9081 688.2974 88.0849 715.2678 96.563 738.2833 121.3053 716.1185 139.8668 705.2799 128.5564 684.5074 107.4638 677.0223 80.9081 Z"/>
<path d="M 661.7623 54.8522 688.2974 88.0849 677.0223 80.9081 650.8296 79.6885 626.5442 88.2553 608.5103 83.0408 615.767 61.1049 622.4774 43.2079 661.7623 54.8522 Z"/>
<path d="M 747.6024 11.2482 743.5572 32.6309 720.9309 34.3282 711.2972 32.3485 699.604 18.4896 698.706 1 747.6024 11.2482 Z"/>
<path d="M 483.6606 365.441 512.5457 374.185 501.5868 394.4535 478.1488 386.0662 483.6606 365.441 Z"/>
<path d="M 186.8151 39.0813 144.5697 93.5747 105.5434 104.4866 74.9528 72.4678 100.4395 47.3072 107.5395 18.452 125.7151 7.5372 150.9526 45.3745 186.8151 39.0813 Z"/>
<path d="M 385.0308 275.5365 402.3577 296.2421 395.0482 317.6599 361.6522 308.5322 373.2616 295.0484 385.0308 275.5365 Z"/>
<path d="M 286.5631 283.4475 294.4259 266.271 310.6752 256.0615 322.91 233.7741 329.0336 226.7524 350.6769 240.18 334.12 269.3346 373.2616 295.0484 361.6522 308.5322 354.9781 318.0746 333.4158 325.2365 330.3904 305.242 306.3874 301.3594 286.5631 283.4475 Z"/>
<path d="M 255.8587 197.8567 281.2618 206.6087 264.4264 230.9351 258.8802 237.6226 242.6916 211.7626 255.8587 197.8567 Z"/>
<path d="M 147.2018 185.8292 151.8347 153.0574 205.8944 170.5381 224.5775 182.992 239.9702 190.3285 228.8515 212.1881 199.889 215.3555 161.4843 175.6946 147.2018 185.8292 Z"/>
<path d="M 550.0987 61.8269 567.5447 64.1041 591.4472 55.3005 615.767 61.1049 608.5103 83.0408 564.4237 103.1226 531.4636 102.5518 546.4448 86.8387 550.0987 61.8269 Z"/>
<path d="M 491.7885 121.4215 478.9941 157.2839 460.5274 164.3941 453.8272 152.3098 491.7885 121.4215 Z"/>
<path d="M 715.2678 96.563 750.6287 106.9321 738.2833 121.3053 715.2678 96.563 Z"/>
<path d="M 743.5572 32.6309 759.8778 54.6415 751.3491 68.9032 757.561 85.2922 742.1149 70.2467 708.5519 69.3359 693.4348 59.8931 692.31 49.922 720.9309 34.3282 743.5572 32.6309 Z"/>
<path d="M 702.6441 161.7445 696.2017 151.7157 663.3183 150.354 659.7234 143.2203 660.7749 143.1081 704.392 139.0823 705.2799 128.5564 716.1185 139.8668 702.6441 161.7445 Z"/>
<path d="M 395.0482 317.6599 402.3577 296.2421 412.4651 302.3202 409.5738 314.743 402.8948 338.459 391.3933 342.6395 393.3817 374.415 360.5701 351.4825 380.5415 337.9892 395.0482 317.6599 Z"/>
<path d="M 235.2402 156.9534 251.2827 164.5537 251.1942 165.5503 224.5775 182.992 205.8944 170.5381 235.2402 156.9534 Z"/>
<path d="M 487.64 103.7507 505.271 92.0911 531.4636 102.5518 518.4569 122.6102 495.2302 120.8835 487.64 103.7507 Z"/>
<path d="M 539.7668 126.239 531.4636 102.5518 568.6622 119.9478 575.4128 150.0276 539.4052 169.5672 548.5998 132.9109 539.7668 126.239 Z"/>
<path d="M 258.8802 237.6226 264.4264 230.9351 294.423 251.9208 310.6752 256.0615 294.4259 266.271 286.5631 283.4475 260.1525 279.0072 244.2065 261.3076 258.8802 237.6226 Z"/>
<path d="M 409.5738 314.743 445.9284 316.3736 452.615 324.2809 444.2658 351.5428 420.9537 357.5336 416.5081 371.5866 393.3817 374.415 391.3933 342.6395 402.8948 338.459 409.5738 314.743 Z"/>
<path d="M 624.545 13.758 644.7623 25.8446 669.697 16.8199 653.7693 40.9349 662.1296 53.4939 661.7623 54.8522 622.4774 43.2079 624.545 13.758 Z"/>
<path d="M 478.9941 157.2839 491.9117 167.421 491.7713 179.4841 479.6606 179.0667 458.5493 172.8375 460.5274 164.3941 478.9941 157.2839 Z"/>
<path d="M 95.4765 152.4359 122.2334 121.9558 132.6507 132.8594 134.0829 146.6474 121.2557 162.532 115.7104 188.0431 103.25 197.1216 89.8234 186.8054 95.4765 152.4359 Z"/>
<path d="M 525.0909 164.4269 525.8856 165.0578 522.549 172.513 513.5963 181.447 491.7713 179.4841 491.9117 167.421 501.5906 157.4783 525.0909 164.4269 Z"/>
<path d="M 384.5701 230.2143 402.2585 211.6126 422.1113 216.3298 428.7852 228.3902 436.6295 264.2714 436.6223 264.2768 426.7667 272.6837 401.0487 255.2671 384.5701 230.2143 Z"/>
<path d="M 373.613 119.795 398.7215 123.0492 393.3766 137.3935 396.3534 172.6601 363.8193 178.9074 365.931 148.3822 373.613 119.795 Z"/>
<path d="M 431.1065 193.6177 441.0432 218.7577 428.7852 228.3902 422.1113 216.3298 431.1065 193.6177 Z"/>
<path d="M 669.697 16.8199 690.8562 6.6128 688.4832 24.2883 692.31 49.922 693.4348 59.8931 662.1296 53.4939 653.7693 40.9349 669.697 16.8199 Z"/>
<path d="M 572.8067 257.0707 578.5124 245.6603 604.1093 257.2438 617.127 251.1396 604.3289 268.6148 572.8067 257.0707 Z"/>
<path d="M 169.0642 123.7895 206.0934 139.7589 235.2402 156.9534 205.8944 170.5381 151.8347 153.0574 151.8888 152.9957 169.0642 123.7895 Z"/>
<path d="M 462.6882 316.3217 500.9002 314.0098 507.0321 289.0969 547.6463 288.7373 571.5535 319.0208 545.0758 347.2218 512.5457 374.185 483.6606 365.441 486.058 337.3397 462.6882 316.3217 Z"/>
<path d="M 264.4264 230.9351 281.2618 206.6087 283.0142 203.2507 307.6777 207.4365 303.7106 217.559 322.91 233.7741 310.6752 256.0615 294.423 251.9208 264.4264 230.9351 Z"/>
<path d="M 608.5103 83.0408 579.0617 116.0124 568.6622 119.9478 531.4636 102.5518 564.4237 103.1226 608.5103 83.0408 Z"/>
<path d="M 329.0336 226.7524 345.9228 209.56 379.3638 235.9559 386.495 274.199 385.0308 275.5365 373.2616 295.0484 334.12 269.3346 350.6769 240.18 329.0336 226.7524 Z"/>
<path d="M 186.8151 39.0813 218.7661 54.5377 208.2336 94.7897 168.9391 121.4522 160.2355 97.1859 144.5697 93.5747 186.8151 39.0813 Z"/>
<path d="M 632.2696 184.7359 627.705 197.2739 613.9233 209.2453 613.8012 209.011 608.8542 199.5584 632.2696 184.7359 Z"/>
<path d="M 350.1952 202.2403 364.66 190.0142 399.065 202.223 402.2585 211.6126 384.5701 230.2143 379.3638 235.9559 345.9228 209.56 350.1952 202.2403 Z"/>
<path d="M 453.3902 177.1514 458.5493 172.8375 479.6606 179.0667 489.0715 200.4469 477.7523 214.954 464.1366 203.9724 453.3902 177.1514 Z"/>
<path d="M 530.1259 202.4838 532.9011 205.6131 560.2747 221.5145 515.9271 236.7044 514.2048 235.9935 513.7926 207.9967 530.1259 202.4838 Z"/>
<path d="M 582.7027 22.4496 591.7248 33.4653 591.4472 55.3005 567.5447 64.1041 550.0987 61.8269 548.4855 54.3707 546.5243 36.3358 582.7027 22.4496 Z"/>
<path d="M 306.1762 129.3934 282.57 160.0233 251.2827 164.5537 235.2402 156.9534 206.0934 139.7589 239.963 138.084 277.3354 115.9899 297.6192 110.986 306.1762 129.3934 Z"/>
<path d="M 251.2827 164.5537 282.57 160.0233 294.3793 165.2887 289.8248 186.6531 272.6158 192.4346 251.1942 165.5503 251.2827 164.5537 Z"/>
<path d="M 239.9702 190.3285 255.8587 197.8567 242.6916 211.7626 228.8515 212.1881 239.9702 190.3285 Z"/>
<path d="M 491.7885 121.4215 495.2302 120.8835 518.4569 122.6102 531.4636 102.5518 539.7668 126.239 525.0909 164.4269 501.5906 157.4783 491.9117 167.421 478.9941 157.2839 491.7885 121.4215 Z"/>
<path d="M 364.66 190.0142 363.2094 184.8369 363.8193 178.9074 396.3534 172.6601 432.255 172.9806 441.7945 184.5877 440.6409 185.1885 431.1065 193.6177 422.1113 216.3298 402.2585 211.6126 399.065 202.223 364.66 190.0142 Z"/>
<path d="M 326.3347 140.2017 337.4013 144.882 365.931 148.3822 363.8193 178.9074 363.2094 184.8369 326.0771 173.1813 313.2539 148.7389 326.3347 140.2017 Z"/>
<path d="M 759.8778 54.6415 775.9008 64.0097 762.0024 87.4958 757.561 85.2922 751.3491 68.9032 759.8778 54.6415 Z"/>
<path d="M 569.0944 269.2627 574.1983 285.2901 589.3506 290.548 571.5535 319.0208 547.6463 288.7373 507.0321 289.0969 507.0455 288.9981 532.1829 254.3593 556.9484 271.9957 569.0944 269.2627 Z"/>
<path d="M 498.7111 276.6472 507.0455 288.9981 507.0321 289.0969 500.9002 314.0098 462.6882 316.3217 462.0313 314.2401 455.8197 295.5515 477.4261 273.4191 498.7111 276.6472 Z"/>
<path d="M 59.3148 87.6274 74.9528 72.4678 105.5434 104.4866 122.2334 121.9558 95.4765 152.4359 62.3846 134.1989 71.1397 110.7397 59.3148 87.6274 Z"/>
<path d="M 398.7215 123.0492 418.0903 133.0905 453.8272 152.3098 460.5274 164.3941 458.5493 172.8375 453.3902 177.1514 441.7945 184.5877 432.255 172.9806 396.3534 172.6601 393.3766 137.3935 398.7215 123.0492 Z"/>
</g>
</svg>