<?xml version="1.0"?>
<svg xmlns="http://www.w3.org/2000/svg" version="1.2" baseProfile="tiny" width="800" height="849" viewBox="0 0 800 849" stroke-linecap="round" stroke-linejoin="round">
<g id="29MUE250GC_SIR">
<path d="M 428.7458 293.7938 433.7343 286.0624 451.2068 289.1695 451.5581 300.4103 456.907 315.1717 447.0309 309.9433 428.6413 299.8198 428.7458 293.7938 Z"/>
<path d="M 468.7986 448.313 466.7271 451.2812 468.9676 466.075 463.4478 466.9345 460.0669 481.2504 447.4742 473.8749 444.8634 466.6228 440.9996 454.0267 434.9712 444.4162 450.2355 445.1247 468.7986 448.313 Z"/>
<path d="M 668.3021 291.8793 672.3008 284.6371 676.0845 296.093 674.659 309.5367 671.7885 308.9683 669.208 302.9996 668.3021 291.8793 Z"/>
<path d="M 513.6726 499.7299 530.5189 503.1105 539.7984 508.1356 539.172 512.8592 517.1128 513.9676 511.5422 508.1524 513.6726 499.7299 Z"/>
<path d="M 231.357 321.2252 231.3575 321.2255 233.8988 321.6494 246.6457 322.9379 253.0889 332.7055 266.4192 344.4645 275.9447 348.3573 267.9026 355.7582 232.4913 361.6471 221.8527 361.0003 221.6264 341.4107 225.9649 335.8853 231.357 321.2252 Z"/>
<path d="M 740.4699 266.8275 741.8053 273.6448 735.2296 283.5034 730.9499 290.7611 721.9726 289.0012 724.6173 275.4319 721.4263 269.034 740.4699 266.8275 Z"/>
<path d="M 365.8496 422.066 377.9821 419.2453 384.3333 410.567 386.9169 428.2366 399.3719 441.3238 394.9518 449.1951 385.0108 447.4443 378.7173 439.8575 369.9626 441.4803 360.899 425.3009 365.8496 422.066 Z"/>
<path d="M 583.3401 569.3082 582.0566 563.3924 584.2641 561.6215 601.2423 556.3915 602.1517 555.1828 611.567 564.5895 609.5033 584.1592 605.4574 585.9346 594.5787 592.2867 587.4863 587.4434 583.3401 569.3082 Z"/>
<path d="M 553.9375 433.4969 565.8153 445.1542 565.9145 445.319 557.3453 448.7475 533.8005 449.3671 533.214 446.0045 536.1865 437.7764 542.1948 440.3029 553.9375 433.4969 Z"/>
<path d="M 503.5102 585.2097 514.4258 581.3841 533.514 586.5622 530.9129 596.5308 532.6433 612.8984 529.9579 619.1714 510.2553 606.6994 500.5033 598.3393 497.5686 586.2874 503.5102 585.2097 Z"/>
<path d="M 565.8298 496.9839 573.8166 496.9184 578.7665 505.3026 589.5657 507.0052 577.4891 515.6912 566.1776 518.9788 570.7735 507.4807 565.8298 496.9839 Z"/>
<path d="M 620.6408 419.0763 622.934 407.7519 640.837 412.5093 646.0849 407.4302 661.6739 409.1183 667.8036 405.7596 663.9848 412.768 665.1945 421.0009 657.3184 420.8726 654.8173 429.4935 648.5784 428.3543 637.8903 432.3857 634.6888 429.2685 633.903 421.0834 625.3396 415.5547 620.6408 419.0763 Z"/>
<path d="M 558.5962 493.2738 565.8298 496.9839 570.7735 507.4807 566.1776 518.9788 559.9321 515.3535 539.7984 508.1356 530.5189 503.1105 540.683 496.881 558.5962 493.2738 Z"/>
<path d="M 728.9473 71.2532 730.0155 77.0419 740.8287 78.8855 747.7433 83.9258 744.1798 91.2201 733.9313 99.3717 708.7671 101.6184 700.0062 100.0569 703.5309 95.2872 704.848 83.1012 709.3429 76.4752 728.9473 71.2532 Z"/>
<path d="M 731.9953 118.0311 748.3295 118.7754 751.2508 124.8188 762.7426 128.1807 767.1128 139.8515 769.741 156.5919 754.959 140.1686 740.068 136.1334 731.9953 118.0311 Z"/>
<path d="M 542.1757 267.3336 542.1762 267.3335 554.2908 266.3856 570.929 274.3647 581.2425 273.4979 582.2108 276.3752 570.9837 287.5974 560.2859 287.5094 548.5688 284.1041 543.3929 285.822 542.1757 267.3336 Z"/>
<path d="M 646.9065 374.1351 650.5334 384.0348 641.535 381.979 646.9065 374.1351 Z"/>
<path d="M 553.9375 433.4969 554.2076 422.5247 561.2393 416.4373 568.0788 430.1486 563.7406 432.8602 565.8153 445.1542 553.9375 433.4969 Z"/>
<path d="M 613.6532 470.3991 616.4365 468.0543 619.3678 472.2049 616.2638 492.9787 611.1439 494.0505 611.011 492.5985 615.5726 474.8946 613.6532 470.3991 Z"/>
<path d="M 668.3399 381.3206 677.2833 380.0814 682.4609 384.3479 678.4683 399.1302 667.8036 405.7596 661.6739 409.1183 646.0849 407.4302 634.6989 401.3914 642.3876 396.6595 650.2722 396.6189 660.1642 398.2709 664.6669 392.5937 668.3399 381.3206 Z"/>
<path d="M 166.5182 394.4475 180.0377 382.2682 198.1 397.4696 207.0127 404.1327 218.5126 407.0989 228.3669 409.183 227.6715 414.4337 208.2565 424.2679 199.048 421.6136 180.4788 417.5328 177.1551 407.077 166.5182 394.4475 Z"/>
<path d="M 572.6568 203.8929 585.59 205.5671 593.2143 210.0553 602.9329 209.3566 606.6905 203.0856 601.8675 195.3953 610.1904 194.6609 616.0226 209.1766 624.9806 214.6128 618.2356 222.1351 603.5863 232.2779 586.2595 241.0566 578.163 235.4873 575.8574 227.0405 572.1662 212.291 572.6568 203.8929 Z"/>
<path d="M 635.7357 533.888 621.9673 526.9515 616.6503 521.3036 613.2258 522.5271 618.4597 510.2145 629.3664 512.8603 626.23 522.01 630.8649 527.7196 644.0771 526.7008 648.3434 519.7666 657.953 518.499 655.5402 538.5719 658.8286 543.6017 661.2463 567.8727 655.6942 570.0893 646.8047 565.057 642.6271 552.5957 635.7357 533.888 Z"/>
<path d="M 413.6065 61.52 409.4061 101.6923 397.4512 98.7257 394.5441 110.2636 381.3916 129.81 346.6728 104.856 334.3051 104.5904 341.2267 87.9653 358.2944 83.546 373.6306 68.0996 403.4175 62.2104 413.6065 61.52 Z"/>
<path d="M 688.6274 295.9116 692.8725 294.8 697.2966 307.7132 690.5818 305.1976 688.6274 295.9116 Z"/>
<path d="M 715.2308 236.8241 729.1857 244.3759 724.7078 250.6758 721.4447 268.2011 713.1251 262.2376 704.5571 256.5557 715.2308 236.8241 Z"/>
<path d="M 718.3295 339.6683 735.2109 332.8123 744.0489 340.6445 752.291 333.261 756.8412 335.9206 744.9472 352.3221 741.6579 347.0852 732.2328 342.8839 728.9358 349.6857 723.3942 353.5301 714.7793 347.2515 718.3295 339.6683 Z"/>
<path d="M 608.1555 243.9285 617.6528 239.0855 637.2487 243.1755 636.2163 246.4042 626.3208 253.5379 618.5147 255.2034 608.1555 243.9285 Z"/>
<path d="M 614.3866 262.6432 614.4764 263.2992 618.7866 266.0311 629.5053 269.9811 638.9944 279.1591 640.115 280.969 636.6389 286.0667 635.224 299.7848 614.436 302.7917 620.4457 289.5222 614.0172 279.6352 605.4096 276.7418 612.6626 272.5114 614.3866 262.6432 Z"/>
<path d="M 487.2766 488.1079 513.6726 499.7299 511.5422 508.1524 502.975 511.6717 487.8775 510.4182 479.537 512.1187 478.335 505.6962 479.6748 498.7438 487.2766 488.1079 Z"/>
<path d="M 637.9841 499.043 635.7365 500.8845 622.5907 500.2337 611.1439 494.0505 616.2638 492.9787 622.4445 494.7841 637.9841 499.043 Z"/>
<path d="M 166.5182 394.4475 177.1551 407.077 180.4788 417.5328 199.048 421.6136 185.9346 423.8471 183.4575 431.5008 169.9181 433.7039 150.4153 445.3863 131.0518 445.6221 120.2533 451.7603 111.9 449.7053 94.9403 453.7132 82.7202 451.273 66.4733 458.8913 53.6454 468.3139 36.0784 474.7399 31.3554 469.2044 34.7423 454.2948 32.2867 447.3373 40.2722 438.7282 33.7844 435.2678 36.5682 427.5052 60.3918 412.9113 88.3355 403.2452 92.9292 403.87 124.2391 398.0062 146.2414 389.4616 159.5333 386.3493 166.5182 394.4475 Z"/>
<path d="M 666.2947 361.3296 674.2897 373.2786 678.0921 373.2307 677.2833 380.0814 668.3399 381.3206 658.6433 381.9317 654.4127 374.3622 657.0272 364.2167 666.2947 361.3296 Z"/>
<path d="M 396.4062 533.7452 409.5906 537.8758 417.7873 549.3006 415.7607 551.197 410.4979 551.425 402.9526 559.8144 396.8109 575.2874 387.5548 568.9729 376.9634 570.3419 382.7933 559.6833 380.3061 555.4889 385.7298 545.0788 396.9734 543.7351 396.4062 533.7452 Z"/>
<path d="M 468.9676 466.075 477.1422 476.9075 486.994 477.9489 487.2766 488.1079 479.6748 498.7438 478.335 505.6962 462.0615 498.0293 452.7783 496.4808 454.6343 482.6832 460.0669 481.2504 463.4478 466.9345 468.9676 466.075 Z"/>
<path d="M 339.5707 507.5232 328.641 522.5237 318.2692 508.179 320.8144 503.4377 335.9161 499.5362 339.5707 507.5232 Z"/>
<path d="M 648.4033 364.801 648.403 364.8007 655.9345 363.8358 657.0272 364.2167 654.4127 374.3622 658.6433 381.9317 657.3133 382.9931 651.1206 384.5175 650.5334 384.0348 646.9065 374.1351 648.4033 364.801 Z"/>
<path d="M 695.1072 227.9759 708.9996 228.6424 715.2308 236.8241 704.5571 256.5557 702.4928 253.1035 679.5261 244.6667 679.5263 244.6665 695.1072 227.9759 Z"/>
<path d="M 359.514 561.7296 368.0443 555.9817 371.0193 549.1586 385.7298 545.0788 380.3061 555.4889 382.7933 559.6833 376.9634 570.3419 362.6395 565.8079 359.514 561.7296 Z"/>
<path d="M 606.1542 760.9113 620.1975 756.9154 636.9321 765.8203 644.3181 772.4118 644.9607 787.0177 649.0302 793.1157 639.297 788.9371 622.5551 790.3061 618.4792 783.1637 608.5441 782.1113 606.1542 760.9113 Z"/>
<path d="M 654.5161 250.4051 672.6195 247.0652 676.3009 249.7759 672.1901 260.5099 659.0835 261.7117 654.5161 250.4051 Z"/>
<path d="M 659.4896 594.3642 663.2482 593.8944 666.5719 618.1432 670.1455 626.9188 640.2802 629.5442 630.0928 634.1163 629.4942 621.9031 638.2237 615.3992 648.6123 603.2501 657.1397 600.1707 659.4896 594.3642 Z"/>
<path d="M 352.5981 545.2403 347.4101 555.2722 325.4597 540.109 331.2507 530.7634 351.657 518.3796 353.1622 527.2598 350.6374 539.743 352.5981 545.2403 Z"/>
<path d="M 456.0007 229.8751 449.9688 214.5168 440.8826 211.1613 430.2328 197.5876 438.1442 192.8001 449.2519 196.7786 450.5943 202.3391 467.3945 210.1934 460.1758 220.2749 466.8463 226.6237 476.0818 227.2304 492.3203 238.6471 499.4767 249.8551 513.4197 261.4139 504.8789 278.3095 492.6758 284.8857 489.8953 290.9482 496.5695 299.7402 485.4962 300.7764 468.3037 293.5344 466.145 284.6741 453.6 280.7919 456.0926 274.7028 439.3524 262.3571 452.622 252.5797 456.0007 229.8751 Z"/>
<path d="M 547.6908 707.4993 563.2537 705.9981 576.3763 708.4066 587.815 713.1721 594.4239 710.6872 594.0065 720.2464 579.1272 720.5576 568.989 731.6319 567.6196 740.9212 560.8178 740.465 554.3651 731.3993 539.258 727.6778 539.5207 724.2539 549.8898 725.2096 552.5589 719.1424 545.4521 713.8049 547.6908 707.4993 Z"/>
<path d="M 589.5657 507.0052 600.5785 505.8771 597.7562 522.4848 598.62 525.9868 595.7014 535.9634 593.4034 538.1276 585.1347 544.698 579.4418 547.9807 576.3217 556.9357 570.412 556.1378 572.1538 544.7789 576.4805 533.2267 582.9381 531.9404 585.2485 525.0404 577.4891 515.6912 589.5657 507.0052 Z"/>
<path d="M 789.7722 278.1155 781.6264 271.724 769.4795 271.3606 762.9793 265.6235 764.8967 259.1147 775.1499 262.7608 796.3957 258.4453 799 260.4334 789.7722 278.1155 Z"/>
<path d="M 659.4896 594.3642 657.1397 600.1707 648.6123 603.2501 638.2237 615.3992 636.8069 608.77 629.3587 601.4057 619.2654 590.1056 632.7831 588.9818 659.4896 594.3642 Z"/>
<path d="M 394.464 216.5238 407.4027 229.6876 406.0621 233.7181 396.3115 234.1649 380.1965 236.5769 378.638 226.2739 388.4296 215.9636 394.464 216.5238 Z"/>
<path d="M 580.9443 600.6778 589.0031 606.5681 597.3732 608.6493 602.4367 614.3678 609.8493 612.4764 615.4282 613.7284 611.7485 627.4818 604.8018 624.7616 582.0024 635.6211 583.8839 615.5409 577.7129 604.3174 580.9443 600.6778 Z"/>
<path d="M 532.4442 776.0944 544.8639 768.9619 552.0323 769.2162 553.6513 781.0926 563.8512 789.264 556.205 789.5259 553.4822 797.4435 545.349 788.5387 534.5039 783.1103 532.4442 776.0944 Z"/>
<path d="M 566.1478 569.6315 583.3401 569.3082 587.4863 587.4434 594.5787 592.2867 587.9837 602.2905 589.0031 606.5681 580.9443 600.6778 565.0589 591.7201 559.9777 595.9699 543.9393 593.0878 542.1349 584.4605 551.6007 575.7341 562.8377 579.9288 566.1478 569.6315 Z"/>
<path d="M 324.0262 347.5091 329.5042 349.9479 345.6313 343.9704 346.6514 354.8593 356.2086 362.2446 357.731 375.7726 329.4464 382.8414 320.1576 381.3142 323.7947 377.6277 324.0262 347.5091 Z"/>
<path d="M 609.1324 449.5442 612.9505 450.2144 618.4627 463.4153 615.0747 466.5345 602.011 462.7206 609.1324 449.5442 Z"/>
<path d="M 713.1251 262.2376 721.4447 268.2011 721.4263 269.034 724.6173 275.4319 721.9726 289.0012 730.9499 290.7611 723.9038 297.3662 706.4125 296.1684 695.8391 296.5137 697.5093 283.3171 700.602 279.3152 709.9005 276.7363 709.2626 266.4636 713.1251 262.2376 Z"/>
<path d="M 336.2418 277.2568 350.5817 275.8153 358.7689 281.121 369.823 275.8026 374.1106 280.6656 379.7917 296.109 361.0611 297.6405 334.1172 284.0302 336.2418 277.2568 Z"/>
<path d="M 730.9282 142.9494 740.068 136.1334 754.959 140.1686 769.741 156.5919 761.9539 160.0852 760.6428 165.7306 755.4585 166.1796 754.9514 165.6247 745.6021 160.5478 741.9127 147.7694 730.9282 142.9494 Z"/>
<path d="M 594.3735 173.9674 605.031 174.3557 637.4089 187.6807 642.661 213.8025 636.8234 212.8359 632.6604 212.0132 628.6596 209.6495 628.8268 193.6258 610.1904 194.6609 601.8675 195.3953 594.3735 173.9674 Z"/>
<path d="M 430.9011 553.4014 440.3457 544.4168 448.7292 542.7978 454.5308 545.3665 464.3224 543.012 464.8232 552.9221 458.7903 571.4969 451.8543 574.7634 453.4328 582.453 448.1366 596.0459 421.8157 572.4492 432.2436 568.6011 437.2282 562.341 430.9011 553.4014 Z"/>
<path d="M 170.3565 278.7728 168.3604 271.0914 168.36 249.2778 184.7801 248.832 191.5705 245.4385 198.9673 255.7894 209.0907 254.6002 229.886 246.4361 241.8644 244.5325 238.9825 252.3208 232.9138 251.9218 224.9092 261.3251 214.6838 266.5576 214.83 277.7753 226.7016 283.9628 225.3995 294.4522 217.8905 304.6018 208.5767 310.8398 197.815 309.481 197.5426 307.5604 170.3565 278.7728 Z"/>
<path d="M 656.3783 391.3998 657.3133 382.9931 658.6433 381.9317 668.3399 381.3206 664.6669 392.5937 656.3783 391.3998 Z"/>
<path d="M 682.4609 384.3479 684.7783 381.0646 698.6883 380.5694 696.8318 388.3179 691.8282 388.5466 678.4683 399.1302 682.4609 384.3479 Z"/>
<path d="M 644.9051 149.5034 654.2264 160.2747 673.5982 151.4924 697.1978 153.7345 697.434 156.2517 691.3206 159.2393 690.7192 169.314 680.4441 181.5016 657.6001 181.9568 638.4671 186.0317 646.6196 176.9923 648.5158 162.6962 644.9051 149.5034 Z"/>
<path d="M 347.3682 176.5727 351.6313 168.0569 360.7727 160.4192 365.8861 143.3456 373.8818 165.7847 369.9744 171.6831 373.0035 184.3904 369.4711 194.1275 364.3557 194.3519 355.6962 205.6158 354.3863 214.3801 346.8824 218.8572 334.948 215.3134 334.6476 221.877 328.3447 227.7568 328.4674 237.4447 321.9475 237.9658 328.519 259.6318 326.947 266.9629 314.0762 265.6709 309.4585 259.735 291.4617 255.8163 299.4252 241.3543 297.1599 234.5767 306.1266 216.2113 315.3921 206.0066 326.2771 197.5274 333.3792 198.1298 347.3682 176.5727 Z"/>
<path d="M 596.7648 454.4329 602.011 462.7206 600.7563 464.4663 599.8441 466.0208 596.7274 466.2905 587.3061 448.8353 596.7648 454.4329 Z"/>
<path d="M 677.2833 380.0814 678.0921 373.2307 687.0436 369.9403 687.3018 371.3147 684.7783 381.0646 682.4609 384.3479 677.2833 380.0814 Z"/>
<path d="M 194.8521 477.7043 187.7401 490.7044 192.0635 498.2534 178.6916 503.4336 157.4964 517.4452 152.4343 525.2671 136.9695 533.6842 132.7974 539.0957 123.2911 538.3801 105.5544 553.8622 94.6548 555.1347 76.0272 571.1156 65.5397 574.2537 50.676 570.7298 57.4025 557.5189 51.2085 549.6358 66.6913 534.2156 104.9074 501.2882 108.6158 496.1597 124.4478 484.8894 148.4069 474.2694 149.4637 467.3818 158.8135 458.8091 169.6429 464.2496 187.2098 476.6683 194.8521 477.7043 Z"/>
<path d="M 557.9852 243.313 559.8654 259.1494 554.6771 262.8304 547.5328 251.6122 540.1439 247.2375 557.9852 243.313 Z"/>
<path d="M 625.198 563.3743 629.1664 562.2058 635.4909 566.7607 632.3732 570.2932 625.7192 572.0469 625.198 563.3743 Z"/>
<path d="M 440.8153 331.5114 449.404 336.3814 445.6309 342.9578 446.1268 356.3427 449.5861 362.0975 435.2033 362.2288 431.4456 359.4644 428.9817 345.9804 440.8153 331.5114 Z"/>
<path d="M 752.291 333.261 744.0489 340.6445 735.2109 332.8123 732.4774 323.2112 740.9091 321.3462 740.4176 314.2634 754.3617 323.4715 752.291 333.261 Z"/>
<path d="M 403.743 494.1291 421.4889 496.0229 427.5325 515.053 418.923 514.4036 406.9267 510.1918 403.743 494.1291 Z"/>
<path d="M 581.4101 671.7616 586.0836 669.0316 593.465 677.8215 596.752 690.7333 600.4188 694.5951 603.6855 714.7873 594.4239 710.6872 587.815 713.1721 576.3763 708.4066 563.2537 705.9981 547.6908 707.4993 550.4224 696.8127 559.3146 697.1609 565.3403 684.9946 570.3421 683.6975 575.1506 674.1796 581.4101 671.7616 Z"/>
<path d="M 636.2163 246.4042 630.908 257.8183 618.7866 266.0311 614.4764 263.2992 618.5147 255.2034 626.3208 253.5379 636.2163 246.4042 Z"/>
<path d="M 654.8173 429.4935 653.9942 436.026 639.5127 443.3145 630.2024 445.1115 630.6729 436.9055 634.6888 429.2685 637.8903 432.3857 648.5784 428.3543 654.8173 429.4935 Z"/>
<path d="M 635.5546 316.7894 636.1367 315.978 647.8249 323.417 642.3448 308.9092 635.2242 299.785 645.7686 298.9687 655.5057 302.8544 669.208 302.9996 671.7885 308.9683 670.9911 314.1245 677.263 329.8208 675.3489 332.4871 674.9494 335.9975 661.2435 327.5394 656.3316 336.1146 647.9967 324.0115 640.3922 325.6924 635.5546 316.7894 Z"/>
<path d="M 554.91 797.3906 568.4111 807.3556 568.7903 816.2443 573.4499 819.2626 618.3754 820.2294 601.2391 848.2046 555.0262 818.7119 551.457 813.6528 559.2042 807.5481 554.91 797.3906 Z"/>
<path d="M 672.1901 260.5099 676.3009 249.7759 679.833 245.6011 689.151 273.9765 682.8681 273.9494 675.3223 280.8902 671.9873 274.4949 672.1901 260.5099 Z"/>
<path d="M 650.8536 96.343 672.9593 95.3142 679.5733 96.7078 700.0062 100.0569 708.7671 101.6184 715.2872 102.8574 726.1953 114.7637 731.9953 118.0311 740.068 136.1334 730.9282 142.9494 725.3875 148.7185 710.0602 153.835 709.7759 155.1954 694.4319 145.4781 671.4405 124.4788 662.2653 107.3697 650.8536 96.343 Z"/>
<path d="M 422.971 415.36 435.2195 424.0283 440.2263 424.1164 445.4356 432.5913 450.2355 445.1247 434.9712 444.4162 426.9698 428.252 420.9147 423.4401 422.971 415.36 Z"/>
<path d="M 674.9494 335.9975 671.5467 344.8245 656.3836 339.2797 656.3316 336.1146 661.2435 327.5394 674.9494 335.9975 Z"/>
<path d="M 549.953 181.1479 556.5865 198.1821 553.3669 200.699 538.8206 196.2174 535.7018 192.4702 532.8359 187.1527 542.7833 178.4085 549.953 181.1479 Z"/>
<path d="M 451.2068 289.1695 453.6 280.7919 466.145 284.6741 468.3037 293.5344 467.7996 312.4861 463.8206 313.4672 456.9076 315.1719 456.907 315.1717 451.5581 300.4103 451.2068 289.1695 Z"/>
<path d="M 646.8047 565.057 655.6942 570.0893 661.2463 567.8727 663.2482 593.8944 659.4896 594.3642 632.7831 588.9818 635.0717 578.2091 632.3732 570.2932 635.4909 566.7607 646.8047 565.057 Z"/>
<path d="M 458.7903 571.4969 464.0058 576.9033 473.4474 577.7925 476.1088 592.7126 484.6758 601.4535 472.5732 606.9366 456.2966 603.3834 448.1366 596.0459 453.4328 582.453 451.8543 574.7634 458.7903 571.4969 Z"/>
<path d="M 729.1857 244.3759 740.6055 254.2423 749.2903 265.4604 740.4699 266.8275 721.4263 269.034 721.4447 268.2011 724.7078 250.6758 729.1857 244.3759 Z"/>
<path d="M 145.8931 206.9268 157.7075 202.3479 159.4634 197.3552 170.3173 192.3337 169.7962 186.8344 177.6818 181.6085 184.3767 183.5954 200.4877 175.5954 204.6369 181.2953 213.3973 183.0062 218.3645 197.338 213.7385 210.1511 204.1942 228.104 197.6949 233.3588 184.7801 248.832 168.36 249.2778 160.9397 250.4984 152.1518 243.9592 141.7341 245.319 144.609 232.5363 140.3703 224.4813 144.6265 219.9767 145.8931 206.9268 Z"/>
<path d="M 413.056 275.4308 422.5804 290.0085 428.7458 293.7938 428.6413 299.8198 399.1547 284.5714 403.5423 283.388 408.6887 279.7674 413.056 275.4308 Z"/>
<path d="M 263.5539 457.0753 266.3144 442.8974 275.365 434.2157 270.667 451.5534 276.3029 463.1295 275.9656 464.6301 272.127 481.7088 274.8423 488.2497 265.0029 489.618 262.7325 498.5957 253.948 504.0665 253.9545 510.4408 259.5668 523.4024 252.6749 535.8277 241.0063 532.0873 238.5834 519.3032 246.5235 503.248 253.4381 493.2053 257.3347 475.9841 263.5539 457.0753 Z"/>
<path d="M 578.7993 174.9255 580.9965 170.2224 591.2937 164.2782 595.7449 165.3695 594.3735 173.9674 601.8675 195.3953 606.6905 203.0856 602.9329 209.3566 593.2143 210.0553 585.59 205.5671 572.6568 203.8929 569.3005 201.6152 572.7589 181.0934 578.7993 174.9255 Z"/>
<path d="M 625.7192 572.0469 632.3732 570.2932 635.0717 578.2091 632.7831 588.9818 619.2654 590.1056 610.7858 585.4112 625.7192 572.0469 Z"/>
<path d="M 493.7152 194.4578 478.9042 189.1041 478.0357 184.2856 493.3108 179.7472 508.2136 178.6414 509.5641 182.2043 522.6836 186.5242 526.9512 184.6886 532.8359 187.1527 535.7018 192.4702 532.5545 218.2243 514.6919 208.9138 501.8653 195.8896 493.7152 194.4578 Z"/>
<path d="M 585.1347 544.698 593.4034 538.1276 591.8426 550.4064 601.2423 556.3915 584.2641 561.6215 585.1347 544.698 Z"/>
<path d="M 611.011 492.5985 611.1439 494.0505 622.5907 500.2337 602.4031 499.1049 600.5787 505.8771 600.5785 505.8771 603.3991 489.8602 611.011 492.5985 Z"/>
<path d="M 493.3108 179.7472 478.0357 184.2856 478.9042 189.1041 470.9591 183.2051 463.3058 182.9698 463.3287 191.2573 449.2519 196.7786 438.1442 192.8001 444.0712 182.0591 452.8685 177.0066 448.6145 169.7024 456.3361 159.3603 463.5792 157.3859 468.1693 166.6311 490.4973 166.4184 493.3108 179.7472 Z"/>
<path d="M 622.6763 724.5764 618.5197 732.9346 617.6712 745.9578 610.6462 749.6005 607.0111 747.5767 588.5252 754.7309 577.9859 751.8105 567.6196 740.9212 568.989 731.6319 579.1272 720.5576 594.0065 720.2464 594.4239 710.6872 603.6855 714.7873 617.2082 722.6874 622.6763 724.5764 Z"/>
<path d="M 629.7754 94.0111 642.5936 96.6097 640.5322 103.0776 643.5117 113.3219 643.2527 124.0166 638.1071 134.8513 637.8104 143.9998 628.7499 142.1889 615.3789 143.6321 612.0645 138.0582 597.3102 135.0369 594.4671 124.731 591.9847 113.7748 605.1244 101.907 629.7754 94.0111 Z"/>
<path d="M 399.4159 374.7538 418.5308 370.6357 427.0351 386.775 433.3974 398.4584 431.0286 401.8067 419.387 411.4928 413.3362 403.6146 408.5898 410.0975 392.0342 398.7191 390.1597 388.8086 399.4159 374.7538 Z"/>
<path d="M 628.0157 449.1229 635.9928 451.0687 633.419 459.0851 626.3803 465.942 622.1099 464.4699 628.0157 449.1229 Z"/>
<path d="M 449.2519 196.7786 463.3287 191.2573 463.3058 182.9698 470.9591 183.2051 478.9042 189.1041 493.7152 194.4578 498.1938 204.9779 494.9052 215.9729 479.9709 215.4286 467.3945 210.1934 450.5943 202.3391 449.2519 196.7786 Z"/>
<path d="M 147.4028 325.9767 156.0443 334.7577 163.8135 336.0034 165.7391 345.5031 173.5893 350.155 174.8447 363.1094 180.0377 382.2682 166.5182 394.4475 159.5333 386.3493 146.2414 389.4616 124.2391 398.0062 92.9292 403.87 88.3355 403.2452 60.3918 412.9113 36.5682 427.5052 35.8919 421.9368 50.2641 414.0081 48.9307 409.8573 30.2582 417.361 25.8588 409.1229 30.7789 388.5154 43.561 383.8824 42.4246 379.3695 28.4191 382.8723 31.5117 362.6969 32.0417 348.026 41.0707 344.3841 45.7831 346.2906 74.8483 336.2198 105.9396 332.655 116.5164 337.1447 130.2361 328.5511 147.4028 325.9767 Z"/>
<path d="M 575.8323 415.4426 576.4017 414.5043 584.9158 421.1234 593.9675 432.0713 590.441 436.0462 573.78 428.2429 575.8323 415.4426 Z"/>
<path d="M 396.3115 234.1649 406.0621 233.7181 405.9864 246.9749 402.8993 251.0033 396.7665 242.6262 396.3115 234.1649 Z"/>
<path d="M 485.9219 379.8901 492.3954 390.5329 497.3515 387.7352 509.2235 390.9924 494.7282 407.1093 478.4765 412.6545 471.6156 407.1423 465.8222 397.7151 474.5235 396.5331 467.5058 379.6292 478.3397 377.5289 485.9219 379.8901 Z"/>
<path d="M 473.2453 543.9004 468.3867 535.4949 475.2193 524.737 479.537 512.1187 487.8775 510.4182 502.975 511.6717 511.5422 508.1524 517.1128 513.9676 518.2566 521.2466 508.7229 524.4775 496.8649 522.1843 490.3852 525.2871 490.8226 542.2883 482.6284 546.2517 473.2453 543.9004 Z"/>
<path d="M 594.4671 124.731 597.3102 135.0369 599.0714 154.9522 595.7449 165.3695 591.2937 164.2782 580.9965 170.2224 578.7993 174.9255 573.2939 169.3159 569.2814 155.3017 569.3205 151.1027 579.7893 139.4555 585.6804 138.7276 594.4671 124.731 Z"/>
<path d="M 654.2994 285.7406 655.2402 285.8211 658.6567 289.2089 655.5057 302.8544 645.7686 298.9687 654.2994 285.7406 Z"/>
<path d="M 655.6731 280.6398 654.2994 285.7406 645.7686 298.9687 635.2242 299.785 635.224 299.7848 636.6389 286.0667 640.115 280.969 655.6731 280.6398 Z"/>
<path d="M 241.8644 244.5325 242.4776 244.1784 247.6215 264.8001 257.2601 288.8588 245.4544 308.5298 233.8988 321.6494 231.3575 321.2255 223.584 307.1984 217.8905 304.6018 225.3995 294.4522 226.7016 283.9628 214.83 277.7753 214.6838 266.5576 224.9092 261.3251 232.9138 251.9218 238.9825 252.3208 241.8644 244.5325 Z"/>
<path d="M 576.1573 45.4222 585.6481 57.9785 584.1315 69.2429 585.7375 86.338 583.1308 104.8379 582.702 108.3915 558.4838 117.5427 546.8793 119.3274 538.5796 125.0119 530.7338 124.8076 518.5539 117.4997 503.7886 116.1625 508.836 109.9081 509.9581 101.3317 507.5896 90.0014 512.323 79.5525 520.3005 82.5061 543.4128 73.3309 547.4728 64.5383 550.6214 47.8098 563.0364 50.2255 576.1573 45.4222 Z"/>
<path d="M 561.1164 396.4889 569.63 397.1291 579.1048 405.8575 576.4017 414.5043 575.8323 415.4426 561.2402 416.4367 561.1164 396.4889 Z"/>
<path d="M 170.3565 278.7728 197.5426 307.5604 197.815 309.481 187.3616 313.0652 177.504 314.0192 166.6262 315.1981 164.0155 310.1814 154.8447 310.8938 147.2371 301.2143 156.7129 290.3249 162.4606 288.9689 170.3565 278.7728 Z"/>
<path d="M 713.8571 182.2159 726.228 188.7789 730.3258 188.9047 727.0843 196.3563 714.8903 203.21 713.8571 182.2159 Z"/>
<path d="M 362.5056 403.2127 368.9624 392.3885 375.3249 398.9987 383.3264 398.4863 387.3124 406.8571 384.3333 410.567 377.9821 419.2453 365.8496 422.066 362.5056 403.2127 Z"/>
<path d="M 468.7986 448.313 484.205 440.6027 484.6275 454.7597 494.4659 464.4152 492.0045 465.7405 486.994 477.9489 477.1422 476.9075 468.9676 466.075 466.7271 451.2812 468.7986 448.313 Z"/>
<path d="M 227.6715 414.4337 240.1142 409.9237 235.7369 424.527 243.2053 429.5979 233.5322 444.0782 243.8288 448.5901 230.7775 459.602 225.2229 455.8943 211.437 444.2468 205.1224 431.3671 208.2565 424.2679 227.6715 414.4337 Z"/>
<path d="M 550.2197 417.1618 561.2395 416.4368 561.2393 416.4373 554.2076 422.5247 553.9375 433.4969 542.1948 440.3029 536.1865 437.7764 545.4911 429.3935 550.2197 417.1618 Z"/>
<path d="M 696.7382 317.362 696.7387 317.3618 701.8834 324.4154 701.4393 330.2867 691.9 331.9071 687.807 326.8658 690.544 317.2949 696.7382 317.362 Z"/>
<path d="M 616.4365 468.0543 615.0747 466.5345 618.4627 463.4153 622.1099 464.4699 626.3803 465.942 630.1408 477.8338 630.943 486.7011 622.4445 494.7841 616.2638 492.9787 619.3678 472.2049 616.4365 468.0543 Z"/>
<path d="M 622.832 353.8364 633.3346 347.9783 640.8448 357.3478 637.3124 365.0521 641.3536 370.7712 631.5677 373.4169 630.5076 378.6981 619.723 374.559 617.8597 364.6643 622.832 353.8364 Z"/>
<path d="M 699.2226 215.7288 709.6289 224.1737 708.9996 228.6424 695.1072 227.9759 699.1408 224.9684 696.1224 215.6982 699.2226 215.7288 Z"/>
<path d="M 145.8931 206.9268 144.6265 219.9767 140.3703 224.4813 144.609 232.5363 141.7341 245.319 125.0857 248.8222 108.0975 247.218 92.8382 255.2914 84.0298 251.8018 67.1409 256.4812 65.3974 259.3108 45.0093 262.4299 44.673 266.6386 38.2583 266.4589 27.307 260.6847 19.1128 260.9227 9.4069 255.838 1 239.0217 12.1723 231.7106 19.6086 213.9683 29.5804 206.2592 38.6881 182.6484 53.8582 177.1562 68.8569 167.7874 69.56 159.0276 76.5563 157.4954 81.3063 140.7703 88.8438 136.662 96.5386 152.4175 103.8194 158.4498 106.4232 167.4264 102.3389 171.4361 103.2125 180.638 110.0663 190.7435 119.7915 198.5648 133.9875 200.0393 145.8931 206.9268 Z"/>
<path d="M 591.6114 479.0202 582.9172 476.2248 576.4274 468.9049 579.5196 464.6844 589.1089 464.5146 594.9709 473.1176 591.6114 479.0202 Z"/>
<path d="M 431.0286 401.8067 435.7613 407.1134 435.2195 424.0283 422.971 415.36 417.9627 423.4963 408.887 414.2031 408.5898 410.0975 413.3362 403.6146 419.387 411.4928 431.0286 401.8067 Z"/>
<path d="M 642.5936 96.6097 646.1614 96.052 650.8536 96.343 662.2653 107.3697 671.4405 124.4788 694.4319 145.4781 709.7759 155.1954 697.1978 153.7345 673.5982 151.4924 654.2264 160.2747 644.9051 149.5034 637.8104 143.9998 638.1071 134.8513 643.2527 124.0166 643.5117 113.3219 640.5322 103.0776 642.5936 96.6097 Z"/>
<path d="M 587.8651 645.1041 582.0024 635.6211 604.8018 624.7616 611.7485 627.4818 611.3196 629.335 618.2805 637.0261 626.0883 651.0733 623.4103 653.7881 620.2491 655.3092 618.7791 652.3211 595.97 644.6948 587.8651 645.1041 Z"/>
<path d="M 633.419 459.0851 635.9928 451.0687 649.3723 443.6073 661.93 449.3215 663.3407 460.2075 657.6851 459.2852 650.0888 449.4205 645.1926 456.5777 633.419 459.0851 Z"/>
<path d="M 295.1312 360.4351 295.1319 360.4353 289.4739 373.4422 300.1076 385.1782 321.9457 402.8113 321.9531 412.7857 317.8372 416.1619 304.2822 415.2826 293.4693 440.1031 276.3029 463.1295 270.667 451.5534 275.365 434.2157 277.0077 425.9455 274.2379 416.025 276.219 409.3994 253.2964 412.3064 253.2049 403.4941 258.9077 403.2263 274.2544 398.7673 279.1895 387.0375 280.1593 376.2299 295.1312 360.4351 Z"/>
<path d="M 654.5161 250.4051 659.0835 261.7117 647.2144 268.779 648.7321 256.6972 654.5161 250.4051 Z"/>
<path d="M 638.7352 393.2867 643.4652 393.9785 650.2722 396.6189 642.3876 396.6595 634.6989 401.3914 646.0849 407.4302 640.837 412.5093 622.934 407.7519 615.3736 402.8841 614.2307 402.4429 613.3606 400.5008 620.2294 397.9491 638.7352 393.2867 Z"/>
<path d="M 489.3026 340.4737 487.0077 354.3937 483.6095 360.2792 474.7555 362.1557 465.1441 370.5214 467.5058 379.6292 474.5235 396.5331 465.8222 397.7151 459.0785 381.2793 454.6838 376.8389 449.6055 362.1507 458.4856 360.7304 457.7299 349.6306 469.7378 344.2873 489.3026 340.4737 Z"/>
<path d="M 378.055 363.5639 399.453 362.9644 399.4159 374.7538 390.1597 388.8086 386.4616 383.7364 382.7849 379.9248 378.055 363.5639 Z"/>
<path d="M 709.7759 155.1954 710.0602 153.835 711.3015 153.9717 717.9989 159.7246 711.4081 165.589 697.434 156.2517 697.1978 153.7345 709.7759 155.1954 Z"/>
<path d="M 507.8253 79.2585 493.6137 74.9672 477.4794 75.6352 469.2259 94.5709 452.9787 100.8864 443.1893 98.3848 428.356 107.2435 409.4061 101.6923 413.6065 61.52 424.1766 48.2693 424.3357 43.0911 440.7459 34.9125 450.895 23.5628 454.6217 15.3077 463.5442 17.7371 476.2748 15.0461 478.6984 21.6471 494.4676 26.4111 500.5605 36.7048 503.1599 47.5906 516.2539 56.7951 507.8253 79.2585 Z"/>
<path d="M 365.8861 143.3456 365.886 143.3451 387.1822 149.6539 395.402 173.2633 401.1643 182.9127 416.4387 187.7538 393.3131 208.1304 394.464 216.5238 388.4296 215.9636 378.638 226.2739 380.1965 236.5769 380.1966 236.5772 372.7483 239.0697 364.0651 238.6399 354.3863 214.3801 355.6962 205.6158 364.3557 194.3519 369.4711 194.1275 373.0035 184.3904 369.9744 171.6831 373.8818 165.7847 365.8861 143.3456 Z"/>
<path d="M 734.588 166.925 754.9514 165.6247 755.4585 166.1796 754.9337 177.1731 743.9162 188.0176 735.0086 189.5335 736.2959 177.4786 734.588 166.925 Z"/>
<path d="M 387.4207 525.5839 396.4062 533.7452 396.9734 543.7351 385.7298 545.0788 371.0193 549.1586 368.0443 555.9817 359.514 561.7296 347.4101 555.2722 352.5981 545.2403 359.0887 537.6831 367.9057 535.0942 371.7957 527.5302 387.4207 525.5839 Z"/>
<path d="M 342.0658 428.685 346.7918 422.2883 353.4727 427.0621 360.899 425.3009 369.9626 441.4803 370.5388 447.098 356.1451 445.8567 350.9915 438.944 342.841 441.5437 338.6621 435.9742 342.0658 428.685 Z"/>
<path d="M 598.62 525.9868 597.7562 522.4848 613.2258 522.5271 616.6503 521.3036 614.7219 538.171 612.9602 541.2935 610.3679 541.8173 611.5751 536.3565 598.62 525.9868 Z"/>
<path d="M 751.7859 294.8836 758.853 298.1338 753.224 312.6853 745.5427 307.5694 751.7859 294.8836 Z"/>
<path d="M 714.7391 371.8479 718.7778 370.9602 723.2928 376.883 721.2235 379.469 714.7391 371.8479 Z"/>
<path d="M 620.7448 383.1191 619.723 374.5592 619.723 374.559 630.5076 378.6981 632.6617 385.2589 636.2832 392.3212 636.2582 392.3118 636.196 392.3014 631.2933 392.1573 620.7448 383.1191 Z"/>
<path d="M 698.9606 355.1385 705.6937 351.7661 713.376 353.4763 713.1707 358.117 707.5156 369.1545 701.2116 364.5843 698.9606 355.1385 Z"/>
<path d="M 559.8654 259.1494 567.6115 259.7115 577.012 256.472 581.2425 273.4979 570.929 274.3647 554.2908 266.3856 554.6771 262.8304 559.8654 259.1494 Z"/>
<path d="M 600.4188 694.5951 608.2086 687.742 615.9547 690.0482 622.7178 711.6482 617.2082 722.6874 603.6855 714.7873 600.4188 694.5951 Z"/>
<path d="M 218.4457 472.5663 226.6025 461.1746 225.2229 455.8943 230.7775 459.602 243.8288 448.5901 263.5539 457.0753 257.3347 475.9841 253.4381 493.2053 246.5235 503.248 223.7816 498.4431 222.0552 485.8986 225.226 481.9375 218.4457 472.5663 Z"/>
<path d="M 576.3217 556.9357 579.4418 547.9807 585.1347 544.698 584.2641 561.6215 582.0566 563.3924 576.3217 556.9357 Z"/>
<path d="M 518.2566 521.2466 519.4352 530.9407 528.7604 539.3865 516.3421 545.605 511.628 551.6511 513.5456 567.0198 503.2577 578.0549 503.5102 585.2097 497.5686 586.2874 493.2276 598.9992 484.6758 601.4535 476.1088 592.7126 473.4474 577.7925 479.5221 570.3814 473.2453 543.9004 482.6284 546.2517 490.8226 542.2883 490.3852 525.2871 496.8649 522.1843 508.7229 524.4775 518.2566 521.2466 Z"/>
<path d="M 755.4585 166.1796 760.6428 165.7306 763.6861 187.1776 748.3602 192.8857 743.9162 188.0176 754.9337 177.1731 755.4585 166.1796 Z"/>
<path d="M 566.1478 569.6315 562.2045 562.6214 562.2902 561.2132 570.412 556.1378 576.3217 556.9357 582.0566 563.3924 583.3401 569.3082 566.1478 569.6315 Z"/>
<path d="M 636.8234 212.8359 642.661 213.8025 650.951 215.515 665.664 218.4836 671.9873 243.9414 679.5263 244.6665 679.5261 244.6667 679.833 245.6011 676.3009 249.7759 672.6195 247.0652 654.5161 250.4051 648.7321 256.6972 649.7096 239.9411 643.1276 237.6558 639.9338 233.7488 636.8234 212.8359 Z"/>
<path d="M 518.2566 521.2466 517.1128 513.9676 539.172 512.8592 539.7984 508.1356 559.9321 515.3535 555.145 532.199 546.5448 538.3127 545.4049 532.719 528.2228 520.6255 518.2566 521.2466 Z"/>
<path d="M 640.8448 357.3478 642.5969 356.7819 648.403 364.8007 648.4033 364.801 641.3536 370.7712 637.3124 365.0521 640.8448 357.3478 Z"/>
<path d="M 709.6289 224.1737 719.6615 220.1872 729.345 207.9691 741.0782 220.5757 742.2169 228.8538 749.2109 231.1221 748.117 243.6905 740.6055 254.2423 729.1857 244.3759 715.2308 236.8241 708.9996 228.6424 709.6289 224.1737 Z"/>
<path d="M 692.2955 341.8877 702.0086 336.5973 714.0424 337.891 718.3295 339.6683 714.7793 347.2515 713.376 353.4763 705.6937 351.7661 698.9606 355.1385 691.1023 348.5786 691.7427 345.0335 692.2955 341.8877 Z"/>
<path d="M 417.4815 313.8568 435.2899 313.1109 447.0309 309.9433 456.907 315.1717 456.9076 315.1719 449.3423 327.4285 449.404 336.3814 440.8153 331.5114 424.5185 332.5661 423.2975 321.1006 417.4815 313.8568 Z"/>
<path d="M 386.4616 383.7364 390.1597 388.8086 392.0342 398.7191 408.5898 410.0975 408.887 414.2031 398.1766 412.7388 387.3124 406.8571 383.3264 398.4863 375.3249 398.9987 368.9624 392.3885 367.9842 391.4102 376.1623 389.8966 386.4616 383.7364 Z"/>
<path d="M 450.0113 521.6254 459.162 517.4228 466.4667 518.5167 479.537 512.1187 475.2193 524.737 468.3867 535.4949 464.3224 543.012 454.5308 545.3665 448.7292 542.7978 454.0558 532.854 450.0113 521.6254 Z"/>
<path d="M 630.0168 1.4619 618.3392 26.4478 620.3409 38.6073 625.5651 52.2043 630.497 54.2929 629.9654 65.5689 625.5833 72.0221 622.3423 84.8921 629.7754 94.0111 605.1244 101.907 591.9847 113.7748 583.1308 104.8379 585.7375 86.338 584.1315 69.2429 585.6481 57.9785 576.1573 45.4222 585.1694 35.1882 583.5641 25.8361 602.5947 22.0336 601.2487 11.2858 609.3589 10.4503 624.8831 1 630.0168 1.4619 Z"/>
<path d="M 687.807 326.8658 691.9 331.9071 692.1288 332.9509 678.6722 332.5948 675.3489 332.4871 677.263 329.8208 687.807 326.8658 Z"/>
<path d="M 690.7192 169.314 691.3206 159.2393 697.434 156.2517 711.4081 165.589 715.7694 168.5775 728.5173 168.6029 722.1016 174.3653 726.228 188.7789 713.8571 182.2159 707.8688 184.6378 700.1899 176.187 690.7192 169.314 Z"/>
<path d="M 662.4699 29.4403 665.055 23.7347 678.5163 22.7752 686.3523 28.7356 692.518 39.5192 698.145 25.9726 706.8635 28.907 703.0302 37.2068 696.9323 43.876 695.3498 63.669 698.1774 76.4179 704.848 83.1012 703.5309 95.2872 700.0062 100.0569 679.5733 96.7078 679.5351 87.291 688.395 77.698 691.4555 68.7048 688.3449 59.3926 662.4699 29.4403 Z"/>
<path d="M 607.2711 257.7017 614.3866 262.6432 612.6626 272.5114 605.4096 276.7418 600.6247 277.0268 594.5985 265.1182 607.2711 257.7017 Z"/>
<path d="M 600.6247 277.0268 605.4096 276.7418 614.0172 279.6352 620.4457 289.5222 614.436 302.7917 609.4807 305.8778 605.3348 296.6043 597.7235 292.4314 599.1467 285.3231 600.6247 277.0268 Z"/>
<path d="M 543.3929 285.822 548.5688 284.1041 560.2859 287.5094 570.9837 287.5974 577.7634 298.3921 571.8194 305.362 571.0308 313.8845 567.3607 309.9619 554.935 308.9856 545.396 298.5754 550.5079 292.634 543.3929 285.822 Z"/>
<path d="M 663.6539 445.4503 659.2059 437.0786 653.9942 436.026 654.8173 429.4935 657.3184 420.8726 665.1945 421.0009 670.2541 427.126 666.7375 434.5213 669.7227 444.9199 663.6539 445.4503 Z"/>
<path d="M 655.9092 347.4056 660.2948 349.8916 661.2454 351.5011 661.7532 352.1543 655.8712 355.6237 645.4539 351.5505 655.9092 347.4056 Z"/>
<path d="M 357.731 375.7726 356.2086 362.2446 362.1096 360.1234 378.055 363.5639 382.7849 379.9248 386.4616 383.7364 376.1623 389.8966 367.9842 391.4102 357.731 375.7726 Z"/>
<path d="M 384.3333 410.567 387.3124 406.8571 398.1766 412.7388 408.887 414.2031 405.5559 416.9701 403.7795 432.9173 399.3719 441.3238 386.9169 428.2366 384.3333 410.567 Z"/>
<path d="M 723.9081 324.6993 732.4774 323.2112 735.2109 332.8123 718.3295 339.6683 714.0424 337.891 723.9081 324.6993 Z"/>
<path d="M 582.9172 476.2248 591.6114 479.0202 590.5749 482.7033 579.8311 488.8922 579.7335 480.6725 582.9172 476.2248 Z"/>
<path d="M 532.5545 218.2243 540.548 219.2923 575.1358 228.0279 561.7426 229.7065 544.3731 233.7662 535.1126 230.3737 532.5545 218.2243 Z"/>
<path d="M 592.3271 348.894 605.9028 351.0783 602.8036 355.5891 602.1228 377.4524 586.7921 369.5112 591.8515 361.6563 592.3271 348.894 Z"/>
<path d="M 647.1261 269.9588 655.6731 280.6398 640.115 280.969 638.9944 279.1591 647.1261 269.9588 Z"/>
<path d="M 642.6271 552.5957 646.8047 565.057 635.4909 566.7607 629.1664 562.2058 632.4991 554.5925 642.6271 552.5957 Z"/>
<path d="M 622.6763 724.5764 635.6924 724.0808 646.5255 727.5989 650.7517 724.4542 642.5554 747.7421 642.073 762.7617 644.3181 772.4118 636.9321 765.8203 620.1975 756.9154 606.1542 760.9113 610.6462 749.6005 617.6712 745.9578 618.5197 732.9346 622.6763 724.5764 Z"/>
<path d="M 528.769 403.1115 539.1108 412.3623 550.2197 417.1618 545.4911 429.3935 536.1865 437.7764 533.214 446.0045 527.714 450.3602 530.5013 464.0403 517.4887 459.9467 511.4826 447.1351 515.0099 437.5233 511.2771 424.6414 506.4015 419.0552 511.9344 407.9299 519.946 403.0377 528.769 403.1115 Z"/>
<path d="M 728.5173 168.6029 734.588 166.925 736.2959 177.4786 735.0086 189.5335 730.3258 188.9047 726.228 188.7789 722.1016 174.3653 728.5173 168.6029 Z"/>
<path d="M 408.887 414.2031 417.9627 423.4963 422.971 415.36 420.9147 423.4401 426.9698 428.252 434.9712 444.4162 440.9996 454.0267 444.8634 466.6228 439.2078 469.0323 438.0891 463.5944 428.2354 449.2089 422.7256 444.5146 413.1678 436.7335 403.7795 432.9173 405.5559 416.9701 408.887 414.2031 Z"/>
<path d="M 513.4197 261.4139 522.3216 261.8354 542.1762 267.3335 542.1757 267.3336 535.3224 274.4746 532.3203 285.3857 520.1432 287.2574 516.6163 282.8378 504.8789 278.3095 513.4197 261.4139 Z"/>
<path d="M 603.0024 433.7423 606.2167 428.0305 609.084 428.0124 611.5985 428.5737 622.4276 431.4345 630.6729 436.9055 630.2024 445.1115 627.0195 443.1675 624.0841 438.8885 603.0024 433.7423 Z"/>
<path d="M 703.0302 37.2068 712.606 43.8948 722.4688 43.8169 719.9578 52.8851 728.9473 71.2532 709.3429 76.4752 704.848 83.1012 698.1774 76.4179 695.3498 63.669 696.9323 43.876 703.0302 37.2068 Z"/>
<path d="M 330.5318 295.4749 326.4029 282.7313 336.2414 277.2563 336.2418 277.2568 334.1172 284.0302 361.0611 297.6405 379.7917 296.109 379.6991 304.6573 394.3246 321.9552 390.2612 324.6397 377.601 327.5331 379.4201 334.3336 370.4218 340.2207 372.1941 333.8857 368.2337 320.8894 352.3802 322.969 346.5023 307.543 337.6429 309.2152 330.5318 295.4749 Z"/>
<path d="M 402.8993 251.0033 405.9864 246.9749 419.4508 268.0593 420.4651 273.0823 413.056 275.4308 408.6887 279.7674 407.1504 272.2446 397.1692 261.7673 402.8993 251.0033 Z"/>
<path d="M 582.9709 376.3594 586.7921 369.5112 602.1228 377.4524 605.6816 381.1684 596.8594 388.1085 591.5043 385.8311 583.0015 381.4544 582.9709 376.3594 Z"/>
<path d="M 555.145 532.199 556.2789 538.2109 572.1538 544.7789 570.412 556.1378 562.2902 561.2132 548.8413 554.7137 546.5448 538.3127 555.145 532.199 Z"/>
<path d="M 184.371 319.8397 181.3771 326.6218 200.6564 327.143 200.4569 345.9272 212.2166 364.7994 212.886 374.4315 207.1424 377.3055 205.5447 385.5965 198.1 397.4696 180.0377 382.2682 174.8447 363.1094 173.5893 350.155 165.7391 345.5031 163.8135 336.0034 169.377 329.1568 180.7337 325.5023 184.371 319.8397 Z"/>
<path d="M 701.8834 324.4154 716.7609 320.5284 723.9081 324.6993 714.0424 337.891 702.0086 336.5973 701.4393 330.2867 701.8834 324.4154 Z"/>
<path d="M 547.5328 251.6122 554.6771 262.8304 554.2908 266.3856 542.1762 267.3335 541.0302 257.7217 547.5328 251.6122 Z"/>
<path d="M 631.17 536.5711 625.8378 546.3919 619.6072 547.6022 612.9602 541.2935 614.7219 538.171 622.0065 540.1896 631.17 536.5711 Z"/>
<path d="M 354.3863 214.3801 364.0651 238.6399 372.7483 239.0697 375.0025 248.95 369.6903 255.6493 372.4662 263.4357 369.823 275.8026 358.7689 281.121 350.5817 275.8153 336.2418 277.2568 336.2414 277.2563 326.947 266.9629 328.519 259.6318 321.9475 237.9658 328.4674 237.4447 328.3447 227.7568 334.6476 221.877 334.948 215.3134 346.8824 218.8572 354.3863 214.3801 Z"/>
<path d="M 205.5447 385.5965 219.2876 393.7018 218.5126 407.0989 207.0127 404.1327 198.1 397.4696 205.5447 385.5965 Z"/>
<path d="M 387.8513 461.789 393.4781 478.7836 401.5098 488.3502 388.4823 487.704 381.1418 491.1129 370.9373 490.7919 368.4117 472.9922 371.8428 465.4308 381.8373 465.9648 387.8513 461.789 Z"/>
<path d="M 581.6719 647.1325 587.8651 645.1041 595.97 644.6948 618.7791 652.3211 620.2491 655.3092 595.6804 664.2211 586.0836 669.0316 581.4101 671.7616 586.6942 656.9946 581.6719 647.1325 Z"/>
<path d="M 590.5749 482.7033 591.6114 479.0202 594.9709 473.1176 599.8441 466.0208 600.7563 464.4663 604.3756 485.2995 603.3991 489.8602 590.5749 482.7033 Z"/>
<path d="M 728.9358 349.6857 732.2328 342.8839 741.6579 347.0852 744.9472 352.3221 723.2928 376.883 718.7778 370.9602 715.0087 359.2389 720.381 354.5432 728.5738 356.2631 728.9358 349.6857 Z"/>
<path d="M 557.9852 243.313 567.0127 235.7853 568.2079 251.5643 567.6115 259.7115 559.8654 259.1494 557.9852 243.313 Z"/>
<path d="M 267.9469 67.2495 276.4186 63.7266 289.6751 77.0593 300.383 73.5264 315.4285 75.44 319.2462 85.7876 329.9239 94.3177 341.2267 87.9653 334.3051 104.5904 282.0222 103.4677 267.9469 82.3488 267.9469 67.2495 Z"/>
<path d="M 605.6309 553.3322 603.9526 540.5415 610.3679 541.8173 612.9602 541.2935 619.6072 547.6022 617.9804 552.5946 605.6309 553.3322 Z"/>
<path d="M 370.9373 490.7919 381.1418 491.1129 386.0669 495.151 381.0072 506.5747 361.063 504.3309 370.9373 490.7919 Z"/>
<path d="M 405.9864 246.9749 422.9799 247.9187 426.9875 249.5736 433.6427 266.906 420.4651 273.0823 419.4508 268.0593 405.9864 246.9749 Z"/>
<path d="M 706.4125 296.1684 723.9038 297.3662 723.0624 304.0061 719.5785 319.8293 716.7609 320.5284 701.8834 324.4154 696.7387 317.3618 705.068 314.5538 709.9895 307.2735 706.4125 296.1684 Z"/>
<path d="M 471.6156 407.1423 478.4765 412.6545 473.7372 422.1593 465.4438 427.9689 445.4356 432.5913 440.2263 424.1164 449.0225 420.4522 449.0191 408.9397 462.478 415.1582 471.6156 407.1423 Z"/>
<path d="M 774.7937 309.1577 768.1284 297.5696 770.2575 292.6013 759.3288 280.6246 763.7779 277.7768 769.4795 271.3606 781.6264 271.724 789.7722 278.1155 774.7937 309.1577 Z"/>
<path d="M 575.1358 228.0279 575.8574 227.0405 578.163 235.4873 586.2595 241.0566 585.1035 241.4237 581.7016 249.952 568.2079 251.5643 567.0127 235.7853 561.7426 229.7065 575.1358 228.0279 Z"/>
<path d="M 580.7283 345.7726 582.0832 345.3535 592.3271 348.894 591.8515 361.6563 586.7921 369.5112 582.9709 376.3594 568.4559 386.5815 561.8131 385.6866 557.0341 391.4378 547.7955 390.9814 538.2665 394.8009 532.5891 382.193 537.4596 380.3682 543.2098 369.2181 555.5216 366.9102 569.5489 353.5284 580.7283 345.7726 Z"/>
<path d="M 661.7532 352.1543 661.2454 351.5011 664.1766 353.3874 666.2947 361.3296 657.0272 364.2167 655.9345 363.8358 657.0882 356.8153 661.7532 352.1543 Z"/>
<path d="M 620.7448 383.1191 631.2933 392.1573 636.196 392.3014 636.2582 392.3118 636.2832 392.3212 638.7352 393.2867 620.2294 397.9491 614.8512 389.1467 620.7448 383.1191 Z"/>
<path d="M 213.3973 183.0062 220.5112 178.3441 232.8387 189.3832 236.3415 201.561 225.5484 209.9356 235.7045 224.7148 242.4776 244.1784 241.8644 244.5325 229.886 246.4361 209.0907 254.6002 198.9673 255.7894 191.5705 245.4385 184.7801 248.832 197.6949 233.3588 204.1942 228.104 213.7385 210.1511 218.3645 197.338 213.3973 183.0062 Z"/>
<path d="M 274.8423 488.2497 272.127 481.7088 275.9656 464.6301 281.9631 471.8843 303.2868 472.1996 305.3262 467.9417 318.5692 470.1215 321.4844 472.3883 319.7842 482.766 310.1565 502.6622 298.7294 512.4808 277.895 516.8866 281.9013 505.2419 274.8423 488.2497 Z"/>
<path d="M 662.4699 29.4403 688.3449 59.3926 691.4555 68.7048 688.395 77.698 679.5351 87.291 679.5733 96.7078 672.9593 95.3142 650.8536 96.343 646.1614 96.052 654.7866 89.5103 660.5726 90.1656 664.6488 80.8332 653.8375 58.1505 652.5674 42.1021 662.4699 29.4403 Z"/>
<path d="M 506.6174 339.6594 508.7633 357.1256 490.4828 369.2894 487.0077 354.3937 489.3026 340.4737 506.6174 339.6594 Z"/>
<path d="M 600.5785 505.8771 600.5787 505.8771 618.4597 510.2145 613.2258 522.5271 597.7562 522.4848 600.5785 505.8771 Z"/>
<path d="M 684.0584 314.0449 690.544 317.2949 687.807 326.8658 677.263 329.8208 670.9911 314.1245 671.7885 308.9683 674.659 309.5367 684.0584 314.0449 Z"/>
<path d="M 730.9499 290.7611 735.2296 283.5034 745.2818 287.3669 751.7859 294.8836 745.5427 307.5694 753.224 312.6853 755.7941 319.8904 767.5013 321.2654 756.8412 335.9206 752.291 333.261 754.3617 323.4715 740.4176 314.2634 723.0624 304.0061 723.9038 297.3662 730.9499 290.7611 Z"/>
<path d="M 632.6617 385.2589 641.535 381.979 650.5334 384.0348 651.1206 384.5175 647.6748 390.7337 643.4652 393.9785 638.7352 393.2867 636.2832 392.3212 632.6617 385.2589 Z"/>
<path d="M 362.5056 403.2127 365.8496 422.066 360.899 425.3009 353.4727 427.0621 346.7918 422.2883 341.8965 410.5435 362.5056 403.2127 Z"/>
<path d="M 439.3524 262.3571 436.3216 267.0935 433.6427 266.906 426.9875 249.5736 436.414 245.0926 442.5346 237.5582 456.0007 229.8751 452.622 252.5797 439.3524 262.3571 Z"/>
<path d="M 423.5536 233.2891 449.9688 214.5168 456.0007 229.8751 442.5346 237.5582 436.414 245.0926 426.9875 249.5736 422.9799 247.9187 423.5536 233.2891 Z"/>
<path d="M 46.9443 267.879 44.673 266.6386 45.0093 262.4299 65.3974 259.3108 67.1409 256.4812 84.0298 251.8018 92.8382 255.2914 108.0975 247.218 125.0857 248.8222 141.7341 245.319 152.1518 243.9592 160.9397 250.4984 168.36 249.2778 168.3604 271.0914 170.3565 278.7728 162.4606 288.9689 156.7129 290.3249 147.2371 301.2143 132.9568 288.2368 116.7688 278.1765 110.5438 277.9366 85.8454 282.3646 66.5846 269.8768 46.9443 267.879 Z"/>
<path d="M 538.9665 724.9907 538.1039 727.5579 543.7232 732.6861 550.471 733.3711 563.2094 743.6554 562.8931 755.133 526.8343 758.3504 524.7623 739.4786 531.6361 724.0153 538.9665 724.9907 Z"/>
<path d="M 659.0835 261.7117 672.1901 260.5099 671.9873 274.4949 662.1413 279.2212 662.8307 284.6116 655.2402 285.8211 654.2994 285.7406 655.6731 280.6398 647.1261 269.9588 647.2144 268.779 659.0835 261.7117 Z"/>
<path d="M 629.3587 601.4057 636.8069 608.77 638.2237 615.3992 629.4942 621.9031 630.0928 634.1163 611.3196 629.335 611.7485 627.4818 615.4282 613.7284 622.3077 610.8798 629.3587 601.4057 Z"/>
<path d="M 714.7391 371.8479 721.2235 379.469 706.9545 388.5092 696.8318 388.3179 698.6883 380.5694 687.3018 371.3147 687.0436 369.9403 687.3333 365.9167 696.6284 364.164 701.2116 364.5843 707.5156 369.1545 714.7391 371.8479 Z"/>
<path d="M 467.7996 312.4861 477.186 310.4163 484.1109 313.3699 489.0829 323.3339 482.2151 325.2685 473.9115 334.0244 470.8642 332.2797 463.8206 313.4672 467.7996 312.4861 Z"/>
<path d="M 671.9873 274.4949 675.3223 280.8902 672.3008 284.6371 668.3021 291.8793 662.8307 284.6116 662.1413 279.2212 671.9873 274.4949 Z"/>
<path d="M 698.9606 355.1385 701.2116 364.5843 696.6284 364.164 688.0276 363.5278 685.3608 353.8531 691.1023 348.5786 698.9606 355.1385 Z"/>
<path d="M 613.6532 470.3991 615.5726 474.8946 611.011 492.5985 603.3991 489.8602 604.3756 485.2995 613.6532 470.3991 Z"/>
<path d="M 681.0764 192.0426 685.9539 204.4181 696.1224 215.6982 699.1408 224.9684 695.1072 227.9759 679.5263 244.6665 671.9873 243.9414 665.664 218.4836 650.951 215.515 663.9652 199.98 664.4863 195.345 681.0764 192.0426 Z"/>
<path d="M 236.3415 201.561 248.5909 206.078 280.7469 201.6817 281.6812 189.5345 281.0461 148.096 290.0702 147.8869 347.3682 176.5727 333.3792 198.1298 326.2771 197.5274 315.3921 206.0066 306.1266 216.2113 297.1599 234.5767 299.4252 241.3543 291.4617 255.8163 289.7841 262.517 283.764 264.9733 284.2186 277.6873 274.4447 283.8358 270.0921 294.6473 259.642 294.6473 257.2601 288.8588 247.6215 264.8001 242.4776 244.1784 235.7045 224.7148 225.5484 209.9356 236.3415 201.561 Z"/>
<path d="M 205.1224 431.3671 211.437 444.2468 225.2229 455.8943 226.6025 461.1746 218.4457 472.5663 210.8337 467.4803 203.7298 476.5848 194.8521 477.7043 187.2098 476.6683 169.6429 464.2496 158.8135 458.8091 158.5362 456.5428 176.895 446.4722 203.0217 435.3474 205.1224 431.3671 Z"/>
<path d="M 690.5818 305.1976 697.2966 307.7132 696.7382 317.362 690.544 317.2949 684.0584 314.0449 690.5818 305.1976 Z"/>
<path d="M 630.0168 1.4619 636.113 2.8741 639.659 13.3006 655.3365 17.4179 651.787 27.3422 637.4129 35.7801 638.0428 39.5667 630.497 54.2929 625.5651 52.2043 620.3409 38.6073 618.3392 26.4478 630.0168 1.4619 Z"/>
<path d="M 431.4456 359.4644 435.2033 362.2288 432.1756 378.3889 427.0351 386.775 418.5308 370.6357 399.4159 374.7538 399.453 362.9644 398.5898 357.5532 409.8983 359.8654 431.4456 359.4644 Z"/>
<path d="M 579.7335 480.6725 579.8311 488.8922 573.8166 496.9184 565.8298 496.9839 564.5073 488.6098 569.4916 480.0402 579.7335 480.6725 Z"/>
<path d="M 584.9158 421.1234 595.7005 419.2677 600.6946 431.6229 593.9675 432.0713 584.9158 421.1234 Z"/>
<path d="M 641.0509 333.9921 649.9094 343.7515 633.3346 347.9783 628.5909 338.3749 641.0509 333.9921 Z"/>
<path d="M 506.6174 339.6594 514.8145 339.4411 524.4412 338.5127 533.4969 344.6805 535.2149 353.9866 543.2098 369.2181 537.4596 380.3682 532.5891 382.193 524.3846 387.5092 509.2235 390.9924 497.3515 387.7352 492.3954 390.5329 485.9219 379.8901 490.4828 369.2894 508.7633 357.1256 506.6174 339.6594 Z"/>
<path d="M 684.7783 381.0646 687.3018 371.3147 698.6883 380.5694 684.7783 381.0646 Z"/>
<path d="M 605.9028 351.0783 610.911 348.2689 622.832 353.8364 617.8597 364.6643 619.723 374.559 619.723 374.5592 606.9688 379.7015 605.6816 381.1684 602.1228 377.4524 602.8036 355.5891 605.9028 351.0783 Z"/>
<path d="M 582.2108 276.3752 591.193 285.4569 599.1467 285.3231 597.7235 292.4314 590.624 294.9092 582.5327 303.08 577.7634 298.3921 570.9837 287.5974 582.2108 276.3752 Z"/>
<path d="M 422.7256 444.5146 428.2354 449.2089 438.0891 463.5944 439.2078 469.0323 430.4335 473.948 421.1014 472.3718 412.7829 458.8017 422.7256 444.5146 Z"/>
<path d="M 651.1206 384.5175 657.3133 382.9931 656.3783 391.3998 647.6748 390.7337 651.1206 384.5175 Z"/>
<path d="M 432.4101 517.9735 450.0113 521.6254 454.0558 532.854 448.7292 542.7978 440.3457 544.4168 432.4101 517.9735 Z"/>
<path d="M 552.8311 206.1963 555.9993 210.9825 575.1358 228.0279 540.548 219.2923 544.1085 210.8979 552.8311 206.1963 Z"/>
<path d="M 487.0077 354.3937 490.4828 369.2894 485.9219 379.8901 478.3397 377.5289 467.5058 379.6292 465.1441 370.5214 474.7555 362.1557 483.6095 360.2792 487.0077 354.3937 Z"/>
<path d="M 316.7738 329.388 315.1884 317.3771 302.5464 302.2703 330.5318 295.4749 337.6429 309.2152 346.5023 307.543 352.3802 322.969 368.2337 320.8894 372.1941 333.8857 370.4218 340.2207 359.1443 347.4046 345.6313 343.9704 329.5042 349.9479 324.0262 347.5091 316.7738 329.388 Z"/>
<path d="M 744.1798 91.2201 746.9584 97.1334 745.1222 107.9066 750.4531 111.3699 748.3295 118.7754 731.9953 118.0311 726.1953 114.7637 715.2872 102.8574 708.7671 101.6184 733.9313 99.3717 744.1798 91.2201 Z"/>
<path d="M 599.1019 450.9088 609.1324 449.5442 602.011 462.7206 596.7648 454.4329 599.1019 450.9088 Z"/>
<path d="M 430.2323 197.5874 430.2328 197.5876 440.8826 211.1613 449.9688 214.5168 423.5536 233.2891 411.5905 236.5597 406.0621 233.7181 407.4027 229.6876 413.4882 223.9821 430.2323 197.5874 Z"/>
<path d="M 680.4441 181.5016 684.0335 189.4899 681.0764 192.0426 664.4863 195.345 663.9652 199.98 650.951 215.515 642.661 213.8025 637.4089 187.6807 638.4671 186.0317 657.6001 181.9568 680.4441 181.5016 Z"/>
<path d="M 355.5962 509.3572 361.063 504.3309 381.0072 506.5747 387.9799 516.2211 387.4207 525.5839 371.7957 527.5302 370.3205 514.3269 355.5962 509.3572 Z"/>
<path d="M 232.4913 361.6471 267.9026 355.7582 264.8841 379.8359 254.9126 381.4314 242.4047 386.035 227.5 374.4716 212.886 374.4315 212.2166 364.7994 220.6886 367.3064 232.4913 361.6471 Z"/>
<path d="M 660.1693 677.0879 655.5464 684.8883 651.9316 707.6144 648.8242 712.4084 650.7517 724.4542 646.5255 727.5989 635.6924 724.0808 622.6763 724.5764 617.2082 722.6874 622.7178 711.6482 615.9547 690.0482 621.3525 681.0842 640.0217 679.5277 644.041 681.3961 660.1693 677.0879 Z"/>
<path d="M 334.059 451.8999 331.0457 471.6071 318.5692 470.1215 305.3262 467.9417 302.37 460.3584 311.8998 450.8288 334.059 451.8999 Z"/>
<path d="M 21.0189 304.8136 29.7721 290.7002 24.1624 279.2643 32.9543 268.0808 41.1215 270.8636 46.9443 267.879 66.5846 269.8768 85.8454 282.3646 110.5438 277.9366 116.7688 278.1765 132.9568 288.2368 147.2371 301.2143 154.8447 310.8938 164.0155 310.1814 166.6262 315.1981 177.504 314.0192 159.6179 319.6998 147.4028 325.9767 130.2361 328.5511 116.5164 337.1447 105.9396 332.655 74.8483 336.2198 83.8129 293.1791 74.6957 289.2081 59.1863 288.8341 41.4608 303.2505 21.0189 304.8136 Z"/>
<path d="M 449.404 336.3814 449.3423 327.4285 456.9076 315.1719 463.8206 313.4672 470.8642 332.2797 473.9115 334.0244 469.7378 344.2873 457.7299 349.6306 458.4856 360.7304 449.6055 362.1507 449.5861 362.0975 446.1268 356.3427 445.6309 342.9578 449.404 336.3814 Z"/>
<path d="M 533.514 586.5622 542.1349 584.4605 543.9393 593.0878 559.9777 595.9699 562.5463 604.9158 550.8914 605.0697 541.8564 626.1826 535.3003 626.4763 525.6775 630.1187 513.594 618.3095 519.1616 620.787 529.9579 619.1714 532.6433 612.8984 530.9129 596.5308 533.514 586.5622 Z"/>
<path d="M 671.5467 344.8245 674.9494 335.9975 675.3489 332.4871 678.6722 332.5948 683.2544 341.5832 691.7427 345.0335 691.1023 348.5786 685.3608 353.8531 688.0276 363.5278 688.0275 363.5279 675.1156 363.5103 678.6143 356.8201 671.5467 344.8245 Z"/>
<path d="M 688.0275 363.5279 687.3333 365.9167 687.0436 369.9403 678.0921 373.2307 674.2897 373.2786 675.1156 363.5103 688.0275 363.5279 Z"/>
<path d="M 663.7135 460.754 665.1095 462.8007 659.1243 482.5048 648.5091 481.7956 630.943 486.7011 630.1408 477.8338 632.4332 468.8471 648.428 464.205 657.1978 466.7328 663.7135 460.754 Z"/>
<path d="M 714.8903 203.21 727.0843 196.3563 729.345 207.9691 719.6615 220.1872 709.6289 224.1737 699.2226 215.7288 701.5865 210.5197 714.8903 203.21 Z"/>
<path d="M 714.7793 347.2515 723.3942 353.5301 728.9358 349.6857 728.5738 356.2631 720.381 354.5432 715.0087 359.2389 713.1707 358.117 713.376 353.4763 714.7793 347.2515 Z"/>
<path d="M 409.4061 101.6923 428.356 107.2435 443.1893 98.3848 452.9787 100.8864 469.2259 94.5709 477.4794 75.6352 493.6137 74.9672 491.4181 75.6936 490.4475 117.514 465.48 125.0639 470.9113 132.9917 475.1766 146.6272 463.5792 157.3859 456.3361 159.3603 448.6145 169.7024 452.8685 177.0066 444.0712 182.0591 438.1442 192.8001 430.2328 197.5876 430.2323 197.5874 425.7999 191.5509 416.4387 187.7538 401.1643 182.9127 395.402 173.2633 387.1822 149.6539 365.886 143.3451 363.2867 138.5961 370.2558 130.0996 381.3916 129.81 394.5441 110.2636 397.4512 98.7257 409.4061 101.6923 Z"/>
<path d="M 635.5546 316.7894 640.3922 325.6924 641.0509 333.9921 628.5909 338.3749 623.5903 329.0167 625.5633 323.6318 635.5546 316.7894 Z"/>
<path d="M 370.4218 340.2207 379.4201 334.3336 392.0256 334.8817 399.7343 344.3218 398.5898 357.5532 399.453 362.9644 378.055 363.5639 362.1096 360.1234 356.2086 362.2446 346.6514 354.8593 345.6313 343.9704 359.1443 347.4046 370.4218 340.2207 Z"/>
<path d="M 454.6343 482.6832 452.7783 496.4808 462.0615 498.0293 478.335 505.6962 479.537 512.1187 466.4667 518.5167 459.162 517.4228 450.0113 521.6254 432.4101 517.9735 439.9146 516.1992 438.2184 500.2603 444.9259 486.7073 454.6343 482.6832 Z"/>
<path d="M 403.743 494.1291 401.5098 488.3502 393.4781 478.7836 409.6815 478.5074 415.7574 471.6341 421.1014 472.3718 430.4335 473.948 439.2078 469.0323 444.8634 466.6228 447.4742 473.8749 460.0669 481.2504 454.6343 482.6832 444.9259 486.7073 438.2184 500.2603 439.9146 516.1992 432.4101 517.9735 427.5325 515.053 421.4889 496.0229 403.743 494.1291 Z"/>
<path d="M 492.3203 238.6471 511.4028 235.2836 514.8598 232.2891 530.3966 246.1459 540.1439 247.2375 547.5328 251.6122 541.0302 257.7217 542.1762 267.3335 522.3216 261.8354 513.4197 261.4139 499.4767 249.8551 492.3203 238.6471 Z"/>
<path d="M 428.6413 299.8198 447.0309 309.9433 435.2899 313.1109 417.4815 313.8568 403.6328 308.5737 399.1547 284.5714 428.6413 299.8198 Z"/>
<path d="M 503.5102 585.2097 503.2577 578.0549 513.5456 567.0198 526.562 563.7104 533.9321 563.2124 543.1309 569.4829 562.2045 562.6214 566.1478 569.6315 562.8377 579.9288 551.6007 575.7341 542.1349 584.4605 533.514 586.5622 514.4258 581.3841 503.5102 585.2097 Z"/>
<path d="M 406.0621 233.7181 411.5905 236.5597 423.5536 233.2891 422.9799 247.9187 405.9864 246.9749 406.0621 233.7181 Z"/>
<path d="M 399.3719 441.3238 403.7795 432.9173 413.1678 436.7335 422.7256 444.5146 412.7829 458.8017 421.1014 472.3718 415.7574 471.6341 409.6815 478.5074 393.4781 478.7836 387.8513 461.789 371.9873 454.1488 385.0108 447.4443 394.9518 449.1951 399.3719 441.3238 Z"/>
<path d="M 594.5787 592.2867 605.4574 585.9346 610.958 597.4187 607.7636 601.2612 609.8493 612.4764 602.4367 614.3678 597.3732 608.6493 589.0031 606.5681 587.9837 602.2905 594.5787 592.2867 Z"/>
<path d="M 240.1142 409.9237 253.2049 403.4941 253.2964 412.3064 276.219 409.3994 274.2379 416.025 277.0077 425.9455 275.365 434.2157 266.3144 442.8974 263.5539 457.0753 243.8288 448.5901 233.5322 444.0782 243.2053 429.5979 235.7369 424.527 240.1142 409.9237 Z"/>
<path d="M 372.7483 239.0697 380.1966 236.5772 387.1825 249.0225 386.7992 255.5502 397.1692 261.7673 407.1504 272.2446 408.6887 279.7674 403.5423 283.388 397.8408 277.0549 389.2115 278.1595 369.823 275.8026 372.4662 263.4357 369.6903 255.6493 375.0025 248.95 372.7483 239.0697 Z"/>
<path d="M 649.9094 343.7515 653.2596 343.5309 655.9092 347.4056 645.4539 351.5505 645.5742 355.1441 642.5969 356.7819 640.8448 357.3478 633.3346 347.9783 649.9094 343.7515 Z"/>
<path d="M 274.8423 488.2497 281.9013 505.2419 277.895 516.8866 268.39 544.5136 267.4506 541.3595 252.6749 535.8277 259.5668 523.4024 253.9545 510.4408 253.948 504.0665 262.7325 498.5957 265.0029 489.618 274.8423 488.2497 Z"/>
<path d="M 557.0341 391.4378 561.1164 396.4889 561.2402 416.4367 561.2395 416.4368 550.2197 417.1618 539.1108 412.3623 528.769 403.1115 538.2665 394.8009 547.7955 390.9814 557.0341 391.4378 Z"/>
<path d="M 199.048 421.6136 208.2565 424.2679 205.1224 431.3671 203.0217 435.3474 176.895 446.4722 158.5362 456.5428 158.8135 458.8091 149.4637 467.3818 148.4069 474.2694 124.4478 484.8894 108.6158 496.1597 104.9074 501.2882 66.6913 534.2156 51.2085 549.6358 53.85 542.1544 55.9464 519.6643 54.5649 511.0585 62.5239 504.8783 57.9079 499.1487 32.383 482.9458 36.0784 474.7399 53.6454 468.3139 66.4733 458.8913 82.7202 451.273 94.9403 453.7132 111.9 449.7053 120.2533 451.7603 131.0518 445.6221 150.4153 445.3863 169.9181 433.7039 183.4575 431.5008 185.9346 423.8471 199.048 421.6136 Z"/>
<path d="M 631.17 536.5711 635.7357 533.888 642.6271 552.5957 632.4991 554.5925 629.1664 562.2058 625.198 563.3743 624.6331 561.5288 629.8399 549.7672 625.8378 546.3919 631.17 536.5711 Z"/>
<path d="M 492.0045 465.7405 494.4659 464.4152 498.0997 460.3323 512.3648 460.0856 517.4887 459.9467 530.5013 464.0403 530.1142 469.51 544.0258 476.7078 556.5062 478.5242 558.5962 493.2738 540.683 496.881 533.9136 496.8441 524.4253 489.4399 498.9957 476.5795 492.0045 465.7405 Z"/>
<path d="M 468.3037 293.5344 485.4962 300.7764 496.5695 299.7402 498.604 311.4761 484.1109 313.3699 477.186 310.4163 467.7996 312.4861 468.3037 293.5344 Z"/>
<path d="M 535.7018 192.4702 538.8206 196.2174 553.3669 200.699 552.8311 206.1963 544.1085 210.8979 540.548 219.2923 532.5545 218.2243 535.7018 192.4702 Z"/>
<path d="M 626.0393 655.6267 628.9622 657.8446 647.8873 651.6594 665.3978 655.1373 659.9694 668.4274 660.1693 677.0879 644.041 681.3961 640.0217 679.5277 621.3525 681.0842 626.0393 655.6267 Z"/>
<path d="M 582.9709 376.3594 583.0015 381.4544 578.314 386.8805 580.9783 401.2323 579.1048 405.8575 569.63 397.1291 561.1164 396.4889 557.0341 391.4378 561.8131 385.6866 568.4559 386.5815 582.9709 376.3594 Z"/>
<path d="M 331.7175 477.0782 335.6121 481.7713 348.8446 485.9891 347.333 499.5446 339.5707 507.5232 335.9161 499.5362 320.8144 503.4377 318.2692 508.179 310.1565 502.6622 319.7842 482.766 321.4844 472.3883 331.7175 477.0782 Z"/>
<path d="M 615.3736 402.8841 622.934 407.7519 620.6408 419.0763 611.5985 428.5737 609.084 428.0124 612.4267 423.7912 615.3736 402.8841 Z"/>
<path d="M 520.1432 287.2574 532.3203 285.3857 535.3224 274.4746 542.1757 267.3336 543.3929 285.822 550.5079 292.634 545.396 298.5754 534.8883 303.8675 534.8168 310.175 523.6048 307.7747 498.604 311.4761 496.5695 299.7402 505.4914 297.4038 509.7197 300.684 524.2276 291.7674 520.1432 287.2574 Z"/>
<path d="M 600.0514 396.942 609.1048 395.6295 613.3606 400.5008 614.2307 402.4429 605.614 418.3895 606.2167 428.0305 603.0024 433.7423 600.6946 431.6229 595.7005 419.2677 595.168 408.6593 588.8872 405.0253 596.6134 402.7558 600.0514 396.942 Z"/>
<path d="M 681.0764 192.0426 684.0335 189.4899 696.4927 187.9237 700.1899 176.187 707.8688 184.6378 713.8571 182.2159 714.8903 203.21 701.5865 210.5197 699.2226 215.7288 696.1224 215.6982 685.9539 204.4181 681.0764 192.0426 Z"/>
<path d="M 663.3407 460.2075 663.7135 460.754 657.1978 466.7328 648.428 464.205 632.4332 468.8471 630.1408 477.8338 626.3803 465.942 633.419 459.0851 645.1926 456.5777 650.0888 449.4205 657.6851 459.2852 663.3407 460.2075 Z"/>
<path d="M 387.9799 516.2211 406.9267 510.1918 418.923 514.4036 409.5906 537.8758 396.4062 533.7452 387.4207 525.5839 387.9799 516.2211 Z"/>
<path d="M 347.333 499.5446 355.5962 509.3572 351.657 518.3796 331.2507 530.7634 328.641 522.5237 339.5707 507.5232 347.333 499.5446 Z"/>
<path d="M 524.4412 338.5127 531.1509 329.2426 543.1167 322.8401 555.9037 325.0431 564.5653 329.1247 569.0381 330.1329 580.7283 345.7726 569.5489 353.5284 555.5216 366.9102 543.2098 369.2181 535.2149 353.9866 533.4969 344.6805 524.4412 338.5127 Z"/>
<path d="M 614.2307 402.4429 615.3736 402.8841 612.4267 423.7912 609.084 428.0124 606.2167 428.0305 605.614 418.3895 614.2307 402.4429 Z"/>
<path d="M 594.4671 124.731 585.6804 138.7276 579.7893 139.4555 569.3205 151.1027 569.2814 155.3017 554.2609 159.4474 552.8826 145.1406 544.7531 130.0363 546.8793 119.3274 558.4838 117.5427 582.702 108.3915 583.1308 104.8379 591.9847 113.7748 594.4671 124.731 Z"/>
<path d="M 641.3536 370.7712 648.4033 364.801 646.9065 374.1351 641.535 381.979 632.6617 385.2589 630.5076 378.6981 631.5677 373.4169 641.3536 370.7712 Z"/>
<path d="M 676.0845 296.093 688.6274 295.9116 690.5818 305.1976 684.0584 314.0449 674.659 309.5367 676.0845 296.093 Z"/>
<path d="M 636.2163 246.4042 637.2487 243.1755 643.1276 237.6558 649.7096 239.9411 648.7321 256.6972 647.2144 268.779 647.1261 269.9588 638.9944 279.1591 629.5053 269.9811 618.7866 266.0311 630.908 257.8183 636.2163 246.4042 Z"/>
<path d="M 520.1432 287.2574 524.2276 291.7674 509.7197 300.684 505.4914 297.4038 496.5695 299.7402 489.8953 290.9482 492.6758 284.8857 504.8789 278.3095 516.6163 282.8378 520.1432 287.2574 Z"/>
<path d="M 595.2944 250.4178 600.3776 248.5339 607.2711 257.7017 594.5985 265.1182 583.1307 262.1024 583.1635 256.4973 589.4798 257.2881 595.2944 250.4178 Z"/>
<path d="M 696.6284 364.164 687.3333 365.9167 688.0275 363.5279 688.0276 363.5278 696.6284 364.164 Z"/>
<path d="M 415.7607 551.197 417.4529 569.2821 405.0491 575.7145 396.8109 575.2874 402.9526 559.8144 410.4979 551.425 415.7607 551.197 Z"/>
<path d="M 538.8664 547.7436 548.8413 554.7137 562.2902 561.2132 562.2045 562.6214 543.1309 569.4829 533.9321 563.2124 526.562 563.7104 536.6932 553.5214 538.8664 547.7436 Z"/>
<path d="M 420.4651 273.0823 433.6427 266.906 436.3216 267.0935 433.7343 286.0624 428.7458 293.7938 422.5804 290.0085 413.056 275.4308 420.4651 273.0823 Z"/>
<path d="M 559.9321 515.3535 566.1776 518.9788 577.4891 515.6912 585.2485 525.0404 582.9381 531.9404 576.4805 533.2267 572.1538 544.7789 556.2789 538.2109 555.145 532.199 559.9321 515.3535 Z"/>
<path d="M 605.6816 381.1684 606.9688 379.7015 614.8512 389.1467 620.2294 397.9491 613.3606 400.5008 609.1048 395.6295 600.0514 396.942 591.5043 385.8311 596.8594 388.1085 605.6816 381.1684 Z"/>
<path d="M 467.3945 210.1934 479.9709 215.4286 494.9052 215.9729 504.9222 223.7084 511.4028 235.2836 492.3203 238.6471 476.0818 227.2304 466.8463 226.6237 460.1758 220.2749 467.3945 210.1934 Z"/>
<path d="M 645.4539 351.5505 655.8712 355.6237 661.7532 352.1543 657.0882 356.8153 645.5742 355.1441 645.4539 351.5505 Z"/>
<path d="M 616.6503 521.3036 621.9673 526.9515 635.7357 533.888 631.17 536.5711 622.0065 540.1896 614.7219 538.171 616.6503 521.3036 Z"/>
<path d="M 381.1418 491.1129 388.4823 487.704 401.5098 488.3502 403.743 494.1291 406.9267 510.1918 387.9799 516.2211 381.0072 506.5747 386.0669 495.151 381.1418 491.1129 Z"/>
<path d="M 730.9282 142.9494 741.9127 147.7694 745.6021 160.5478 754.9514 165.6247 734.588 166.925 727.0045 160.2781 725.6631 154.5293 711.3015 153.9717 710.0602 153.835 725.3875 148.7185 730.9282 142.9494 Z"/>
<path d="M 554.2609 159.4474 569.2814 155.3017 573.2939 169.3159 578.7993 174.9255 572.7589 181.0934 560.3627 180.7979 550.8507 170.6763 554.2609 159.4474 Z"/>
<path d="M 619.6072 547.6022 625.8378 546.3919 629.8399 549.7672 624.6331 561.5288 615.8887 567.0773 611.567 564.5895 602.1517 555.1828 605.6309 553.3322 617.9804 552.5946 619.6072 547.6022 Z"/>
<path d="M 612.9505 450.2144 622.8269 449.9867 628.0157 449.1229 622.1099 464.4699 618.4627 463.4153 612.9505 450.2144 Z"/>
<path d="M 212.886 374.4315 227.5 374.4716 242.4047 386.035 254.9126 381.4314 255.3287 397.2596 258.9077 403.2263 253.2049 403.4941 240.1142 409.9237 227.6715 414.4337 228.3669 409.183 218.5126 407.0989 219.2876 393.7018 205.5447 385.5965 207.1424 377.3055 212.886 374.4315 Z"/>
<path d="M 579.8247 774.0426 568.7046 756.5626 602.6006 757.8971 606.1542 760.9113 608.5441 782.1113 594.3979 788.1237 579.8247 774.0426 Z"/>
<path d="M 487.2766 488.1079 486.994 477.9489 492.0045 465.7405 498.9957 476.5795 524.4253 489.4399 533.9136 496.8441 540.683 496.881 530.5189 503.1105 513.6726 499.7299 487.2766 488.1079 Z"/>
<path d="M 339.9506 442.0702 350.1171 459.5374 356.7246 466.9783 331.7175 477.0782 321.4844 472.3883 318.5692 470.1215 331.0457 471.6071 334.059 451.8999 334.2287 444.0848 339.9506 442.0702 Z"/>
<path d="M 610.1904 194.6609 628.8268 193.6258 628.6596 209.6495 632.6604 212.0132 624.9806 214.6128 616.0226 209.1766 610.1904 194.6609 Z"/>
<path d="M 562.8931 755.133 568.7046 756.5626 579.8247 774.0426 571.5581 775.2307 552.0323 769.2162 544.8639 768.9619 532.4442 776.0944 524.2595 769.6057 521.5256 762.0986 526.8343 758.3504 562.8931 755.133 Z"/>
<path d="M 494.9052 215.9729 498.1938 204.9779 493.7152 194.4578 501.8653 195.8896 514.6919 208.9138 532.5545 218.2243 535.1126 230.3737 544.3731 233.7662 561.7426 229.7065 567.0127 235.7853 557.9852 243.313 540.1439 247.2375 530.3966 246.1459 514.8598 232.2891 511.4028 235.2836 504.9222 223.7084 494.9052 215.9729 Z"/>
<path d="M 464.3224 543.012 468.3867 535.4949 473.2453 543.9004 479.5221 570.3814 473.4474 577.7925 464.0058 576.9033 458.7903 571.4969 464.8232 552.9221 464.3224 543.012 Z"/>
<path d="M 655.2402 285.8211 662.8307 284.6116 668.3021 291.8793 669.208 302.9996 655.5057 302.8544 658.6567 289.2089 655.2402 285.8211 Z"/>
<path d="M 600.5787 505.8771 602.4031 499.1049 622.5907 500.2337 635.7365 500.8845 632.9645 513.7112 629.3664 512.8603 618.4597 510.2145 600.5787 505.8771 Z"/>
<path d="M 351.657 518.3796 355.5962 509.3572 370.3205 514.3269 371.7957 527.5302 367.9057 535.0942 359.0887 537.6831 352.5981 545.2403 350.6374 539.743 353.1622 527.2598 351.657 518.3796 Z"/>
<path d="M 493.6137 74.9672 507.8253 79.2585 512.323 79.5525 507.5896 90.0014 509.9581 101.3317 508.836 109.9081 503.7886 116.1625 497.0476 119.8308 490.4475 117.514 491.4181 75.6936 493.6137 74.9672 Z"/>
<path d="M 611.567 564.5895 615.8887 567.0773 624.6331 561.5288 625.198 563.3743 625.7192 572.0469 610.7858 585.4112 609.5033 584.1592 611.567 564.5895 Z"/>
<path d="M 637.8104 143.9998 644.9051 149.5034 648.5158 162.6962 646.6196 176.9923 638.4671 186.0317 637.4089 187.6807 605.031 174.3557 594.3735 173.9674 595.7449 165.3695 599.0714 154.9522 597.3102 135.0369 612.0645 138.0582 615.3789 143.6321 628.7499 142.1889 637.8104 143.9998 Z"/>
<path d="M 748.117 243.6905 751.7389 249.0612 764.8967 259.1147 762.9793 265.6235 769.4795 271.3606 763.7779 277.7768 755.2106 272.9168 749.2903 265.4604 740.6055 254.2423 748.117 243.6905 Z"/>
<path d="M 600.3776 248.5339 608.1555 243.9285 618.5147 255.2034 614.4764 263.2992 614.3866 262.6432 607.2711 257.7017 600.3776 248.5339 Z"/>
<path d="M 490.4475 117.514 497.0476 119.8308 503.7886 116.1625 518.5539 117.4997 530.7338 124.8076 538.5796 125.0119 546.8793 119.3274 544.7531 130.0363 552.8826 145.1406 554.2609 159.4474 550.8507 170.6763 534.5761 177.423 526.9512 184.6886 522.6836 186.5242 509.5641 182.2043 508.2136 178.6414 493.3108 179.7472 490.4973 166.4184 468.1693 166.6311 463.5792 157.3859 475.1766 146.6272 470.9113 132.9917 465.48 125.0639 490.4475 117.514 Z"/>
<path d="M 194.8521 477.7043 203.7298 476.5848 210.8337 467.4803 218.4457 472.5663 225.226 481.9375 222.0552 485.8986 223.7816 498.4431 209.6214 495.2287 192.0635 498.2534 187.7401 490.7044 194.8521 477.7043 Z"/>
<path d="M 326.947 266.9629 336.2414 277.2563 326.4029 282.7313 330.5318 295.4749 302.5464 302.2703 290.4621 269.0115 289.7841 262.517 291.4617 255.8163 309.4585 259.735 314.0762 265.6709 326.947 266.9629 Z"/>
<path d="M 605.4574 585.9346 609.5033 584.1592 610.7858 585.4112 619.2654 590.1056 629.3587 601.4057 622.3077 610.8798 615.4282 613.7284 609.8493 612.4764 607.7636 601.2612 610.958 597.4187 605.4574 585.9346 Z"/>
<path d="M 599.1984 800.8333 622.7693 808.0321 638.6197 805.5061 618.3754 820.2294 573.4499 819.2626 568.7903 816.2443 568.4111 807.3556 583.878 807.2974 599.1984 800.8333 Z"/>
<path d="M 689.151 273.9765 700.602 279.3152 697.5093 283.3171 695.8391 296.5137 692.8725 294.8 688.6274 295.9116 676.0845 296.093 672.3008 284.6371 675.3223 280.8902 682.8681 273.9494 689.151 273.9765 Z"/>
<path d="M 723.0624 304.0061 740.4176 314.2634 740.9091 321.3462 732.4774 323.2112 723.9081 324.6993 716.7609 320.5284 719.5785 319.8293 723.0624 304.0061 Z"/>
<path d="M 611.3196 629.335 630.0928 634.1163 640.2802 629.5442 670.1455 626.9188 673.6776 634.0814 665.3978 655.1373 647.8873 651.6594 628.9622 657.8446 626.0393 655.6267 623.4103 653.7881 626.0883 651.0733 618.2805 637.0261 611.3196 629.335 Z"/>
<path d="M 642.5969 356.7819 645.5742 355.1441 657.0882 356.8153 655.9345 363.8358 648.403 364.8007 642.5969 356.7819 Z"/>
<path d="M 590.5749 482.7033 603.3991 489.8602 600.5785 505.8771 589.5657 507.0052 578.7665 505.3026 573.8166 496.9184 579.8311 488.8922 590.5749 482.7033 Z"/>
<path d="M 664.6669 392.5937 660.1642 398.2709 650.2722 396.6189 643.4652 393.9785 647.6748 390.7337 656.3783 391.3998 664.6669 392.5937 Z"/>
<path d="M 624.9806 214.6128 632.6604 212.0132 636.8234 212.8359 639.9338 233.7488 643.1276 237.6558 637.2487 243.1755 617.6528 239.0855 608.1555 243.9285 600.3776 248.5339 595.2944 250.4178 585.1035 241.4237 586.2595 241.0566 603.5863 232.2779 618.2356 222.1351 624.9806 214.6128 Z"/>
<path d="M 528.7604 539.3865 538.8664 547.7436 536.6932 553.5214 526.562 563.7104 513.5456 567.0198 511.628 551.6511 516.3421 545.605 528.7604 539.3865 Z"/>
<path d="M 600.7563 464.4663 602.011 462.7206 615.0747 466.5345 616.4365 468.0543 613.6532 470.3991 604.3756 485.2995 600.7563 464.4663 Z"/>
<path d="M 310.1565 502.6622 318.2692 508.179 328.641 522.5237 331.2507 530.7634 325.4597 540.109 318.476 535.232 299.2194 530.2635 277.625 536.245 268.39 544.5136 277.895 516.8866 298.7294 512.4808 310.1565 502.6622 Z"/>
<path d="M 571.0308 313.8845 562.073 321.8949 549.5726 319.3095 534.8168 310.175 534.8883 303.8675 545.396 298.5754 554.935 308.9856 567.3607 309.9619 571.0308 313.8845 Z"/>
<path d="M 562.5463 604.9158 559.6343 616.8383 553.8706 630.1069 541.5439 631.4015 535.3003 626.4763 541.8564 626.1826 550.8914 605.0697 562.5463 604.9158 Z"/>
<path d="M 394.464 216.5238 393.3131 208.1304 416.4387 187.7538 425.7999 191.5509 430.2323 197.5874 413.4882 223.9821 407.4027 229.6876 394.464 216.5238 Z"/>
<path d="M 571.0308 313.8845 571.8194 305.362 577.7634 298.3921 582.5327 303.08 590.624 294.9092 597.7235 292.4314 605.3348 296.6043 609.4807 305.8778 615.6958 303.7812 625.5633 323.6318 623.5903 329.0167 614.3748 330.1334 603.1697 335.9188 596.9068 336.1077 582.0832 345.3535 580.7283 345.7726 569.0381 330.1329 564.5653 329.1247 562.073 321.8949 571.0308 313.8845 Z"/>
<path d="M 638.6197 805.5061 622.7693 808.0321 599.1984 800.8333 582.8781 793.3433 563.8512 789.264 553.6513 781.0926 552.0323 769.2162 571.5581 775.2307 579.8247 774.0426 594.3979 788.1237 608.5441 782.1113 618.4792 783.1637 622.5551 790.3061 639.297 788.9371 649.0302 793.1157 638.6197 805.5061 Z"/>
<path d="M 740.4699 266.8275 749.2903 265.4604 755.2106 272.9168 746.5736 280.5334 741.8053 273.6448 740.4699 266.8275 Z"/>
<path d="M 671.5467 344.8245 660.2948 349.8916 655.9092 347.4056 653.2596 343.5309 656.3836 339.2797 671.5467 344.8245 Z"/>
<path d="M 334.3051 104.5904 346.6728 104.856 381.3916 129.81 370.2558 130.0996 363.2867 138.5961 365.886 143.3451 365.8861 143.3456 360.7727 160.4192 351.6313 168.0569 347.3682 176.5727 290.0702 147.8869 281.0461 148.096 263.8094 148.8129 247.5973 161.363 235.0265 161.3627 241.868 153.4891 248.5992 133.7703 256.7479 126.5294 252.9478 119.7883 256.7763 112.0286 246.3732 106.7203 240.5113 89.3714 246.4316 80.0695 254.6712 77.0294 267.9469 67.2495 267.9469 82.3488 282.0222 103.4677 334.3051 104.5904 Z"/>
<path d="M 690.7192 169.314 700.1899 176.187 696.4927 187.9237 684.0335 189.4899 680.4441 181.5016 690.7192 169.314 Z"/>
<path d="M 295.1319 360.4353 298.1251 354.3018 292.4799 333.5123 306.8793 327.6055 316.7738 329.388 324.0262 347.5091 323.7947 377.6277 320.1576 381.3142 316.5968 389.6074 321.9457 402.8113 300.1076 385.1782 289.4739 373.4422 295.1319 360.4353 Z"/>
<path d="M 629.3664 512.8603 632.9645 513.7112 649.5171 516.2147 659.3934 510.1114 657.953 518.499 648.3434 519.7666 644.0771 526.7008 630.8649 527.7196 626.23 522.01 629.3664 512.8603 Z"/>
<path d="M 620.6408 419.0763 625.3396 415.5547 633.903 421.0834 634.6888 429.2685 630.6729 436.9055 622.4276 431.4345 611.5985 428.5737 620.6408 419.0763 Z"/>
<path d="M 665.1095 462.8007 667.0977 465.7859 661.8924 492.6901 658.5409 495.2832 637.9841 499.043 622.4445 494.7841 630.943 486.7011 648.5091 481.7956 659.1243 482.5048 665.1095 462.8007 Z"/>
<path d="M 478.4765 412.6545 494.7282 407.1093 506.4015 419.0552 511.2771 424.6414 515.0099 437.5233 511.4826 447.1351 517.4887 459.9467 512.3648 460.0856 499.9183 437.6879 484.3394 435.4194 465.4438 427.9689 473.7372 422.1593 478.4765 412.6545 Z"/>
<path d="M 435.2033 362.2288 449.5861 362.0975 449.6055 362.1507 454.6838 376.8389 459.0785 381.2793 465.8222 397.7151 471.6156 407.1423 462.478 415.1582 449.0191 408.9397 449.0225 420.4522 440.2263 424.1164 435.2195 424.0283 435.7613 407.1134 431.0286 401.8067 433.3974 398.4584 427.0351 386.775 432.1756 378.3889 435.2033 362.2288 Z"/>
<path d="M 623.5903 329.0167 628.5909 338.3749 633.3346 347.9783 622.832 353.8364 610.911 348.2689 605.9028 351.0783 592.3271 348.894 582.0832 345.3535 596.9068 336.1077 603.1697 335.9188 614.3748 330.1334 623.5903 329.0167 Z"/>
<path d="M 642.3448 308.9092 647.8249 323.417 636.1367 315.978 642.3448 308.9092 Z"/>
<path d="M 468.7986 448.313 450.2355 445.1247 445.4356 432.5913 465.4438 427.9689 484.3394 435.4194 499.9183 437.6879 512.3648 460.0856 498.0997 460.3323 494.4659 464.4152 484.6275 454.7597 484.205 440.6027 468.7986 448.313 Z"/>
<path d="M 200.6564 327.143 206.5921 323.5313 231.357 321.2252 225.9649 335.8853 221.6264 341.4107 221.8527 361.0003 232.4913 361.6471 220.6886 367.3064 212.2166 364.7994 200.4569 345.9272 200.6564 327.143 Z"/>
<path d="M 74.8483 336.2198 45.7831 346.2906 41.0707 344.3841 22.0291 325.6903 21.0189 304.8136 41.4608 303.2505 59.1863 288.8341 74.6957 289.2081 83.8129 293.1791 74.8483 336.2198 Z"/>
<path d="M 711.3015 153.9717 725.6631 154.5293 727.0045 160.2781 734.588 166.925 728.5173 168.6029 715.7694 168.5775 711.4081 165.589 717.9989 159.7246 711.3015 153.9717 Z"/>
<path d="M 532.5891 382.193 538.2665 394.8009 528.769 403.1115 519.946 403.0377 511.9344 407.9299 506.4015 419.0552 494.7282 407.1093 509.2235 390.9924 524.3846 387.5092 532.5891 382.193 Z"/>
<path d="M 415.7607 551.197 417.7873 549.3006 430.9011 553.4014 437.2282 562.341 432.2436 568.6011 421.8157 572.4492 417.4529 569.2821 415.7607 551.197 Z"/>
<path d="M 257.2601 288.8588 259.642 294.6473 270.0921 294.6473 274.4447 283.8358 284.2186 277.6873 287.0547 289.7656 284.132 301.9997 288.4704 305.4288 292.4799 333.5123 298.1251 354.3018 295.1319 360.4353 295.1312 360.4351 293.6725 355.1968 275.9447 348.3573 266.4192 344.4645 253.0889 332.7055 246.6457 322.9379 233.8988 321.6494 245.4544 308.5298 257.2601 288.8588 Z"/>
<path d="M 741.8053 273.6448 746.5736 280.5334 755.2106 272.9168 763.7779 277.7768 759.3288 280.6246 770.2575 292.6013 768.1284 297.5696 774.7937 309.1577 767.5013 321.2654 755.7941 319.8904 753.224 312.6853 758.853 298.1338 751.7859 294.8836 745.2818 287.3669 735.2296 283.5034 741.8053 273.6448 Z"/>
<path d="M 284.2186 277.6873 283.764 264.9733 289.7841 262.517 290.4621 269.0115 302.5464 302.2703 315.1884 317.3771 316.7738 329.388 306.8793 327.6055 292.4799 333.5123 288.4704 305.4288 284.132 301.9997 287.0547 289.7656 284.2186 277.6873 Z"/>
<path d="M 599.8441 466.0208 594.9709 473.1176 589.1089 464.5146 579.5196 464.6844 576.4274 468.9049 582.9172 476.2248 579.7335 480.6725 569.4916 480.0402 564.5073 488.6098 565.8298 496.9839 558.5962 493.2738 556.5062 478.5242 544.0258 476.7078 530.1142 469.51 530.5013 464.0403 527.714 450.3602 533.214 446.0045 533.8005 449.3671 557.3453 448.7475 565.9145 445.319 575.2869 442.8246 587.3061 448.8353 596.7274 466.2905 599.8441 466.0208 Z"/>
<path d="M 655.3365 17.4179 665.055 23.7347 662.4699 29.4403 652.5674 42.1021 653.8375 58.1505 664.6488 80.8332 660.5726 90.1656 654.7866 89.5103 646.1614 96.052 642.5936 96.6097 629.7754 94.0111 622.3423 84.8921 625.5833 72.0221 629.9654 65.5689 630.497 54.2929 638.0428 39.5667 637.4129 35.7801 651.787 27.3422 655.3365 17.4179 Z"/>
<path d="M 692.1288 332.9509 691.9 331.9071 701.4393 330.2867 702.0086 336.5973 692.2955 341.8877 692.1288 332.9509 Z"/>
<path d="M 418.923 514.4036 427.5325 515.053 432.4101 517.9735 440.3457 544.4168 430.9011 553.4014 417.7873 549.3006 409.5906 537.8758 418.923 514.4036 Z"/>
<path d="M 538.9665 724.9907 539.5207 724.2539 539.258 727.6778 554.3651 731.3993 560.8178 740.465 567.6196 740.9212 577.9859 751.8105 588.5252 754.7309 607.0111 747.5767 610.6462 749.6005 606.1542 760.9113 602.6006 757.8971 568.7046 756.5626 562.8931 755.133 563.2094 743.6554 550.471 733.3711 543.7232 732.6861 538.1039 727.5579 538.9665 724.9907 Z"/>
<path d="M 369.823 275.8026 389.2115 278.1595 397.8408 277.0549 403.5423 283.388 399.1547 284.5714 403.6328 308.5737 403.7774 323.6187 390.2612 324.6397 394.3246 321.9552 379.6991 304.6573 379.7917 296.109 374.1106 280.6656 369.823 275.8026 Z"/>
<path d="M 707.5156 369.1545 713.1707 358.117 715.0087 359.2389 718.7778 370.9602 714.7391 371.8479 707.5156 369.1545 Z"/>
<path d="M 697.2966 307.7132 692.8725 294.8 695.8391 296.5137 706.4125 296.1684 709.9895 307.2735 705.068 314.5538 696.7387 317.3618 696.7382 317.362 697.2966 307.7132 Z"/>
<path d="M 640.3922 325.6924 647.9967 324.0115 656.3316 336.1146 656.3836 339.2797 653.2596 343.5309 649.9094 343.7515 641.0509 333.9921 640.3922 325.6924 Z"/>
<path d="M 704.5571 256.5557 713.1251 262.2376 709.2626 266.4636 709.9005 276.7363 700.602 279.3152 689.151 273.9765 679.833 245.6011 679.5261 244.6667 702.4928 253.1035 704.5571 256.5557 Z"/>
<path d="M 586.0836 669.0316 595.6804 664.2211 620.2491 655.3092 623.4103 653.7881 626.0393 655.6267 621.3525 681.0842 615.9547 690.0482 608.2086 687.742 600.4188 694.5951 596.752 690.7333 593.465 677.8215 586.0836 669.0316 Z"/>
<path d="M 275.9447 348.3573 293.6725 355.1968 295.1312 360.4351 280.1593 376.2299 279.1895 387.0375 274.2544 398.7673 258.9077 403.2263 255.3287 397.2596 254.9126 381.4314 264.8841 379.8359 267.9026 355.7582 275.9447 348.3573 Z"/>
<path d="M 653.9942 436.026 659.2059 437.0786 663.6539 445.4503 661.93 449.3215 649.3723 443.6073 635.9928 451.0687 628.0157 449.1229 622.8269 449.9867 627.0195 443.1675 630.2024 445.1115 639.5127 443.3145 653.9942 436.026 Z"/>
<path d="M 579.1048 405.8575 580.9783 401.2323 588.8872 405.0253 595.168 408.6593 595.7005 419.2677 584.9158 421.1234 576.4017 414.5043 579.1048 405.8575 Z"/>
<path d="M 678.6722 332.5948 692.1288 332.9509 692.2955 341.8877 691.7427 345.0335 683.2544 341.5832 678.6722 332.5948 Z"/>
<path d="M 320.1576 381.3142 329.4464 382.8414 357.731 375.7726 367.9842 391.4102 368.9624 392.3885 362.5056 403.2127 341.8965 410.5435 346.7918 422.2883 342.0658 428.685 333.2892 418.7601 321.9531 412.7857 321.9457 402.8113 316.5968 389.6074 320.1576 381.3142 Z"/>
<path d="M 577.012 256.472 583.1635 256.4973 583.1307 262.1024 594.5985 265.1182 600.6247 277.0268 599.1467 285.3231 591.193 285.4569 582.2108 276.3752 581.2425 273.4979 577.012 256.472 Z"/>
<path d="M 380.1966 236.5772 380.1965 236.5769 396.3115 234.1649 396.7665 242.6262 402.8993 251.0033 397.1692 261.7673 386.7992 255.5502 387.1825 249.0225 380.1966 236.5772 Z"/>
<path d="M 609.4807 305.8778 614.436 302.7917 635.224 299.7848 635.2242 299.785 642.3448 308.9092 636.1367 315.978 635.5546 316.7894 625.5633 323.6318 615.6958 303.7812 609.4807 305.8778 Z"/>
<path d="M 561.2393 416.4373 561.2395 416.4368 561.2402 416.4367 575.8323 415.4426 573.78 428.2429 590.441 436.0462 599.1019 450.9088 596.7648 454.4329 587.3061 448.8353 575.2869 442.8246 565.9145 445.319 565.8153 445.1542 563.7406 432.8602 568.0788 430.1486 561.2393 416.4373 Z"/>
<path d="M 661.8924 492.6901 659.3934 510.1114 649.5171 516.2147 632.9645 513.7112 635.7365 500.8845 637.9841 499.043 658.5409 495.2832 661.8924 492.6901 Z"/>
<path d="M 619.723 374.5592 620.7448 383.1191 614.8512 389.1467 606.9688 379.7015 619.723 374.5592 Z"/>
<path d="M 339.9506 442.0702 338.6621 435.9742 342.841 441.5437 350.9915 438.944 356.1451 445.8567 370.5388 447.098 369.9626 441.4803 378.7173 439.8575 385.0108 447.4443 371.9873 454.1488 387.8513 461.789 381.8373 465.9648 371.8428 465.4308 368.4117 472.9922 370.9373 490.7919 361.063 504.3309 355.5962 509.3572 347.333 499.5446 348.8446 485.9891 335.6121 481.7713 331.7175 477.0782 356.7246 466.9783 350.1171 459.5374 339.9506 442.0702 Z"/>
<path d="M 456.2966 603.3834 472.5732 606.9366 484.6758 601.4535 493.2276 598.9992 497.5686 586.2874 500.5033 598.3393 510.2553 606.6994 529.9579 619.1714 519.1616 620.787 513.594 618.3095 487.1275 622.3406 475.304 627.3837 458.9575 625.0121 456.2966 603.3834 Z"/>
<path d="M 598.62 525.9868 611.5751 536.3565 610.3679 541.8173 603.9526 540.5415 595.7014 535.9634 598.62 525.9868 Z"/>
<path d="M 549.953 181.1479 560.3627 180.7979 572.7589 181.0934 569.3005 201.6152 556.5865 198.1821 549.953 181.1479 Z"/>
<path d="M 660.2948 349.8916 671.5467 344.8245 678.6143 356.8201 675.1156 363.5103 674.2897 373.2786 666.2947 361.3296 664.1766 353.3874 661.2454 351.5011 660.2948 349.8916 Z"/>
<path d="M 281.0461 148.096 281.6812 189.5345 280.7469 201.6817 248.5909 206.078 236.3415 201.561 232.8387 189.3832 220.5112 178.3441 225.5003 168.5004 235.0265 161.3627 247.5973 161.363 263.8094 148.8129 281.0461 148.096 Z"/>
<path d="M 187.3616 313.0652 197.815 309.481 208.5767 310.8398 217.8905 304.6018 223.584 307.1984 231.3575 321.2255 231.357 321.2252 206.5921 323.5313 200.6564 327.143 181.3771 326.6218 184.371 319.8397 187.3616 313.0652 Z"/>
<path d="M 559.6343 616.8383 562.5463 604.9158 559.9777 595.9699 565.0589 591.7201 580.9443 600.6778 577.7129 604.3174 583.8839 615.5409 582.0024 635.6211 587.8651 645.1041 581.6719 647.1325 573.9058 647.2923 565.8553 639.1831 560.4432 639.2027 553.8706 630.1069 559.6343 616.8383 Z"/>
<path d="M 568.2079 251.5643 581.7016 249.952 585.1035 241.4237 595.2944 250.4178 589.4798 257.2881 583.1635 256.4973 577.012 256.472 567.6115 259.7115 568.2079 251.5643 Z"/>
<path d="M 489.0829 323.3339 484.1109 313.3699 498.604 311.4761 523.6048 307.7747 534.8168 310.175 549.5726 319.3095 562.073 321.8949 564.5653 329.1247 555.9037 325.0431 543.1167 322.8401 531.1509 329.2426 524.4412 338.5127 514.8145 339.4411 498.4004 323.5548 489.0829 323.3339 Z"/>
<path d="M 489.0829 323.3339 498.4004 323.5548 514.8145 339.4411 506.6174 339.6594 489.3026 340.4737 469.7378 344.2873 473.9115 334.0244 482.2151 325.2685 489.0829 323.3339 Z"/>
<path d="M 436.3216 267.0935 439.3524 262.3571 456.0926 274.7028 453.6 280.7919 451.2068 289.1695 433.7343 286.0624 436.3216 267.0935 Z"/>
<path d="M 569.3005 201.6152 572.6568 203.8929 572.1662 212.291 575.8574 227.0405 575.1358 228.0279 555.9993 210.9825 552.8311 206.1963 553.3669 200.699 556.5865 198.1821 569.3005 201.6152 Z"/>
<path d="M 563.8512 789.264 582.8781 793.3433 599.1984 800.8333 583.878 807.2974 568.4111 807.3556 554.91 797.3906 553.4822 797.4435 556.205 789.5259 563.8512 789.264 Z"/>
<path d="M 321.9531 412.7857 333.2892 418.7601 342.0658 428.685 338.6621 435.9742 339.9506 442.0702 334.2287 444.0848 334.059 451.8999 311.8998 450.8288 302.37 460.3584 305.3262 467.9417 303.2868 472.1996 281.9631 471.8843 275.9656 464.6301 276.3029 463.1295 293.4693 440.1031 304.2822 415.2826 317.8372 416.1619 321.9531 412.7857 Z"/>
<path d="M 518.2566 521.2466 528.2228 520.6255 545.4049 532.719 546.5448 538.3127 548.8413 554.7137 538.8664 547.7436 528.7604 539.3865 519.4352 530.9407 518.2566 521.2466 Z"/>
<path d="M 593.4034 538.1276 595.7014 535.9634 603.9526 540.5415 605.6309 553.3322 602.1517 555.1828 601.2423 556.3915 591.8426 550.4064 593.4034 538.1276 Z"/>
<path d="M 187.3616 313.0652 184.371 319.8397 180.7337 325.5023 169.377 329.1568 163.8135 336.0034 156.0443 334.7577 147.4028 325.9767 159.6179 319.6998 177.504 314.0192 187.3616 313.0652 Z"/>
<path d="M 379.4201 334.3336 377.601 327.5331 390.2612 324.6397 403.7774 323.6187 403.6328 308.5737 417.4815 313.8568 423.2975 321.1006 424.5185 332.5661 440.8153 331.5114 428.9817 345.9804 431.4456 359.4644 409.8983 359.8654 398.5898 357.5532 399.7343 344.3218 392.0256 334.8817 379.4201 334.3336 Z"/>
<path d="M 590.441 436.0462 593.9675 432.0713 600.6946 431.6229 603.0024 433.7423 624.0841 438.8885 627.0195 443.1675 622.8269 449.9867 612.9505 450.2144 609.1324 449.5442 599.1019 450.9088 590.441 436.0462 Z"/>
<path d="M 583.0015 381.4544 591.5043 385.8311 600.0514 396.942 596.6134 402.7558 588.8872 405.0253 580.9783 401.2323 578.314 386.8805 583.0015 381.4544 Z"/>
<path d="M 560.3627 180.7979 549.953 181.1479 542.7833 178.4085 532.8359 187.1527 526.9512 184.6886 534.5761 177.423 550.8507 170.6763 560.3627 180.7979 Z"/>
</g>
</svg>