<?xml version="1.0"?>
<svg xmlns="http://www.w3.org/2000/svg" version="1.2" baseProfile="tiny" width="800" height="991" viewBox="0 0 800 991" stroke-linecap="round" stroke-linejoin="round">
<g id="23MUE250GC_SIR">
<path d="M 244.5747 28.3877 261.6275 62.3608 219.623 79.5686 181.0852 52.0533 177.6502 30.5417 197.9043 32.9791 244.5747 28.3877 Z"/>
<path d="M 196.7366 476.9065 245.5748 464.3648 272.6835 473.2291 273.9651 496.256 266.5546 509.7704 253.701 540.7362 233.5239 548.326 221.5723 580.5464 167.1446 597.1022 157.742 574.617 149.865 563.4795 169.2437 515.6238 196.7366 476.9065 Z"/>
<path d="M 101.331 266.9201 62.4488 271.4119 54.5446 259.4672 93.483 247.0685 101.331 266.9201 Z"/>
<path d="M 425.8203 548.1472 420.4189 581.3567 410.0924 585.997 380.9649 569.5766 350.1964 550.8419 345.1495 505.4699 425.8203 548.1472 Z"/>
<path d="M 425.8203 548.1472 462.4143 532.1797 468.1511 527.2962 442.2386 588.4077 420.4189 581.3567 425.8203 548.1472 Z"/>
<path d="M 548.8337 267.9859 558.4182 260.9874 595.6755 264.2084 593.1994 279.8913 558.438 281.8475 548.8337 267.9859 Z"/>
<path d="M 322.418 269.8156 343.7942 251.7617 369.6311 252.0188 372.641 258.2675 377.7487 292.5847 408.5378 273.72 426.836 291.2004 465.5521 296.5135 464.1207 305.0621 468.1416 326.734 448.7824 359.0086 402.2871 378.1197 387.2423 348.5291 361.7659 328.1715 339.0584 344.9011 322.418 269.8156 Z"/>
<path d="M 558.438 281.8475 593.1994 279.8913 584.8463 311.4264 565.691 308.0415 558.438 281.8475 Z"/>
<path d="M 399.0623 75.4116 442.711 104.4377 418.4685 140.5124 412.3632 153.4879 400.6436 153.1305 382.4907 118.4043 374.1337 79.4742 399.0623 75.4116 Z"/>
<path d="M 484.4474 261.5285 485.6313 255.6074 523.5863 253.9444 515.2151 263.8372 502.4974 270.5322 484.4474 261.5285 Z"/>
<path d="M 569.2623 518.7232 589.4216 505.3427 585.3961 554.9439 576.7171 585.1025 534.3929 579.4664 569.2623 518.7232 Z"/>
<path d="M 412.3632 153.4879 432.2075 175.5894 419.9465 184.1219 412.3632 153.4879 Z"/>
<path d="M 545.5382 196.6199 555.1488 176.1808 579.4944 179.3877 591.6017 201.1647 590.1053 200.2494 571.9334 213.7768 564.0782 208.2332 545.5382 196.6199 Z"/>
<path d="M 52.6453 307.7705 80.4562 289.2135 120.5104 303.4496 122.3017 318.8418 103.5559 328.4891 47.0518 327.4868 52.6453 307.7705 Z"/>
<path d="M 28.618 33.8071 52.2406 64.1069 18.6231 74.833 28.618 33.8071 Z"/>
<path d="M 536.2085 290.3244 558.438 281.8475 565.691 308.0415 565.5366 308.4378 534.2752 310.3306 536.2085 290.3244 Z"/>
<path d="M 46.0035 239.2634 113.396 233.5744 118.0986 260.018 101.331 266.9201 93.483 247.0685 54.5446 259.4672 46.0035 239.2634 Z"/>
<path d="M 384.054 691.8793 413.8042 662.3943 418.0097 682.8836 463.1178 678.9229 448.7504 706.9165 445.6356 714.8574 418.9836 731.291 395.4803 719.1009 384.054 691.8793 Z"/>
<path d="M 702.5138 310.7886 715.6416 319.3867 677.6408 339.5537 702.5138 310.7886 Z"/>
<path d="M 407.3786 845.7201 435.9932 854.0002 428.1533 868.8028 406.1099 878.7265 407.3786 845.7201 Z"/>
<path d="M 513.2859 651.9792 552.4241 662.751 568.4637 671.8486 550.6492 732.5175 518.2025 748.2713 498.3484 742.2215 489.9938 739.0238 445.6356 714.8574 448.7504 706.9165 497.0112 692.627 513.2859 651.9792 Z"/>
<path d="M 262.9946 796.138 295.7952 777.8807 345.7981 789.1051 348.6566 813.749 327.5855 828.8873 299.767 834.7148 261.7202 820.997 262.9946 796.138 Z"/>
<path d="M 254.0572 828.7605 261.7202 820.997 299.767 834.7148 298.1278 843.3554 278.7124 853.8179 245.6746 832.9677 254.0572 828.7605 Z"/>
<path d="M 504.1201 767.4059 542.4306 776.6156 520.3089 806.7988 502.4167 796.6703 504.1201 767.4059 Z"/>
<path d="M 395.4803 719.1009 418.9836 731.291 416.4426 738.4875 409.8533 779.2668 373.7295 780.7253 353.2308 783.1459 329.17 752.1629 395.4803 719.1009 Z"/>
<path d="M 162.5162 9.3691 177.6502 30.5417 181.0852 52.0533 167.3696 43.0233 83.3849 45.709 61.828 58.1162 61.9334 20.13 162.5162 9.3691 Z"/>
<path d="M 712.637 479.04 712.227 490.2175 685.0691 490.2196 657.1209 468.868 624.7243 474.2821 623.62 473.0934 628.4444 426.9 658.107 447.7794 712.637 479.04 Z"/>
<path d="M 188.8029 1 205.1091 2.7602 244.5747 28.3877 197.9043 32.9791 188.8029 1 Z"/>
<path d="M 229.5043 885.8155 189.9703 895.1156 177.3157 871.2954 187.9508 839.6662 254.0572 828.7605 245.6746 832.9677 226.4335 852.8774 229.5043 885.8155 Z"/>
<path d="M 549.1009 455.2447 529.3863 471.3245 489.1572 498.3358 491.6202 521.3325 468.1511 527.2962 462.4143 532.1797 467.4856 484.9774 457.4821 462.9197 493.5351 464.2593 511.1025 444.7759 549.1009 455.2447 Z"/>
<path d="M 109.9017 144.7625 168.7341 145.3165 170.1695 167.8989 138.4452 200.6692 123.1065 203.9178 125.1037 193.8657 103.3174 170.5903 109.9017 144.7625 Z"/>
<path d="M 680.1527 365.2091 745.6981 376.5971 683.1895 385.5995 680.1527 365.2091 Z"/>
<path d="M 419.9465 184.1219 432.2075 175.5894 481.8422 179.1503 485.3602 225.0055 473.2335 234.3519 434.2772 244.9499 388.9157 208.8337 390.0086 207.1848 389.4422 193.5092 419.9465 184.1219 Z"/>
<path d="M 576.7747 585.0947 576.7171 585.1025 585.3961 554.9439 621.6166 558.8674 639.1687 613.2972 639.0294 613.3723 589.6722 608.1176 576.7747 585.0947 Z"/>
<path d="M 228.1422 328.5275 256.1047 336.0207 266.402 376.5723 249.4903 394.2737 211.8486 364.959 228.1422 328.5275 Z"/>
<path d="M 639.2662 502.104 593.0376 503.1196 623.62 473.0934 624.7243 474.2821 639.2662 502.104 Z"/>
<path d="M 621.6166 558.8674 654.1679 563.834 661.2217 575.703 639.1687 613.2972 621.6166 558.8674 Z"/>
<path d="M 492.0992 840.4957 520.3439 823.0734 548.7903 867.4478 516.4503 868.3368 492.0992 840.4957 Z"/>
<path d="M 205.3789 785.655 249.5558 788.7327 262.9946 796.138 261.7202 820.997 254.0572 828.7605 187.9508 839.6662 205.3789 785.655 Z"/>
<path d="M 416.4426 738.4875 418.9836 731.291 445.6356 714.8574 489.9938 739.0238 452.7825 768.2693 416.4426 738.4875 Z"/>
<path d="M 565.2975 243.8511 597.3416 251.1302 597.3267 251.2337 595.6755 264.2084 558.4182 260.9874 559.2044 259.9057 565.2975 243.8511 Z"/>
<path d="M 478.5694 648.885 479.6911 648.3053 513.2859 651.9792 497.0112 692.627 448.7504 706.9165 463.1178 678.9229 478.5694 648.885 Z"/>
<path d="M 103.3174 170.5903 125.1037 193.8657 102.6732 192.9159 103.3174 170.5903 Z"/>
<path d="M 348.3217 200.6349 373.1056 185.9695 390.0086 207.1848 388.9157 208.8337 379.1023 235.7219 369.6311 252.0188 343.7942 251.7617 335.3594 206.9869 348.3217 200.6349 Z"/>
<path d="M 478.4247 366.9369 498.9035 369.0726 513.146 381.1247 498.3184 418.9658 543.1568 419.7514 547.5055 444.9206 549.1009 455.2447 511.1025 444.7759 493.5351 464.2593 457.4821 462.9197 430.0365 424.3725 478.4247 366.9369 Z"/>
<path d="M 102.6732 192.9159 125.1037 193.8657 123.1065 203.9178 106.7076 209.9841 36.9756 229.4816 33.6922 215.4204 87.8653 204.4231 102.6732 192.9159 Z"/>
<path d="M 545.5382 196.6199 564.0782 208.2332 564.0556 208.338 544.2636 230.8081 535.1549 207.7856 545.5382 196.6199 Z"/>
<path d="M 437.6649 797.7339 441.3745 810.3576 407.8875 805.8758 437.6649 797.7339 Z"/>
<path d="M 745.6981 376.5971 740.9768 417.4786 733.7724 442.1723 705.5815 428.7347 690.2482 396.6837 683.1895 385.5995 745.6981 376.5971 Z"/>
<path d="M 135.0273 275.3077 144.2127 277.3484 184.1781 293.3771 162.5809 345.242 122.3017 318.8418 120.5104 303.4496 135.0273 275.3077 Z"/>
<path d="M 380.9649 569.5766 410.0924 585.997 402.8549 624.3865 363.4783 620.4396 380.9649 569.5766 Z"/>
<path d="M 595.6755 264.2084 597.3267 251.2337 620.7347 241.3667 626.6157 237.1424 641.1665 255.8962 621.2938 306.7949 599.6714 333.9992 584.8463 311.4264 593.1994 279.8913 595.6755 264.2084 Z"/>
<path d="M 481.8422 179.1503 512.1758 147.1637 555.1488 176.1808 545.5382 196.6199 535.1549 207.7856 524.567 223.0341 485.3602 225.0055 481.8422 179.1503 Z"/>
<path d="M 413.8042 662.3943 446.2876 658.2819 463.9831 633.169 478.5694 648.885 463.1178 678.9229 418.0097 682.8836 413.8042 662.3943 Z"/>
<path d="M 185.3327 252.7094 193.3716 253.727 189.7683 276.537 158.5394 276.4849 185.3327 252.7094 Z"/>
<path d="M 428.1533 868.8028 435.9932 854.0002 447.6852 850.3036 469.2999 853.9573 456.2001 875.222 458.8634 906.8172 445.5911 913.5841 435.9324 922.9397 424.394 919.9548 428.1533 868.8028 Z"/>
<path d="M 535.1549 207.7856 544.2636 230.8081 539.429 239.3551 523.5863 253.9444 485.6313 255.6074 473.2335 234.3519 485.3602 225.0055 524.567 223.0341 535.1549 207.7856 Z"/>
<path d="M 462.0814 119.5321 487.5608 130.8545 476.8985 149.4787 441.6678 140.4565 462.0814 119.5321 Z"/>
<path d="M 168.7341 145.3165 171.818 142.1826 175.9608 140.8196 179.9309 163.1567 170.1695 167.8989 168.7341 145.3165 Z"/>
<path d="M 468.1511 527.2962 491.6202 521.3325 491.9366 548.7604 512.6155 586.4376 484.4542 622.5361 479.6911 648.3053 478.5694 648.885 463.9831 633.169 440.6029 620.5881 442.2386 588.4077 468.1511 527.2962 Z"/>
<path d="M 350.7057 440.4065 375.6692 442.1303 402.5389 418.4073 406.9079 391.514 430.0365 424.3725 457.4821 462.9197 467.4856 484.9774 462.4143 532.1797 425.8203 548.1472 345.1495 505.4699 343.1752 503.0858 369.4556 455.2704 350.7057 440.4065 Z"/>
<path d="M 264.166 156.1758 274.9778 179.3078 309.3303 258.0106 286.8374 261.2257 241.0028 227.4497 254.3706 198.4024 231.0905 176.8372 205.2688 208.6315 196.403 197.8062 146.5858 205.5608 138.4452 200.6692 170.1695 167.8989 179.9309 163.1567 206.6589 160.6548 224.9645 151.7959 251.6176 173.7566 264.166 156.1758 Z"/>
<path d="M 196.403 197.8062 207.2284 242.0524 193.3716 253.727 185.3327 252.7094 149.545 237.4831 147.4716 223.8028 146.5858 205.5608 196.403 197.8062 Z"/>
<path d="M 196.403 197.8062 205.2688 208.6315 218.1352 222.8069 207.2284 242.0524 196.403 197.8062 Z"/>
<path d="M 298.1278 843.3554 299.767 834.7148 327.5855 828.8873 327.6434 828.9011 356.7118 865.4556 356.6922 908.3629 328.8114 888.385 299.6265 890.9366 298.1278 843.3554 Z"/>
<path d="M 539.429 239.3551 557.6785 246.0493 559.2044 259.9057 558.4182 260.9874 548.8337 267.9859 527.2215 269.06 515.2151 263.8372 523.5863 253.9444 539.429 239.3551 Z"/>
<path d="M 134.6032 229.2844 147.4716 223.8028 149.545 237.4831 144.1639 247.032 134.6032 229.2844 Z"/>
<path d="M 329.3697 748.0381 329.17 752.1629 353.2308 783.1459 345.7981 789.1051 295.7952 777.8807 310.897 765.3901 329.3697 748.0381 Z"/>
<path d="M 477.5706 310.4496 482.04 306.1545 506.9684 334.5814 507.8971 336.9196 513.0404 350.0003 474.599 330.7935 477.5706 310.4496 Z"/>
<path d="M 165.5479 66.3275 174.2701 86.4938 142.2216 87.1299 165.5479 66.3275 Z"/>
<path d="M 589.4216 505.3427 593.0376 503.1196 639.2662 502.104 693.7168 517.4895 654.1679 563.834 621.6166 558.8674 585.3961 554.9439 589.4216 505.3427 Z"/>
<path d="M 204.5459 344.4043 211.8486 364.959 249.4903 394.2737 245.6226 464.3091 245.5748 464.3648 196.7366 476.9065 204.8419 454.5706 166.8362 435.6323 153.3395 417.1519 171.6478 415.2786 204.5459 344.4043 Z"/>
<path d="M 416.4426 738.4875 452.7825 768.2693 437.6649 797.7339 407.8875 805.8758 396.7177 809.2541 373.7295 780.7253 409.8533 779.2668 416.4426 738.4875 Z"/>
<path d="M 137.2344 263.2047 144.1639 247.032 149.545 237.4831 185.3327 252.7094 158.5394 276.4849 144.2127 277.3484 135.0273 275.3077 137.2344 263.2047 Z"/>
<path d="M 406.9079 391.514 402.171 378.1201 402.2871 378.1197 448.7824 359.0086 478.4247 366.9369 430.0365 424.3725 406.9079 391.514 Z"/>
<path d="M 519.7589 358.1179 520.5739 357.849 557.9457 367.3808 566.6648 369.1954 543.3983 419.6648 543.1568 419.7514 498.3184 418.9658 513.146 381.1247 498.9035 369.0726 519.7589 358.1179 Z"/>
<path d="M 266.5546 509.7704 273.9651 496.256 298.1587 509.8787 343.1752 503.0858 345.1495 505.4699 350.1964 550.8419 275.848 554.7163 273.7811 571.3723 266.5546 509.7704 Z"/>
<path d="M 456.2001 875.222 469.2999 853.9573 492.0992 840.4957 516.4503 868.3368 497.2973 914.0835 480.2171 907.9206 456.2001 875.222 Z"/>
<path d="M 503.727 280.8892 502.4974 270.5322 515.2151 263.8372 527.2215 269.06 536.2085 290.3244 534.2752 310.3306 520.3531 295.6929 503.727 280.8892 Z"/>
<path d="M 99.5838 582.1358 157.742 574.617 167.1446 597.1022 144.0473 604.4079 137.6414 636.0469 109.8091 648.7678 99.5838 582.1358 Z"/>
<path d="M 384.8096 165.585 400.6436 153.1305 412.3632 153.4879 419.9465 184.1219 389.4422 193.5092 373.2948 170.8478 384.8096 165.585 Z"/>
<path d="M 34.8411 348.2576 106.8655 375.7552 105.5792 390.2162 71.7206 436.6389 58.1138 436.599 32.9267 406.3526 46.3529 367.8042 34.8411 348.2576 Z"/>
<path d="M 413.8042 662.3943 384.054 691.8793 334.9482 696.95 318.6207 668.8449 299.3183 650.5237 299.664 647.4095 314.574 630.6399 363.4783 620.4396 402.8549 624.3865 440.6029 620.5881 463.9831 633.169 446.2876 658.2819 413.8042 662.3943 Z"/>
<path d="M 22.4398 136.1168 52.623 110.8137 103.6932 142.0532 58.0222 179.1178 34.9432 179.3921 14.8442 173.1139 22.4398 136.1168 Z"/>
<path d="M 348.6566 813.749 340.6712 827.7597 327.6434 828.9011 327.5855 828.8873 348.6566 813.749 Z"/>
<path d="M 550.6492 732.5175 538.3801 766.7904 504.812 758.9193 498.3484 742.2215 518.2025 748.2713 550.6492 732.5175 Z"/>
<path d="M 513.0404 350.0003 507.8971 336.9196 520.5739 357.849 519.7589 358.1179 513.0404 350.0003 Z M 495.3841 290.351 503.727 280.8892 520.3531 295.6929 506.9684 334.5814 482.04 306.1545 487.2485 299.3245 495.3841 290.351 Z"/>
<path d="M 331.1694 372.4427 331.1952 372.4517 355.7828 425.0142 350.7057 440.4065 369.4556 455.2704 343.1752 503.0858 298.1587 509.8787 273.9651 496.256 272.6835 473.2291 245.5748 464.3648 245.6226 464.3091 277.64 448.6007 298.5899 411.349 292.075 387.6863 331.1694 372.4427 Z"/>
<path d="M 103.6932 142.0532 110.8648 121.8446 111.4288 121.9075 109.9017 144.7625 103.3174 170.5903 102.6732 192.9159 87.8653 204.4231 33.6922 215.4204 34.9432 179.3921 58.0222 179.1178 103.6932 142.0532 Z"/>
<path d="M 590.1053 200.2494 591.6017 201.1647 626.6157 237.1424 620.7347 241.3667 597.3416 251.1302 565.2975 243.8511 570.5677 223.4009 590.1053 200.2494 Z"/>
<path d="M 241.0028 227.4497 218.1352 222.8069 205.2688 208.6315 231.0905 176.8372 254.3706 198.4024 241.0028 227.4497 Z"/>
<path d="M 634.4006 357.9365 673.3054 350.0558 680.1527 365.2091 683.1895 385.5995 690.2482 396.6837 662.8646 400.733 634.4006 357.9365 Z"/>
<path d="M 109.8091 648.7678 137.6414 636.0469 186.8376 631.2115 173.3952 659.7454 198.5474 689.5124 213.6844 706.8479 157.5919 747.0057 133.6042 745.8604 123.759 687.9993 109.8091 648.7678 Z"/>
<path d="M 336.4043 160.8918 357.6206 162.2391 373.2948 170.8478 389.4422 193.5092 390.0086 207.1848 373.1056 185.9695 348.3217 200.6349 336.4043 160.8918 Z"/>
<path d="M 628.0857 351.4042 634.4006 357.9365 662.8646 400.733 690.2482 396.6837 705.5815 428.7347 658.107 447.7794 628.4444 426.9 619.1676 409.2756 580.3318 394.7797 628.0857 351.4042 Z"/>
<path d="M 375.2844 152.3789 384.8096 165.585 373.2948 170.8478 357.6206 162.2391 375.2844 152.3789 Z"/>
<path d="M 162.5162 9.3691 188.8029 1 197.9043 32.9791 177.6502 30.5417 162.5162 9.3691 Z"/>
<path d="M 299.3183 650.5237 318.6207 668.8449 306.585 698.4406 261.3689 700.4044 299.3183 650.5237 Z"/>
<path d="M 445.5911 913.5841 458.8634 906.8172 480.2171 907.9206 497.2973 914.0835 529.6076 947.2489 494.8778 971.493 468.7841 948.6096 445.5911 913.5841 Z"/>
<path d="M 565.5366 308.4378 565.691 308.0415 584.8463 311.4264 599.6714 333.9992 566.6648 369.1954 557.9457 367.3808 542.7275 344.784 565.5366 308.4378 Z"/>
<path d="M 106.7076 209.9841 116.6706 227.3654 113.396 233.5744 46.0035 239.2634 36.9756 229.4816 106.7076 209.9841 Z"/>
<path d="M 435.9324 922.9397 445.5911 913.5841 468.7841 948.6096 459.8382 947.1909 435.9324 922.9397 Z"/>
<path d="M 58.1138 436.599 71.7206 436.6389 153.3395 417.1519 166.8362 435.6323 204.8419 454.5706 196.7366 476.9065 169.2437 515.6238 122.3152 529.438 97.8815 524.8678 95.8184 465.5944 58.1138 436.599 Z"/>
<path d="M 434.2772 244.9499 408.5378 273.72 377.7487 292.5847 372.641 258.2675 410.5137 253.303 434.2772 244.9499 Z"/>
<path d="M 410.0924 585.997 420.4189 581.3567 442.2386 588.4077 440.6029 620.5881 402.8549 624.3865 410.0924 585.997 Z"/>
<path d="M 224.9645 151.7959 206.6589 160.6548 175.9608 140.8196 171.818 142.1826 172.725 127.481 211.2404 109.9365 224.9645 151.7959 Z"/>
<path d="M 181.0852 52.0533 177.9716 60.803 165.5479 66.3275 142.2216 87.1299 114.7283 80.9222 110.8648 121.8446 103.6932 142.0532 52.623 110.8137 22.4398 136.1168 1 106.3988 18.6231 74.833 52.2406 64.1069 61.828 58.1162 83.3849 45.709 167.3696 43.0233 181.0852 52.0533 Z"/>
<path d="M 527.2215 269.06 548.8337 267.9859 558.438 281.8475 536.2085 290.3244 527.2215 269.06 Z"/>
<path d="M 245.6746 832.9677 278.7124 853.8179 298.1278 843.3554 299.6265 890.9366 253.0022 899.1941 229.5043 885.8155 226.4335 852.8774 245.6746 832.9677 Z"/>
<path d="M 273.7811 571.3723 275.848 554.7163 350.1964 550.8419 380.9649 569.5766 363.4783 620.4396 314.574 630.6399 299.664 647.4095 286.4935 647.6418 310.9319 621.2433 285.9693 602.9097 273.7811 571.3723 Z"/>
<path d="M 590.1053 200.2494 570.5677 223.4009 571.9334 213.7768 590.1053 200.2494 Z"/>
<path d="M 288.8724 12.9659 334.2304 39.2564 304.1564 63.5472 295.9335 93.3428 278.6378 78.5251 288.8724 12.9659 Z"/>
<path d="M 504.1201 767.4059 504.812 758.9193 538.3801 766.7904 542.4306 776.6156 504.1201 767.4059 Z"/>
<path d="M 175.9608 140.8196 206.6589 160.6548 179.9309 163.1567 175.9608 140.8196 Z"/>
<path d="M 589.6722 608.1176 639.0294 613.3723 610.2907 645.1677 590.9978 639.3293 589.6722 608.1176 Z"/>
<path d="M 402.2871 378.1197 402.171 378.1201 361.5193 382.6468 331.1952 372.4517 331.1694 372.4427 339.0584 344.9011 361.7659 328.1715 387.2423 348.5291 402.2871 378.1197 Z"/>
<path d="M 211.2404 109.9365 211.1105 102.3228 249.442 99.1208 280.2549 111.4717 272.6765 125.5161 264.166 156.1758 251.6176 173.7566 224.9645 151.7959 211.2404 109.9365 Z"/>
<path d="M 468.9748 280.4647 487.2485 299.3245 482.04 306.1545 477.5706 310.4496 464.1207 305.0621 465.5521 296.5135 468.9748 280.4647 Z"/>
<path d="M 620.7347 241.3667 597.3267 251.2337 597.3416 251.1302 620.7347 241.3667 Z"/>
<path d="M 184.1781 293.3771 190.0924 286.4873 228.1422 328.5275 211.8486 364.959 204.5459 344.4043 162.6697 345.1879 162.5809 345.242 184.1781 293.3771 Z"/>
<path d="M 468.1416 326.734 474.599 330.7935 513.0404 350.0003 519.7589 358.1179 498.9035 369.0726 478.4247 366.9369 448.7824 359.0086 468.1416 326.734 Z"/>
<path d="M 177.9716 60.803 181.0852 52.0533 219.623 79.5686 261.6275 62.3608 277.2415 82.5233 254.4007 78.3488 211.0678 96.2189 177.9716 60.803 Z"/>
<path d="M 360.3811 832.8965 385.2125 825.8761 407.3786 845.7201 406.1099 878.7265 387.9591 892.8611 387.7426 936.6855 356.6922 908.3629 356.7118 865.4556 360.3811 832.8965 Z"/>
<path d="M 483.6513 271.5772 484.4474 261.5285 502.4974 270.5322 503.727 280.8892 495.3841 290.351 483.6513 271.5772 Z"/>
<path d="M 796.5813 404.0703 767.5323 391.0841 760.5805 362.2132 799 371.1768 796.5813 404.0703 Z"/>
<path d="M 576.7747 585.0947 589.6722 608.1176 590.9978 639.3293 568.4637 671.8486 552.4241 662.751 570.0605 631.2111 576.7747 585.0947 Z"/>
<path d="M 564.0556 208.338 557.6785 246.0493 539.429 239.3551 544.2636 230.8081 564.0556 208.338 Z"/>
<path d="M 369.6311 252.0188 379.1023 235.7219 410.5137 253.303 372.641 258.2675 369.6311 252.0188 Z"/>
<path d="M 286.4935 647.6418 299.664 647.4095 299.3183 650.5237 261.3689 700.4044 213.6844 706.8479 198.5474 689.5124 233.7001 653.9579 286.4935 647.6418 Z"/>
<path d="M 658.107 447.7794 705.5815 428.7347 733.7724 442.1723 712.637 479.04 658.107 447.7794 Z"/>
<path d="M 624.7243 474.2821 657.1209 468.868 685.0691 490.2196 712.227 490.2175 693.7168 517.4895 639.2662 502.104 624.7243 474.2821 Z"/>
<path d="M 277.2415 82.5233 290.7385 101.5803 280.2549 111.4717 249.442 99.1208 211.1105 102.3228 211.0678 96.2189 254.4007 78.3488 277.2415 82.5233 Z"/>
<path d="M 113.396 233.5744 116.6706 227.3654 134.6032 229.2844 144.1639 247.032 137.2344 263.2047 118.0986 260.018 113.396 233.5744 Z"/>
<path d="M 641.1665 255.8962 702.5138 310.7886 677.6408 339.5537 673.3054 350.0558 634.4006 357.9365 628.0857 351.4042 599.6714 333.9992 621.2938 306.7949 641.1665 255.8962 Z"/>
<path d="M 264.166 156.1758 272.6765 125.5161 320.3366 130.7528 334.3507 168.0808 311.2504 157.9671 274.9778 179.3078 264.166 156.1758 Z"/>
<path d="M 266.5546 509.7704 273.7811 571.3723 285.9693 602.9097 310.9319 621.2433 286.4935 647.6418 233.7001 653.9579 198.5474 689.5124 173.3952 659.7454 186.8376 631.2115 137.6414 636.0469 144.0473 604.4079 167.1446 597.1022 221.5723 580.5464 233.5239 548.326 253.701 540.7362 266.5546 509.7704 Z"/>
<path d="M 345.7981 789.1051 353.2308 783.1459 373.7295 780.7253 396.7177 809.2541 385.2125 825.8761 360.3811 832.8965 340.6712 827.7597 348.6566 813.749 345.7981 789.1051 Z"/>
<path d="M 406.1099 878.7265 428.1533 868.8028 424.394 919.9548 401.737 945.76 387.7426 936.6855 387.9591 892.8611 406.1099 878.7265 Z"/>
<path d="M 320.3366 130.7528 343.3055 71.5043 366.2172 55.1055 399.0623 75.4116 374.1337 79.4742 382.4907 118.4043 375.2844 152.3789 357.6206 162.2391 336.4043 160.8918 334.3507 168.0808 320.3366 130.7528 Z"/>
<path d="M 277.0414 762.8316 310.897 765.3901 295.7952 777.8807 262.9946 796.138 249.5558 788.7327 277.0414 762.8316 Z"/>
<path d="M 456.2001 875.222 480.2171 907.9206 458.8634 906.8172 456.2001 875.222 Z"/>
<path d="M 106.8655 375.7552 148.2913 370.5233 153.5926 391.3727 128.0287 401.2561 105.5792 390.2162 106.8655 375.7552 Z"/>
<path d="M 334.9482 696.95 384.054 691.8793 395.4803 719.1009 329.17 752.1629 329.3697 748.0381 321.9469 708.7467 334.9482 696.95 Z"/>
<path d="M 334.2304 39.2564 366.2172 55.1055 343.3055 71.5043 320.3366 130.7528 272.6765 125.5161 280.2549 111.4717 290.7385 101.5803 295.9335 93.3428 304.1564 63.5472 334.2304 39.2564 Z"/>
<path d="M 266.402 376.5723 292.075 387.6863 298.5899 411.349 277.64 448.6007 245.6226 464.3091 249.4903 394.2737 266.402 376.5723 Z"/>
<path d="M 445.4917 965.1693 451.1982 958.5286 480.9084 990.1635 445.4917 965.1693 Z"/>
<path d="M 599.6714 333.9992 628.0857 351.4042 580.3318 394.7797 619.1676 409.2756 628.4444 426.9 623.62 473.0934 593.0376 503.1196 589.4216 505.3427 569.2623 518.7232 530.1156 485.7393 529.3863 471.3245 549.1009 455.2447 547.5055 444.9206 543.3983 419.6648 566.6648 369.1954 599.6714 333.9992 Z"/>
<path d="M 564.0556 208.338 564.0782 208.2332 571.9334 213.7768 570.5677 223.4009 565.2975 243.8511 559.2044 259.9057 557.6785 246.0493 564.0556 208.338 Z"/>
<path d="M 442.711 104.4377 462.0814 119.5321 441.6678 140.4565 418.4685 140.5124 442.711 104.4377 Z"/>
<path d="M 424.394 919.9548 435.9324 922.9397 459.8382 947.1909 451.1982 958.5286 445.4917 965.1693 401.737 945.76 424.394 919.9548 Z"/>
<path d="M 382.4907 118.4043 400.6436 153.1305 384.8096 165.585 375.2844 152.3789 382.4907 118.4043 Z"/>
<path d="M 441.3745 810.3576 452.9466 817.0311 447.6852 850.3036 435.9932 854.0002 407.3786 845.7201 385.2125 825.8761 396.7177 809.2541 407.8875 805.8758 441.3745 810.3576 Z"/>
<path d="M 334.3507 168.0808 336.4043 160.8918 348.3217 200.6349 335.3594 206.9869 343.7942 251.7617 322.418 269.8156 309.3303 258.0106 274.9778 179.3078 311.2504 157.9671 334.3507 168.0808 Z"/>
<path d="M 529.3863 471.3245 530.1156 485.7393 569.2623 518.7232 534.3929 579.4664 512.6155 586.4376 491.9366 548.7604 491.6202 521.3325 489.1572 498.3358 529.3863 471.3245 Z"/>
<path d="M 174.2701 86.4938 165.5479 66.3275 177.9716 60.803 211.0678 96.2189 211.1105 102.3228 211.2404 109.9365 172.725 127.481 167.8652 119.3897 174.2701 86.4938 Z"/>
<path d="M 512.6155 586.4376 534.3929 579.4664 576.7171 585.1025 576.7747 585.0947 570.0605 631.2111 552.4241 662.751 513.2859 651.9792 479.6911 648.3053 484.4542 622.5361 512.6155 586.4376 Z"/>
<path d="M 105.5792 390.2162 128.0287 401.2561 153.5926 391.3727 171.6478 415.2786 153.3395 417.1519 71.7206 436.6389 105.5792 390.2162 Z"/>
<path d="M 261.3689 700.4044 306.585 698.4406 318.6207 668.8449 334.9482 696.95 321.9469 708.7467 329.3697 748.0381 310.897 765.3901 277.0414 762.8316 261.3689 700.4044 Z"/>
<path d="M 205.1091 2.7602 288.8724 12.9659 278.6378 78.5251 295.9335 93.3428 290.7385 101.5803 277.2415 82.5233 261.6275 62.3608 244.5747 28.3877 205.1091 2.7602 Z"/>
<path d="M 144.2127 277.3484 158.5394 276.4849 189.7683 276.537 190.0924 286.4873 184.1781 293.3771 144.2127 277.3484 Z"/>
<path d="M 190.0924 286.4873 189.7683 276.537 193.3716 253.727 207.2284 242.0524 218.1352 222.8069 241.0028 227.4497 286.8374 261.2257 309.3303 258.0106 322.418 269.8156 339.0584 344.9011 331.1694 372.4427 292.075 387.6863 266.402 376.5723 256.1047 336.0207 228.1422 328.5275 190.0924 286.4873 Z"/>
<path d="M 520.3531 295.6929 534.2752 310.3306 565.5366 308.4378 542.7275 344.784 557.9457 367.3808 520.5739 357.849 507.8971 336.9196 506.9684 334.5814 520.3531 295.6929 Z"/>
<path d="M 451.1982 958.5286 459.8382 947.1909 468.7841 948.6096 494.8778 971.493 480.9084 990.1635 451.1982 958.5286 Z"/>
<path d="M 408.5378 273.72 434.2772 244.9499 473.2335 234.3519 485.6313 255.6074 484.4474 261.5285 483.6513 271.5772 468.9748 280.4647 465.5521 296.5135 426.836 291.2004 408.5378 273.72 Z"/>
<path d="M 331.1952 372.4517 361.5193 382.6468 402.171 378.1201 406.9079 391.514 402.5389 418.4073 375.6692 442.1303 350.7057 440.4065 355.7828 425.0142 331.1952 372.4517 Z"/>
<path d="M 97.8815 524.8678 122.3152 529.438 169.2437 515.6238 149.865 563.4795 157.742 574.617 99.5838 582.1358 97.8815 524.8678 Z"/>
<path d="M 167.8652 119.3897 172.725 127.481 171.818 142.1826 168.7341 145.3165 109.9017 144.7625 111.4288 121.9075 167.8652 119.3897 Z"/>
<path d="M 715.6416 319.3867 760.5805 362.2132 767.5323 391.0841 796.5813 404.0703 740.9768 417.4786 745.6981 376.5971 680.1527 365.2091 673.3054 350.0558 677.6408 339.5537 715.6416 319.3867 Z"/>
<path d="M 464.1207 305.0621 477.5706 310.4496 474.599 330.7935 468.1416 326.734 464.1207 305.0621 Z"/>
<path d="M 516.4503 868.3368 548.7903 867.4478 565.4959 881.2524 529.6076 947.2489 497.2973 914.0835 516.4503 868.3368 Z"/>
<path d="M 340.6712 827.7597 360.3811 832.8965 356.7118 865.4556 327.6434 828.9011 340.6712 827.7597 Z"/>
<path d="M 118.0986 260.018 137.2344 263.2047 135.0273 275.3077 120.5104 303.4496 80.4562 289.2135 52.6453 307.7705 62.4488 271.4119 101.331 266.9201 118.0986 260.018 Z"/>
<path d="M 28.618 33.8071 61.9334 20.13 61.828 58.1162 52.2406 64.1069 28.618 33.8071 Z"/>
<path d="M 543.1568 419.7514 543.3983 419.6648 547.5055 444.9206 543.1568 419.7514 Z"/>
<path d="M 122.3017 318.8418 162.5809 345.242 162.6697 345.1879 148.2913 370.5233 106.8655 375.7552 34.8411 348.2576 47.0518 327.4868 103.5559 328.4891 122.3017 318.8418 Z"/>
<path d="M 162.6697 345.1879 204.5459 344.4043 171.6478 415.2786 153.5926 391.3727 148.2913 370.5233 162.6697 345.1879 Z"/>
<path d="M 388.9157 208.8337 434.2772 244.9499 410.5137 253.303 379.1023 235.7219 388.9157 208.8337 Z"/>
<path d="M 142.2216 87.1299 174.2701 86.4938 167.8652 119.3897 111.4288 121.9075 110.8648 121.8446 114.7283 80.9222 142.2216 87.1299 Z"/>
<path d="M 502.4167 796.6703 520.3089 806.7988 520.3439 823.0734 492.0992 840.4957 469.2999 853.9573 447.6852 850.3036 452.9466 817.0311 471.3221 800.2806 502.4167 796.6703 Z"/>
<path d="M 468.9748 280.4647 483.6513 271.5772 495.3841 290.351 487.2485 299.3245 468.9748 280.4647 Z"/>
<path d="M 133.6042 745.8604 157.5919 747.0057 213.6844 706.8479 261.3689 700.4044 277.0414 762.8316 249.5558 788.7327 205.3789 785.655 138.743 760.735 133.6042 745.8604 Z"/>
<path d="M 106.7076 209.9841 123.1065 203.9178 138.4452 200.6692 146.5858 205.5608 147.4716 223.8028 134.6032 229.2844 116.6706 227.3654 106.7076 209.9841 Z"/>
<path d="M 418.4685 140.5124 441.6678 140.4565 476.8985 149.4787 487.5608 130.8545 512.1758 147.1637 481.8422 179.1503 432.2075 175.5894 412.3632 153.4879 418.4685 140.5124 Z"/>
<path d="M 452.7825 768.2693 489.9938 739.0238 498.3484 742.2215 504.812 758.9193 504.1201 767.4059 502.4167 796.6703 471.3221 800.2806 452.9466 817.0311 441.3745 810.3576 437.6649 797.7339 452.7825 768.2693 Z"/>
</g>
</svg>