<?xml version="1.0"?>
<svg xmlns="http://www.w3.org/2000/svg" version="1.2" baseProfile="tiny" width="800" height="209" viewBox="0 0 800 209" stroke-linecap="round" stroke-linejoin="round">
<g id="32MUE250GC_SIR">
<path d="M 74.0983 8.2602 77.3457 13.9773 80.3119 16.113 81.2283 19.9533 76.7489 25.1208 78.9442 30.0965 78.1801 34.0675 80.9078 37.7813 74.7103 38.9691 70.3108 36.2252 63.8297 38.2413 62.3342 34.6473 57.9028 34.4097 50.8761 30.978 44.5095 32.3516 43.6073 26.3939 47.4393 23.1621 46.9858 20.5185 50.1727 17.6107 58.9262 14.5252 62.8662 16.6719 67.3814 17.0479 67.2705 14.0792 60.2942 7.518 65.1315 4.5361 68.5306 8.0692 74.0983 8.2602 Z"/>
<path d="M 72.9662 164.3973 72.1692 162.4971 74.4602 158.4479 76.2949 158.9201 81.7326 159.2241 85.014 161.2077 91.5802 163.0683 88.2853 169.3103 86.2425 168.4841 82.0063 175.4208 79.6913 177.1611 72.9662 164.3973 Z"/>
<path d="M 38.3363 183.507 44.952 185.9717 47.6587 188.7131 46.1542 192.3061 43.5252 195.3317 41.4359 195.3362 39.3245 191.9573 38.0174 188.1307 38.3363 183.507 Z"/>
<path d="M 67.425 178.5175 71.6966 181.4214 68.1551 183.3281 63.9114 184.8732 63.9113 182.7336 67.425 178.5175 Z"/>
<path d="M 83.1679 119.8542 82.8973 114.5375 82.3638 112.7557 83.5378 109.6791 86.2975 107.5431 91.6206 107.0451 93.278 109.8479 93.4842 116.7005 87.8753 117.1433 86.1365 115.6847 83.1679 119.8542 Z"/>
<path d="M 53.7407 117.9938 55.0209 113.3472 58.1925 111.4897 57.6876 106.356 63.5404 103.7425 66.5152 105.4213 68.302 108.8749 66.749 115.4174 67.1814 118.7874 64.7661 123.3445 60.426 120.0568 56.1421 121.5482 56.981 118.2422 53.7407 117.9938 Z"/>
<path d="M 88.2951 84.6769 90.2709 90.8422 97.9866 91.4714 102.2358 89.8245 103.5886 83.7736 102.9546 80.6488 109.5519 83.2538 109.3289 79.2632 114.5683 68.5365 122.4493 75.7105 129.3644 78.7147 130.6105 77.9816 131.9496 74.7935 133.8048 87.5551 131.2639 97.5846 126.334 108.7064 120.1446 111.0021 107.3552 102.6831 104.4443 102.8197 98.9094 105.6404 93.278 109.8479 91.6206 107.0451 91.7983 101.7461 89.1608 100.0652 86.7759 93.4991 82.5018 89.1943 83.4901 88.05 88.2951 84.6769 Z"/>
<path d="M 74.7103 38.9691 80.9078 37.7813 80.0843 42.2739 84.2496 47.4251 77.8424 51.7739 72.0007 50.7999 69.9412 47.9318 71.3032 42.0927 74.7103 38.9691 Z"/>
<path d="M 80.9078 37.7813 78.1801 34.0675 78.9442 30.0965 82.2289 29.891 86.7344 32.7595 87.174 37.894 88.9228 40.7693 93.3416 41.0889 97.2798 42.8736 94.08 52.0191 90.5146 55.4513 90.0743 59.695 85.6386 59.8302 79.5611 62.3311 76.8424 65.9245 74.4548 65.553 69.2538 64.7858 70.4275 59.5877 67.921 59.5556 67.2662 56.2386 70.5959 53.9421 72.0007 50.7999 77.8424 51.7739 84.2496 47.4251 80.0843 42.2739 80.9078 37.7813 Z"/>
<path d="M 58.8874 172.2972 63.2638 172.3994 66.1121 174.2096 67.425 178.5175 63.9113 182.7336 63.9134 179.8213 59.6661 180.2231 56.5914 177.5863 58.8874 172.2972 Z"/>
<path d="M 71.6966 181.4214 67.425 178.5175 66.1121 174.2096 63.2638 172.3994 67.425 173.4981 68.1366 170.588 73.4828 166.7089 72.9662 164.3973 79.6913 177.1611 78.9576 179.3518 74.6333 179.6598 71.6966 181.4214 Z"/>
<path d="M 86.8335 126.9278 89.1819 131.229 87.9837 138.5084 91.8135 143.3936 89.6911 144.4007 83.8865 144.2617 80.4959 146.7921 78.2373 145.2598 72.911 141.7844 68.5739 141.0193 76.3997 136.7717 78.0157 127.7415 78.7464 129.4692 83.2266 129.1563 86.8335 126.9278 Z"/>
<path d="M 41.6291 157.5508 47.1524 156.8263 50.1171 158.4298 50.9375 159.8953 52.2778 163.6318 48.6014 167.8914 47.2771 167.5552 40.8039 171.4239 37.7487 170.8932 32.4383 167.3958 30.4046 168.7673 27.9106 165.3638 30.2721 161.6806 33.2522 160.7395 40.472 160.3402 41.6291 157.5508 Z"/>
<path d="M 78.9864 148.1328 82.6372 148.7668 83.092 151.4908 87.7973 150.6124 91.9999 154.7321 86.2843 156.7299 85.014 161.2077 81.7326 159.2241 76.2949 158.9201 76.3548 156.2415 80.5937 155.3057 78.3638 152.7379 78.9864 148.1328 Z"/>
<path d="M 83.7275 121.2282 88.6628 124.5036 93.4875 124.4931 94.8323 127.0223 100.0773 130.7734 101.9447 129.483 105.2459 130.9531 102.9537 133.5521 101.1927 131.9457 96.5878 131.6195 93.1087 133.0669 89.1819 131.229 86.8335 126.9278 83.7275 121.2282 Z"/>
<path d="M 78.9864 148.1328 78.2373 145.2598 80.4959 146.7921 83.8865 144.2617 89.6911 144.4007 91.8135 143.3936 94.5384 146.1886 92.9677 150.2684 91.9999 154.7321 87.7973 150.6124 83.092 151.4908 82.6372 148.7668 78.9864 148.1328 Z"/>
<path d="M 36.703 126.6614 38.7172 130.6082 37.9785 135.3491 39.4722 137.6677 37.889 141.3179 38.7066 147.2379 34.3076 146.7381 30.2349 143.6371 28.1876 144.3381 27.8574 142.9325 29.8914 141.8105 36.703 126.6614 Z"/>
<path d="M 17.0691 192.0431 18.2299 188.9841 22.251 190.9881 22.1086 200.6535 19.1385 202.2045 13.749 200.3749 18.2621 196.2867 17.0691 192.0431 Z"/>
<path d="M 64.7661 123.3445 66.549 127.8276 62.3529 129.375 61.5163 131.6507 56.5743 134.7587 55.1673 128.799 57.2955 122.3502 56.1421 121.5482 60.426 120.0568 64.7661 123.3445 Z"/>
<path d="M 4.3003 159.4799 5.3478 161.1433 4.3427 165.5689 7.2862 169.4004 4.6801 171.9611 4.1902 175.6677 1.5328 177.9092 1.3254 172.3458 3.4558 170.295 1.7334 167.0536 4.004 163.2466 4.3003 159.4799 Z"/>
<path d="M 9.3648 198.0212 14.5268 195.8656 17.0691 192.0431 18.2621 196.2867 13.749 200.3749 9.3648 198.0212 Z"/>
<path d="M 68.302 108.8749 72.5996 107.1356 82.3638 112.7557 82.8973 114.5375 80.835 113.8878 76.28 116.1442 67.1814 118.7874 66.749 115.4174 68.302 108.8749 Z"/>
<path d="M 8.3318 188.0955 11.4304 186.7984 14.8084 183.0935 17.7832 186.1353 18.2299 188.9841 17.0691 192.0431 14.5268 195.8656 9.3648 198.0212 9.7871 191.0064 8.3318 188.0955 Z"/>
<path d="M 44.973 147.8612 49.8581 144.4621 53.1962 143.3666 59.5472 142.7015 64.2085 140.3483 68.5739 141.0193 72.911 141.7844 78.2373 145.2598 78.9864 148.1328 78.3638 152.7379 80.5937 155.3057 76.3548 156.2415 75.0226 153.9042 69.9441 154.0987 66.9791 152.6312 60.2649 154.5893 58.7319 157.7406 54.0888 157.0141 50.9375 159.8953 50.1171 158.4298 47.3193 151.3185 44.973 147.8612 Z"/>
<path d="M 55.5523 76.3384 56.4521 73.7045 59.5569 71.9453 56.7824 68.7243 58.4781 65.2088 59.1277 65.1897 62.0824 65.1839 62.0271 70.1729 69.945 70.9552 72.3056 78.0439 74.3667 79.0699 73.9277 82.9582 71.249 86.1707 65.1309 87.4628 64.3795 90.7411 61.0278 88.0425 61.0058 85.0884 57.3241 82.5087 55.5523 76.3384 Z"/>
<path d="M 18.2299 188.9841 17.7832 186.1353 20.376 184.3846 25.4183 185.0249 26.0528 185.9506 24.3748 191.0318 28.1668 192.0872 31.3337 191.2949 39.3245 191.9573 41.4359 195.3362 39.8552 197.4378 42.0767 205.5879 44.9487 205.5277 41.6783 206.8248 36.7049 206.1311 29.5208 203.7917 26.6505 204.8087 23.504 202.6113 19.1385 202.2045 22.1086 200.6535 22.251 190.9881 18.2299 188.9841 Z"/>
<path d="M 44.5095 32.3516 50.8761 30.978 57.9028 34.4097 59.2082 39.5183 57.7145 43.5034 58.8851 48.2929 56.9517 49.8644 50.2364 46.3932 52.1136 38.2202 51.9462 35.5383 42.7382 34.6507 44.5095 32.3516 Z"/>
<path d="M 52.9798 183.5566 54.6114 183.5573 57.8955 184.8984 63.9114 184.8732 68.1551 183.3281 65.9397 186.982 65.0673 191.3129 60.9705 195.2604 57.604 194.4945 56.6887 198.3653 55.8118 196.3207 52.2051 195.3659 50.9176 193.2552 46.1542 192.3061 47.6587 188.7131 50.9322 183.5553 52.9798 183.5566 Z"/>
<path d="M 74.4602 158.4479 72.1692 162.4971 72.9662 164.3973 73.4828 166.7089 68.1366 170.588 67.425 173.4981 63.2638 172.3994 58.8874 172.2972 57.6722 171.828 58.8673 168.1589 56.7364 167.4142 55.2652 158.5931 54.0888 157.0141 58.7319 157.7406 68.4681 160.7965 71.4794 156.8942 74.4602 158.4479 Z"/>
<path d="M 36.703 126.6614 41.8832 123.5515 44.4608 123.5486 49.1751 129.389 52.9502 127.7958 55.1673 128.799 56.5743 134.7587 52.2755 139.3962 53.1962 143.3666 49.8581 144.4621 44.973 147.8612 43.6596 147.5423 38.7066 147.2379 37.889 141.3179 39.4722 137.6677 37.9785 135.3491 38.7172 130.6082 36.703 126.6614 Z"/>
<path d="M 74.4548 65.553 76.8424 65.9245 79.5611 62.3311 85.6386 59.8302 90.0743 59.695 91.8378 59.6216 91.7892 65.5753 86.2203 66.5758 88.1215 70.0636 86.6087 71.807 80.599 71.6646 76.958 71.3852 74.4548 65.553 Z"/>
<path d="M 51.7988 58.8521 59.6222 62.7867 59.1277 65.1897 58.4781 65.2088 49.368 65.4587 46.9975 64.7969 43.1507 60.1437 38.4121 59.8072 39.0894 56.4033 45.1688 56.3744 46.5782 58.9597 51.7988 58.8521 Z"/>
<path d="M 112.8914 34.7308 107.0789 37.458 103.8839 36.4068 98.0255 37.8149 92.9541 30.6706 84.883 29.9622 85.2697 23.1804 88.5894 23.2603 99.3608 27.1336 106.7518 24.3037 117.4697 26.5945 118.6002 32.7559 112.8914 34.7308 Z"/>
<path d="M 101.9762 61.754 102.0629 63.1142 97.0312 73.4691 91.7225 73.7005 86.6087 71.807 88.1215 70.0636 86.2203 66.5758 91.7892 65.5753 91.8378 59.6216 98.6618 58.9271 101.9762 61.754 Z"/>
<path d="M 130.2813 50.8121 130.0803 58.9066 131.9496 74.7935 130.6105 77.9816 123.2334 68.6452 115.3833 61.293 114.2708 57.3957 107.0891 55.1484 101.9762 61.754 98.6618 58.9271 91.8378 59.6216 90.0743 59.695 90.5146 55.4513 94.08 52.0191 97.2798 42.8736 100.6085 43.2322 104.4495 40.9926 107.0789 37.458 112.8914 34.7308 124.1185 48.5363 130.2813 50.8121 Z"/>
<path d="M 130.6105 77.9816 129.3644 78.7147 122.4493 75.7105 114.5683 68.5365 104.6017 65.9889 102.0629 63.1142 101.9762 61.754 107.0891 55.1484 114.2708 57.3957 115.3833 61.293 123.2334 68.6452 130.6105 77.9816 Z"/>
<path d="M 32.6529 183.1938 31.155 174.4383 29.4893 171.4035 30.4046 168.7673 32.4383 167.3958 37.7487 170.8932 40.8039 171.4239 47.2771 167.5552 48.6014 167.8914 49.9671 169.0045 48.0309 173.4165 52.0076 178.5251 52.9798 183.5566 50.9322 183.5553 47.6587 188.7131 44.952 185.9717 38.3363 183.507 32.6529 183.1938 Z"/>
<path d="M 57.3241 82.5087 61.0058 85.0884 61.0278 88.0425 64.3795 90.7411 60.5108 96.3651 64.016 101.6518 63.5404 103.7425 57.6876 106.356 58.1925 111.4897 55.0209 113.3472 53.7407 117.9938 49.5666 116.2442 47.3974 117.1715 42.6426 115.9244 41.6344 114.613 43.0211 110.0938 46.6951 108.0838 47.2653 105.92 51.0975 103.849 50.8495 100.5025 54.0787 100.0127 56.7532 97.1298 55.328 95.2568 57.6274 92.4165 58.1548 85.5277 57.3241 82.5087 Z"/>
<path d="M 7.2862 169.4004 10.6968 171.256 12.8475 169.3293 16.5786 170.9857 16.7261 174.0632 14.6618 177.8746 14.8084 183.0935 11.4304 186.7984 8.3318 188.0955 9.0474 186.6675 7.9585 180.3735 1.5328 177.9092 4.1902 175.6677 4.6801 171.9611 7.2862 169.4004 Z"/>
<path d="M 31.155 174.4383 32.6529 183.1938 27.9319 182.5355 26.0528 185.9506 25.4183 185.0249 25.5362 179.641 28.8676 175.25 31.155 174.4383 Z"/>
<path d="M 92.118 2.7459 101.2003 6.3519 101.8593 8.789 108.3205 13.3019 109.183 18.5064 106.7518 24.3037 99.3608 27.1336 88.5894 23.2603 88.8147 18.6366 87.555 15.1506 90.7436 9.4656 92.118 2.7459 Z"/>
<path d="M 101.2003 6.3519 120.1377 18.465 117.4697 26.5945 106.7518 24.3037 109.183 18.5064 108.3205 13.3019 101.8593 8.789 101.2003 6.3519 Z"/>
<path d="M 80.599 71.6646 86.6087 71.807 91.7225 73.7005 91.7244 73.7107 80.3425 77.4921 76.758 81.6902 77.1179 85.7542 73.9277 82.9582 74.3667 79.0699 72.3056 78.0439 72.7684 75.2272 79.1465 73.0332 80.599 71.6646 Z"/>
<path d="M 41.4359 195.3362 43.5252 195.3317 46.1542 192.3061 50.9176 193.2552 52.2051 195.3659 55.8118 196.3207 56.6887 198.3653 57.8956 203.2446 55.6893 207.8609 50.9096 207.2273 47.8644 205.0461 44.9487 205.5277 42.0767 205.5879 39.8552 197.4378 41.4359 195.3362 Z"/>
<path d="M 92.9677 150.2684 97.8861 149.8461 92.6288 161.9229 91.5802 163.0683 85.014 161.2077 86.2843 156.7299 91.9999 154.7321 92.9677 150.2684 Z"/>
<path d="M 59.1277 65.1897 59.6222 62.7867 61.7818 60.4959 67.921 59.5556 70.4275 59.5877 69.2538 64.7858 74.4548 65.553 76.958 71.3852 80.599 71.6646 79.1465 73.0332 72.7684 75.2272 72.3056 78.0439 69.945 70.9552 62.0271 70.1729 62.0824 65.1839 59.1277 65.1897 Z"/>
<path d="M 26.0528 185.9506 27.9319 182.5355 32.6529 183.1938 38.3363 183.507 38.0174 188.1307 39.3245 191.9573 31.3337 191.2949 28.1668 192.0872 24.3748 191.0318 26.0528 185.9506 Z"/>
<path d="M 49.368 65.4587 58.4781 65.2088 56.7824 68.7243 59.5569 71.9453 56.4521 73.7045 55.5523 76.3384 50.0548 73.069 48.9672 70.4172 51.3822 68.2816 49.368 65.4587 Z"/>
<path d="M 34.3076 146.7381 38.7066 147.2379 43.6596 147.5423 40.0337 150.3237 42.2314 155.2704 41.6291 157.5508 40.472 160.3402 33.2522 160.7395 34.026 156.1623 32.1274 153.1783 31.5549 149.042 34.3076 146.7381 Z"/>
<path d="M 76.3548 156.2415 76.2949 158.9201 74.4602 158.4479 71.4794 156.8942 68.4681 160.7965 58.7319 157.7406 60.2649 154.5893 66.9791 152.6312 69.9441 154.0987 75.0226 153.9042 76.3548 156.2415 Z"/>
<path d="M 24.1518 150.3175 28.1876 144.3381 30.2349 143.6371 34.3076 146.7381 31.5549 149.042 32.1274 153.1783 34.026 156.1623 33.2522 160.7395 30.2721 161.6806 27.9106 165.3638 24.5783 165.9059 22.5861 163.7786 18.6619 165.5566 16.4595 163.6978 16.7658 161.1379 18.2324 157.4891 24.1576 155.5073 24.1518 150.3175 Z"/>
<path d="M 102.9546 80.6488 97.0312 73.4691 102.0629 63.1142 104.6017 65.9889 114.5683 68.5365 109.3289 79.2632 109.5519 83.2538 102.9546 80.6488 Z"/>
<path d="M 19.3677 148.5288 22.8885 147.3883 24.1518 150.3175 24.1576 155.5073 18.2324 157.4891 16.7658 161.1379 14.5987 158.4913 14.5921 155.4365 10.125 155.5666 5.8214 153.0553 4.0597 156.1183 1 151.7211 5.3637 148.2781 6.9215 142.902 12.4903 142.9101 11.4216 146.3925 8.5714 149.9171 10.343 152.8214 16.9414 152.5109 19.3677 148.5288 Z"/>
<path d="M 101.5341 145.0976 97.8861 149.8461 92.9677 150.2684 94.5384 146.1886 95.6398 144.775 101.5341 145.0976 Z"/>
<path d="M 57.6722 171.828 58.8874 172.2972 56.5914 177.5863 59.6661 180.2231 63.9134 179.8213 63.9113 182.7336 63.9114 184.8732 57.8955 184.8984 54.6114 183.5573 53.7013 178.1581 57.6722 171.828 Z"/>
<path d="M 41.8832 123.5515 43.2892 118.3268 42.6426 115.9244 47.3974 117.1715 49.5666 116.2442 53.7407 117.9938 56.981 118.2422 56.1421 121.5482 57.2955 122.3502 55.1673 128.799 52.9502 127.7958 49.1751 129.389 44.4608 123.5486 41.8832 123.5515 Z"/>
<path d="M 83.4901 88.05 82.5018 89.1943 86.7759 93.4991 89.1608 100.0652 91.7983 101.7461 84.9595 101.5128 80.7984 98.4497 79.8602 95.7746 76.3828 96.3253 75.36 92.4319 76.239 90.2011 81.3308 87.9036 83.4901 88.05 Z"/>
<path d="M 5.3478 161.1433 4.3003 159.4799 4.0597 156.1183 5.8214 153.0553 10.125 155.5666 14.5921 155.4365 14.5987 158.4913 16.7658 161.1379 16.4595 163.6978 14.0905 165.345 16.5786 170.9857 12.8475 169.3293 10.6932 162.6797 5.3478 161.1433 Z"/>
<path d="M 56.9517 49.8644 58.8851 48.2929 57.7145 43.5034 59.2082 39.5183 57.9028 34.4097 62.3342 34.6473 63.8297 38.2413 70.3108 36.2252 74.7103 38.9691 71.3032 42.0927 69.9412 47.9318 72.0007 50.7999 70.5959 53.9421 67.2662 56.2386 67.921 59.5556 61.7818 60.4959 59.6222 62.7867 51.7988 58.8521 55.5738 59.0967 58.4666 57.5241 57.041 54.7469 56.9517 49.8644 Z"/>
<path d="M 64.7661 123.3445 67.1814 118.7874 76.28 116.1442 80.835 113.8878 82.8973 114.5375 83.1679 119.8542 83.7275 121.2282 86.8335 126.9278 83.2266 129.1563 78.7464 129.4692 78.0157 127.7415 72.8395 128.1911 66.9076 129.7472 66.549 127.8276 64.7661 123.3445 Z"/>
<path d="M 5.3478 161.1433 10.6932 162.6797 12.8475 169.3293 10.6968 171.256 7.2862 169.4004 4.3427 165.5689 5.3478 161.1433 Z"/>
<path d="M 97.2798 42.8736 93.3416 41.0889 88.9228 40.7693 87.174 37.894 86.7344 32.7595 84.883 29.9622 92.9541 30.6706 98.0255 37.8149 103.8839 36.4068 107.0789 37.458 104.4495 40.9926 100.6085 43.2322 97.2798 42.8736 Z"/>
<path d="M 117.4697 26.5945 120.1377 18.465 135.2188 27.9265 131.4014 39.2823 131.3913 44.9776 130.2813 50.8121 124.1185 48.5363 112.8914 34.7308 118.6002 32.7559 117.4697 26.5945 Z"/>
<path d="M 48.6014 167.8914 52.2778 163.6318 50.9375 159.8953 54.0888 157.0141 55.2652 158.5931 56.7364 167.4142 58.8673 168.1589 57.6722 171.828 53.7013 178.1581 54.6114 183.5573 52.9798 183.5566 52.0076 178.5251 48.0309 173.4165 49.9671 169.0045 48.6014 167.8914 Z"/>
<path d="M 80.3119 16.113 87.555 15.1506 88.8147 18.6366 88.5894 23.2603 85.2697 23.1804 84.883 29.9622 86.7344 32.7595 82.2289 29.891 78.9442 30.0965 76.7489 25.1208 81.2283 19.9533 80.3119 16.113 Z"/>
<path d="M 11.4216 146.3925 19.3677 148.5288 16.9414 152.5109 10.343 152.8214 8.5714 149.9171 11.4216 146.3925 Z"/>
<path d="M 93.4842 116.7005 93.4875 124.4931 88.6628 124.5036 83.7275 121.2282 83.1679 119.8542 86.1365 115.6847 87.8753 117.1433 93.4842 116.7005 Z"/>
<path d="M 16.4595 163.6978 18.6619 165.5566 22.5861 163.7786 24.5783 165.9059 27.9106 165.3638 30.4046 168.7673 29.4893 171.4035 31.155 174.4383 28.8676 175.25 25.5362 179.641 25.4183 185.0249 20.376 184.3846 17.7832 186.1353 14.8084 183.0935 14.6618 177.8746 16.7261 174.0632 16.5786 170.9857 14.0905 165.345 16.4595 163.6978 Z"/>
<path d="M 64.3795 90.7411 65.1309 87.4628 71.249 86.1707 73.9277 82.9582 77.1179 85.7542 80.5087 85.5311 81.3308 87.9036 76.239 90.2011 75.36 92.4319 76.3828 96.3253 79.8602 95.7746 80.7984 98.4497 84.9595 101.5128 91.7983 101.7461 91.6206 107.0451 86.2975 107.5431 83.5378 109.6791 82.3638 112.7557 72.5996 107.1356 68.302 108.8749 66.5152 105.4213 63.5404 103.7425 64.016 101.6518 60.5108 96.3651 64.3795 90.7411 Z"/>
<path d="M 27.8574 142.9325 28.1876 144.3381 24.1518 150.3175 22.8885 147.3883 19.3677 148.5288 11.4216 146.3925 12.4903 142.9101 27.8574 142.9325 Z"/>
<path d="M 93.4842 116.7005 93.278 109.8479 98.9094 105.6404 104.4443 102.8197 107.3552 102.6831 120.1446 111.0021 116.6831 113.3843 111.3623 118.845 111.1457 120.3687 105.2459 130.9531 101.9447 129.483 100.0773 130.7734 94.8323 127.0223 93.4875 124.4931 93.4842 116.7005 Z"/>
<path d="M 89.1819 131.229 93.1087 133.0669 96.5878 131.6195 101.1927 131.9457 102.9537 133.5521 104.1695 136.8454 101.5341 145.0976 95.6398 144.775 94.5384 146.1886 91.8135 143.3936 87.9837 138.5084 89.1819 131.229 Z"/>
<path d="M 78.0157 127.7415 76.3997 136.7717 68.5739 141.0193 64.2085 140.3483 59.5472 142.7015 53.1962 143.3666 52.2755 139.3962 56.5743 134.7587 61.5163 131.6507 62.3529 129.375 66.549 127.8276 66.9076 129.7472 72.8395 128.1911 78.0157 127.7415 Z"/>
<path d="M 91.7244 73.7107 90.0523 77.1794 88.2951 84.6769 83.4901 88.05 81.3308 87.9036 80.5087 85.5311 77.1179 85.7542 76.758 81.6902 80.3425 77.4921 91.7244 73.7107 Z"/>
<path d="M 92.118 2.7459 90.7436 9.4656 87.555 15.1506 80.3119 16.113 77.3457 13.9773 74.0983 8.2602 76.3004 6.9297 77.3202 3.6531 83.0094 1 86.3282 3.0735 92.118 2.7459 Z"/>
<path d="M 88.2951 84.6769 90.0523 77.1794 91.7244 73.7107 91.7225 73.7005 97.0312 73.4691 102.9546 80.6488 103.5886 83.7736 102.2358 89.8245 97.9866 91.4714 90.2709 90.8422 88.2951 84.6769 Z"/>
<path d="M 43.6596 147.5423 44.973 147.8612 47.3193 151.3185 50.1171 158.4298 47.1524 156.8263 41.6291 157.5508 42.2314 155.2704 40.0337 150.3237 43.6596 147.5423 Z"/>
<path d="M 65.0673 191.3129 62.0472 199.4043 57.8956 203.2446 56.6887 198.3653 57.604 194.4945 60.9705 195.2604 65.0673 191.3129 Z"/>
</g>
</svg>