<?xml version="1.0"?>
<svg xmlns="http://www.w3.org/2000/svg" version="1.2" baseProfile="tiny" width="800" height="764" viewBox="0 0 800 764" stroke-linecap="round" stroke-linejoin="round">
<g id="52MUE250GC_SIR">
<path d="M 228.9617 635.7985 219.0098 641.9932 205.2799 633.6632 213.941 612.2594 227.9844 617.4626 228.9617 635.7985 Z"/>
<path d="M 154.7132 394.4436 155.611 389.2679 177.8201 405.5236 197.7497 419.9356 201.7537 431.1787 203.6944 436.1198 182.5704 456.9766 179.368 451.039 171.3592 430.8679 171.8366 413.4797 154.7132 394.4436 Z"/>
<path d="M 296.3133 541.003 327.0031 523.8083 337.5546 531.2876 345.6777 544.51 337.3367 559.4276 328.572 555.7671 301.8019 565.7843 292.9013 559.1475 296.3133 541.003 Z"/>
<path d="M 397.3236 472.7815 382.5305 483.3551 383.2952 458.4114 387.5717 458.4955 397.3236 472.7815 Z"/>
<path d="M 266.9495 279.4224 266.669 266.0339 298.7137 282.9382 319.4703 270.6002 347.7185 290.244 346.4166 301.6127 344.4836 303.5342 322.9668 303.2733 306.3328 316.5936 292.6719 306.7844 274.0956 304.4491 274.8144 285.1007 266.9495 279.4224 Z"/>
<path d="M 396.5107 321.143 403.7853 325.4128 403.1729 327.632 401.9058 345.8398 387.4717 366.6928 387.0818 364.4005 381.0581 349.0063 382.7148 333.8618 396.5107 321.143 Z"/>
<path d="M 742.0191 172.1928 761.8514 174.0616 782.2388 193.2085 768.0404 200.031 741.8543 213.897 709.3227 210.5649 700.1707 206.0249 710.4441 188.4256 742.0191 172.1928 Z"/>
<path d="M 386.7798 442.2889 387.2644 440.7124 394.876 438.7861 412.5977 439.4233 419.8557 450.5352 413.8643 463.4534 407.1139 472.8418 397.3236 472.7815 387.5717 458.4955 386.7798 442.2889 Z"/>
<path d="M 420.7138 476.0065 422.8291 482.5898 409.8778 496.8878 410.3134 492.1301 414.8852 479.0857 420.7138 476.0065 Z"/>
<path d="M 315.0513 620.384 333.275 609.6698 335.1531 611.0779 336.1402 616.2967 333.5794 618.5106 312.6669 629.5091 290.076 618.1087 315.0513 620.384 Z"/>
<path d="M 577.9597 390.9281 605.7039 390.9278 600.4375 403.5795 575.2042 396.9135 577.9597 390.9281 Z"/>
<path d="M 786.5955 240.081 767.1608 217.3786 768.0404 200.031 782.2388 193.2085 799 206.8654 789.0053 214.6263 786.5955 240.081 Z"/>
<path d="M 35.075 476.6719 31.9319 506.2693 39.2993 525.5964 19.57 534.6098 1 559.8031 4.5443 528.6825 21.3205 501.3101 25.7087 479.3143 35.075 476.6719 Z"/>
<path d="M 315.0239 394.086 313.4407 400.9938 303.3165 413.8836 293.0441 407.4358 301.6901 398.5546 315.0239 394.086 Z"/>
<path d="M 336.1402 616.2967 335.1531 611.0779 355.8044 595.1429 346.0794 581.3004 365.7755 582.6385 377.2867 590.6968 413.0815 586.8758 423.0907 598.8434 443.4744 601.908 435.7081 621.2231 435.1704 622.4411 412.7064 613.1894 402.6953 625.4384 389.8582 611.8296 368.2391 603.7961 355.8616 613.9304 336.1402 616.2967 Z"/>
<path d="M 313.4407 400.9938 315.0239 394.086 349.1473 388.8086 350.1689 405.3575 360.1539 409.8919 342.8889 416.0073 338.5584 421.3069 329.851 418.8091 313.4407 400.9938 Z"/>
<path d="M 44.8723 649.1881 41.0675 673.402 31.3961 661.9377 44.8723 649.1881 Z M 35.075 476.6719 45.5378 469.5126 46.3752 482.665 79.2679 505.1915 91.7621 522.9323 118.9101 528.7656 125.1264 539.001 100.2547 530.5363 83.7313 538.7406 102.7558 558.0357 112.913 568.7451 111.7893 582.7182 93.0931 584.657 58.1643 600.4868 50.7328 610.8637 46.7975 636.9041 16.4578 637.219 11.7255 612.2456 19.0629 608.6246 1 559.8031 19.57 534.6098 39.2993 525.5964 31.9319 506.2693 35.075 476.6719 Z M 47.4061 526.7094 53.0304 539.9797 69.6185 529.8002 61.4106 516.3358 47.4061 526.7094 Z"/>
<path d="M 475.5735 39.2596 505.7517 65.5513 508.3778 93.3592 510.3016 101.4939 488.198 97.8487 478.3089 83.0068 475.5735 39.2596 Z"/>
<path d="M 423.0373 374.8395 422.6713 386.1219 418.4682 388.2819 411.7333 385.9971 423.0373 374.8395 Z"/>
<path d="M 304.8212 472.2326 314.3757 461.5787 322.9489 472.7846 322.7338 482.3075 304.8212 472.2326 Z"/>
<path d="M 623.1086 539.1754 621.6884 544.036 610.4043 563.897 608.7788 585.3694 585.9204 594.3314 573.0832 591.977 579.2311 574.8099 575.0358 554.2501 583.8986 522.7661 599.8874 514.9827 623.1086 539.1754 Z"/>
<path d="M 546.6083 640.7121 541.7042 639.097 542.8678 634.5805 550.1516 633.3817 552.2094 638.5928 546.6083 640.7121 Z"/>
<path d="M 549.6589 528.031 558.3242 524.1449 566.1968 537.2385 548.2818 556.95 531.6252 550.1577 549.6589 528.031 Z"/>
<path d="M 346.0794 581.3004 344.2276 579.7357 361.97 560.1919 372.6727 557.9694 386.9636 569.0424 377.2867 590.6968 365.7755 582.6385 346.0794 581.3004 Z"/>
<path d="M 467.2661 96.7062 480.5346 111.0841 463.5911 139.8667 448.6361 133.2269 453.3093 119.5787 467.2661 96.7062 Z"/>
<path d="M 738.9852 219.8554 745.6725 219.7298 748.8213 230.9846 734.1051 244.5119 727.9 256.5817 721.5597 256.941 714.8172 238.5341 696.7932 226.8024 691.0717 203.7715 700.1707 206.0249 709.3227 210.5649 712.9617 219.1605 738.9852 219.8554 Z"/>
<path d="M 381.1658 308.5497 378.5513 308.0954 381.2512 302.84 398.8834 297.284 402.6865 296.7181 398.0429 315.2728 381.1658 308.5497 Z"/>
<path d="M 267.0105 385.4938 269.5501 377.3002 298.614 386.409 301.6901 398.5546 293.0441 407.4358 288.9638 410.9581 282.8292 397.3585 267.0105 385.4938 Z"/>
<path d="M 510.3016 101.4939 508.3778 93.3592 523.04 90.4282 552.4731 75.513 552.8098 91.682 558.2659 127.3868 556.2867 141.0917 533.6536 152.9667 520.5402 125.8912 499.3345 129.2016 494.9409 128.6285 495.2505 128.418 510.3016 101.4939 Z"/>
<path d="M 739.7995 65.0966 739.9833 65.1073 747.9864 82.7659 747.2028 100.7675 711.1413 101.0477 715.162 85.2075 739.7995 65.0966 Z"/>
<path d="M 330.4763 461.9606 337.3729 459.4391 338.0535 486.9431 322.8335 482.9651 322.7338 482.3075 322.9489 472.7846 330.4763 461.9606 Z"/>
<path d="M 372.7836 364.7781 387.0818 364.4005 387.4717 366.6928 388.4423 370.8952 387.6648 386.1118 392.4797 398.1096 382.1792 416.4019 378.9242 432.7163 373.8205 428.817 367.619 414.4952 360.1539 409.8919 350.1689 405.3575 349.1473 388.8086 368.5016 382.9945 372.7836 364.7781 Z"/>
<path d="M 548.5469 602.7021 542.0612 627.1837 536.498 630.2191 528.2229 616.508 536.9896 596.9609 548.5469 602.7021 Z"/>
<path d="M 492.6094 181.7836 504.1452 187.3863 519.7911 170.02 536.7328 161.2193 554.2826 181.5278 580.5668 203.9171 588.8509 204.2946 590.1499 206.1938 596.1671 237.6495 585.8047 252.0391 562.8388 265.2907 558.1872 259.8613 504.813 276.9758 488.8776 261.659 492.1473 241.0979 467.8971 242.0061 458.2303 230.7022 468.287 195.2081 492.6094 181.7836 Z"/>
<path d="M 344.2276 579.7357 346.0794 581.3004 355.8044 595.1429 335.1531 611.0779 333.275 609.6698 328.9653 604.5035 330.9805 578.192 344.2276 579.7357 Z"/>
<path d="M 50.7328 610.8637 58.1643 600.4868 93.0931 584.657 111.7893 582.7182 115.5732 598.0975 132.2578 612.4447 151.3491 617.7378 170.9179 631.7174 175.333 656.8286 165.7772 654.5594 147.3453 671.9743 128.2722 658.0338 102.1225 657.6957 85.4419 647.6116 50.7328 610.8637 Z"/>
<path d="M 151.0633 375.629 155.611 389.2679 154.7132 394.4436 122.8416 436.8898 114.9673 436.2236 101.7351 420.324 103.4847 403.6819 132.2461 376.2432 151.0633 375.629 Z"/>
<path d="M 219.0098 641.9932 228.9617 635.7985 234.3887 640.9441 260.2535 635.6608 271.5563 648.3168 249.1823 661.0159 268.3683 674.4325 262.8796 702.829 254.7142 699.0391 219.0098 641.9932 Z"/>
<path d="M 182.5704 456.9766 203.6944 436.1198 220.8571 464.9212 191.4597 482.3895 173.2299 472.0397 182.5704 456.9766 Z"/>
<path d="M 472.5612 384.3593 504.5959 401.0439 526.5095 416.6935 514.9314 421.6064 487.5532 417.1937 470.187 409.7495 469.0299 400.1346 472.5612 384.3593 Z"/>
<path d="M 314.3757 461.5787 304.8212 472.2326 283.9285 476.3477 290.001 461.2592 281.7861 452.0782 289.0121 440.5292 293.2195 441.9778 301.0323 454.847 314.3757 461.5787 Z"/>
<path d="M 453.9995 450.0738 461.1396 457.3193 455.8589 471.2057 445.5111 475.1727 445.0395 471.4769 441.3474 460.756 453.9995 450.0738 Z"/>
<path d="M 450.0872 432.0122 464.447 429.5243 448.5905 441.3119 450.0872 432.0122 Z"/>
<path d="M 526.7084 382.9651 535.9867 420.0311 530.5709 419.2362 526.5095 416.6935 504.5959 401.0439 507.0235 376.8611 526.7084 382.9651 Z"/>
<path d="M 480.5346 111.0841 495.2505 128.418 494.9409 128.6285 475.3917 160.6903 459.8891 155.9476 463.5911 139.8667 480.5346 111.0841 Z"/>
<path d="M 416.4239 429.6281 421.3138 418.8191 425.8437 417.3367 430.2014 433.7388 427.3013 433.1308 416.4239 429.6281 Z"/>
<path d="M 443.2271 182.1063 442.7933 171.3357 466.0181 171.571 475.3917 160.6903 494.9409 128.6285 499.3345 129.2016 486.429 154.6135 484.4043 174.6523 461.53 177.9196 453.5786 202.4765 440.7223 209.2148 443.2271 182.1063 Z"/>
<path d="M 401.9058 345.8398 403.1729 327.632 426.3755 329.3699 431.5919 324.2939 442.1727 342.2541 438.841 369.8393 423.0373 374.8395 411.7333 385.9971 404.4776 383.0422 402.4314 382.0441 396.3178 372.645 401.9058 345.8398 Z"/>
<path d="M 265.3815 461.1614 267.6971 472.1605 283.9285 476.3477 304.8212 472.2326 322.7338 482.3075 322.8335 482.9651 320.1317 501.6337 327.0031 523.8083 296.3133 541.003 286.5554 535.2737 269.081 514.8603 250.6995 504.1717 239.0044 489.6494 239.2525 480.3169 265.3815 461.1614 Z"/>
<path d="M 109.4084 448.5472 114.9673 436.2236 122.8416 436.8898 139.0377 453.9648 150.651 457.202 179.368 451.039 182.5704 456.9766 173.2299 472.0397 191.4597 482.3895 220.8571 464.9212 220.4213 472.836 238.9562 489.6466 230.3483 506.7472 215.3017 511.8285 209.725 523.6905 187.6015 532.3851 169.9629 524.2998 148.4874 534.3829 132.8544 547.7269 125.1264 539.001 118.9101 528.7656 91.7621 522.9323 90.3197 488.3665 104.1888 486.4562 120.5549 467.5351 109.4084 448.5472 Z"/>
<path d="M 381.1658 308.5497 398.0429 315.2728 396.5107 321.143 382.7148 333.8618 368.6633 324.4221 381.1658 308.5497 Z"/>
<path d="M 381.0581 349.0063 387.0818 364.4005 372.7836 364.7781 360.3688 358.2068 381.0581 349.0063 Z"/>
<path d="M 397.3236 472.7815 407.1139 472.8418 414.8852 479.0857 410.3134 492.1301 402.9325 499.2913 381.614 489.5606 380.9649 488.2281 382.5305 483.3551 397.3236 472.7815 Z"/>
<path d="M 329.0255 434.6959 330.4763 461.9606 322.9489 472.7846 314.3757 461.5787 301.0323 454.847 321.0254 445.6109 329.0255 434.6959 Z"/>
<path d="M 81.6135 676.5663 102.1225 657.6957 128.2722 658.0338 147.3453 671.9743 172.5949 688.1112 166.1157 693.7432 169.4733 724.7566 147.1063 711.2624 127.2448 706.5539 115.754 695.1275 98.407 692.4675 81.6135 676.5663 Z"/>
<path d="M 346.2792 503.3387 366.6308 491.3339 385.1866 515.2656 375.8177 523.5235 352.0881 519.3154 345.6777 544.51 337.5546 531.2876 346.2792 503.3387 Z"/>
<path d="M 536.7328 161.2193 533.6536 152.9667 556.2867 141.0917 558.2659 127.3868 576.1965 152.7439 582.2377 186.4313 588.8509 204.2946 580.5668 203.9171 554.2826 181.5278 536.7328 161.2193 Z"/>
<path d="M 392.1091 97.7165 403.6162 117.2572 384.1983 138.3297 357.6975 135.5709 328.1317 126.7637 325.946 118.6644 355.9681 112.298 362.3458 114.1721 392.1091 97.7165 Z"/>
<path d="M 349.1473 388.8086 315.0239 394.086 301.6901 398.5546 298.614 386.409 298.9017 365.838 284.504 341.5936 296.3564 337.3241 301.1799 346.0816 340.202 347.1409 351.1652 361.6813 360.3688 358.2068 372.7836 364.7781 368.5016 382.9945 349.1473 388.8086 Z"/>
<path d="M 480.0353 572.7783 470.3001 559.4796 494.8281 548.3109 514.4381 546.6313 516.5967 556.724 520.5428 559.7347 515.5509 589.8739 501.8808 608.25 493.1167 586.1974 480.0353 572.7783 Z"/>
<path d="M 67.6178 441.8362 109.4084 448.5472 120.5549 467.5351 104.1888 486.4562 90.3197 488.3665 91.7621 522.9323 79.2679 505.1915 46.3752 482.665 45.5378 469.5126 67.6178 441.8362 Z"/>
<path d="M 392.4797 398.1096 404.9973 397.8486 413.7046 403.7683 418.4639 406.7196 404.1546 405.4734 391.3792 421.5106 382.1792 416.4019 392.4797 398.1096 Z"/>
<path d="M 596.1671 237.6495 590.1499 206.1938 603.3539 218.1798 627.1189 213.9749 637.6766 201.7336 631.1431 188.0052 667.6071 178.4748 680.6296 176.8537 661.4061 197.0136 664.2655 226.4403 640.9066 255.2853 628.0326 256.8353 613.5382 253.9781 596.1671 237.6495 Z"/>
<path d="M 149.1151 366.3862 151.0633 375.629 132.2461 376.2432 103.4847 403.6819 96.8189 394.3817 108.4474 373.8922 135.0598 373.0811 149.1151 366.3862 Z"/>
<path d="M 262.1376 179.2608 270.7053 203.4944 262.2998 214.0836 261.5234 235.4047 266.669 266.0339 266.9495 279.4224 272.9349 289.1637 254.8896 308.7209 238.4977 305.3922 225.6443 298.8728 235.6518 267.4988 235.1416 259.3196 248.7856 225.3878 245.1259 212.9319 255.9116 180.4152 262.1376 179.2608 Z"/>
<path d="M 626.1146 331.3155 627.0139 309.3359 617.6547 281.8306 628.0326 256.8353 640.9066 255.2853 664.2655 226.4403 668.1976 241.5457 654.5343 265.6611 671.5401 283.541 686.018 310.6235 693.8227 307.7585 687.6462 324.9142 692.8568 343.0828 677.8599 335.7633 660.3549 343.2659 668.9613 356.8114 665.3749 377.6885 656.4429 386.8814 639.8068 385.6372 645.0314 341.8194 626.1146 331.3155 Z"/>
<path d="M 401.5192 189.7062 397.9619 181.6514 420.0263 176.9317 432.1697 191.8532 416.3492 197.1658 401.5192 189.7062 Z"/>
<path d="M 381.614 489.5606 402.9325 499.2913 410.3134 492.1301 409.8778 496.8878 409.27 511.6622 395.0452 519.1106 381.614 489.5606 Z"/>
<path d="M 404.4776 383.0422 411.7333 385.9971 418.4682 388.2819 413.7046 403.7683 404.9973 397.8486 404.4776 383.0422 Z"/>
<path d="M 432.1697 191.8532 443.2271 182.1063 440.7223 209.2148 422.2385 223.9148 416.3492 197.1658 432.1697 191.8532 Z"/>
<path d="M 219.6842 329.3833 231.9357 324.2104 245.0918 354.4891 238.7179 372.4143 198.1513 349.9541 204.8003 341.7963 226.0946 347.6255 219.6842 329.3833 Z"/>
<path d="M 111.7893 582.7182 112.913 568.7451 102.7558 558.0357 111.3299 563.9679 135.2501 564.168 132.8544 547.7269 148.4874 534.3829 169.9629 524.2998 165.2515 535.7655 175.5813 566.1494 205.225 589.2535 218.5566 590.6692 227.9844 617.4626 213.941 612.2594 205.2799 633.6632 187.4797 661.6517 175.333 656.8286 170.9179 631.7174 151.3491 617.7378 132.2578 612.4447 115.5732 598.0975 111.7893 582.7182 Z"/>
<path d="M 335.6811 436.9961 326.7791 423.4754 329.851 418.8091 338.5584 421.3069 335.6811 436.9961 Z"/>
<path d="M 274.0956 304.4491 292.6719 306.7844 306.3328 316.5936 322.9668 303.2733 344.4836 303.5342 338.5127 320.2699 339.3726 340.2065 340.202 347.1409 301.1799 346.0816 296.3564 337.3241 282.016 322.9473 274.0956 304.4491 Z"/>
<path d="M 699.0571 151.0048 706.2304 148.8455 712.8081 157.8234 742.0191 172.1928 710.4441 188.4256 700.1707 206.0249 691.0717 203.7715 682.6941 192.5828 686.8228 179.1167 699.0571 151.0048 Z"/>
<path d="M 446.6359 409.5548 441.5757 401.1715 444.5302 400.4716 469.0299 400.1346 470.187 409.7495 487.5532 417.1937 476.0302 428.9879 473.2627 430.9539 462.8714 438.336 464.447 429.5243 450.0872 432.0122 441.3174 423.2778 444.3107 419.8906 456.5043 423.3418 457.7616 413.4027 446.6359 409.5548 Z"/>
<path d="M 617.6547 281.8306 627.0139 309.3359 626.1146 331.3155 565.3733 331.3488 579.5541 315.9555 559.4987 292.6699 561.3612 291.4764 597.1309 281.2939 617.6547 281.8306 Z"/>
<path d="M 752.4732 217.2099 767.1608 217.3786 786.5955 240.081 786.0618 241.6766 761.3739 233.5625 752.4732 217.2099 Z"/>
<path d="M 219.66 440.4086 236.1302 441.6709 244.8793 454.6416 229.936 454.4136 219.66 440.4086 Z"/>
<path d="M 375.8177 523.5235 382.7087 542.8386 366.2254 549.1307 361.97 560.1919 344.2276 579.7357 330.9805 578.192 337.3367 559.4276 345.6777 544.51 352.0881 519.3154 375.8177 523.5235 Z"/>
<path d="M 351.1652 361.6813 340.202 347.1409 339.3726 340.2065 354.7719 346.354 351.1652 361.6813 Z"/>
<path d="M 305.2024 246.7197 319.4703 270.6002 298.7137 282.9382 266.669 266.0339 261.5234 235.4047 275.6185 246.1295 294.0231 234.7015 305.2024 246.7197 Z"/>
<path d="M 413.7978 433.1361 394.876 438.7861 387.2644 440.7124 386.6854 436.7226 390.7193 432.0248 413.7978 433.1361 Z"/>
<path d="M 441.5757 401.1715 446.6359 409.5548 444.3107 419.8906 441.3174 423.2778 437.4002 420.4305 428.9842 419.3606 428.4113 410.609 441.5757 401.1715 Z"/>
<path d="M 201.7537 431.1787 197.7497 419.9356 232.6645 418.8891 237.8894 418.8683 250.543 428.8351 247.2582 437.4757 244.8793 454.6416 236.1302 441.6709 219.66 440.4086 201.7537 431.1787 Z"/>
<path d="M 422.8291 482.5898 447.1478 482.1378 453.2704 500.8663 438.0291 503.4698 427.5873 508.57 413.2077 510.1417 409.27 511.6622 409.8778 496.8878 422.8291 482.5898 Z"/>
<path d="M 453.3093 119.5787 448.6361 133.2269 447.3257 152.8366 438.0629 153.2557 430.3956 144.8129 405.2 149.9059 399.9408 142.5528 422.9334 120.9981 453.3093 119.5787 Z"/>
<path d="M 480.5346 111.0841 467.2661 96.7062 478.3089 83.0068 488.198 97.8487 510.3016 101.4939 495.2505 128.418 480.5346 111.0841 Z"/>
<path d="M 401.3826 193.2425 401.5192 189.7062 416.3492 197.1658 422.2385 223.9148 415.1634 235.318 404.7224 251.2115 417.9768 260.2375 392.2348 259.3735 382.8027 233.7999 393.3959 230.8513 410.9622 218.2276 401.3826 193.2425 Z"/>
<path d="M 561.3612 291.4764 559.4987 292.6699 531.5622 286.4789 505.0577 293.3943 504.813 276.9758 558.1872 259.8613 562.8388 265.2907 561.3612 291.4764 Z"/>
<path d="M 505.0577 293.3943 531.5622 286.4789 559.4987 292.6699 579.5541 315.9555 565.3733 331.3488 549.5242 331.3538 545.7563 348.4099 543.8652 348.4264 511.7969 342.6646 506.7955 316.3371 505.0577 293.3943 Z"/>
<path d="M 302.739 120.5255 325.946 118.6644 328.1317 126.7637 357.6975 135.5709 359.8819 158.6197 359.0146 170.2792 336.4419 168.4202 316.3781 164.4275 307.4801 148.6536 302.739 120.5255 Z"/>
<path d="M 407.4384 296.1279 427.1318 275.7247 430.9399 275.8485 423.8949 311.5848 431.5919 324.2939 426.3755 329.3699 412.0813 323.6425 407.4384 296.1279 Z"/>
<path d="M 168.8485 329.4663 169.6643 312.0572 186.7846 283.8013 205.9743 276.6874 203.5211 303.2127 219.6842 329.3833 226.0946 347.6255 204.8003 341.7963 198.1513 349.9541 238.7179 372.4143 245.0918 354.4891 268.1417 367.0081 269.5501 377.3002 267.0105 385.4938 245.4267 388.3959 216.8852 382.1734 205.7034 378.9567 182.3655 353.3399 168.8485 329.4663 Z"/>
<path d="M 415.8957 273.4874 417.9768 260.2375 440.1115 259.9089 447.8345 276.5357 430.9399 275.8485 427.1318 275.7247 415.8957 273.4874 Z"/>
<path d="M 653.1873 107.8179 666.2903 106.8954 658.5232 152.8203 651.3645 165.3881 643.7905 159.9172 645.3044 127.5153 653.1873 107.8179 Z"/>
<path d="M 543.8652 348.4264 545.7563 348.4099 540.6634 366.9957 530.0125 366.0273 543.8652 348.4264 Z"/>
<path d="M 462.7017 443.092 462.8714 438.336 473.2627 430.9539 485.7946 449.4443 478.4638 456.9944 461.2643 457.2012 462.7017 443.092 Z"/>
<path d="M 543.0162 465.8783 531.3927 484.5725 518.0593 494.6895 508.9892 508.3755 506.3333 486.0546 515.9528 456.0056 529.2871 453.7652 543.0162 465.8783 Z"/>
<path d="M 562.8388 265.2907 585.8047 252.0391 596.1671 237.6495 613.5382 253.9781 628.0326 256.8353 617.6547 281.8306 597.1309 281.2939 561.3612 291.4764 562.8388 265.2907 Z"/>
<path d="M 569.3202 390.9131 577.9597 390.9281 575.2042 396.9135 571.0748 400.4319 569.3202 390.9131 Z"/>
<path d="M 527.286 520.2978 505.3086 518.5492 508.9892 508.3755 518.0593 494.6895 545.425 514.6139 549.6589 528.031 531.6252 550.1577 520.5428 559.7347 516.5967 556.724 526.1853 531.5768 531.3901 530.7373 527.286 520.2978 Z"/>
<path d="M 392.2348 259.3735 417.9768 260.2375 415.8957 273.4874 396.2615 281.3879 389.8834 284.138 372.8079 285.6652 368.9939 274.7666 378.0637 250.1178 392.2348 259.3735 Z"/>
<path d="M 542.0612 627.1837 564.5 631.8598 568.188 650.5001 546.6083 640.7121 552.2094 638.5928 550.1516 633.3817 542.8678 634.5805 541.7042 639.097 534.1156 643.3211 536.498 630.2191 542.0612 627.1837 Z"/>
<path d="M 440.1115 259.9089 441.484 251.5415 455.8508 246.6278 458.2303 230.7022 467.8971 242.0061 473.8871 252.7713 457.2628 273.7416 453.5157 293.0584 447.8345 276.5357 440.1115 259.9089 Z"/>
<path d="M 237.8894 418.8683 254.8494 407.4811 277.2771 430.6138 269.1266 440.6013 250.543 428.8351 237.8894 418.8683 Z"/>
<path d="M 739.7995 65.0966 715.162 85.2075 711.1413 101.0477 696.2542 126.0744 666.2903 106.8954 653.1873 107.8179 637.3886 87.6567 661.8329 82.095 695.9051 66.4365 711.2481 70.3406 739.7995 65.0966 Z"/>
<path d="M 286.5554 535.2737 296.3133 541.003 292.9013 559.1475 277.4186 566.0542 272.0426 557.4247 286.5554 535.2737 Z"/>
<path d="M 569.3202 390.9131 571.0748 400.4319 555.83 404.0337 562.0574 390.909 569.3202 390.9131 Z"/>
<path d="M 382.1792 416.4019 391.3792 421.5106 390.7193 432.0248 386.6854 436.7226 378.9242 432.7163 382.1792 416.4019 Z"/>
<path d="M 322.8335 482.9651 338.0535 486.9431 346.2792 503.3387 337.5546 531.2876 327.0031 523.8083 320.1317 501.6337 322.8335 482.9651 Z"/>
<path d="M 430.9399 275.8485 447.8345 276.5357 453.5157 293.0584 472.4664 294.5437 455.6854 310.1743 453.4968 332.5063 442.1727 342.2541 431.5919 324.2939 423.8949 311.5848 430.9399 275.8485 Z"/>
<path d="M 313.4407 400.9938 329.851 418.8091 326.7791 423.4754 311.9979 416.5802 295.9785 439.6832 303.3165 413.8836 313.4407 400.9938 Z"/>
<path d="M 316.1143 596.8247 307.5844 589.9468 301.8019 565.7843 328.572 555.7671 337.3367 559.4276 330.9805 578.192 328.9653 604.5035 316.1143 596.8247 Z"/>
<path d="M 338.0462 181.5725 340.8126 192.0632 362.3883 205.7014 376.3109 201.148 386.9821 218.6102 373.1495 227.7936 378.0637 250.1178 368.9939 274.7666 347.7185 290.244 319.4703 270.6002 305.2024 246.7197 323.5742 247.8105 328.1163 238.4978 315.326 206.2457 338.0462 181.5725 Z"/>
<path d="M 187.6015 532.3851 209.725 523.6905 215.3017 511.8285 230.3483 506.7472 238.9562 489.6466 239.0044 489.6494 250.6995 504.1717 231.0862 518.1531 251.6898 539.3576 236.066 551.8858 207.5759 549.6069 187.6015 532.3851 Z"/>
<path d="M 364.9445 312.2126 363.6447 317.0614 338.5127 320.2699 344.4836 303.5342 346.4166 301.6127 364.9445 312.2126 Z"/>
<path d="M 387.6648 386.1118 402.4314 382.0441 404.4776 383.0422 404.9973 397.8486 392.4797 398.1096 387.6648 386.1118 Z"/>
<path d="M 501.8453 512.3019 508.9892 508.3755 505.3086 518.5492 484.8844 532.7979 484.1654 513.783 501.8453 512.3019 Z"/>
<path d="M 412.0813 323.6425 426.3755 329.3699 403.1729 327.632 403.7853 325.4128 412.0813 323.6425 Z"/>
<path d="M 501.8808 608.25 496.0181 613.3562 488.0157 595.9811 493.1167 586.1974 501.8808 608.25 Z"/>
<path d="M 418.4682 388.2819 422.6713 386.1219 445.6095 388.4036 444.5302 400.4716 441.5757 401.1715 428.4113 410.609 419.5425 406.1416 418.4639 406.7196 413.7046 403.7683 418.4682 388.2819 Z"/>
<path d="M 392.1091 97.7165 414.3662 85.9212 422.2841 88.9914 423.9264 71.0376 446.6093 39.5328 465.1391 54.4565 475.5735 39.2596 478.3089 83.0068 467.2661 96.7062 453.3093 119.5787 422.9334 120.9981 399.9408 142.5528 384.1983 138.3297 403.6162 117.2572 392.1091 97.7165 Z"/>
<path d="M 467.8971 242.0061 492.1473 241.0979 488.8776 261.659 472.4664 294.5437 453.5157 293.0584 457.2628 273.7416 473.8871 252.7713 467.8971 242.0061 Z"/>
<path d="M 664.2655 226.4403 661.4061 197.0136 680.6296 176.8537 686.8228 179.1167 682.6941 192.5828 691.0717 203.7715 696.7932 226.8024 714.8172 238.5341 721.5597 256.941 731.6366 282.8402 720.8321 286.4464 703.379 278.7041 688.2347 282.9639 674.13 266.1397 668.1976 241.5457 664.2655 226.4403 Z"/>
<path d="M 441.484 251.5415 440.1115 259.9089 417.9768 260.2375 404.7224 251.2115 415.1634 235.318 441.484 251.5415 Z"/>
<path d="M 386.9636 569.0424 407.1362 575.9641 412.513 575.9963 413.0815 586.8758 377.2867 590.6968 386.9636 569.0424 Z"/>
<path d="M 635.6677 618.5465 613.9939 629.9643 602.6706 617.4 618.9823 601.3051 635.6677 618.5465 Z"/>
<path d="M 409.5919 661.0073 380.0519 669.4327 378.4794 657.0594 407.4269 647.3787 409.5919 661.0073 Z"/>
<path d="M 478.1006 364.1086 483.0082 332.4619 506.7955 316.3371 511.7969 342.6646 543.8652 348.4264 530.0125 366.0273 525.6668 376.1805 503.7011 358.7203 493.1896 370.8346 478.1006 364.1086 Z"/>
<path d="M 335.6811 436.9961 338.5584 421.3069 342.8889 416.0073 367.619 414.4952 373.8205 428.817 371.8196 441.8205 355.4965 447.4873 335.6811 436.9961 Z"/>
<path d="M 96.8189 394.3817 103.4847 403.6819 101.7351 420.324 114.9673 436.2236 109.4084 448.5472 67.6178 441.8362 60.7308 425.3699 76.3494 403.4554 96.8189 394.3817 Z"/>
<path d="M 558.2659 127.3868 552.8098 91.682 590.4339 93.0438 606.2099 109.9994 609.7252 72.2352 637.3886 87.6567 653.1873 107.8179 645.3044 127.5153 643.7905 159.9172 651.3645 165.3881 625.1009 163.5627 618.9966 171.9572 582.2377 186.4313 576.1965 152.7439 558.2659 127.3868 Z"/>
<path d="M 302.2133 703.3465 276.6567 711.5518 262.8796 702.829 268.3683 674.4325 281.2241 683.9146 293.872 669.912 315.3591 685.8163 302.2133 703.3465 Z"/>
<path d="M 368.9939 274.7666 372.8079 285.6652 347.7185 290.244 368.9939 274.7666 Z"/>
<path d="M 326.7791 423.4754 335.6811 436.9961 329.0255 434.6959 321.0254 445.6109 301.0323 454.847 293.2195 441.9778 295.9785 439.6832 311.9979 416.5802 326.7791 423.4754 Z"/>
<path d="M 395.4318 526.5036 395.0452 519.1106 409.27 511.6622 413.2077 510.1417 410.5925 525.9474 429.7729 534.9733 432.3327 545.7431 429.6362 549.4635 414.0068 530.11 395.4318 526.5036 Z"/>
<path d="M 396.2615 281.3879 415.8957 273.4874 427.1318 275.7247 407.4384 296.1279 402.6865 296.7181 398.8834 297.284 396.2615 281.3879 Z"/>
<path d="M 47.4061 526.7094 61.4106 516.3358 69.6185 529.8002 53.0304 539.9797 47.4061 526.7094 Z"/>
<path d="M 692.8568 343.0828 699.1353 373.071 665.3749 377.6885 668.9613 356.8114 660.3549 343.2659 677.8599 335.7633 692.8568 343.0828 Z"/>
<path d="M 46.7975 636.9041 50.7328 610.8637 85.4419 647.6116 102.1225 657.6957 81.6135 676.5663 57.4053 678.3776 41.0675 673.402 44.8723 649.1881 46.7975 636.9041 Z"/>
<path d="M 363.5702 56.2893 373.4579 89.5877 355.9681 112.298 325.946 118.6644 302.739 120.5255 287.2048 93.9536 291.5842 62.8347 306.4958 20.6793 319.4367 4.5979 331.3593 1 320.21 39.3273 333.4559 47.5844 363.5702 56.2893 Z"/>
<path d="M 438.0291 503.4698 453.2704 500.8663 479.6068 501.5769 484.1654 513.783 484.8844 532.7979 494.8281 548.3109 470.3001 559.4796 453.5598 551.3283 429.6362 549.4635 432.3327 545.7431 443.6925 523.4219 438.0291 503.4698 Z"/>
<path d="M 371.8196 441.8205 382.9652 448.5731 383.0107 454.9215 352.9627 453.0221 355.4965 447.4873 371.8196 441.8205 Z"/>
<path d="M 487.5532 417.1937 514.9314 421.6064 512.3388 439.8297 489.6458 439.7993 476.0302 428.9879 487.5532 417.1937 Z"/>
<path d="M 435.1704 622.4411 425.2844 634.5011 403.2669 626.7233 402.6953 625.4384 412.7064 613.1894 435.1704 622.4411 Z"/>
<path d="M 444.3107 419.8906 446.6359 409.5548 457.7616 413.4027 456.5043 423.3418 444.3107 419.8906 Z"/>
<path d="M 391.9085 527.1677 395.4318 526.5036 414.0068 530.11 429.6362 549.4635 417.6973 565.5652 407.1362 575.9641 386.9636 569.0424 372.6727 557.9694 386.8936 554.4389 391.9085 527.1677 Z"/>
<path d="M 448.6361 133.2269 463.5911 139.8667 459.8891 155.9476 447.3257 152.8366 448.6361 133.2269 Z"/>
<path d="M 388.4423 370.8952 396.3178 372.645 402.4314 382.0441 387.6648 386.1118 388.4423 370.8952 Z"/>
<path d="M 548.5469 602.7021 552.4272 599.7939 568.8342 613.0926 564.5 631.8598 542.0612 627.1837 548.5469 602.7021 Z"/>
<path d="M 147.3453 671.9743 165.7772 654.5594 175.333 656.8286 187.4797 661.6517 202.8223 670.6147 273.8908 732.1104 263.4497 745.6742 211.7019 708.4142 172.5949 688.1112 147.3453 671.9743 Z"/>
<path d="M 526.7084 382.9651 525.6668 376.1805 530.0125 366.0273 540.6634 366.9957 541.0596 390.9005 562.0574 390.909 555.83 404.0337 549.0912 417.7058 535.9867 420.0311 526.7084 382.9651 Z"/>
<path d="M 543.0162 465.8783 550.1 465.4705 561.53 482.4558 580.0437 494.7665 558.3242 524.1449 549.6589 528.031 545.425 514.6139 518.0593 494.6895 531.3927 484.5725 543.0162 465.8783 Z"/>
<path d="M 462.7017 443.092 461.2643 457.2012 461.1396 457.3193 453.9995 450.0738 462.7017 443.092 Z"/>
<path d="M 419.5425 406.1416 428.4113 410.609 428.9842 419.3606 425.8437 417.3367 421.3138 418.8191 419.5425 406.1416 Z"/>
<path d="M 428.9842 419.3606 437.4002 420.4305 431.958 428.9267 430.2014 433.7388 425.8437 417.3367 428.9842 419.3606 Z"/>
<path d="M 651.3645 165.3881 658.5232 152.8203 667.6071 178.4748 631.1431 188.0052 637.6766 201.7336 627.1189 213.9749 603.3539 218.1798 590.1499 206.1938 588.8509 204.2946 582.2377 186.4313 618.9966 171.9572 625.1009 163.5627 651.3645 165.3881 Z"/>
<path d="M 602.6706 617.4 613.9939 629.9643 613.5781 637.4117 584.7014 634.0008 588.6053 620.1056 602.6706 617.4 Z"/>
<path d="M 668.1976 241.5457 674.13 266.1397 688.2347 282.9639 693.8227 307.7585 686.018 310.6235 671.5401 283.541 654.5343 265.6611 668.1976 241.5457 Z"/>
<path d="M 505.3086 518.5492 527.286 520.2978 526.1853 531.5768 516.5967 556.724 514.4381 546.6313 494.8281 548.3109 484.8844 532.7979 505.3086 518.5492 Z"/>
<path d="M 402.6865 296.7181 407.4384 296.1279 412.0813 323.6425 403.7853 325.4128 396.5107 321.143 398.0429 315.2728 402.6865 296.7181 Z"/>
<path d="M 480.0353 572.7783 493.1167 586.1974 488.0157 595.9811 479.1373 593.0703 480.0353 572.7783 Z"/>
<path d="M 169.9629 524.2998 187.6015 532.3851 207.5759 549.6069 236.066 551.8858 251.6898 539.3576 231.0862 518.1531 250.6995 504.1717 269.081 514.8603 286.5554 535.2737 272.0426 557.4247 277.4186 566.0542 268.2127 578.9384 302.8147 597.8614 315.0513 620.384 290.076 618.1087 264.7285 622.3227 260.2535 635.6608 234.3887 640.9441 228.9617 635.7985 227.9844 617.4626 218.5566 590.6692 205.225 589.2535 175.5813 566.1494 165.2515 535.7655 169.9629 524.2998 Z"/>
<path d="M 442.1727 342.2541 453.4968 332.5063 483.0082 332.4619 478.1006 364.1086 472.5612 384.3593 469.0299 400.1346 444.5302 400.4716 445.6095 388.4036 438.841 369.8393 442.1727 342.2541 Z"/>
<path d="M 196.1532 729.3521 169.4733 724.7566 166.1157 693.7432 172.5949 688.1112 211.7019 708.4142 263.4497 745.6742 252.0383 762.8229 234.8207 745.3172 232.9511 735.2921 208.6209 720.4485 196.1532 729.3521 Z"/>
<path d="M 699.0571 151.0048 686.8228 179.1167 680.6296 176.8537 667.6071 178.4748 658.5232 152.8203 666.2903 106.8954 696.2542 126.0744 699.0571 151.0048 Z"/>
<path d="M 378.5513 308.0954 381.1658 308.5497 368.6633 324.4221 363.6447 317.0614 364.9445 312.2126 378.5513 308.0954 Z"/>
<path d="M 366.6308 491.3339 380.9649 488.2281 381.614 489.5606 395.0452 519.1106 395.4318 526.5036 391.9085 527.1677 385.1866 515.2656 366.6308 491.3339 Z"/>
<path d="M 423.0373 374.8395 438.841 369.8393 445.6095 388.4036 422.6713 386.1219 423.0373 374.8395 Z"/>
<path d="M 252.8555 325.5893 238.4977 305.3922 254.8896 308.7209 272.9349 289.1637 266.9495 279.4224 274.8144 285.1007 274.0956 304.4491 282.016 322.9473 296.3564 337.3241 284.504 341.5936 272.9559 330.1816 252.8555 325.5893 Z"/>
<path d="M 397.9619 181.6514 401.5192 189.7062 401.3826 193.2425 388.3025 203.1301 378.7222 196.4926 381.4305 176.6393 397.9619 181.6514 Z"/>
<path d="M 401.9058 345.8398 396.3178 372.645 388.4423 370.8952 387.4717 366.6928 401.9058 345.8398 Z"/>
<path d="M 739.9833 65.1073 756.6838 66.0703 752.9571 86.6188 765.5564 102.71 763.2552 136.1594 739.1968 146.8574 706.2304 148.8455 699.0571 151.0048 696.2542 126.0744 711.1413 101.0477 747.2028 100.7675 747.9864 82.7659 739.9833 65.1073 Z"/>
<path d="M 247.2582 437.4757 250.543 428.8351 269.1266 440.6013 277.2771 430.6138 280.0901 429.7377 289.0121 440.5292 281.7861 452.0782 274.1523 449.4291 247.2582 437.4757 Z"/>
<path d="M 254.8494 407.4811 237.8894 418.8683 232.6645 418.8891 222.8553 393.139 221.8757 388.8685 254.8494 407.4811 Z"/>
<path d="M 571.0748 400.4319 575.2042 396.9135 600.4375 403.5795 609.453 426.8766 583.3257 465.9312 582.8241 485.4047 580.0437 494.7665 561.53 482.4558 550.1 465.4705 542.5209 439.8464 530.5709 419.2362 535.9867 420.0311 549.0912 417.7058 555.83 404.0337 571.0748 400.4319 Z"/>
<path d="M 329.0255 434.6959 335.6811 436.9961 355.4965 447.4873 352.9627 453.0221 337.3729 459.4391 330.4763 461.9606 329.0255 434.6959 Z"/>
<path d="M 376.3109 201.148 365.7638 176.4932 373.4456 161.4352 381.4305 176.6393 378.7222 196.4926 388.3025 203.1301 401.3826 193.2425 410.9622 218.2276 393.3959 230.8513 386.9821 218.6102 376.3109 201.148 Z"/>
<path d="M 125.1264 539.001 132.8544 547.7269 135.2501 564.168 111.3299 563.9679 102.7558 558.0357 83.7313 538.7406 100.2547 530.5363 125.1264 539.001 Z"/>
<path d="M 265.3815 461.1614 274.1523 449.4291 281.7861 452.0782 290.001 461.2592 283.9285 476.3477 267.6971 472.1605 265.3815 461.1614 Z"/>
<path d="M 288.9638 410.9581 293.0441 407.4358 303.3165 413.8836 295.9785 439.6832 293.2195 441.9778 289.0121 440.5292 280.0901 429.7377 288.9638 410.9581 Z"/>
<path d="M 381.4305 176.6393 373.4456 161.4352 371.7354 157.4893 388.8705 150.4099 405.6357 166.4481 427.5764 167.7485 438.0629 153.2557 447.3257 152.8366 459.8891 155.9476 475.3917 160.6903 466.0181 171.571 442.7933 171.3357 443.2271 182.1063 432.1697 191.8532 420.0263 176.9317 397.9619 181.6514 381.4305 176.6393 Z"/>
<path d="M 356.0798 642.7202 380.5333 626.2473 396.8292 636.1262 403.2669 626.7233 425.2844 634.5011 435.1704 622.4411 435.7081 621.2231 448.5916 614.9547 466.8937 638.2917 448.4918 644.8049 418.031 673.2515 409.5919 661.0073 407.4269 647.3787 378.4794 657.0594 356.0798 642.7202 Z"/>
<path d="M 360.1539 409.8919 367.619 414.4952 342.8889 416.0073 360.1539 409.8919 Z"/>
<path d="M 187.4797 661.6517 205.2799 633.6632 219.0098 641.9932 254.7142 699.0391 262.8796 702.829 276.6567 711.5518 283.4552 726.4591 273.8908 732.1104 202.8223 670.6147 187.4797 661.6517 Z"/>
<path d="M 439.0995 434.8623 431.958 428.9267 437.4002 420.4305 441.3174 423.2778 450.0872 432.0122 448.5905 441.3119 443.2642 444.0846 439.0995 434.8623 Z"/>
<path d="M 333.5794 618.5106 336.1402 616.2967 355.8616 613.9304 368.2391 603.7961 389.8582 611.8296 402.6953 625.4384 403.2669 626.7233 396.8292 636.1262 380.5333 626.2473 356.0798 642.7202 348.6812 644.7582 341.9528 638.4926 333.5794 618.5106 Z"/>
<path d="M 439.0995 434.8623 443.2642 444.0846 453.9995 450.0738 441.3474 460.756 445.0395 471.4769 434.5866 465.0242 420.7108 476.0032 413.8643 463.4534 419.8557 450.5352 426.5851 445.9772 439.0995 434.8623 Z"/>
<path d="M 485.6107 476.4586 506.3333 486.0546 508.9892 508.3755 501.8453 512.3019 487.4866 495.6622 485.6107 476.4586 Z"/>
<path d="M 741.8543 213.897 768.0404 200.031 767.1608 217.3786 752.4732 217.2099 745.6725 219.7298 738.9852 219.8554 741.8543 213.897 Z"/>
<path d="M 339.3726 340.2065 338.5127 320.2699 363.6447 317.0614 368.6633 324.4221 382.7148 333.8618 381.0581 349.0063 360.3688 358.2068 351.1652 361.6813 354.7719 346.354 339.3726 340.2065 Z"/>
<path d="M 348.6812 644.7582 356.0798 642.7202 378.4794 657.0594 380.0519 669.4327 350.5615 668.5359 348.6812 644.7582 Z"/>
<path d="M 260.2535 635.6608 264.7285 622.3227 290.076 618.1087 312.6669 629.5091 333.5794 618.5106 341.9528 638.4926 323.0987 653.6815 324.32 677.5341 315.3591 685.8163 293.872 669.912 281.2241 683.9146 268.3683 674.4325 249.1823 661.0159 271.5563 648.3168 260.2535 635.6608 Z"/>
<path d="M 472.4664 294.5437 488.8776 261.659 504.813 276.9758 505.0577 293.3943 506.7955 316.3371 483.0082 332.4619 453.4968 332.5063 455.6854 310.1743 472.4664 294.5437 Z"/>
<path d="M 386.9821 218.6102 393.3959 230.8513 382.8027 233.7999 392.2348 259.3735 378.0637 250.1178 373.1495 227.7936 386.9821 218.6102 Z"/>
<path d="M 417.6973 565.5652 412.513 575.9963 407.1362 575.9641 417.6973 565.5652 Z"/>
<path d="M 232.6645 418.8891 197.7497 419.9356 177.8201 405.5236 193.3635 397.6035 205.592 408.2534 222.8553 393.139 232.6645 418.8891 Z"/>
<path d="M 439.0995 434.8623 426.5851 445.9772 427.3013 433.1308 430.2014 433.7388 431.958 428.9267 439.0995 434.8623 Z"/>
<path d="M 552.4272 599.7939 573.0832 591.977 585.9204 594.3314 608.7788 585.3694 610.4043 563.897 621.6884 544.036 651.002 560.3933 639.7346 584.3366 644.9654 610.6803 635.6677 618.5465 618.9823 601.3051 602.6706 617.4 588.6053 620.1056 584.7014 634.0008 586.4668 650.9896 568.188 650.5001 564.5 631.8598 568.8342 613.0926 552.4272 599.7939 Z"/>
<path d="M 756.6838 66.0703 739.9833 65.1073 739.7995 65.0966 711.2481 70.3406 695.9051 66.4365 707.2143 55.7578 739.4139 55.9752 756.6838 66.0703 Z"/>
<path d="M 418.4639 406.7196 419.5425 406.1416 421.3138 418.8191 416.4239 429.6281 413.7978 433.1361 390.7193 432.0248 391.3792 421.5106 404.1546 405.4734 418.4639 406.7196 Z"/>
<path d="M 247.2582 437.4757 274.1523 449.4291 265.3815 461.1614 239.2525 480.3169 239.0044 489.6494 238.9562 489.6466 220.4213 472.836 220.8571 464.9212 203.6944 436.1198 201.7537 431.1787 219.66 440.4086 229.936 454.4136 244.8793 454.6416 247.2582 437.4757 Z"/>
<path d="M 435.7081 621.2231 443.4744 601.908 456.0355 597.5159 474.7454 612.6866 483.3921 628.4941 471.4368 636.377 466.8937 638.2917 448.5916 614.9547 435.7081 621.2231 Z"/>
<path d="M 464.447 429.5243 462.8714 438.336 462.7017 443.092 453.9995 450.0738 443.2642 444.0846 448.5905 441.3119 464.447 429.5243 Z"/>
<path d="M 386.7798 442.2889 387.5717 458.4955 383.2952 458.4114 383.0107 454.9215 382.9652 448.5731 386.7798 442.2889 Z"/>
<path d="M 277.4186 566.0542 292.9013 559.1475 301.8019 565.7843 307.5844 589.9468 316.1143 596.8247 302.8147 597.8614 268.2127 578.9384 277.4186 566.0542 Z"/>
<path d="M 122.8416 436.8898 154.7132 394.4436 171.8366 413.4797 171.3592 430.8679 179.368 451.039 150.651 457.202 139.0377 453.9648 122.8416 436.8898 Z"/>
<path d="M 520.5428 559.7347 531.6252 550.1577 548.2818 556.95 566.1968 537.2385 558.3242 524.1449 580.0437 494.7665 582.8241 485.4047 605.605 488.2596 602.5769 500.2897 624.4628 529.7235 623.1086 539.1754 599.8874 514.9827 583.8986 522.7661 575.0358 554.2501 579.2311 574.8099 573.0832 591.977 552.4272 599.7939 548.5469 602.7021 536.9896 596.9609 515.5509 589.8739 520.5428 559.7347 Z"/>
<path d="M 600.4375 403.5795 605.7039 390.9278 646.5172 390.9411 644.9986 410.6709 630.0273 440.4574 653.3499 461.7679 664.7761 496.1877 624.4628 529.7235 602.5769 500.2897 605.605 488.2596 582.8241 485.4047 583.3257 465.9312 609.453 426.8766 600.4375 403.5795 Z"/>
<path d="M 515.5509 589.8739 536.9896 596.9609 528.2229 616.508 536.498 630.2191 534.1156 643.3211 480.7565 640.7567 471.4368 636.377 483.3921 628.4941 496.0181 613.3562 501.8808 608.25 515.5509 589.8739 Z"/>
<path d="M 337.3729 459.4391 352.9627 453.0221 383.0107 454.9215 383.2952 458.4114 382.5305 483.3551 380.9649 488.2281 366.6308 491.3339 346.2792 503.3387 338.0535 486.9431 337.3729 459.4391 Z"/>
<path d="M 413.8643 463.4534 420.7108 476.0032 420.7138 476.0065 414.8852 479.0857 407.1139 472.8418 413.8643 463.4534 Z"/>
<path d="M 372.8079 285.6652 389.8834 284.138 381.2512 302.84 378.5513 308.0954 364.9445 312.2126 346.4166 301.6127 347.7185 290.244 372.8079 285.6652 Z"/>
<path d="M 527.286 520.2978 531.3901 530.7373 526.1853 531.5768 527.286 520.2978 Z"/>
<path d="M 341.9528 638.4926 348.6812 644.7582 350.5615 668.5359 344.9823 676.2363 324.32 677.5341 323.0987 653.6815 341.9528 638.4926 Z"/>
<path d="M 234.8207 745.3172 196.1532 729.3521 208.6209 720.4485 232.9511 735.2921 234.8207 745.3172 Z"/>
<path d="M 287.2048 93.9536 302.739 120.5255 307.4801 148.6536 316.3781 164.4275 336.4419 168.4202 338.0462 181.5725 315.326 206.2457 328.1163 238.4978 323.5742 247.8105 305.2024 246.7197 294.0231 234.7015 275.6185 246.1295 261.5234 235.4047 262.2998 214.0836 270.7053 203.4944 262.1376 179.2608 260.6401 141.5111 271.114 115.7224 287.2048 93.9536 Z"/>
<path d="M 328.9653 604.5035 333.275 609.6698 315.0513 620.384 302.8147 597.8614 316.1143 596.8247 328.9653 604.5035 Z"/>
<path d="M 499.3345 129.2016 520.5402 125.8912 533.6536 152.9667 536.7328 161.2193 519.7911 170.02 504.1452 187.3863 492.6094 181.7836 486.429 154.6135 499.3345 129.2016 Z"/>
<path d="M 486.429 154.6135 492.6094 181.7836 468.287 195.2081 458.2303 230.7022 455.8508 246.6278 441.484 251.5415 415.1634 235.318 422.2385 223.9148 440.7223 209.2148 453.5786 202.4765 461.53 177.9196 484.4043 174.6523 486.429 154.6135 Z"/>
<path d="M 447.1478 482.1378 445.5111 475.1727 455.8589 471.2057 476.7777 469.0422 485.6107 476.4586 487.4866 495.6622 501.8453 512.3019 484.1654 513.783 479.6068 501.5769 453.2704 500.8663 447.1478 482.1378 Z"/>
<path d="M 205.9743 276.6874 214.8756 281.4679 235.6518 267.4988 225.6443 298.8728 238.4977 305.3922 252.8555 325.5893 231.9357 324.2104 219.6842 329.3833 203.5211 303.2127 205.9743 276.6874 Z"/>
<path d="M 231.9357 324.2104 252.8555 325.5893 272.9559 330.1816 284.504 341.5936 298.9017 365.838 298.614 386.409 269.5501 377.3002 268.1417 367.0081 245.0918 354.4891 231.9357 324.2104 Z"/>
<path d="M 221.8757 388.8685 216.8852 382.1734 245.4267 388.3959 267.0105 385.4938 282.8292 397.3585 288.9638 410.9581 280.0901 429.7377 277.2771 430.6138 254.8494 407.4811 221.8757 388.8685 Z"/>
<path d="M 473.2627 430.9539 476.0302 428.9879 489.6458 439.7993 512.3388 439.8297 514.9314 421.6064 526.5095 416.6935 530.5709 419.2362 542.5209 439.8464 550.1 465.4705 543.0162 465.8783 529.2871 453.7652 515.9528 456.0056 506.3333 486.0546 485.6107 476.4586 476.7777 469.0422 478.4638 456.9944 485.7946 449.4443 473.2627 430.9539 Z"/>
<path d="M 461.1396 457.3193 461.2643 457.2012 478.4638 456.9944 476.7777 469.0422 455.8589 471.2057 461.1396 457.3193 Z"/>
<path d="M 417.6973 565.5652 429.6362 549.4635 453.5598 551.3283 470.3001 559.4796 480.0353 572.7783 479.1373 593.0703 474.7454 612.6866 456.0355 597.5159 443.4744 601.908 423.0907 598.8434 413.0815 586.8758 412.513 575.9963 417.6973 565.5652 Z"/>
<path d="M 613.5781 637.4117 586.4668 650.9896 584.7014 634.0008 613.5781 637.4117 Z"/>
<path d="M 763.2552 136.1594 761.8514 174.0616 742.0191 172.1928 712.8081 157.8234 706.2304 148.8455 739.1968 146.8574 763.2552 136.1594 Z"/>
<path d="M 709.3227 210.5649 741.8543 213.897 738.9852 219.8554 712.9617 219.1605 709.3227 210.5649 Z"/>
<path d="M 478.1006 364.1086 493.1896 370.8346 503.7011 358.7203 525.6668 376.1805 526.7084 382.9651 507.0235 376.8611 504.5959 401.0439 472.5612 384.3593 478.1006 364.1086 Z"/>
<path d="M 394.876 438.7861 413.7978 433.1361 416.4239 429.6281 427.3013 433.1308 426.5851 445.9772 419.8557 450.5352 412.5977 439.4233 394.876 438.7861 Z"/>
<path d="M 302.2133 703.3465 295.812 722.0411 283.4552 726.4591 276.6567 711.5518 302.2133 703.3465 Z"/>
<path d="M 371.7354 157.4893 359.8819 158.6197 357.6975 135.5709 384.1983 138.3297 399.9408 142.5528 405.2 149.9059 430.3956 144.8129 438.0629 153.2557 427.5764 167.7485 405.6357 166.4481 388.8705 150.4099 371.7354 157.4893 Z"/>
<path d="M 389.8834 284.138 396.2615 281.3879 398.8834 297.284 381.2512 302.84 389.8834 284.138 Z"/>
<path d="M 427.5873 508.57 438.0291 503.4698 443.6925 523.4219 432.3327 545.7431 429.7729 534.9733 434.0616 519.9409 427.5873 508.57 Z"/>
<path d="M 359.8819 158.6197 371.7354 157.4893 373.4456 161.4352 365.7638 176.4932 376.3109 201.148 362.3883 205.7014 340.8126 192.0632 338.0462 181.5725 336.4419 168.4202 359.0146 170.2792 359.8819 158.6197 Z"/>
<path d="M 373.8205 428.817 378.9242 432.7163 386.6854 436.7226 387.2644 440.7124 386.7798 442.2889 382.9652 448.5731 371.8196 441.8205 373.8205 428.817 Z"/>
<path d="M 445.0395 471.4769 445.5111 475.1727 447.1478 482.1378 422.8291 482.5898 420.7138 476.0065 420.7108 476.0032 434.5866 465.0242 445.0395 471.4769 Z"/>
<path d="M 727.9 256.5817 731.6366 282.8402 721.5597 256.941 727.9 256.5817 Z M 745.6725 219.7298 752.4732 217.2099 761.3739 233.5625 786.0618 241.6766 788.1076 253.6756 779.2889 269.7872 757.6684 268.89 753.8241 256.5344 734.1051 244.5119 748.8213 230.9846 745.6725 219.7298 Z"/>
<path d="M 363.5702 56.2893 422.2841 88.9914 414.3662 85.9212 392.1091 97.7165 362.3458 114.1721 355.9681 112.298 373.4579 89.5877 363.5702 56.2893 Z"/>
<path d="M 375.8177 523.5235 385.1866 515.2656 391.9085 527.1677 386.8936 554.4389 372.6727 557.9694 361.97 560.1919 366.2254 549.1307 382.7087 542.8386 375.8177 523.5235 Z"/>
<path d="M 155.611 389.2679 151.0633 375.629 149.1151 366.3862 168.8485 329.4663 182.3655 353.3399 205.7034 378.9567 216.8852 382.1734 221.8757 388.8685 222.8553 393.139 205.592 408.2534 193.3635 397.6035 177.8201 405.5236 155.611 389.2679 Z"/>
<path d="M 413.2077 510.1417 427.5873 508.57 434.0616 519.9409 429.7729 534.9733 410.5925 525.9474 413.2077 510.1417 Z"/>
<path d="M 479.1373 593.0703 488.0157 595.9811 496.0181 613.3562 483.3921 628.4941 474.7454 612.6866 479.1373 593.0703 Z"/>
</g>
</svg>