<?xml version="1.0"?>
<svg xmlns="http://www.w3.org/2000/svg" version="1.2" baseProfile="tiny" width="800" height="1110" viewBox="0 0 800 1110" stroke-linecap="round" stroke-linejoin="round">
<g id="21MUE250GC_SIR">
<path d="M 453.0821 460.1334 453.6119 460.7988 470.9225 474.5767 471.8807 492.9818 465.0516 498.1571 451.1689 487.816 453.0821 460.1334 Z"/>
<path d="M 414.9301 688.5321 435.0935 685.753 446.4801 717.3943 435.5264 750.717 411.0682 779.1026 399.3646 781.5544 417.514 704.4512 414.9301 688.5321 Z"/>
<path d="M 482.8196 436.9298 488.9758 423.8291 507.3852 420.1124 507.2121 444.6732 492.0284 457.4094 482.8196 436.9298 Z"/>
<path d="M 357.9467 388.2456 358.3931 364.1945 368.4163 340.2076 379.006 374.0625 396.7406 395.9597 394.219 406.2198 358.4347 409.5663 357.9467 388.2456 Z"/>
<path d="M 431.8791 316.913 457.1 336.4486 457.073 337.5148 455.5878 337.9567 414.9435 340.5984 404.52 322.3959 431.8791 316.913 Z"/>
<path d="M 248.1192 518.0908 248.1186 557.1254 231.1601 568.7617 199.4526 568.325 193.1441 586.7054 173.2204 553.4618 178.1461 520.637 180.4019 502.4634 178.0367 477.1658 176.5451 459.3506 231.7153 459.3974 277.3485 459.8409 286.0989 459.7302 274.3592 483.1022 250.1541 504.3527 248.1192 518.0908 Z"/>
<path d="M 456.4479 84.258 464.5561 99.7675 445.5662 108.9956 442.6987 99.7663 456.4479 84.258 Z"/>
<path d="M 382.837 96.1985 388.0776 95.5857 386.6488 117.9254 368.5404 147.701 332.0587 156.7713 326.6118 140.5729 332.0802 137.0088 332.9514 125.8806 371.6888 116.7729 382.837 96.1985 Z"/>
<path d="M 435.0935 685.753 454.5949 681.6171 469.5542 690.0395 481.6756 700.617 466.1137 722.4527 446.4801 717.3943 435.0935 685.753 Z"/>
<path d="M 428.7862 417.4073 428.0946 411.4599 440.3669 411.2495 440.3716 424.8116 439.4319 442.4317 415.6902 440.2012 428.7862 417.4073 Z"/>
<path d="M 552.9301 661.2939 556.6154 665.2298 505.1154 689.3531 491.4025 712.6059 481.6756 700.617 469.5542 690.0395 524.176 643.8994 540.0549 665.0712 552.9301 661.2939 Z"/>
<path d="M 642.6582 410.2137 658.68 403.0065 670.8381 414.2047 658.2201 439.775 666.0074 464.722 647.9557 468.6819 647.4368 486.6873 627.6795 494.8982 562.745 515.0143 553.6318 512.0744 557.434 510.7589 586.1349 475.7874 584.0558 462.7661 552.213 452.042 581.7162 436.0373 603.7447 432.5958 620.8121 442.5879 642.6582 410.2137 Z"/>
<path d="M 458.1239 601.0645 465.4737 577.1349 473.8583 582.3892 498.873 593.4692 520.2149 579.5857 522.0566 576.673 542.808 599.5808 535.2968 634.9138 519.0855 641.7033 510.3457 630.0972 493.0682 602.0477 458.1239 601.0645 Z"/>
<path d="M 341.5032 354.4526 358.3931 364.1945 357.9467 388.2456 337.4194 379.8167 341.5032 354.4526 Z"/>
<path d="M 185.139 622.8431 202.9698 622.0233 199.1096 682.0309 181.8113 681.5016 148.7265 678.1598 140.8983 668.6791 151.0679 646.4101 185.139 622.8431 Z"/>
<path d="M 335.493 24.8783 309.0833 65.433 296.0996 61.4886 313.521 35.1281 312.9329 13.6954 313.8306 14.2677 314.7753 14.9158 335.493 24.8783 Z"/>
<path d="M 384.3665 360.0392 408.4674 351.6878 408.2897 369.8477 396.7406 395.9597 379.006 374.0625 384.3665 360.0392 Z"/>
<path d="M 435.6916 194.3506 444.8315 189.3327 463.7373 185.4792 452.2176 210.8151 431.7172 209.9695 435.6916 194.3506 Z"/>
<path d="M 19.4108 468.3841 38.1233 453.7104 58.4496 498.3558 52.8262 506.6124 17.8831 506.1208 19.4108 468.3841 Z"/>
<path d="M 583.2894 239.1398 597.2269 232.5651 613.9316 237.1745 589.754 263.7669 579.2662 263.1597 578.9979 255.4182 583.2894 239.1398 Z"/>
<path d="M 568.0397 175.5744 596.6033 172.1096 597.2269 232.5651 583.2894 239.1398 562.1231 190.4669 568.0397 175.5744 Z"/>
<path d="M 329.4096 325.105 337.0325 345.7214 341.5032 354.4526 337.4194 379.8167 314.6449 386.4201 309.8014 407.9651 323.1721 423.2188 322.9225 423.9302 297.6705 430.8098 286.0989 459.7302 277.3485 459.8409 263.6928 447.4325 268.8787 424.1058 254.945 392.6616 276.883 360.2233 329.4096 325.105 Z"/>
<path d="M 464.6106 239.9868 463.6807 240.6305 460.7094 240.751 459.3224 239.4826 464.6106 239.9868 Z M 431.6689 210.1154 431.7172 209.9695 452.2176 210.8151 451.9917 221.5066 435.0164 220.9145 431.6689 210.1154 Z"/>
<path d="M 404.8447 439.9866 415.6902 440.2012 439.4319 442.4317 461.1794 449.1551 452.9398 459.8833 411.4838 456.1963 404.7538 466.8445 404.8447 439.9866 Z"/>
<path d="M 620.2995 364.9953 627.3325 358.2431 630.772 359.2392 659.7438 376.3075 658.68 403.0065 642.6582 410.2137 627.1463 400.3943 620.2995 364.9953 Z"/>
<path d="M 515.3037 505.4162 529.156 497.7606 557.434 510.7589 553.6318 512.0744 546.8717 516.5276 519.6473 519.9611 515.3037 505.4162 Z"/>
<path d="M 400.8348 266.6369 425.1723 268.9776 426.266 276.5912 405.8974 303.8899 394.8038 303.4301 399.5595 285.5787 378.0768 279.6271 400.8348 266.6369 Z"/>
<path d="M 609.4561 641.4596 666.4698 660.3714 652.4121 690.8045 627.1238 691.7206 597.4411 701.8142 603.8338 673.1544 609.4561 641.4596 Z"/>
<path d="M 103.4734 701.1175 134.5855 718.85 173.7847 722.8255 180.4477 722.6432 200.4762 744.4791 153.4545 773.3742 140.4804 798.1165 189.9717 811.3743 190.2177 836.0694 159.1871 842.6918 125.9147 797.8972 106.3529 778.8967 105.989 756.2031 86.4779 738.8908 100.0955 722.7955 103.4734 701.1175 Z"/>
<path d="M 383.2603 228.8398 394.4357 224.8496 398.0844 226.1846 392.6129 242.7193 418.8712 253.9586 432.742 242.5401 449.2849 252.9919 440.3225 270.7004 425.1723 268.9776 400.8348 266.6369 370.9338 249.8164 383.2603 228.8398 Z"/>
<path d="M 296.4154 515.4967 319.8859 526.3302 324.3167 550.766 339.7642 566.1405 364.0431 590.8123 307.7249 635.6486 280.0252 628.9152 231.7311 633.2185 231.1601 568.7617 248.1186 557.1254 248.1192 518.0908 265.4708 510.4009 296.4154 515.4967 Z"/>
<path d="M 456.4479 84.258 442.6987 99.7663 418.7922 106.3197 427.4831 66.5392 456.4479 84.258 Z M 423.086 64.8495 419.3442 66.3338 415.7478 60.3944 415.4057 59.5554 423.086 64.8495 Z"/>
<path d="M 281.0696 119.1956 294.5618 88.1174 303.7619 86.8301 303.7329 89.3948 289.8365 131.5286 270.2699 140.0747 281.0696 119.1956 Z"/>
<path d="M 438.4884 499.5483 451.1689 487.816 465.0516 498.1571 464.5108 525.732 440.6744 538.2148 450.2581 557.8236 473.7963 547.535 465.4737 577.1349 458.1239 601.0645 434.0381 613.3056 418.8405 573.3939 413.5669 553.5935 418.7043 524.5592 438.4884 499.5483 Z"/>
<path d="M 366.6534 693.8156 370.5727 693.9648 377.6828 731.4558 331.339 794.1187 354.3045 801.9843 344.506 825.1777 309.8565 819.3077 313.2401 844.5477 305.2736 819.8549 313.0033 808.5608 310.2961 776.0326 328.0477 769.667 345.0005 755.8717 366.6534 693.8156 Z"/>
<path d="M 476.2319 302.7646 482.5711 298.9386 520.5401 299.6767 525.3471 320.0451 496.4736 327.4092 476.2319 302.7646 Z"/>
<path d="M 335.493 24.8783 351.884 30.9808 351.9302 49.8141 336.4133 59.7409 323.1997 85.0905 334.1017 107.0197 332.9514 125.8806 332.0802 137.0088 325.3521 109.6782 303.7329 89.3948 303.7619 86.8301 309.0833 65.433 335.493 24.8783 Z"/>
<path d="M 473.9817 371.7599 473.2583 389.8914 441.3073 390.1076 425.1028 402.6959 400.2737 392.473 408.2897 369.8477 428.8982 369.743 455.3064 338.8886 454.0064 357.3399 473.9817 371.7599 Z"/>
<path d="M 536.2487 536.9215 511.1889 563.4206 505.7611 533.9175 506.062 533.9058 536.2487 536.9215 Z"/>
<path d="M 453.6119 460.7988 472.187 435.0335 482.8196 436.9298 492.0284 457.4094 487.7177 464.7424 470.9225 474.5767 453.6119 460.7988 Z"/>
<path d="M 471.8807 492.9818 488.6856 490.8947 488.3788 491.8577 487.6772 511.1966 479.2668 534.6982 476.6705 537.9415 464.5108 525.732 465.0516 498.1571 471.8807 492.9818 Z"/>
<path d="M 504.3723 170.5927 508.887 169.0214 523.6238 171.5994 524.8499 169.6468 509.8636 198.3093 504.3723 170.5927 Z"/>
<path d="M 476.9537 371.6975 491.9687 339.5408 532.0842 336.8632 543.9043 352.2009 538.8656 396.6947 519.8464 416.119 498.672 389.7535 476.9537 371.6975 Z"/>
<path d="M 510.3457 630.0972 519.0855 641.7033 524.176 643.8994 469.5542 690.0395 454.5949 681.6171 510.3457 630.0972 Z"/>
<path d="M 364.0431 590.8123 418.8405 573.3939 434.0381 613.3056 413.9374 640.3365 383.5154 637.6112 361.3077 651.1836 323.8926 655.8733 307.5735 671.9055 307.7249 635.6486 364.0431 590.8123 Z"/>
<path d="M 654.2358 301.7382 677.3286 298.959 697.0288 311.3431 686.4317 341.9282 650.5957 324.2237 654.2358 301.7382 Z"/>
<path d="M 408.4674 351.6878 414.9435 340.5984 455.5878 337.9567 455.3064 338.8886 428.8982 369.743 408.2897 369.8477 408.4674 351.6878 Z"/>
<path d="M 520.5401 299.6767 521.3008 292.7766 533.1143 295.4063 553.9107 292.4974 578.974 309.7188 564.0889 348.1237 543.9043 352.2009 532.0842 336.8632 525.3471 320.0451 520.5401 299.6767 Z"/>
<path d="M 398.3336 407.4376 404.1129 414.3843 404.6904 439.3906 404.8447 439.9866 404.7538 466.8445 404.8164 468.9769 386.3183 477.3357 380.6845 479.3306 371.1979 454.1057 357.9571 449.5618 367.7706 434.7997 384.7344 429.2823 398.3336 407.4376 Z"/>
<path d="M 463.7373 185.4792 444.8315 189.3327 444.8316 189.3324 452.9105 149.0087 475.0663 130.7045 487.7204 153.9389 463.7373 185.4792 Z"/>
<path d="M 513.1712 206.3315 521.6284 203.3826 525.0651 211.166 523.5684 222.2649 523.6814 223.096 514.5955 228.1577 513.1712 206.3315 Z"/>
<path d="M 270.2699 140.0747 289.8365 131.5286 289.4799 145.8922 279.0631 195.8327 257.6418 187.1461 270.2699 140.0747 Z"/>
<path d="M 396.7406 395.9597 408.2897 369.8477 400.2737 392.473 425.1028 402.6959 404.1129 414.3843 398.3336 407.4376 394.219 406.2198 396.7406 395.9597 Z"/>
<path d="M 398.0844 226.1846 420.7333 239.3854 432.742 242.5401 418.8712 253.9586 392.6129 242.7193 398.0844 226.1846 Z"/>
<path d="M 161.255 622.9599 185.139 622.8431 151.0679 646.4101 140.8983 668.6791 115.0453 659.4306 120.4522 629.3794 134.1358 633.9188 161.255 622.9599 Z"/>
<path d="M 476.6705 537.9415 473.7963 547.535 450.2581 557.8236 440.6744 538.2148 464.5108 525.732 476.6705 537.9415 Z"/>
<path d="M 373.208 162.9481 376.1916 198.2124 366.2442 203.5997 353.2154 203.7293 351.1664 172.7407 373.208 162.9481 Z"/>
<path d="M 306.3262 686.6153 340.1164 698.614 366.6534 693.8156 345.0005 755.8717 328.0477 769.667 303.9568 755.5647 284.9662 698.5212 306.3262 686.6153 Z"/>
<path d="M 200.4762 744.4791 233.4086 728.5736 264.1421 751.8416 267.9805 764.9085 241.1096 777.0634 231.5239 813.5702 239.522 869.3519 231.0864 893.0493 199.9231 888.5484 222.1553 880.746 231.5684 850.5453 214.7433 829.3833 190.2177 836.0694 189.9717 811.3743 140.4804 798.1165 153.4545 773.3742 200.4762 744.4791 Z"/>
<path d="M 368.4266 502.6095 369.5289 492.298 413.1135 491.5408 417.5792 480.2758 438.4884 499.5483 418.7043 524.5592 413.5669 553.5935 418.8405 573.3939 364.0431 590.8123 339.7642 566.1405 358.5381 531.7791 350.9488 513.6598 368.4266 502.6095 Z"/>
<path d="M 380.6845 479.3306 386.3183 477.3357 413.1135 491.5408 369.5289 492.298 375.7065 484.2205 380.6845 479.3306 Z"/>
<path d="M 306.8358 17.3915 286.2329 55.1335 281.3903 81.5978 279.8717 79.9049 268.614 67.1883 272.0455 17.0731 286.0239 1.2976 306.8358 17.3915 Z"/>
<path d="M 404.6591 178.8796 414.6591 168.835 444.8316 189.3324 444.8315 189.3327 435.6916 194.3506 429.1144 193.1194 404.6591 178.8796 Z"/>
<path d="M 125.1149 576.7027 143.6163 601.4554 137.3349 612.2304 114.44 607.307 112.9761 578.4431 125.1149 576.7027 Z"/>
<path d="M 279.8717 79.9049 281.3903 81.5978 294.5618 88.1174 281.0696 119.1956 256.2357 119.002 261.0682 102.6736 279.8717 79.9049 Z"/>
<path d="M 628.6829 329.6415 637.7191 318.3464 650.5957 324.2237 686.4317 341.9282 670.2265 365.3976 630.772 359.2392 627.3325 358.2431 628.6829 329.6415 Z"/>
<path d="M 744.3685 258.7078 776.2269 261.6702 760.1279 266.3812 741.0609 288.5684 744.3685 258.7078 Z"/>
<path d="M 229.7765 379.6996 226.7926 402.0142 231.7153 459.3974 176.5451 459.3506 174.1229 427.0914 185.6981 404.2053 211.3559 396.6355 229.7765 379.6996 Z"/>
<path d="M 453.0821 460.1334 451.1689 487.816 438.4884 499.5483 417.5792 480.2758 417.9349 479.2288 453.0821 460.1334 Z"/>
<path d="M 582.4868 630.8778 604.3864 632.4944 609.4561 641.4596 603.8338 673.1544 581.1927 657.1243 573.7519 637.5313 582.4868 630.8778 Z"/>
<path d="M 627.6795 494.8982 634.3078 520.5651 656.4958 532.4227 641.1512 552.2806 611.85 546.0132 603.9705 533.3497 562.745 515.0143 627.6795 494.8982 Z"/>
<path d="M 313.2401 844.5477 309.8565 819.3077 344.506 825.1777 339.0603 860.9566 329.1743 872.9735 307.6556 928.9023 295.6939 937.366 271.9824 943.6637 253.3605 934.0966 270.7338 918.062 275.7442 870.6218 315.1022 854.4399 313.2401 844.5477 Z"/>
<path d="M 473.2583 389.8914 481.7912 395.0412 478.8639 414.4241 461.0563 413.7542 458.2832 410.9397 440.3669 411.2495 428.0946 411.4599 425.1028 402.6959 441.3073 390.1076 473.2583 389.8914 Z"/>
<path d="M 504.3723 170.5927 509.8636 198.3093 498.9148 205.3968 496.9681 206.0869 481.3857 210.1166 494.2006 172.2423 504.3723 170.5927 Z"/>
<path d="M 322.9225 423.9302 367.7706 434.7997 357.9571 449.5618 340.2781 470.7041 306.5511 446.3947 297.6705 430.8098 322.9225 423.9302 Z"/>
<path d="M 479.2668 534.6982 487.6772 511.1966 493.9305 517.7529 506.062 533.9058 505.7611 533.9175 479.2668 534.6982 Z"/>
<path d="M 696.2594 188.987 714.9641 198.4625 720.114 213.9799 690.7377 241.7651 682.1905 241.2963 696.2594 188.987 Z"/>
<path d="M 476.2319 302.7646 496.4736 327.4092 488.2352 337.6519 457.073 337.5148 457.1 336.4486 457.0419 314.5773 476.2319 302.7646 Z"/>
<path d="M 125.1149 576.7027 156.2607 559.1888 173.2204 553.4618 193.1441 586.7054 192.8396 594.5636 168.6113 605.12 143.6163 601.4554 125.1149 576.7027 Z"/>
<path d="M 555.5 270.1909 555.5549 270.0593 578.9979 255.4182 579.2662 263.1597 598.367 272.9828 578.9903 309.6765 555.5 270.1909 Z"/>
<path d="M 404.1129 414.3843 425.1028 402.6959 428.0946 411.4599 428.7862 417.4073 404.6904 439.3906 404.1129 414.3843 Z"/>
<path d="M 431.6689 210.1154 435.0164 220.9145 412.8001 227.1025 394.4357 224.8496 383.2603 228.8398 383.4649 223.3335 431.6689 210.1154 Z"/>
<path d="M 391.9109 323.3941 391.9824 323.2703 403.8861 321.6853 404.52 322.3959 414.9435 340.5984 408.4674 351.6878 384.3665 360.0392 391.9109 323.3941 Z"/>
<path d="M 318.9005 136.0145 326.6118 140.5729 332.0587 156.7713 331.77 156.8878 299.8791 165.1939 318.9005 136.0145 Z"/>
<path d="M 303.7329 89.3948 325.3521 109.6782 332.0802 137.0088 326.6118 140.5729 318.9005 136.0145 289.4799 145.8922 289.8365 131.5286 303.7329 89.3948 Z"/>
<path d="M 371.0145 311.9897 370.3732 319.0377 370.152 337.183 368.4163 340.2076 358.3931 364.1945 341.5032 354.4526 337.0325 345.7214 345.5172 338.0114 371.0145 311.9897 Z"/>
<path d="M 461.0563 413.7542 478.8639 414.4241 488.9758 423.8291 482.8196 436.9298 472.187 435.0335 461.0563 413.7542 Z"/>
<path d="M 560.1289 163.8875 562.6458 165.8775 568.0397 175.5744 562.1231 190.4669 562.1794 211.1585 525.0651 211.166 521.6284 203.3826 560.1289 163.8875 Z"/>
<path d="M 192.8396 594.5636 193.1441 586.7054 199.4526 568.325 231.1601 568.7617 231.7311 633.2185 231.5608 697.6394 199.1096 682.0309 202.9698 622.0233 192.8396 594.5636 Z"/>
<path d="M 523.1428 476.7643 536.0768 483.6402 529.156 497.7606 515.3037 505.4162 493.9305 517.7529 487.6772 511.1966 488.3788 491.8577 523.1428 476.7643 Z"/>
<path d="M 253.3605 934.0966 271.9824 943.6637 295.6939 937.366 299.5089 999.1876 312.7714 1014.1905 302.9662 1098.3942 294.8168 1108.8604 248.7497 1107.2501 234.1188 1094.3954 225.8974 1060.3902 209.9173 1053.4442 218.5604 1021.5423 211.3279 1013.5024 207.1595 997.1288 227.003 955.0273 253.3605 934.0966 Z"/>
<path d="M 434.0381 613.3056 458.1239 601.0645 493.0682 602.0477 510.3457 630.0972 454.5949 681.6171 435.0935 685.753 414.9301 688.5321 395.2058 698.0703 370.5727 693.9648 366.6534 693.8156 340.1164 698.614 306.3262 686.6153 297.1969 677.581 307.5735 671.9055 323.8926 655.8733 361.3077 651.1836 383.5154 637.6112 413.9374 640.3365 434.0381 613.3056 Z"/>
<path d="M 442.6987 99.7663 445.5662 108.9956 443.5665 122.1284 435.9561 135.7138 417.6181 141.3743 413.7235 133.7927 418.7922 106.3197 442.6987 99.7663 Z"/>
<path d="M 329.4096 325.105 331.7287 310.5271 348.9916 319.3167 345.5172 338.0114 337.0325 345.7214 329.4096 325.105 Z"/>
<path d="M 543.9043 352.2009 564.0889 348.1237 579.841 362.3658 580.4639 383.7591 538.8656 396.6947 543.9043 352.2009 Z"/>
<path d="M 108.4308 553.0408 118.6156 555.9133 152.1866 556.9975 156.2607 559.1888 125.1149 576.7027 112.9761 578.4431 108.4308 553.0408 Z"/>
<path d="M 538.8656 396.6947 580.4639 383.7591 600.5506 383.14 607.9707 392.6716 568.1393 415.8422 581.7162 436.0373 552.213 452.042 551.7361 469.2078 536.0768 483.6402 523.1428 476.7643 493.9523 466.7979 487.7177 464.7424 492.0284 457.4094 507.2121 444.6732 507.3852 420.1124 519.8464 416.119 538.8656 396.6947 Z"/>
<path d="M 569.7323 587.9928 579.0631 567.1174 583.9897 588.4397 612.1243 588.2 613.9059 630.7325 604.3864 632.4944 582.4868 630.8778 586.2603 615.6171 569.7323 587.9928 Z"/>
<path d="M 353.2154 203.7293 366.2442 203.5997 382.9905 211.8397 383.4649 223.3335 383.2603 228.8398 370.9338 249.8164 339.2153 263.537 333.8946 240.9788 332.1957 222.6828 353.2154 203.7293 Z"/>
<path d="M 417.6181 141.3743 422.0625 159.7655 414.6591 168.835 404.6591 178.8796 387.3666 210.0174 382.9905 211.8397 366.2442 203.5997 376.1916 198.2124 373.208 162.9481 413.7024 133.7727 413.7235 133.7927 417.6181 141.3743 Z"/>
<path d="M 386.6488 117.9254 413.7024 133.7727 373.208 162.9481 351.1664 172.7407 353.2154 203.7293 332.1957 222.6828 331.7288 192.6555 341.5522 171.5079 331.77 156.8878 332.0587 156.7713 368.5404 147.701 386.6488 117.9254 Z"/>
<path d="M 549.7109 270.2091 555.5 270.1909 578.9903 309.6765 578.974 309.7188 553.9107 292.4974 533.1143 295.4063 549.7109 270.2091 Z"/>
<path d="M 337.4194 379.8167 357.9467 388.2456 358.4347 409.5663 323.1721 423.2188 309.8014 407.9651 314.6449 386.4201 337.4194 379.8167 Z"/>
<path d="M 339.2748 263.7712 378.0768 279.6271 399.5595 285.5787 394.8038 303.4301 374.6891 321.7689 370.3732 319.0377 371.0145 311.9897 360.7001 304.3538 343.9555 294.0308 343.8325 293.4327 355.7514 283.0383 339.2748 263.7712 Z"/>
<path d="M 297.1969 677.581 306.3262 686.6153 284.9662 698.5212 303.9568 755.5647 279.4866 739.9266 260.8509 724.9406 239.0821 720.3212 246.8793 713.1368 250.9704 709.2605 260.1046 694.7038 297.1969 677.581 Z"/>
<path d="M 613.9316 237.1745 623.2088 233.5423 647.4991 251.2058 636.0902 268.5233 635.9691 291.091 614.855 299.7738 605.6186 301.3726 598.367 272.9828 579.2662 263.1597 589.754 263.7669 613.9316 237.1745 Z"/>
<path d="M 299.8791 165.1939 331.77 156.8878 341.5522 171.5079 331.7288 192.6555 318.0083 188.5097 289.4282 197.5629 299.8791 165.1939 Z"/>
<path d="M 132.6713 543.1045 152.1866 556.9975 118.6156 555.9133 117.3161 539.3553 132.6713 543.1045 Z"/>
<path d="M 246.8793 713.1368 239.0821 720.3212 233.4086 728.5736 200.4762 744.4791 180.4477 722.6432 186.326 711.997 217.8314 697.9143 246.8793 713.1368 Z"/>
<path d="M 178.1461 520.637 173.2204 553.4618 156.2607 559.1888 152.1866 556.9975 132.6713 543.1045 178.1461 520.637 Z"/>
<path d="M 375.7065 484.2205 369.5289 492.298 368.4266 502.6095 326.6204 499.4551 319.8859 526.3302 296.4154 515.4967 321.6593 483.2764 336.0786 476.6521 375.7065 484.2205 Z"/>
<path d="M 120.4522 629.3794 114.44 607.307 137.3349 612.2304 161.255 622.9599 134.1358 633.9188 120.4522 629.3794 Z"/>
<path d="M 300.0682 237.8576 294.2119 257.2329 314.8616 260.8399 333.8946 240.9788 339.2153 263.537 339.2748 263.7712 355.7514 283.0383 343.8325 293.4327 329.4929 275.6565 299.2181 280.5159 254.3882 276.6019 240.1359 269.9095 240.6843 267.7685 300.0682 237.8576 Z"/>
<path d="M 696.3849 278.3039 736.624 245.7452 744.3685 258.7078 741.0609 288.5684 714.1073 288.8056 696.3849 278.3039 Z"/>
<path d="M 569.7323 587.9928 586.2603 615.6171 582.4868 630.8778 573.7519 637.5313 548.3043 633.5426 535.2968 634.9138 542.808 599.5808 569.7323 587.9928 Z"/>
<path d="M 351.9302 49.8141 368.7072 63.5295 382.837 96.1985 371.6888 116.7729 332.9514 125.8806 334.1017 107.0197 323.1997 85.0905 336.4133 59.7409 351.9302 49.8141 Z"/>
<path d="M 162.9952 307.968 174.4436 341.6981 175.5687 366.5343 157.8741 384.7568 137.3283 409.0923 132.0141 440.4401 83.9698 442.5945 84.0987 429.9525 121.4525 385.7719 127.9933 361.7934 156.3597 338.5889 162.9952 307.968 Z"/>
<path d="M 268.614 67.1883 279.8717 79.9049 261.0682 102.6736 268.614 67.1883 Z"/>
<path d="M 606.7616 154.5847 650.9022 168.4954 630.0815 229.5455 618.4135 210.3338 615.6948 170.8683 606.7616 154.5847 Z"/>
<path d="M 318.9005 136.0145 299.8791 165.1939 289.4282 197.5629 280.3843 196.4007 279.0631 195.8327 289.4799 145.8922 318.9005 136.0145 Z"/>
<path d="M 439.4319 442.4317 440.3716 424.8116 443.0868 435.0709 461.1794 449.1551 439.4319 442.4317 Z"/>
<path d="M 370.5727 693.9648 395.2058 698.0703 414.9301 688.5321 417.514 704.4512 399.3646 781.5544 354.3045 801.9843 331.339 794.1187 377.6828 731.4558 370.5727 693.9648 Z"/>
<path d="M 600.5506 383.14 627.1463 400.3943 642.6582 410.2137 620.8121 442.5879 603.7447 432.5958 581.7162 436.0373 568.1393 415.8422 607.9707 392.6716 600.5506 383.14 Z"/>
<path d="M 493.9523 466.7979 523.1428 476.7643 488.3788 491.8577 488.6856 490.8947 493.9523 466.7979 Z"/>
<path d="M 370.3732 319.0377 374.6891 321.7689 391.9824 323.2703 391.9109 323.3941 370.152 337.183 370.3732 319.0377 Z"/>
<path d="M 612.1243 588.2 641.1161 588.1155 643.8708 606.1812 671.2916 633.3246 666.4698 660.3714 609.4561 641.4596 604.3864 632.4944 613.9059 630.7325 612.1243 588.2 Z"/>
<path d="M 448.8684 147.0906 438.7191 145.9039 435.9561 135.7138 443.5665 122.1284 460.9754 116.486 448.8684 147.0906 Z"/>
<path d="M 240.1359 269.9095 254.3882 276.6019 274.714 293.5328 203.6046 320.1575 237.9304 283.2503 240.1359 269.9095 Z"/>
<path d="M 496.9681 206.0869 498.9148 205.3968 513.1712 206.3315 514.5955 228.1577 516.2331 256.8266 496.594 239.8562 496.9681 206.0869 Z"/>
<path d="M 522.0566 576.673 552.8113 544.181 579.0631 567.1174 569.7323 587.9928 542.808 599.5808 522.0566 576.673 Z"/>
<path d="M 415.7478 60.3944 419.3442 66.3338 399.4009 75.9098 388.0776 95.5857 382.837 96.1985 368.7072 63.5295 385.8914 50.8194 394.9146 69.8114 415.7478 60.3944 Z"/>
<path d="M 481.7912 395.0412 498.672 389.7535 519.8464 416.119 507.3852 420.1124 488.9758 423.8291 478.8639 414.4241 481.7912 395.0412 Z"/>
<path d="M 429.1144 193.1194 435.6916 194.3506 431.7172 209.9695 431.6689 210.1154 383.4649 223.3335 382.9905 211.8397 387.3666 210.0174 429.1144 193.1194 Z"/>
<path d="M 487.7177 464.7424 493.9523 466.7979 488.6856 490.8947 471.8807 492.9818 470.9225 474.5767 487.7177 464.7424 Z"/>
<path d="M 552.9301 661.2939 548.3043 633.5426 573.7519 637.5313 581.1927 657.1243 603.8338 673.1544 597.4411 701.8142 561.1152 684.4744 556.6154 665.2298 552.9301 661.2939 Z"/>
<path d="M 478.182 260.8931 501.7058 271.9875 518.7887 261.0612 525.4771 269.8155 521.3008 292.7766 520.5401 299.6767 482.5711 298.9386 460.1984 289.3342 478.182 260.8931 Z"/>
<path d="M 435.9561 135.7138 438.7191 145.9039 422.0625 159.7655 417.6181 141.3743 435.9561 135.7138 Z"/>
<path d="M 274.714 293.5328 343.9555 294.0308 360.7001 304.3538 348.9916 319.3167 331.7287 310.5271 290.1495 317.4532 269.0807 328.6099 255.512 354.7417 229.7765 379.6996 211.3559 396.6355 185.6981 404.2053 164.6424 407.0279 157.8741 384.7568 175.5687 366.5343 195.7393 353.0463 203.6046 320.1575 274.714 293.5328 Z"/>
<path d="M 525.4771 269.8155 527.6047 269.8236 549.7109 270.2091 533.1143 295.4063 521.3008 292.7766 525.4771 269.8155 Z"/>
<path d="M 666.0074 464.722 676.6412 495.7598 674.0106 519.4995 656.4958 532.4227 634.3078 520.5651 627.6795 494.8982 647.4368 486.6873 647.9557 468.6819 666.0074 464.722 Z"/>
<path d="M 360.7001 304.3538 371.0145 311.9897 345.5172 338.0114 348.9916 319.3167 360.7001 304.3538 Z"/>
<path d="M 523.6814 223.096 523.5684 222.2649 557.5885 244.8045 555.5549 270.0593 555.5 270.1909 549.7109 270.2091 527.6047 269.8236 531.9656 248.8873 523.6814 223.096 Z"/>
<path d="M 289.4282 197.5629 318.0083 188.5097 331.7288 192.6555 332.1957 222.6828 300.0682 237.8576 240.6843 267.7685 264.8566 236.3212 280.3843 196.4007 289.4282 197.5629 Z"/>
<path d="M 473.9817 371.7599 476.9537 371.6975 498.672 389.7535 481.7912 395.0412 473.2583 389.8914 473.9817 371.7599 Z"/>
<path d="M 61.4113 514.5995 85.7263 497.7304 101.2553 496.48 122.4817 508.9449 118.3542 536.1962 117.3161 539.3553 118.6156 555.9133 108.4308 553.0408 105.9484 541.3643 61.4113 514.5995 Z"/>
<path d="M 233.4086 728.5736 239.0821 720.3212 260.8509 724.9406 279.4866 739.9266 264.1421 751.8416 233.4086 728.5736 Z"/>
<path d="M 132.6713 543.1045 117.3161 539.3553 118.3542 536.1962 129.0262 524.467 180.4019 502.4634 178.1461 520.637 132.6713 543.1045 Z"/>
<path d="M 426.266 276.5912 431.8791 316.913 404.52 322.3959 403.8861 321.6853 405.8974 303.8899 426.266 276.5912 Z"/>
<path d="M 596.6033 172.1096 606.7616 154.5847 615.6948 170.8683 618.4135 210.3338 630.0815 229.5455 623.2088 233.5423 613.9316 237.1745 597.2269 232.5651 596.6033 172.1096 Z"/>
<path d="M 19.4108 468.3841 17.8831 506.1208 1 497.9624 19.4108 468.3841 Z"/>
<path d="M 264.1421 751.8416 279.4866 739.9266 303.9568 755.5647 328.0477 769.667 310.2961 776.0326 313.0033 808.5608 305.2736 819.8549 313.2401 844.5477 315.1022 854.4399 275.7442 870.6218 270.7338 918.062 253.3605 934.0966 227.003 955.0273 207.1595 997.1288 211.3279 1013.5024 196.0324 1009.8124 183.5859 981.2854 159.6982 969.9292 176.6569 946.1206 185.4188 906.8262 199.9231 888.5484 231.0864 893.0493 239.522 869.3519 231.5239 813.5702 241.1096 777.0634 267.9805 764.9085 264.1421 751.8416 Z"/>
<path d="M 429.1144 193.1194 387.3666 210.0174 404.6591 178.8796 429.1144 193.1194 Z"/>
<path d="M 536.2487 536.9215 552.8152 544.1606 552.8113 544.181 522.0566 576.673 520.2149 579.5857 502.9466 570.336 511.1889 563.4206 536.2487 536.9215 Z"/>
<path d="M 620.2995 364.9953 627.1463 400.3943 600.5506 383.14 620.2995 364.9953 Z"/>
<path d="M 502.9466 570.336 520.2149 579.5857 498.873 593.4692 473.8583 582.3892 502.9466 570.336 Z"/>
<path d="M 435.0164 220.9145 451.9917 221.5066 459.3224 239.4826 460.7094 240.751 449.2849 252.9919 432.742 242.5401 420.7333 239.3854 412.8001 227.1025 435.0164 220.9145 Z"/>
<path d="M 535.2968 634.9138 548.3043 633.5426 552.9301 661.2939 540.0549 665.0712 524.176 643.8994 519.0855 641.7033 535.2968 634.9138 Z"/>
<path d="M 760.0466 204.9606 755.7775 241.5027 736.624 245.7452 760.0466 204.9606 Z"/>
<path d="M 514.5955 228.1577 523.6814 223.096 531.9656 248.8873 527.6047 269.8236 525.4771 269.8155 518.7887 261.0612 516.2331 256.8266 514.5955 228.1577 Z"/>
<path d="M 306.8358 17.3915 312.9329 13.6954 313.521 35.1281 296.0996 61.4886 286.2329 55.1335 306.8358 17.3915 Z"/>
<path d="M 578.974 309.7188 578.9903 309.6765 598.367 272.9828 605.6186 301.3726 628.6829 329.6415 627.3325 358.2431 620.2995 364.9953 600.5506 383.14 580.4639 383.7591 579.841 362.3658 564.0889 348.1237 578.974 309.7188 Z"/>
<path d="M 101.2553 496.48 85.7263 497.7304 61.4113 514.5995 52.8262 506.6124 58.4496 498.3558 38.1233 453.7104 42.1309 450.568 62.3645 460.1259 99.3306 489.0738 101.2553 496.48 Z"/>
<path d="M 331.7287 310.5271 329.4096 325.105 276.883 360.2233 254.945 392.6616 255.512 354.7417 269.0807 328.6099 290.1495 317.4532 331.7287 310.5271 Z"/>
<path d="M 481.3857 210.1166 496.9681 206.0869 496.594 239.8562 471.0037 237.6697 481.3857 210.1166 Z"/>
<path d="M 419.3442 66.3338 423.086 64.8495 427.4831 66.5392 418.7922 106.3197 413.7235 133.7927 413.7024 133.7727 386.6488 117.9254 388.0776 95.5857 399.4009 75.9098 419.3442 66.3338 Z"/>
<path d="M 556.6154 665.2298 561.1152 684.4744 517.0778 696.9034 500.9673 720.3446 491.4025 712.6059 505.1154 689.3531 556.6154 665.2298 Z"/>
<path d="M 614.855 299.7738 635.9691 291.091 656.8624 285.853 654.2358 301.7382 650.5957 324.2237 637.7191 318.3464 640.9516 299.3398 614.855 299.7738 Z"/>
<path d="M 536.0768 483.6402 551.7361 469.2078 552.213 452.042 584.0558 462.7661 586.1349 475.7874 557.434 510.7589 529.156 497.7606 536.0768 483.6402 Z"/>
<path d="M 736.624 245.7452 696.3849 278.3039 673.9945 260.7684 682.1905 241.2963 690.7377 241.7651 736.624 245.7452 Z"/>
<path d="M 641.1512 552.2806 641.1161 588.1155 612.1243 588.2 583.9897 588.4397 579.0631 567.1174 552.8113 544.181 552.8152 544.1606 546.8717 516.5276 553.6318 512.0744 562.745 515.0143 603.9705 533.3497 611.85 546.0132 641.1512 552.2806 Z"/>
<path d="M 339.2748 263.7712 339.2153 263.537 370.9338 249.8164 400.8348 266.6369 378.0768 279.6271 339.2748 263.7712 Z"/>
<path d="M 714.9641 198.4625 747.1606 197.1164 760.0466 204.9606 736.624 245.7452 690.7377 241.7651 720.114 213.9799 714.9641 198.4625 Z"/>
<path d="M 473.7963 547.535 476.6705 537.9415 479.2668 534.6982 505.7611 533.9175 511.1889 563.4206 502.9466 570.336 473.8583 582.3892 465.4737 577.1349 473.7963 547.535 Z"/>
<path d="M 508.887 169.0214 510.0832 168.6627 523.6238 171.5994 508.887 169.0214 Z"/>
<path d="M 307.7249 635.6486 307.5735 671.9055 297.1969 677.581 260.1046 694.7038 250.9704 709.2605 231.5608 697.6394 231.7311 633.2185 280.0252 628.9152 307.7249 635.6486 Z"/>
<path d="M 122.4817 508.9449 150.2426 494.9251 178.0367 477.1658 180.4019 502.4634 129.0262 524.467 118.3542 536.1962 122.4817 508.9449 Z"/>
<path d="M 614.855 299.7738 640.9516 299.3398 637.7191 318.3464 628.6829 329.6415 605.6186 301.3726 614.855 299.7738 Z"/>
<path d="M 562.1231 190.4669 583.2894 239.1398 578.9979 255.4182 555.5549 270.0593 557.5885 244.8045 523.5684 222.2649 525.0651 211.166 562.1794 211.1585 562.1231 190.4669 Z"/>
<path d="M 459.0275 288.6795 460.1984 289.3342 482.5711 298.9386 476.2319 302.7646 457.0419 314.5773 459.0275 288.6795 Z"/>
<path d="M 426.266 276.5912 425.1723 268.9776 440.3225 270.7004 459.0275 288.6795 457.0419 314.5773 457.1 336.4486 431.8791 316.913 426.266 276.5912 Z"/>
<path d="M 229.7765 379.6996 255.512 354.7417 254.945 392.6616 268.8787 424.1058 263.6928 447.4325 277.3485 459.8409 231.7153 459.3974 226.7926 402.0142 229.7765 379.6996 Z"/>
<path d="M 357.9571 449.5618 371.1979 454.1057 380.6845 479.3306 375.7065 484.2205 336.0786 476.6521 340.2781 470.7041 357.9571 449.5618 Z"/>
<path d="M 256.2357 119.002 281.0696 119.1956 270.2699 140.0747 257.6418 187.1461 279.0631 195.8327 280.3843 196.4007 264.8566 236.3212 240.6843 267.7685 240.1359 269.9095 237.9304 283.2503 203.6046 320.1575 195.7393 353.0463 175.5687 366.5343 174.4436 341.6981 162.9952 307.968 172.0187 286.2523 189.2058 272.3515 209.5484 230.8414 212.6059 191.3703 235.9732 178.2337 235.5933 149.5428 256.2357 119.002 Z"/>
<path d="M 386.3183 477.3357 404.8164 468.9769 417.9349 479.2288 417.5792 480.2758 413.1135 491.5408 386.3183 477.3357 Z"/>
<path d="M 332.1957 222.6828 333.8946 240.9788 314.8616 260.8399 294.2119 257.2329 300.0682 237.8576 332.1957 222.6828 Z"/>
<path d="M 254.3882 276.6019 299.2181 280.5159 329.4929 275.6565 343.8325 293.4327 343.9555 294.0308 274.714 293.5328 254.3882 276.6019 Z"/>
<path d="M 414.6591 168.835 422.0625 159.7655 438.7191 145.9039 448.8684 147.0906 452.9105 149.0087 444.8316 189.3324 414.6591 168.835 Z"/>
<path d="M 455.3064 338.8886 455.5878 337.9567 457.073 337.5148 488.2352 337.6519 491.9687 339.5408 476.9537 371.6975 473.9817 371.7599 454.0064 357.3399 455.3064 338.8886 Z"/>
<path d="M 297.6705 430.8098 306.5511 446.3947 340.2781 470.7041 336.0786 476.6521 321.6593 483.2764 296.4154 515.4967 265.4708 510.4009 248.1192 518.0908 250.1541 504.3527 274.3592 483.1022 286.0989 459.7302 297.6705 430.8098 Z"/>
<path d="M 525.3471 320.0451 532.0842 336.8632 491.9687 339.5408 488.2352 337.6519 496.4736 327.4092 525.3471 320.0451 Z"/>
<path d="M 394.8038 303.4301 405.8974 303.8899 403.8861 321.6853 391.9824 323.2703 374.6891 321.7689 394.8038 303.4301 Z"/>
<path d="M 760.0466 204.9606 747.1606 197.1164 785.1014 200.3615 799 230.326 776.2269 261.6702 744.3685 258.7078 736.624 245.7452 755.7775 241.5027 760.0466 204.9606 Z"/>
<path d="M 192.8396 594.5636 202.9698 622.0233 185.139 622.8431 161.255 622.9599 137.3349 612.2304 143.6163 601.4554 168.6113 605.12 192.8396 594.5636 Z"/>
<path d="M 705.8629 302.0537 697.0288 311.3431 677.3286 298.959 654.2358 301.7382 656.8624 285.853 682.7195 284.8078 705.8629 302.0537 Z"/>
<path d="M 515.3037 505.4162 519.6473 519.9611 546.8717 516.5276 552.8152 544.1606 536.2487 536.9215 506.062 533.9058 493.9305 517.7529 515.3037 505.4162 Z"/>
<path d="M 296.0996 61.4886 309.0833 65.433 303.7619 86.8301 294.5618 88.1174 281.3903 81.5978 286.2329 55.1335 296.0996 61.4886 Z"/>
<path d="M 428.7862 417.4073 415.6902 440.2012 404.8447 439.9866 404.6904 439.3906 428.7862 417.4073 Z"/>
<path d="M 440.3716 424.8116 440.3669 411.2495 458.2832 410.9397 443.0868 435.0709 440.3716 424.8116 Z"/>
<path d="M 115.0453 659.4306 140.8983 668.6791 148.7265 678.1598 181.8113 681.5016 173.7847 722.8255 134.5855 718.85 103.4734 701.1175 115.0453 659.4306 Z"/>
<path d="M 398.0844 226.1846 394.4357 224.8496 412.8001 227.1025 420.7333 239.3854 398.0844 226.1846 Z"/>
<path d="M 446.4801 717.3943 466.1137 722.4527 481.6756 700.617 491.4025 712.6059 500.9673 720.3446 497.6068 729.6244 462.7298 748.074 447.6173 768.4348 431.9739 764.3855 411.0682 779.1026 435.5264 750.717 446.4801 717.3943 Z"/>
<path d="M 42.1309 450.568 70.4166 427.2544 84.0987 429.9525 83.9698 442.5945 132.0141 440.4401 137.3283 409.0923 157.8741 384.7568 164.6424 407.0279 185.6981 404.2053 174.1229 427.0914 176.5451 459.3506 178.0367 477.1658 150.2426 494.9251 124.1226 480.707 99.3306 489.0738 62.3645 460.1259 42.1309 450.568 Z"/>
<path d="M 394.219 406.2198 398.3336 407.4376 384.7344 429.2823 367.7706 434.7997 322.9225 423.9302 323.1721 423.2188 358.4347 409.5663 394.219 406.2198 Z"/>
<path d="M 452.9398 459.8833 453.0821 460.1334 417.9349 479.2288 404.8164 468.9769 404.7538 466.8445 411.4838 456.1963 452.9398 459.8833 Z"/>
<path d="M 656.8624 285.853 635.9691 291.091 636.0902 268.5233 647.4991 251.2058 673.9945 260.7684 696.3849 278.3039 714.1073 288.8056 705.8629 302.0537 682.7195 284.8078 656.8624 285.853 Z"/>
<path d="M 150.2426 494.9251 122.4817 508.9449 101.2553 496.48 99.3306 489.0738 124.1226 480.707 150.2426 494.9251 Z"/>
<path d="M 510.0832 168.6627 524.8499 169.6468 523.6238 171.5994 510.0832 168.6627 Z"/>
<path d="M 368.4266 502.6095 350.9488 513.6598 358.5381 531.7791 339.7642 566.1405 324.3167 550.766 319.8859 526.3302 326.6204 499.4551 368.4266 502.6095 Z"/>
<path d="M 231.5608 697.6394 250.9704 709.2605 246.8793 713.1368 217.8314 697.9143 186.326 711.997 180.4477 722.6432 173.7847 722.8255 181.8113 681.5016 199.1096 682.0309 231.5608 697.6394 Z"/>
<path d="M 415.4057 59.5554 415.7478 60.3944 394.9146 69.8114 385.8914 50.8194 415.4057 59.5554 Z"/>
<path d="M 460.7094 240.751 463.6807 240.6305 478.182 260.8931 460.1984 289.3342 459.0275 288.6795 440.3225 270.7004 449.2849 252.9919 460.7094 240.751 Z"/>
<path d="M 650.9022 168.4954 696.2594 188.987 682.1905 241.2963 673.9945 260.7684 647.4991 251.2058 623.2088 233.5423 630.0815 229.5455 650.9022 168.4954 Z"/>
<path d="M 463.6807 240.6305 464.6106 239.9868 471.0037 237.6697 496.594 239.8562 516.2331 256.8266 518.7887 261.0612 501.7058 271.9875 478.182 260.8931 463.6807 240.6305 Z"/>
<path d="M 464.5561 99.7675 460.9754 116.486 443.5665 122.1284 445.5662 108.9956 464.5561 99.7675 Z"/>
<path d="M 630.772 359.2392 670.2265 365.3976 659.7438 376.3075 630.772 359.2392 Z"/>
<path d="M 391.9109 323.3941 384.3665 360.0392 379.006 374.0625 368.4163 340.2076 370.152 337.183 391.9109 323.3941 Z"/>
<path d="M 458.2832 410.9397 461.0563 413.7542 472.187 435.0335 453.6119 460.7988 453.0821 460.1334 452.9398 459.8833 461.1794 449.1551 443.0868 435.0709 458.2832 410.9397 Z"/>
</g>
</svg>