<?xml version="1.0"?>
<svg xmlns="http://www.w3.org/2000/svg" version="1.2" baseProfile="tiny" width="800" height="765" viewBox="0 0 800 765" stroke-linecap="round" stroke-linejoin="round">
<g id="50MUE250GC_SIR">
<path d="M 628.6081 270.8836 624.2039 264.1062 632.4862 240.5411 657.357 244.8797 683.5755 224.491 695.7751 227.934 704.1173 265.9163 739.2939 309.4572 715.7431 319.2152 698.2663 314.4862 676.562 319.4379 668.1048 328.2318 656.9205 309.8109 657.6965 299.4348 642.644 276.5012 628.6081 270.8836 Z"/>
<path d="M 351.1287 574.6877 353.3316 575.4672 338.7257 595.7196 344.7649 609.7988 370.031 631.5213 341.3988 636.6577 323.6244 628.8223 310.3492 613.5161 314.8325 590.1884 351.1287 574.6877 Z"/>
<path d="M 302.5511 435.7086 281.6168 431.9212 274.2937 448.9417 274.7049 473.2857 256.6944 478.4564 236.9223 464.3231 216.6913 455.6852 213.1782 435.917 218.3618 413.1793 229.3978 398.5781 242.4515 404.6128 256.0216 396.6319 268.6518 399.8609 273.6424 415.6136 292.5873 423.9806 302.5511 435.7086 Z"/>
<path d="M 303.8365 523.4323 321.573 526.6218 348.2184 522.7531 339.0429 547.3885 363.3605 556.1269 384.4785 542.5858 395.2291 548.9622 404.556 527.8584 434.3914 530.0578 435.3213 550.1729 426.5107 561.3227 396.3973 579.8421 380.2611 584.0381 353.3316 575.4672 351.1287 574.6877 332.3992 559.7958 313.1064 558.8716 294.6313 548.1736 291.6946 533.7358 303.8365 523.4323 Z"/>
<path d="M 505.6975 556.5326 482.9565 526.6161 489.5032 493.301 503.3561 489.842 523.3021 485.6793 534.9114 490.6908 555.0374 488.1657 567.8883 492.6512 562.2086 517.1449 553.9394 532.3044 531.3913 572.3496 515.5947 600.0768 508.4691 598.2489 517.2175 585.5362 505.6975 556.5326 Z"/>
<path d="M 326.6851 378.5798 342.2907 396.0254 368.836 399.795 403.9769 423.8299 406.7739 438.1447 382.4575 463.8952 361.4015 461.9214 347.9305 478.1043 346.363 489.3791 316.3859 461.973 312.9692 446.3997 319.2658 425.2974 332.6071 402.6304 326.6851 378.5798 Z"/>
<path d="M 378.8374 288.7477 388.542 286.109 415.3297 290.8147 409.0797 300.7763 414.7483 317.3898 389.6329 314.2608 375.7341 318.7276 373.6291 332.933 359.0505 336.7709 344.7514 331.1339 358.8508 318.5656 362.5117 305.4669 378.8374 288.7477 Z"/>
<path d="M 241.196 545.2387 228.655 523.4671 246.9574 511.3711 257.7838 497.8115 265.1095 505.8383 303.8365 523.4323 291.6946 533.7358 294.6313 548.1736 313.1064 558.8716 332.3992 559.7958 351.1287 574.6877 314.8325 590.1884 310.3492 613.5161 281.3977 612.5743 269.3481 596.2147 264.6917 577.6987 276.3123 552.3399 252.5042 551.6589 241.196 545.2387 Z"/>
<path d="M 284.4761 370.3315 285.1505 383.0237 315.0587 429.2887 302.5511 435.7086 292.5873 423.9806 273.6424 415.6136 268.6518 399.8609 256.0216 396.6319 242.4515 404.6128 229.3978 398.5781 222.0849 382.314 224.3413 361.6817 277.9618 367.2071 284.4761 370.3315 Z"/>
<path d="M 486.8235 56.3112 454.5938 52.0487 442.0926 66.1334 427.6315 67.2599 391.4161 59.1603 375.802 65.0435 383.9304 83.1396 363.7874 92.5007 353.8305 81.4397 335.5036 73.8888 334.2372 53.9673 364.795 51.054 377.401 39.5586 404.4612 35.2186 426.5737 55.2364 450.6603 50.5209 486.2672 9.3198 495.4218 10.0907 492.7877 55.2015 486.8235 56.3112 Z"/>
<path d="M 421.5166 584.2026 456.9858 595.383 457.2321 595.8152 484.6034 616.1222 508.8982 608.9068 516.4767 617.7555 498.0962 643.5936 468.2767 631.2684 449.9748 618.9092 434.8383 613.7577 423.8964 600.0229 412.4334 604.3348 421.5166 584.2026 Z"/>
<path d="M 449.0003 326.8557 467.6995 351.9305 439.4797 365.3899 431.4053 368.7808 405.7647 356.9232 402.9802 345.5804 373.6291 332.933 375.7341 318.7276 389.6329 314.2608 414.7483 317.3898 433.9943 317.9874 449.0003 326.8557 Z"/>
<path d="M 424.0402 578.5418 421.5166 584.2026 412.4334 604.3348 407.7764 600.6859 403.4947 585.2143 412.1601 573.8874 424.0402 578.5418 Z"/>
<path d="M 370.968 225.3312 380.4788 236.8704 372.1425 253.6318 367.0068 275.1633 346.3067 280.3836 323.3748 260.9122 338.1206 240.4151 350.0906 229.5078 370.968 225.3312 Z"/>
<path d="M 383.9304 83.1396 375.802 65.0435 391.4161 59.1603 427.6315 67.2599 442.0926 66.1334 454.5938 52.0487 486.8235 56.3112 475.9698 59.7784 465.3768 83.3501 448.3742 104.2549 437.4124 102.8503 412.1987 107.6155 397.1929 118.7248 382.8665 107.0608 383.9304 83.1396 Z"/>
<path d="M 381.4351 727.3366 383.9588 737.9041 342.5072 755.6839 320.6073 755.7789 318.5502 737.7734 334.596 730.8393 349.6975 742.7326 381.4351 727.3366 Z"/>
<path d="M 284.4761 370.3315 299.2401 364.1928 296.2063 330.889 316.1234 335.8302 313.9532 349.9434 312.1839 359.2178 326.6851 378.5798 332.6071 402.6304 319.2658 425.2974 315.0587 429.2887 285.1505 383.0237 284.4761 370.3315 Z"/>
<path d="M 59.675 204.7578 76.4458 206.1589 72.0455 224.9216 53.2177 218.439 59.675 204.7578 Z"/>
<path d="M 334.0261 53.7067 334.2372 53.9673 335.5036 73.8888 353.8305 81.4397 363.7874 92.5007 383.9304 83.1396 382.8665 107.0608 397.1929 118.7248 412.1987 107.6155 437.4124 102.8503 444.2962 110.1013 451.1021 149.7085 439.9457 157.0214 425.8897 154.8631 416.6092 170.4207 396.5085 171.3717 379.4971 157.5205 375.9142 146.7933 354.1761 139.5709 344.2588 124.7844 327.2411 117.2423 315.4866 120.2609 334.0261 53.7067 Z"/>
<path d="M 412.2967 264.3121 438.233 229.1497 431.9764 211.6098 439.5093 205.5382 453.685 214.5815 464.6137 203.8431 494.7614 203.4977 516.4441 186.6638 528.3498 197.0471 533.0765 208.8346 518.8206 223.7757 501.5929 231.7451 516.9464 268.207 523.6313 290.078 504.3606 288.5487 475.1609 261.9158 470.5913 280.9033 461.2953 283.1827 437.2769 271.0542 412.2967 264.3121 Z"/>
<path d="M 334.0261 53.7067 315.4866 120.2609 305.305 156.8518 290.9983 196.6948 271.5326 213.5189 258.6665 239.5661 241.8207 234.0735 182.8596 234.3413 183.0032 258.6691 144.6156 270.2375 128.6163 272.0976 120.962 314.0802 130.2212 333.8496 133.1101 340.677 123.2544 345.0305 102.1713 338.799 84.5499 351.2439 75.4025 368.1844 40.2967 402.0524 35.9191 417.4971 27.0724 388.1238 16.0702 381.2132 17.6818 364.3169 9.4257 356.8412 1 330.6998 33.2148 310.7573 2.9399 287.2027 41.3686 207.043 43.3345 192.1509 66.4379 119.2548 61.7608 97.7953 48.4242 73.6226 52.4128 61.3011 74.465 77.4246 116.9212 67.4636 141.8706 41.0001 157.5921 16.3179 188.8969 18.1468 210.9706 6.2689 233.8953 1 237.4443 8.2225 284.8147 24.3868 295.9652 34.9946 334.0261 53.7067 Z M 59.675 204.7578 53.2177 218.439 72.0455 224.9216 76.4458 206.1589 59.675 204.7578 Z"/>
<path d="M 562.2086 517.1449 584.8354 521.9528 611.3678 516.5893 613.8967 525.7784 637.9277 547.8594 576.3877 587.5382 558.653 550.8415 553.9394 532.3044 562.2086 517.1449 Z"/>
<path d="M 241.196 545.2387 252.5042 551.6589 276.3123 552.3399 264.6917 577.6987 256.1304 566.9348 215.2548 565.6878 200.5495 555.2306 216.2526 554.2857 241.196 545.2387 Z"/>
<path d="M 213.6906 456.7866 227.0721 484.7919 225.1246 493.9859 246.9574 511.3711 228.655 523.4671 213.1421 512.399 207.6595 498.5497 185.3872 494.1947 180.3382 486.2219 149.4912 487.338 135.1081 489.739 144.5459 475.5179 169.6278 471.6881 206.7106 469.1074 213.6906 456.7866 Z"/>
<path d="M 344.7514 331.1339 340.1627 330.9289 335.5769 310.182 313.6076 311.2573 305.5506 293.1834 323.3748 260.9122 346.3067 280.3836 367.0068 275.1633 372.1425 253.6318 380.1799 269.222 378.8374 288.7477 362.5117 305.4669 358.8508 318.5656 344.7514 331.1339 Z"/>
<path d="M 368.836 399.795 342.2907 396.0254 326.6851 378.5798 312.1839 359.2178 313.9532 349.9434 333.0998 330.2395 340.1627 330.9289 344.7514 331.1339 359.0505 336.7709 374.8932 348.9176 375.3457 382.8908 368.836 399.795 Z"/>
<path d="M 130.2212 333.8496 120.962 314.0802 128.6163 272.0976 147.3306 289.1094 186.0026 294.5123 210.9002 314.9193 213.8866 346.1562 224.3413 361.6817 222.0849 382.314 213.3016 386.6084 195.8129 367.5771 188.1125 348.7381 152.4379 360.0187 147.4651 344.1061 130.2212 333.8496 Z"/>
<path d="M 412.2967 264.3121 399.0746 262.1907 380.1799 269.222 372.1425 253.6318 380.4788 236.8704 370.968 225.3312 384.4963 205.4698 411.2223 192.9491 396.5085 171.3717 416.6092 170.4207 427.0811 174.5036 439.5093 205.5382 431.9764 211.6098 438.233 229.1497 412.2967 264.3121 Z"/>
<path d="M 556.4134 390.2434 582.4575 381.5982 590.7845 373.8732 622.9343 402.0409 640.9685 411.6259 694.5891 446.441 698.0414 454.0434 689.1727 474.9715 669.9809 487.5827 663.5445 488.9869 627.9741 463.3695 618.6374 446.9842 556.4134 390.2434 Z"/>
<path d="M 449.0003 326.8557 471.5407 313.1439 461.2953 283.1827 470.5913 280.9033 475.1609 261.9158 504.3606 288.5487 523.6313 290.078 560.154 335.3245 561.6565 345.3339 585.0992 364.0886 590.7845 373.8732 582.4575 381.5982 556.4134 390.2434 538.6952 421.282 554.8083 439.7966 558.364 459.263 570.9 494.5312 567.8883 492.6512 555.0374 488.1657 534.9114 490.6908 523.3021 485.6793 503.3561 489.842 501.9321 487.8717 502.446 464.8573 495.2036 445.3992 474.7038 422.4325 437.6735 391.328 439.4797 365.3899 467.6995 351.9305 449.0003 326.8557 Z"/>
<path d="M 390.6497 526.8559 404.556 527.8584 395.2291 548.9622 384.4785 542.5858 390.6497 526.8559 Z"/>
<path d="M 305.305 156.8518 315.4866 120.2609 327.2411 117.2423 344.2588 124.7844 354.1761 139.5709 375.9142 146.7933 379.4971 157.5205 396.5085 171.3717 411.2223 192.9491 384.4963 205.4698 370.968 225.3312 350.0906 229.5078 338.1206 240.4151 321.7865 231.1079 298.0483 227.2629 305.305 156.8518 Z"/>
<path d="M 301.397 655.8689 312.0832 675.0556 332.2712 687.8587 319.3122 708.8052 298.9714 696.4816 287.4066 699.2412 290.6689 673.7313 301.397 655.8689 Z"/>
<path d="M 668.1048 328.2318 676.562 319.4379 698.2663 314.4862 715.7431 319.2152 729.5987 334.7366 753.9043 353.2621 729.1145 382.3226 712.263 365.5749 699.7686 363.0726 688.8132 371.7175 673.9292 353.7137 668.1048 328.2318 Z"/>
<path d="M 200.5495 555.2306 195.363 544.0237 177.2575 556.8021 145.4111 568.4775 122.6404 560.8379 125.5259 545.4958 144.436 538.7191 143.7554 526.5967 154.8735 499.7384 149.4912 487.338 180.3382 486.2219 185.3872 494.1947 207.6595 498.5497 213.1421 512.399 228.655 523.4671 241.196 545.2387 216.2526 554.2857 200.5495 555.2306 Z"/>
<path d="M 565.588 180.9344 581.8475 179.6055 589.5153 195.1834 578.1044 224.9425 600.9668 232.9857 617.568 249.0446 602.5459 264.4107 586.0588 262.7503 568.4774 250.9042 525.2984 260.9951 516.9464 268.207 501.5929 231.7451 518.8206 223.7757 533.0765 208.8346 528.3498 197.0471 538.4012 191.1669 552.2124 197.1179 565.588 180.9344 Z"/>
<path d="M 416.665 735.7934 413.8066 732.8967 429.9092 708.1274 454.374 721.8191 450.7384 741.49 436.9099 747.9738 416.665 735.7934 Z"/>
<path d="M 407.9287 651.3468 408.3135 650.3445 422.9579 656.8443 415.7825 674.3424 433.609 695.3375 429.9092 708.1274 413.8066 732.8967 388.2336 725.2199 370.1473 706.2386 362.5634 694.1472 369.92 679.7145 381.9781 677.6152 389.9218 663.8799 407.9287 651.3468 Z"/>
<path d="M 544.3532 93.4893 554.8198 101.9671 559.6317 127.3605 591.2042 127.1037 592.9462 138.5606 574.8212 152.495 579.3818 160.5244 565.588 180.9344 552.2124 197.1179 538.4012 191.1669 528.3498 197.0471 516.4441 186.6638 532.1887 178.3945 529.4134 168.0761 506.3931 141.058 522.4151 135.1082 546.0336 107.1834 544.3532 93.4893 Z"/>
<path d="M 412.4334 604.3348 423.8964 600.0229 434.8383 613.7577 449.9748 618.9092 412.9821 625.967 408.3135 650.3445 407.9287 651.3468 378.4357 633.4632 377.9281 619.6943 388.5087 605.6148 407.7764 600.6859 412.4334 604.3348 Z"/>
<path d="M 715.7431 319.2152 739.2939 309.4572 751.0193 299.314 775.3275 297.8081 788.204 290.7629 791.778 324.5766 784.2585 341.5815 753.9043 353.2621 729.5987 334.7366 715.7431 319.2152 Z"/>
<path d="M 213.6906 456.7866 216.6913 455.6852 236.9223 464.3231 256.6944 478.4564 257.7838 497.8115 246.9574 511.3711 225.1246 493.9859 227.0721 484.7919 213.6906 456.7866 Z"/>
<path d="M 429.0222 567.5273 447.3609 574.6551 456.9858 595.383 421.5166 584.2026 424.0402 578.5418 429.0222 567.5273 Z"/>
<path d="M 531.3913 572.3496 540.1448 610.9911 534.441 619.7542 510.1626 633.6413 500.5186 646.1738 498.0962 643.5936 516.4767 617.7555 508.8982 608.9068 515.5947 600.0768 531.3913 572.3496 Z"/>
<path d="M 553.9394 532.3044 558.653 550.8415 576.3877 587.5382 562.4913 595.8912 550.1498 614.684 534.441 619.7542 540.1448 610.9911 531.3913 572.3496 553.9394 532.3044 Z"/>
<path d="M 135.1081 489.739 149.4912 487.338 154.8735 499.7384 143.7554 526.5967 144.436 538.7191 125.5259 545.4958 122.6404 560.8379 92.1401 561.6091 70.9737 554.3804 86.3917 531.7345 107.3891 521.6317 119.0397 497.5424 135.1081 489.739 Z"/>
<path d="M 341.3988 636.6577 370.031 631.5213 378.4357 633.4632 407.9287 651.3468 389.9218 663.8799 381.9781 677.6152 369.92 679.7145 362.5634 694.1472 370.1473 706.2386 358.0997 708.3766 332.2712 687.8587 312.0832 675.0556 301.397 655.8689 327.8106 638.164 341.3988 636.6577 Z"/>
<path d="M 133.1101 340.677 130.2212 333.8496 147.4651 344.1061 152.4379 360.0187 188.1125 348.7381 195.8129 367.5771 161.7577 411.7979 143.0926 411.8519 146.7246 400.8077 133.1101 340.677 Z"/>
<path d="M 224.3413 361.6817 213.8866 346.1562 210.9002 314.9193 186.0026 294.5123 147.3306 289.1094 128.6163 272.0976 144.6156 270.2375 183.0032 258.6691 182.8596 234.3413 241.8207 234.0735 258.6665 239.5661 271.5326 213.5189 290.9983 196.6948 305.305 156.8518 298.0483 227.2629 321.7865 231.1079 338.1206 240.4151 323.3748 260.9122 305.5506 293.1834 313.6076 311.2573 335.5769 310.182 340.1627 330.9289 333.0998 330.2395 313.9532 349.9434 316.1234 335.8302 296.2063 330.889 299.2401 364.1928 284.4761 370.3315 277.9618 367.2071 224.3413 361.6817 Z"/>
<path d="M 565.588 180.9344 579.3818 160.5244 594.2494 168.0356 615.696 168.9863 635.7131 175.1912 614.9113 201.2799 622.9107 210.2057 621.335 228.1446 632.4862 240.5411 624.2039 264.1062 617.568 249.0446 600.9668 232.9857 578.1044 224.9425 589.5153 195.1834 581.8475 179.6055 565.588 180.9344 Z"/>
<path d="M 416.665 735.7934 436.9099 747.9738 450.7384 741.49 448.7716 751.1122 428.5967 763.8999 412.4563 748.6538 416.665 735.7934 Z"/>
<path d="M 426.5107 561.3227 435.3213 550.1729 434.3914 530.0578 446.1479 529.202 460.8463 552.3508 447.3609 574.6551 429.0222 567.5273 426.5107 561.3227 Z"/>
<path d="M 460.8463 552.3508 484.6525 561.3019 505.6975 556.5326 517.2175 585.5362 508.4691 598.2489 476.1361 590.7914 457.2321 595.8152 456.9858 595.383 447.3609 574.6551 460.8463 552.3508 Z"/>
<path d="M 556.4134 390.2434 618.6374 446.9842 627.9741 463.3695 663.5445 488.9869 669.9809 487.5827 675.1072 499.458 663.4431 509.8143 647.7018 494.5073 604.6583 506.3286 570.9 494.5312 558.364 459.263 554.8083 439.7966 538.6952 421.282 556.4134 390.2434 Z"/>
<path d="M 281.3977 612.5743 310.3492 613.5161 323.6244 628.8223 341.3988 636.6577 327.8106 638.164 301.397 655.8689 290.6689 673.7313 275.7414 629.4779 281.3977 612.5743 Z"/>
<path d="M 382.4575 463.8952 406.7739 438.1447 403.9769 423.8299 427.6925 440.1885 429.8532 450.7427 449.7627 473.0604 465.6012 484.8019 501.9321 487.8717 503.3561 489.842 489.5032 493.301 482.9565 526.6161 471.4421 522.0829 395.0745 478.7679 382.4575 463.8952 Z"/>
<path d="M 388.2336 725.2199 413.8066 732.8967 416.665 735.7934 412.4563 748.6538 383.9588 737.9041 381.4351 727.3366 388.2336 725.2199 Z"/>
<path d="M 368.836 399.795 375.3457 382.8908 374.8932 348.9176 359.0505 336.7709 373.6291 332.933 402.9802 345.5804 405.7647 356.9232 431.4053 368.7808 439.4797 365.3899 437.6735 391.328 474.7038 422.4325 495.2036 445.3992 502.446 464.8573 501.9321 487.8717 465.6012 484.8019 449.7627 473.0604 429.8532 450.7427 427.6925 440.1885 403.9769 423.8299 368.836 399.795 Z"/>
<path d="M 287.4066 699.2412 298.9714 696.4816 319.3122 708.8052 334.596 730.8393 318.5502 737.7734 320.6073 755.7789 300.0261 747.2367 301.8134 733.2103 290.7233 715.2534 287.4066 699.2412 Z"/>
<path d="M 133.1101 340.677 146.7246 400.8077 143.0926 411.8519 143.2619 437.4853 163.8105 453.423 169.6278 471.6881 144.5459 475.5179 135.1081 489.739 119.0397 497.5424 107.3891 521.6317 86.3917 531.7345 70.9737 554.3804 51.6941 544.9518 39.0691 551.7724 18.4042 545.1805 21.9655 518.9295 30.44 500.7754 21.8937 480.957 33.5926 459.6006 32.3067 428.8907 35.9191 417.4971 40.2967 402.0524 75.4025 368.1844 84.5499 351.2439 102.1713 338.799 123.2544 345.0305 133.1101 340.677 Z"/>
<path d="M 422.9579 656.8443 444.9221 665.0043 451.454 660.5197 474.2479 668.2768 479.369 677.8685 464.4327 694.8531 454.374 721.8191 429.9092 708.1274 433.609 695.3375 415.7825 674.3424 422.9579 656.8443 Z"/>
<path d="M 302.5511 435.7086 315.0587 429.2887 319.2658 425.2974 312.9692 446.3997 316.3859 461.973 346.363 489.3791 368.2516 516.444 348.2184 522.7531 321.573 526.6218 303.8365 523.4323 265.1095 505.8383 257.7838 497.8115 256.6944 478.4564 274.7049 473.2857 274.2937 448.9417 281.6168 431.9212 302.5511 435.7086 Z"/>
<path d="M 412.2967 264.3121 437.2769 271.0542 461.2953 283.1827 471.5407 313.1439 449.0003 326.8557 433.9943 317.9874 414.7483 317.3898 409.0797 300.7763 415.3297 290.8147 388.542 286.109 378.8374 288.7477 380.1799 269.222 399.0746 262.1907 412.2967 264.3121 Z"/>
<path d="M 437.4124 102.8503 448.3742 104.2549 465.3768 83.3501 485.0071 92.7511 518.8995 96.526 544.3532 93.4893 546.0336 107.1834 522.4151 135.1082 506.3931 141.058 478.3291 143.7227 468.7043 151.3013 451.1021 149.7085 444.2962 110.1013 437.4124 102.8503 Z"/>
<path d="M 143.0926 411.8519 161.7577 411.7979 195.8129 367.5771 213.3016 386.6084 222.0849 382.314 229.3978 398.5781 218.3618 413.1793 213.1782 435.917 216.6913 455.6852 213.6906 456.7866 206.7106 469.1074 169.6278 471.6881 163.8105 453.423 143.2619 437.4853 143.0926 411.8519 Z"/>
<path d="M 449.9748 618.9092 468.2767 631.2684 498.0962 643.5936 500.5186 646.1738 500.2325 659.6313 484.8142 687.322 464.4327 694.8531 479.369 677.8685 474.2479 668.2768 451.454 660.5197 444.9221 665.0043 422.9579 656.8443 408.3135 650.3445 412.9821 625.967 449.9748 618.9092 Z"/>
<path d="M 457.2321 595.8152 476.1361 590.7914 508.4691 598.2489 515.5947 600.0768 508.8982 608.9068 484.6034 616.1222 457.2321 595.8152 Z"/>
<path d="M 663.4431 509.8143 637.9277 547.8594 613.8967 525.7784 611.3678 516.5893 584.8354 521.9528 562.2086 517.1449 567.8883 492.6512 570.9 494.5312 604.6583 506.3286 647.7018 494.5073 663.4431 509.8143 Z"/>
<path d="M 319.3122 708.8052 332.2712 687.8587 358.0997 708.3766 370.1473 706.2386 388.2336 725.2199 381.4351 727.3366 349.6975 742.7326 334.596 730.8393 319.3122 708.8052 Z"/>
<path d="M 368.2516 516.444 346.363 489.3791 347.9305 478.1043 361.4015 461.9214 382.4575 463.8952 395.0745 478.7679 471.4421 522.0829 446.1479 529.202 434.3914 530.0578 404.556 527.8584 390.6497 526.8559 368.2516 516.444 Z"/>
<path d="M 635.7131 175.1912 642.9591 183.5382 660.5979 186.2429 672.2819 197.8615 692.4775 202.6492 719.1228 218.5502 732.1961 219.1468 722.722 233.5117 695.7751 227.934 683.5755 224.491 657.357 244.8797 632.4862 240.5411 621.335 228.1446 622.9107 210.2057 614.9113 201.2799 635.7131 175.1912 Z"/>
<path d="M 353.3316 575.4672 380.2611 584.0381 396.3973 579.8421 403.4947 585.2143 407.7764 600.6859 388.5087 605.6148 377.9281 619.6943 378.4357 633.4632 370.031 631.5213 344.7649 609.7988 338.7257 595.7196 353.3316 575.4672 Z"/>
<path d="M 368.2516 516.444 390.6497 526.8559 384.4785 542.5858 363.3605 556.1269 339.0429 547.3885 348.2184 522.7531 368.2516 516.444 Z"/>
<path d="M 451.1021 149.7085 468.7043 151.3013 478.3291 143.7227 506.3931 141.058 529.4134 168.0761 532.1887 178.3945 516.4441 186.6638 494.7614 203.4977 464.6137 203.8431 453.685 214.5815 439.5093 205.5382 427.0811 174.5036 416.6092 170.4207 425.8897 154.8631 439.9457 157.0214 451.1021 149.7085 Z"/>
<path d="M 617.568 249.0446 624.2039 264.1062 628.6081 270.8836 613.2003 291.1554 599.2522 301.242 603.443 316.2184 599.8747 341.2102 629.9172 381.0805 640.9685 411.6259 622.9343 402.0409 590.7845 373.8732 585.0992 364.0886 561.6565 345.3339 560.154 335.3245 523.6313 290.078 516.9464 268.207 525.2984 260.9951 568.4774 250.9042 586.0588 262.7503 602.5459 264.4107 617.568 249.0446 Z"/>
<path d="M 695.7751 227.934 722.722 233.5117 732.1961 219.1468 781.4004 237.1591 799 254.2522 787.6859 279.8206 788.204 290.7629 775.3275 297.8081 751.0193 299.314 739.2939 309.4572 704.1173 265.9163 695.7751 227.934 Z"/>
<path d="M 426.5107 561.3227 429.0222 567.5273 424.0402 578.5418 412.1601 573.8874 403.4947 585.2143 396.3973 579.8421 426.5107 561.3227 Z"/>
<path d="M 628.6081 270.8836 642.644 276.5012 657.6965 299.4348 656.9205 309.8109 668.1048 328.2318 673.9292 353.7137 688.8132 371.7175 699.7686 363.0726 712.263 365.5749 729.1145 382.3226 721.6729 397.4258 722.9243 418.3989 712.9559 421.3886 694.5891 446.441 640.9685 411.6259 629.9172 381.0805 599.8747 341.2102 603.443 316.2184 599.2522 301.242 613.2003 291.1554 628.6081 270.8836 Z"/>
<path d="M 482.9565 526.6161 505.6975 556.5326 484.6525 561.3019 460.8463 552.3508 446.1479 529.202 471.4421 522.0829 482.9565 526.6161 Z"/>
</g>
</svg>