<?xml version="1.0"?>
<svg xmlns="http://www.w3.org/2000/svg" version="1.2" baseProfile="tiny" width="800" height="459" viewBox="0 0 800 459" stroke-linecap="round" stroke-linejoin="round">
<g id="25MUE250GC_SIR">
<path d="M 618.1994 202.3691 614.533 214.6754 593.9101 217.4112 585.4255 206.9717 600.7837 202.3444 618.1994 202.3691 Z"/>
<path d="M 353.4735 207.3288 353.8161 207.2038 363.0477 206.4374 371.6694 212.9972 368.6243 227.5331 351.0111 235.1273 354.8161 231.8731 353.4735 207.3288 Z"/>
<path d="M 90.9166 301.3037 103.4792 311.4369 116.4075 320.3357 90.7435 345.668 65.8921 341.915 62.5924 316.4532 90.9166 301.3037 Z"/>
<path d="M 220.7039 105.6762 252.378 101.3618 261.2337 102.5892 257.209 138.328 250.3766 138.8092 226.1671 140.7652 222.4522 140.7714 196.7367 124.8144 196.0743 115.4666 220.7039 105.6762 Z"/>
<path d="M 564.9829 200.1495 568.2045 184.2555 600.2016 200.5708 600.7837 202.3444 585.4255 206.9717 577.4953 212.964 564.9829 200.1495 Z"/>
<path d="M 102.1945 195.6842 135.2436 199.3394 141.5813 214.3725 118.7037 229.1817 94.6341 232.0631 93.7744 228.3514 86.5626 218.244 95.2337 200.1948 102.1945 195.6842 Z"/>
<path d="M 287.4842 242.7321 291.6112 255.0552 277.1535 268.622 274.7453 258.8116 287.4842 242.7321 Z"/>
<path d="M 169.6124 78.2055 180.735 85.972 172.7096 104.402 157.4376 102.3815 147.9902 90.9216 169.6124 78.2055 Z"/>
<path d="M 22.5895 121.7149 48.1087 137.1886 40.0379 155.8252 38.9788 154.6275 29.6822 152.9158 17.632 137.9147 22.5895 121.7149 Z"/>
<path d="M 231.3955 50.1169 256.8966 44.1075 287.5817 57.3905 276.5254 74.0414 238.5558 80.0705 231.3955 50.1169 Z"/>
<path d="M 588.9087 263.4464 609.5398 262.0523 616.2655 264.8765 605.7873 291.4146 591.6484 289.5016 588.9087 263.4464 Z"/>
<path d="M 107.6197 92.7735 129.1604 100.5173 127.7177 115.6044 103.7554 115.7116 107.6197 92.7735 Z"/>
<path d="M 124.9694 276.7523 139.1954 268.7624 137.3686 275.1962 143.9722 300.4579 132.7573 311.4706 134.2297 292.8932 124.9694 276.7523 Z"/>
<path d="M 209.705 274.2937 209.5242 273.787 232.1872 279.5892 239.6609 295.3001 206.7864 317.0841 209.705 274.2937 Z"/>
<path d="M 347.1356 407.1161 369.9533 405.692 379.133 401.7452 362.0934 434.9872 364.6652 458.0633 338.3027 451.0083 325.8214 423.4263 347.1356 407.1161 Z"/>
<path d="M 101.5408 177.5357 122.9816 175.7036 150.4315 173.5136 152.0884 185.5295 135.2436 199.3394 102.1945 195.6842 101.5408 177.5357 Z"/>
<path d="M 437.5899 324.4682 459.7893 328.4048 466.5457 332.6608 476.4835 359.6956 459.6171 383.0816 448.2677 378.4163 431.9776 338.8733 437.5899 324.4682 Z"/>
<path d="M 780.0889 215.3533 770.6033 230.2878 769.7284 221.5282 780.0889 215.3533 Z"/>
<path d="M 218.5343 199.7811 220.4026 198.5258 250.1745 196.8625 255.2492 242.5494 240.684 260.214 239.9538 260.636 212.8669 232.0578 218.5343 199.7811 Z"/>
<path d="M 699.8559 218.7064 705.1872 224.5584 690.8143 232.0191 699.8559 218.7064 Z"/>
<path d="M 169.2389 292.6293 182.5027 284.1897 209.705 274.2937 206.7864 317.0841 202.5757 321.5789 173.911 305.0299 169.2389 292.6293 Z"/>
<path d="M 697.3156 166.8521 712.0442 170.3685 721.7652 186.813 704.75 187.9085 697.3156 166.8521 Z"/>
<path d="M 616.6293 159.4207 625.0875 170.1763 626.8659 178.6242 596.08 169.8124 594.6083 169.2732 599.3065 161.327 616.6293 159.4207 Z"/>
<path d="M 337.3454 218.7413 353.4735 207.3288 354.8161 231.8731 336.9693 230.8251 337.3454 218.7413 Z"/>
<path d="M 407.2942 266.8569 420.6711 273.6962 384.2363 297.5082 358.0488 293.9225 352.1098 278.1118 407.2942 266.8569 Z"/>
<path d="M 207.1007 93.6418 220.7039 105.6762 196.0743 115.4666 193.5735 115.1971 207.1007 93.6418 Z"/>
<path d="M 682.3977 147.6694 675.4573 149.5761 668.4946 146.7403 662.0856 144.5086 670.4011 137.8132 682.3977 147.6694 Z"/>
<path d="M 563.8692 210.6636 577.4953 212.964 577.4165 213.9127 570.449 218.4574 560.4919 217.0777 563.8692 210.6636 Z"/>
<path d="M 664.1917 158.8835 675.4573 149.5761 682.3977 147.6694 682.8184 147.5283 687.2274 151.3461 697.3156 166.8521 704.75 187.9085 693.9414 193.8241 681.0172 183.2416 664.1917 158.8835 Z"/>
<path d="M 581.1527 111.8227 582.9848 104.9717 609.6728 118.9946 608.2208 131.7 600.5436 134.5474 583.146 132.1944 581.1527 111.8227 Z"/>
<path d="M 673.6609 252.431 692.9087 255.5253 703.2337 270.1151 701.3956 274.8604 682.0962 287.1975 670.4885 260.8712 673.6609 252.431 Z"/>
<path d="M 238.2532 82.7008 238.5558 80.0705 276.5254 74.0414 275.1241 98.0415 261.2337 102.5892 252.378 101.3618 238.2532 82.7008 Z"/>
<path d="M 431.9776 338.8733 423.6462 334.7208 435.3987 314.0837 437.5899 324.4682 431.9776 338.8733 Z"/>
<path d="M 617.1097 240.8422 622.5123 238.6172 615.9718 249.1861 617.1097 240.8422 Z"/>
<path d="M 681.0172 183.2416 693.9414 193.8241 682.1152 203.3203 658.8844 210.2052 654.0111 202.9601 665.1174 189.5115 681.0172 183.2416 Z"/>
<path d="M 541.9211 318.517 565.2426 328.0303 549.2245 357.1759 530.8064 354.7601 530.6307 351.7885 531.4257 324.977 541.9211 318.517 Z"/>
<path d="M 307.802 38.2095 287.5817 57.3905 256.8966 44.1075 287.1827 29.3962 307.802 38.2095 Z"/>
<path d="M 71.4694 238.5831 71.7111 237.1137 89.2194 228.971 69.9984 258.4281 71.4694 238.5831 Z"/>
<path d="M 461.8226 105.9002 487.0485 56.2216 510.7149 82.7152 511.0113 107.9695 509.1657 115.1167 502.6763 135.5485 499.6 131.9064 479.7339 114.8352 468.0623 122.057 461.8226 105.9002 Z"/>
<path d="M 196.6608 172.5853 214.9026 188.6797 220.4026 198.5258 218.5343 199.7811 189.3238 200.6301 179.459 200.5672 169.6314 191.1105 196.6608 172.5853 Z"/>
<path d="M 725.3413 203.2422 745.9164 213.0927 744.2464 242.9521 727.3792 239.7053 720.0913 232.4917 725.3413 203.2422 Z"/>
<path d="M 690.5704 232.9916 696.4452 240.2821 692.9087 255.5253 673.6609 252.431 667.1909 248.1326 687.3726 235.8971 690.5704 232.9916 Z"/>
<path d="M 180.735 85.972 189.9882 85.5994 207.1007 93.6418 193.5735 115.1971 172.7096 104.402 180.735 85.972 Z"/>
<path d="M 735.2342 97.5899 764.3226 93.7036 765.1149 116.8781 756.7556 115.6456 740.0013 121.2371 735.2342 97.5899 Z"/>
<path d="M 526.6003 185.457 533.6216 182.8835 546.054 192.2374 566.0655 178.5104 568.2045 184.2555 564.9829 200.1495 563.8692 210.6636 560.4919 217.0777 550.3709 230.1035 537.2495 227.7834 511.1124 236.5313 509.2863 217.9297 526.6003 185.457 Z"/>
<path d="M 41.6673 247.4986 71.4694 238.5831 69.9984 258.4281 69.7174 265.9704 42.6874 264.2504 41.6673 247.4986 Z"/>
<path d="M 59.5264 75.1356 58.918 78.241 45.5703 84.919 41.4658 83.4168 59.5264 75.1356 Z"/>
<path d="M 625.0875 170.1763 639.4097 164.3698 643.9242 173.8736 644.2536 178.2169 640.4459 180.5609 626.8659 178.6242 625.0875 170.1763 Z"/>
<path d="M 319.2221 259.1235 325.4853 246.4149 351.8769 247.2751 344.1543 273.2168 319.2221 259.1235 Z"/>
<path d="M 675.6892 93.909 666.3386 118.6314 668.7698 93.3063 675.6892 93.909 Z"/>
<path d="M 82.2388 119.1331 103.7554 115.7116 127.7177 115.6044 131.6682 117.0446 134.8619 134.125 125.165 147.0732 122.9816 175.7036 101.5408 177.5357 87.9364 171.6603 82.1085 150.798 82.2388 119.1331 Z"/>
<path d="M 152.0884 185.5295 179.459 200.5672 189.3238 200.6301 188.9166 215.7852 141.5813 214.3725 135.2436 199.3394 152.0884 185.5295 Z"/>
<path d="M 693.9414 193.8241 704.75 187.9085 699.8559 218.7064 682.1159 203.426 682.1152 203.3203 693.9414 193.8241 Z"/>
<path d="M 577.4953 212.964 585.4255 206.9717 593.9101 217.4112 590.6226 222.1569 577.4165 213.9127 577.4953 212.964 Z"/>
<path d="M 489.6975 258.7165 526.6077 266.527 512.6331 286.4486 511.1575 308.5391 495.5501 317.2905 470.2419 295.2247 489.6975 258.7165 Z"/>
<path d="M 441.9056 232.8736 458.3701 235.0304 490.6524 234.7843 489.6975 258.7165 470.8441 257.7045 435.2977 267.5826 443.6681 261.4504 441.9056 232.8736 Z"/>
<path d="M 413.8236 251.2045 443.6681 261.4504 435.2977 267.5826 428.5343 275.6707 420.6711 273.6962 407.2942 266.8569 403.3531 258.242 413.8236 251.2045 Z"/>
<path d="M 667.1909 248.1326 673.6609 252.431 670.4885 260.8712 650.5172 275.9362 649.7483 274.867 648.5512 237.0308 653.9807 237.4854 667.1909 248.1326 Z"/>
<path d="M 51.9109 99.3932 52.8197 101.6257 65.4462 111.0563 53.2388 128.7533 51.9109 99.3932 Z"/>
<path d="M 599.4576 227.1877 615.2065 217.7594 620.7277 226.7247 617.1097 240.8422 615.9718 249.1861 589.7497 236.0246 599.4576 227.1877 Z"/>
<path d="M 503.6535 165.6866 526.6003 185.457 509.2863 217.9297 485.5298 187.8753 490.6526 184.447 503.6535 165.6866 Z"/>
<path d="M 440.9891 385.3406 429.8542 395.502 429.7008 420.6163 375.8354 446.7635 364.6652 458.0633 362.0934 434.9872 379.133 401.7452 392.055 389.5228 440.9891 385.3406 Z"/>
<path d="M 616.2655 264.8765 649.7483 274.867 650.5172 275.9362 646.7455 285.725 640.184 287.5415 605.7873 291.4146 616.2655 264.8765 Z"/>
<path d="M 134.8619 134.125 150.9817 131.3472 148.3735 149.2191 153.8836 171.1418 150.4315 173.5136 122.9816 175.7036 125.165 147.0732 134.8619 134.125 Z"/>
<path d="M 410.0789 353.0701 440.9891 385.3406 392.055 389.5228 379.133 401.7452 369.9533 405.692 362.589 364.2126 403.0965 361.5971 410.0789 353.0701 Z"/>
<path d="M 307.802 38.2095 287.1827 29.3962 256.8966 44.1075 231.3955 50.1169 230.7032 30.7653 262.3977 24.4798 303.1938 1 319.4945 6.3331 322.1448 27.4742 307.802 38.2095 Z"/>
<path d="M 629.5431 156.5979 642.054 157.754 640.913 160.9528 639.4097 164.3698 625.0875 170.1763 616.6293 159.4207 629.5431 156.5979 Z"/>
<path d="M 31.061 101.9547 49.9451 94.6774 51.9109 99.3932 53.2388 128.7533 48.1087 137.1886 22.5895 121.7149 31.061 101.9547 Z"/>
<path d="M 324.2541 353.882 349.7913 341.3914 362.589 364.2126 369.9533 405.692 347.1356 407.1161 324.7337 403.0239 292.6152 384.9782 311.0636 359.2903 324.2541 353.882 Z"/>
<path d="M 526.6077 266.527 530.4452 269.017 546.4535 294.0519 538.8662 317.7657 516.4716 326.8066 511.1575 308.5391 512.6331 286.4486 526.6077 266.527 Z"/>
<path d="M 23.582 233.7776 71.7111 237.1137 71.4694 238.5831 41.6673 247.4986 23.582 233.7776 Z"/>
<path d="M 468.0623 122.057 479.7339 114.8352 499.6 131.9064 480.2955 145.9033 448.8613 143.0526 452.8321 115.027 468.0623 122.057 Z"/>
<path d="M 712.0442 170.3685 724.5018 166.8764 733.0104 175.7758 737.9839 184.5577 731.1224 184.8292 721.7652 186.813 712.0442 170.3685 Z"/>
<path d="M 441.9257 171.5251 443.924 174.4148 441.1293 192.1408 420.1547 199.7653 418.035 198.6737 424.4084 182.2931 441.9257 171.5251 Z"/>
<path d="M 324.7337 403.0239 347.1356 407.1161 325.8214 423.4263 324.7337 403.0239 Z"/>
<path d="M 324.1984 156.1248 354.0937 138.2692 363.1118 153.0903 352.7093 171.4495 324.1984 156.1248 Z"/>
<path d="M 349.7913 341.3914 324.2541 353.882 322.4229 337.3847 337.5457 316.8445 349.7913 341.3914 Z"/>
<path d="M 696.4452 240.2821 710.9913 238.1634 713.4499 257.22 703.2337 270.1151 692.9087 255.5253 696.4452 240.2821 Z"/>
<path d="M 131.6682 117.0446 160.1307 118.9825 150.9817 131.3472 134.8619 134.125 131.6682 117.0446 Z"/>
<path d="M 725.3413 203.2422 731.1224 184.8292 737.9839 184.5577 760.0351 178.2517 784.2192 192.3463 786.2668 202.7295 785.221 208.6986 780.0889 215.3533 769.7284 221.5282 770.6033 230.2878 771.9828 242.2718 769.1626 246.9116 749.0217 252.9235 744.2464 242.9521 745.9164 213.0927 725.3413 203.2422 Z"/>
<path d="M 132.4742 311.7116 132.7573 311.4706 143.9722 300.4579 156.9195 305.4982 172.8604 337.4114 159.3055 353.4252 139.3826 352.3668 142.798 326.125 132.4742 311.7116 Z"/>
<path d="M 670.4885 260.8712 682.0962 287.1975 658.1258 294.2549 646.7455 285.725 650.5172 275.9362 670.4885 260.8712 Z"/>
<path d="M 691.6177 120.4341 693.3474 137.9615 687.3078 146.2329 674.0082 131.1518 691.6177 120.4341 Z"/>
<path d="M 588.9087 263.4464 591.6484 289.5016 581.7007 299.978 554.3929 288.157 555.6851 274.2602 565.802 253.264 588.9087 263.4464 Z"/>
<path d="M 614.533 214.6754 615.2065 217.7594 599.4576 227.1877 590.6226 222.1569 593.9101 217.4112 614.533 214.6754 Z"/>
<path d="M 640.184 287.5415 646.7455 285.725 658.1258 294.2549 653.1479 325.7085 633.0262 330.2412 625.6445 321.1971 640.184 287.5415 Z"/>
<path d="M 651.3531 150.7178 652.7529 148.0985 668.4946 146.7403 675.4573 149.5761 664.1917 158.8835 656.4553 160.4168 640.913 160.9528 642.054 157.754 651.3531 150.7178 Z"/>
<path d="M 141.5813 214.3725 134.8726 244.172 118.7037 229.1817 141.5813 214.3725 Z"/>
<path d="M 656.4553 160.4168 664.1917 158.8835 681.0172 183.2416 665.1174 189.5115 662.606 181.3327 650.8746 172.6479 656.4553 160.4168 Z"/>
<path d="M 422.91 223.076 441.9056 232.8736 443.6681 261.4504 413.8236 251.2045 422.91 223.076 Z"/>
<path d="M 337.5457 316.8445 337.5031 301.0816 349.7927 296.8312 337.5457 316.8445 Z"/>
<path d="M 635.3588 230.7397 648.5512 237.0308 649.7483 274.867 616.2655 264.8765 609.5398 262.0523 615.9718 249.1861 622.5123 238.6172 635.3588 230.7397 Z"/>
<path d="M 83.024 172.7827 87.9364 171.6603 101.5408 177.5357 102.1945 195.6842 95.2337 200.1948 80.3113 194.4779 75.2609 194.1285 67.2856 184.0618 83.024 172.7827 Z"/>
<path d="M 243.5459 151.3982 250.3766 138.8092 257.209 138.328 291.5428 134.084 307.6013 161.4183 312.0431 177.8903 273.6065 183.5373 257.1469 179.2 243.5459 151.3982 Z"/>
<path d="M 521.2065 82.0577 540.8815 76.9909 555.2815 92.1903 585.9598 93.5122 582.9848 104.9717 581.1527 111.8227 562.5032 114.0278 534.866 129.9235 507.3838 124.5907 509.1657 115.1167 511.0113 107.9695 521.2065 82.0577 Z"/>
<path d="M 48.1087 137.1886 53.2388 128.7533 65.4462 111.0563 85.9596 111.7891 82.2388 119.1331 82.1085 150.798 83.024 172.7827 67.2856 184.0618 67.1039 159.2765 40.0379 155.8252 48.1087 137.1886 Z"/>
<path d="M 184.9761 62.377 205.2905 33.3399 230.7032 30.7653 231.3955 50.1169 238.5558 80.0705 238.2532 82.7008 207.0029 74.0267 207.1007 93.6418 189.9882 85.5994 184.9761 62.377 Z"/>
<path d="M 137.3686 275.1962 162.626 297.7658 156.9195 305.4982 143.9722 300.4579 137.3686 275.1962 Z"/>
<path d="M 710.9913 238.1634 720.0025 232.5055 720.0913 232.4917 727.3792 239.7053 718.8658 259.4437 713.4499 257.22 710.9913 238.1634 Z"/>
<path d="M 600.5436 134.5474 608.2208 131.7 620.119 128.1165 628.0503 151.4123 629.5431 156.5979 616.6293 159.4207 599.3065 161.327 600.5436 134.5474 Z"/>
<path d="M 510.7149 82.7152 521.2065 82.0577 511.0113 107.9695 510.7149 82.7152 Z"/>
<path d="M 420.6711 273.6962 428.5343 275.6707 449.4116 303.1532 435.3987 314.0837 423.6462 334.7208 402.394 343.5942 384.2363 297.5082 420.6711 273.6962 Z"/>
<path d="M 674.0082 131.1518 687.3078 146.2329 682.8184 147.5283 682.3977 147.6694 670.4011 137.8132 674.0082 131.1518 Z"/>
<path d="M 352.7093 171.4495 366.7257 188.9483 363.0477 206.4374 353.8161 207.2038 320.0102 193.1676 312.0431 177.8903 307.6013 161.4183 324.1984 156.1248 352.7093 171.4495 Z"/>
<path d="M 198.4196 225.3704 212.8669 232.0578 239.9538 260.636 217.6895 261.9576 209.5242 273.787 209.705 274.2937 182.5027 284.1897 173.4589 258.9947 198.4196 225.3704 Z"/>
<path d="M 38.9788 154.6275 40.0379 155.8252 67.1039 159.2765 67.2856 184.0618 75.2609 194.1285 51.9006 194.6991 34.5149 207.9178 18.4147 206.3641 17.6203 206.0664 22.8592 172.1165 38.9788 154.6275 Z"/>
<path d="M 591.6484 289.5016 605.7873 291.4146 640.184 287.5415 625.6445 321.1971 614.4886 326.0951 591.6484 289.5016 Z"/>
<path d="M 499.6 131.9064 502.6763 135.5485 505.7809 133.196 504.1483 158.3852 474.7954 167.7378 446.8162 164.9369 448.8613 143.0526 480.2955 145.9033 499.6 131.9064 Z"/>
<path d="M 287.2596 239.9494 305.0473 236.5983 319.3453 243.2275 325.4853 246.4149 319.2221 259.1235 291.6112 255.0552 287.4842 242.7321 287.2596 239.9494 Z"/>
<path d="M 530.4452 269.017 555.6851 274.2602 554.3929 288.157 546.4535 294.0519 530.4452 269.017 Z"/>
<path d="M 420.1547 199.7653 441.1293 192.1408 443.924 174.4148 460.3079 195.5853 458.3701 235.0304 441.9056 232.8736 422.91 223.076 423.1104 222.3613 420.1547 199.7653 Z"/>
<path d="M 276.7381 229.7796 287.2596 239.9494 287.4842 242.7321 274.7453 258.8116 240.684 260.214 255.2492 242.5494 276.7381 229.7796 Z"/>
<path d="M 58.918 78.241 59.5264 75.1356 95.2079 97.1397 85.9596 111.7891 65.4462 111.0563 52.8197 101.6257 58.918 78.241 Z"/>
<path d="M 406.8236 201.8485 418.035 198.6737 420.1547 199.7653 423.1104 222.3613 399.5083 219.4257 406.8236 201.8485 Z"/>
<path d="M 693.3474 137.9615 708.9101 135.3885 711.9456 133.9829 711.2233 148.7395 687.2274 151.3461 682.8184 147.5283 687.3078 146.2329 693.3474 137.9615 Z"/>
<path d="M 704.75 187.9085 721.7652 186.813 731.1224 184.8292 725.3413 203.2422 720.0913 232.4917 720.0025 232.5055 705.1872 224.5584 699.8559 218.7064 704.75 187.9085 Z"/>
<path d="M 595.2201 171.1197 596.08 169.8124 626.8659 178.6242 640.4459 180.5609 640.8417 185.0446 618.1994 202.3691 600.7837 202.3444 600.2016 200.5708 595.2201 171.1197 Z"/>
<path d="M 487.0485 56.2216 461.8226 105.9002 450.407 96.2418 455.6453 67.4297 487.0485 56.2216 Z"/>
<path d="M 351.8769 247.2751 387.8512 262.6031 403.3531 258.242 407.2942 266.8569 352.1098 278.1118 344.1543 273.2168 351.8769 247.2751 Z"/>
<path d="M 156.9195 305.4982 162.626 297.7658 169.2389 292.6293 173.911 305.0299 202.5757 321.5789 172.8604 337.4114 156.9195 305.4982 Z"/>
<path d="M 568.2045 184.2555 566.0655 178.5104 595.2201 171.1197 600.2016 200.5708 568.2045 184.2555 Z"/>
<path d="M 626.1879 94.3618 629.5399 86.8178 668.7698 93.3063 666.3386 118.6314 655.4044 125.8408 652.3732 125.2627 648.9148 115.4567 645.3433 105.3078 626.1879 94.3618 Z"/>
<path d="M 576.9691 155.1659 571.9297 140.3973 583.146 132.1944 600.5436 134.5474 599.3065 161.327 594.6083 169.2732 576.9691 155.1659 Z"/>
<path d="M 670.4011 137.8132 662.0856 144.5086 672.6431 129.7321 674.0082 131.1518 670.4011 137.8132 Z"/>
<path d="M 713.4499 257.22 718.8658 259.4437 726.8612 275.8278 701.3956 274.8604 703.2337 270.1151 713.4499 257.22 Z"/>
<path d="M 534.866 129.9235 562.5032 114.0278 554.967 130.6617 571.9297 140.3973 576.9691 155.1659 533.6216 182.8835 526.6003 185.457 503.6535 165.6866 503.6824 165.6273 534.866 129.9235 Z"/>
<path d="M 691.6177 120.4341 708.9101 135.3885 693.3474 137.9615 691.6177 120.4341 Z"/>
<path d="M 516.4716 326.8066 538.8662 317.7657 541.9211 318.517 531.4257 324.977 530.6307 351.7885 516.4716 326.8066 Z"/>
<path d="M 274.7453 258.8116 277.1535 268.622 256.6193 275.2158 239.6609 295.3001 232.1872 279.5892 209.5242 273.787 217.6895 261.9576 239.9538 260.636 240.684 260.214 274.7453 258.8116 Z"/>
<path d="M 400.2475 179.6121 403.2281 179.5329 424.4084 182.2931 418.035 198.6737 406.8236 201.8485 381.7308 209.0492 400.2475 179.6121 Z"/>
<path d="M 726.8612 275.8278 718.8658 259.4437 727.3792 239.7053 744.2464 242.9521 749.0217 252.9235 766.9956 278.4144 760.8433 297.4985 743.6388 277.098 726.8612 275.8278 Z"/>
<path d="M 495.5501 317.2905 511.1575 308.5391 516.4716 326.8066 530.6307 351.7885 530.8064 354.7601 476.4835 359.6956 466.5457 332.6608 483.6918 332.8608 495.5501 317.2905 Z"/>
<path d="M 173.4589 258.9947 182.5027 284.1897 169.2389 292.6293 162.626 297.7658 137.3686 275.1962 139.1954 268.7624 142.7296 260.7179 173.4589 258.9947 Z"/>
<path d="M 581.7007 299.978 591.6484 289.5016 614.4886 326.0951 589.6154 329.9403 583.373 330.4042 581.7007 299.978 Z"/>
<path d="M 740.0013 121.2371 756.7556 115.6456 752.2587 138.0224 773.0068 149.9255 778.2575 169.7317 760.0351 178.2517 737.9839 184.5577 733.0104 175.7758 731.1796 151.809 740.0013 121.2371 Z"/>
<path d="M 620.119 128.1165 648.9148 115.4567 652.3732 125.2627 652.7529 148.0985 651.3531 150.7178 628.0503 151.4123 620.119 128.1165 Z"/>
<path d="M 148.3735 149.2191 173.9726 143.2647 178.698 159.7461 153.8836 171.1418 148.3735 149.2191 Z"/>
<path d="M 675.6892 93.909 684.4027 98.4339 691.6177 120.4341 674.0082 131.1518 672.6431 129.7321 655.4044 125.8408 666.3386 118.6314 675.6892 93.909 Z"/>
<path d="M 243.5459 151.3982 238.8827 158.8921 226.1671 140.7652 250.3766 138.8092 243.5459 151.3982 Z"/>
<path d="M 443.924 174.4148 441.9257 171.5251 446.8162 164.9369 474.7954 167.7378 490.6526 184.447 485.5298 187.8753 460.3079 195.5853 443.924 174.4148 Z"/>
<path d="M 305.5282 219.0301 311.8154 213.2166 337.3454 218.7413 336.9693 230.8251 319.3453 243.2275 305.0473 236.5983 305.5282 219.0301 Z"/>
<path d="M 129.1604 100.5173 147.9902 90.9216 157.4376 102.3815 160.1307 118.9825 131.6682 117.0446 127.7177 115.6044 129.1604 100.5173 Z"/>
<path d="M 184.9761 62.377 189.9882 85.5994 180.735 85.972 169.6124 78.2055 184.9761 62.377 Z"/>
<path d="M 771.6546 140.5573 773.0068 149.9255 752.2587 138.0224 771.6546 140.5573 Z"/>
<path d="M 766.9956 278.4144 788.1761 285.1808 787.2971 305.4848 760.8433 297.4985 766.9956 278.4144 Z"/>
<path d="M 490.6524 234.7843 511.1124 236.5313 537.2495 227.7834 530.4452 269.017 526.6077 266.527 489.6975 258.7165 490.6524 234.7843 Z"/>
<path d="M 537.2495 227.7834 550.3709 230.1035 575.0464 232.9584 589.7497 236.0246 615.9718 249.1861 609.5398 262.0523 588.9087 263.4464 565.802 253.264 555.6851 274.2602 530.4452 269.017 537.2495 227.7834 Z"/>
<path d="M 107.6197 92.7735 103.7554 115.7116 82.2388 119.1331 85.9596 111.7891 95.2079 97.1397 107.6197 92.7735 Z"/>
<path d="M 132.1347 311.9136 132.4742 311.7116 142.798 326.125 139.3826 352.3668 126.901 357.0884 132.1347 311.9136 Z"/>
<path d="M 80.3113 194.4779 95.2337 200.1948 86.5626 218.244 80.3113 194.4779 Z"/>
<path d="M 614.4886 326.0951 625.6445 321.1971 633.0262 330.2412 591.5603 347.7815 589.6154 329.9403 614.4886 326.0951 Z"/>
<path d="M 250.4571 196.8395 257.1469 179.2 273.6065 183.5373 312.0431 177.8903 320.0102 193.1676 311.8154 213.2166 305.5282 219.0301 276.6625 227.1529 280.4687 196.7761 250.4571 196.8395 Z"/>
<path d="M 371.6694 212.9972 381.7308 209.0492 406.8236 201.8485 399.5083 219.4257 368.6243 227.5331 371.6694 212.9972 Z"/>
<path d="M 89.2194 228.971 93.7744 228.3514 94.6341 232.0631 88.3334 263.2571 70.1537 265.7629 69.7174 265.9704 69.9984 258.4281 89.2194 228.971 Z"/>
<path d="M 691.6177 120.4341 684.4027 98.4339 718.7577 106.1466 711.9456 133.9829 708.9101 135.3885 691.6177 120.4341 Z"/>
<path d="M 640.4459 180.5609 644.2536 178.2169 662.606 181.3327 665.1174 189.5115 654.0111 202.9601 640.8417 185.0446 640.4459 180.5609 Z"/>
<path d="M 70.1537 265.7629 88.3334 263.2571 101.0632 275.0883 101.5066 294.2818 103.4792 311.4369 90.9166 301.3037 72.5484 282.2585 70.1537 265.7629 Z"/>
<path d="M 509.1657 115.1167 507.3838 124.5907 505.7809 133.196 502.6763 135.5485 509.1657 115.1167 Z"/>
<path d="M 489.6975 258.7165 470.2419 295.2247 459.7893 328.4048 437.5899 324.4682 435.3987 314.0837 449.4116 303.1532 428.5343 275.6707 435.2977 267.5826 470.8441 257.7045 489.6975 258.7165 Z"/>
<path d="M 718.7577 106.1466 735.2342 97.5899 740.0013 121.2371 731.1796 151.809 733.0104 175.7758 724.5018 166.8764 711.2233 148.7395 711.9456 133.9829 718.7577 106.1466 Z"/>
<path d="M 250.1745 196.8625 250.4571 196.8395 280.4687 196.7761 276.6625 227.1529 276.7381 229.7796 255.2492 242.5494 250.1745 196.8625 Z"/>
<path d="M 227.6826 157.7713 214.9026 188.6797 196.6608 172.5853 207.7088 156.3487 227.6826 157.7713 Z"/>
<path d="M 560.4919 217.0777 570.449 218.4574 575.0464 232.9584 550.3709 230.1035 560.4919 217.0777 Z"/>
<path d="M 148.3735 149.2191 150.9817 131.3472 160.1307 118.9825 196.7367 124.8144 222.4522 140.7714 227.6826 157.7713 207.7088 156.3487 196.6608 172.5853 169.6314 191.1105 179.459 200.5672 152.0884 185.5295 150.4315 173.5136 153.8836 171.1418 178.698 159.7461 173.9726 143.2647 148.3735 149.2191 Z"/>
<path d="M 460.3079 195.5853 485.5298 187.8753 509.2863 217.9297 511.1124 236.5313 490.6524 234.7843 458.3701 235.0304 460.3079 195.5853 Z"/>
<path d="M 351.0111 235.1273 368.6243 227.5331 399.5083 219.4257 423.1104 222.3613 422.91 223.076 413.8236 251.2045 403.3531 258.242 387.8512 262.6031 351.8769 247.2751 351.0111 235.1273 Z"/>
<path d="M 222.4522 140.7714 226.1671 140.7652 238.8827 158.8921 250.1745 196.8625 220.4026 198.5258 214.9026 188.6797 227.6826 157.7713 222.4522 140.7714 Z"/>
<path d="M 618.792 114.3701 645.3433 105.3078 648.9148 115.4567 620.119 128.1165 608.2208 131.7 609.6728 118.9946 618.792 114.3701 Z"/>
<path d="M 687.2274 151.3461 711.2233 148.7395 724.5018 166.8764 712.0442 170.3685 697.3156 166.8521 687.2274 151.3461 Z"/>
<path d="M 778.2575 169.7317 784.2192 192.3463 760.0351 178.2517 778.2575 169.7317 Z"/>
<path d="M 629.5399 86.8178 626.1879 94.3618 618.792 114.3701 609.6728 118.9946 582.9848 104.9717 585.9598 93.5122 629.5399 86.8178 Z"/>
<path d="M 562.5032 114.0278 581.1527 111.8227 583.146 132.1944 571.9297 140.3973 554.967 130.6617 562.5032 114.0278 Z"/>
<path d="M 349.7927 296.8312 358.0488 293.9225 384.2363 297.5082 402.394 343.5942 410.0789 353.0701 403.0965 361.5971 362.589 364.2126 349.7913 341.3914 337.5457 316.8445 349.7927 296.8312 Z"/>
<path d="M 72.5484 282.2585 90.9166 301.3037 62.5924 316.4532 54.3241 285.1097 72.5484 282.2585 Z"/>
<path d="M 157.4376 102.3815 172.7096 104.402 193.5735 115.1971 196.0743 115.4666 196.7367 124.8144 160.1307 118.9825 157.4376 102.3815 Z"/>
<path d="M 626.1879 94.3618 645.3433 105.3078 618.792 114.3701 626.1879 94.3618 Z"/>
<path d="M 576.9691 155.1659 594.6083 169.2732 596.08 169.8124 595.2201 171.1197 566.0655 178.5104 546.054 192.2374 533.6216 182.8835 576.9691 155.1659 Z"/>
<path d="M 410.0789 353.0701 402.394 343.5942 423.6462 334.7208 431.9776 338.8733 448.2677 378.4163 440.9891 385.3406 410.0789 353.0701 Z"/>
<path d="M 546.4535 294.0519 554.3929 288.157 581.7007 299.978 583.373 330.4042 565.2426 328.0303 541.9211 318.517 538.8662 317.7657 546.4535 294.0519 Z"/>
<path d="M 570.449 218.4574 577.4165 213.9127 590.6226 222.1569 599.4576 227.1877 589.7497 236.0246 575.0464 232.9584 570.449 218.4574 Z"/>
<path d="M 16.9334 167.4012 22.8592 172.1165 17.6203 206.0664 1.8859 196.1317 1 177.327 16.9334 167.4012 Z"/>
<path d="M 336.9693 230.8251 354.8161 231.8731 351.0111 235.1273 351.8769 247.2751 325.4853 246.4149 319.3453 243.2275 336.9693 230.8251 Z"/>
<path d="M 618.1994 202.3691 640.8417 185.0446 654.0111 202.9601 658.8844 210.2052 650.4364 221.0245 632.0279 223.5207 620.7277 226.7247 615.2065 217.7594 614.533 214.6754 618.1994 202.3691 Z"/>
<path d="M 337.5031 301.0816 337.5457 316.8445 322.4229 337.3847 314.9865 324.7576 337.5031 301.0816 Z"/>
<path d="M 789.6022 208.0312 797.0488 245.0936 771.9828 242.2718 770.6033 230.2878 780.0889 215.3533 785.221 208.6986 789.6022 208.0312 Z"/>
<path d="M 705.1872 224.5584 720.0025 232.5055 710.9913 238.1634 696.4452 240.2821 690.5704 232.9916 690.8143 232.0191 705.1872 224.5584 Z"/>
<path d="M 583.373 330.4042 589.6154 329.9403 591.5603 347.7815 549.2245 357.1759 565.2426 328.0303 583.373 330.4042 Z"/>
<path d="M 29.6822 152.9158 38.9788 154.6275 22.8592 172.1165 16.9334 167.4012 29.6822 152.9158 Z"/>
<path d="M 101.0632 275.0883 124.9694 276.7523 134.2297 292.8932 101.5066 294.2818 101.0632 275.0883 Z"/>
<path d="M 459.7893 328.4048 470.2419 295.2247 495.5501 317.2905 483.6918 332.8608 466.5457 332.6608 459.7893 328.4048 Z"/>
<path d="M 16.4007 312.5524 45.1062 317.1599 61.2846 341.4427 30.9621 345.7489 9.195 320.0806 16.4007 312.5524 Z"/>
<path d="M 651.3531 150.7178 642.054 157.754 629.5431 156.5979 628.0503 151.4123 651.3531 150.7178 Z"/>
<path d="M 652.3732 125.2627 655.4044 125.8408 672.6431 129.7321 662.0856 144.5086 668.4946 146.7403 652.7529 148.0985 652.3732 125.2627 Z"/>
<path d="M 116.4075 320.3357 132.1347 311.9136 126.901 357.0884 94.2748 362.5867 90.7435 345.668 116.4075 320.3357 Z"/>
<path d="M 352.7093 171.4495 363.1118 153.0903 372.9609 147.7763 375.8093 159.5143 400.2475 179.6121 381.7308 209.0492 371.6694 212.9972 363.0477 206.4374 366.7257 188.9483 352.7093 171.4495 Z"/>
<path d="M 505.7809 133.196 507.3838 124.5907 534.866 129.9235 503.6824 165.6273 504.1483 158.3852 505.7809 133.196 Z"/>
<path d="M 769.1626 246.9116 771.9828 242.2718 797.0488 245.0936 797.7327 274.0646 786.0866 265.9317 769.1626 246.9116 Z"/>
<path d="M 238.8827 158.8921 243.5459 151.3982 257.1469 179.2 250.4571 196.8395 250.1745 196.8625 238.8827 158.8921 Z"/>
<path d="M 640.913 160.9528 656.4553 160.4168 650.8746 172.6479 643.9242 173.8736 639.4097 164.3698 640.913 160.9528 Z"/>
<path d="M 789.6022 208.0312 785.221 208.6986 786.2668 202.7295 789.6022 208.0312 Z"/>
<path d="M 42.6874 264.2504 69.7174 265.9704 70.1537 265.7629 72.5484 282.2585 54.3241 285.1097 62.5924 316.4532 65.8921 341.915 61.2846 341.4427 45.1062 317.1599 16.4007 312.5524 23.4379 289.4408 42.6874 264.2504 Z"/>
<path d="M 58.918 78.241 52.8197 101.6257 51.9109 99.3932 49.9451 94.6774 45.5703 84.919 58.918 78.241 Z"/>
<path d="M 305.5282 219.0301 305.0473 236.5983 287.2596 239.9494 276.7381 229.7796 276.6625 227.1529 305.5282 219.0301 Z"/>
<path d="M 82.1085 150.798 87.9364 171.6603 83.024 172.7827 82.1085 150.798 Z"/>
<path d="M 786.0866 265.9317 797.7327 274.0646 787.2971 305.4848 788.1761 285.1808 786.0866 265.9317 Z"/>
<path d="M 662.606 181.3327 644.2536 178.2169 643.9242 173.8736 650.8746 172.6479 662.606 181.3327 Z"/>
<path d="M 94.6341 232.0631 118.7037 229.1817 134.8726 244.172 142.7296 260.7179 139.1954 268.7624 124.9694 276.7523 101.0632 275.0883 88.3334 263.2571 94.6341 232.0631 Z"/>
<path d="M 238.2532 82.7008 252.378 101.3618 220.7039 105.6762 207.1007 93.6418 207.0029 74.0267 238.2532 82.7008 Z"/>
<path d="M 504.1483 158.3852 503.6824 165.6273 503.6535 165.6866 490.6526 184.447 474.7954 167.7378 504.1483 158.3852 Z"/>
<path d="M 749.0217 252.9235 769.1626 246.9116 786.0866 265.9317 788.1761 285.1808 766.9956 278.4144 749.0217 252.9235 Z"/>
<path d="M 134.2297 292.8932 132.7573 311.4706 132.4742 311.7116 132.1347 311.9136 116.4075 320.3357 103.4792 311.4369 101.5066 294.2818 134.2297 292.8932 Z"/>
<path d="M 41.4658 83.4168 45.5703 84.919 49.9451 94.6774 31.061 101.9547 41.4658 83.4168 Z"/>
<path d="M 18.4147 206.3641 34.5149 207.9178 51.9006 194.6991 75.2609 194.1285 80.3113 194.4779 86.5626 218.244 93.7744 228.3514 89.2194 228.971 71.7111 237.1137 23.582 233.7776 18.4147 206.3641 Z"/>
<path d="M 756.7556 115.6456 765.1149 116.8781 771.6546 140.5573 752.2587 138.0224 756.7556 115.6456 Z"/>
<path d="M 564.9829 200.1495 577.4953 212.964 563.8692 210.6636 564.9829 200.1495 Z"/>
<path d="M 403.2281 179.5329 400.2475 179.6121 375.8093 159.5143 372.9609 147.7763 388.1101 142.566 409.2325 163.7878 403.2281 179.5329 Z"/>
<path d="M 632.0279 223.5207 635.3588 230.7397 622.5123 238.6172 617.1097 240.8422 620.7277 226.7247 632.0279 223.5207 Z"/>
<path d="M 650.4364 221.0245 653.9807 237.4854 648.5512 237.0308 635.3588 230.7397 632.0279 223.5207 650.4364 221.0245 Z"/>
<path d="M 188.9166 215.7852 189.3238 200.6301 218.5343 199.7811 212.8669 232.0578 198.4196 225.3704 188.9166 215.7852 Z"/>
<path d="M 141.5813 214.3725 188.9166 215.7852 198.4196 225.3704 173.4589 258.9947 142.7296 260.7179 134.8726 244.172 141.5813 214.3725 Z"/>
<path d="M 682.1159 203.426 699.8559 218.7064 690.8143 232.0191 690.5704 232.9916 687.3726 235.8971 682.1159 203.426 Z"/>
<path d="M 658.8844 210.2052 682.1152 203.3203 682.1159 203.426 687.3726 235.8971 667.1909 248.1326 653.9807 237.4854 650.4364 221.0245 658.8844 210.2052 Z"/>
<path d="M 311.8154 213.2166 320.0102 193.1676 353.8161 207.2038 353.4735 207.3288 337.3454 218.7413 311.8154 213.2166 Z"/>
</g>
</svg>