<?xml version="1.0"?>
<svg xmlns="http://www.w3.org/2000/svg" version="1.2" baseProfile="tiny" width="800" height="517" viewBox="0 0 800 517" stroke-linecap="round" stroke-linejoin="round">
<g id="26MUE250GC_SIR">
<path d="M 520.2111 397.1713 521.0835 404.6879 518.621 405.4581 514.6945 409.0368 520.2111 397.1713 Z"/>
<path d="M 399.9645 448.2094 406.4095 447.4782 421.1336 452.9255 414.5755 464.0442 401.2582 457.4598 399.9645 448.2094 Z"/>
<path d="M 574.7669 353.3955 573.3171 355.7165 568.0007 353.7471 567.8699 353.7682 554.3984 347.0852 555.4165 340.0837 562.3075 332.8931 575.8872 340.4954 574.7669 353.3955 Z"/>
<path d="M 533.3362 376.4475 537.8766 376.8833 540.0874 377.7667 537.3084 386.9975 521.9961 389.1334 521.9695 389.122 519.4628 380.7438 533.3362 376.4475 Z"/>
<path d="M 294.0626 387.9831 286.0012 393.8751 273.7193 373.1547 277.6742 373.4435 283.8014 374.6336 287.114 389.2896 294.0626 387.9831 Z"/>
<path d="M 75.5878 320.8297 82.2034 341.9849 74.2801 355.3737 75.6164 368.011 65.7159 370.5868 56.036 381.5001 56.5629 365.2587 45.7833 360.1046 50.4816 350.7199 41.9944 335.2491 57.1438 326.5986 60.6105 320.2547 75.5878 320.8297 Z"/>
<path d="M 501.5792 376.6896 514.3082 376.1694 520.8424 378.2131 519.4628 380.7438 521.9695 389.122 518.9845 390.2672 503.745 391.1979 501.9744 391.3079 501.5792 376.6896 Z"/>
<path d="M 539.4489 330.9491 532.5381 334.3519 529.8708 329.2628 530.7542 328.6546 539.4489 330.9491 Z"/>
<path d="M 288.4969 361.6745 292.3977 360.5181 302.4539 363.8592 311.6419 370.113 316.5744 380.2808 305.6844 389.1009 294.0626 387.9831 287.114 389.2896 283.8014 374.6336 288.4969 361.6745 Z"/>
<path d="M 528.3808 409.0466 536.9348 403.7989 548.2568 409.8905 542.5497 425.2452 536.2214 426.0295 529.551 420.5853 528.3808 409.0466 Z"/>
<path d="M 532.5381 334.3519 539.4489 330.9491 546.7149 336.5189 542.09 338.325 532.5381 334.3519 Z"/>
<path d="M 19.8606 458.2042 38.094 438.3646 54.3469 442.3387 67.9481 440.2729 79.9407 472.0751 87.9851 478.3454 82.1404 480.0379 74.5848 506.7872 50.3603 516.404 38.8578 512.8579 46.1189 489.4556 32.3948 479.8082 29.6703 468.3985 19.8606 458.2042 Z"/>
<path d="M 309.6978 350.6143 311.6539 346.271 315.3656 346.9609 315.3468 361.6893 323.3182 372.1733 323.3844 372.2922 316.5744 380.2808 311.6419 370.113 302.4539 363.8592 309.6978 350.6143 Z"/>
<path d="M 115.6148 321.6634 115.6675 355.1406 123.782 353.645 128.5012 373.8055 120.2598 384.2906 112.7096 365.8605 99.3704 364.4182 97.5098 353.3169 92.6793 324.6703 115.6148 321.6634 Z"/>
<path d="M 277.6603 365.3081 277.6742 373.4435 273.7193 373.1547 268.41 365.4364 277.6603 365.3081 Z"/>
<path d="M 323.074 338.693 328.6258 348.9854 315.3656 346.9609 311.6539 346.271 323.074 338.693 Z"/>
<path d="M 505.927 452.1806 508.086 458.6115 495.3019 464.3328 495.5239 454.4813 505.927 452.1806 Z"/>
<path d="M 328.8762 456.1873 341.9851 455.7459 331.6678 469.2263 315.8879 466.7341 328.8762 456.1873 Z"/>
<path d="M 412.3242 474.4448 415.6466 475.5843 421.774 481.7604 405.9897 482.8661 407.662 474.4055 412.3242 474.4448 Z"/>
<path d="M 231.4227 438.1402 231.4431 438.1453 225.5758 465.1713 210.9282 452.987 211.9651 444.9094 231.4227 438.1402 Z"/>
<path d="M 309.6978 350.6143 302.4539 363.8592 292.3977 360.5181 301.5332 350.1428 309.6978 350.6143 Z"/>
<path d="M 395.5301 420.1418 395.6085 419.6803 406.4604 419.9841 408.6993 429.4998 401.2467 436.1409 395.5301 420.1418 Z"/>
<path d="M 429.8169 454.4739 433.7941 452.3684 439.122 454.5235 442.3854 468.3003 435.8836 471.5748 429.8169 454.4739 Z"/>
<path d="M 573.1299 371.8592 558.0866 375.1199 548.2645 363.0813 556.0701 370.853 573.1299 371.8592 Z"/>
<path d="M 568.0007 353.7471 573.3171 355.7165 571.0245 364.013 568.0007 353.7471 Z"/>
<path d="M 115.6148 321.6634 130.4379 320.6167 148.1879 334.8847 141.8198 354.8442 123.782 353.645 115.6675 355.1406 115.6148 321.6634 Z"/>
<path d="M 575.0494 365.0708 575.789 367.5027 573.1299 371.8592 556.0701 370.853 551.9464 356.576 552.0726 355.8829 567.8699 353.7682 568.0007 353.7471 571.0245 364.013 575.0494 365.0708 Z"/>
<path d="M 518.621 405.4581 521.0835 404.6879 527.7107 408.8979 528.3808 409.0466 529.551 420.5853 524.1525 420.6225 518.621 405.4581 Z"/>
<path d="M 548.2568 409.8905 564.5319 415.0431 556.6037 437.0803 553.9453 429.8124 542.5497 425.2452 548.2568 409.8905 Z"/>
<path d="M 28.6916 415.4045 29.927 432.1195 38.094 438.3646 19.8606 458.2042 6.7561 452.6162 1 434.4765 18.0894 417.9467 28.6916 415.4045 Z"/>
<path d="M 423.7979 418.2564 437.3821 417.0883 442.3105 430.0147 440.0381 437.5692 435.4443 439.4068 429.4744 441.4783 425.9339 445.6646 414.4275 432.3853 419.5072 427.7376 423.7979 418.2564 Z"/>
<path d="M 435.451 439.4332 447.5264 453.1989 442.978 457.4261 440.3232 454.3282 435.451 439.4332 Z"/>
<path d="M 518.621 405.4581 524.1525 420.6225 520.5318 422.7726 511.2251 412.5403 514.6945 409.0368 518.621 405.4581 Z"/>
<path d="M 421.1336 452.9255 425.951 454.0002 429.8169 454.4739 435.8836 471.5748 436.8965 474.2407 427.9323 479.6439 426.7411 480.3596 415.6466 475.5843 412.3242 474.4448 412.8897 468.6032 414.5755 464.0442 421.1336 452.9255 Z"/>
<path d="M 370.3481 469.9231 379.9928 463.1643 391.2968 462.3194 391.5746 462.4005 380.6933 484.2981 384.2688 489.4867 374.3439 500.4719 361.3608 492.1208 370.3481 469.9231 Z"/>
<path d="M 205.8221 411.7537 214.7783 403.1048 231.4844 409.9721 238.668 407.9278 231.4431 438.1453 231.4227 438.1402 219.814 433.9728 205.8221 411.7537 Z"/>
<path d="M 540.0874 377.7667 545.8641 379.761 540.676 383.6394 537.3084 386.9975 540.0874 377.7667 Z"/>
<path d="M 341.5468 349.3109 345.1374 347.8299 349.9782 356.3373 338.1963 363.2281 331.9977 355.3975 341.5468 349.3109 Z"/>
<path d="M 54.6669 384.5132 68.036 388.0802 67.4303 417.1319 47.0835 416.1692 36.1105 408.6501 52.1127 391.162 54.6669 384.5132 Z"/>
<path d="M 315.8879 466.7341 304.3414 466.4437 288.0634 469.1788 286.3162 440.9808 301.9178 435.775 301.8397 444.916 318.4192 446.636 328.8762 456.1873 315.8879 466.7341 Z"/>
<path d="M 486.3366 368.9914 487.8818 379.3453 477.836 382.1723 473.9737 380.8442 478.2281 370.7718 486.3366 368.9914 Z"/>
<path d="M 429.6489 374.1532 429.8804 374.5055 435.6454 379.632 429.8563 394.9921 415.1514 401.0308 407.7885 395.8833 418.2613 373.074 429.6489 374.1532 Z"/>
<path d="M 508.4569 420.8929 511.0991 413.6783 511.2251 412.5403 520.5318 422.7726 515.5594 426.9731 511.7149 425.8038 508.4569 420.8929 Z"/>
<path d="M 365.8352 418.3834 377.4942 408.0507 387.6995 404.7291 388.3661 421.685 377.2886 427.0318 365.8352 418.3834 Z"/>
<path d="M 518.2274 431.3214 516.6964 427.6941 515.5594 426.9731 520.5318 422.7726 524.1525 420.6225 529.551 420.5853 536.2214 426.0295 536.9707 439.0167 536.9499 439.0155 518.2274 431.3214 Z"/>
<path d="M 539.6421 461.9471 549.1606 460.0505 545.4342 462.6157 539.6421 461.9471 Z"/>
<path d="M 484.1739 364.3774 492.667 364.4252 496.6936 366.4367 498.5375 367.89 499.1381 373.5737 501.5792 376.6896 492.1736 379.4705 487.8818 379.3453 486.3366 368.9914 484.1739 364.3774 Z"/>
<path d="M 28.6916 415.4045 36.1105 408.6501 47.0835 416.1692 67.4303 417.1319 75.48 428 67.9481 440.2729 54.3469 442.3387 38.094 438.3646 29.927 432.1195 28.6916 415.4045 Z"/>
<path d="M 459.037 398.7575 453.7692 388.2037 460.0232 381.448 461.3094 382.1704 469.1045 380.6172 473.9737 380.8442 477.836 382.1723 471.5275 394.8315 481.0782 400.4792 477.3485 414.9731 469.3664 414.5966 464.4398 416.5928 459.037 398.7575 Z"/>
<path d="M 345.9644 325.3783 354.8172 326.6687 364.5661 333.6889 376.9934 336.1 361.3943 348.629 365.7029 355.9512 345.1374 347.8299 341.5468 349.3109 338.5072 339.5694 345.9644 325.3783 Z"/>
<path d="M 573.1299 371.8592 575.789 367.5027 576.6052 378.0337 568.8044 379.8724 560.9729 375.3173 558.3418 375.6952 558.0866 375.1199 573.1299 371.8592 Z"/>
<path d="M 345.9029 419.7408 359.0836 418.5483 351.9547 440.0844 355.9069 449.0808 371.7026 459.3737 370.177 468.9466 356.2148 455.506 341.9851 455.7459 345.9029 419.7408 Z"/>
<path d="M 398.9341 482.8317 407.662 474.4055 405.9897 482.8661 421.774 481.7604 422.0243 481.956 424.7388 496.4163 415.0969 503.4929 401.0019 497.2037 390.2859 497.6502 390.9446 487.8027 398.9341 482.8317 Z"/>
<path d="M 316.5744 380.2808 323.3844 372.2922 330.2416 379.8239 332.4238 398.6636 324.9409 410.6368 307.84 419.2964 298.184 417.4224 306.8374 399.8838 305.6844 389.1009 316.5744 380.2808 Z"/>
<path d="M 513.1325 349.521 514.2489 350.5776 511.1905 356.0343 502.8992 359.7557 499.2446 354.8296 513.1325 349.521 Z"/>
<path d="M 557.8359 376.4296 561.3339 385.093 559.4672 386.8142 555.7016 389.7348 543.206 388.9695 540.676 383.6394 545.8641 379.761 557.8359 376.4296 Z"/>
<path d="M 501.7634 400.1938 503.745 391.1979 518.9845 390.2672 520.2111 397.1713 514.6945 409.0368 511.2251 412.5403 511.0991 413.6783 503.3509 415.6874 501.7634 400.1938 Z"/>
<path d="M 347.5669 377.0788 365.5852 382.6014 364.8196 397.22 377.4942 408.0507 365.8352 418.3834 359.0836 418.5483 345.9029 419.7408 339.8871 423.0709 323.1437 419.2436 324.9409 410.6368 332.4238 398.6636 330.2416 379.8239 347.5669 377.0788 Z"/>
<path d="M 288.4969 361.6745 283.8014 374.6336 277.6742 373.4435 277.6603 365.3081 288.4969 361.6745 Z"/>
<path d="M 568.8044 379.8724 573.6464 385.7835 569.2649 395.835 559.4672 386.8142 561.3339 385.093 560.9729 375.3173 568.8044 379.8724 Z"/>
<path d="M 537.416 352.2928 533.3545 360.5183 524.1485 361.3819 523.4946 358.1803 537.416 352.2928 Z"/>
<path d="M 528.1637 454.9806 540.6745 450.1866 551.6475 453.02 549.1606 460.0505 539.6421 461.9471 523.8412 457.8417 528.1637 454.9806 Z"/>
<path d="M 512.162 441.5608 516.6964 427.6941 518.2274 431.3214 517.9375 438.7614 529.9637 447.5775 528.1637 454.9806 523.8412 457.8417 508.086 458.6115 505.927 452.1806 512.162 441.5608 Z"/>
<path d="M 489.2542 358.1762 492.667 364.4252 484.1739 364.3774 480.9782 360.5286 489.2542 358.1762 Z"/>
<path d="M 574.7669 353.3955 575.0494 365.0708 571.0245 364.013 573.3171 355.7165 574.7669 353.3955 Z"/>
<path d="M 286.0012 393.8751 294.0626 387.9831 305.6844 389.1009 306.8374 399.8838 298.184 417.4224 291.5905 423.389 273.3283 417.8762 272.3378 406.8696 286.0012 393.8751 Z"/>
<path d="M 388.3661 421.685 395.6085 419.6803 395.5301 420.1418 387.338 437.3278 399.9645 448.2094 401.2582 457.4598 391.2968 462.3194 379.9928 463.1643 382.0187 446.341 377.2886 427.0318 388.3661 421.685 Z"/>
<path d="M 97.0752 413.3556 116.206 415.6809 129.9038 413.3409 136.7029 423.2073 139.0933 441.6512 134.6326 454.3532 116.6683 457.0068 118.3509 466.8089 106.5 477.9836 98.1423 468.644 100.2326 439.1663 89.1308 428.2107 97.0752 413.3556 Z"/>
<path d="M 507.6126 428.7506 511.7149 425.8038 515.5594 426.9731 516.6964 427.6941 512.162 441.5608 507.6126 428.7506 Z"/>
<path d="M 429.4744 441.4783 435.4443 439.4068 435.451 439.4332 440.3232 454.3282 439.122 454.5235 433.7941 452.3684 429.4744 441.4783 Z"/>
<path d="M 395.5301 420.1418 401.2467 436.1409 407.518 442.6045 406.4095 447.4782 399.9645 448.2094 387.338 437.3278 395.5301 420.1418 Z"/>
<path d="M 341.9851 455.7459 356.2148 455.506 370.177 468.9466 370.3481 469.9231 361.3608 492.1208 341.5479 473.1496 331.6678 469.2263 341.9851 455.7459 Z"/>
<path d="M 514.2489 350.5776 520.513 353.8431 511.1905 356.0343 514.2489 350.5776 Z"/>
<path d="M 537.416 352.2928 546.8559 355.3658 538.0794 364.3772 533.3545 360.5183 537.416 352.2928 Z"/>
<path d="M 419.2935 407.4612 423.7979 418.2564 419.5072 427.7376 413.188 413.106 419.2935 407.4612 Z"/>
<path d="M 528.7078 371.8147 533.3362 376.4475 519.4628 380.7438 520.8424 378.2131 528.7078 371.8147 Z"/>
<path d="M 455.2153 378.6529 460.0232 381.448 453.7692 388.2037 459.037 398.7575 452.6454 403.192 451.3631 402.2281 438.0142 401.6471 429.8563 394.9921 435.6454 379.632 429.8804 374.5055 440.6292 378.8743 455.2153 378.6529 Z"/>
<path d="M 68.036 388.0802 78.2093 386.9529 89.0254 401.8223 97.0752 413.3556 89.1308 428.2107 75.48 428 67.4303 417.1319 68.036 388.0802 Z"/>
<path d="M 488.3234 435.7631 498.0032 436.0013 495.5239 454.4813 490.6621 451.292 487.0752 443.0525 487.4151 442.8544 488.3234 435.7631 Z"/>
<path d="M 533.3362 376.4475 528.7078 371.8147 534.6999 370.3398 539.0656 371.6037 537.8766 376.8833 533.3362 376.4475 Z"/>
<path d="M 436.8965 474.2407 435.8836 471.5748 442.3854 468.3003 448.9806 466.5042 460.0516 474.1583 452.4028 476.6204 436.8965 474.2407 Z"/>
<path d="M 415.6466 475.5843 426.7411 480.3596 422.0243 481.956 421.774 481.7604 415.6466 475.5843 Z"/>
<path d="M 490.6621 451.292 495.5239 454.4813 495.3019 464.3328 484.2511 460.9738 484.053 455.1185 490.6621 451.292 Z"/>
<path d="M 231.4431 438.1453 238.668 407.9278 245.9755 418.2512 255.1746 407.244 272.3378 406.8696 273.3283 417.8762 291.5905 423.389 298.184 417.4224 307.84 419.2964 301.9178 435.775 286.3162 440.9808 282.6184 443.8962 271.2795 443.2159 245.9004 460.3619 236.7633 457.1498 225.5758 465.1713 231.4431 438.1453 Z"/>
<path d="M 568.8044 379.8724 576.6052 378.0337 573.6464 385.7835 568.8044 379.8724 Z"/>
<path d="M 521.537 333.6917 529.8708 329.2628 532.5381 334.3519 542.09 338.325 536.2038 344.6301 522.0365 346.9119 521.537 333.6917 Z"/>
<path d="M 349.9782 356.3373 363.8714 363.6058 347.5669 377.0788 330.2416 379.8239 323.3844 372.2922 323.3182 372.1733 330.5239 356.1414 331.9977 355.3975 338.1963 363.2281 349.9782 356.3373 Z"/>
<path d="M 486.0503 429.4219 488.3234 435.7631 487.4151 442.8544 483.523 436.8132 483.8025 435.608 486.0503 429.4219 Z"/>
<path d="M 461.5505 435.4294 470.4938 431.4173 474.8998 438.9084 473.1794 449.229 473.2472 449.929 463.3239 451.7162 453.6726 442.1172 461.5505 435.4294 Z"/>
<path d="M 67.9481 440.2729 75.48 428 89.1308 428.2107 100.2326 439.1663 98.1423 468.644 106.5 477.9836 95.1528 482.5699 87.9851 478.3454 79.9407 472.0751 67.9481 440.2729 Z"/>
<path d="M 439.122 454.5235 440.3232 454.3282 442.978 457.4261 448.9806 466.5042 442.3854 468.3003 439.122 454.5235 Z"/>
<path d="M 120.2598 384.2906 128.5012 373.8055 145.6649 370.0144 146.0903 380.6877 155.3139 386.8512 165.0367 386.3303 155.6266 403.4059 146.0568 404.3905 135.7611 413.5005 136.7029 423.2073 129.9038 413.3409 116.206 415.6809 97.0752 413.3556 89.0254 401.8223 95.2768 395.7133 106.4074 397.2035 120.2598 384.2906 Z"/>
<path d="M 446.248 366.4674 463.9113 361.8573 469.8774 364.7505 463.735 379.9946 461.3094 382.1704 460.0232 381.448 455.2153 378.6529 446.248 366.4674 Z"/>
<path d="M 442.978 457.4261 447.5264 453.1989 452.4857 446.4381 453.2056 446.3947 459.1902 457.7338 467.1563 464.2373 460.0516 474.1583 448.9806 466.5042 442.978 457.4261 Z"/>
<path d="M 551.9464 356.576 556.0701 370.853 548.2645 363.0813 551.9464 356.576 Z"/>
<path d="M 473.2472 449.929 473.1794 449.229 482.7931 449.968 484.053 455.1185 484.2511 460.9738 474.6602 462.7731 473.2472 449.929 Z"/>
<path d="M 245.9004 460.3619 271.2795 443.2159 282.6184 443.8962 267.1217 459.4281 269.9479 481.9948 260.1511 486.0262 241.3597 467.7936 245.9004 460.3619 Z"/>
<path d="M 136.7029 423.2073 135.7611 413.5005 146.0568 404.3905 146.4049 419.3837 154.5209 435.5762 139.0933 441.6512 136.7029 423.2073 Z"/>
<path d="M 85.3033 353.1574 97.5098 353.3169 99.3704 364.4182 112.7096 365.8605 120.2598 384.2906 106.4074 397.2035 95.2768 395.7133 89.0254 401.8223 78.2093 386.9529 68.036 388.0802 54.6669 384.5132 56.036 381.5001 65.7159 370.5868 75.6164 368.011 85.4237 365.2723 85.3033 353.1574 Z"/>
<path d="M 551.6694 444.079 529.9637 447.5775 536.9499 439.0155 536.9707 439.0167 551.6694 444.079 Z"/>
<path d="M 146.0568 404.3905 155.6266 403.4059 168.9368 398.3275 178.8008 402.3787 193.5306 416.2224 172.999 434.7588 163.2672 430.1303 154.5209 435.5762 146.4049 419.3837 146.0568 404.3905 Z"/>
<path d="M 542.09 338.325 546.7149 336.5189 552.158 340.3079 549.9175 351.7299 546.8559 355.3658 537.416 352.2928 536.2038 344.6301 542.09 338.325 Z"/>
<path d="M 422.0243 481.956 426.7411 480.3596 427.9323 479.6439 433.5889 492.842 424.7388 496.4163 422.0243 481.956 Z"/>
<path d="M 536.9348 403.7989 541.437 398.7784 555.1266 401.9774 567.4655 402.2047 564.5319 415.0431 548.2568 409.8905 536.9348 403.7989 Z"/>
<path d="M 173.5645 351.3048 188.4368 360.9551 187.2339 361.4619 173.1932 362.6178 173.5645 351.3048 Z"/>
<path d="M 123.782 353.645 141.8198 354.8442 144.1515 360.4789 145.6649 370.0144 128.5012 373.8055 123.782 353.645 Z"/>
<path d="M 196.1168 364.7352 201.1955 367.5964 208.8551 382.6725 205.8717 389.6263 188.4055 384.3621 196.1168 364.7352 Z"/>
<path d="M 165.0367 386.3303 170.6881 385.6704 168.9368 398.3275 155.6266 403.4059 165.0367 386.3303 Z"/>
<path d="M 419.2935 407.4612 415.1514 401.0308 429.8563 394.9921 438.0142 401.6471 451.3631 402.2281 439.9163 408.6534 437.3821 417.0883 423.7979 418.2564 419.2935 407.4612 Z"/>
<path d="M 498.5375 367.89 515.3953 364.2719 513.6983 373.0582 499.1381 373.5737 498.5375 367.89 Z"/>
<path d="M 414.4275 432.3853 425.9339 445.6646 425.951 454.0002 421.1336 452.9255 406.4095 447.4782 407.518 442.6045 414.4275 432.3853 Z"/>
<path d="M 551.6694 444.079 553.0115 444.4736 551.6475 453.02 540.6745 450.1866 528.1637 454.9806 529.9637 447.5775 551.6694 444.079 Z"/>
<path d="M 483.523 436.8132 487.4151 442.8544 487.0752 443.0525 482.7931 449.968 473.1794 449.229 474.8998 438.9084 483.523 436.8132 Z"/>
<path d="M 323.074 338.693 331.9946 330.8472 338.5072 339.5694 341.5468 349.3109 331.9977 355.3975 330.5239 356.1414 328.6258 348.9854 323.074 338.693 Z"/>
<path d="M 340.1567 323.3263 355.6929 315.8358 354.8172 326.6687 345.9644 325.3783 340.1567 323.3263 Z"/>
<path d="M 463.3239 451.7162 473.2472 449.929 474.6602 462.7731 467.1563 464.2373 459.1902 457.7338 463.3239 451.7162 Z"/>
<path d="M 501.7634 400.1938 503.3509 415.6874 497.388 415.6363 495.4025 416.9416 492.1444 408.1239 501.7634 400.1938 Z"/>
<path d="M 555.7016 389.7348 559.4672 386.8142 569.2649 395.835 567.4655 402.2047 555.1266 401.9774 555.7016 389.7348 Z"/>
<path d="M 391.6194 462.4708 412.8897 468.6032 412.3242 474.4448 407.662 474.4055 398.9341 482.8317 398.7285 473.2941 391.6194 462.4708 Z"/>
<path d="M 401.2582 457.4598 414.5755 464.0442 412.8897 468.6032 391.6194 462.4708 391.5746 462.4005 391.2968 462.3194 401.2582 457.4598 Z"/>
<path d="M 415.1514 401.0308 419.2935 407.4612 413.188 413.106 419.5072 427.7376 414.4275 432.3853 407.518 442.6045 401.2467 436.1409 408.6993 429.4998 406.4604 419.9841 395.6085 419.6803 388.3661 421.685 387.6995 404.7291 398.6351 398.9847 415.1514 401.0308 Z"/>
<path d="M 307.84 419.2964 324.9409 410.6368 323.1437 419.2436 339.8871 423.0709 345.9029 419.7408 341.9851 455.7459 328.8762 456.1873 318.4192 446.636 301.8397 444.916 301.9178 435.775 307.84 419.2964 Z"/>
<path d="M 515.4048 337.479 520.1065 345.6715 520.513 353.8431 514.2489 350.5776 513.1325 349.521 515.4048 337.479 Z"/>
<path d="M 492.1736 379.4705 501.5792 376.6896 501.9744 391.3079 485.0908 392.1387 492.1736 379.4705 Z"/>
<path d="M 492.1444 408.1239 495.4025 416.9416 492.4245 416.6916 484.1992 416.1345 492.1444 408.1239 Z"/>
<path d="M 520.1065 345.6715 522.0365 346.9119 536.2038 344.6301 537.416 352.2928 523.4946 358.1803 522.9244 356.4367 520.513 353.8431 520.1065 345.6715 Z"/>
<path d="M 330.5239 356.1414 323.3182 372.1733 315.3468 361.6893 315.3656 346.9609 328.6258 348.9854 330.5239 356.1414 Z"/>
<path d="M 499.2446 354.8296 502.8992 359.7557 496.6936 366.4367 492.667 364.4252 489.2542 358.1762 499.2446 354.8296 Z"/>
<path d="M 148.1879 334.8847 162.1707 346.1676 144.1515 360.4789 141.8198 354.8442 148.1879 334.8847 Z"/>
<path d="M 445.3138 432.8121 445.922 432.8167 461.5505 435.4294 453.6726 442.1172 453.2056 446.3947 452.4857 446.4381 445.3138 432.8121 Z"/>
<path d="M 451.3631 402.2281 452.6454 403.192 449.8203 422.9643 437.3821 417.0883 439.9163 408.6534 451.3631 402.2281 Z"/>
<path d="M 546.8559 355.3658 549.9175 351.7299 549.9395 351.8218 552.0726 355.8829 551.9464 356.576 548.2645 363.0813 540.448 365.5201 538.0794 364.3772 546.8559 355.3658 Z"/>
<path d="M 524.1487 365.8592 534.6999 370.3398 528.7078 371.8147 524.1487 365.8592 Z"/>
<path d="M 536.9707 439.0167 536.2214 426.0295 542.5497 425.2452 553.9453 429.8124 556.6037 437.0803 553.0115 444.4736 551.6694 444.079 536.9707 439.0167 Z"/>
<path d="M 82.2034 341.9849 85.3033 353.1574 85.4237 365.2723 75.6164 368.011 74.2801 355.3737 82.2034 341.9849 Z"/>
<path d="M 282.6184 443.8962 286.3162 440.9808 288.0634 469.1788 304.3414 466.4437 289.138 486.6588 280.1818 488.2381 269.9479 481.9948 267.1217 459.4281 282.6184 443.8962 Z"/>
<path d="M 75.5878 320.8297 83.0663 318.2743 92.6793 324.6703 97.5098 353.3169 85.3033 353.1574 82.2034 341.9849 75.5878 320.8297 Z"/>
<path d="M 469.3664 414.5966 477.3485 414.9731 478.9999 416.6603 481.1407 431.4626 473.0276 430.4136 469.3664 414.5966 Z"/>
<path d="M 796.197 3.7203 794.8224 7.3986 792.7434 5.399 796.197 3.7203 Z"/>
<path d="M 554.3984 347.0852 549.9395 351.8218 549.9175 351.7299 552.158 340.3079 555.4165 340.0837 554.3984 347.0852 Z"/>
<path d="M 205.8717 389.6263 208.8551 382.6725 217.8958 382.0221 234.2368 393.7621 238.668 407.9278 231.4844 409.9721 214.7783 403.1048 205.8717 389.6263 Z"/>
<path d="M 549.9395 351.8218 554.3984 347.0852 567.8699 353.7682 552.0726 355.8829 549.9395 351.8218 Z"/>
<path d="M 463.735 379.9946 469.1045 380.6172 461.3094 382.1704 463.735 379.9946 Z"/>
<path d="M 475.32 362.6759 480.9782 360.5286 484.1739 364.3774 486.3366 368.9914 478.2281 370.7718 475.32 362.6759 Z"/>
<path d="M 498.0032 436.0013 507.6126 428.7506 512.162 441.5608 505.927 452.1806 495.5239 454.4813 498.0032 436.0013 Z"/>
<path d="M 464.4398 416.5928 469.3664 414.5966 473.0276 430.4136 470.4938 431.4173 461.5505 435.4294 445.922 432.8167 450.4193 426.0572 464.4398 416.5928 Z"/>
<path d="M 453.2056 446.3947 453.6726 442.1172 463.3239 451.7162 459.1902 457.7338 453.2056 446.3947 Z"/>
<path d="M 469.8774 364.7505 475.32 362.6759 478.2281 370.7718 473.9737 380.8442 469.1045 380.6172 463.735 379.9946 469.8774 364.7505 Z"/>
<path d="M 508.4569 420.8929 497.388 415.6363 503.3509 415.6874 511.0991 413.6783 508.4569 420.8929 Z"/>
<path d="M 521.9961 389.1334 537.3084 386.9975 540.676 383.6394 543.206 388.9695 541.437 398.7784 536.9348 403.7989 528.3808 409.0466 527.7107 408.8979 532.121 398.102 521.9961 389.1334 Z"/>
<path d="M 359.0836 418.5483 365.8352 418.3834 377.2886 427.0318 382.0187 446.341 379.9928 463.1643 370.3481 469.9231 370.177 468.9466 371.7026 459.3737 355.9069 449.0808 351.9547 440.0844 359.0836 418.5483 Z"/>
<path d="M 437.3821 417.0883 449.8203 422.9643 450.4193 426.0572 445.922 432.8167 445.3138 432.8121 440.0381 437.5692 442.3105 430.0147 437.3821 417.0883 Z"/>
<path d="M 427.9323 479.6439 436.8965 474.2407 452.4028 476.6204 446.1378 487.615 433.5889 492.842 427.9323 479.6439 Z"/>
<path d="M 205.8221 411.7537 219.814 433.9728 231.4227 438.1402 211.9651 444.9094 210.9282 452.987 175.4627 443.8681 172.999 434.7588 193.5306 416.2224 205.8221 411.7537 Z"/>
<path d="M 452.6454 403.192 459.037 398.7575 464.4398 416.5928 450.4193 426.0572 449.8203 422.9643 452.6454 403.192 Z"/>
<path d="M 518.2274 431.3214 536.9499 439.0155 529.9637 447.5775 517.9375 438.7614 518.2274 431.3214 Z"/>
<path d="M 201.1955 367.5964 203.2419 359.8413 226.2012 348.6056 234.6566 359.4397 238.1347 373.1477 234.2368 393.7621 217.8958 382.0221 208.8551 382.6725 201.1955 367.5964 Z"/>
<path d="M 234.6566 359.4397 258.8968 353.9327 268.41 365.4364 273.7193 373.1547 286.0012 393.8751 272.3378 406.8696 255.1746 407.244 245.9755 418.2512 238.668 407.9278 234.2368 393.7621 238.1347 373.1477 234.6566 359.4397 Z"/>
<path d="M 515.3953 364.2719 522.9244 356.4367 523.4946 358.1803 524.1485 361.3819 524.1487 365.8592 528.7078 371.8147 520.8424 378.2131 514.3082 376.1694 513.6983 373.0582 515.3953 364.2719 Z"/>
<path d="M 481.0782 400.4792 485.0908 392.1387 501.9744 391.3079 503.745 391.1979 501.7634 400.1938 492.1444 408.1239 484.1992 416.1345 478.9999 416.6603 477.3485 414.9731 481.0782 400.4792 Z"/>
<path d="M 280.1818 488.2381 266.9873 502.5011 260.1511 486.0262 269.9479 481.9948 280.1818 488.2381 Z"/>
<path d="M 521.537 333.6917 522.0365 346.9119 520.1065 345.6715 515.4048 337.479 521.537 333.6917 Z"/>
<path d="M 170.6881 385.6704 187.2339 361.4619 188.4368 360.9551 196.1168 364.7352 188.4055 384.3621 205.8717 389.6263 214.7783 403.1048 205.8221 411.7537 193.5306 416.2224 178.8008 402.3787 168.9368 398.3275 170.6881 385.6704 Z"/>
<path d="M 355.6929 315.8358 377.0424 325.995 376.9934 336.1 364.5661 333.6889 354.8172 326.6687 355.6929 315.8358 Z"/>
<path d="M 540.448 365.5201 548.2645 363.0813 558.0866 375.1199 558.3418 375.6952 557.8359 376.4296 545.8641 379.761 540.0874 377.7667 537.8766 376.8833 539.0656 371.6037 540.448 365.5201 Z"/>
<path d="M 487.0752 443.0525 490.6621 451.292 484.053 455.1185 482.7931 449.968 487.0752 443.0525 Z"/>
<path d="M 524.1487 365.8592 524.1485 361.3819 533.3545 360.5183 538.0794 364.3772 540.448 365.5201 539.0656 371.6037 534.6999 370.3398 524.1487 365.8592 Z"/>
<path d="M 435.451 439.4332 435.4443 439.4068 440.0381 437.5692 445.3138 432.8121 452.4857 446.4381 447.5264 453.1989 435.451 439.4332 Z"/>
<path d="M 511.1905 356.0343 520.513 353.8431 522.9244 356.4367 515.3953 364.2719 498.5375 367.89 496.6936 366.4367 502.8992 359.7557 511.1905 356.0343 Z"/>
<path d="M 501.5792 376.6896 499.1381 373.5737 513.6983 373.0582 514.3082 376.1694 501.5792 376.6896 Z"/>
<path d="M 391.5746 462.4005 391.6194 462.4708 398.7285 473.2941 398.9341 482.8317 390.9446 487.8027 390.2859 497.6502 383.4133 507.1738 374.3439 500.4719 384.2688 489.4867 380.6933 484.2981 391.5746 462.4005 Z"/>
<path d="M 543.206 388.9695 555.7016 389.7348 555.1266 401.9774 541.437 398.7784 543.206 388.9695 Z"/>
<path d="M 365.7029 355.9512 363.8714 363.6058 349.9782 356.3373 345.1374 347.8299 365.7029 355.9512 Z"/>
<path d="M 478.9999 416.6603 484.1992 416.1345 492.4245 416.6916 486.0503 429.4219 483.8025 435.608 481.1407 431.4626 478.9999 416.6603 Z"/>
<path d="M 340.1567 323.3263 345.9644 325.3783 338.5072 339.5694 331.9946 330.8472 340.1567 323.3263 Z"/>
<path d="M 470.4938 431.4173 473.0276 430.4136 481.1407 431.4626 483.8025 435.608 483.523 436.8132 474.8998 438.9084 470.4938 431.4173 Z"/>
<path d="M 429.4744 441.4783 433.7941 452.3684 429.8169 454.4739 425.951 454.0002 425.9339 445.6646 429.4744 441.4783 Z"/>
<path d="M 407.7885 395.8833 415.1514 401.0308 398.6351 398.9847 407.7885 395.8833 Z"/>
<path d="M 508.4569 420.8929 511.7149 425.8038 507.6126 428.7506 498.0032 436.0013 488.3234 435.7631 486.0503 429.4219 492.4245 416.6916 495.4025 416.9416 497.388 415.6363 508.4569 420.8929 Z"/>
<path d="M 429.8804 374.5055 429.6489 374.1532 431.1325 366.047 446.248 366.4674 455.2153 378.6529 440.6292 378.8743 429.8804 374.5055 Z"/>
<path d="M 518.9845 390.2672 521.9695 389.122 521.9961 389.1334 532.121 398.102 527.7107 408.8979 521.0835 404.6879 520.2111 397.1713 518.9845 390.2672 Z"/>
<path d="M 162.1707 346.1676 173.5645 351.3048 173.1932 362.6178 187.2339 361.4619 170.6881 385.6704 165.0367 386.3303 155.3139 386.8512 146.0903 380.6877 145.6649 370.0144 144.1515 360.4789 162.1707 346.1676 Z"/>
<path d="M 557.8359 376.4296 558.3418 375.6952 560.9729 375.3173 561.3339 385.093 557.8359 376.4296 Z"/>
<path d="M 562.3075 332.8931 555.4165 340.0837 552.158 340.3079 546.7149 336.5189 539.4489 330.9491 530.7542 328.6546 538.4091 324.9721 554.5795 327.1497 562.3075 332.8931 Z"/>
<path d="M 477.836 382.1723 487.8818 379.3453 492.1736 379.4705 485.0908 392.1387 481.0782 400.4792 471.5275 394.8315 477.836 382.1723 Z"/>
</g>
</svg>