<?xml version="1.0"?>
<svg xmlns="http://www.w3.org/2000/svg" version="1.2" baseProfile="tiny" width="800" height="1166" viewBox="0 0 800 1166" stroke-linecap="round" stroke-linejoin="round">
<g id="22MUE250GC_SIR">
<path d="M 438.3813 406.2558 466.0723 399.6538 468.1488 416.953 456.6851 419.4046 439.1491 423.1441 438.3813 406.2558 Z"/>
<path d="M 476.1015 693.5239 458.9373 664.136 452.6346 659.5506 456.4717 648.8606 486.7152 663.1922 521.6435 668.6337 528.6079 670.6103 503.299 684.1449 505.0508 709.3262 489.628 706.2342 476.1015 693.5239 Z"/>
<path d="M 696.1062 573.0214 702.9497 573.9136 701.5574 626.5525 696.0889 638.3642 687.2348 645.7213 689.0548 625.2095 696.1062 573.0214 Z"/>
<path d="M 274.1476 1045.864 330.7829 1047.0991 310.1217 1081.9363 288.1599 1098.5319 273.3867 1066.1652 274.1476 1045.864 Z"/>
<path d="M 488.7183 467.7201 516.8962 485.1799 518.0927 487.7668 527.5903 499.652 475.3133 491.0064 472.368 476.948 479.931 477.1483 488.7183 467.7201 Z"/>
<path d="M 545.2622 233.502 573.2518 217.9215 569.437 229.685 564.5884 241.1046 551.7572 248.0155 545.2622 233.502 Z"/>
<path d="M 410.3093 743.0212 420.9987 742.7241 450.4944 763.1665 442.6876 784.3117 397.6513 803.9057 393.7248 856.3964 363.1321 856.6514 329.4601 854.8189 332.1139 837.9073 339.6806 789.865 355.712 773.2386 359.5056 769.3388 410.3093 743.0212 Z"/>
<path d="M 290.3352 752.5154 316.6888 749.5135 315.9919 761.8518 312.2196 788.3883 298.3201 807.5622 231.802 804.5254 234.7945 794.3979 268.1729 791.4053 272.5561 756.2584 290.3352 752.5154 Z"/>
<path d="M 612.4473 809.4198 622.4591 794.9053 646.5514 804.8155 643.6678 846.5484 661.9853 853.4046 657.6667 863.0185 610.9495 857.0779 612.4473 809.4198 Z"/>
<path d="M 489.628 706.2342 505.0508 709.3262 513.747 717.2656 524.8661 744.7473 510.0037 761.5105 498.3663 763.687 489.628 706.2342 Z"/>
<path d="M 204.3098 1019.0597 197.3052 1005.266 259.8237 989.837 270.4346 1000.7871 274.1476 1045.864 273.3867 1066.1652 242.7001 1080.19 217.6843 1028.3102 204.3098 1019.0597 Z"/>
<path d="M 604.5915 1 608.3634 13.044 596.863 23.5741 604.5915 1 Z"/>
<path d="M 456.6851 419.4046 468.1488 416.953 486.875 424.3505 486.1041 426.7827 484.9607 430.8695 466.6059 425.0432 456.6851 419.4046 Z"/>
<path d="M 432.4513 853.8296 469.3045 850.1907 486.7957 856.4919 491.0855 882.0825 524.991 900.2651 482.8358 907.897 481.122 942.9033 469.7614 944.2593 462.1328 947.7522 453.6279 931.5958 452.1778 905.3566 436.1313 887.633 432.4513 853.8296 Z"/>
<path d="M 166.0992 790.0458 228.2328 818.236 282.7364 839.5735 243.0566 866.5863 168.1753 813.1889 166.0992 790.0458 Z"/>
<path d="M 506.4376 105.1823 504.51 121.7368 493.9081 131.0818 484.9749 123.4259 506.4376 105.1823 Z"/>
<path d="M 487.0982 308.4881 520.2532 298.1302 528.4945 313.3963 519.0142 344.0792 487.5027 350.046 487.0982 308.4881 Z"/>
<path d="M 241.4906 625.6825 244.1218 646.5305 236.1553 669.7722 266.0031 686.8606 234.7945 794.3979 231.802 804.5254 228.2328 818.236 166.0992 790.0458 155.159 733.4399 145.8237 677.8854 188.1771 665.3071 205.9999 641.295 241.4906 625.6825 Z"/>
<path d="M 683.1847 624.5576 689.0548 625.2095 687.2348 645.7213 672.1255 652.7591 659.7139 646.4516 650.3506 635.6385 668.8627 622.997 683.1847 624.5576 Z"/>
<path d="M 573.8177 214.0499 573.2518 217.9215 545.2622 233.502 494.8041 228.3581 480.6677 197.6725 499.8624 184.9743 517.6318 176.9155 538.3844 168.4136 539.2813 211.0313 573.8177 214.0499 Z"/>
<path d="M 715.6949 669.6463 718.4348 685.0671 724.8741 694.4847 707.4164 701.2771 684.0378 690.9215 715.6949 669.6463 Z"/>
<path d="M 42.2848 807.7729 85.3087 842.7554 85.8967 876.7349 62.8441 902.6754 70.1644 919.9875 84.7215 961.0925 41.384 973.9883 30.4302 964.495 13.5081 937.4413 1 884.8692 23.1158 854.5517 42.2848 807.7729 Z"/>
<path d="M 564.5884 241.1046 569.437 229.685 610.664 260.6393 609.8274 263.5199 605.3157 277.6076 590.532 276.4198 568.373 254.7496 564.5884 241.1046 Z"/>
<path d="M 433.5167 917.8659 453.6279 931.5958 462.1328 947.7522 436.0253 956.8646 421.5427 952.2261 433.5167 917.8659 Z"/>
<path d="M 490.236 457.9994 494.8315 457.4369 503.1496 456.4182 516.8962 485.1799 488.7183 467.7201 490.236 457.9994 Z"/>
<path d="M 282.7364 839.5735 332.1139 837.9073 329.4601 854.8189 305.4918 898.0007 251.6695 878.5883 243.0566 866.5863 282.7364 839.5735 Z"/>
<path d="M 464.968 709.3568 471.3225 754.9127 450.4944 763.1665 420.9987 742.7241 421.5404 739.2648 444.5856 735.461 464.968 709.3568 Z"/>
<path d="M 321.1266 622.1992 327.1774 646.5381 317.6575 661.1993 260.3232 668.6459 276.8694 637.3283 279.8332 640.3602 321.1266 622.1992 Z"/>
<path d="M 570.2065 742.9694 611.9544 746.419 617.2839 761.9423 610.5885 764.7343 596.2588 769.0796 570.2065 742.9694 Z"/>
<path d="M 620.964 461.5342 564.6389 472.9722 559.9293 433.5927 558.1324 428.5705 614.108 435.6886 620.964 461.5342 Z"/>
<path d="M 524.8661 744.7473 541.0244 738.5956 554.9416 746.1198 553.6394 781.5494 510.0037 761.5105 524.8661 744.7473 Z"/>
<path d="M 620.618 728.6588 650.9676 720.8524 662.3807 725.3064 646.2284 755.1358 617.2839 761.9423 611.9544 746.419 620.618 728.6588 Z"/>
<path d="M 653.2808 596.1896 657.65 594.7752 672.0221 607.3109 683.1847 624.5576 668.8627 622.997 653.7067 608.6999 653.2808 596.1896 Z"/>
<path d="M 551.0168 415.5263 558.1324 428.5705 559.9293 433.5927 544.1929 436.7936 540.5329 418.3878 540.5957 418.3871 551.0168 415.5263 Z"/>
<path d="M 573.2518 217.9215 573.8177 214.0499 584.6083 205.2958 645.3532 204.7705 641.3848 215.6949 636.2181 223.4397 620.8148 228.7629 629.9088 237.5394 610.664 260.6393 569.437 229.685 573.2518 217.9215 Z"/>
<path d="M 620.964 461.5342 624.9063 475.941 625.7915 504.427 570.1553 495.232 564.6389 472.9722 620.964 461.5342 Z"/>
<path d="M 593.1418 373.9051 601.7349 350.8982 610.6709 333.4715 645.2531 324.1911 681.4905 380.5578 628.5639 407.7439 609.7482 400.0423 593.1418 373.9051 Z"/>
<path d="M 487.1368 358.2946 487.5151 372.4146 466.0884 382.9893 487.1368 358.2946 Z"/>
<path d="M 243.212 887.2562 252.6642 908.7308 305.4107 940.2906 317.9671 960.2075 317.3928 960.9227 280.5298 979.33 255.4787 956.849 182.6884 933.8799 169.5819 961.6045 127.0163 942.7087 98.7714 930.1415 131.3069 894.7845 134.5437 899.4794 235.8643 901.1725 243.212 887.2562 Z"/>
<path d="M 273.3867 1066.1652 288.1599 1098.5319 266.8002 1130.3211 237.4101 1117.3942 242.7001 1080.19 273.3867 1066.1652 Z"/>
<path d="M 127.0163 942.7087 169.5819 961.6045 191.2571 975.8577 149.6872 1013.4529 107.5506 1013.1571 95.4862 992.7314 127.0163 942.7087 Z"/>
<path d="M 520.5471 145.681 517.0133 154.9426 516.1408 164.364 494.7742 150.8552 503.3347 144.1449 520.5471 145.681 Z"/>
<path d="M 568.373 254.7496 590.532 276.4198 586.37 276.5733 564.3717 273.6294 564.8597 270.9404 568.373 254.7496 Z"/>
<path d="M 305.4107 940.2906 292.966 920.2908 305.4918 898.0007 329.4601 854.8189 363.1321 856.6514 370.5375 906.6499 352.5402 939.5156 317.9671 960.2075 305.4107 940.2906 Z"/>
<path d="M 520.2532 298.1302 530.9503 257.8779 533.5536 257.5795 564.3717 273.6294 586.37 276.5733 565.9684 309.2459 581.0489 326.2073 576.0474 346.5255 574.0797 346.2587 545.8511 339.3586 528.4945 313.3963 520.2532 298.1302 Z"/>
<path d="M 355.712 773.2386 339.6806 789.865 312.2196 788.3883 315.9919 761.8518 355.712 773.2386 Z"/>
<path d="M 429.2847 399.8511 434.2441 402.688 438.3813 406.2558 439.1491 423.1441 461.5159 460.2625 459.6468 479.8359 432.995 485.2847 419.6252 473.9562 415.835 412.5144 429.2847 399.8511 Z"/>
<path d="M 533.5536 257.5795 537.3833 255.6036 564.8597 270.9404 564.3717 273.6294 533.5536 257.5795 Z"/>
<path d="M 389.0124 708.4567 386.5012 710.7266 357.3539 706.146 383.4811 666.6652 397.7233 649.3875 452.6346 659.5506 458.9373 664.136 458.0817 689.2377 424.9746 713.974 389.0124 708.4567 Z"/>
<path d="M 456.5435 367.2221 463.1419 384.0408 434.2441 402.688 429.2847 399.8511 456.5435 367.2221 Z"/>
<path d="M 389.0124 708.4567 424.9746 713.974 421.5404 739.2648 420.9987 742.7241 410.3093 743.0212 389.0124 708.4567 Z"/>
<path d="M 738.028 606.6783 746.6617 608.9835 760.8043 631.6628 733.5793 631.3176 722.358 624.1999 738.028 606.6783 Z"/>
<path d="M 623.0943 15.6961 654.1062 22.1583 655.1164 41.2597 679.2303 43.3456 657.2425 85.7729 643.3237 62.2437 616.7203 41.1778 623.0943 15.6961 Z"/>
<path d="M 485.3086 265.7929 510.9416 247.3498 530.9503 257.8779 520.2532 298.1302 487.0982 308.4881 460.3299 296.07 485.3086 265.7929 Z"/>
<path d="M 634.2659 514.0583 652.6206 515.4265 676.2197 558.7879 643.3801 552.6441 617.8213 541.6588 634.2659 514.0583 Z"/>
<path d="M 462.1328 947.7522 469.7614 944.2593 486.9399 969.4003 455.7533 984.0755 436.0253 956.8646 462.1328 947.7522 Z"/>
<path d="M 155.159 733.4399 166.0992 790.0458 168.1753 813.1889 154.5908 872.3608 131.3069 894.7845 98.7714 930.1415 70.1644 919.9875 62.8441 902.6754 85.8967 876.7349 85.3087 842.7554 96.2029 801.2969 79.3171 792.0145 108.1371 723.6049 155.159 733.4399 Z"/>
<path d="M 545.2622 233.502 551.7572 248.0155 537.3833 255.6036 533.5536 257.5795 530.9503 257.8779 510.9416 247.3498 493.494 231.4887 494.8041 228.3581 545.2622 233.502 Z"/>
<path d="M 584.8347 635.2438 587.9239 616.1585 599.7621 618.2399 619.3316 652.2907 628.7139 655.7115 626.4448 665.2187 604.7932 669.5874 599.1756 660.0188 584.8347 635.2438 Z"/>
<path d="M 484.0952 165.1468 499.8624 184.9743 480.6677 197.6725 475.3176 192.3131 484.0952 165.1468 Z"/>
<path d="M 702.9497 573.9136 719.2654 576.1504 716.4551 621.5058 701.5574 626.5525 702.9497 573.9136 Z"/>
<path d="M 552.3924 557.5568 553.747 570.4266 525.3492 570.0233 519.5322 562.4515 528.9854 539.1404 552.3924 557.5568 Z"/>
<path d="M 169.5819 961.6045 182.6884 933.8799 255.4787 956.849 280.5298 979.33 259.8237 989.837 197.3052 1005.266 191.2571 975.8577 169.5819 961.6045 Z"/>
<path d="M 410.3093 743.0212 359.5056 769.3388 353.0246 740.9863 386.5012 710.7266 389.0124 708.4567 410.3093 743.0212 Z"/>
<path d="M 724.8741 694.4847 718.4348 685.0671 725.7384 680.0423 744.6449 678.1605 757.4589 677.6276 781.9605 746.556 744.2289 718.632 724.8741 694.4847 Z"/>
<path d="M 524.991 900.2651 526.1595 921.8636 481.122 942.9033 482.8358 907.897 524.991 900.2651 Z"/>
<path d="M 359.894 582.9619 373.9328 585.0425 386.1935 607.531 379.0171 638.0596 397.7233 649.3875 383.4811 666.6652 373.727 649.3587 327.1774 646.5381 321.1266 622.1992 326.2591 602.2448 359.894 582.9619 Z"/>
<path d="M 172.9329 1085.6567 143.3611 1057.3735 128.2587 1058.468 139.516 1034.983 149.6872 1013.4529 191.2571 975.8577 197.3052 1005.266 204.3098 1019.0597 175.353 1059.2643 172.9329 1085.6567 Z"/>
<path d="M 520.0061 457.1232 536.49 459.0977 564.6389 472.9722 570.1553 495.232 571.0579 510.0024 559.9738 530.9713 555.0859 527.28 531.7667 512.1939 527.5903 499.652 518.0927 487.7668 520.0061 457.1232 Z"/>
<path d="M 707.4164 701.2771 702.3606 714.6034 662.3807 725.3064 650.9676 720.8524 649.3348 708.7632 659.4456 687.6642 662.3382 682.6229 684.0378 690.9215 707.4164 701.2771 Z"/>
<path d="M 755.2965 643.8354 755.6414 658.9154 746.0893 668.7948 738.3545 649.6623 755.2965 643.8354 Z"/>
<path d="M 583.7217 82.4033 609.835 101.9939 585.8272 111.3276 576.9581 108.196 583.7217 82.4033 Z"/>
<path d="M 298.9867 603.8468 326.2591 602.2448 321.1266 622.1992 279.8332 640.3602 298.9867 603.8468 Z"/>
<path d="M 73.1595 1081.7666 128.2587 1058.468 143.3611 1057.3735 172.9329 1085.6567 171.2209 1100.0546 140.0415 1132.4931 116.0821 1123.145 84.0836 1131.0708 73.1595 1081.7666 Z"/>
<path d="M 359.894 582.9619 326.2591 602.2448 298.9867 603.8468 296.7172 575.9712 338.6945 568.5933 359.894 582.9619 Z"/>
<path d="M 653.7067 608.6999 668.8627 622.997 650.3506 635.6385 629.2713 640.8541 628.4366 613.5856 628.6526 595.4774 628.8323 591.4806 653.7067 608.6999 Z"/>
<path d="M 579.4093 805.469 612.4473 809.4198 610.9495 857.0779 555.3151 833.2444 579.4093 805.469 Z"/>
<path d="M 641.5069 122.4358 664.022 116.0781 668.7274 133.6366 668.6561 134.7082 641.5069 122.4358 Z"/>
<path d="M 475.0074 459.5718 490.236 457.9994 488.7183 467.7201 479.931 477.1483 467.7235 470.6103 468.0732 467.1626 475.0074 459.5718 Z"/>
<path d="M 486.7957 856.4919 543.2281 845.0823 547.5886 914.5109 563.4091 932.2505 540.9368 935.9412 526.1595 921.8636 524.991 900.2651 491.0855 882.0825 486.7957 856.4919 Z"/>
<path d="M 498.5875 426.2829 509.5461 413.728 526.7138 426.9562 520.0061 457.1232 518.0927 487.7668 516.8962 485.1799 503.1496 456.4182 506.577 450.3779 498.5875 426.2829 Z"/>
<path d="M 477.2929 149.3415 484.0952 165.1468 475.3176 192.3131 460.0397 175.9254 477.2929 149.3415 Z"/>
<path d="M 461.5159 460.2625 468.0732 467.1626 467.7235 470.6103 472.368 476.948 475.3133 491.0064 470.2155 496.3011 459.6468 479.8359 461.5159 460.2625 Z"/>
<path d="M 467.7235 470.6103 479.931 477.1483 472.368 476.948 467.7235 470.6103 Z"/>
<path d="M 672.1255 652.7591 687.2348 645.7213 696.0889 638.3642 710.3956 648.4503 715.6949 669.6463 684.0378 690.9215 662.3382 682.6229 672.1255 652.7591 Z"/>
<path d="M 799 599.5011 746.6617 608.9835 738.028 606.6783 719.2654 576.1504 702.9497 573.9136 746.7121 537.2235 758.1401 562.3699 791.5625 570.4945 799 599.5011 Z"/>
<path d="M 464.968 709.3568 476.1015 693.5239 489.628 706.2342 498.3663 763.687 486.2049 795.4135 489.7384 769.8526 471.3225 754.9127 464.968 709.3568 Z"/>
<path d="M 168.1753 813.1889 243.0566 866.5863 243.212 887.2562 235.8643 901.1725 134.5437 899.4794 131.3069 894.7845 154.5908 872.3608 168.1753 813.1889 Z"/>
<path d="M 546.1074 531.5758 552.5186 557.5498 552.3924 557.5568 528.9854 539.1404 528.9344 538.1644 546.1074 531.5758 Z"/>
<path d="M 259.8237 989.837 280.5298 979.33 317.3928 960.9227 317.5726 1004.5876 334.7778 1013.3667 330.7829 1047.0991 274.1476 1045.864 270.4346 1000.7871 259.8237 989.837 Z"/>
<path d="M 645.6438 561.1726 659.7452 588.8921 657.65 594.7752 653.2808 596.1896 629.5056 585.736 629.6959 584.9233 645.6438 561.1726 Z"/>
<path d="M 432.995 485.2847 459.6468 479.8359 470.2155 496.3011 488.317 535.7799 479.7418 537.8307 452.7588 566.5973 442.1639 558.0627 451.9634 505.9673 432.995 485.2847 Z"/>
<path d="M 597.5683 658.0377 599.1756 660.0188 604.7932 669.5874 611.797 684.8283 593.1274 685.5825 597.5683 658.0377 Z"/>
<path d="M 145.8237 677.8854 155.159 733.4399 108.1371 723.6049 79.3171 792.0145 96.2029 801.2969 85.3087 842.7554 42.2848 807.7729 60.1524 774.4212 66.0404 732.6753 94.7848 691.9171 145.8237 677.8854 Z"/>
<path d="M 487.5027 350.046 519.0142 344.0792 526.4793 364.9299 520.4783 368.1428 487.5151 372.4146 487.1368 358.2946 487.5027 350.046 Z"/>
<path d="M 755.2965 643.8354 759.5469 641.2263 787.38 638.9893 766.4306 670.868 755.6414 658.9154 755.2965 643.8354 Z"/>
<path d="M 746.0893 668.7948 755.6414 658.9154 766.4306 670.868 757.4589 677.6276 744.6449 678.1605 746.0893 668.7948 Z"/>
<path d="M 484.9607 430.8695 486.1041 426.7827 487.2073 444.4739 476.384 450.6796 479.3407 441.4669 484.9607 430.8695 Z"/>
<path d="M 592.0863 44.2693 606.0614 52.9211 617.229 79.702 619.9817 104.6857 609.835 101.9939 583.7217 82.4033 576.4418 66.7775 592.0863 44.2693 Z"/>
<path d="M 459.6618 576.4748 484.0046 579.8226 486.4303 581.3485 492.1412 590.0242 483.7136 608.4226 486.7152 663.1922 456.4717 648.8606 437.9788 627.8924 459.6618 576.4748 Z"/>
<path d="M 491.353 427.6737 498.5875 426.2829 506.577 450.3779 491.353 427.6737 Z"/>
<path d="M 140.0415 1132.4931 171.2209 1100.0546 191.215 1147.3716 162.9841 1165.4752 140.0415 1132.4931 Z"/>
<path d="M 636.2181 223.4397 641.3848 215.6949 682.1572 232.7498 699.5 225.3789 683.7534 267.7686 683.1934 294.9969 678.2179 295.2042 674.5568 258.6036 609.8274 263.5199 610.664 260.6393 629.9088 237.5394 636.2181 223.4397 Z"/>
<path d="M 479.3407 441.4669 466.6059 425.0432 484.9607 430.8695 479.3407 441.4669 Z"/>
<path d="M 312.2196 788.3883 339.6806 789.865 332.1139 837.9073 282.7364 839.5735 228.2328 818.236 231.802 804.5254 298.3201 807.5622 312.2196 788.3883 Z"/>
<path d="M 432.6276 913.9176 452.1778 905.3566 453.6279 931.5958 433.5167 917.8659 432.6276 913.9176 Z"/>
<path d="M 645.2531 324.1911 661.5895 305.5691 678.2179 295.2042 683.1934 294.9969 704.8751 334.7603 726.7884 346.8019 725.6469 385.0604 681.4905 380.5578 645.2531 324.1911 Z"/>
<path d="M 458.9373 664.136 476.1015 693.5239 464.968 709.3568 444.5856 735.461 421.5404 739.2648 424.9746 713.974 458.0817 689.2377 458.9373 664.136 Z"/>
<path d="M 662.3807 725.3064 702.3606 714.6034 723.5656 726.9818 722.4884 730.2844 693.5311 754.7523 651.489 765.7838 646.2284 755.1358 662.3807 725.3064 Z"/>
<path d="M 479.7418 537.8307 488.317 535.7799 523.3166 538.136 528.9344 538.1644 528.9854 539.1404 519.5322 562.4515 486.4303 581.3485 484.0046 579.8226 479.7418 537.8307 Z"/>
<path d="M 476.384 450.6796 487.2073 444.4739 494.8315 457.4369 490.236 457.9994 475.0074 459.5718 476.384 450.6796 Z"/>
<path d="M 720.5917 652.5207 734.8526 646.2745 738.3545 649.6623 746.0893 668.7948 744.6449 678.1605 725.7384 680.0423 720.5917 652.5207 Z"/>
<path d="M 671.7648 200.0125 702.5562 204.7752 699.5 225.3789 682.1572 232.7498 641.3848 215.6949 645.3532 204.7705 671.7648 200.0125 Z"/>
<path d="M 479.7418 537.8307 484.0046 579.8226 459.6618 576.4748 452.7588 566.5973 479.7418 537.8307 Z"/>
<path d="M 677.3502 562.6649 688.4008 562.8505 685.0271 582.9882 667.5291 589.3025 677.3502 562.6649 Z"/>
<path d="M 592.4399 138.929 609.6404 119.662 641.5069 122.4358 668.6561 134.7082 676.6947 145.9617 647.1397 184.8618 626.0682 198.3452 593.972 184.7333 587.2139 162.7131 592.4399 138.929 Z"/>
<path d="M 585.8272 111.3276 609.835 101.9939 619.9817 104.6857 609.6404 119.662 592.4399 138.929 584.2519 132.7522 585.8272 111.3276 Z"/>
<path d="M 646.2284 755.1358 651.489 765.7838 657.0795 794.5513 646.5514 804.8155 622.4591 794.9053 610.5885 764.7343 617.2839 761.9423 646.2284 755.1358 Z"/>
<path d="M 498.3663 763.687 510.0037 761.5105 553.6394 781.5494 584.2071 788.8431 579.4093 805.469 555.3151 833.2444 550.5752 836.6389 525.5537 809.1301 486.2049 795.4135 498.3663 763.687 Z"/>
<path d="M 585.299 584.4204 584.518 558.1401 629.6959 584.9233 629.5056 585.736 628.8323 591.4806 628.6526 595.4774 600.7827 598.5984 585.299 584.4204 Z"/>
<path d="M 722.358 624.1999 733.5793 631.3176 734.8526 646.2745 720.5917 652.5207 717.8287 645.0783 716.9591 628.4516 722.358 624.1999 Z"/>
<path d="M 668.6561 134.7082 668.7274 133.6366 680.0134 136.3989 675.3561 153.4824 700.3981 186.0518 702.5562 204.7752 671.7648 200.0125 647.1397 184.8618 676.6947 145.9617 668.6561 134.7082 Z"/>
<path d="M 645.6438 561.1726 643.3801 552.6441 676.2197 558.7879 677.3502 562.6649 667.5291 589.3025 659.7452 588.8921 645.6438 561.1726 Z"/>
<path d="M 442.1639 558.0627 452.7588 566.5973 459.6618 576.4748 437.9788 627.8924 456.4717 648.8606 452.6346 659.5506 397.7233 649.3875 379.0171 638.0596 386.1935 607.531 373.9328 585.0425 429.6982 573.7552 442.1639 558.0627 Z"/>
<path d="M 634.2659 514.0583 625.7915 504.427 624.9063 475.941 679.4885 481.3155 730.0384 472.1552 747.196 509.2444 746.7121 537.2235 702.9497 573.9136 696.1062 573.0214 688.4008 562.8505 677.3502 562.6649 676.2197 558.7879 652.6206 515.4265 634.2659 514.0583 Z"/>
<path d="M 536.1904 121.026 550.6449 122.4728 517.0133 154.9426 520.5471 145.681 536.1904 121.026 Z"/>
<path d="M 450.4944 763.1665 471.3225 754.9127 489.7384 769.8526 486.2049 795.4135 469.3045 850.1907 432.4513 853.8296 427.1666 852.501 421.5356 852.0227 429.3766 826.4449 451.0198 825.2156 442.6876 784.3117 450.4944 763.1665 Z"/>
<path d="M 574.4712 646.8815 580.1037 655.0786 542.017 671.5361 528.6079 670.6103 521.6435 668.6337 528.8746 640.7667 549.1548 623.8769 574.4712 646.8815 Z"/>
<path d="M 435.2223 229.2879 489.9914 240.1082 485.3086 265.7929 460.3299 296.07 445.1123 305.8767 436.5478 277.708 451.4286 247.5522 435.2223 229.2879 Z"/>
<path d="M 636.2181 223.4397 629.9088 237.5394 620.8148 228.7629 636.2181 223.4397 Z"/>
<path d="M 685.0271 582.9882 672.0221 607.3109 657.65 594.7752 659.7452 588.8921 667.5291 589.3025 685.0271 582.9882 Z"/>
<path d="M 611.7883 611.1992 628.4366 613.5856 629.2713 640.8541 619.3316 652.2907 599.7621 618.2399 611.7883 611.1992 Z"/>
<path d="M 570.2065 742.9694 596.2588 769.0796 584.2071 788.8431 553.6394 781.5494 554.9416 746.1198 570.2065 742.9694 Z"/>
<path d="M 746.6617 608.9835 799 599.5011 787.38 638.9893 759.5469 641.2263 760.8043 631.6628 746.6617 608.9835 Z"/>
<path d="M 470.2155 496.3011 475.3133 491.0064 527.5903 499.652 531.7667 512.1939 523.3166 538.136 488.317 535.7799 470.2155 496.3011 Z"/>
<path d="M 679.2303 43.3456 655.1164 41.2597 654.1062 22.1583 679.2303 43.3456 Z"/>
<path d="M 545.8511 339.3586 574.0797 346.2587 581.2922 380.5289 556.3985 408.096 551.0168 415.5263 540.5957 418.3871 520.4783 368.1428 526.4793 364.9299 545.8511 339.3586 Z"/>
<path d="M 353.0246 740.9863 359.5056 769.3388 355.712 773.2386 315.9919 761.8518 316.6888 749.5135 320.4637 712.4719 353.0246 740.9863 Z"/>
<path d="M 486.1041 426.7827 486.875 424.3505 491.353 427.6737 506.577 450.3779 503.1496 456.4182 494.8315 457.4369 487.2073 444.4739 486.1041 426.7827 Z"/>
<path d="M 442.6876 784.3117 451.0198 825.2156 429.3766 826.4449 421.5356 852.0227 392.6698 859.075 393.7248 856.3964 397.6513 803.9057 442.6876 784.3117 Z"/>
<path d="M 553.747 570.4266 552.3924 557.5568 552.5186 557.5498 555.7739 557.8064 583.6975 557.8217 584.518 558.1401 585.299 584.4204 587.9239 616.1585 584.8347 635.2438 574.4712 646.8815 549.1548 623.8769 528.8746 640.7667 513.0329 604.0693 483.7136 608.4226 492.1412 590.0242 521.6495 581.0158 553.747 570.4266 Z"/>
<path d="M 620.618 728.6588 611.9544 746.419 570.2065 742.9694 554.9416 746.1198 541.0244 738.5956 546.2148 712.2882 542.3267 698.0322 567.8698 691.3266 582.6239 717.2924 605.6636 726.4504 620.618 728.6588 Z"/>
<path d="M 466.1744 398.2166 466.0884 382.9893 487.5151 372.4146 501.1461 401.7035 466.1744 398.2166 Z"/>
<path d="M 622.7875 290.1437 661.5895 305.5691 645.2531 324.1911 610.6709 333.4715 622.7875 290.1437 Z"/>
<path d="M 24.6607 992.8019 30.4302 964.495 41.384 973.9883 84.7215 961.0925 70.1644 919.9875 98.7714 930.1415 127.0163 942.7087 95.4862 992.7314 107.5506 1013.1571 149.6872 1013.4529 139.516 1034.983 89.1535 1035.8761 63.6294 1001.2883 24.6607 992.8019 Z"/>
<path d="M 681.4905 380.5578 725.6469 385.0604 729.8303 414.2431 692.5649 414.0724 679.5117 447.6327 679.4885 481.3155 624.9063 475.941 620.964 461.5342 614.108 435.6886 558.1324 428.5705 551.0168 415.5263 556.3985 408.096 599.9358 423.392 609.7482 400.0423 628.5639 407.7439 681.4905 380.5578 Z"/>
<path d="M 550.6449 122.4728 566.1156 133.104 562.9483 167.1756 538.3844 168.4136 517.6318 176.9155 516.1408 164.364 517.0133 154.9426 550.6449 122.4728 Z"/>
<path d="M 540.5329 418.3878 544.1929 436.7936 536.49 459.0977 520.0061 457.1232 526.7138 426.9562 540.5329 418.3878 Z"/>
<path d="M 466.0723 399.6538 466.1744 398.2166 501.1461 401.7035 509.5461 413.728 498.5875 426.2829 491.353 427.6737 486.875 424.3505 468.1488 416.953 466.0723 399.6538 Z"/>
<path d="M 296.7172 575.9712 298.9867 603.8468 279.8332 640.3602 276.8694 637.3283 246.7783 615.3673 270.0942 580.9479 296.7172 575.9712 Z"/>
<path d="M 246.7783 615.3673 276.8694 637.3283 260.3232 668.6459 244.1218 646.5305 241.4906 625.6825 246.7783 615.3673 Z"/>
<path d="M 578.7639 132.9613 584.2519 132.7522 592.4399 138.929 587.2139 162.7131 578.7639 132.9613 Z"/>
<path d="M 586.37 276.5733 590.532 276.4198 605.3157 277.6076 609.588 279.6338 581.0489 326.2073 565.9684 309.2459 586.37 276.5733 Z"/>
<path d="M 363.1321 856.6514 393.7248 856.3964 392.6698 859.075 390.0281 895.3643 403.0123 923.2914 398.7138 952.7519 367.2632 933.4822 352.5402 939.5156 370.5375 906.6499 363.1321 856.6514 Z"/>
<path d="M 628.7139 655.7115 659.7139 646.4516 672.1255 652.7591 662.3382 682.6229 659.4456 687.6642 626.6374 687.1809 626.4448 665.2187 628.7139 655.7115 Z"/>
<path d="M 580.1037 655.0786 597.5683 658.0377 593.1274 685.5825 567.8698 691.3266 542.3267 698.0322 542.017 671.5361 580.1037 655.0786 Z"/>
<path d="M 719.2654 576.1504 738.028 606.6783 722.358 624.1999 716.9591 628.4516 716.4551 621.5058 719.2654 576.1504 Z"/>
<path d="M 617.229 79.702 643.3237 62.2437 657.2425 85.7729 664.022 116.0781 641.5069 122.4358 609.6404 119.662 619.9817 104.6857 617.229 79.702 Z"/>
<path d="M 609.588 279.6338 622.7875 290.1437 610.6709 333.4715 601.7349 350.8982 576.0474 346.5255 581.0489 326.2073 609.588 279.6338 Z"/>
<path d="M 716.4551 621.5058 716.9591 628.4516 717.8287 645.0783 710.3956 648.4503 696.0889 638.3642 701.5574 626.5525 716.4551 621.5058 Z"/>
<path d="M 722.4884 730.2844 758.7885 755.7097 724.7283 769.5751 690.7294 790.5164 687.1243 807.9424 657.0795 794.5513 651.489 765.7838 693.5311 754.7523 722.4884 730.2844 Z"/>
<path d="M 617.8213 541.6588 643.3801 552.6441 645.6438 561.1726 629.6959 584.9233 584.518 558.1401 583.6975 557.8217 593.2371 552.1437 617.8213 541.6588 Z"/>
<path d="M 528.6079 670.6103 542.017 671.5361 542.3267 698.0322 546.2148 712.2882 513.747 717.2656 505.0508 709.3262 503.299 684.1449 528.6079 670.6103 Z"/>
<path d="M 653.2808 596.1896 653.7067 608.6999 628.8323 591.4806 629.5056 585.736 653.2808 596.1896 Z"/>
<path d="M 89.1535 1035.8761 64.6766 1034.9438 63.7199 1069.7135 17.5855 1054.4389 24.6607 992.8019 63.6294 1001.2883 89.1535 1035.8761 Z"/>
<path d="M 415.2953 909.1352 432.6276 913.9176 433.5167 917.8659 421.5427 952.2261 419.3646 952.6613 415.2953 909.1352 Z"/>
<path d="M 583.7217 82.4033 576.9581 108.196 555.3879 85.1501 576.4418 66.7775 583.7217 82.4033 Z"/>
<path d="M 604.5915 1 623.0943 15.6961 616.7203 41.1778 606.0614 52.9211 592.0863 44.2693 596.863 23.5741 608.3634 13.044 604.5915 1 Z"/>
<path d="M 322.0439 691.0495 320.4637 712.4719 316.6888 749.5135 290.3352 752.5154 285.5786 693.9187 322.0439 691.0495 Z"/>
<path d="M 519.5322 562.4515 525.3492 570.0233 521.6495 581.0158 492.1412 590.0242 486.4303 581.3485 519.5322 562.4515 Z"/>
<path d="M 567.8698 691.3266 593.1274 685.5825 611.797 684.8283 605.6636 726.4504 582.6239 717.2924 567.8698 691.3266 Z"/>
<path d="M 526.1595 921.8636 540.9368 935.9412 486.9399 969.4003 469.7614 944.2593 481.122 942.9033 526.1595 921.8636 Z"/>
<path d="M 544.0431 98.0708 555.3879 85.1501 576.9581 108.196 585.8272 111.3276 584.2519 132.7522 578.7639 132.9613 566.1156 133.104 550.6449 122.4728 536.1904 121.026 544.0431 98.0708 Z"/>
<path d="M 596.2588 769.0796 610.5885 764.7343 622.4591 794.9053 612.4473 809.4198 579.4093 805.469 584.2071 788.8431 596.2588 769.0796 Z"/>
<path d="M 616.7203 41.1778 643.3237 62.2437 617.229 79.702 606.0614 52.9211 616.7203 41.1778 Z"/>
<path d="M 733.5793 631.3176 760.8043 631.6628 759.5469 641.2263 755.2965 643.8354 738.3545 649.6623 734.8526 646.2745 733.5793 631.3176 Z"/>
<path d="M 744.2289 718.632 781.9605 746.556 777.4099 756.4145 758.7885 755.7097 722.4884 730.2844 723.5656 726.9818 744.2289 718.632 Z"/>
<path d="M 599.1756 660.0188 597.5683 658.0377 580.1037 655.0786 574.4712 646.8815 584.8347 635.2438 599.1756 660.0188 Z"/>
<path d="M 611.7883 611.1992 600.7827 598.5984 628.6526 595.4774 628.4366 613.5856 611.7883 611.1992 Z"/>
<path d="M 531.7667 512.1939 555.0859 527.28 546.1074 531.5758 528.9344 538.1644 523.3166 538.136 531.7667 512.1939 Z"/>
<path d="M 724.7283 769.5751 758.7885 755.7097 777.4099 756.4145 750.3869 787.0232 724.7283 769.5751 Z"/>
<path d="M 629.2713 640.8541 650.3506 635.6385 659.7139 646.4516 628.7139 655.7115 619.3316 652.2907 629.2713 640.8541 Z"/>
<path d="M 710.3956 648.4503 717.8287 645.0783 720.5917 652.5207 725.7384 680.0423 718.4348 685.0671 715.6949 669.6463 710.3956 648.4503 Z"/>
<path d="M 415.2953 909.1352 427.1666 852.501 432.4513 853.8296 436.1313 887.633 452.1778 905.3566 432.6276 913.9176 415.2953 909.1352 Z"/>
<path d="M 489.9914 240.1082 493.494 231.4887 510.9416 247.3498 485.3086 265.7929 489.9914 240.1082 Z"/>
<path d="M 647.1397 184.8618 671.7648 200.0125 645.3532 204.7705 584.6083 205.2958 593.972 184.7333 626.0682 198.3452 647.1397 184.8618 Z"/>
<path d="M 244.1218 646.5305 260.3232 668.6459 317.6575 661.1993 322.0439 691.0495 285.5786 693.9187 290.3352 752.5154 272.5561 756.2584 268.1729 791.4053 234.7945 794.3979 266.0031 686.8606 236.1553 669.7722 244.1218 646.5305 Z"/>
<path d="M 484.9749 123.4259 493.9081 131.0818 503.3347 144.1449 494.7742 150.8552 475.4739 135.0683 484.9749 123.4259 Z"/>
<path d="M 571.0579 510.0024 593.2371 552.1437 583.6975 557.8217 555.7739 557.8064 559.9738 530.9713 571.0579 510.0024 Z"/>
<path d="M 317.6575 661.1993 327.1774 646.5381 373.727 649.3587 383.4811 666.6652 357.3539 706.146 386.5012 710.7266 353.0246 740.9863 320.4637 712.4719 322.0439 691.0495 317.6575 661.1993 Z"/>
<path d="M 528.4945 313.3963 545.8511 339.3586 526.4793 364.9299 519.0142 344.0792 528.4945 313.3963 Z"/>
<path d="M 528.8746 640.7667 521.6435 668.6337 486.7152 663.1922 483.7136 608.4226 513.0329 604.0693 528.8746 640.7667 Z"/>
<path d="M 305.4918 898.0007 292.966 920.2908 305.4107 940.2906 252.6642 908.7308 243.212 887.2562 243.0566 866.5863 251.6695 878.5883 305.4918 898.0007 Z"/>
<path d="M 544.1929 436.7936 559.9293 433.5927 564.6389 472.9722 536.49 459.0977 544.1929 436.7936 Z"/>
<path d="M 544.0431 98.0708 536.1904 121.026 520.5471 145.681 503.3347 144.1449 493.9081 131.0818 504.51 121.7368 516.1707 103.3843 544.0431 98.0708 Z"/>
<path d="M 538.3844 168.4136 562.9483 167.1756 566.1156 133.104 578.7639 132.9613 587.2139 162.7131 593.972 184.7333 584.6083 205.2958 573.8177 214.0499 539.2813 211.0313 538.3844 168.4136 Z"/>
<path d="M 521.6495 581.0158 525.3492 570.0233 553.747 570.4266 521.6495 581.0158 Z"/>
<path d="M 537.3833 255.6036 551.7572 248.0155 564.5884 241.1046 568.373 254.7496 564.8597 270.9404 537.3833 255.6036 Z"/>
<path d="M 392.6698 859.075 421.5356 852.0227 427.1666 852.501 415.2953 909.1352 419.3646 952.6613 398.7138 952.7519 403.0123 923.2914 390.0281 895.3643 392.6698 859.075 Z"/>
<path d="M 585.299 584.4204 600.7827 598.5984 611.7883 611.1992 599.7621 618.2399 587.9239 616.1585 585.299 584.4204 Z"/>
<path d="M 574.0797 346.2587 576.0474 346.5255 601.7349 350.8982 593.1418 373.9051 581.2922 380.5289 574.0797 346.2587 Z"/>
<path d="M 678.2179 295.2042 661.5895 305.5691 622.7875 290.1437 609.588 279.6338 605.3157 277.6076 609.8274 263.5199 674.5568 258.6036 678.2179 295.2042 Z"/>
<path d="M 477.2929 149.3415 475.4739 135.0683 494.7742 150.8552 516.1408 164.364 517.6318 176.9155 499.8624 184.9743 484.0952 165.1468 477.2929 149.3415 Z"/>
<path d="M 204.3098 1019.0597 217.6843 1028.3102 242.7001 1080.19 237.4101 1117.3942 191.215 1147.3716 171.2209 1100.0546 172.9329 1085.6567 175.353 1059.2643 204.3098 1019.0597 Z"/>
<path d="M 724.8741 694.4847 744.2289 718.632 723.5656 726.9818 702.3606 714.6034 707.4164 701.2771 724.8741 694.4847 Z"/>
<path d="M 581.2922 380.5289 593.1418 373.9051 609.7482 400.0423 599.9358 423.392 556.3985 408.096 581.2922 380.5289 Z"/>
<path d="M 543.2281 845.0823 550.5752 836.6389 555.3151 833.2444 610.9495 857.0779 657.6667 863.0185 611.8967 899.3543 596.5444 930.0626 563.4091 932.2505 547.5886 914.5109 543.2281 845.0823 Z"/>
<path d="M 626.6374 687.1809 659.4456 687.6642 649.3348 708.7632 626.6374 687.1809 Z"/>
<path d="M 487.0982 308.4881 487.5027 350.046 487.1368 358.2946 466.0884 382.9893 466.1744 398.2166 466.0723 399.6538 438.3813 406.2558 434.2441 402.688 463.1419 384.0408 456.5435 367.2221 445.1123 305.8767 460.3299 296.07 487.0982 308.4881 Z"/>
<path d="M 555.7739 557.8064 552.5186 557.5498 546.1074 531.5758 555.0859 527.28 559.9738 530.9713 555.7739 557.8064 Z"/>
<path d="M 685.0271 582.9882 688.4008 562.8505 696.1062 573.0214 689.0548 625.2095 683.1847 624.5576 672.0221 607.3109 685.0271 582.9882 Z"/>
<path d="M 513.747 717.2656 546.2148 712.2882 541.0244 738.5956 524.8661 744.7473 513.747 717.2656 Z"/>
<path d="M 646.5514 804.8155 657.0795 794.5513 687.1243 807.9424 695.193 828.5652 661.9853 853.4046 643.6678 846.5484 646.5514 804.8155 Z"/>
<path d="M 611.797 684.8283 604.7932 669.5874 626.4448 665.2187 626.6374 687.1809 649.3348 708.7632 650.9676 720.8524 620.618 728.6588 605.6636 726.4504 611.797 684.8283 Z"/>
<path d="M 571.0579 510.0024 570.1553 495.232 625.7915 504.427 634.2659 514.0583 617.8213 541.6588 593.2371 552.1437 571.0579 510.0024 Z"/>
<path d="M 139.516 1034.983 128.2587 1058.468 73.1595 1081.7666 63.7199 1069.7135 64.6766 1034.9438 89.1535 1035.8761 139.516 1034.983 Z"/>
<path d="M 460.0397 175.9254 475.3176 192.3131 480.6677 197.6725 494.8041 228.3581 493.494 231.4887 489.9914 240.1082 435.2223 229.2879 431.5894 212.454 460.0397 175.9254 Z"/>
<path d="M 506.4376 105.1823 516.1707 103.3843 504.51 121.7368 506.4376 105.1823 Z"/>
<path d="M 439.1491 423.1441 456.6851 419.4046 466.6059 425.0432 479.3407 441.4669 476.384 450.6796 475.0074 459.5718 468.0732 467.1626 461.5159 460.2625 439.1491 423.1441 Z"/>
<path d="M 140.0415 1132.4931 162.9841 1165.4752 108.225 1156.485 84.0836 1131.0708 116.0821 1123.145 140.0415 1132.4931 Z"/>
<path d="M 486.2049 795.4135 525.5537 809.1301 550.5752 836.6389 543.2281 845.0823 486.7957 856.4919 469.3045 850.1907 486.2049 795.4135 Z"/>
<path d="M 729.8303 414.2431 730.0384 472.1552 679.4885 481.3155 679.5117 447.6327 692.5649 414.0724 729.8303 414.2431 Z"/>
<path d="M 724.7283 769.5751 750.3869 787.0232 695.193 828.5652 687.1243 807.9424 690.7294 790.5164 724.7283 769.5751 Z"/>
<path d="M 487.5151 372.4146 520.4783 368.1428 540.5957 418.3871 540.5329 418.3878 526.7138 426.9562 509.5461 413.728 501.1461 401.7035 487.5151 372.4146 Z"/>
</g>
</svg>