<?xml version="1.0"?>
<svg xmlns="http://www.w3.org/2000/svg" version="1.2" baseProfile="tiny" width="800" height="511" viewBox="0 0 800 511" stroke-linecap="round" stroke-linejoin="round">
<g id="41MUE250GC_SIR">
<path d="M 337.4126 188.9386 357.6589 177.1241 358.6932 180.265 354.226 191.5912 338.3148 201.4987 337.4126 188.9386 Z"/>
<path d="M 180.194 192.6254 191.7103 187.542 214.0989 194.4464 213.1667 196.994 195.2455 214.5239 185.2796 207.8739 164.7669 208.5154 166.8809 200.411 180.194 192.6254 Z"/>
<path d="M 603.5097 158.7226 612.0853 160.3282 620.9395 171.2096 608.8528 188.6814 593.5321 190.324 589.4106 180.4851 592.5044 169.8477 603.5097 158.7226 Z"/>
<path d="M 643.0796 385.1404 656.5199 395.0132 661.1431 403.728 649.1507 418.4529 642.385 419.2918 633.3822 410.6168 641.2962 399.2844 643.0796 385.1404 Z"/>
<path d="M 238.372 241.1375 256.5536 244.1174 266.9675 258.7174 266.7805 267.3745 263.3633 271.4959 252.5915 274.3689 232.6143 271.643 245.8359 250.5728 238.372 241.1375 Z"/>
<path d="M 288.5277 60.6723 296.5402 62.6574 300.0657 70.1902 305.6468 80.751 288.9845 90.3211 276.742 94.2288 267.3222 88.1822 267.3516 86.1384 290.3376 74.5473 288.5277 60.6723 Z"/>
<path d="M 346.7354 305.4893 359.2196 314.1107 361.444 329.641 334.4491 329.838 331.7939 304.5416 346.7354 305.4893 Z"/>
<path d="M 503.9808 392.6261 519.7288 391.9992 531.741 405.4964 537.0653 417.9305 531.1348 430.406 518.4827 434.8682 507.5487 428.391 487.0027 432.8627 481.8402 421.3426 481.061 409.6704 490.3936 398.7122 503.9808 392.6261 Z"/>
<path d="M 311.7256 51.7809 314.3743 60.1482 296.5402 62.6574 288.5277 60.6723 285.775 46.8963 287.45 44.9128 299.0254 51.8196 311.7256 51.7809 Z"/>
<path d="M 259.6931 160.1741 264.4141 156.363 286.4284 166.4259 301.0073 172.8594 304.4363 174.6578 296.0349 186.4219 295.8217 186.5349 288.1918 179.4251 266.9567 180.9133 262.2599 174.5049 259.6931 160.1741 Z"/>
<path d="M 725.3682 364.1861 739.6151 352.0338 756.7523 350.8482 771.221 363.0513 765.2704 374.4101 752.7487 369.4714 748.2816 382.17 736.8666 392.4792 731.4122 388.9412 724.8158 379.4432 725.3682 364.1861 Z"/>
<path d="M 618.5517 324.4211 612.5542 300.9292 616.1498 297.6136 625.16 304.0706 629.8205 322.8904 647.0037 331.1947 631.1873 332.4762 618.5517 324.4211 Z"/>
<path d="M 526.7575 104.3164 535.266 101.1681 543.0792 106.146 546.8074 117.4661 540.6375 127.3338 534.4954 128.8038 527.5002 129.5569 526.7575 104.3164 Z"/>
<path d="M 77.8924 180.3133 77.6654 182.9056 78.824 194.7683 77.8474 225.3464 58.9154 227.813 52.6972 226.2856 53.1573 187.4951 61.682 183.084 77.8924 180.3133 Z"/>
<path d="M 262.2599 174.5049 266.9567 180.9133 288.1918 179.4251 295.8217 186.5349 291.0007 201.8834 291.673 203.6674 278.7847 198.8899 264.5975 216.5501 254.803 207.4734 252.3456 192.8495 253.497 182.2149 262.2599 174.5049 Z"/>
<path d="M 661.1431 403.728 668.5903 394.8249 691.18 404.4367 690.5024 423.5351 657.8735 428.9197 649.1507 418.4529 661.1431 403.728 Z"/>
<path d="M 291.673 203.6674 308.6935 207.3334 289.2924 218.5321 298.3016 224.0063 284.8583 235.8781 270.6871 245.5975 256.5536 244.1174 255.6055 236.3506 264.5975 216.5501 278.7847 198.8899 291.673 203.6674 Z"/>
<path d="M 593.5321 190.324 608.8528 188.6814 615.5015 210.1558 612.8866 225.044 629.9045 225.0452 621.9659 245.1537 624.0164 255.3016 616.307 255.2365 608.7491 240.8865 582.7031 227.7055 570.2092 225.3956 565.7484 210.0976 575.0082 203.7514 590.2106 208.859 593.5321 190.324 Z"/>
<path d="M 582.3917 127.482 575.9718 131.0464 559.332 124.6973 563.5448 122.858 582.3917 127.482 Z"/>
<path d="M 248.6034 98.1318 252.7255 102.3778 243.3544 108.2874 236.8623 106.2296 240.6965 98.098 248.6034 98.1318 Z"/>
<path d="M 213.1667 196.994 212.334 218.7873 199.3864 222.5287 186.721 228.9135 195.2455 214.5239 213.1667 196.994 Z"/>
<path d="M 152.0863 427.1111 153.9731 418.6117 167.8967 423.5674 184.6159 419.0071 206.359 418.1114 209.4442 425.4647 204.9031 433.8496 197.1563 437.292 176.0887 447.2679 164.6179 448.9826 164.1764 436.8896 152.0863 427.1111 Z"/>
<path d="M 675.1033 311.6767 679.9898 308.8299 707.9413 306.3566 729.476 295.7233 739.7581 292.3906 735.8798 302.9877 719.5613 306.6478 703.8217 315.3299 690.3817 333.5992 675.1075 336.3095 659.4061 330.8402 675.1033 311.6767 Z"/>
<path d="M 621.6788 267.7264 638.3064 269.4162 650.8042 275.9957 661.1292 265.928 670.7019 263.6016 679.0125 276.5347 673.6959 289.3843 679.9898 308.8299 675.1033 311.6767 657.183 311.7448 625.4777 290.9786 617.0641 277.521 621.6788 267.7264 Z"/>
<path d="M 364.8102 124.8892 366.5195 116.732 382.5476 143.18 368.7795 143.8054 366.6289 141.7076 364.8102 124.8892 Z"/>
<path d="M 243.3544 108.2874 252.7255 102.3778 261.9581 113.1676 245.2835 115.8904 243.3544 108.2874 Z"/>
<path d="M 354.226 191.5912 370.3578 195.3928 372.9753 199.2803 365.1151 205.8796 347.6799 209.9527 329.1861 219.9641 324.553 210.2678 324.0355 209.5478 338.3148 201.4987 354.226 191.5912 Z"/>
<path d="M 85.0995 225.359 108.7017 225.311 108.6322 237.3165 108.6309 250.5076 88.2566 237.3189 85.0995 225.359 Z"/>
<path d="M 586.1457 335.6901 593.8809 346.7846 592.5812 359.7957 575.0639 357.6096 565.7527 376.0969 552.3699 380.4686 543.0313 374.1434 520.1051 367.2796 520.1115 367.2671 530.1932 337.961 535.2319 349.888 559.9577 339.6157 571.5885 341.9376 586.1457 335.6901 Z"/>
<path d="M 533.8482 273.8129 547.5164 246.3395 564.9281 259.1866 574.9688 251.6206 607.9803 258.7052 621.6788 267.7264 617.0641 277.521 625.4777 290.9786 616.1498 297.6136 612.5542 300.9292 600.2075 306.1553 571.612 311.4608 566.6524 305.1572 562.9355 292.058 551.2732 278.8504 533.8482 273.8129 Z"/>
<path d="M 263.4055 124.7952 252.1011 149.019 242.9363 174.3048 232.4064 171.1621 227.9755 141.9169 233.5831 126.9101 236.6631 123.3218 251.9996 129.2216 263.4055 124.7952 Z"/>
<path d="M 466.4814 51.4591 485.9262 46.0362 487.9485 59.2293 474.011 74.2956 465.7368 74.2024 460.753 70.9669 469.56 58.5145 466.4814 51.4591 Z"/>
<path d="M 167.2035 175.0876 170.9063 170.243 183.1823 171.2637 180.194 192.6254 166.8809 200.411 156.996 204.3337 156.9803 191.2435 167.2035 175.0876 Z"/>
<path d="M 53.4795 272.6316 61.9569 272.5486 65.998 273.5792 69.3747 276.7589 65.7207 286.982 48.1699 286.4512 53.4795 272.6316 Z"/>
<path d="M 730.3074 318.6391 739.6151 352.0338 725.3682 364.1861 711.5611 360.2959 705.627 340.5859 705.5368 322.6001 719.6256 313.5575 730.3074 318.6391 Z"/>
<path d="M 218.3872 443.1411 220.9186 445.2028 223.6641 453.3232 237.8878 462.1081 233.0232 469.0419 207.5606 469.2163 218.3872 443.1411 Z"/>
<path d="M 323.4876 77.2533 329.3723 74.2254 335.3558 73.7274 335.4429 83.808 326.3269 89.796 323.0979 88.5601 323.4876 77.2533 Z"/>
<path d="M 267.2688 108.1007 289.6618 95.9729 296.9536 100.3412 285.1446 111.3854 279.1007 125.3507 278.7216 125.1635 269.6016 123.1017 267.1734 115.0159 267.2688 108.1007 Z"/>
<path d="M 479.8049 126.6044 483.3888 133.7526 460.1105 130.8456 479.8049 126.6044 Z"/>
<path d="M 77.6654 182.9056 99.4673 181.3397 102.4706 199.6136 85.8262 201.9035 78.824 194.7683 77.6654 182.9056 Z"/>
<path d="M 116.0395 320.5494 131.6346 323.3177 141.9616 330.1564 138.06 345.4562 119.8214 345.6317 115.7658 346.1781 116.0395 320.5494 Z"/>
<path d="M 172.4251 398.4075 173.268 413.3581 167.8967 423.5674 153.9731 418.6117 153.7996 416.1949 152.8017 410.1795 167.0943 406.6072 172.4251 398.4075 Z"/>
<path d="M 572.124 427.4754 589.5213 418.5973 591.8224 428.6134 613.8673 428.3616 620.4427 433.7867 627.0462 447.8577 619.218 453.7667 604.1423 448.424 572.124 427.4754 Z"/>
<path d="M 469.9941 100.0197 470.7832 92.6848 473.8342 88.1967 485.5109 99.7603 485.8738 108.7834 469.9941 100.0197 Z"/>
<path d="M 51.9647 263.8013 61.9569 272.5486 53.4795 272.6316 32.3099 264.8661 33.8476 261.0267 51.9647 263.8013 Z"/>
<path d="M 197.1563 437.292 187.9661 454.0746 192.896 470.534 175.5722 467.8252 176.0887 447.2679 197.1563 437.292 Z"/>
<path d="M 155.6464 347.7299 157.6715 347.992 166.7592 343.1169 186.1996 345.9458 178.7287 365.5513 172.4215 371.6538 164.2176 375.1376 154.1633 361.3959 155.6464 347.7299 Z"/>
<path d="M 487.9485 59.2293 485.9262 46.0362 499.4734 49.4541 509.1523 61.2798 507.0256 81.2692 497.707 81.6719 487.0239 68.7616 487.9485 59.2293 Z"/>
<path d="M 314.3743 60.1482 315.5274 64.7527 300.0657 70.1902 296.5402 62.6574 314.3743 60.1482 Z"/>
<path d="M 32.3099 264.8661 53.4795 272.6316 48.1699 286.4512 53.5955 304.7624 24.5394 306.7484 17.4367 307.3716 26.9005 274.187 32.3099 264.8661 Z"/>
<path d="M 130.6013 436.5472 139.7062 445.3793 138.2527 449.5662 116.4762 450.5111 113.9442 446.7571 130.6013 436.5472 Z"/>
<path d="M 239.2261 71.7739 232.9177 83.348 225.2865 93.7163 213.1171 90.2855 226.9705 70.8176 239.2261 71.7739 Z"/>
<path d="M 364.8102 124.8892 366.6289 141.7076 356.2855 143.7662 343.9328 134.7688 364.8102 124.8892 Z"/>
<path d="M 448.0442 55.2222 443.9832 49.7372 449.21 42.0125 440.9321 32.1575 454.2979 32.23 466.2508 43.7827 466.4814 51.4591 469.56 58.5145 460.753 70.9669 459.2266 71.1115 448.0442 55.2222 Z"/>
<path d="M 459.8808 284.9895 484.1708 284.2399 511.3014 303.1196 518.6143 314.4796 509.0691 328.9445 506.5102 323.4546 478.2944 307.2826 459.8808 284.9895 Z"/>
<path d="M 305.224 143.9211 313.5245 156.8461 301.0073 172.8594 286.4284 166.4259 305.224 143.9211 Z"/>
<path d="M 115.7902 137.6073 114.9402 113.2855 131.1238 123.1195 140.586 115.3322 151.8701 112.4542 153.2029 116.8455 155.0886 137.4476 174.7718 144.6558 169.0642 159.648 170.9063 170.243 167.2035 175.0876 157.6172 159.5678 135.0874 160.2793 130.6242 157.9035 140.2756 149.0295 136.2883 140.0818 115.7902 137.6073 Z"/>
<path d="M 383.2644 146.3167 387.7255 144.4101 397.5497 157.9622 389.5848 163.2386 385.4124 165.3329 379.3818 162.5234 383.2644 146.3167 Z"/>
<path d="M 446.8112 386.7472 445.9598 386.2525 441.7498 374.7171 467.506 376.1239 490.3936 398.7122 481.061 409.6704 446.8112 386.7472 Z"/>
<path d="M 191.601 10.6711 194.8923 8.2664 200.2291 18.0449 202.4698 29.3681 214.7961 30.775 211.4273 45.5579 192.126 39.6898 196.9694 21.7219 191.601 10.6711 Z"/>
<path d="M 267.2633 90.0566 267.3222 88.1822 276.742 94.2288 288.9845 90.3211 289.6618 95.9729 267.2688 108.1007 267.2633 90.0566 Z"/>
<path d="M 157.5251 46.7167 161.4255 49.4979 168.2146 54.1485 158.8075 67.0311 153.6897 86.0635 149.788 86.9543 133.1111 81.6543 157.5251 46.7167 Z"/>
<path d="M 182.0571 115.1966 183.6039 99.6165 192.894 101.0983 193.4339 115.8199 191.4627 117.8878 181.6803 119.1226 182.0571 115.1966 Z"/>
<path d="M 347.6799 209.9527 350.8943 229.7032 337.8041 231.4391 329.1861 219.9641 347.6799 209.9527 Z"/>
<path d="M 183.1918 249.836 185.8511 254.9213 178.4291 267.3317 171.0253 263.2023 183.1918 249.836 Z"/>
<path d="M 338.5157 36.5903 343.3842 36.7303 352.562 44.0721 344.0657 58.1483 334.4096 52.1334 338.5157 36.5903 Z"/>
<path d="M 137.5892 381.1674 148.6492 387.4561 152.8017 410.1795 153.7996 416.1949 143.3403 412.9089 134.6537 402.0031 137.5892 381.1674 Z"/>
<path d="M 404.9762 310.6113 401.2732 296.2186 392.4883 291.4968 400.6703 273.125 422.2945 279.0591 430.8509 294.844 439.3121 298.803 449.0495 311.5172 448.4064 320.6765 465.4287 336.1404 467.6101 349.3709 451.0137 350.4488 431.5483 363.9463 425.1523 363.9738 423.6609 361.8703 424.3823 344.2216 415.7508 339.9895 416.7617 323.6447 404.9762 310.6113 Z"/>
<path d="M 180.6486 14.8307 184.1822 37.3588 164.9675 45.1275 166.9059 24.774 180.6486 14.8307 Z"/>
<path d="M 252.5915 274.3689 263.3633 271.4959 272.0639 289.0805 268.4353 304.8734 250.8369 306.8961 246.3416 298.2424 238.5125 293.9308 253.0555 282.9899 252.5915 274.3689 Z"/>
<path d="M 352.5535 456.8918 370.641 461.1253 378.1684 483.44 378.7014 496.4605 317.8212 494.6063 299.4368 482.3084 297.3319 467.1901 337.1726 474.5304 349.8409 465.8256 352.5535 456.8918 Z"/>
<path d="M 593.1589 147.7915 596.1421 144.977 612.809 137.3748 619.2973 143.7364 612.0853 160.3282 603.5097 158.7226 593.1589 147.7915 Z"/>
<path d="M 364.1913 15.5053 378.0723 19.4413 382.1068 32.6943 382.5221 47.2925 376.2763 48.9869 370.6508 46.7756 364.0551 43.8204 362.9785 36.7588 364.1913 15.5053 Z"/>
<path d="M 400.6433 16.6399 419.9002 25.428 419.7126 45.1836 402.7619 47.1074 402.5172 36.6214 400.6433 16.6399 Z"/>
<path d="M 399.2852 52.7457 402.7619 47.1074 419.7126 45.1836 420.6983 53.4161 420.6063 71.8893 402.1984 59.0136 399.2852 52.7457 Z"/>
<path d="M 128.0061 83.9201 133.1111 81.6543 149.788 86.9543 155.8235 106.599 151.8701 112.4542 140.586 115.3322 139.6269 99.633 128.0061 83.9201 Z"/>
<path d="M 252.1011 149.019 255.2991 152.5793 259.6931 160.1741 262.2599 174.5049 253.497 182.2149 252.3456 192.8495 226.7004 182.9872 232.4064 171.1621 242.9363 174.3048 252.1011 149.019 Z"/>
<path d="M 377.6955 81.4903 375.5056 89.7106 368.9541 92.1291 368.7849 73.4495 377.6955 81.4903 Z"/>
<path d="M 102.0793 157.6727 105.7613 173.9918 83.1978 174.9679 77.8924 180.3133 61.682 183.084 53.0346 179.8927 61.2768 174.128 63.5025 156.1747 83.6764 154.7002 102.0793 157.6727 Z"/>
<path d="M 183.9522 314.3276 186.7071 314.4909 183.9176 326.3948 200.0143 328.2026 192.345 342.9128 186.1996 345.9458 166.7592 343.1169 157.6715 347.992 169.1672 319.2825 183.9522 314.3276 Z"/>
<path d="M 178.4291 267.3317 185.8511 254.9213 190.8842 259.7375 179.751 271.4632 178.4291 267.3317 Z"/>
<path d="M 416.5961 461.711 425.5979 448.6609 406.9904 442.4647 409.4003 437.5572 414.5144 430.4918 436.2512 425.4244 449.1325 417.8817 454.038 432.1715 442.5098 453.9687 416.5961 461.711 Z"/>
<path d="M 311.3546 137.2132 304.6658 139.9094 295.5049 136.4504 306.6054 121.1397 318.9265 125.6636 311.3546 137.2132 Z"/>
<path d="M 270.2507 318.2356 269.1841 309.4973 282.6675 301.5936 295.8155 300.3319 308.818 319.3957 291.1293 321.6269 292.0661 333.9127 284.4066 333.8015 270.2507 318.2356 Z"/>
<path d="M 139.7897 214.9578 138.9463 207.1269 156.996 204.3337 166.8809 200.411 164.7669 208.5154 162.6407 221.4078 157.27 232.7534 154.0163 224.7878 139.7897 214.9578 Z"/>
<path d="M 285.1555 24.3449 283.3546 11.8744 296.4931 15.2023 298.7836 22.1413 289.6736 34.9185 285.1555 24.3449 Z"/>
<path d="M 689.8713 391.6375 705.3346 377.3982 724.8158 379.4432 731.4122 388.9412 741.8176 407.0552 736.2226 422.1878 690.5024 423.5351 691.18 404.4367 689.8713 391.6375 Z"/>
<path d="M 190.8842 259.7375 198.8918 262.1236 200.8001 266.4041 186.1381 292.717 173.6928 294.936 173.7276 276.2405 179.751 271.4632 190.8842 259.7375 Z"/>
<path d="M 146.0185 34.6287 157.5251 46.7167 133.1111 81.6543 128.0061 83.9201 108.6949 92.1781 118.2947 72.7685 121.8696 51.478 146.0185 34.6287 Z"/>
<path d="M 454.4484 148.5953 453.8408 154.9573 439.4449 170.0477 431.4299 168.4888 419.5944 160.3471 423.589 151.3797 454.4484 148.5953 Z"/>
<path d="M 34.8298 252.4104 37.389 232.3188 48.628 241.1963 61.6846 231.3683 75.2581 239.4585 73.1128 260.7261 70.1523 270.8132 65.998 273.5792 61.9569 272.5486 51.9647 263.8013 52.9624 255.7056 34.8298 252.4104 Z"/>
<path d="M 691.1653 357.1025 698.0912 343.4062 705.627 340.5859 711.5611 360.2959 725.3682 364.1861 724.8158 379.4432 705.3346 377.3982 689.8713 391.6375 690.2713 366.6506 691.1653 357.1025 Z"/>
<path d="M 314.7266 230.7783 313.0692 249.4804 307.2967 253.1734 293.4742 255.7325 270.5888 267.8521 266.7805 267.3745 266.9675 258.7174 256.5536 244.1174 270.6871 245.5975 284.8583 235.8781 293.0211 243.04 314.7266 230.7783 Z"/>
<path d="M 149.788 86.9543 153.6897 86.0635 171.5934 87.0687 169.8124 113.0818 153.2029 116.8455 151.8701 112.4542 155.8235 106.599 149.788 86.9543 Z"/>
<path d="M 416.5961 461.711 410.5589 468.2464 406.3316 455.1267 406.9904 442.4647 425.5979 448.6609 416.5961 461.711 Z"/>
<path d="M 735.8798 302.9877 740.9944 312.9215 730.3074 318.6391 719.6256 313.5575 705.5368 322.6001 705.627 340.5859 698.0912 343.4062 691.0319 339.7042 671.433 348.0175 675.1075 336.3095 690.3817 333.5992 703.8217 315.3299 719.5613 306.6478 735.8798 302.9877 Z"/>
<path d="M 197.1563 437.292 204.9031 433.8496 218.3872 443.1411 207.5606 469.2163 192.896 470.534 187.9661 454.0746 197.1563 437.292 Z"/>
<path d="M 112.7505 364.4682 115.7658 346.1781 119.8214 345.6317 133.249 356.7028 137.628 367.7397 135.0363 369.9956 122.2604 371.4498 112.7505 364.4682 Z"/>
<path d="M 526.7593 89.2091 536.47 84.952 535.266 101.1681 526.7575 104.3164 507.646 95.2249 506.6722 89.3522 506.8165 89.3348 526.7593 89.2091 Z"/>
<path d="M 399.2852 52.7457 402.1984 59.0136 392.6461 68.514 381.1532 65.6219 385.5921 54.6898 399.2852 52.7457 Z"/>
<path d="M 335.3558 73.7274 343.9373 78.8191 351.7617 84.7133 335.0173 92.7455 326.3269 89.796 335.4429 83.808 335.3558 73.7274 Z"/>
<path d="M 222.2001 58.1129 231.2332 64.6373 226.9705 70.8176 213.1171 90.2855 204.2695 89.6198 204.8417 86.9129 206.2905 67.6247 222.2001 58.1129 Z"/>
<path d="M 338.1377 105.6956 336.9189 120.0556 329.7387 115.9186 338.1377 105.6956 Z"/>
<path d="M 95.9474 414.4175 110.8792 413.1272 125.9041 416.5362 126.9375 419.9311 106.3301 430.41 95.9474 414.4175 Z"/>
<path d="M 138.06 345.4562 138.096 345.505 133.249 356.7028 119.8214 345.6317 138.06 345.4562 Z"/>
<path d="M 469.9941 100.0197 485.8738 108.7834 486.8709 113.2552 479.8241 126.6011 466.4734 117.8072 469.9941 100.0197 Z"/>
<path d="M 330.4787 51.2664 334.4096 52.1334 344.0657 58.1483 349.4925 60.8897 349.6154 62.2429 343.9373 78.8191 335.3558 73.7274 329.3723 74.2254 329.3105 63.4132 330.4787 51.2664 Z"/>
<path d="M 130.6013 436.5472 132.5617 431.7738 136.205 431.7098 150.6529 438.463 159.6465 448.6312 147.6703 451.3279 139.7062 445.3793 130.6013 436.5472 Z"/>
<path d="M 128.2047 191.1823 132.691 186.1935 142.8448 193.7487 137.3497 206.7519 128.2162 211.6994 114.6169 205.6143 128.2047 191.1823 Z"/>
<path d="M 385.1684 165.7052 394.8654 187.2398 385.9024 194.6762 374.0138 191.487 365.5915 183.1475 374.9642 181.9452 385.1684 165.7052 Z"/>
<path d="M 524.4188 289.3972 533.8482 273.8129 551.2732 278.8504 562.9355 292.058 566.6524 305.1572 548.7252 303.9102 524.4188 289.3972 Z"/>
<path d="M 330.9658 8.65 336.5675 12.2993 330.4402 37.3631 326.2367 32.0674 330.9658 8.65 Z"/>
<path d="M 135.0874 160.2793 157.6172 159.5678 167.2035 175.0876 156.9803 191.2435 153.0493 177.3767 140.2094 177.556 135.0874 160.2793 Z"/>
<path d="M 253.5498 454.0495 254.7619 474.1414 245.8631 476.1594 233.0232 469.0419 237.8878 462.1081 253.5498 454.0495 Z"/>
<path d="M 539.0498 51.6561 565.7372 44.8801 567.204 51.8657 567.5682 59.5654 556.3456 68.871 543.1789 66.9286 539.0498 51.6561 Z"/>
<path d="M 505.8069 382.9454 520.1051 367.2796 543.0313 374.1434 552.3699 380.4686 536.0718 402.2116 531.741 405.4964 519.7288 391.9992 503.9808 392.6261 505.8069 382.9454 Z"/>
<path d="M 245.2835 115.8904 261.9581 113.1676 267.1734 115.0159 269.6016 123.1017 263.4055 124.7952 251.9996 129.2216 236.6631 123.3218 245.2835 115.8904 Z"/>
<path d="M 538.3358 232.0826 541.3591 215.6354 565.7484 210.0976 570.2092 225.3956 582.7031 227.7055 608.7491 240.8865 616.307 255.2365 607.9803 258.7052 574.9688 251.6206 564.9281 259.1866 547.5164 246.3395 538.3358 232.0826 Z"/>
<path d="M 489.8965 228.3927 475.3788 218.487 480.8303 208.2015 473.2882 197.272 479.1083 184.5064 504.9689 192.7304 523.5166 195.0417 521.0151 210.2052 531.0897 216.0105 520.0114 226.0845 505.0473 237.6906 489.8965 228.3927 Z"/>
<path d="M 350.8228 424.5042 365.5678 425.6164 382.427 435.004 409.4003 437.5572 406.9904 442.4647 406.3316 455.1267 388.9808 467.8178 370.641 461.1253 352.5535 456.8918 356.1391 437.9316 350.8228 424.5042 Z"/>
<path d="M 211.9452 179.0675 224.9229 183.587 232.8598 197.1168 220.1641 202.9174 212.334 218.7873 213.1667 196.994 214.0989 194.4464 211.9452 179.0675 Z"/>
<path d="M 489.8965 228.3927 505.0473 237.6906 520.0114 226.0845 538.3358 232.0826 547.5164 246.3395 533.8482 273.8129 524.4188 289.3972 511.3014 303.1196 484.1708 284.2399 459.8808 284.9895 456.6808 281.9868 469.7725 266.9358 475.7989 248.639 489.8965 228.3927 Z"/>
<path d="M 59.793 346.9019 74.6087 347.1061 86.2913 366.2222 83.9831 374.0398 74.8234 374.4268 56.0988 366.4439 59.793 346.9019 Z"/>
<path d="M 340.4071 235.1439 337.8041 231.4391 350.8943 229.7032 360.6296 228.3244 367.7993 234.9523 382.5868 232.5345 384.0516 248.0496 367.3653 248.1528 352.6161 253.0843 340.4071 235.1439 Z"/>
<path d="M 412.0833 134.0426 404.512 145.1491 388.8824 143.1474 393.8597 134.4759 412.0833 134.0426 Z"/>
<path d="M 16.0284 328.6045 25.7604 331.4731 24.8268 348.8088 14.2157 344.3876 14.1351 370.2992 33.6802 367.9582 37.4259 370.9345 21.6206 383.3525 1 375.1818 1.7492 351.3283 16.0284 328.6045 Z"/>
<path d="M 523.5166 195.0417 528.4561 174.9895 536.9753 179.7041 552.1895 194.6863 541.4007 201.1916 541.3591 215.6354 538.3358 232.0826 520.0114 226.0845 531.0897 216.0105 521.0151 210.2052 523.5166 195.0417 Z"/>
<path d="M 303.7955 397.5482 315.7165 392.6312 335.5835 393.8571 342.9301 405.8157 343.9675 425.0847 335.3909 428.3687 308.256 417.5209 298.2323 404.6947 303.7955 397.5482 Z"/>
<path d="M 153.2434 241.0598 157.27 232.7534 162.6407 221.4078 176.7951 228.3941 174.3615 243.8236 166.483 256.5875 160.4814 251.8141 143.8231 259.2571 142.3584 249.5535 141.8761 246.1326 153.2434 241.0598 Z"/>
<path d="M 617.5251 369.7926 614.801 376.1151 612.888 377.0632 587.4039 370.4634 592.5812 359.7957 593.8809 346.7846 602.2079 359.7581 611.6379 357.9192 617.5251 369.7926 Z"/>
<path d="M 220.9186 445.2028 227.8068 438.6071 228.8526 426.4198 248.3856 439.1877 253.3761 446.1574 253.5498 454.0495 237.8878 462.1081 223.6641 453.3232 220.9186 445.2028 Z"/>
<path d="M 318.408 10.269 315.4207 1 330.9658 8.65 326.2367 32.0674 314.8014 17.8885 318.408 10.269 Z"/>
<path d="M 251.8631 90.2718 267.2633 90.0566 267.2688 108.1007 267.1734 115.0159 261.9581 113.1676 252.7255 102.3778 248.6034 98.1318 251.8631 90.2718 Z"/>
<path d="M 307.2967 253.1734 313.0692 249.4804 321.1409 255.6574 333.4935 252.8614 340.4071 235.1439 352.6161 253.0843 367.3653 248.1528 384.0516 248.0496 383.6231 259.3797 374.4806 276.1629 356.7042 289.8508 345.8019 287.6067 327.8325 272.3094 305.8013 276.067 304.1905 275.5083 309.5553 265.1276 307.2967 253.1734 Z"/>
<path d="M 653.3992 377.6291 656.5199 395.0132 643.0796 385.1404 642.4982 381.4232 653.3992 377.6291 Z"/>
<path d="M 323.0979 88.5601 326.3269 89.796 335.0173 92.7455 337.7231 97.6377 338.1377 105.6956 329.7387 115.9186 318.9265 125.6636 306.6054 121.1397 306.6068 121.1263 307.2531 106.5137 323.0979 88.5601 Z"/>
<path d="M 292.6657 395.3188 290.3257 393.3439 311.7153 377.836 321.991 382.3162 315.7165 392.6312 303.7955 397.5482 292.6657 395.3188 Z"/>
<path d="M 154.0163 224.7878 157.27 232.7534 153.2434 241.0598 154.0163 224.7878 Z"/>
<path d="M 172.4215 371.6538 175.5876 382.9986 164.4844 388.3678 159.2638 384.7914 164.2176 375.1376 172.4215 371.6538 Z"/>
<path d="M 272.9089 430.1746 281.4809 434.5815 291.5551 450.7564 280.1352 458.4327 264.9528 455.321 253.3761 446.1574 248.3856 439.1877 268.0277 438.0238 272.9089 430.1746 Z"/>
<path d="M 380.1324 99.4072 375.5056 89.7106 377.6955 81.4903 390.2284 78.1274 403.9418 78.5104 400.4966 92.8588 403.4483 104.4398 380.1324 99.4072 Z"/>
<path d="M 608.8528 188.6814 620.9395 171.2096 643.6307 207.0801 661.9633 222.3166 655.6729 233.2036 626.4033 247.652 624.0164 255.3016 621.9659 245.1537 629.9045 225.0452 612.8866 225.044 615.5015 210.1558 608.8528 188.6814 Z"/>
<path d="M 69.3747 276.7589 65.998 273.5792 70.1523 270.8132 83.0235 267.9664 97.2689 274.3354 92.2447 287.4327 69.3747 276.7589 Z"/>
<path d="M 454.038 432.1715 467.1672 435.0427 478.545 447.4451 460.2378 457.8128 442.5098 453.9687 454.038 432.1715 Z"/>
<path d="M 122.384 402.2889 123.2061 400.8841 125.6269 400.5758 134.6537 402.0031 143.3403 412.9089 153.7996 416.1949 153.9731 418.6117 152.0863 427.1111 151.5858 427.6514 130.2803 421.5894 126.9375 419.9311 125.9041 416.5362 122.384 402.2889 Z"/>
<path d="M 102.8928 101.4887 114.9402 113.2855 115.7902 137.6073 104.391 139.7129 88.4078 138.8515 69.9953 134.4494 75.2974 114.6374 102.8928 101.4887 Z"/>
<path d="M 324.553 210.2678 329.1861 219.9641 337.8041 231.4391 340.4071 235.1439 333.4935 252.8614 321.1409 255.6574 313.0692 249.4804 314.7266 230.7783 324.553 210.2678 Z"/>
<path d="M 307.2531 106.5137 306.6068 121.1263 291.413 121.5444 300.6771 108.2188 307.2531 106.5137 Z"/>
<path d="M 291.7943 334.916 292.0661 333.9127 291.1293 321.6269 308.818 319.3957 318.5032 340.5559 317.7796 347.2689 295.266 361.1929 297.7759 347.3553 291.7943 334.916 Z"/>
<path d="M 75.6197 312.1248 71.1373 324.0683 61.5389 322.9641 49.9264 316.4035 53.1161 306.3271 72.1987 306.2186 75.6197 312.1248 Z"/>
<path d="M 673.8713 350.9111 691.1653 357.1025 690.2713 366.6506 677.9097 368.7394 665.0932 359.2907 673.8713 350.9111 Z"/>
<path d="M 222.9381 8.6668 233.4498 11.7243 246.6583 4.2584 252.975 10.3748 245.9863 41.8455 223.2457 38.4868 214.7961 30.775 218.9089 21.8194 222.9381 8.6668 Z"/>
<path d="M 273.3937 48.8233 285.775 46.8963 288.5277 60.6723 290.3376 74.5473 267.3516 86.1384 267.3032 74.7333 275.131 65.1971 273.3937 48.8233 Z"/>
<path d="M 232.8598 197.1168 239.3296 205.5735 232.9063 216.6363 212.334 218.7873 220.1641 202.9174 232.8598 197.1168 Z"/>
<path d="M 307.2967 253.1734 309.5553 265.1276 304.1905 275.5083 298.2781 277.7065 270.5888 267.8521 293.4742 255.7325 307.2967 253.1734 Z"/>
<path d="M 317.7796 347.2689 336.4286 340.8657 347.5826 346.6936 349.4451 359.4437 343.7471 375.6249 321.991 382.3162 311.7153 377.836 290.3257 393.3439 278.7626 385.7638 270.4452 388.4222 285.2185 373.2785 295.266 361.1929 317.7796 347.2689 Z"/>
<path d="M 390.2284 78.1274 392.6461 68.514 402.1984 59.0136 420.6063 71.8893 420.5875 78.4649 415.5791 95.0718 403.4496 104.4543 403.4483 104.4398 400.4966 92.8588 403.9418 78.5104 390.2284 78.1274 Z"/>
<path d="M 77.6654 182.9056 77.8924 180.3133 83.1978 174.9679 105.7613 173.9918 112.9244 169.111 122.0677 174.7612 128.2047 191.1823 114.6169 205.6143 111.449 204.807 102.4706 199.6136 99.4673 181.3397 77.6654 182.9056 Z"/>
<path d="M 592.5812 359.7957 587.4039 370.4634 565.7527 376.0969 575.0639 357.6096 592.5812 359.7957 Z"/>
<path d="M 304.4363 174.6578 322.817 173.8067 328.9705 192.7406 319.7855 204.8564 308.6935 207.3334 291.673 203.6674 291.0007 201.8834 300.3428 204.1651 312.7463 195.1635 306.5852 186.1662 296.0349 186.4219 304.4363 174.6578 Z"/>
<path d="M 558.0118 137.2796 553.8951 123.2757 559.332 124.6973 575.9718 131.0464 585.4148 151.2899 573.4183 160.8692 567.337 168.0215 556.7682 166.6738 561.5915 147.9137 558.0118 137.2796 Z"/>
<path d="M 75.2581 239.4585 78.7089 242.1183 83.8509 250.558 73.1128 260.7261 75.2581 239.4585 Z"/>
<path d="M 455.5841 230.4639 475.3788 218.487 489.8965 228.3927 475.7989 248.639 455.5841 230.4639 Z"/>
<path d="M 93.0317 397.0539 112.0201 403.3764 123.2061 400.8841 122.384 402.2889 110.8792 413.1272 95.9474 414.4175 93.0317 397.0539 Z"/>
<path d="M 235.9389 382.9569 252.1917 387.9259 237.7084 395.5661 235.9389 382.9569 Z"/>
<path d="M 308.256 417.5209 335.3909 428.3687 343.9675 425.0847 350.8228 424.5042 356.1391 437.9316 352.5535 456.8918 349.8409 465.8256 337.1726 474.5304 297.3319 467.1901 295.7304 464.4213 307.5828 449.4931 308.256 417.5209 Z"/>
<path d="M 286.5239 136.2381 295.5049 136.4504 304.6658 139.9094 305.224 143.9211 286.4284 166.4259 264.4141 156.363 286.5239 136.2381 Z"/>
<path d="M 164.9675 45.1275 161.4255 49.4979 157.5251 46.7167 146.0185 34.6287 166.9059 24.774 164.9675 45.1275 Z"/>
<path d="M 556.3456 68.871 567.5682 59.5654 567.204 51.8657 574.8766 63.7089 587.3954 68.3774 577.3444 87.5258 577.341 98.5082 572.2656 94.9634 567.6409 86.601 547.5921 75.1966 556.3456 68.871 Z"/>
<path d="M 765.2704 374.4101 750.7085 390.073 736.8666 392.4792 748.2816 382.17 752.7487 369.4714 765.2704 374.4101 Z"/>
<path d="M 223.1553 363.4102 225.5216 358.4408 233.2559 361.5144 249.6939 355.0074 265.6507 364.5162 253.853 381.7675 252.1917 387.9259 235.9389 382.9569 222.8948 372.4588 222.6606 372.0864 223.1553 363.4102 Z"/>
<path d="M 481.8402 421.3426 487.0027 432.8627 478.545 447.4451 467.1672 435.0427 454.038 432.1715 459.3333 424.5418 481.8402 421.3426 Z"/>
<path d="M 326.3166 168.76 322.817 173.8067 304.4363 174.6578 301.0073 172.8594 313.5245 156.8461 319.3534 154.3495 326.3166 168.76 Z"/>
<path d="M 509.1523 61.2798 518.6911 64.7371 533.3844 69.8413 534.5475 74.0486 536.47 84.952 526.7593 89.2091 506.6205 83.0254 507.0256 81.2692 509.1523 61.2798 Z"/>
<path d="M 606.6516 124.4549 610.1022 121.5858 612.809 137.3748 596.1421 144.977 590.9346 132.4696 606.6516 124.4549 Z"/>
<path d="M 670.7019 263.6016 685.351 260.224 713.9329 265.2883 733.6061 261.9771 747.668 271.4522 739.7581 292.3906 729.476 295.7233 719.6149 286.4503 704.8091 281.4265 687.2399 293.266 673.6959 289.3843 679.0125 276.5347 670.7019 263.6016 Z"/>
<path d="M 71.1373 324.0683 75.6197 312.1248 77.9744 311.9701 79.3856 315.2294 85.1629 335.5958 100.8615 342.6741 96.3788 352.461 97.3745 368.7831 83.9831 374.0398 86.2913 366.2222 74.6087 347.1061 71.1373 324.0683 Z"/>
<path d="M 383.6231 259.3797 391.198 272.7215 377.8413 295.6688 360.6854 304.2494 348.6241 300.3986 345.8019 287.6067 356.7042 289.8508 374.4806 276.1629 383.6231 259.3797 Z"/>
<path d="M 180.6486 14.8307 191.601 10.6711 196.9694 21.7219 192.126 39.6898 184.1822 37.3588 180.6486 14.8307 Z"/>
<path d="M 511.3014 303.1196 524.4188 289.3972 548.7252 303.9102 566.6524 305.1572 571.612 311.4608 600.2075 306.1553 602.9396 322.8496 586.1457 335.6901 571.5885 341.9376 559.9577 339.6157 535.2319 349.888 530.1932 337.961 530.5214 320.5433 518.6143 314.4796 511.3014 303.1196 Z"/>
<path d="M 227.3274 287.2978 238.5125 293.9308 246.3416 298.2424 237.6132 314.5999 230.4783 316.3219 221.4609 303.1347 227.3274 287.2978 Z"/>
<path d="M 522.3438 51.0783 518.6911 64.7371 509.1523 61.2798 499.4734 49.4541 522.3438 51.0783 Z"/>
<path d="M 449.1325 417.8817 436.582 401.5631 446.8112 386.7472 481.061 409.6704 481.8402 421.3426 459.3333 424.5418 454.038 432.1715 449.1325 417.8817 Z"/>
<path d="M 183.1823 171.2637 200.7636 175.7141 211.9452 179.0675 214.0989 194.4464 191.7103 187.542 180.194 192.6254 183.1823 171.2637 Z"/>
<path d="M 188.4817 378.1726 187.8785 372.034 196.2281 368.108 213.8503 376.4824 214.9028 388.8421 203.1364 398.4993 198.9314 398.4058 198.8105 387.8126 188.4817 378.1726 Z"/>
<path d="M 50.0226 329.3116 59.793 346.9019 56.0988 366.4439 48.8526 373.7394 37.4259 370.9345 33.6802 367.9582 24.8268 348.8088 25.7604 331.4731 50.0226 329.3116 Z"/>
<path d="M 479.8049 126.6044 479.8241 126.6011 486.8709 113.2552 490.5293 118.015 492.8393 144.7134 483.3888 133.7526 479.8049 126.6044 Z"/>
<path d="M 420.5875 78.4649 420.5666 81.4933 432.6059 98.7955 443.8036 99.4358 447.7918 121.1492 454.4484 148.5953 423.589 151.3797 411.7972 147.6539 414.5356 129.4464 404.5352 124.5805 403.4496 104.4543 415.5791 95.0718 420.5875 78.4649 Z"/>
<path d="M 673.6959 289.3843 687.2399 293.266 704.8091 281.4265 719.6149 286.4503 729.476 295.7233 707.9413 306.3566 679.9898 308.8299 673.6959 289.3843 Z"/>
<path d="M 372.9753 199.2803 381.8691 216.9876 381.678 220.3754 365.1831 218.9581 360.6296 228.3244 350.8943 229.7032 347.6799 209.9527 365.1151 205.8796 372.9753 199.2803 Z"/>
<path d="M 300.0657 70.1902 315.5274 64.7527 317.4459 66.8918 322.1592 76.5157 310.2141 80.6916 305.6468 80.751 300.0657 70.1902 Z"/>
<path d="M 534.4954 128.8038 540.6375 127.3338 543.3684 140.6186 552.5143 154.4653 549.2955 162.3493 542.9679 157.5062 534.4954 128.8038 Z"/>
<path d="M 585.4148 151.2899 593.1589 147.7915 603.5097 158.7226 592.5044 169.8477 589.4106 180.4851 573.4183 160.8692 585.4148 151.2899 Z"/>
<path d="M 400.6703 273.125 392.4883 291.4968 401.2732 296.2186 404.9762 310.6113 372.9456 324.2824 359.2196 314.1107 346.7354 305.4893 360.6854 304.2494 377.8413 295.6688 391.198 272.7215 400.6703 273.125 Z"/>
<path d="M 143.8455 459.6304 138.2527 449.5662 139.7062 445.3793 147.6703 451.3279 159.6465 448.6312 164.6179 448.9826 176.0887 447.2679 175.5722 467.8252 159.0062 456.8396 143.8455 459.6304 Z"/>
<path d="M 400.5518 199.4925 395.806 197.4928 412.7379 190.6193 430.9959 189.1376 429.7596 178.5463 431.4299 168.4888 439.4449 170.0477 453.8408 154.9573 465.3799 164.8671 477.8932 183.0673 479.1083 184.5064 473.2882 197.272 480.8303 208.2015 475.3788 218.487 455.5841 230.4639 429.4555 219.9541 400.5518 199.4925 Z"/>
<path d="M 381.678 220.3754 381.8691 216.9876 400.6352 210.7503 417.3793 222.776 412.2235 233.3625 389.1994 229.5065 381.678 220.3754 Z"/>
<path d="M 120.5124 161.3802 130.6242 157.9035 135.0874 160.2793 140.2094 177.556 132.691 186.1935 128.2047 191.1823 122.0677 174.7612 112.9244 169.111 120.5124 161.3802 Z"/>
<path d="M 164.7669 208.5154 185.2796 207.8739 195.2455 214.5239 186.721 228.9135 176.7951 228.3941 162.6407 221.4078 164.7669 208.5154 Z"/>
<path d="M 407.7463 166.4057 419.5944 160.3471 431.4299 168.4888 429.7596 178.5463 407.7463 166.4057 Z"/>
<path d="M 589.5213 418.5973 607.629 412.0634 620.3357 418.8186 620.4427 433.7867 613.8673 428.3616 591.8224 428.6134 589.5213 418.5973 Z"/>
<path d="M 252.1917 387.9259 253.853 381.7675 270.4452 388.4222 278.7626 385.7638 290.3257 393.3439 292.6657 395.3188 286.6474 407.9591 271.9978 418.4174 249.6692 416.6614 230.3361 409.4325 232.6077 394.6649 237.7084 395.5661 252.1917 387.9259 Z"/>
<path d="M 368.7849 73.4495 359.0627 68.0918 349.6154 62.2429 349.4925 60.8897 368.9783 56.2736 370.6508 46.7756 376.2763 48.9869 381.1532 65.6219 392.6461 68.514 390.2284 78.1274 377.6955 81.4903 368.7849 73.4495 Z"/>
<path d="M 209.4442 425.4647 227.8068 438.6071 220.9186 445.2028 218.3872 443.1411 204.9031 433.8496 209.4442 425.4647 Z"/>
<path d="M 24.5394 306.7484 53.5955 304.7624 53.1161 306.3271 49.9264 316.4035 61.5389 322.9641 49.085 326.3876 24.5394 306.7484 Z"/>
<path d="M 17.4367 307.3716 24.5394 306.7484 49.085 326.3876 50.0226 329.3116 25.7604 331.4731 16.0284 328.6045 21.0064 322.1352 17.4367 307.3716 Z"/>
<path d="M 295.266 361.1929 285.2185 373.2785 282.3064 361.916 286.7175 338.0848 291.7943 334.916 297.7759 347.3553 295.266 361.1929 Z"/>
<path d="M 63.5025 156.1747 69.9953 134.4494 88.4078 138.8515 101.2896 153.7469 102.0793 157.6727 83.6764 154.7002 63.5025 156.1747 Z"/>
<path d="M 382.1068 32.6943 378.0723 19.4413 400.6433 16.6399 402.5172 36.6214 382.1068 32.6943 Z"/>
<path d="M 587.3954 68.3774 597.6814 70.8573 609.9078 92.5787 608.4262 100.2863 583.5038 110.7158 577.341 98.5082 577.3444 87.5258 587.3954 68.3774 Z"/>
<path d="M 419.9002 25.428 440.9321 32.1575 449.21 42.0125 443.9832 49.7372 420.6983 53.4161 419.7126 45.1836 419.9002 25.428 Z"/>
<path d="M 536.47 84.952 534.5475 74.0486 547.5921 75.1966 567.6409 86.601 572.2656 94.9634 563.5142 112.0115 543.0792 106.146 535.266 101.1681 536.47 84.952 Z"/>
<path d="M 306.6054 121.1397 295.5049 136.4504 286.5239 136.2381 285.829 134.0912 306.6054 121.1397 Z"/>
<path d="M 139.7897 214.9578 154.0163 224.7878 153.2434 241.0598 141.8761 246.1326 139.7897 214.9578 Z"/>
<path d="M 164.4844 388.3678 175.5876 382.9986 188.4817 378.1726 198.8105 387.8126 198.9314 398.4058 186.5442 410.0937 178.0484 397.8167 164.4844 388.3678 Z"/>
<path d="M 391.8489 381.5125 404.3268 404.7032 386.4045 419.2026 365.5678 425.6164 350.8228 424.5042 343.9675 425.0847 342.9301 405.8157 335.5835 393.8571 315.7165 392.6312 321.991 382.3162 343.7471 375.6249 378.0935 377.7783 391.8489 381.5125 Z"/>
<path d="M 133.249 356.7028 138.096 345.505 155.6464 347.7299 154.1633 361.3959 137.628 367.7397 133.249 356.7028 Z"/>
<path d="M 50.0226 329.3116 49.085 326.3876 61.5389 322.9641 71.1373 324.0683 74.6087 347.1061 59.793 346.9019 50.0226 329.3116 Z"/>
<path d="M 212.6239 408.7137 219.8126 413.721 228.8526 426.4198 227.8068 438.6071 209.4442 425.4647 206.359 418.1114 212.6239 408.7137 Z"/>
<path d="M 328.9705 192.7406 337.4126 188.9386 338.3148 201.4987 324.0355 209.5478 319.7855 204.8564 328.9705 192.7406 Z"/>
<path d="M 494.8983 340.4771 497.4672 328.9078 509.0691 328.9445 518.6143 314.4796 530.5214 320.5433 530.1932 337.961 520.1115 367.2671 498.9371 359.662 494.8983 340.4771 Z"/>
<path d="M 490.5293 118.015 511.5918 116.5798 516.5381 130.7318 505.7894 149.4045 495.5781 149.1345 492.8393 144.7134 490.5293 118.015 Z"/>
<path d="M 561.5915 147.9137 556.7682 166.6738 567.337 168.0215 558.8751 178.7481 544.2209 172.9172 549.2955 162.3493 552.5143 154.4653 561.5915 147.9137 Z"/>
<path d="M 153.2029 116.8455 169.8124 113.0818 182.0571 115.1966 181.6803 119.1226 174.7718 144.6558 155.0886 137.4476 153.2029 116.8455 Z"/>
<path d="M 142.3584 249.5535 143.8231 259.2571 140.3095 271.1735 130.4937 271.5495 123.2737 264.5291 128.7507 243.7707 142.3584 249.5535 Z"/>
<path d="M 106.3301 430.41 126.9375 419.9311 130.2803 421.5894 132.5617 431.7738 130.6013 436.5472 113.9442 446.7571 106.3301 430.41 Z"/>
<path d="M 236.8623 106.2296 243.3544 108.2874 245.2835 115.8904 236.6631 123.3218 233.5831 126.9101 227.2257 125.4926 236.8623 106.2296 Z"/>
<path d="M 360.6296 228.3244 365.1831 218.9581 381.678 220.3754 389.1994 229.5065 382.5868 232.5345 367.7993 234.9523 360.6296 228.3244 Z"/>
<path d="M 239.2261 71.7739 251.8588 73.4908 251.8556 79.4184 232.9177 83.348 239.2261 71.7739 Z"/>
<path d="M 96.8823 299.7254 96.5828 314.4379 79.3856 315.2294 77.9744 311.9701 68.2834 289.1897 84.7289 291.377 96.8823 299.7254 Z"/>
<path d="M 439.3121 298.803 441.2487 285.7693 456.6808 281.9868 459.8808 284.9895 478.2944 307.2826 469.8032 322.0998 449.0495 311.5172 439.3121 298.803 Z"/>
<path d="M 750.7085 390.073 741.8176 407.0552 731.4122 388.9412 736.8666 392.4792 750.7085 390.073 Z"/>
<path d="M 249.6939 355.0074 257.8515 341.8623 266.1302 343.0661 270.2507 318.2356 284.4066 333.8015 292.0661 333.9127 291.7943 334.916 286.7175 338.0848 282.3064 361.916 265.6507 364.5162 249.6939 355.0074 Z"/>
<path d="M 227.9755 141.9169 232.4064 171.1621 226.7004 182.9872 224.9229 183.587 211.9452 179.0675 200.7636 175.7141 193.084 163.3152 201.2805 153.726 216.4026 152.9136 227.9755 141.9169 Z"/>
<path d="M 69.3747 276.7589 92.2447 287.4327 112.4289 295.2063 106.5338 302.5365 96.8823 299.7254 84.7289 291.377 68.2834 289.1897 65.7207 286.982 69.3747 276.7589 Z"/>
<path d="M 384.0516 248.0496 382.5868 232.5345 389.1994 229.5065 412.2235 233.3625 424.4296 237.3931 421.9492 249.6614 431.7227 258.9919 433.274 280.0288 441.2487 285.7693 439.3121 298.803 430.8509 294.844 422.2945 279.0591 400.6703 273.125 391.198 272.7215 383.6231 259.3797 384.0516 248.0496 Z"/>
<path d="M 352.592 20.8015 362.9785 36.7588 364.0551 43.8204 352.562 44.0721 343.3842 36.7303 352.592 20.8015 Z"/>
<path d="M 540.6375 127.3338 546.8074 117.4661 553.8951 123.2757 558.0118 137.2796 543.3684 140.6186 540.6375 127.3338 Z"/>
<path d="M 251.8556 79.4184 251.8588 73.4908 267.3032 74.7333 267.3516 86.1384 267.3222 88.1822 267.2633 90.0566 251.8631 90.2718 251.8556 79.4184 Z"/>
<path d="M 213.4902 105.0531 204.2695 89.6198 213.1171 90.2855 225.2865 93.7163 230.2216 95.5772 213.4902 105.0531 Z"/>
<path d="M 453.3236 75.502 459.2266 71.1115 460.753 70.9669 465.7368 74.2024 473.8342 88.1967 470.7832 92.6848 460.3907 92.1233 453.3236 75.502 Z"/>
<path d="M 608.4262 100.2863 610.1022 121.5858 606.6516 124.4549 586.2666 125.9483 583.5038 110.7158 608.4262 100.2863 Z"/>
<path d="M 508.9092 150.1214 517.0202 162.7638 504.8078 174.0757 508.9092 150.1214 Z"/>
<path d="M 349.6154 62.2429 359.0627 68.0918 351.7617 84.7133 343.9373 78.8191 349.6154 62.2429 Z"/>
<path d="M 385.1684 165.7052 385.4124 165.3329 389.5848 163.2386 407.7463 166.4057 429.7596 178.5463 430.9959 189.1376 412.7379 190.6193 395.806 197.4928 385.9024 194.6762 394.8654 187.2398 385.1684 165.7052 Z"/>
<path d="M 365.5915 183.1475 374.0138 191.487 370.3578 195.3928 354.226 191.5912 358.6932 180.265 365.5915 183.1475 Z"/>
<path d="M 213.4902 105.0531 230.2216 95.5772 240.6965 98.098 236.8623 106.2296 227.2257 125.4926 217.7803 132.9762 198.1643 123.7309 215.2473 109.8941 213.4902 105.0531 Z"/>
<path d="M 563.5142 112.0115 572.2656 94.9634 577.341 98.5082 583.5038 110.7158 586.2666 125.9483 582.3917 127.482 563.5448 122.858 563.5142 112.0115 Z"/>
<path d="M 24.8268 348.8088 33.6802 367.9582 14.1351 370.2992 14.2157 344.3876 24.8268 348.8088 Z"/>
<path d="M 210.2569 50.1892 222.2001 58.1129 206.2905 67.6247 204.8417 86.9129 196.5465 86.377 193.049 81.3982 192.3035 70.4203 210.2569 50.1892 Z"/>
<path d="M 370.641 461.1253 388.9808 467.8178 406.3316 455.1267 410.5589 468.2464 405.7148 474.7068 413.5146 493.1375 412.5242 501.7292 388.1071 509.5133 378.7014 496.4605 378.1684 483.44 370.641 461.1253 Z"/>
<path d="M 255.2991 152.5793 278.7216 125.1635 279.1007 125.3507 281.5325 127.6746 285.829 134.0912 286.5239 136.2381 264.4141 156.363 259.6931 160.1741 255.2991 152.5793 Z"/>
<path d="M 161.4255 49.4979 164.9675 45.1275 184.1822 37.3588 192.126 39.6898 211.4273 45.5579 210.2569 50.1892 192.3035 70.4203 180.4135 62.6963 168.2146 54.1485 161.4255 49.4979 Z"/>
<path d="M 168.2146 54.1485 180.4135 62.6963 171.3701 81.3302 171.5934 87.0687 153.6897 86.0635 158.8075 67.0311 168.2146 54.1485 Z"/>
<path d="M 543.3684 140.6186 558.0118 137.2796 561.5915 147.9137 552.5143 154.4653 543.3684 140.6186 Z"/>
<path d="M 531.741 405.4964 536.0718 402.2116 546.4694 411.3671 559.1306 410.332 564.8464 426.5527 541.592 434.6969 531.1348 430.406 537.0653 417.9305 531.741 405.4964 Z"/>
<path d="M 196.5465 86.377 204.8417 86.9129 204.2695 89.6198 213.4902 105.0531 215.2473 109.8941 198.1643 123.7309 193.4339 115.8199 192.894 101.0983 196.5465 86.377 Z"/>
<path d="M 166.483 256.5875 174.3615 243.8236 183.1918 249.836 171.0253 263.2023 178.4291 267.3317 179.751 271.4632 173.7276 276.2405 173.6928 294.936 162.8955 290.9148 153.9988 276.8908 153.0276 270.367 166.483 256.5875 Z"/>
<path d="M 310.2141 80.6916 322.1592 76.5157 323.4876 77.2533 323.0979 88.5601 307.2531 106.5137 300.6771 108.2188 297.0295 100.2645 310.2141 80.6916 Z"/>
<path d="M 490.2624 352.9264 494.8983 340.4771 498.9371 359.662 520.1115 367.2671 520.1051 367.2796 505.8069 382.9454 496.8375 373.3584 487.817 374.2108 490.2624 352.9264 Z"/>
<path d="M 210.2569 50.1892 211.4273 45.5579 214.7961 30.775 223.2457 38.4868 245.9863 41.8455 246.037 52.0279 231.2332 64.6373 222.2001 58.1129 210.2569 50.1892 Z"/>
<path d="M 263.3633 271.4959 266.7805 267.3745 270.5888 267.8521 298.2781 277.7065 304.1905 275.5083 305.8013 276.067 312.3932 280.6646 300.5248 298.6866 295.8155 300.3319 282.6675 301.5936 269.1841 309.4973 268.4353 304.8734 272.0639 289.0805 263.3633 271.4959 Z"/>
<path d="M 48.1699 286.4512 65.7207 286.982 68.2834 289.1897 77.9744 311.9701 75.6197 312.1248 72.1987 306.2186 53.1161 306.3271 53.5955 304.7624 48.1699 286.4512 Z"/>
<path d="M 508.9092 150.1214 505.7894 149.4045 516.5381 130.7318 527.5002 129.5569 534.4954 128.8038 542.9679 157.5062 549.2955 162.3493 544.2209 172.9172 536.9753 179.7041 528.4561 174.9895 517.0202 162.7638 508.9092 150.1214 Z"/>
<path d="M 465.3799 164.8671 484.8961 158.0593 495.5781 149.1345 505.7894 149.4045 508.9092 150.1214 504.8078 174.0757 477.8932 183.0673 465.3799 164.8671 Z"/>
<path d="M 326.2608 139.939 328.7954 146.4276 319.3534 154.3495 313.5245 156.8461 305.224 143.9211 304.6658 139.9094 311.3546 137.2132 326.2608 139.939 Z"/>
<path d="M 504.8691 97.356 506.6722 89.3522 507.646 95.2249 526.7575 104.3164 527.5002 129.5569 516.5381 130.7318 511.5918 116.5798 504.8691 97.356 Z"/>
<path d="M 443.8036 99.4358 445.9546 94.6339 460.3907 92.1233 470.7832 92.6848 469.9941 100.0197 466.4734 117.8072 455.8046 124.0726 447.7918 121.1492 443.8036 99.4358 Z"/>
<path d="M 120.08 382.0434 122.2604 371.4498 135.0363 369.9956 137.5892 381.1674 134.6537 402.0031 125.6269 400.5758 120.08 382.0434 Z"/>
<path d="M 33.8476 261.0267 34.8298 252.4104 52.9624 255.7056 51.9647 263.8013 33.8476 261.0267 Z"/>
<path d="M 224.9229 183.587 226.7004 182.9872 252.3456 192.8495 254.803 207.4734 239.3296 205.5735 232.8598 197.1168 224.9229 183.587 Z"/>
<path d="M 504.8078 174.0757 517.0202 162.7638 528.4561 174.9895 523.5166 195.0417 504.9689 192.7304 479.1083 184.5064 477.8932 183.0673 504.8078 174.0757 Z"/>
<path d="M 317.7796 347.2689 318.5032 340.5559 329.7586 340.1346 334.4491 329.838 361.444 329.641 359.2196 314.1107 372.9456 324.2824 404.9762 310.6113 416.7617 323.6447 415.7508 339.9895 424.3823 344.2216 423.6609 361.8703 401.8862 360.6807 404.9063 380.6039 391.8489 381.5125 378.0935 377.7783 343.7471 375.6249 349.4451 359.4437 347.5826 346.6936 336.4286 340.8657 317.7796 347.2689 Z"/>
<path d="M 219.8126 413.721 230.3361 409.4325 249.6692 416.6614 271.9978 418.4174 272.9089 430.1746 268.0277 438.0238 248.3856 439.1877 228.8526 426.4198 219.8126 413.721 Z"/>
<path d="M 137.5892 381.1674 135.0363 369.9956 137.628 367.7397 154.1633 361.3959 164.2176 375.1376 159.2638 384.7914 148.6492 387.4561 137.5892 381.1674 Z"/>
<path d="M 618.5517 324.4211 631.1873 332.4762 644.9093 345.423 639.6094 353.9318 616.0196 332.328 618.5517 324.4211 Z"/>
<path d="M 607.9803 258.7052 616.307 255.2365 624.0164 255.3016 626.4033 247.652 655.6729 233.2036 647.8825 248.1062 648.3696 261.347 661.1292 265.928 650.8042 275.9957 638.3064 269.4162 621.6788 267.7264 607.9803 258.7052 Z"/>
<path d="M 227.2257 125.4926 233.5831 126.9101 227.9755 141.9169 216.4026 152.9136 201.2805 153.726 193.8579 140.4868 191.4627 117.8878 193.4339 115.8199 198.1643 123.7309 217.7803 132.9762 227.2257 125.4926 Z"/>
<path d="M 88.4078 138.8515 104.391 139.7129 106.6771 142.7336 101.2896 153.7469 88.4078 138.8515 Z"/>
<path d="M 206.5847 336.8294 215.9352 336.1169 233.9597 336.2297 225.5216 358.4408 223.1553 363.4102 206.5847 336.8294 Z"/>
<path d="M 296.9536 100.3412 297.0295 100.2645 300.6771 108.2188 291.413 121.5444 281.5325 127.6746 279.1007 125.3507 285.1446 111.3854 296.9536 100.3412 Z"/>
<path d="M 263.4055 124.7952 269.6016 123.1017 278.7216 125.1635 255.2991 152.5793 252.1011 149.019 263.4055 124.7952 Z"/>
<path d="M 338.1377 105.6956 337.7231 97.6377 346.309 98.5639 347.2365 124.9973 339.0185 134.9063 326.2608 139.939 311.3546 137.2132 318.9265 125.6636 329.7387 115.9186 336.9189 120.0556 338.1377 105.6956 Z"/>
<path d="M 246.3416 298.2424 250.8369 306.8961 268.4353 304.8734 269.1841 309.4973 270.2507 318.2356 266.1302 343.0661 257.8515 341.8623 249.6939 355.0074 233.2559 361.5144 225.5216 358.4408 233.9597 336.2297 215.9352 336.1169 230.4328 328.6414 237.6132 314.5999 246.3416 298.2424 Z"/>
<path d="M 467.6101 349.3709 474.9279 346.0854 490.2624 352.9264 487.817 374.2108 475.8596 370.4618 467.506 376.1239 441.7498 374.7171 425.1523 363.9738 431.5483 363.9463 451.0137 350.4488 467.6101 349.3709 Z"/>
<path d="M 420.5666 81.4933 447.7984 70.4825 446.4267 75.5706 445.9546 94.6339 443.8036 99.4358 432.6059 98.7955 420.5666 81.4933 Z"/>
<path d="M 267.2364 28.3855 267.2473 9.7131 283.3546 11.8744 285.1555 24.3449 267.2364 28.3855 Z"/>
<path d="M 328.7954 146.4276 326.2608 139.939 339.0185 134.9063 343.9328 134.7688 356.2855 143.7662 347.5353 154.787 333.1703 156.3168 328.7954 146.4276 Z"/>
<path d="M 267.2364 28.3855 285.1555 24.3449 289.6736 34.9185 287.45 44.9128 285.775 46.8963 273.3937 48.8233 267.0626 45.2277 267.2364 28.3855 Z"/>
<path d="M 506.8165 89.3348 506.6205 83.0254 526.7593 89.2091 506.8165 89.3348 Z"/>
<path d="M 469.8032 322.0998 465.4287 336.1404 448.4064 320.6765 449.0495 311.5172 469.8032 322.0998 Z"/>
<path d="M 232.9177 83.348 251.8556 79.4184 251.8631 90.2718 248.6034 98.1318 240.6965 98.098 230.2216 95.5772 225.2865 93.7163 232.9177 83.348 Z"/>
<path d="M 467.506 376.1239 475.8596 370.4618 487.817 374.2108 496.8375 373.3584 505.8069 382.9454 503.9808 392.6261 490.3936 398.7122 467.506 376.1239 Z"/>
<path d="M 370.3578 195.3928 374.0138 191.487 385.9024 194.6762 395.806 197.4928 400.5518 199.4925 400.6352 210.7503 381.8691 216.9876 372.9753 199.2803 370.3578 195.3928 Z"/>
<path d="M 487.9485 59.2293 487.0239 68.7616 497.707 81.6719 507.0256 81.2692 506.6205 83.0254 506.8165 89.3348 506.6722 89.3522 504.8691 97.356 485.5109 99.7603 473.8342 88.1967 465.7368 74.2024 474.011 74.2956 487.9485 59.2293 Z"/>
<path d="M 166.483 256.5875 153.0276 270.367 153.9988 276.8908 140.3095 271.1735 143.8231 259.2571 160.4814 251.8141 166.483 256.5875 Z"/>
<path d="M 593.8809 346.7846 586.1457 335.6901 602.9396 322.8496 600.2075 306.1553 612.5542 300.9292 618.5517 324.4211 616.0196 332.328 639.6094 353.9318 640.7152 365.5205 629.3875 361.63 617.5251 369.7926 611.6379 357.9192 602.2079 359.7581 593.8809 346.7846 Z"/>
<path d="M 211.8871 242.6743 224.8689 240.6524 238.372 241.1375 245.8359 250.5728 232.6143 271.643 213.4743 272.9948 206.1662 273.4269 200.8001 266.4041 198.8918 262.1236 211.8871 242.6743 Z"/>
<path d="M 312.0268 24.2645 314.8014 17.8885 326.2367 32.0674 330.4402 37.3631 338.5157 36.5903 334.4096 52.1334 330.4787 51.2664 310.7831 42.3535 312.0268 24.2645 Z"/>
<path d="M 359.0627 68.0918 368.7849 73.4495 368.9541 92.1291 356.8682 103.7381 346.309 98.5639 337.7231 97.6377 335.0173 92.7455 351.7617 84.7133 359.0627 68.0918 Z"/>
<path d="M 443.9832 49.7372 448.0442 55.2222 447.7984 70.4825 420.5666 81.4933 420.5875 78.4649 420.6063 71.8893 420.6983 53.4161 443.9832 49.7372 Z"/>
<path d="M 400.6352 210.7503 400.5518 199.4925 429.4555 219.9541 424.4296 237.3931 412.2235 233.3625 417.3793 222.776 400.6352 210.7503 Z"/>
<path d="M 649.1507 418.4529 657.8735 428.9197 642.3889 441.997 640.5868 432.4773 642.385 419.2918 649.1507 418.4529 Z"/>
<path d="M 329.3105 63.4132 329.3723 74.2254 323.4876 77.2533 322.1592 76.5157 317.4459 66.8918 329.3105 63.4132 Z"/>
<path d="M 122.384 402.2889 125.9041 416.5362 110.8792 413.1272 122.384 402.2889 Z"/>
<path d="M 291.413 121.5444 306.6068 121.1263 306.6054 121.1397 285.829 134.0912 281.5325 127.6746 291.413 121.5444 Z"/>
<path d="M 171.5934 87.0687 171.3701 81.3302 184.9299 87.2837 193.049 81.3982 196.5465 86.377 192.894 101.0983 183.6039 99.6165 182.0571 115.1966 169.8124 113.0818 171.5934 87.0687 Z"/>
<path d="M 322.817 173.8067 326.3166 168.76 343.9133 170.2178 351.8668 172.525 357.6589 177.1241 337.4126 188.9386 328.9705 192.7406 322.817 173.8067 Z"/>
<path d="M 356.2855 143.7662 366.6289 141.7076 368.7795 143.8054 369.138 159.7489 364.3571 153.0453 347.5228 160.2656 347.5353 154.787 356.2855 143.7662 Z"/>
<path d="M 106.6771 142.7336 104.391 139.7129 115.7902 137.6073 136.2883 140.0818 140.2756 149.0295 130.6242 157.9035 120.5124 161.3802 106.6771 142.7336 Z"/>
<path d="M 730.3074 318.6391 740.9944 312.9215 758.7031 300.1862 782.7045 311.9865 786.8149 327.716 799 337.1539 782.9564 360.5625 771.221 363.0513 756.7523 350.8482 739.6151 352.0338 730.3074 318.6391 Z"/>
<path d="M 606.6516 124.4549 590.9346 132.4696 596.1421 144.977 593.1589 147.7915 585.4148 151.2899 575.9718 131.0464 582.3917 127.482 586.2666 125.9483 606.6516 124.4549 Z"/>
<path d="M 292.6657 395.3188 303.7955 397.5482 298.2323 404.6947 308.256 417.5209 307.5828 449.4931 295.7304 464.4213 280.1352 458.4327 291.5551 450.7564 281.4809 434.5815 272.9089 430.1746 271.9978 418.4174 286.6474 407.9591 292.6657 395.3188 Z"/>
<path d="M 318.408 10.269 314.8014 17.8885 312.0268 24.2645 298.7836 22.1413 296.4931 15.2023 300.2236 4.6429 318.408 10.269 Z"/>
<path d="M 552.3699 380.4686 565.7527 376.0969 587.4039 370.4634 612.888 377.0632 612.7669 395.3655 622.9544 401.5137 607.629 412.0634 589.5213 418.5973 572.124 427.4754 564.8464 426.5527 559.1306 410.332 546.4694 411.3671 536.0718 402.2116 552.3699 380.4686 Z"/>
<path d="M 203.1364 398.4993 214.9028 388.8421 213.8503 376.4824 222.6606 372.0864 222.8948 372.4588 223.1073 392.9758 232.6077 394.6649 230.3361 409.4325 219.8126 413.721 212.6239 408.7137 203.1364 398.4993 Z"/>
<path d="M 120.08 382.0434 125.6269 400.5758 123.2061 400.8841 112.0201 403.3764 93.0317 397.0539 92.162 387.2594 120.08 382.0434 Z"/>
<path d="M 352.562 44.0721 364.0551 43.8204 370.6508 46.7756 368.9783 56.2736 349.4925 60.8897 344.0657 58.1483 352.562 44.0721 Z"/>
<path d="M 387.7255 144.4101 388.8824 143.1474 404.512 145.1491 412.0833 134.0426 414.5356 129.4464 411.7972 147.6539 423.589 151.3797 419.5944 160.3471 407.7463 166.4057 389.5848 163.2386 397.5497 157.9622 387.7255 144.4101 Z"/>
<path d="M 448.0442 55.2222 459.2266 71.1115 453.3236 75.502 446.4267 75.5706 447.7984 70.4825 448.0442 55.2222 Z"/>
<path d="M 174.3615 243.8236 176.7951 228.3941 186.721 228.9135 199.3864 222.5287 210.3874 231.8853 211.8871 242.6743 198.8918 262.1236 190.8842 259.7375 185.8511 254.9213 183.1918 249.836 174.3615 243.8236 Z"/>
<path d="M 291.0007 201.8834 295.8217 186.5349 296.0349 186.4219 306.5852 186.1662 312.7463 195.1635 300.3428 204.1651 291.0007 201.8834 Z"/>
<path d="M 186.7071 314.4909 198.9924 315.211 200.0143 328.2026 183.9176 326.3948 186.7071 314.4909 Z"/>
<path d="M 308.6935 207.3334 319.7855 204.8564 324.0355 209.5478 324.553 210.2678 314.7266 230.7783 293.0211 243.04 284.8583 235.8781 298.3016 224.0063 289.2924 218.5321 308.6935 207.3334 Z"/>
<path d="M 180.4135 62.6963 192.3035 70.4203 193.049 81.3982 184.9299 87.2837 171.3701 81.3302 180.4135 62.6963 Z"/>
<path d="M 369.5136 163.0587 379.3818 162.5234 385.4124 165.3329 385.1684 165.7052 374.9642 181.9452 365.5915 183.1475 358.6932 180.265 357.6589 177.1241 351.8668 172.525 369.5136 163.0587 Z"/>
<path d="M 61.6846 231.3683 58.9154 227.813 77.8474 225.3464 85.0995 225.359 88.2566 237.3189 78.7089 242.1183 75.2581 239.4585 61.6846 231.3683 Z"/>
<path d="M 380.1324 99.4072 403.4483 104.4398 403.4496 104.4543 404.5352 124.5805 379.2382 117.68 369.0668 109.6881 380.1324 99.4072 Z"/>
<path d="M 206.1662 273.4269 213.4743 272.9948 227.3274 287.2978 221.4609 303.1347 230.4783 316.3219 237.6132 314.5999 230.4328 328.6414 215.9352 336.1169 206.5847 336.8294 192.345 342.9128 200.0143 328.2026 198.9924 315.211 201.9871 305.8764 198.9534 282.6814 206.1662 273.4269 Z"/>
<path d="M 639.4128 398.6331 641.2962 399.2844 633.3822 410.6168 642.385 419.2918 640.5868 432.4773 623.709 426.755 620.3357 418.8186 607.629 412.0634 622.9544 401.5137 639.4128 398.6331 Z"/>
<path d="M 404.3268 404.7032 420.4563 394.0007 445.9598 386.2525 446.8112 386.7472 436.582 401.5631 449.1325 417.8817 436.2512 425.4244 414.5144 430.4918 409.4003 437.5572 382.427 435.004 365.5678 425.6164 386.4045 419.2026 404.3268 404.7032 Z"/>
<path d="M 446.4267 75.5706 453.3236 75.502 460.3907 92.1233 445.9546 94.6339 446.4267 75.5706 Z"/>
<path d="M 640.7152 365.5205 642.4982 381.4232 643.0796 385.1404 641.2962 399.2844 639.4128 398.6331 627.6725 382.0756 614.801 376.1151 617.5251 369.7926 629.3875 361.63 640.7152 365.5205 Z"/>
<path d="M 305.6468 80.751 310.2141 80.6916 297.0295 100.2645 296.9536 100.3412 289.6618 95.9729 288.9845 90.3211 305.6468 80.751 Z"/>
<path d="M 311.7256 51.7809 310.7831 42.3535 330.4787 51.2664 329.3105 63.4132 317.4459 66.8918 315.5274 64.7527 314.3743 60.1482 311.7256 51.7809 Z"/>
<path d="M 172.4251 398.4075 178.0484 397.8167 186.5442 410.0937 184.6159 419.0071 167.8967 423.5674 173.268 413.3581 172.4251 398.4075 Z"/>
<path d="M 200.2291 18.0449 194.8923 8.2664 205.5476 4.2005 222.9381 8.6668 218.9089 21.8194 200.2291 18.0449 Z"/>
<path d="M 522.3438 51.0783 539.0498 51.6561 543.1789 66.9286 533.3844 69.8413 518.6911 64.7371 522.3438 51.0783 Z"/>
<path d="M 336.5675 12.2993 353.4401 16.8742 352.592 20.8015 343.3842 36.7303 338.5157 36.5903 330.4402 37.3631 336.5675 12.2993 Z"/>
<path d="M 151.5858 427.6514 136.205 431.7098 132.5617 431.7738 130.2803 421.5894 151.5858 427.6514 Z"/>
<path d="M 53.0346 179.8927 61.682 183.084 53.1573 187.4951 52.6972 226.2856 41.3252 225.6633 34.179 210.769 32.3942 195.0064 53.0346 179.8927 Z"/>
<path d="M 368.7795 143.8054 382.5476 143.18 383.2644 146.3167 379.3818 162.5234 369.5136 163.0587 369.138 159.7489 368.7795 143.8054 Z"/>
<path d="M 612.888 377.0632 614.801 376.1151 627.6725 382.0756 639.4128 398.6331 622.9544 401.5137 612.7669 395.3655 612.888 377.0632 Z"/>
<path d="M 96.8823 299.7254 106.5338 302.5365 119.8057 312.4371 116.0395 320.5494 115.7658 346.1781 112.7505 364.4682 97.3745 368.7831 96.3788 352.461 100.8615 342.6741 85.1629 335.5958 79.3856 315.2294 96.5828 314.4379 96.8823 299.7254 Z"/>
<path d="M 222.8948 372.4588 235.9389 382.9569 237.7084 395.5661 232.6077 394.6649 223.1073 392.9758 222.8948 372.4588 Z"/>
<path d="M 213.4743 272.9948 232.6143 271.643 252.5915 274.3689 253.0555 282.9899 238.5125 293.9308 227.3274 287.2978 213.4743 272.9948 Z"/>
<path d="M 186.1996 345.9458 192.345 342.9128 206.5847 336.8294 223.1553 363.4102 222.6606 372.0864 213.8503 376.4824 196.2281 368.108 187.8785 372.034 178.7287 365.5513 186.1996 345.9458 Z"/>
<path d="M 469.8032 322.0998 478.2944 307.2826 506.5102 323.4546 509.0691 328.9445 497.4672 328.9078 494.8983 340.4771 490.2624 352.9264 474.9279 346.0854 467.6101 349.3709 465.4287 336.1404 469.8032 322.0998 Z"/>
<path d="M 318.408 10.269 300.2236 4.6429 315.4207 1 318.408 10.269 Z"/>
<path d="M 305.8013 276.067 327.8325 272.3094 345.8019 287.6067 348.6241 300.3986 360.6854 304.2494 346.7354 305.4893 331.7939 304.5416 321.5352 305.2246 300.5248 298.6866 312.3932 280.6646 305.8013 276.067 Z"/>
<path d="M 41.3252 225.6633 52.6972 226.2856 58.9154 227.813 61.6846 231.3683 48.628 241.1963 37.389 232.3188 41.3252 225.6633 Z"/>
<path d="M 631.1873 332.4762 647.0037 331.1947 655.8658 331.3856 658.4963 345.4913 644.9093 345.423 631.1873 332.4762 Z"/>
<path d="M 198.9314 398.4058 203.1364 398.4993 212.6239 408.7137 206.359 418.1114 184.6159 419.0071 186.5442 410.0937 198.9314 398.4058 Z"/>
<path d="M 655.8658 331.3856 659.4061 330.8402 675.1075 336.3095 671.433 348.0175 671.9119 348.9753 662.8982 350.4348 658.4963 345.4913 655.8658 331.3856 Z"/>
<path d="M 172.4215 371.6538 178.7287 365.5513 187.8785 372.034 188.4817 378.1726 175.5876 382.9986 172.4215 371.6538 Z"/>
<path d="M 658.4963 345.4913 662.8982 350.4348 663.9106 360.3756 653.3992 377.6291 642.4982 381.4232 640.7152 365.5205 639.6094 353.9318 644.9093 345.423 658.4963 345.4913 Z"/>
<path d="M 254.7619 474.1414 253.5498 454.0495 253.3761 446.1574 264.9528 455.321 280.1352 458.4327 295.7304 464.4213 297.3319 467.1901 299.4368 482.3084 254.7619 474.1414 Z"/>
<path d="M 186.1381 292.717 200.8001 266.4041 206.1662 273.4269 198.9534 282.6814 201.9871 305.8764 198.9924 315.211 186.7071 314.4909 183.9522 314.3276 186.1381 292.717 Z"/>
<path d="M 423.6609 361.8703 425.1523 363.9738 441.7498 374.7171 445.9598 386.2525 420.4563 394.0007 404.3268 404.7032 391.8489 381.5125 404.9063 380.6039 401.8862 360.6807 423.6609 361.8703 Z"/>
<path d="M 74.8234 374.4268 83.9831 374.0398 97.3745 368.7831 112.7505 364.4682 122.2604 371.4498 120.08 382.0434 92.162 387.2594 74.8234 374.4268 Z"/>
<path d="M 380.1324 99.4072 369.0668 109.6881 364.7398 109.6998 356.8682 103.7381 368.9541 92.1291 375.5056 89.7106 380.1324 99.4072 Z"/>
<path d="M 308.818 319.3957 295.8155 300.3319 300.5248 298.6866 321.5352 305.2246 331.7939 304.5416 334.4491 329.838 329.7586 340.1346 318.5032 340.5559 308.818 319.3957 Z"/>
<path d="M 662.8982 350.4348 671.9119 348.9753 673.8713 350.9111 665.0932 359.2907 663.9106 360.3756 662.8982 350.4348 Z"/>
<path d="M 287.45 44.9128 289.6736 34.9185 298.7836 22.1413 312.0268 24.2645 310.7831 42.3535 311.7256 51.7809 299.0254 51.8196 287.45 44.9128 Z"/>
<path d="M 174.7718 144.6558 181.6803 119.1226 191.4627 117.8878 193.8579 140.4868 201.2805 153.726 193.084 163.3152 200.7636 175.7141 183.1823 171.2637 170.9063 170.243 169.0642 159.648 174.7718 144.6558 Z"/>
<path d="M 366.5195 116.732 364.7398 109.6998 369.0668 109.6881 379.2382 117.68 404.5352 124.5805 414.5356 129.4464 412.0833 134.0426 393.8597 134.4759 388.8824 143.1474 387.7255 144.4101 383.2644 146.3167 382.5476 143.18 366.5195 116.732 Z"/>
<path d="M 78.824 194.7683 85.8262 201.9035 102.4706 199.6136 111.449 204.807 108.6322 237.3165 108.7017 225.311 85.0995 225.359 77.8474 225.3464 78.824 194.7683 Z"/>
<path d="M 663.9106 360.3756 665.0932 359.2907 677.9097 368.7394 690.2713 366.6506 689.8713 391.6375 691.18 404.4367 668.5903 394.8249 661.1431 403.728 656.5199 395.0132 653.3992 377.6291 663.9106 360.3756 Z"/>
<path d="M 226.9705 70.8176 231.2332 64.6373 246.037 52.0279 245.9863 41.8455 252.975 10.3748 267.2473 9.7131 267.2364 28.3855 267.0626 45.2277 273.3937 48.8233 275.131 65.1971 267.3032 74.7333 251.8588 73.4908 239.2261 71.7739 226.9705 70.8176 Z"/>
<path d="M 376.2763 48.9869 382.5221 47.2925 385.5921 54.6898 381.1532 65.6219 376.2763 48.9869 Z"/>
<path d="M 620.4427 433.7867 620.3357 418.8186 623.709 426.755 640.5868 432.4773 642.3889 441.997 627.0462 447.8577 620.4427 433.7867 Z"/>
<path d="M 536.9753 179.7041 544.2209 172.9172 558.8751 178.7481 567.337 168.0215 573.4183 160.8692 589.4106 180.4851 593.5321 190.324 590.2106 208.859 575.0082 203.7514 565.7484 210.0976 541.3591 215.6354 541.4007 201.1916 552.1895 194.6863 536.9753 179.7041 Z"/>
<path d="M 200.2291 18.0449 218.9089 21.8194 214.7961 30.775 202.4698 29.3681 200.2291 18.0449 Z"/>
<path d="M 382.1068 32.6943 402.5172 36.6214 402.7619 47.1074 399.2852 52.7457 385.5921 54.6898 382.5221 47.2925 382.1068 32.6943 Z"/>
<path d="M 447.7918 121.1492 455.8046 124.0726 460.1105 130.8456 483.3888 133.7526 492.8393 144.7134 495.5781 149.1345 484.8961 158.0593 465.3799 164.8671 453.8408 154.9573 454.4484 148.5953 447.7918 121.1492 Z"/>
<path d="M 119.7138 286.769 130.4937 271.5495 140.3095 271.1735 153.9988 276.8908 162.8955 290.9148 173.6928 294.936 186.1381 292.717 183.9522 314.3276 169.1672 319.2825 157.6715 347.992 155.6464 347.7299 138.096 345.505 138.06 345.4562 141.9616 330.1564 131.6346 323.3177 128.8345 296.363 119.7138 286.769 Z"/>
<path d="M 265.6507 364.5162 282.3064 361.916 285.2185 373.2785 270.4452 388.4222 253.853 381.7675 265.6507 364.5162 Z"/>
<path d="M 616.1498 297.6136 625.4777 290.9786 657.183 311.7448 675.1033 311.6767 659.4061 330.8402 655.8658 331.3856 647.0037 331.1947 629.8205 322.8904 625.16 304.0706 616.1498 297.6136 Z"/>
<path d="M 698.0912 343.4062 691.1653 357.1025 673.8713 350.9111 671.9119 348.9753 671.433 348.0175 691.0319 339.7042 698.0912 343.4062 Z"/>
<path d="M 424.4296 237.3931 429.4555 219.9541 455.5841 230.4639 475.7989 248.639 469.7725 266.9358 456.6808 281.9868 441.2487 285.7693 433.274 280.0288 431.7227 258.9919 421.9492 249.6614 424.4296 237.3931 Z"/>
<path d="M 319.3534 154.3495 328.7954 146.4276 333.1703 156.3168 347.5353 154.787 347.5228 160.2656 343.9133 170.2178 326.3166 168.76 319.3534 154.3495 Z"/>
<path d="M 106.6771 142.7336 120.5124 161.3802 112.9244 169.111 105.7613 173.9918 102.0793 157.6727 101.2896 153.7469 106.6771 142.7336 Z"/>
<path d="M 546.8074 117.4661 543.0792 106.146 563.5142 112.0115 563.5448 122.858 559.332 124.6973 553.8951 123.2757 546.8074 117.4661 Z"/>
<path d="M 148.6492 387.4561 159.2638 384.7914 164.4844 388.3678 178.0484 397.8167 172.4251 398.4075 167.0943 406.6072 152.8017 410.1795 148.6492 387.4561 Z"/>
<path d="M 102.8928 101.4887 108.6949 92.1781 128.0061 83.9201 139.6269 99.633 140.586 115.3322 131.1238 123.1195 114.9402 113.2855 102.8928 101.4887 Z"/>
<path d="M 264.5975 216.5501 255.6055 236.3506 256.5536 244.1174 238.372 241.1375 224.8689 240.6524 232.9063 216.6363 239.3296 205.5735 254.803 207.4734 264.5975 216.5501 Z"/>
<path d="M 466.4734 117.8072 479.8241 126.6011 479.8049 126.6044 460.1105 130.8456 455.8046 124.0726 466.4734 117.8072 Z"/>
<path d="M 116.4762 450.5111 138.2527 449.5662 143.8455 459.6304 135.5473 462.2763 116.4762 450.5111 Z"/>
<path d="M 199.3864 222.5287 212.334 218.7873 232.9063 216.6363 224.8689 240.6524 211.8871 242.6743 210.3874 231.8853 199.3864 222.5287 Z"/>
<path d="M 364.1913 15.5053 362.9785 36.7588 352.592 20.8015 353.4401 16.8742 364.1913 15.5053 Z"/>
<path d="M 106.5338 302.5365 112.4289 295.2063 119.7138 286.769 128.8345 296.363 131.6346 323.3177 116.0395 320.5494 119.8057 312.4371 106.5338 302.5365 Z"/>
<path d="M 485.8738 108.7834 485.5109 99.7603 504.8691 97.356 511.5918 116.5798 490.5293 118.015 486.8709 113.2552 485.8738 108.7834 Z"/>
<path d="M 111.449 204.807 114.6169 205.6143 128.2162 211.6994 137.3497 206.7519 138.9463 207.1269 139.7897 214.9578 141.8761 246.1326 142.3584 249.5535 128.7507 243.7707 123.2737 264.5291 108.6309 250.5076 108.6322 237.3165 111.449 204.807 Z"/>
<path d="M 533.3844 69.8413 543.1789 66.9286 556.3456 68.871 547.5921 75.1966 534.5475 74.0486 533.3844 69.8413 Z"/>
<path d="M 140.2094 177.556 153.0493 177.3767 156.9803 191.2435 156.996 204.3337 138.9463 207.1269 137.3497 206.7519 142.8448 193.7487 132.691 186.1935 140.2094 177.556 Z"/>
<path d="M 78.7089 242.1183 88.2566 237.3189 108.6309 250.5076 123.2737 264.5291 130.4937 271.5495 119.7138 286.769 112.4289 295.2063 92.2447 287.4327 97.2689 274.3354 83.0235 267.9664 70.1523 270.8132 73.1128 260.7261 83.8509 250.558 78.7089 242.1183 Z"/>
<path d="M 136.205 431.7098 151.5858 427.6514 152.0863 427.1111 164.1764 436.8896 164.6179 448.9826 159.6465 448.6312 150.6529 438.463 136.205 431.7098 Z"/>
<path d="M 369.138 159.7489 369.5136 163.0587 351.8668 172.525 343.9133 170.2178 347.5228 160.2656 364.3571 153.0453 369.138 159.7489 Z"/>
<path d="M 346.309 98.5639 356.8682 103.7381 364.7398 109.6998 366.5195 116.732 364.8102 124.8892 343.9328 134.7688 339.0185 134.9063 347.2365 124.9973 346.309 98.5639 Z"/>
</g>
</svg>