<?xml version="1.0"?>
<svg xmlns="http://www.w3.org/2000/svg" version="1.2" baseProfile="tiny" width="800" height="530" viewBox="0 0 800 530" stroke-linecap="round" stroke-linejoin="round">
<g id="33MUE250GC_SIR">
<path d="M 314.2079 252.7241 323.234 256.2257 332.8674 254.3958 343.581 259.5661 350.1706 256.3885 358.0737 259.0706 340.9029 266.3681 332.0503 272.9395 329.1122 267.4376 314.3394 263.3377 314.2079 252.7241 Z"/>
<path d="M 318.5332 308.5504 325.9901 327.2329 311.3115 337.1529 309.4223 343.6742 295.8885 348.314 294.6949 341.9342 284.8177 337.2354 285.5529 327.73 282.3452 315.1411 318.5332 308.5504 Z"/>
<path d="M 453.6451 426.3705 456.6526 425.5353 459.8221 421.1822 471.999 415.2025 486.2418 420.5861 496.9173 419.0083 512.5266 421.5759 509.1348 433.692 510.1504 441.9381 470.1249 441.3502 457.4471 442.3142 449.784 433.9082 453.6451 426.3705 Z"/>
<path d="M 358.0737 259.0706 353.4866 267.0752 369.2653 270.8141 384.1507 258.6272 381.2965 269.3906 390.7738 269.9096 393.7419 280.1559 380.3844 284.8133 374.9038 294.3146 373.4337 285.521 362.9869 292.2918 352.1898 291.1182 343.8413 287.9671 332.0503 272.9395 340.9029 266.3681 358.0737 259.0706 Z"/>
<path d="M 575.8476 137.0018 585.8201 135.871 588.0306 148.1789 576.5161 155.7932 576.8132 159.7642 566.2595 171.1609 563.3062 171.0539 546.431 179.5762 550.1929 187.2877 539.3465 190.5994 533.497 193.9879 532.1555 186.5632 526.3786 181.9054 518.672 182.9853 512.7804 174.4856 529.6491 156.1516 535.3667 146.8579 528.3245 142.166 531.7252 135.7164 546.5624 144.0705 562.4295 145.1257 575.8476 137.0018 Z"/>
<path d="M 576.0941 178.2215 585.6338 178.875 600.4809 170.0865 600.3626 199.4271 588.5061 198.6662 574.9975 211.3113 569.6835 211.6886 553.6979 223.3779 545.7292 208.0345 539.3465 190.5994 550.1929 187.2877 559.627 192.0215 576.0941 178.2215 Z"/>
<path d="M 624.992 115.4227 632.0641 130.2399 646.5248 141.5706 639.8721 143.1966 625.007 148.5529 619.3477 156.727 600.4809 170.0865 585.6338 178.875 576.0941 178.2215 569.169 176.6601 563.3062 171.0539 566.2595 171.1609 576.8132 159.7642 576.5161 155.7932 588.0306 148.1789 597.7416 136.695 607.1615 130.3428 617.14 118.9318 624.992 115.4227 Z"/>
<path d="M 574.7402 337.7983 582.8064 330.7268 595.0228 330.7517 606.5371 333.1781 612.2712 336.8437 624.6316 336.6326 610.0542 350.6593 601.2936 361.0952 591.8685 366.1597 589.4113 353.9476 583.7946 349.3703 583.8787 339.2109 574.7402 337.7983 Z"/>
<path d="M 435.9234 391.3511 443.7047 398.8397 450.4908 409.0791 448.9436 413.3253 456.6526 425.5353 453.6451 426.3705 438.6959 422.6681 428.5969 409.3663 435.9234 391.3511 Z"/>
<path d="M 310.4169 391.0671 319.6724 395.9937 317.7425 405.4357 303.9661 409.84 301.2043 407.906 296.4655 399.0685 298.3904 394.9042 310.4169 391.0671 Z"/>
<path d="M 496.9173 419.0083 497.9383 400.2396 502.3524 401.4841 520.2428 394.9556 523.7897 383.5263 531.7148 374.9238 537.4843 376.3876 549.6842 364.745 550.5844 364.1771 560.8569 384.6168 553.7501 390.1111 543.2936 408.3461 536.0885 412.7618 539.5103 427.2884 530.2524 434.7233 530.5376 442.7064 510.1504 441.9381 509.1348 433.692 512.5266 421.5759 496.9173 419.0083 Z"/>
<path d="M 347.7148 313.1035 355.0536 313.684 363.0082 309.1237 365.5551 301.1528 374.9038 294.3146 384.9771 297.8195 388.5375 305.7039 377.211 314.5693 379.9606 324.2066 378.7441 345.6109 371.9571 350.357 368.6125 356.0879 338.9151 366.3981 331.6684 364.7177 336.1717 355.8178 324.426 348.5474 309.4223 343.6742 311.3115 337.1529 325.9901 327.2329 334.2586 315.2013 347.7148 313.1035 Z"/>
<path d="M 180.4185 334.6132 167.0534 345.3428 175.3516 352.8972 173.8042 363.3445 167.6514 372.2428 164.0419 382.0234 161.9277 373.0848 163.272 359.6415 153.9731 361.1753 149.8874 356.8647 152.726 340.3471 163.5345 334.4482 180.4185 334.6132 Z"/>
<path d="M 147.9388 388.694 151.6874 384.495 164.0419 382.0234 178.111 381.9917 190.2059 390.419 194.5234 396.3037 206.0858 396.9739 201.8312 404.701 207.1911 416.2426 193.955 430.8737 188.6964 431.9217 183.5539 423.286 172.448 431.2655 163.6018 431.3717 158.8362 427.5039 142.4614 440.5633 132.5144 437.3275 133.3082 429.014 128.5945 424.053 116.9872 423.545 127.2317 420.281 132.7987 412.6398 129.2659 407.6806 135.4655 400.9357 146.2642 394.5135 147.9388 388.694 Z"/>
<path d="M 494.2965 208.258 498.1803 216.9835 494.7269 227.3981 484.2891 233.1788 478.3666 234.9407 473.873 251.8358 447.3397 245.7312 452.9285 234.7958 452.5476 226.2256 494.2965 208.258 Z"/>
<path d="M 393.3687 434.8574 407.7565 428.121 412.7322 429.948 431.8488 423.0526 438.6959 422.6681 453.6451 426.3705 449.784 433.9082 457.4471 442.3142 439.937 446.0995 381.8078 450.2813 393.3687 434.8574 Z"/>
<path d="M 536.0885 412.7618 545.1794 411.3915 551.7685 419.9914 544.6601 430.1716 539.5103 427.2884 536.0885 412.7618 Z"/>
<path d="M 222.9783 438.1596 243.0071 427.5327 247.5942 427.5465 247.8594 427.3928 263.5227 426.1177 265.1205 422.2452 285.1 417.5392 289.3321 422.594 297.0485 422.3621 305.3033 417.1951 317.4127 414.9304 329.2441 415.073 341.7914 434.2067 347.8263 433.7639 354.1031 444.9869 334.7244 455.2077 323.1113 458.3135 299.3654 458.5788 284.5439 462.1672 273.1473 467.3221 257.1379 456.336 244.294 452.8198 222.9783 438.1596 Z"/>
<path d="M 338.9151 366.3981 345.1328 378.3886 340.4083 384.5403 341.0363 399.7183 328.282 410.325 329.2441 415.073 317.4127 414.9304 317.7425 405.4357 319.6724 395.9937 310.4169 391.0671 303.0837 384.3689 307.0559 379.839 299.9902 372.8666 305.9538 368.72 303.0958 360.2608 317.4319 357.1663 324.426 348.5474 336.1717 355.8178 331.6684 364.7177 338.9151 366.3981 Z"/>
<path d="M 538.2918 246.4534 543.0802 253.9218 532.8188 265.9052 532.9516 270.0781 526.1434 268.308 523.0705 251.3134 526.8361 246.7411 538.2918 246.4534 Z"/>
<path d="M 536.647 314.2573 552.8259 297.6693 568.7711 292.7962 569.6962 286.4065 582.1204 283.9423 593.3724 278.711 604.1517 285.116 604.3815 294.9538 610.6462 306.56 616.1127 306.6964 620.1118 292.3653 634.1076 288.6856 647.3917 304.272 650.7571 312.8769 633.6245 325.8762 633.4332 331.3602 624.6316 336.6326 612.2712 336.8437 606.5371 333.1781 595.0228 330.7517 582.8064 330.7268 574.7402 337.7983 562.5172 334.2937 554.4775 338.8631 546.832 339.374 543.1144 334.3201 545.948 326.9065 536.647 314.2573 Z"/>
<path d="M 605.5397 34.4894 609.5831 43.6085 623.672 39.4235 628.0332 46.3068 617.9814 61.5002 620.2966 65.4961 608.0075 76.4393 599.1868 79.8124 592.739 75.3758 580.3156 71.8771 583.7713 65.791 576.7552 56.8141 571.3791 55.0596 570.4171 53.5919 587.2556 51.2441 587.8751 42.0043 596.8278 40.2685 605.5397 34.4894 Z"/>
<path d="M 248.8811 269.4475 258.4706 268.8681 264.3391 263.3825 269.6709 269.7227 277.8685 266.7222 290.2861 266.7334 295.8748 264.136 303.3018 295.8765 298.0062 299.8867 291.6588 295.8821 278.0906 307.9972 270.6194 305.6961 265.073 310.4956 261.0061 297.5741 250.8999 292.0209 249.3252 286.9299 250.7814 273.1691 248.8811 269.4475 Z"/>
<path d="M 284.8177 337.2354 294.6949 341.9342 295.8885 348.314 309.4223 343.6742 324.426 348.5474 317.4319 357.1663 303.0958 360.2608 294.089 358.7597 283.4237 364.5223 265.7121 370.3546 256.9261 379.0048 258.1637 382.3545 250.4795 377.7713 263.2971 367.2997 270.5302 353.4903 275.0217 343.5443 284.8177 337.2354 Z"/>
<path d="M 249.0134 465.7692 210.1899 469.7661 209.0677 464.1876 220.8839 467.4487 231.5123 467.1292 249.2487 463.6401 249.0134 465.7692 Z M 193.955 430.8737 207.1911 416.2426 215.4661 413.1385 215.5636 400.1135 225.1985 392.6004 231.7212 394.1067 227.6295 408.0767 221.6857 415.0185 229.0935 420.2846 247.5942 427.5465 243.0071 427.5327 222.9783 438.1596 215.6671 441.0255 205.7982 437.8959 204.7825 431.7663 193.955 430.8737 Z"/>
<path d="M 439.9095 324.1551 448.8116 331.7719 458.8139 331.8174 468.9405 324.0965 475.5048 328.7491 475.8506 344.4948 465.1326 361.7438 473.0094 377.8681 460.2272 385.3207 452.0072 381.2401 435.9234 391.3511 427.3125 380.8172 416.0329 381.128 403.5091 385.0037 403.4557 374.0242 411.8917 368.0207 407.8206 363.2735 400.2379 347.2846 401.211 343.5308 407.9248 344.0227 414.8675 336.4897 431.8718 329.9777 439.9095 324.1551 Z"/>
<path d="M 248.4072 384.5249 250.4795 377.7713 258.1637 382.3545 269.2674 378.5959 271.8263 389.9721 260.7382 392.5933 254.9192 398.2197 248.4072 384.5249 Z"/>
<path d="M 671.8819 113.3643 678.7885 136.0367 670.2061 144.1072 657.2735 146.2077 663.3786 169.8761 652.7153 153.7439 639.8721 143.1966 646.5248 141.5706 632.0641 130.2399 655.0501 119.1355 663.6691 117.9732 671.8819 113.3643 Z"/>
<path d="M 547.9797 81.4622 554.4017 69.3664 559.2721 69.8154 571.3791 55.0596 576.7552 56.8141 583.7713 65.791 580.3156 71.8771 592.739 75.3758 599.1868 79.8124 608.0075 76.4393 620.2966 65.4961 628.4 74.1607 627.7904 78.1872 642.5597 83.1097 651.4552 99.5179 660.3313 98.6617 671.8819 113.3643 663.6691 117.9732 655.0501 119.1355 632.0641 130.2399 624.992 115.4227 616.2511 110.4767 604.3389 108.855 601.7432 112.1093 590.6759 112.4563 580.6024 118.6409 568.7544 118.9278 572.1103 114.9102 572.1525 105.6362 580.493 97.3089 578.055 85.9263 571.3435 84.9231 563.2184 88.6208 557.0154 81.6754 547.9797 81.4622 Z"/>
<path d="M 633.2879 8.2905 640.4554 11.8708 640.1279 23.0544 631.668 29.2232 625.6171 37.6166 628.0332 46.3068 623.672 39.4235 609.5831 43.6085 605.5397 34.4894 608.0485 19.6539 622.256 17.3918 633.2879 8.2905 Z"/>
<path d="M 442.6702 305.9963 451.9106 296.6847 474.4444 285.1866 481.6284 284.4354 491.3732 297.5029 514.8191 313.2136 529.2551 311.2801 536.647 314.2573 545.948 326.9065 538.9215 325.3522 531.2824 333.5264 523.6978 338.1629 509.0664 337.6074 489.8975 341.6161 483.7009 340.2505 475.8506 344.4948 475.5048 328.7491 468.9405 324.0965 458.8139 331.8174 448.8116 331.7719 439.9095 324.1551 442.6702 305.9963 Z"/>
<path d="M 51.8904 437.5664 55.3611 442.4927 67.0063 445.8836 71.0102 451.1201 70.5157 458.1541 75.766 460.5376 61.1791 464.4411 50.5476 464.4992 42.5851 469.5494 39.6621 479.5995 39.7818 490.4259 35.1433 495.9743 40.4854 502.2301 62.31 502.1375 63.7747 509.9841 74.5247 510.3753 61.5964 528.5427 51.7324 522.2228 39.1999 524.0776 32.1793 529.2339 23.6529 523.5717 21.6892 515.7258 1 501.0033 3.9587 492.4968 14.1779 488.0277 16.9798 478.3143 15.3093 473.5657 20.7803 451.3165 26.274 451.6084 30.6064 444.2361 51.8904 437.5664 Z"/>
<path d="M 542.1088 117.5123 547.7451 112.8961 558.561 111.0791 568.7544 118.9278 580.6024 118.6409 581.8865 125.666 575.8476 137.0018 562.4295 145.1257 546.5624 144.0705 531.7252 135.7164 540.9332 123.3357 542.1088 117.5123 Z"/>
<path d="M 352.1898 291.1182 362.9869 292.2918 373.4337 285.521 374.9038 294.3146 365.5551 301.1528 363.0082 309.1237 355.0536 313.684 347.7148 313.1035 352.1898 291.1182 Z"/>
<path d="M 452.5476 226.2256 452.9285 234.7958 447.3397 245.7312 446.0918 252.1593 438.6821 261.844 438.55 271.1304 434.2299 275.9673 426.4703 276.7619 414.5734 284.9198 412.1044 277.6636 390.7738 269.9096 381.2965 269.3906 384.1507 258.6272 403.055 250.0327 408.6748 243.6898 427.6865 237.6603 452.5476 226.2256 Z"/>
<path d="M 620.2966 65.4961 617.9814 61.5002 628.0332 46.3068 625.6171 37.6166 631.668 29.2232 640.1279 23.0544 644.058 32.6955 646.5056 47.0516 645.2557 58.4282 641.25 69.7553 655.8727 74.2556 657.7572 77.6793 671.0674 79.3021 673.1912 83.3494 695.3208 90.0984 689.9305 98.6719 671.8819 113.3643 660.3313 98.6617 651.4552 99.5179 642.5597 83.1097 627.7904 78.1872 628.4 74.1607 620.2966 65.4961 Z"/>
<path d="M 600.4809 170.0865 619.3477 156.727 625.007 148.5529 639.8721 143.1966 652.7153 153.7439 663.3786 169.8761 680.7419 162.7901 681.4116 175.1853 670.5373 183.5102 661.4722 184.8049 649.3564 193.9759 647.4877 200.9501 638.3441 209.2607 628.7579 210.5218 610.398 224.0242 611.213 226.0415 600.5241 226.0345 593.5016 211.9889 600.3626 199.4271 600.4809 170.0865 Z"/>
<path d="M 531.2824 333.5264 538.9215 325.3522 545.948 326.9065 543.1144 334.3201 546.832 339.374 554.4775 338.8631 562.5172 334.2937 574.7402 337.7983 583.8787 339.2109 583.7946 349.3703 589.4113 353.9476 591.8685 366.1597 589.3726 373.3957 585.6623 368.2695 575.4475 365.7129 563.1899 365.4492 560.4611 362.0812 550.5844 364.1771 549.6842 364.745 544.5863 361.3986 536.822 362.9029 532.6537 350.551 525.8777 344.9263 531.2824 333.5264 Z"/>
<path d="M 678.7885 136.0367 699.4172 129.8513 706.6437 137.7246 706.9782 143.4337 713.0672 148.403 717.5583 159.4101 691.1889 185.9521 681.4116 175.1853 680.7419 162.7901 663.3786 169.8761 657.2735 146.2077 670.2061 144.1072 678.7885 136.0367 Z"/>
<path d="M 403.5091 385.0037 416.0329 381.128 427.3125 380.8172 435.9234 391.3511 428.5969 409.3663 438.6959 422.6681 431.8488 423.0526 412.7322 429.948 407.7565 428.121 403.6594 417.8191 396.6667 409.5955 386.9542 404.178 379.1943 402.8345 379.3363 399.3849 389.6477 400.5033 395.6991 396.0838 403.5091 385.0037 Z"/>
<path d="M 484.2891 233.1788 494.7269 227.3981 498.1803 216.9835 494.2965 208.258 515.0049 199.3841 519.9316 200.3583 533.497 193.9879 539.3465 190.5994 545.7292 208.0345 553.6979 223.3779 545.5461 227.0204 538.2918 246.4534 526.8361 246.7411 523.0705 251.3134 509.6305 251.7989 503.4431 259.5945 484.2891 233.1788 Z"/>
<path d="M 633.2879 8.2905 622.256 17.3918 608.0485 19.6539 605.5397 34.4894 596.8278 40.2685 587.8751 42.0043 587.2556 51.2441 570.4171 53.5919 559.0115 47.4955 559.61 40.8126 579.8118 34.1956 591.9907 35.6998 595.708 25.1733 606.9152 7.7834 617.6865 1 624.7981 8.5752 633.2879 8.2905 Z"/>
<path d="M 516.9533 273.8637 527.935 275.2158 529.5515 292.7353 539.1679 299.4591 529.2551 311.2801 514.8191 313.2136 491.3732 297.5029 481.6284 284.4354 493.1542 278.4866 516.9533 273.8637 Z"/>
<path d="M 473.0094 377.8681 465.1326 361.7438 475.8506 344.4948 483.7009 340.2505 489.8975 341.6161 509.0664 337.6074 523.6978 338.1629 531.2824 333.5264 525.8777 344.9263 532.6537 350.551 536.822 362.9029 544.5863 361.3986 549.6842 364.745 537.4843 376.3876 531.7148 374.9238 523.7897 383.5263 520.2428 394.9556 502.3524 401.4841 497.9383 400.2396 480.0637 397.6609 480.433 380.2165 473.0094 377.8681 Z"/>
<path d="M 310.4169 391.0671 298.3904 394.9042 296.4655 399.0685 301.2043 407.906 296.8357 407.481 285.1 417.5392 265.1205 422.2452 263.5227 426.1177 247.8594 427.3928 258.0864 419.7849 255.7134 411.0007 259.9622 404.0981 275.935 404.517 271.8263 389.9721 269.2674 378.5959 258.1637 382.3545 256.9261 379.0048 265.7121 370.3546 283.4237 364.5223 294.089 358.7597 303.0958 360.2608 305.9538 368.72 299.9902 372.8666 307.0559 379.839 303.0837 384.3689 310.4169 391.0671 Z"/>
<path d="M 595.5881 267.6715 593.3724 278.711 582.1204 283.9423 569.6962 286.4065 568.7711 292.7962 552.8259 297.6693 536.647 314.2573 529.2551 311.2801 539.1679 299.4591 529.5515 292.7353 527.935 275.2158 532.9516 270.0781 532.8188 265.9052 543.0802 253.9218 556.2045 254.1887 559.9548 257.0262 566.7967 261.5306 577.1338 264.0706 587.9526 263.7037 595.5881 267.6715 Z"/>
<path d="M 71.164 319.4354 93.607 303.0052 117.1697 304.6504 122.3772 301.3104 128.802 306.3827 126.211 316.9852 116.4677 320.1313 112.6402 329.4975 117.8766 333.6051 105.7583 345.5643 114.1412 352.2168 116.4373 363.6926 112.1116 371.6001 103.9236 368.4002 99.1669 373.5988 84.0583 376.0876 77.8686 381.9309 70.7005 375.1953 62.9876 378.6953 50.8822 373.702 50.7221 364.7668 37.0636 356.3309 35.5314 346.0514 31.0239 338.2156 20.2092 334.9745 20.5718 330.5049 33.4212 325.2057 47.1838 329.2124 52.1544 339.9146 48.2561 349.7907 55.5316 355.2824 56.4601 364.9312 62.5858 365.7603 64.4038 356.9051 84.0957 344.9554 82.6892 340.4781 60.3787 332.8169 62.0752 325.5088 70.0333 324.5471 71.164 319.4354 Z"/>
<path d="M 560.8569 384.6168 550.5844 364.1771 560.4611 362.0812 563.1899 365.4492 575.4475 365.7129 585.6623 368.2695 589.3726 373.3957 588.1361 387.5475 593.0259 400.0886 585.6726 409.9366 593.8459 419.0104 589.7153 431.1879 583.4926 432.4117 580.0661 441.4195 569.6701 441.3454 562.8273 436.3765 569.7726 427.6352 579.2718 427.7355 582.5609 413.6597 560.8569 384.6168 Z"/>
<path d="M 649.8295 273.951 674.1149 280.0592 681.0619 292.0996 680.5441 299.5939 650.7571 312.8769 647.3917 304.272 634.1076 288.6856 649.8295 273.951 Z"/>
<path d="M 600.3626 199.4271 593.5016 211.9889 580.615 229.0026 568.5595 240.3483 559.9548 257.0262 556.2045 254.1887 543.0802 253.9218 538.2918 246.4534 545.5461 227.0204 553.6979 223.3779 569.6835 211.6886 574.9975 211.3113 588.5061 198.6662 600.3626 199.4271 Z"/>
<path d="M 649.8295 273.951 656.7297 263.2952 665.233 261.2936 678.7455 263.2192 686.4781 254.9523 701.8181 249.2365 734.2951 265.2233 738.4316 272.0522 763.5041 271.3413 746.8564 279.8635 699.0336 293.0508 680.5441 299.5939 681.0619 292.0996 674.1149 280.0592 649.8295 273.951 Z"/>
<path d="M 563.3062 171.0539 569.169 176.6601 576.0941 178.2215 559.627 192.0215 550.1929 187.2877 546.431 179.5762 563.3062 171.0539 Z"/>
<path d="M 129.0943 477.6056 137.6461 473.2294 140.6117 479.2982 151.5062 480.3582 162.3767 490.4776 149.2543 489.9091 131.4462 495.8241 126.404 491.5071 112.6393 493.6303 119.4023 479.6012 129.0943 477.6056 Z M 116.9872 423.545 128.5945 424.053 133.3082 429.014 132.5144 437.3275 142.4614 440.5633 148.4109 456.6528 147.9292 461.8867 140.6772 462.7752 130.6128 454.541 119.9972 455.4867 116.4592 442.0099 107.1715 446.8778 95.6797 444.9726 92.3191 455.5633 75.766 460.5376 70.5157 458.1541 71.0102 451.1201 67.0063 445.8836 55.3611 442.4927 51.8904 437.5664 58.2922 431.7165 68.8438 432.2665 83.2186 423.8012 86.7624 431.6406 95.6679 424.6417 104.1677 426.2365 116.9872 423.545 Z"/>
<path d="M 120.4447 343.2064 130.2311 350.4638 135.9415 344.197 139.4167 330.5012 149.8966 327.6076 151.4981 319.2428 163.2564 318.1341 176.1962 312.3158 168.7344 319.6991 164.4755 329.5224 180.4185 334.6132 163.5345 334.4482 152.726 340.3471 149.8874 356.8647 153.9731 361.1753 163.272 359.6415 161.9277 373.0848 164.0419 382.0234 151.6874 384.495 147.9388 388.694 144.1494 381.3549 131.6973 375.0853 112.1116 371.6001 116.4373 363.6926 114.1412 352.2168 120.4447 343.2064 Z"/>
<path d="M 473.0094 377.8681 480.433 380.2165 480.0637 397.6609 497.9383 400.2396 496.9173 419.0083 486.2418 420.5861 471.999 415.2025 459.8221 421.1822 456.6526 425.5353 448.9436 413.3253 450.4908 409.0791 443.7047 398.8397 435.9234 391.3511 452.0072 381.2401 460.2272 385.3207 473.0094 377.8681 Z"/>
<path d="M 638.3034 269.5019 648.1758 262.3401 656.7297 263.2952 649.8295 273.951 634.1076 288.6856 620.1118 292.3653 616.1127 306.6964 610.6462 306.56 604.3815 294.9538 604.1517 285.116 593.3724 278.711 595.5881 267.6715 600.6248 263.6666 610.6038 261.9263 620.6805 266.5288 624.0304 272.2527 638.3034 269.5019 Z"/>
<path d="M 271.8263 389.9721 275.935 404.517 259.9622 404.0981 255.7134 411.0007 254.9192 398.2197 260.7382 392.5933 271.8263 389.9721 Z"/>
<path d="M 794.3626 233.9026 764.7092 234.08 759.7139 228.3577 760.4176 215.4981 754.6704 206.5824 753.5209 195.9043 763.3944 186.5723 780.8965 174.3598 788.0145 175.5211 785.6444 194.8338 794.3626 233.9026 Z"/>
<path d="M 199.1304 357.6976 208.2352 359.2851 219.8713 356.1534 222.6541 364.012 226.9903 367.077 227.8222 374.9884 213.9219 383.6999 218.1389 389.9639 225.1985 392.6004 215.5636 400.1135 215.4661 413.1385 207.1911 416.2426 201.8312 404.701 206.0858 396.9739 194.5234 396.3037 190.2059 390.419 178.111 381.9917 164.0419 382.0234 167.6514 372.2428 190.7577 367.3831 199.1304 357.6976 Z"/>
<path d="M 539.5103 427.2884 544.6601 430.1716 552.7765 429.3485 562.8273 436.3765 569.6701 441.3454 580.0661 441.4195 572.6297 445.966 530.5376 442.7064 530.2524 434.7233 539.5103 427.2884 Z"/>
<path d="M 265.073 310.4956 270.6194 305.6961 278.0906 307.9972 291.6588 295.8821 298.0062 299.8867 303.3018 295.8765 318.5332 308.5504 282.3452 315.1411 285.5529 327.73 284.8177 337.2354 275.0217 343.5443 270.5302 353.4903 266.0254 344.3622 244.8232 345.9751 231.3556 345.3378 226.8127 341.7405 232.5773 333.8245 249.6051 321.7676 251.8321 315.326 261.6921 314.3486 265.073 310.4956 Z"/>
<path d="M 301.2043 407.906 303.9661 409.84 301.2117 412.6988 289.3321 422.594 285.1 417.5392 296.8357 407.481 301.2043 407.906 Z"/>
<path d="M 244.8232 345.9751 266.0254 344.3622 270.5302 353.4903 263.2971 367.2997 257.9789 361.465 240.1382 363.5362 244.8232 345.9751 Z"/>
<path d="M 209.0677 464.1876 210.1899 469.7661 190.8436 472.6515 184.0011 475.7873 179.3309 470.9135 186.9908 464.1852 201.9761 468.9643 209.0677 464.1876 Z M 142.4614 440.5633 158.8362 427.5039 163.6018 431.3717 172.448 431.2655 183.5539 423.286 188.6964 431.9217 193.955 430.8737 204.7825 431.7663 205.7982 437.8959 166.4844 445.2606 164.2644 453.4329 158.5509 459.7075 147.9292 461.8867 148.4109 456.6528 142.4614 440.5633 Z"/>
<path d="M 117.8766 333.6051 125.5898 333.9865 120.4447 343.2064 114.1412 352.2168 105.7583 345.5643 117.8766 333.6051 Z"/>
<path d="M 232.5773 333.8245 226.8127 341.7405 231.3556 345.3378 228.2789 357.1246 222.6541 364.012 219.8713 356.1534 208.2352 359.2851 199.1304 357.6976 181.1791 355.7665 175.3516 352.8972 167.0534 345.3428 180.4185 334.6132 164.4755 329.5224 168.7344 319.6991 176.1962 312.3158 187.1121 315.4424 191.6332 322.9763 199.0478 323.9796 211.2179 315.7171 210.4176 325.4504 225.1814 325.2295 232.5773 333.8245 Z"/>
<path d="M 175.3516 352.8972 181.1791 355.7665 199.1304 357.6976 190.7577 367.3831 167.6514 372.2428 173.8042 363.3445 175.3516 352.8972 Z"/>
<path d="M 407.7565 428.121 393.3687 434.8574 363.5967 425.7349 371.3869 414.9844 371.545 407.311 379.1943 402.8345 386.9542 404.178 396.6667 409.5955 403.6594 417.8191 407.7565 428.121 Z"/>
<path d="M 388.5375 305.7039 396.3482 299.4412 403.5738 297.6333 411.3877 290.6668 422.1718 285.1614 429.853 278.4518 435.4953 277.3985 436.5928 299.4778 442.6702 305.9963 439.9095 324.1551 431.8718 329.9777 414.8675 336.4897 407.9248 344.0227 401.211 343.5308 389.4495 347.5907 378.7441 345.6109 379.9606 324.2066 377.211 314.5693 388.5375 305.7039 Z"/>
<path d="M 473.873 251.8358 478.3666 234.9407 484.2891 233.1788 503.4431 259.5945 516.9533 273.8637 493.1542 278.4866 481.6284 284.4354 474.4444 285.1866 463.6599 280.3999 465.1114 268.9517 473.873 251.8358 Z"/>
<path d="M 390.7738 269.9096 412.1044 277.6636 414.5734 284.9198 426.4703 276.7619 434.2299 275.9673 435.4953 277.3985 429.853 278.4518 422.1718 285.1614 411.3877 290.6668 403.5738 297.6333 396.3482 299.4412 388.5375 305.7039 384.9771 297.8195 374.9038 294.3146 380.3844 284.8133 393.7419 280.1559 390.7738 269.9096 Z"/>
<path d="M 231.3556 345.3378 244.8232 345.9751 240.1382 363.5362 227.8222 374.9884 226.9903 367.077 222.6541 364.012 228.2789 357.1246 231.3556 345.3378 Z"/>
<path d="M 301.2117 412.6988 305.3033 417.1951 297.0485 422.3621 289.3321 422.594 301.2117 412.6988 Z"/>
<path d="M 363.5967 425.7349 393.3687 434.8574 381.8078 450.2813 362.1791 445.5855 365.3539 438.8838 357.3491 430.8955 363.5967 425.7349 Z"/>
<path d="M 536.0885 412.7618 543.2936 408.3461 553.7501 390.1111 560.8569 384.6168 582.5609 413.6597 579.2718 427.7355 569.7726 427.6352 562.8273 436.3765 552.7765 429.3485 544.6601 430.1716 551.7685 419.9914 545.1794 411.3915 536.0885 412.7618 Z"/>
<path d="M 240.1382 363.5362 257.9789 361.465 263.2971 367.2997 250.4795 377.7713 248.4072 384.5249 241.7315 382.8691 231.7212 394.1067 225.1985 392.6004 218.1389 389.9639 213.9219 383.6999 227.8222 374.9884 240.1382 363.5362 Z"/>
<path d="M 117.8766 333.6051 112.6402 329.4975 116.4677 320.1313 126.211 316.9852 128.802 306.3827 143.1555 300.7675 149.934 304.1644 151.4981 319.2428 149.8966 327.6076 139.4167 330.5012 135.9415 344.197 130.2311 350.4638 120.4447 343.2064 125.5898 333.9865 117.8766 333.6051 Z"/>
<path d="M 593.0259 400.0886 606.318 409.9722 601.203 416.3868 593.8459 419.0104 585.6726 409.9366 593.0259 400.0886 Z"/>
<path d="M 580.6024 118.6409 590.6759 112.4563 601.7432 112.1093 604.3389 108.855 616.2511 110.4767 624.992 115.4227 617.14 118.9318 607.1615 130.3428 597.7416 136.695 588.0306 148.1789 585.8201 135.871 575.8476 137.0018 581.8865 125.666 580.6024 118.6409 Z"/>
<path d="M 338.9151 366.3981 368.6125 356.0879 371.9571 350.357 380.9728 358.8199 382.6417 381.1021 376.6997 392.5864 368.1649 389.9659 357.2462 397.0377 351.9061 396.0887 341.0363 399.7183 340.4083 384.5403 345.1328 378.3886 338.9151 366.3981 Z"/>
<path d="M 593.5016 211.9889 600.5241 226.0345 611.213 226.0415 618.2419 229.089 628.9638 227.3899 646.6004 230.5481 645.1144 248.2004 634.8652 258.131 638.3034 269.5019 624.0304 272.2527 620.6805 266.5288 610.6038 261.9263 600.6248 263.6666 595.5881 267.6715 587.9526 263.7037 577.1338 264.0706 566.7967 261.5306 559.9548 257.0262 568.5595 240.3483 580.615 229.0026 593.5016 211.9889 Z"/>
<path d="M 317.7425 405.4357 317.4127 414.9304 305.3033 417.1951 301.2117 412.6988 303.9661 409.84 317.7425 405.4357 Z"/>
<path d="M 435.4953 277.3985 434.2299 275.9673 438.55 271.1304 438.6821 261.844 446.0918 252.1593 447.3397 245.7312 473.873 251.8358 465.1114 268.9517 463.6599 280.3999 474.4444 285.1866 451.9106 296.6847 442.6702 305.9963 436.5928 299.4778 435.4953 277.3985 Z"/>
<path d="M 780.8965 174.3598 763.3944 186.5723 750.7041 187.502 753.8978 169.1452 739.0065 161.8754 741.1187 150.5554 736.5186 131.693 737.0763 116.6205 727.656 111.7289 734.5894 97.6829 741.666 93.6652 752.0234 99.3899 772.4912 93.5046 782.567 100.7217 789.6757 100.2584 791.6845 107.0703 799 110.6474 798.5046 122.1225 786.4832 138.6194 779.0323 146.1567 775.9226 155.6419 780.8965 174.3598 Z"/>
<path d="M 143.1555 300.7675 150.2096 298.088 160.998 287.2318 174.7542 282.8793 181.9658 283.6204 213.7284 272.0907 226.9424 265.3679 236.09 271.497 246.1158 266.4931 248.8811 269.4475 250.7814 273.1691 249.3252 286.9299 250.8999 292.0209 261.0061 297.5741 265.073 310.4956 261.6921 314.3486 251.8321 315.326 249.6051 321.7676 232.5773 333.8245 225.1814 325.2295 210.4176 325.4504 211.2179 315.7171 199.0478 323.9796 191.6332 322.9763 187.1121 315.4424 176.1962 312.3158 163.2564 318.1341 151.4981 319.2428 149.934 304.1644 143.1555 300.7675 Z"/>
<path d="M 47.1838 329.2124 61.2547 317.5231 71.164 319.4354 70.0333 324.5471 62.0752 325.5088 60.3787 332.8169 82.6892 340.4781 84.0957 344.9554 64.4038 356.9051 62.5858 365.7603 56.4601 364.9312 55.5316 355.2824 48.2561 349.7907 52.1544 339.9146 47.1838 329.2124 Z"/>
<path d="M 295.8748 264.136 314.2079 252.7241 314.3394 263.3377 329.1122 267.4376 332.0503 272.9395 343.8413 287.9671 352.1898 291.1182 347.7148 313.1035 334.2586 315.2013 325.9901 327.2329 318.5332 308.5504 303.3018 295.8765 295.8748 264.136 Z"/>
<path d="M 503.4431 259.5945 509.6305 251.7989 523.0705 251.3134 526.1434 268.308 532.9516 270.0781 527.935 275.2158 516.9533 273.8637 503.4431 259.5945 Z"/>
<path d="M 656.7297 263.2952 648.1758 262.3401 638.3034 269.5019 634.8652 258.131 645.1144 248.2004 646.6004 230.5481 628.9638 227.3899 618.2419 229.089 611.213 226.0415 610.398 224.0242 628.7579 210.5218 638.3441 209.2607 647.4877 200.9501 649.3564 193.9759 661.4722 184.8049 670.5373 183.5102 681.4116 175.1853 691.1889 185.9521 717.5583 159.4101 713.0672 148.403 706.9782 143.4337 706.6437 137.7246 699.4172 129.8513 678.7885 136.0367 671.8819 113.3643 689.9305 98.6719 695.3208 90.0984 702.3013 92.7194 711.7981 89.3542 726.4758 92.2816 734.5894 97.6829 727.656 111.7289 737.0763 116.6205 736.5186 131.693 741.1187 150.5554 739.0065 161.8754 753.8978 169.1452 750.7041 187.502 763.3944 186.5723 753.5209 195.9043 754.6704 206.5824 760.4176 215.4981 759.7139 228.3577 764.7092 234.08 794.3626 233.9026 794.649 250.0498 789.8539 256.2429 763.5041 271.3413 738.4316 272.0522 734.2951 265.2233 701.8181 249.2365 686.4781 254.9523 678.7455 263.2192 665.233 261.2936 656.7297 263.2952 Z"/>
<path d="M 547.9797 81.4622 557.0154 81.6754 563.2184 88.6208 571.3435 84.9231 578.055 85.9263 580.493 97.3089 572.1525 105.6362 572.1103 114.9102 568.7544 118.9278 558.561 111.0791 547.7451 112.8961 542.1088 117.5123 541.1996 106.274 549.1154 99.7858 545.3373 85.2708 547.9797 81.4622 Z"/>
<path d="M 231.7212 394.1067 241.7315 382.8691 248.4072 384.5249 254.9192 398.2197 255.7134 411.0007 258.0864 419.7849 247.8594 427.3928 247.5942 427.5465 229.0935 420.2846 221.6857 415.0185 227.6295 408.0767 231.7212 394.1067 Z"/>
<path d="M 371.9571 350.357 378.7441 345.6109 389.4495 347.5907 401.211 343.5308 400.2379 347.2846 407.8206 363.2735 411.8917 368.0207 403.4557 374.0242 403.5091 385.0037 395.6991 396.0838 389.6477 400.5033 379.3363 399.3849 376.6997 392.5864 382.6417 381.1021 380.9728 358.8199 371.9571 350.357 Z"/>
</g>
</svg>