<?xml version="1.0"?>
<svg xmlns="http://www.w3.org/2000/svg" version="1.2" baseProfile="tiny" width="800" height="470" viewBox="0 0 800 470" stroke-linecap="round" stroke-linejoin="round">
<g id="24MUE250GC_SIR">
<path d="M 125.5225 284.3467 131.6908 279.7307 139.2105 298.5611 118.2379 300.474 117.7675 290.914 125.5225 284.3467 Z"/>
<path d="M 628.4658 303.4836 646.351 312.251 650.0677 335.2104 641.2433 342.3838 623.1366 355.8006 605.6716 346.7446 599.6617 343.4205 628.4658 303.4836 Z"/>
<path d="M 199.5955 181.517 220.8405 167.9892 251.1802 171.3835 245.563 208.0477 249.9843 241.4058 217.7025 258.968 205.4005 249.9636 186.5052 243.4352 199.5955 181.517 Z"/>
<path d="M 71.4468 355.7478 74.6013 348.4777 99.6232 344.4082 111.7618 365.8484 76.6923 370.1545 71.4468 355.7478 Z"/>
<path d="M 537.3117 98.2655 509.7916 105.4256 502.5884 63.8793 548.9033 58.3494 537.3117 98.2655 Z"/>
<path d="M 25.8329 336.1988 26.0045 336.0864 36.8583 328.0485 54.0138 335.8711 52.8422 345.9525 50.4032 362.3198 51.241 364.2352 25.8329 336.1988 Z"/>
<path d="M 52.1755 280.2044 66.5192 277.5673 72.2366 299.2968 65.9308 303.1206 48.2036 307.6319 46.5487 301.3153 50.0755 290.3517 52.1755 280.2044 Z"/>
<path d="M 217.7025 258.968 249.9843 241.4058 265.5511 272.4273 247.9926 284.4094 225.6201 266.521 217.7025 258.968 Z"/>
<path d="M 722.9903 362.6728 742.9318 378.6441 717.0249 382.4102 722.9903 362.6728 Z"/>
<path d="M 617.3179 58.4002 655.404 67.0728 633.3028 105.7889 606.8071 92.114 608.2389 87.8076 617.3179 58.4002 Z"/>
<path d="M 541.2966 309.6696 536.8609 329.463 509.0609 333.4078 505.5476 327.749 514.0027 298.0154 520.799 299.37 541.2966 309.6696 Z"/>
<path d="M 520.799 299.37 553.1393 285.5975 541.2966 309.6696 520.799 299.37 Z"/>
<path d="M 542.4524 142.5314 572.6399 144.0771 557.09 186.5402 532.8218 162.0141 542.4524 142.5314 Z"/>
<path d="M 157.6417 286.0337 161.6631 275.5955 174.2538 283.132 171.6124 297.0559 157.6417 286.0337 Z"/>
<path d="M 671.4636 274.941 671.762 275.3131 674.7929 283.2977 670.6468 307.3034 666.8102 308.5983 646.351 312.251 628.4658 303.4836 632.7377 301.3682 661.2207 284.1547 666.1322 280.6153 669.0258 273.3493 671.4636 274.941 Z"/>
<path d="M 645.5491 362.0573 643.7858 355.0509 668.815 358.5184 663.7808 370.3123 645.5491 362.0573 Z"/>
<path d="M 410.8005 406.3795 409.9683 444.0508 409.0421 448.4399 385.7967 425.085 389.8637 413.6676 410.8005 406.3795 Z"/>
<path d="M 771.8784 303.6552 785.2918 326.4832 782.8762 325.9171 766.8056 325.4531 760.4887 329.2836 759.4486 311.3405 768.1305 304.4304 771.8784 303.6552 Z"/>
<path d="M 627.4869 142.8556 623.2032 141.3767 662.7841 109.9897 699.8901 115.0409 685.9115 141.7662 681.4262 150.4003 653.9669 150.3906 627.4869 142.8556 Z"/>
<path d="M 168.985 111.4329 203.9732 137.2149 179.7086 170.4285 199.5955 181.517 186.5052 243.4352 186.4788 243.4699 150.519 249.899 146.7346 241.5869 153.8126 195.8191 114.4833 208.6177 109.2962 189.83 149.1518 152.2536 168.985 111.4329 Z"/>
<path d="M 372.7808 257.4239 399.4268 232.1649 395.8386 208.688 415.144 196.7728 445.024 209.2257 507.8154 231.7763 496.8849 238.5413 484.8228 230.1403 451.1318 260.7023 449.5671 275.4554 429.3275 282.7138 426.1 287.7754 411.3282 284.0992 381.2815 272.7958 372.7808 257.4239 Z"/>
<path d="M 674.7929 283.2977 671.762 275.3131 711.7312 275.2911 714.5596 303.3264 708.1273 298.114 694.3016 294.1429 674.7929 283.2977 Z"/>
<path d="M 509.7916 105.4256 537.3117 98.2655 559.6881 107.483 568.2062 129.7222 572.6399 144.0771 542.4524 142.5314 521.457 137.4441 509.7916 105.4256 Z"/>
<path d="M 402.1875 377.3221 399.2594 367.852 403.7301 334.0544 406.1379 331.1669 436.8938 327.3635 459.1156 348.6688 453.8308 369.2537 420.2289 391.4422 402.1875 377.3221 Z"/>
<path d="M 121.6467 260.9923 131.2875 255.9902 137.5835 269.53 131.6908 279.7307 125.5225 284.3467 108.2443 266.296 121.6467 260.9923 Z"/>
<path d="M 105.3368 336.2169 135.6068 319.8434 153.687 323.5338 162.2456 336.8362 111.7618 365.8484 99.6232 344.4082 105.3368 336.2169 Z"/>
<path d="M 701.9588 347.5746 706.5551 334.5649 713.285 318.3706 715.103 312.8419 716.8153 332.8821 724.0418 352.3633 701.9588 347.5746 Z"/>
<path d="M 616.0101 230.4453 641.1933 233.9247 644.4842 259.4046 620.108 266.4972 607.5942 251.2462 604.2579 244.2104 616.0101 230.4453 Z"/>
<path d="M 733.8168 197.3528 747.5434 206.0438 758.5252 240.3228 730.0742 229.6755 730.1727 225.1643 733.8168 197.3528 Z"/>
<path d="M 176.8447 278.006 177.9792 263.3856 200.1068 273.6059 196.7391 287.2159 176.8447 278.006 Z"/>
<path d="M 376.0636 30.2712 369.5584 38.9728 324.513 68.8768 318.9155 42.3571 318.4926 29.695 358.0924 23.1948 376.0636 30.2712 Z"/>
<path d="M 24.1492 289.9061 50.0755 290.3517 46.5487 301.3153 20.7388 330.4745 1 327.936 24.1492 289.9061 Z"/>
<path d="M 648.5228 257.7518 665.8111 247.9671 669.0258 273.3493 666.1322 280.6153 648.5228 257.7518 Z"/>
<path d="M 562.6334 52.6494 591.2995 54.4254 581.5657 93.8736 570.5244 98.0265 557.437 91.9485 562.6334 52.6494 Z"/>
<path d="M 114.4833 208.6177 153.8126 195.8191 124.3033 230.6199 114.4833 208.6177 Z"/>
<path d="M 219.9203 102.8655 174.4487 89.8416 207.2273 24.9176 245.6453 15.9416 219.9203 102.8655 Z"/>
<path d="M 89.8596 306.0073 72.234 318.2476 67.1692 312.341 65.9308 303.1206 72.2366 299.2968 89.8596 306.0073 Z"/>
<path d="M 411.3282 284.0992 414.917 311.9293 406.1379 331.1669 403.7301 334.0544 372.4272 316.0619 358.6806 305.2771 381.2815 272.7958 411.3282 284.0992 Z"/>
<path d="M 785.2918 326.4832 785.629 331.9025 764.4638 354.326 767.74 374.982 760.3655 385.5462 751.6513 355.1026 732.5583 345.5097 732.3359 345.067 760.4887 329.2836 766.8056 325.4531 766.6559 336.9949 780.3912 335.4807 782.8762 325.9171 785.2918 326.4832 Z"/>
<path d="M 449.5671 275.4554 472.4666 272.1616 479.666 286.0825 432.9658 292.1946 429.3275 282.7138 449.5671 275.4554 Z"/>
<path d="M 505.2463 345.112 509.0609 333.4078 536.8609 329.463 540.0376 336.0989 549.6463 356.1521 549.5627 356.1656 505.2463 345.112 Z"/>
<path d="M 623.1366 355.8006 641.2433 342.3838 643.7858 355.0509 645.5491 362.0573 621.2197 370.0431 623.1366 355.8006 Z"/>
<path d="M 715.103 312.8419 717.4444 304.0979 721.9715 305.3203 716.8153 332.8821 715.103 312.8419 Z"/>
<path d="M 674.7929 283.2977 694.3016 294.1429 670.6468 307.3034 674.7929 283.2977 Z"/>
<path d="M 410.8005 406.3795 420.2289 391.4422 455.4868 398.3721 446.7472 449.4105 409.9683 444.0508 410.8005 406.3795 Z"/>
<path d="M 314.4199 296.7899 318.0129 303.1014 301.1827 317.406 291.3642 352.6319 278.5964 363.7956 264.6783 359.899 265.547 339.3428 314.4199 296.7899 Z"/>
<path d="M 339.0791 312.6282 358.6806 305.2771 372.4272 316.0619 377.1273 355.8134 360.0024 378.7856 363.208 391.0732 348.4198 420.3268 341.3974 425.7713 300.7962 400.3959 298.035 389.2476 307.4249 360.3226 333.0623 350.006 339.0791 312.6282 Z"/>
<path d="M 730.0742 229.6755 758.5252 240.3228 765.871 258.9239 738.0955 252.8135 727.0428 253.7169 730.0742 229.6755 Z"/>
<path d="M 587.6304 265.3347 610.3094 279.2031 610.1579 279.4663 589.0934 299.0741 563.898 278.3635 587.6304 265.3347 Z"/>
<path d="M 324.513 68.8768 369.5584 38.9728 364.7163 70.2874 365.1702 106.3788 337.856 106.4467 321.2468 106.3008 324.513 68.8768 Z"/>
<path d="M 711.7312 275.2911 671.762 275.3131 671.4636 274.941 709.8901 260.1779 711.7312 275.2911 Z"/>
<path d="M 432.9658 292.1946 479.666 286.0825 505.3878 290.0663 514.0027 298.0154 505.5476 327.749 483.4663 328.1632 459.1156 348.6688 436.8938 327.3635 432.9658 292.1946 Z"/>
<path d="M 404.433 184.6691 415.144 196.7728 395.8386 208.688 372.8168 198.8578 371.9387 175.0531 404.433 184.6691 Z"/>
<path d="M 91.2233 249.4278 100.5252 250.9661 102.0795 253.9181 85.4699 273.2395 71.559 265.2294 91.2233 249.4278 Z"/>
<path d="M 587.4712 218.6853 567.8686 226.44 546.0115 227.9866 557.09 186.5402 585.5447 199.7533 584.3408 203.775 587.4712 218.6853 Z"/>
<path d="M 363.208 391.0732 389.8637 413.6676 385.7967 425.085 348.4198 420.3268 363.208 391.0732 Z"/>
<path d="M 380.1699 139.3219 385.0423 130.766 385.1409 128.2101 451.7972 132.7702 456.6213 130.4291 473.4198 123.2543 466.759 173.92 442.2642 158.4904 415.9499 157.905 380.1699 139.3219 Z"/>
<path d="M 708.1273 298.114 714.5596 303.3264 717.4444 304.0979 715.103 312.8419 713.285 318.3706 699.3578 323.5635 695.9238 319.172 708.1273 298.114 Z"/>
<path d="M 610.3094 279.2031 587.6304 265.3347 607.5942 251.2462 620.108 266.4972 615.5948 272.4182 610.3094 279.2031 Z"/>
<path d="M 377.1273 355.8134 372.4272 316.0619 403.7301 334.0544 399.2594 367.852 377.1273 355.8134 Z"/>
<path d="M 653.9669 150.3906 681.4262 150.4003 670.3183 197.1972 652.5977 199.6448 653.9669 150.3906 Z"/>
<path d="M 716.8153 332.8821 721.9715 305.3203 729.3509 308.5053 732.3359 345.067 732.5583 345.5097 724.0418 352.3633 716.8153 332.8821 Z"/>
<path d="M 647.1736 200.4425 651.0558 216.4226 641.1933 233.9247 616.0101 230.4453 620.3824 200.0884 647.1736 200.4425 Z"/>
<path d="M 681.4262 150.4003 699.8998 142.7208 735.9685 155.8474 742.3334 176.9749 712.6409 202.7771 693.609 203.8519 670.3183 197.1972 681.4262 150.4003 Z"/>
<path d="M 46.5487 301.3153 48.2036 307.6319 48.1184 311.2377 36.8583 328.0485 26.0045 336.0864 20.7388 330.4745 46.5487 301.3153 Z"/>
<path d="M 52.1755 280.2044 50.0755 290.3517 24.1492 289.9061 52.1755 280.2044 Z"/>
<path d="M 298.035 389.2476 278.5964 363.7956 291.3642 352.6319 307.4249 360.3226 298.035 389.2476 Z"/>
<path d="M 693.609 203.8519 712.6409 202.7771 733.8168 197.3528 730.1727 225.1643 688.1274 226.3511 693.609 203.8519 Z"/>
<path d="M 65.9308 303.1206 67.1692 312.341 48.1184 311.2377 48.2036 307.6319 65.9308 303.1206 Z"/>
<path d="M 587.4712 218.6853 603.9742 243.7597 578.3457 241.0911 567.8686 226.44 587.4712 218.6853 Z"/>
<path d="M 453.8308 369.2537 455.4868 398.3721 420.2289 391.4422 453.8308 369.2537 Z"/>
<path d="M 305.9858 223.8933 300.3048 200.3348 326.0234 186.7475 350.5249 212.3555 341.2803 238.8093 305.9858 223.8933 Z"/>
<path d="M 610.3094 279.2031 615.5948 272.4182 661.2207 284.1547 632.7377 301.3682 610.1579 279.4663 610.3094 279.2031 Z"/>
<path d="M 617.3179 58.4002 608.2389 87.8076 581.5657 93.8736 591.2995 54.4254 617.3179 58.4002 Z"/>
<path d="M 713.285 318.3706 706.5551 334.5649 699.3578 323.5635 713.285 318.3706 Z"/>
<path d="M 137.5835 269.53 131.2875 255.9902 144.9501 254.0637 142.1268 263.9239 137.5835 269.53 Z"/>
<path d="M 466.759 173.92 512.8078 191.9943 510.3003 198.5151 454.8009 196.3725 445.024 209.2257 415.144 196.7728 404.433 184.6691 415.9499 157.905 442.2642 158.4904 466.759 173.92 Z"/>
<path d="M 707.9127 101.1149 699.8901 115.0409 662.7841 109.9897 623.2032 141.3767 608.2335 109.1075 606.8071 92.114 633.3028 105.7889 655.404 67.0728 684.1487 76.0606 707.9127 101.1149 Z"/>
<path d="M 124.3033 230.6199 126.5239 231.2371 100.5252 250.9661 91.2233 249.4278 114.4833 208.6177 124.3033 230.6199 Z"/>
<path d="M 767.74 374.982 764.4638 354.326 785.629 331.9025 799 370.5743 767.74 374.982 Z"/>
<path d="M 711.7312 275.2911 709.8901 260.1779 727.0428 253.7169 738.0955 252.8135 743.8543 300.8457 729.3509 308.5053 721.9715 305.3203 717.4444 304.0979 714.5596 303.3264 711.7312 275.2911 Z"/>
<path d="M 113.3856 319.2134 114.7692 306.379 118.2379 300.474 139.2105 298.5611 151.9787 299.9789 172.3136 311.1532 177.0096 317.4975 153.687 323.5338 135.6068 319.8434 113.3856 319.2134 Z"/>
<path d="M 369.5584 38.9728 376.0636 30.2712 412.2812 59.1752 409.282 80.0478 364.7163 70.2874 369.5584 38.9728 Z"/>
<path d="M 641.1933 233.9247 651.0558 216.4226 675.3939 236.7693 665.8111 247.9671 648.5228 257.7518 644.4842 259.4046 641.1933 233.9247 Z"/>
<path d="M 540.0376 336.0989 563.4565 329.3486 578.6095 367.4106 578.6638 370.3792 549.6463 356.1521 540.0376 336.0989 Z"/>
<path d="M 318.9155 42.3571 280.9538 29.1745 300.2124 14.9389 318.4926 29.695 318.9155 42.3571 Z"/>
<path d="M 341.3974 425.7713 332.4931 430.199 290.6942 425.3287 279.5233 415.7505 300.7962 400.3959 341.3974 425.7713 Z"/>
<path d="M 305.9858 223.8933 341.2803 238.8093 341.3276 238.8227 313.2191 267.6716 291.4631 242.7035 305.9858 223.8933 Z"/>
<path d="M 318.0129 303.1014 339.0791 312.6282 333.0623 350.006 307.4249 360.3226 291.3642 352.6319 301.1827 317.406 318.0129 303.1014 Z"/>
<path d="M 735.9685 155.8474 699.8998 142.7208 681.4262 150.4003 685.9115 141.7662 720.4113 125.7769 735.9685 155.8474 Z"/>
<path d="M 738.0955 252.8135 765.871 258.9239 771.0075 293.9661 757.8779 295.8305 743.8543 300.8457 738.0955 252.8135 Z"/>
<path d="M 572.6399 144.0771 568.2062 129.7222 608.2335 109.1075 623.2032 141.3767 627.4869 142.8556 627.0985 178.6475 590.6294 180.858 572.6399 144.0771 Z"/>
<path d="M 157.6417 286.0337 171.6124 297.0559 172.3136 311.1532 151.9787 299.9789 157.6417 286.0337 Z"/>
<path d="M 489.3149 96.8451 480.7477 59.1296 502.5884 63.8793 509.7916 105.4256 489.3149 96.8451 Z"/>
<path d="M 203.9732 137.2149 220.8405 167.9892 199.5955 181.517 179.7086 170.4285 203.9732 137.2149 Z"/>
<path d="M 360.0024 378.7856 377.1273 355.8134 399.2594 367.852 402.1875 377.3221 360.0024 378.7856 Z"/>
<path d="M 584.3408 203.775 620.3824 200.0884 616.0101 230.4453 604.2579 244.2104 603.9742 243.7597 587.4712 218.6853 584.3408 203.775 Z"/>
<path d="M 85.4699 273.2395 117.7675 290.914 118.2379 300.474 114.7692 306.379 89.8596 306.0073 72.2366 299.2968 66.5192 277.5673 71.559 265.2294 85.4699 273.2395 Z"/>
<path d="M 415.9499 157.905 404.433 184.6691 371.9387 175.0531 380.1699 139.3219 415.9499 157.905 Z"/>
<path d="M 52.8422 345.9525 63.9029 349.8455 50.4032 362.3198 52.8422 345.9525 Z"/>
<path d="M 603.9742 243.7597 604.2579 244.2104 607.5942 251.2462 587.6304 265.3347 563.898 278.3635 578.3457 241.0911 603.9742 243.7597 Z"/>
<path d="M 411.3282 284.0992 426.1 287.7754 414.917 311.9293 411.3282 284.0992 Z"/>
<path d="M 332.4931 430.199 306.4962 446.1657 290.6942 425.3287 332.4931 430.199 Z"/>
<path d="M 54.0138 335.8711 72.5637 327.2206 74.6013 348.4777 71.4468 355.7478 63.9029 349.8455 52.8422 345.9525 54.0138 335.8711 Z"/>
<path d="M 572.6399 144.0771 590.6294 180.858 585.5447 199.7533 557.09 186.5402 572.6399 144.0771 Z"/>
<path d="M 757.8779 295.8305 771.0075 293.9661 771.8784 303.6552 768.1305 304.4304 757.8779 295.8305 Z"/>
<path d="M 177.9792 263.3856 186.4788 243.4699 186.5052 243.4352 205.4005 249.9636 200.1068 273.6059 177.9792 263.3856 Z"/>
<path d="M 693.609 203.8519 688.1274 226.3511 675.3939 236.7693 651.0558 216.4226 647.1736 200.4425 652.5267 199.6552 652.5977 199.6448 670.3183 197.1972 693.609 203.8519 Z"/>
<path d="M 321.2468 106.3008 337.856 106.4467 385.0423 130.766 380.1699 139.3219 371.9387 175.0531 372.8168 198.8578 354.2273 221.6494 341.3276 238.8227 341.2803 238.8093 350.5249 212.3555 326.0234 186.7475 310.9084 149.9986 321.2468 106.3008 Z"/>
<path d="M 337.856 106.4467 365.1702 106.3788 364.7163 70.2874 409.282 80.0478 403.6398 101.7 385.1409 128.2101 385.0423 130.766 337.856 106.4467 Z"/>
<path d="M 688.8115 314.1434 695.9238 319.172 699.3578 323.5635 706.5551 334.5649 701.9588 347.5746 672.0162 355.5269 650.0677 335.2104 688.8115 314.1434 Z"/>
<path d="M 51.241 364.2352 50.4032 362.3198 63.9029 349.8455 71.4468 355.7478 76.6923 370.1545 51.241 364.2352 Z"/>
<path d="M 245.6453 15.9416 250.221 14.841 280.9538 29.1745 318.9155 42.3571 324.513 68.8768 321.2468 106.3008 310.9084 149.9986 283.8757 147.2062 283.6286 128.0252 254.7589 110.2458 219.9203 102.8655 245.6453 15.9416 Z"/>
<path d="M 496.8849 238.5413 507.8154 231.7763 521.2468 240.7927 505.3878 290.0663 479.666 286.0825 472.4666 272.1616 496.8849 238.5413 Z"/>
<path d="M 426.1 287.7754 429.3275 282.7138 432.9658 292.1946 436.8938 327.3635 406.1379 331.1669 414.917 311.9293 426.1 287.7754 Z"/>
<path d="M 652.5267 199.6552 647.1736 200.4425 620.3824 200.0884 584.3408 203.775 585.5447 199.7533 590.6294 180.858 627.0985 178.6475 652.5267 199.6552 Z"/>
<path d="M 768.1305 304.4304 759.4486 311.3405 729.3509 308.5053 743.8543 300.8457 757.8779 295.8305 768.1305 304.4304 Z"/>
<path d="M 265.5511 272.4273 265.2246 281.8544 233.4949 296.6353 225.6201 266.521 247.9926 284.4094 265.5511 272.4273 Z"/>
<path d="M 615.5948 272.4182 620.108 266.4972 644.4842 259.4046 648.5228 257.7518 666.1322 280.6153 661.2207 284.1547 615.5948 272.4182 Z"/>
<path d="M 146.7346 241.5869 150.519 249.899 144.9501 254.0637 131.2875 255.9902 121.6467 260.9923 138.3401 232.7105 146.7346 241.5869 Z"/>
<path d="M 278.5964 363.7956 298.035 389.2476 300.7962 400.3959 279.5233 415.7505 241.7386 420.421 246.1679 381.0901 264.6783 359.899 278.5964 363.7956 Z"/>
<path d="M 85.4699 273.2395 102.0795 253.9181 108.2443 266.296 125.5225 284.3467 117.7675 290.914 85.4699 273.2395 Z"/>
<path d="M 251.1802 171.3835 283.8757 147.2062 310.9084 149.9986 326.0234 186.7475 300.3048 200.3348 245.563 208.0477 251.1802 171.3835 Z"/>
<path d="M 451.7972 132.7702 385.1409 128.2101 403.6398 101.7 423.6405 123.7641 451.7972 132.7702 Z"/>
<path d="M 67.1692 312.341 72.234 318.2476 72.5637 327.2206 54.0138 335.8711 36.8583 328.0485 48.1184 311.2377 67.1692 312.341 Z"/>
<path d="M 505.2463 345.112 549.5627 356.1656 515.5719 359.9574 505.2463 345.112 Z"/>
<path d="M 722.9903 362.6728 724.0418 352.3633 732.5583 345.5097 751.6513 355.1026 760.3655 385.5462 742.9318 378.6441 722.9903 362.6728 Z"/>
<path d="M 138.3401 232.7105 126.5239 231.2371 124.3033 230.6199 153.8126 195.8191 146.7346 241.5869 138.3401 232.7105 Z"/>
<path d="M 168.985 111.4329 174.4487 89.8416 219.9203 102.8655 254.7589 110.2458 283.6286 128.0252 283.8757 147.2062 251.1802 171.3835 220.8405 167.9892 203.9732 137.2149 168.985 111.4329 Z"/>
<path d="M 729.3509 308.5053 759.4486 311.3405 760.4887 329.2836 732.3359 345.067 729.3509 308.5053 Z"/>
<path d="M 300.3048 200.3348 305.9858 223.8933 291.4631 242.7035 313.2191 267.6716 310.6485 273.6241 265.2246 281.8544 265.5511 272.4273 249.9843 241.4058 245.563 208.0477 300.3048 200.3348 Z"/>
<path d="M 742.3334 176.9749 747.5434 206.0438 733.8168 197.3528 712.6409 202.7771 742.3334 176.9749 Z"/>
<path d="M 646.351 312.251 666.8102 308.5983 688.8115 314.1434 650.0677 335.2104 646.351 312.251 Z"/>
<path d="M 599.6617 343.4205 605.6716 346.7446 619.7557 370.1389 578.6638 370.3792 578.6095 367.4106 599.6617 343.4205 Z"/>
<path d="M 20.7388 330.4745 26.0045 336.0864 25.8329 336.1988 1 327.936 20.7388 330.4745 Z"/>
<path d="M 225.6201 266.521 233.4949 296.6353 192.0029 302.226 196.7391 287.2159 200.1068 273.6059 205.4005 249.9636 217.7025 258.968 225.6201 266.521 Z"/>
<path d="M 605.6716 346.7446 623.1366 355.8006 621.2197 370.0431 619.7557 370.1389 605.6716 346.7446 Z"/>
<path d="M 341.3276 238.8227 354.2273 221.6494 372.7808 257.4239 381.2815 272.7958 358.6806 305.2771 339.0791 312.6282 318.0129 303.1014 314.4199 296.7899 310.6485 273.6241 313.2191 267.6716 341.3276 238.8227 Z"/>
<path d="M 135.6068 319.8434 105.3368 336.2169 113.3856 319.2134 135.6068 319.8434 Z"/>
<path d="M 446.7472 449.4105 437.1122 469.297 409.0421 448.4399 409.9683 444.0508 446.7472 449.4105 Z"/>
<path d="M 72.234 318.2476 89.8596 306.0073 114.7692 306.379 113.3856 319.2134 105.3368 336.2169 99.6232 344.4082 74.6013 348.4777 72.5637 327.2206 72.234 318.2476 Z"/>
<path d="M 300.2124 14.9389 280.9538 29.1745 250.221 14.841 293.199 3.8472 300.2124 14.9389 Z"/>
<path d="M 782.8762 325.9171 780.3912 335.4807 766.6559 336.9949 766.8056 325.4531 782.8762 325.9171 Z"/>
<path d="M 372.8168 198.8578 395.8386 208.688 399.4268 232.1649 372.7808 257.4239 354.2273 221.6494 372.8168 198.8578 Z"/>
<path d="M 521.457 137.4441 542.4524 142.5314 532.8218 162.0141 557.09 186.5402 546.0115 227.9866 521.2468 240.7927 507.8154 231.7763 510.3003 198.5151 512.8078 191.9943 531.1034 147.125 521.457 137.4441 Z"/>
<path d="M 142.1268 263.9239 161.6631 275.5955 157.6417 286.0337 151.9787 299.9789 139.2105 298.5611 131.6908 279.7307 137.5835 269.53 142.1268 263.9239 Z"/>
<path d="M 510.3003 198.5151 507.8154 231.7763 445.024 209.2257 454.8009 196.3725 510.3003 198.5151 Z"/>
<path d="M 138.3401 232.7105 121.6467 260.9923 108.2443 266.296 102.0795 253.9181 100.5252 250.9661 126.5239 231.2371 138.3401 232.7105 Z"/>
<path d="M 541.2966 309.6696 553.1393 285.5975 563.898 278.3635 589.0934 299.0741 599.6617 343.4205 578.6095 367.4106 563.4565 329.3486 540.0376 336.0989 536.8609 329.463 541.2966 309.6696 Z"/>
<path d="M 695.9238 319.172 688.8115 314.1434 666.8102 308.5983 670.6468 307.3034 694.3016 294.1429 708.1273 298.114 695.9238 319.172 Z"/>
<path d="M 363.208 391.0732 360.0024 378.7856 402.1875 377.3221 420.2289 391.4422 410.8005 406.3795 389.8637 413.6676 363.208 391.0732 Z"/>
<path d="M 589.0934 299.0741 610.1579 279.4663 632.7377 301.3682 628.4658 303.4836 599.6617 343.4205 589.0934 299.0741 Z"/>
<path d="M 480.7477 59.1296 489.3149 96.8451 473.4198 123.2543 456.6213 130.4291 445.8301 89.6264 409.282 80.0478 412.2812 59.1752 480.7477 59.1296 Z"/>
<path d="M 171.6124 297.0559 174.2538 283.132 176.8447 278.006 196.7391 287.2159 192.0029 302.226 177.0096 317.4975 172.3136 311.1532 171.6124 297.0559 Z"/>
<path d="M 606.8071 92.114 608.2335 109.1075 568.2062 129.7222 559.6881 107.483 570.5244 98.0265 581.5657 93.8736 608.2389 87.8076 606.8071 92.114 Z"/>
<path d="M 496.8849 238.5413 472.4666 272.1616 449.5671 275.4554 451.1318 260.7023 484.8228 230.1403 496.8849 238.5413 Z"/>
<path d="M 720.4113 125.7769 685.9115 141.7662 699.8901 115.0409 707.9127 101.1149 720.4113 125.7769 Z"/>
<path d="M 668.815 358.5184 672.0162 355.5269 701.9588 347.5746 724.0418 352.3633 722.9903 362.6728 717.0249 382.4102 663.7808 370.3123 668.815 358.5184 Z"/>
<path d="M 150.519 249.899 186.4788 243.4699 177.9792 263.3856 176.8447 278.006 174.2538 283.132 161.6631 275.5955 142.1268 263.9239 144.9501 254.0637 150.519 249.899 Z"/>
<path d="M 562.6334 52.6494 557.437 91.9485 570.5244 98.0265 559.6881 107.483 537.3117 98.2655 548.9033 58.3494 562.6334 52.6494 Z"/>
<path d="M 409.282 80.0478 445.8301 89.6264 456.6213 130.4291 451.7972 132.7702 423.6405 123.7641 403.6398 101.7 409.282 80.0478 Z"/>
<path d="M 730.1727 225.1643 730.0742 229.6755 727.0428 253.7169 709.8901 260.1779 671.4636 274.941 669.0258 273.3493 665.8111 247.9671 675.3939 236.7693 688.1274 226.3511 730.1727 225.1643 Z"/>
<path d="M 641.2433 342.3838 650.0677 335.2104 672.0162 355.5269 668.815 358.5184 643.7858 355.0509 641.2433 342.3838 Z"/>
<path d="M 177.0096 317.4975 162.2456 336.8362 153.687 323.5338 177.0096 317.4975 Z"/>
<path d="M 521.2468 240.7927 546.0115 227.9866 567.8686 226.44 578.3457 241.0911 563.898 278.3635 553.1393 285.5975 520.799 299.37 514.0027 298.0154 505.3878 290.0663 521.2468 240.7927 Z"/>
<path d="M 627.4869 142.8556 653.9669 150.3906 652.5977 199.6448 652.5267 199.6552 627.0985 178.6475 627.4869 142.8556 Z"/>
<path d="M 473.4198 123.2543 489.3149 96.8451 509.7916 105.4256 521.457 137.4441 531.1034 147.125 512.8078 191.9943 466.759 173.92 473.4198 123.2543 Z"/>
</g>
</svg>