<?xml version="1.0"?>
<svg xmlns="http://www.w3.org/2000/svg" version="1.2" baseProfile="tiny" width="800" height="668" viewBox="0 0 800 668" stroke-linecap="round" stroke-linejoin="round">
<g id="11MUE250GC_SIR">
<path d="M 477.1544 361.8456 483.5349 357.2405 523.0571 357.1706 524.408 357.6881 522.6822 362.0483 460.5483 369.2953 477.1544 361.8456 Z"/>
<path d="M 551.7185 251.0314 552.4724 277.0504 526.9613 342.3878 500.1205 341.751 479.9394 320.2109 510.954 293.0467 529.5246 314.378 551.7185 251.0314 Z"/>
<path d="M 449.252 294.8722 462.8522 315.7086 407.8472 362.4738 401.5663 363.778 401.6779 366.2096 351.2839 354.7225 357.116 334.4693 362.6177 294.8867 399.5549 294.8538 449.252 294.8722 Z"/>
<path d="M 551.3438 422.4515 586.3242 422.312 593.9427 426.4316 595.6233 440.9186 592.1536 454.1368 554.0589 460.0276 535.3856 455.4197 551.3438 422.4515 Z"/>
<path d="M 363.2779 266.5152 362.6177 294.8867 357.116 334.4693 341.9745 335.4514 319.5479 325.0678 283.3029 260.2949 329.5542 275.8907 363.2779 266.5152 Z"/>
<path d="M 657.9788 353.2303 721.0998 352.9521 720.7163 408.4222 666.7813 441.4097 633.3249 415.9214 657.9278 400.6544 657.9788 353.2303 Z"/>
<path d="M 356.6464 452.114 381.6887 452.16 409.4526 494.5032 466.2461 498.606 510.0008 530.4368 463.5907 576.7268 437.0957 571.1988 344.5414 523.8142 308.7639 473.9796 356.6464 452.114 Z"/>
<path d="M 415.5332 181.8934 491.9431 181.8988 476.495 198.9185 462.2097 219.0776 412.6393 208.4693 415.5332 181.8934 Z"/>
<path d="M 551.3438 422.4515 535.3856 455.4197 517.1383 451.2908 531.2189 412.5863 551.3438 422.4515 Z"/>
<path d="M 596.0991 481.3016 609.3368 480.9924 635.8418 470.9688 636.9505 490.4272 618.1108 544.0205 591.9379 525.4895 579.135 521.0309 596.0991 481.3016 Z"/>
<path d="M 356.6464 452.114 345.1063 429.3868 353.874 424.4406 404.6175 410.4559 443.463 457.4882 409.4526 494.5032 381.6887 452.16 356.6464 452.114 Z"/>
<path d="M 599.5455 588.1879 688.0638 601.9698 688.2277 625.6245 616.7493 630.1533 599.5455 588.1879 Z"/>
<path d="M 692.475 625.6029 731.4263 624.885 691.4515 666.6205 667.5088 651.7119 692.475 625.6029 Z"/>
<path d="M 551.7185 251.0314 544.4671 245.2491 546.5982 231.4877 590.9462 204.4096 587.8402 254.8901 604.1234 286.3972 593.7931 352.5128 584.2477 352.5361 524.408 357.6881 523.0571 357.1706 526.9613 342.3878 552.4724 277.0504 551.7185 251.0314 Z"/>
<path d="M 457.5319 339.9189 477.1544 361.8456 460.5483 369.2953 401.5663 363.778 407.8472 362.4738 457.5319 339.9189 Z"/>
<path d="M 452.0451 97.01 425.5792 120.6209 378.289 131.6378 386.4374 170.6286 336.1256 166.7354 337.5839 101.2252 371.8925 62.2548 445.2491 62.246 452.0451 97.01 Z"/>
<path d="M 353.874 424.4406 351.2839 354.7225 401.6779 366.2096 485.481 421.2727 488.366 467.2323 466.2461 498.606 409.4526 494.5032 443.463 457.4882 404.6175 410.4559 353.874 424.4406 Z"/>
<path d="M 491.8601 214.6894 516.5423 240.9688 546.5982 231.4877 544.4671 245.2491 525.5532 263.606 463.0441 271.0184 491.8601 214.6894 Z"/>
<path d="M 599.5455 588.1879 618.571 544.0749 698.6835 585.4996 688.0638 601.9698 599.5455 588.1879 Z"/>
<path d="M 452.0451 97.01 498.1714 90.6452 504.4715 155.4729 491.9431 181.8988 415.5332 181.8934 412.8769 176.7324 455.6674 166.0892 452.0451 97.01 Z"/>
<path d="M 607.9525 352.6809 599.5211 393.0814 571.3678 393.0774 584.2477 352.5361 593.7931 352.5128 607.9525 352.6809 Z"/>
<path d="M 517.1383 451.2908 535.3856 455.4197 554.0589 460.0276 554.3031 466.9054 540.3338 486.5319 541.2053 563.4087 492.498 601.5715 437.0957 571.1988 463.5907 576.7268 510.0008 530.4368 466.2461 498.606 488.366 467.2323 517.1383 451.2908 Z"/>
<path d="M 354.7923 237.4083 400.066 256.8661 399.5549 294.8538 362.6177 294.8867 363.2779 266.5152 354.7923 237.4083 Z"/>
<path d="M 401.6779 366.2096 401.5663 363.778 460.5483 369.2953 522.6822 362.0483 530.3817 388.6797 485.481 421.2727 401.6779 366.2096 Z"/>
<path d="M 386.4374 170.6286 378.289 131.6378 425.5792 120.6209 452.0451 97.01 455.6674 166.0892 412.8769 176.7324 386.4374 170.6286 Z"/>
<path d="M 336.1256 166.7354 386.4374 170.6286 412.8769 176.7324 415.5332 181.8934 412.6393 208.4693 366.2235 217.9084 354.7923 237.4083 344.4789 217.8609 336.1256 166.7354 Z"/>
<path d="M 526.9613 342.3878 523.0571 357.1706 483.5349 357.2405 500.1205 341.751 526.9613 342.3878 Z"/>
<path d="M 586.0916 158.7552 590.9462 204.4096 546.5982 231.4877 516.5423 240.9688 491.8601 214.6894 491.9252 214.5481 586.0916 158.7552 Z"/>
<path d="M 720.7163 408.4222 739.5273 501.0868 698.9205 501.4305 636.9505 490.4272 635.8418 470.9688 609.6066 441.0148 595.6233 440.9186 593.9427 426.4316 633.3249 415.9214 666.7813 441.4097 720.7163 408.4222 Z"/>
<path d="M 152.0703 230.8573 267.8902 237.4083 283.3029 260.2949 319.5479 325.0678 341.9745 335.4514 291.6874 337.8402 230.7256 326.287 220.9524 290.6692 160.1327 302.4644 146.4079 287.4679 152.0703 230.8573 Z"/>
<path d="M 688.2277 625.6245 692.475 625.6029 667.5088 651.7119 556.5898 649.3644 527.8222 606.7958 553.3368 574.013 592.3659 551.8862 591.9379 525.4895 618.1108 544.0205 618.571 544.0749 599.5455 588.1879 616.7493 630.1533 688.2277 625.6245 Z"/>
<path d="M 479.9394 320.2109 500.1205 341.751 483.5349 357.2405 477.1544 361.8456 457.5319 339.9189 479.9394 320.2109 Z"/>
<path d="M 609.6066 441.0148 635.8418 470.9688 609.3368 480.9924 609.6066 441.0148 Z"/>
<path d="M 238.3019 496.0972 298.6992 444.0893 345.1063 429.3868 356.6464 452.114 308.7639 473.9796 344.5414 523.8142 312.008 532.7638 260.3003 523.1126 238.3019 496.0972 Z"/>
<path d="M 412.6393 208.4693 462.2097 219.0776 476.495 198.9185 491.9252 214.5481 491.8601 214.6894 463.0441 271.0184 462.9471 270.9681 400.066 256.8661 354.7923 237.4083 366.2235 217.9084 412.6393 208.4693 Z"/>
<path d="M 698.9205 501.4305 739.5273 501.0868 720.7163 408.4222 721.0998 352.9521 775.4024 371.4427 763.8258 419.8619 799 511.2874 735.9159 617.8073 703.2796 586.7933 722.6851 533.5076 698.9205 501.4305 Z"/>
<path d="M 554.3031 466.9054 579.135 521.0309 591.9379 525.4895 592.3659 551.8862 553.3368 574.013 527.8222 606.7958 492.498 601.5715 541.2053 563.4087 540.3338 486.5319 554.3031 466.9054 Z"/>
<path d="M 354.7923 237.4083 363.2779 266.5152 329.5542 275.8907 283.3029 260.2949 267.8902 237.4083 271.2749 219.9844 344.4789 217.8609 354.7923 237.4083 Z"/>
<path d="M 509.8765 71.0509 498.1714 90.6452 452.0451 97.01 445.2491 62.246 371.8925 62.2548 337.5839 101.2252 336.1256 166.7354 344.4789 217.8609 271.2749 219.9844 267.8902 237.4083 152.0703 230.8573 145.2283 200.8874 1 225.4647 30.4201 170.3788 77.6519 168.8367 105.7164 186.3424 213.3977 118.9037 291.1751 114.1742 351.9575 1.0775 440.0781 1 509.8765 71.0509 Z"/>
<path d="M 462.9471 270.9681 463.0441 271.0184 525.5532 263.606 510.954 293.0467 479.9394 320.2109 457.5319 339.9189 407.8472 362.4738 462.8522 315.7086 449.252 294.8722 462.9471 270.9681 Z"/>
<path d="M 530.3817 388.6797 546.8241 388.0484 531.2189 412.5863 517.1383 451.2908 488.366 467.2323 485.481 421.2727 530.3817 388.6797 Z"/>
<path d="M 525.5532 263.606 544.4671 245.2491 551.7185 251.0314 529.5246 314.378 510.954 293.0467 525.5532 263.606 Z"/>
<path d="M 636.9505 490.4272 698.9205 501.4305 722.6851 533.5076 703.2796 586.7933 698.6835 585.4996 618.571 544.0749 618.1108 544.0205 636.9505 490.4272 Z"/>
<path d="M 522.6822 362.0483 524.408 357.6881 584.2477 352.5361 571.3678 393.0774 565.1206 400.5926 546.8241 388.0484 530.3817 388.6797 522.6822 362.0483 Z"/>
<path d="M 592.1536 454.1368 596.0991 481.3016 579.135 521.0309 554.3031 466.9054 554.0589 460.0276 592.1536 454.1368 Z"/>
<path d="M 688.0638 601.9698 698.6835 585.4996 703.2796 586.7933 735.9159 617.8073 731.4263 624.885 692.475 625.6029 688.2277 625.6245 688.0638 601.9698 Z"/>
<path d="M 531.2189 412.5863 546.8241 388.0484 565.1206 400.5926 586.3242 422.312 551.3438 422.4515 531.2189 412.5863 Z"/>
<path d="M 509.8765 71.0509 526.6821 97.4314 584.8937 88.9282 603.2568 111.2623 586.0916 158.7552 491.9252 214.5481 476.495 198.9185 491.9431 181.8988 504.4715 155.4729 498.1714 90.6452 509.8765 71.0509 Z"/>
<path d="M 146.4079 287.4679 160.1327 302.4644 220.9524 290.6692 230.7256 326.287 291.6874 337.8402 341.9745 335.4514 357.116 334.4693 351.2839 354.7225 353.874 424.4406 345.1063 429.3868 298.6992 444.0893 238.3019 496.0972 187.5806 470.6335 155.3504 412.7098 161.6632 352.3319 146.4079 287.4679 Z"/>
<path d="M 595.6233 440.9186 609.6066 441.0148 609.3368 480.9924 596.0991 481.3016 592.1536 454.1368 595.6233 440.9186 Z"/>
<path d="M 462.9471 270.9681 449.252 294.8722 399.5549 294.8538 400.066 256.8661 462.9471 270.9681 Z"/>
<path d="M 593.9427 426.4316 586.3242 422.312 565.1206 400.5926 571.3678 393.0774 599.5211 393.0814 607.9525 352.6809 657.9788 353.2303 657.9278 400.6544 633.3249 415.9214 593.9427 426.4316 Z"/>
</g>
</svg>