<?xml version="1.0"?>
<svg xmlns="http://www.w3.org/2000/svg" version="1.2" baseProfile="tiny" width="800" height="950" viewBox="0 0 800 950" stroke-linecap="round" stroke-linejoin="round">
<g id="14MUE250GC_SIR">
<path d="M 595.1978 266.8104 659.4376 239.0612 643.5967 329.5416 679.2152 462.5452 618.7392 462.5442 609.4325 377.6467 559.9022 336.0123 595.1978 266.8104 Z"/>
<path d="M 547.8727 50.1912 563.9864 146.547 582.4926 236.6375 554.4544 255.4639 425.546 130.6295 503.3249 98.9075 547.8727 50.1912 Z"/>
<path d="M 498.1202 255.5378 554.4544 255.4639 582.4926 236.6375 595.1978 266.8104 559.9022 336.0123 521.5494 399.9347 498.1238 365.0615 498.1202 255.5378 Z"/>
<path d="M 683.9729 153.6866 710.2586 184.6253 659.4376 239.0612 595.1978 266.8104 582.4926 236.6375 563.9864 146.547 634.6829 133.2457 683.9729 153.6866 Z"/>
<path d="M 672.6594 565.971 725.0683 526.5866 798.9953 572.8793 799 710.691 722.0905 710.6867 667.6256 659.977 672.6594 565.971 Z"/>
<path d="M 498.1202 255.5378 498.1238 365.0615 224.8416 353.6225 177.4457 345.5755 72.5413 395.6676 36.0974 304.0128 43.0452 249.6197 91.1653 254.6223 130.8686 215.4753 237.8353 284.3193 319.6186 299.9228 380.7619 273.4412 498.1202 255.5378 Z"/>
<path d="M 602.9522 587.1087 619.2584 667.8102 635.7009 710.6859 583.9412 822.3197 546.2932 874.3057 486.8983 820.6977 432.7153 841.9354 408.5931 933.303 378.1439 948.6094 372.3051 908.0905 389.7337 704.0983 452.8222 606.1119 523.8523 596.265 539.0974 624.4141 602.9522 587.1087 Z"/>
<path d="M 547.8727 50.1912 541.4796 1 622.1566 1.556 642.5243 35.6211 618.861 104.7444 672.421 113.7959 683.9729 153.6866 634.6829 133.2457 563.9864 146.547 547.8727 50.1912 Z"/>
<path d="M 554.4544 255.4639 498.1202 255.5378 380.7619 273.4412 319.6186 299.9228 237.8353 284.3193 130.8686 215.4753 91.1653 254.6223 43.0452 249.6197 1 207.6143 44.8324 158.2232 73.8946 193.9965 182.9989 183.9506 214.3259 232.3885 250.0583 170.9287 334.1092 165.33 425.546 130.6295 554.4544 255.4639 Z"/>
<path d="M 602.9522 587.1087 643.6363 586.0612 619.2584 667.8102 602.9522 587.1087 Z"/>
<path d="M 224.8416 353.6225 498.1238 365.0615 521.5494 399.9347 507.0206 431.7232 395.1404 400.0561 306.6057 434.9277 237.7911 423.8873 201.8726 393.4001 224.8416 353.6225 Z"/>
<path d="M 618.7392 462.5442 679.2152 462.5452 725.0683 526.5866 672.6594 565.971 643.6363 586.0612 602.9522 587.1087 539.0974 624.4141 523.8523 596.265 452.8222 606.1119 389.7337 704.0983 372.3051 908.0905 378.1439 948.6094 283.6472 860.0504 328.3059 794.4241 290.555 718.7088 278.3277 651.8484 291.9854 611.3506 250.019 529.7234 361.2119 474.7707 495.0356 462.5456 535.0159 462.5674 565.6956 502.0846 618.7392 462.5442 Z"/>
<path d="M 521.5494 399.9347 559.9022 336.0123 609.4325 377.6467 618.7392 462.5442 565.6956 502.0846 535.0159 462.5674 495.0356 462.5456 507.0206 431.7232 521.5494 399.9347 Z"/>
<path d="M 643.6363 586.0612 672.6594 565.971 667.6256 659.977 722.0905 710.6867 635.7009 710.6859 619.2584 667.8102 643.6363 586.0612 Z"/>
<path d="M 72.5413 395.6676 177.4457 345.5755 224.8416 353.6225 201.8726 393.4001 237.7911 423.8873 306.6057 434.9277 395.1404 400.0561 507.0206 431.7232 495.0356 462.5456 361.2119 474.7707 250.019 529.7234 250.9859 468.1317 154.7984 426.8779 154.1843 400.1837 72.5413 395.6676 Z"/>
</g>
</svg>