<?xml version="1.0"?>
<svg xmlns="http://www.w3.org/2000/svg" version="1.2" baseProfile="tiny" width="800" height="673" viewBox="0 0 800 673" stroke-linecap="round" stroke-linejoin="round">
<g id="43MUE250GC_SIR">
<path d="M 535.6613 261.5064 553.7263 266.5386 547.9049 276.9301 534.1885 277.8304 535.6613 261.5064 Z"/>
<path d="M 494.2207 457.142 491.5058 470.1901 498.6992 486.2888 482.5158 482.0632 474.6619 463.2729 479.6868 455.6011 494.2207 457.142 Z"/>
<path d="M 449.2444 58.3352 453.4651 57.1527 457.3199 59.6722 453.5364 68.0544 446.8179 67.9735 444.9608 65.5022 449.2444 58.3352 Z"/>
<path d="M 467.8078 13.4931 485.001 12.0384 480.2931 25.8475 471.5924 23.0804 467.8078 13.4931 Z"/>
<path d="M 597.1063 244.0183 599.2672 242.0091 606.095 241.4833 607.4638 241.6001 608.7247 255.3478 599.9373 253.0401 597.1063 244.0183 Z"/>
<path d="M 276.4187 93.4218 269.0264 85.4246 280.278 79.3784 291.4456 93.4921 289.3809 98.389 282.3291 97.1913 276.4187 93.4218 Z"/>
<path d="M 386.3989 136.5623 388.2466 136.6174 393.7042 141.0681 389.6787 169.1516 384.544 173.6269 373.4066 174.4219 366.0859 169.0914 366.4962 157.8787 375.9281 145.3169 386.3989 136.5623 Z"/>
<path d="M 461.6368 88.6195 467.2902 87.7706 470.5177 96.9456 463.2356 96.2308 461.6368 88.6195 Z"/>
<path d="M 356.6733 49.6937 359.2516 57.3687 349.4214 54.6848 343.7268 51.1956 343.8832 47.9887 356.6733 49.6937 Z"/>
<path d="M 306.4281 247.065 312.4021 238.2866 321.9116 240.0396 329.3849 248.9135 315.6689 258.8533 306.4281 247.065 Z"/>
<path d="M 363.8723 319.4095 368.505 315.3838 390.0101 326.9682 379.5439 343.2574 375.3078 344.6357 363.8723 319.4095 Z"/>
<path d="M 431.5044 171.8514 433.5059 180.3923 422.3554 181.9412 424.7201 190.6854 413.3407 197.2531 407.7259 189.7844 407.5812 188.9539 405.7754 172.5369 418.0218 166.9714 431.5044 171.8514 Z"/>
<path d="M 218.6748 101.1925 230.8248 113.5731 224.484 121.4788 213.849 119.9679 211.7602 133.1882 204.069 126.7497 193.0525 134.5197 195.3776 126.8839 185.0682 116.8561 205.9789 108.985 218.6748 101.1925 Z"/>
<path d="M 607.4899 82.2673 620.0667 81.7012 620.5741 85.306 604.6721 89.3705 607.4899 82.2673 Z"/>
<path d="M 643.4714 280.5271 654.4293 280.9394 653.9994 289.8319 643.2812 288.2447 643.4714 280.5271 Z"/>
<path d="M 428.3598 257.7473 426.0924 257.2504 424.099 255.1144 425.8719 242.8385 435.2245 242.5187 428.3598 257.7473 Z"/>
<path d="M 368.633 77.4842 374.2481 81.9 389.2461 91.7517 382.6503 98.0504 373.0114 104.127 360.4598 90.9283 368.633 77.4842 Z"/>
<path d="M 581.8105 236.3105 584.4523 232.5987 587.9897 232.6264 597.0627 235.3655 597.0603 236.2193 599.2672 242.0091 597.1063 244.0183 584.3844 246.9078 578.7569 248.3768 581.8105 236.3105 Z"/>
<path d="M 396.5925 520.4303 406.0799 511.299 414.7921 515.6639 434.0405 518.3638 438.5486 529.2092 464.0035 539.1586 467.9122 546.7972 465.1618 556.0898 447.0893 562.8772 420.7863 551.739 417.3489 544.9258 399.8715 535.2562 396.5925 520.4303 Z"/>
<path d="M 590.1029 137.9315 604.3093 140.9311 603.8238 144.5811 592.0625 147.8732 586.3427 146.2058 587.8591 140.1826 590.1029 137.9315 Z"/>
<path d="M 644.2264 248.6995 646.1286 249.7204 647.023 255.7011 643.4988 255.7204 642.1177 252.3826 644.2264 248.6995 Z"/>
<path d="M 592.2235 207.2617 594.7567 202.6083 596.6316 203.2728 599.6579 212.4483 600.8159 213.573 597.858 214.9675 591.1254 214.4657 590.3167 212.1508 592.2235 207.2617 Z"/>
<path d="M 555.0662 26.173 560.9299 26.4664 562.877 35.5167 559.1088 39.9932 546.2722 32.732 555.0662 26.173 Z"/>
<path d="M 535.6461 180.8902 542.8524 190.5075 543.0786 197.3006 536.5516 206.5452 536.359 210.0042 522.7321 209.303 515.9103 196.8858 516.6754 184.2259 535.6461 180.8902 Z"/>
<path d="M 459.1011 86.5801 461.6368 88.6195 463.2356 96.2308 468.5877 110.4132 452.553 118.2523 439.0977 109.0709 445.4517 91.847 459.1011 86.5801 Z"/>
<path d="M 619.7087 256.2438 620.2023 250.9017 627.824 252.3938 627.3406 259.4164 623.6504 259.4714 619.7087 256.2438 Z"/>
<path d="M 648.1244 187.6339 650.677 180.7233 654.2865 181.0213 671.153 189.513 673.8539 195.8933 655.4394 196.7384 648.1244 187.6339 Z"/>
<path d="M 502.6692 133.9424 503.497 144.7683 499.1779 154.2358 492.3281 161.6699 488.204 157.8678 488.8561 155.771 489.1274 147.2941 495.9568 139.8338 502.6692 133.9424 Z"/>
<path d="M 367.3257 74.7143 366.0646 70.2286 378.6347 68.8577 374.2481 81.9 368.633 77.4842 367.3257 74.7143 Z"/>
<path d="M 596.7381 62.2018 610.0957 55.311 616.3497 64.5658 620.0667 81.7012 607.4899 82.2673 605.4437 80.5657 606.2083 70.9641 596.7381 62.2018 Z"/>
<path d="M 553.3401 94.9074 556.8749 90.1446 572.4963 92.4492 574.1221 103.7959 566.9453 105.5059 557.4624 104.3625 553.3401 94.9074 Z"/>
<path d="M 511.7307 17.76 523.5515 20.011 521.7716 41.4393 514.1826 40.6418 513.2033 39.5099 515.7105 31.2047 511.7307 17.76 Z"/>
<path d="M 622.8827 237.0634 619.1675 237.7515 607.9252 234.5984 622.8827 237.0634 Z"/>
<path d="M 557.959 167.3432 557.7245 164.3968 567.2025 163.8701 570.0292 169.3517 564.1687 177.4894 559.4855 174.2253 557.959 167.3432 Z"/>
<path d="M 464.7283 129.6274 470.98 130.8174 472.9173 147.0152 472.2792 151.5126 463.1318 151.9675 456.9213 142.2031 464.7283 129.6274 Z"/>
<path d="M 596.053 61.3981 596.7381 62.2018 606.2083 70.9641 605.4437 80.5657 592.9395 81.4009 589.6796 76.8634 590.871 70.4934 596.053 61.3981 Z"/>
<path d="M 514.1826 40.6418 521.7716 41.4393 529.1687 42.0592 531.1292 42.9305 531.327 58.2402 520.7182 58.4201 517.6929 52.4396 514.1826 40.6418 Z"/>
<path d="M 483.2325 42.263 463.2211 38.1169 475.8323 30.5309 483.2325 42.263 Z"/>
<path d="M 418.3994 26.954 421.7746 34.2707 415.171 36.9592 409.2862 31.3237 411.1846 30.6204 418.3994 26.954 Z"/>
<path d="M 549.4022 326.9701 549.8537 339.1362 531.2513 330.6831 515.2404 331.0198 512.2337 321.936 513.366 306.3592 523.704 302.6636 549.4022 326.9701 Z"/>
<path d="M 309.6559 133.2682 317.162 141.955 325.688 159.1367 325.7639 162.6522 330.5107 186.4937 325.7835 193.9049 320.0649 183.6613 306.8607 177.0503 296.1409 164.7713 290.2729 151.7061 296.3065 137.2407 309.6559 133.2682 Z"/>
<path d="M 486.0318 205.341 490.0914 208.0093 497.757 217.071 494.1882 224.4492 489.7286 230.2105 482.6181 226.5658 476.6127 214.2227 486.0318 205.341 Z"/>
<path d="M 582.4009 161.0934 581.2144 159.4707 582.0429 158.3566 595.4558 154.0334 599.2157 155.9507 599.3328 158.8913 582.4009 161.0934 Z"/>
<path d="M 293.568 99.2948 304.8806 101.9327 308.9735 104.1603 314.7132 117.3128 310.1202 120.5201 306.0503 122.6968 304.8672 122.4245 299.862 113.4202 293.568 99.2948 Z"/>
<path d="M 444.4748 22.9871 448.8157 20.0117 469.849 22.6286 452.3717 35.3504 450.4796 32.4581 444.4748 22.9871 Z"/>
<path d="M 345.7302 106.4302 356.9523 103.3631 349.7947 94.3634 356.0326 93.1118 360.4598 90.9283 373.0114 104.127 372.3484 114.1347 357.1929 127.038 350.5013 128.3431 349.4296 126.5103 353.1193 116.867 345.7302 106.4302 Z"/>
<path d="M 525.7087 21.0317 543.1848 24.8803 542.7381 32.685 541.7813 40.2033 531.1292 42.9305 529.1687 42.0592 525.7087 21.0317 Z"/>
<path d="M 438.8888 25.7963 444.4748 22.9871 450.4796 32.4581 446.4226 32.8053 438.476 29.2497 438.8888 25.7963 Z"/>
<path d="M 347.7388 72.0315 352.3342 80.6273 356.0326 93.1118 349.7947 94.3634 330.2837 74.4421 347.7388 72.0315 Z"/>
<path d="M 546.454 229.8824 549.3712 226.6504 561.8194 233.9152 553.0012 236.2807 545.5101 236.438 546.454 229.8824 Z"/>
<path d="M 446.8179 67.9735 453.5364 68.0544 459.2321 71.9891 457.9275 73.6724 453.4044 75.9385 444.4149 72.6303 446.8179 67.9735 Z"/>
<path d="M 593.4845 289.0453 604.3592 288.9333 598.0217 295.5553 585.7688 303.7403 581.4652 323.2293 573.6012 335.4378 575.4988 352.6692 568.6741 358.8397 567.674 352.5818 549.8537 339.1362 562.1358 334.5621 567.3961 319.5628 580.0813 312.1281 581.277 291.4161 587.8788 290.3296 593.4845 289.0453 Z"/>
<path d="M 623.6504 259.4714 627.3406 259.4164 638.9348 259.7045 635.8251 271.8231 629.9559 273.0279 623.6504 259.4714 Z"/>
<path d="M 539.9336 161.1924 540.8877 168.1926 557.959 167.3432 559.4855 174.2253 532.8295 174.633 539.9336 161.1924 Z"/>
<path d="M 326.7004 127.7846 349.4296 126.5103 350.5013 128.3431 349.9204 139.5435 329.082 148.3621 325.688 159.1367 317.162 141.955 326.0782 136.5225 326.7004 127.7846 Z"/>
<path d="M 593.3582 230.0232 597.0627 235.3655 587.9897 232.6264 593.3582 230.0232 Z"/>
<path d="M 732.6649 243.3986 740.9326 239.8524 750.8354 247.5987 752.4641 254.1241 762.8589 259.3765 762.2669 270.3569 756.4062 272.7787 745.3087 266.7313 735.963 262.0795 732.6649 243.3986 Z"/>
<path d="M 614.767 321.9888 633.7095 317.3012 645.9209 328.8455 640.0614 342.8773 617.2481 345.1818 613.8996 345.9761 612.7116 336.0741 614.767 321.9888 Z"/>
<path d="M 537.8946 115.5293 545.2781 110.3098 551.3443 116.9935 558.453 123.2928 557.4993 127.2923 544.2995 128.099 535.0741 122.9366 537.8946 115.5293 Z"/>
<path d="M 453.5364 68.0544 457.3199 59.6722 466.4754 71.3186 462.9707 72.7651 459.2321 71.9891 453.5364 68.0544 Z"/>
<path d="M 429.628 15.6892 431.8965 13.7663 438.8888 25.7963 438.476 29.2497 435.8531 31.5269 421.7746 34.2707 418.3994 26.954 415.6569 20.8081 424.2417 23.8647 429.628 15.6892 Z"/>
<path d="M 614.1848 245.1042 620.6703 243.5097 621.0757 244.1141 620.2023 250.9017 619.7087 256.2438 616.0432 251.7161 614.1848 245.1042 Z"/>
<path d="M 649.7941 237.8259 665.3798 238.4675 660.4843 240.7386 655.5024 245.0264 648.9045 243.3465 649.7941 237.8259 Z"/>
<path d="M 448.1325 397.8355 462.8595 387.4856 478.431 387.5777 471.9009 402.4075 474.2403 427.3964 465.7945 451.904 474.6619 463.2729 482.5158 482.0632 473.1803 485.0577 448.9663 485.3579 437.835 482.6895 431.3848 466.9078 444.864 448.1103 435.9469 444.8934 425.8685 427.199 430.4484 416.0634 441.1016 410.7703 448.1325 397.8355 Z"/>
<path d="M 598.1017 333.1742 612.7116 336.0741 613.8996 345.9761 600.4397 346.8417 590.228 345.4732 598.1017 333.1742 Z"/>
<path d="M 587.0322 112.0779 574.5915 116.8411 569.0961 120.5757 566.9453 105.5059 574.1221 103.7959 587.0322 112.0779 Z"/>
<path d="M 456.5145 231.0085 462.4327 227.4898 471.1 233.3688 463.4833 240.3774 455.3274 240.5961 456.5145 231.0085 Z"/>
<path d="M 641.0207 151.932 649.9612 155.9538 645.9326 164.7601 649.019 179.0677 622.6593 173.8456 621.9149 160.4995 626.6097 156.9888 641.0207 151.932 Z"/>
<path d="M 558.453 123.2928 563.871 123.0352 566.785 136.8477 559.5749 140.347 557.4993 127.2923 558.453 123.2928 Z"/>
<path d="M 83.2107 235.8588 95.2762 236.2011 114.5108 240.9267 123.7718 252.9515 124.3884 275.2277 137.2567 292.0666 146.7953 299.9856 129.6049 306.5592 95.5149 314.7566 76.1 303.4072 49.3568 305.9116 47.2408 300.9429 27.8574 291.5977 27.6998 283.0843 37.2208 272.2951 47.6715 271.2218 63.9044 258.4225 83.2107 235.8588 Z"/>
<path d="M 502.0826 109.7265 516.5176 104.6085 518.9187 109.3974 537.8946 115.5293 535.0741 122.9366 544.2995 128.099 521.0803 133.2858 505.2203 126.0683 497.8761 119.7606 502.0826 109.7265 Z"/>
<path d="M 617.3603 219.748 631.0709 227.0918 631.0644 228.9867 626.7541 228.9527 604.543 231.6612 602.9948 223.1547 617.3603 219.748 Z"/>
<path d="M 572.1079 80.8135 573.0114 91.5295 572.4963 92.4492 556.8749 90.1446 556.7008 86.0407 557.5578 83.0152 572.1079 80.8135 Z"/>
<path d="M 566.9453 105.5059 569.0961 120.5757 563.871 123.0352 558.453 123.2928 551.3443 116.9935 557.4624 104.3625 566.9453 105.5059 Z"/>
<path d="M 632.5055 189.8013 630.7513 199.4357 629.4444 200.4308 624.2373 199.4946 618.6825 195.3038 620.0613 185.9963 632.5055 189.8013 Z"/>
<path d="M 272.7561 62.0655 280.8833 66.185 277.7962 70.6007 263.0162 71.3205 272.7561 62.0655 Z"/>
<path d="M 503.4372 560.2742 522.8276 561.2313 515.8788 583.9575 502.8852 607.8906 487.4484 625.9502 449.1261 656.9501 427.5375 672.4828 422.2925 672.4715 434.564 664.1898 423.0817 653.977 412.1141 666.9652 411.1885 658.0512 420.6678 649.5082 422.0106 641.5537 417.5284 623.1502 421.2602 613.7336 436.8946 608.4078 447.2888 597.7188 450.0277 579.0682 457.8252 580.5832 464.7437 576.918 481.8447 588.7858 492.132 581.9551 503.4372 560.2742 Z"/>
<path d="M 762.2669 270.3569 762.8589 259.3765 774.5321 256.5697 766.0589 271.4552 762.2669 270.3569 Z"/>
<path d="M 651.4653 149.5173 641.0207 151.932 626.6097 156.9888 626.8277 147.0068 633.8614 126.1314 627.6355 122.4468 642.1838 108.0022 658.6509 115.9937 663.0714 130.4846 651.4653 149.5173 Z"/>
<path d="M 646.9987 234.7921 649.7941 237.8259 648.9045 243.3465 640.0704 244.2421 646.9987 234.7921 Z"/>
<path d="M 540.6972 159.3651 539.9336 161.1924 532.8295 174.633 535.6461 180.8902 516.6754 184.2259 515.9103 196.8858 509.3897 190.8985 497.7727 191.2155 490.0914 208.0093 486.0318 205.341 484.6283 197.8398 493.359 194.4566 492.7142 166.6751 502.8726 169.1507 503.8009 156.7959 508.8827 158.5157 530.9089 163.5231 534.1657 157.9318 536.7722 157.331 540.6972 159.3651 Z"/>
<path d="M 95.5149 314.7566 129.6049 306.5592 146.7953 299.9856 174.327 303.2986 175.5396 308.0055 194.731 317.3274 194.7545 322.4703 193.0203 334.0677 175.8295 338.2476 148.8905 340.548 132.699 348.1768 123.0056 344.4736 101.8103 324.2606 95.5149 314.7566 Z"/>
<path d="M 699.1085 261.3245 710.1329 265.7167 722.3673 262.1817 727.0402 264.7381 720.6558 271.4293 730.2254 280.1189 721.7339 299.6531 701.7492 298.8432 695.3499 292.3034 697.5788 273.2049 699.1085 261.3245 Z"/>
<path d="M 337.9195 41.8825 343.8832 47.9887 343.7268 51.1956 335.1713 59.6995 323.661 49.0528 337.9195 41.8825 Z"/>
<path d="M 598.0217 295.5553 604.2222 300.6211 597.9969 312.9585 598.4185 323.5964 590.1855 329.081 581.4652 323.2293 585.7688 303.7403 598.0217 295.5553 Z"/>
<path d="M 437.0511 43.8022 437.2433 40.0836 439.9857 41.5593 445.211 44.0195 441.5826 49.9223 437.0511 43.8022 Z"/>
<path d="M 592.0625 147.8732 603.8238 144.5811 606.3598 146.6525 606.6817 160.0409 599.2157 155.9507 595.4558 154.0334 592.0625 147.8732 Z"/>
<path d="M 570.3531 236.0239 570.7767 235.6495 581.8105 236.3105 578.7569 248.3768 577.7264 250.0186 570.7422 254.9905 568.938 243.7773 570.3531 236.0239 Z"/>
<path d="M 342.8562 236.5041 344.6152 242.1695 329.3849 248.9135 321.9116 240.0396 326.5019 234.9008 342.8562 236.5041 Z"/>
<path d="M 535.6461 180.8902 532.8295 174.633 559.4855 174.2253 564.1687 177.4894 564.8869 181.0352 557.878 181.1344 542.847 189.8999 542.8524 190.5075 535.6461 180.8902 Z"/>
<path d="M 346.8881 61.3256 356.8672 66.1321 357.1251 66.5664 351.2612 69.1359 346.8881 61.3256 Z"/>
<path d="M 282.3291 97.1913 289.3809 98.389 293.568 99.2948 299.862 113.4202 288.6428 113.4637 283.634 110.2781 282.3291 97.1913 Z"/>
<path d="M 630.6037 78.6212 628.6463 77.2055 635.6767 64.1464 656.936 75.0475 661.1373 81.0392 642.6363 90.4071 639.912 78.3808 630.6037 78.6212 Z"/>
<path d="M 378.4594 253.2585 395.4728 240.5191 394.0728 248.9393 387.4325 259.8715 378.4594 253.2585 Z"/>
<path d="M 584.3844 246.9078 597.1063 244.0183 599.9373 253.0401 602.0424 257.6515 600.3386 258.5258 590.0577 259.0116 586.2095 255.4732 584.3844 246.9078 Z"/>
<path d="M 503.4372 560.2742 492.132 581.9551 481.8447 588.7858 464.7437 576.918 457.8252 580.5832 450.0277 579.0682 447.2888 597.7188 436.8946 608.4078 421.2602 613.7336 417.5284 623.1502 422.0106 641.5537 420.6678 649.5082 411.1885 658.0512 413.6147 633.0237 412.571 612.85 420.0276 602.7113 440.1933 590.7893 435.1575 587.196 446.2264 582.2618 457.2716 571.1993 447.0893 562.8772 465.1618 556.0898 467.9122 546.7972 486.1503 541.2539 483.0904 530.7092 493.2573 513.9916 503.0308 510.9254 495.7111 528.4913 506.6668 549.9754 503.4372 560.2742 Z"/>
<path d="M 319.2124 62.8627 321.4258 62.3968 326.6265 75.8281 325.5498 84.067 316.0393 90.8939 303.7701 86.8927 301.7008 86.0475 294.7124 81.2948 303.9684 71.5819 317.7737 70.6255 319.2124 62.8627 Z"/>
<path d="M 435.2245 242.5187 438.1086 238.8252 451.0736 243.4193 461.9557 249.3137 459.0335 250.9685 446.0371 257.2667 447.2777 271.1781 428.3598 257.7473 435.2245 242.5187 Z"/>
<path d="M 437.835 482.6895 448.9663 485.3579 473.1803 485.0577 460.261 487.8264 452.3511 496.6535 441.4459 506.4114 434.0405 518.3638 414.7921 515.6639 406.0799 511.299 396.5925 520.4303 391.6305 506.3185 398.9337 495.2117 420.1923 480.1105 437.835 482.6895 Z"/>
<path d="M 648.7848 408.9595 682.8004 414.5971 648.0812 446.3407 642.8725 441.5996 650.9575 424.1584 648.7848 408.9595 Z"/>
<path d="M 564.1724 210.3569 565.7047 210.2293 569.4578 217.4859 562.18 220.477 554.4264 216.8688 564.1724 210.3569 Z"/>
<path d="M 472.0009 266.0762 475.0353 278.8895 456.9758 273.5907 460.6643 261.6471 472.0009 266.0762 Z"/>
<path d="M 639.4034 298.3659 636.2382 289.3891 639.8662 287.8824 643.2812 288.2447 653.9994 289.8319 658.1271 291.4962 658.2883 299.0926 655.5528 304.9531 660.5081 320.6457 643.8575 312.3117 639.4034 298.3659 Z"/>
<path d="M 587.8591 140.1826 586.3427 146.2058 585.7929 146.7751 574.7265 141.3832 575.3743 139.6679 587.8591 140.1826 Z"/>
<path d="M 351.2612 69.1359 357.1251 66.5664 366.0646 70.2286 367.3257 74.7143 352.3342 80.6273 347.7388 72.0315 351.2612 69.1359 Z"/>
<path d="M 393.5189 11.5169 392.4317 9.9252 404.3457 10.6168 409.0444 15.5115 408.2153 16.2592 400.3146 17.8771 393.5189 11.5169 Z"/>
<path d="M 519.187 440.9545 531.7286 436.8001 530.5676 446.4819 519.187 440.9545 Z"/>
<path d="M 443.3656 340.0594 455.8682 358.5687 466.0824 362.937 470.1175 378.308 462.8595 387.4856 448.1325 397.8355 422.7436 391.9532 423.1476 375.8481 438.7414 373.8409 446.4305 366.2167 440.6248 354.7588 443.3656 340.0594 Z"/>
<path d="M 578.6509 258.3387 570.5068 265.4294 568.9138 257.487 570.7422 254.9905 577.7264 250.0186 578.6509 258.3387 Z"/>
<path d="M 636.4497 299.9012 633.7095 317.3012 614.767 321.9888 608.0159 315.9152 622.4767 304.0102 636.4497 299.9012 Z"/>
<path d="M 675.8905 245.5734 675.9167 244.1079 686.1222 237.4199 701.4689 236.0989 698.3269 242.278 695.5523 245.6707 675.8905 245.5734 Z"/>
<path d="M 784.4457 236.29 778.8748 231.0419 779.0842 224.9986 784.4457 236.29 Z"/>
<path d="M 496.7212 21.382 503.4339 35.1436 492.5701 35.1367 496.7212 21.382 Z"/>
<path d="M 255.5833 186.6554 257.7253 178.1123 266.9276 174.1092 281.5414 180.1722 310.6717 211.4662 320.207 202.5361 326.8929 212.3831 313.2451 226.5338 288.103 232.9814 279.7378 225.6352 270.2453 226.468 249.5823 213.4883 264.1873 199.0309 255.5833 186.6554 Z"/>
<path d="M 306.7012 55.1977 321.1197 46.7677 323.661 49.0528 335.1713 59.6995 321.4258 62.3968 319.2124 62.8627 306.7012 55.1977 Z"/>
<path d="M 760.9051 140.8644 770.7886 136.9261 793.2574 142.3549 799 155.2195 790.1632 156.0382 771.7418 170.4478 772.8003 182.6954 754.8996 175.3324 748.2984 177.2451 746.5493 175.5877 757.6754 156.9449 765.221 156.5847 760.9051 140.8644 Z"/>
<path d="M 576.1503 352.1594 590.228 345.4732 600.4397 346.8417 596.4576 364.1478 576.1503 352.1594 Z"/>
<path d="M 288.103 232.9814 313.2451 226.5338 321.9116 240.0396 312.4021 238.2866 306.4281 247.065 283.0735 256.5167 279.6586 244.5006 288.103 232.9814 Z"/>
<path d="M 445.9508 10.9108 448.8157 20.0117 444.4748 22.9871 438.8888 25.7963 431.8965 13.7663 432.3417 12.6912 445.9508 10.9108 Z"/>
<path d="M 372.012 215.7354 361.1922 234.323 353.8586 240.0079 344.6152 242.1695 342.8562 236.5041 348.0448 222.2501 356.8507 213.523 361.1134 204.123 372.012 215.7354 Z"/>
<path d="M 276.44 97.0909 276.4187 93.4218 282.3291 97.1913 283.634 110.2781 277.5105 108.7436 276.44 97.0909 Z"/>
<path d="M 648.1244 187.6339 655.4394 196.7384 652.2396 202.2959 637.2914 204.9116 629.4444 200.4308 630.7513 199.4357 640.2809 189.772 648.1244 187.6339 Z"/>
<path d="M 581.4652 323.2293 590.1855 329.081 598.4185 323.5964 598.1017 333.1742 590.228 345.4732 576.1503 352.1594 575.4988 352.6692 573.6012 335.4378 581.4652 323.2293 Z"/>
<path d="M 473.2648 212.1765 476.6127 214.2227 482.6181 226.5658 471.1 233.3688 462.4327 227.4898 462.8102 220.2924 473.2648 212.1765 Z"/>
<path d="M 531.9519 364.3218 539.7 375.0687 546.7357 371.5967 553.7488 383.7141 555.7996 386.2337 540.7021 383.6738 522.7754 386.8389 519.7511 374.9251 524.1285 360.5824 531.9519 364.3218 Z"/>
<path d="M 377.0815 293.8402 383.9344 294.9506 399.0656 283.6251 400.3893 294.4531 410.5116 300.6386 428.8948 296.0814 439.2622 290.1689 452.2144 291.2271 434.2756 308.4469 417.142 321.9319 417.8413 327.5991 402.8983 332.5816 389.6557 346.3044 379.5439 343.2574 390.0101 326.9682 368.505 315.3838 366.4722 311.5513 377.0815 293.8402 Z"/>
<path d="M 455.3274 240.5961 463.4833 240.3774 468.6974 245.4999 466.9495 249.6819 461.9557 249.3137 451.0736 243.4193 455.3274 240.5961 Z"/>
<path d="M 597.858 214.9675 600.8159 213.573 617.1635 213.483 617.3603 219.748 602.9948 223.1547 601.2295 223.1786 597.858 214.9675 Z"/>
<path d="M 602.7594 370.1697 603.2091 369.6416 621.5379 382.502 618.0746 398.5382 612.5568 407.0195 605.7502 400.233 606.2551 390.6805 591.713 379.1524 602.7594 370.1697 Z"/>
<path d="M 383.019 49.6859 383.0118 41.8329 396.1586 46.9248 390.6752 58.3023 390.3243 58.1873 383.019 49.6859 Z"/>
<path d="M 515.9103 196.8858 522.7321 209.303 521.8138 215.063 515.2905 218.4228 497.757 217.071 490.0914 208.0093 497.7727 191.2155 509.3897 190.8985 515.9103 196.8858 Z"/>
<path d="M 556.9147 42.7613 559.1088 39.9932 562.877 35.5167 576.8207 49.9593 576.3424 57.3502 567.6837 64.2402 565.754 61.6224 561.7206 56.6795 556.9147 42.7613 Z"/>
<path d="M 596.8059 107.6178 602.6706 117.97 595.6477 124.0538 580.2659 117.9527 574.5915 116.8411 587.0322 112.0779 596.8059 107.6178 Z"/>
<path d="M 231.039 158.874 240.4289 160.0546 266.9276 174.1092 257.7253 178.1123 255.5833 186.6554 239.9348 191.6161 230.685 188.8032 207.4256 163.9138 219.5591 158.2063 231.039 158.874 Z"/>
<path d="M 424.4964 117.0384 433.4481 112.1744 439.0977 109.0709 452.553 118.2523 452.8129 122.5396 447.5994 134.5117 450.9816 140.8863 440.1327 141.2111 438.3825 149.7838 422.4401 152.0334 418.0997 148.4203 418.432 142.1508 427.2215 131.5279 424.4964 117.0384 Z"/>
<path d="M 562.18 220.477 569.4578 217.4859 574.023 222.897 562.4978 226.6503 562.18 220.477 Z"/>
<path d="M 412.1141 666.9652 423.0817 653.977 434.564 664.1898 422.2925 672.4715 412.1141 666.9652 Z"/>
<path d="M 228.6371 89.0391 243.7101 93.4924 251.6576 100.2019 248.1814 111.3726 225.0279 95.9114 228.6371 89.0391 Z"/>
<path d="M 580.2659 117.9527 595.6477 124.0538 594.4978 129.8054 582.6998 128.5116 580.2659 117.9527 Z"/>
<path d="M 655.1081 248.3907 655.5024 245.0264 660.4843 240.7386 669.7563 248.129 661.9256 250.1733 654.9796 249.0864 655.1081 248.3907 Z"/>
<path d="M 561.0871 240.8588 568.938 243.7773 570.7422 254.9905 568.9138 257.487 555.6638 248.8439 551.5627 242.4661 561.0871 240.8588 Z"/>
<path d="M 598.0213 202.4386 603.2011 195.6597 615.9686 201.7113 624.1302 209.2218 617.1635 213.483 600.8159 213.573 599.6579 212.4483 598.0213 202.4386 Z"/>
<path d="M 536.359 210.0042 536.5516 206.5452 544.4595 203.0432 546.1968 205.3011 549.789 215.1312 549.0973 216.3308 540.7678 213.3791 536.359 210.0042 Z"/>
<path d="M 574.1286 195.7608 584.6531 194.9179 588.1333 202.9688 575.23 204.3063 573.3512 201.0866 574.1286 195.7608 Z"/>
<path d="M 651.4653 149.5173 663.0714 130.4846 658.6509 115.9937 666.706 88.755 674.5368 89.6123 681.0981 106.5817 692.1962 117.5708 696.2561 129.1065 694.4661 153.0368 684.1776 148.3478 675.6941 159.31 671.0606 172.2727 665.9111 157.5198 651.4653 149.5173 Z"/>
<path d="M 296.2811 60.7472 303.9684 71.5819 294.7124 81.2948 279.9564 76.4454 277.7962 70.6007 280.8833 66.185 296.2811 60.7472 Z"/>
<path d="M 383.9471 102.8084 402.3038 107.1862 400.1978 118.5032 392.8878 122.5586 383.0004 121.2281 379.8771 111.5335 383.9471 102.8084 Z"/>
<path d="M 713.044 319.9109 731.7968 314.2991 742.4008 325.2166 734.0848 345.0006 698.523 345.0005 709.8335 343.0491 713.044 319.9109 Z"/>
<path d="M 132.699 348.1768 148.8905 340.548 175.8295 338.2476 193.0203 334.0677 194.7545 322.4703 202.5163 333.2699 220.811 337.8236 228.2695 345.4781 239.5438 346.7735 256.3142 339.0033 257.4644 358.4309 261.7394 367.6389 259.9774 380.5834 252.1373 386.5713 251.0705 396.2557 254.8639 416.6699 259.3368 424.0766 255.4278 428.9424 237.692 416.211 225.4546 397.7729 204.4552 379.2618 198.1073 386.4823 175.0197 402.6357 160.0712 399.8131 163.0108 381.2584 159.5847 373.7729 146.8122 365.6699 143.018 355.4915 132.699 348.1768 Z"/>
<path d="M 193.0525 134.5197 204.069 126.7497 211.7602 133.1882 209.5542 138.6984 194.3561 142.7947 190.2444 158.4282 207.4256 163.9138 230.685 188.8032 233.3618 192.595 225.2603 190.6116 194.0776 195.0952 162.4503 187.8401 153.7311 178.9806 138.5623 187.1437 129.3258 185.8515 131.7017 174.0762 142.3636 170.7525 161.7296 150.87 163.1591 142.7732 173.6819 140.8595 174.9862 128.5502 193.0525 134.5197 Z"/>
<path d="M 514.2145 140.5412 521.0803 133.2858 544.2995 128.099 557.4993 127.2923 559.5749 140.347 556.9386 142.5216 544.5001 141.2231 542.1096 147.851 536.7722 157.331 534.1657 157.9318 526.4037 149.9443 526.3339 139.6949 514.2145 140.5412 Z"/>
<path d="M 626.114 237.2242 626.3608 235.6996 633.321 234.8153 633.5258 236.5889 632.879 245.6169 628.8668 249.2358 626.8181 246.4623 626.114 237.2242 Z"/>
<path d="M 567.2025 163.8701 559.4108 154.5055 566.4499 160.3824 581.2144 159.4707 582.4009 161.0934 580.4135 168.7162 570.0292 169.3517 567.2025 163.8701 Z"/>
<path d="M 435.8531 31.5269 438.476 29.2497 446.4226 32.8053 439.9857 41.5593 437.2433 40.0836 435.8531 31.5269 Z"/>
<path d="M 546.454 229.8824 545.5101 236.438 543.8206 239.4251 534.0514 233.0704 535.6019 229.1852 546.454 229.8824 Z"/>
<path d="M 469.6206 167.1218 468.5051 180.3191 458.757 176.2554 461.4392 169.5922 469.6206 167.1218 Z"/>
<path d="M 308.9735 104.1603 311.8602 101.8579 323.1496 106.5539 314.7132 117.3128 308.9735 104.1603 Z"/>
<path d="M 497.757 217.071 515.2905 218.4228 511.8455 226.6727 494.1882 224.4492 497.757 217.071 Z"/>
<path d="M 398.3957 124.8141 418.432 142.1508 418.0997 148.4203 393.7042 141.0681 388.2466 136.6174 398.3957 124.8141 Z"/>
<path d="M 626.3608 235.6996 626.7541 228.9527 631.0644 228.9867 633.321 234.8153 626.3608 235.6996 Z"/>
<path d="M 463.1318 151.9675 472.2792 151.5126 473.3071 152.6323 472.4197 166.1682 469.6206 167.1218 461.4392 169.5922 461.8331 162.1529 463.1318 151.9675 Z"/>
<path d="M 570.0292 169.3517 580.4135 168.7162 582.6851 171.0562 586.9788 181.733 587.9647 187.0188 574.6025 188.1908 564.8869 181.0352 564.1687 177.4894 570.0292 169.3517 Z"/>
<path d="M 571.6391 270.0592 570.5068 265.4294 578.6509 258.3387 586.2095 255.4732 590.0577 259.0116 593.7284 265.7269 594.5169 280.3681 584.5073 280.4777 571.6391 270.0592 Z"/>
<path d="M 422.4401 152.0334 438.3825 149.7838 440.1327 141.2111 450.9816 140.8863 456.9213 142.2031 463.1318 151.9675 461.8331 162.1529 440.602 161.3515 422.4401 152.0334 Z"/>
<path d="M 572.4963 92.4492 573.0114 91.5295 602.8506 97.2848 596.8059 107.6178 587.0322 112.0779 574.1221 103.7959 572.4963 92.4492 Z"/>
<path d="M 605.4437 80.5657 607.4899 82.2673 604.6721 89.3705 598.5432 90.7697 592.9395 81.4009 605.4437 80.5657 Z"/>
<path d="M 361.182 58.8968 372.2519 61.4156 381.9379 68.6293 378.6347 68.8577 366.0646 70.2286 357.1251 66.5664 356.8672 66.1321 361.182 58.8968 Z"/>
<path d="M 451.5511 36.3374 461.3226 37.3386 468.67 50.1743 470.3093 50.8967 454.7519 56.7737 452.917 50.9222 450.3418 44.2567 451.5511 36.3374 Z"/>
<path d="M 556.7008 86.0407 556.8749 90.1446 553.3401 94.9074 549.2619 99.906 527.3166 100.6784 514.7451 96.1122 507.3652 87.0051 513.0445 86.6501 532.0737 90.1049 542.9594 89.4423 556.7008 86.0407 Z"/>
<path d="M 526.4037 149.9443 510.7297 147.7477 510.1095 145.9724 514.2145 140.5412 526.3339 139.6949 526.4037 149.9443 Z"/>
<path d="M 211.7602 133.1882 213.849 119.9679 224.484 121.4788 230.8248 113.5731 234.4259 124.3033 242.6274 126.649 246.4055 135.6626 237.3394 156.7309 231.039 158.874 219.5591 158.2063 207.4256 163.9138 190.2444 158.4282 194.3561 142.7947 209.5542 138.6984 211.7602 133.1882 Z"/>
<path d="M 351.0755 148.4915 366.4962 157.8787 366.0859 169.0914 373.4066 174.4219 368.6802 183.1896 350.3066 181.5983 330.5107 186.4937 325.7639 162.6522 344.0271 159.1258 351.0755 148.4915 Z"/>
<path d="M 482.6181 226.5658 489.7286 230.2105 489.3505 234.3371 487.7054 238.1158 485.2801 243.4877 468.6974 245.4999 463.4833 240.3774 471.1 233.3688 482.6181 226.5658 Z"/>
<path d="M 546.915 222.3877 540.7678 213.3791 549.0973 216.3308 559.4527 229.2044 562.3611 233.9664 561.8194 233.9152 549.3712 226.6504 546.915 222.3877 Z"/>
<path d="M 574.3106 143.9998 573.9357 142.3779 574.7265 141.3832 585.7929 146.7751 580.6591 152.0946 574.3106 143.9998 Z"/>
<path d="M 594.5169 280.3681 593.7284 265.7269 600.3386 258.5258 602.0424 257.6515 617.1543 276.5766 629.8264 278.005 639.8662 287.8824 636.2382 289.3891 623.0285 292.8055 615.6492 287.1785 604.3592 288.9333 593.4845 289.0453 594.5169 280.3681 Z"/>
<path d="M 731.7968 314.2991 728.0278 310.3743 736.8139 309.237 745.1999 318.308 742.4008 325.2166 731.7968 314.2991 Z"/>
<path d="M 694.4661 153.0368 696.2561 129.1065 692.1962 117.5708 700.6636 126.5975 724.5399 136.2527 743.3591 136.0996 760.9051 140.8644 765.221 156.5847 757.6754 156.9449 746.5493 175.5877 736.1405 177.2854 723.4891 172.0519 706.8166 174.2813 696.5434 172.7829 699.7388 157.8594 694.4661 153.0368 Z"/>
<path d="M 437.9864 212.7057 443.619 220.1225 441.5729 228.8069 440.846 235.0462 433.3318 237.6336 420.5324 227.6492 418.3108 214.3326 437.9864 212.7057 Z"/>
<path d="M 392.8878 122.5586 398.3957 124.8141 388.2466 136.6174 386.3989 136.5623 380.5154 131.4911 383.0004 121.2281 392.8878 122.5586 Z"/>
<path d="M 444.0725 52.0913 452.917 50.9222 454.7519 56.7737 453.4651 57.1527 449.2444 58.3352 442.6962 57.4056 444.0725 52.0913 Z"/>
<path d="M 326.8929 212.3831 320.207 202.5361 325.7835 193.9049 330.5107 186.4937 350.3066 181.5983 368.6802 183.1896 373.4066 174.4219 384.544 173.6269 397.4659 187.1595 407.5812 188.9539 407.7259 189.7844 388.3988 210.002 379.2172 207.7675 372.012 215.7354 361.1134 204.123 356.8507 213.523 346.7424 212.8846 334.2554 204.2798 326.8929 212.3831 Z"/>
<path d="M 672.2039 253.7127 672.2128 249.2301 677.1018 249.1426 681.3554 252.4822 676.3433 257.2053 672.2039 253.7127 Z"/>
<path d="M 617.2481 345.1818 640.0614 342.8773 636.3407 358.4959 628.3937 359.4073 621.5379 382.502 603.2091 369.6416 608.333 365.3798 617.2481 345.1818 Z"/>
<path d="M 412.5558 241.0153 413.6869 245.6726 409.3928 251.4494 406.048 251.7208 412.5558 241.0153 Z"/>
<path d="M 301.7008 86.0475 303.7701 86.8927 304.8806 101.9327 293.568 99.2948 289.3809 98.389 291.4456 93.4921 301.7008 86.0475 Z"/>
<path d="M 654.4293 280.9394 656.6341 281.1723 656.6756 281.225 659.3866 291.0943 658.1271 291.4962 653.9994 289.8319 654.4293 280.9394 Z"/>
<path d="M 499.1779 154.2358 503.8009 156.7959 502.8726 169.1507 492.7142 166.6751 492.3281 161.6699 499.1779 154.2358 Z"/>
<path d="M 326.8929 212.3831 334.2554 204.2798 346.7424 212.8846 356.8507 213.523 348.0448 222.2501 342.8562 236.5041 326.5019 234.9008 321.9116 240.0396 313.2451 226.5338 326.8929 212.3831 Z"/>
<path d="M 668.3317 225.8449 677.9516 222.5456 686.1222 237.4199 675.9167 244.1079 668.7451 232.8745 668.3317 225.8449 Z"/>
<path d="M 602.0424 257.6515 599.9373 253.0401 608.7247 255.3478 616.0432 251.7161 619.7087 256.2438 623.6504 259.4714 629.9559 273.0279 629.8264 278.005 617.1543 276.5766 602.0424 257.6515 Z"/>
<path d="M 728.0278 310.3743 730.7802 302.0947 732.6269 299.807 750.6393 304.232 745.1999 318.308 736.8139 309.237 728.0278 310.3743 Z"/>
<path d="M 441.5729 228.8069 447.9341 227.9539 456.5145 231.0085 455.3274 240.5961 451.0736 243.4193 438.1086 238.8252 440.846 235.0462 441.5729 228.8069 Z"/>
<path d="M 459.0335 250.9685 460.6643 261.6471 456.9758 273.5907 453.8461 279.5044 447.2777 271.1781 446.0371 257.2667 459.0335 250.9685 Z"/>
<path d="M 779.0842 224.9986 779.3315 219.6044 777.7784 215.1921 796.5349 227.0178 787.7161 238.2005 784.4457 236.29 779.0842 224.9986 Z"/>
<path d="M 588.0938 223.6373 596.0811 224.1828 593.3582 230.0232 587.9897 232.6264 584.4523 232.5987 582.0926 228.2119 588.0938 223.6373 Z"/>
<path d="M 619.1675 237.7515 620.6703 243.5097 614.1848 245.1042 607.4638 241.6001 606.095 241.4833 605.4675 235.014 607.9252 234.5984 619.1675 237.7515 Z"/>
<path d="M 561.7206 56.6795 565.754 61.6224 557.3245 72.3438 556.6938 71.7143 550.854 65.6247 550.2184 59.0539 561.7206 56.6795 Z"/>
<path d="M 255.572 93.4688 270.2167 98.2863 268.6024 110.9054 267.1171 111.3112 260.4866 110.153 251.6576 100.2019 243.7101 93.4924 228.6371 89.0391 234.8985 85.7006 247.0531 95.9645 255.572 93.4688 Z"/>
<path d="M 381.5363 35.8028 394.0957 36.7256 396.1586 46.9248 383.0118 41.8329 381.2664 40.8858 381.5363 35.8028 Z"/>
<path d="M 448.1325 397.8355 441.1016 410.7703 430.4484 416.0634 425.8685 427.199 435.9469 444.8934 444.864 448.1103 431.3848 466.9078 437.835 482.6895 420.1923 480.1105 412.5931 461.3075 402.0172 456.4976 408.2612 436.561 399.1872 429.552 411.3774 419.8489 420.1552 391.7905 422.7436 391.9532 448.1325 397.8355 Z"/>
<path d="M 475.5282 67.3146 478.1672 59.3072 489.1324 61.2637 500.6963 77.5994 505.4869 80.9988 504.4269 86.1182 490.4181 86.754 487.9111 83.9365 475.5282 67.3146 Z"/>
<path d="M 557.878 181.1344 556.5552 191.4641 542.847 189.8999 557.878 181.1344 Z"/>
<path d="M 438.5038 208.0232 419.8828 202.1857 423.8492 193.628 441.1601 189.0255 449.6002 195.9499 463.2116 209.1728 458.4487 211.8115 455.3844 207.575 438.5038 208.0232 Z"/>
<path d="M 378.6347 68.8577 381.9379 68.6293 386.1195 67.7133 395.5179 85.5325 401.8608 87.0132 405.7523 96.5022 389.2461 91.7517 374.2481 81.9 378.6347 68.8577 Z"/>
<path d="M 315.6689 258.8533 329.3849 248.9135 344.6152 242.1695 353.8586 240.0079 363.9381 250.7501 350.5559 262.8118 333.1141 267.8564 314.2383 268.4266 315.6689 258.8533 Z"/>
<path d="M 95.2762 236.2011 101.6368 233.166 132.5526 235.5824 143.6006 225.9806 162.1403 227.2889 177.1034 234.9825 208.4577 260.3301 224.7646 255.5412 238.3628 256.0904 248.5391 263.6943 250.6541 270.8988 247.9445 281.3044 239.7643 287.2977 231.3342 302.6408 215.338 302.3748 208.5754 310.9143 197.0845 309.2378 194.731 317.3274 175.5396 308.0055 174.327 303.2986 146.7953 299.9856 137.2567 292.0666 124.3884 275.2277 123.7718 252.9515 114.5108 240.9267 95.2762 236.2011 Z"/>
<path d="M 459.9378 80.5302 467.2902 87.7706 461.6368 88.6195 459.1011 86.5801 459.9378 80.5302 Z"/>
<path d="M 288.103 232.9814 279.6586 244.5006 270.2453 226.468 279.7378 225.6352 288.103 232.9814 Z"/>
<path d="M 352.6705 22.0428 358.3696 18.1525 372.1755 24.1526 361.4095 31.9109 352.6705 22.0428 Z"/>
<path d="M 727.0402 264.7381 735.963 262.0795 745.3087 266.7313 739.9504 277.7471 730.2254 280.1189 720.6558 271.4293 727.0402 264.7381 Z"/>
<path d="M 665.3798 238.4675 668.7451 232.8745 675.9167 244.1079 675.8905 245.5734 677.1018 249.1426 672.2128 249.2301 669.7563 248.129 660.4843 240.7386 665.3798 238.4675 Z"/>
<path d="M 231.3342 302.6408 252.7406 299.8367 284.1949 303.9479 292.9381 297.3613 300.2552 306.8981 287.063 322.9369 286.214 336.4947 290.7345 354.9239 278.2292 368.6614 261.7394 367.6389 257.4644 358.4309 256.3142 339.0033 239.5438 346.7735 228.2695 345.4781 220.811 337.8236 202.5163 333.2699 194.7545 322.4703 194.731 317.3274 197.0845 309.2378 208.5754 310.9143 215.338 302.3748 231.3342 302.6408 Z"/>
<path d="M 706.8166 174.2813 723.4891 172.0519 736.1405 177.2854 746.5493 175.5877 748.2984 177.2451 740.5564 194.9042 731.7341 205.2738 724.7605 206.8217 720.3345 187.8787 706.8166 174.2813 Z"/>
<path d="M 409.8949 264.5483 411.4085 263.7092 426.0924 257.2504 428.3598 257.7473 447.2777 271.1781 453.8461 279.5044 452.2144 291.2271 439.2622 290.1689 409.4311 281.0489 409.8949 264.5483 Z"/>
<path d="M 556.6938 71.7143 557.3245 72.3438 570.9351 74.9836 572.1079 80.8135 557.5578 83.0152 556.6938 71.7143 Z"/>
<path d="M 587.1366 407.8906 573.4943 400.0383 560.2197 411.5999 551.5466 396.0179 541.1536 393.9249 540.7021 383.6738 555.7996 386.2337 577.7661 386.5556 587.1366 407.8906 Z"/>
<path d="M 422.4401 152.0334 440.602 161.3515 438.5631 166.1668 431.5044 171.8514 418.0218 166.9714 405.7754 172.5369 407.5812 188.9539 397.4659 187.1595 384.544 173.6269 389.6787 169.1516 393.7042 141.0681 418.0997 148.4203 422.4401 152.0334 Z"/>
<path d="M 472.9173 147.0152 489.1274 147.2941 488.8561 155.771 473.3071 152.6323 472.2792 151.5126 472.9173 147.0152 Z"/>
<path d="M 624.1302 209.2218 624.2373 199.4946 629.4444 200.4308 637.2914 204.9116 639.9282 223.2502 639.6252 225.0409 631.0709 227.0918 617.3603 219.748 617.1635 213.483 624.1302 209.2218 Z"/>
<path d="M 404.3457 10.6168 415.609 11.0633 429.628 15.6892 424.2417 23.8647 415.6569 20.8081 409.0444 15.5115 404.3457 10.6168 Z"/>
<path d="M 177.1034 234.9825 198.4065 217.8798 214.4399 213.5018 216.5866 215.1774 216.5815 226.2965 229.2976 244.953 224.7646 255.5412 208.4577 260.3301 177.1034 234.9825 Z"/>
<path d="M 541.1536 393.9249 551.5466 396.0179 560.2197 411.5999 573.4943 400.0383 587.1366 407.8906 584.8911 424.2631 574.0137 426.7892 564.8476 445.9928 547.563 434.0975 537.8734 434.8403 523.2014 429.3706 517.8858 420.1462 525.0659 410.3679 536.6858 404.3574 541.1536 393.9249 Z"/>
<path d="M 752.1803 293.0825 755.7962 292.0243 750.6393 304.232 732.6269 299.807 752.1803 293.0825 Z"/>
<path d="M 632.5055 189.8013 640.2809 189.772 630.7513 199.4357 632.5055 189.8013 Z"/>
<path d="M 438.5631 166.1668 440.602 161.3515 461.8331 162.1529 461.4392 169.5922 458.757 176.2554 452.3963 178.0135 449.3987 168.3947 438.5631 166.1668 Z"/>
<path d="M 457.3199 59.6722 453.4651 57.1527 454.7519 56.7737 470.3093 50.8967 473.1032 53.001 473.7699 66.0503 466.4754 71.3186 457.3199 59.6722 Z"/>
<path d="M 365.8174 44.4808 373.3839 44.9915 374.2539 51.6085 360.1946 57.6529 359.2516 57.3687 356.6733 49.6937 365.8174 44.4808 Z"/>
<path d="M 626.7541 228.9527 626.3608 235.6996 626.114 237.2242 622.8827 237.0634 607.9252 234.5984 605.4675 235.014 605.1739 233.9539 604.543 231.6612 626.7541 228.9527 Z"/>
<path d="M 442.6962 57.4056 449.2444 58.3352 444.9608 65.5022 438.972 64.8921 438.727 63.413 442.6962 57.4056 Z"/>
<path d="M 636.2608 246.2781 640.0704 244.2421 648.9045 243.3465 644.2264 248.6995 642.1177 252.3826 637.3037 252.3997 636.2608 246.2781 Z"/>
<path d="M 257.2269 124.9825 263.7006 117.6823 260.4866 110.153 267.1171 111.3112 284.3081 129.1288 293.7716 126.6886 308.179 129.2098 309.6559 133.2682 296.3065 137.2407 290.2729 151.7061 281.0435 155.1082 270.304 148.9501 272.2402 142.7248 250.0223 139.4173 246.4055 135.6626 242.6274 126.649 257.2269 124.9825 Z"/>
<path d="M 658.2883 299.0926 671.9746 291.0181 684.9867 294.3578 695.3499 292.3034 701.7492 298.8432 705.1482 314.4653 699.8544 324.3848 687.3598 328.5998 675.459 327.389 662.0729 332.9533 660.5081 320.6457 655.5528 304.9531 658.2883 299.0926 Z"/>
<path d="M 218.6748 101.1925 225.0279 95.9114 248.1814 111.3726 257.2269 124.9825 242.6274 126.649 234.4259 124.3033 230.8248 113.5731 218.6748 101.1925 Z"/>
<path d="M 596.8059 107.6178 602.8506 97.2848 598.5432 90.7697 604.6721 89.3705 620.5741 85.306 628.6463 77.2055 630.6037 78.6212 631.681 92.2254 615.0029 100.232 615.324 109.7166 627.6355 122.4468 633.8614 126.1314 626.8277 147.0068 606.3598 146.6525 603.8238 144.5811 604.3093 140.9311 616.4965 132.6794 602.6706 117.97 596.8059 107.6178 Z"/>
<path d="M 216.5866 215.1774 231.3842 214.1311 249.5823 213.4883 270.2453 226.468 279.6586 244.5006 283.0735 256.5167 258.8546 264.6994 248.5391 263.6943 238.3628 256.0904 224.7646 255.5412 229.2976 244.953 216.5815 226.2965 216.5866 215.1774 Z"/>
<path d="M 479.5208 197.7513 484.6283 197.8398 486.0318 205.341 476.6127 214.2227 473.2648 212.1765 464.9585 207.487 479.5208 197.7513 Z"/>
<path d="M 759.5512 228.9293 763.6969 229.3064 764.3999 228.7558 764.7684 228.0225 764.5789 236.1082 767.4083 247.6662 760.2316 248.5233 749.4167 232.897 759.5512 228.9293 Z"/>
<path d="M 485.001 12.0384 496.0527 20.2166 496.7212 21.382 492.5701 35.1367 492.4959 35.5448 485.1014 41.5985 483.2325 42.263 475.8323 30.5309 463.2211 38.1169 461.3226 37.3386 451.5511 36.3374 452.3717 35.3504 469.849 22.6286 471.5924 23.0804 480.2931 25.8475 485.001 12.0384 Z"/>
<path d="M 760.2316 248.5233 767.4083 247.6662 769.2332 254.1636 775.6969 254.7637 774.5321 256.5697 762.8589 259.3765 752.4641 254.1241 760.2316 248.5233 Z"/>
<path d="M 724.129 247.834 732.6649 243.3986 735.963 262.0795 727.0402 264.7381 722.3673 262.1817 724.129 247.834 Z"/>
<path d="M 598.4185 323.5964 597.9969 312.9585 608.0159 315.9152 614.767 321.9888 612.7116 336.0741 598.1017 333.1742 598.4185 323.5964 Z"/>
<path d="M 681.3554 252.4822 686.464 255.7579 674.2729 261.6667 676.3433 257.2053 681.3554 252.4822 Z"/>
<path d="M 424.4596 54.1831 426.4296 53.1452 432.7361 52.2189 438.727 63.413 438.972 64.8921 435.3481 67.6885 425.3838 61.2642 424.4596 54.1831 Z"/>
<path d="M 482.2693 95.4213 489.7225 96.1824 499.8042 109.5565 488.3827 116.7167 482.5001 112.3994 478.4232 99.4861 482.2693 95.4213 Z"/>
<path d="M 596.6316 203.2728 598.0213 202.4386 599.6579 212.4483 596.6316 203.2728 Z"/>
<path d="M 281.5414 180.1722 292.4396 176.9627 296.1409 164.7713 306.8607 177.0503 320.0649 183.6613 325.7835 193.9049 320.207 202.5361 310.6717 211.4662 281.5414 180.1722 Z"/>
<path d="M 600.4397 346.8417 613.8996 345.9761 617.2481 345.1818 608.333 365.3798 603.2091 369.6416 602.7594 370.1697 596.4576 364.1478 600.4397 346.8417 Z"/>
<path d="M 402.0172 456.4976 412.5931 461.3075 420.1923 480.1105 398.9337 495.2117 391.6305 506.3185 380.7565 501.9549 369.2254 491.8058 372.6226 481.7586 387.0994 470.863 386.9615 461.1078 402.0172 456.4976 Z"/>
<path d="M 639.4034 298.3659 643.8575 312.3117 660.5081 320.6457 662.0729 332.9533 675.459 327.389 687.3598 328.5998 699.8544 324.3848 705.1482 314.4653 713.044 319.9109 709.8335 343.0491 698.523 345.0005 698.1508 365.8144 691.7224 377.1253 674.974 385.9558 667.369 400.266 648.7848 408.9595 650.9575 424.1584 642.8725 441.5996 629.4092 448.8908 622.1224 445.4201 605.9793 467.861 596.8433 474.4303 582.1937 476.0498 563.8485 488.8218 557.4956 512.5606 556.0134 512.7191 545.3466 500.3034 547.118 486.6971 543.3437 475.0851 550.4958 466.0263 562.7859 465.3203 564.5229 455.7127 564.8476 445.9928 574.0137 426.7892 584.8911 424.2631 602.3272 422.7402 602.101 414.36 612.5568 407.0195 618.0746 398.5382 621.5379 382.502 628.3937 359.4073 636.3407 358.4959 640.0614 342.8773 645.9209 328.8455 633.7095 317.3012 636.4497 299.9012 639.4034 298.3659 Z"/>
<path d="M 553.7263 266.5386 562.1029 264.518 559.9574 275.6745 564.0738 288.1561 555.3219 288.9389 546.1486 285.7175 547.9049 276.9301 553.7263 266.5386 Z"/>
<path d="M 351.2612 69.1359 347.7388 72.0315 330.2837 74.4421 326.6265 75.8281 321.4258 62.3968 335.1713 59.6995 343.7268 51.1956 349.4214 54.6848 346.8881 61.3256 351.2612 69.1359 Z"/>
<path d="M 437.0511 43.8022 441.5826 49.9223 444.0725 52.0913 442.6962 57.4056 438.727 63.413 432.7361 52.2189 437.0511 43.8022 Z"/>
<path d="M 458.757 176.2554 468.5051 180.3191 463.2429 188.0638 451.8727 192.163 452.3963 178.0135 458.757 176.2554 Z"/>
<path d="M 541.7813 40.2033 542.7381 32.685 546.2722 32.732 559.1088 39.9932 556.9147 42.7613 547.1342 48.8663 541.7813 40.2033 Z"/>
<path d="M 497.8761 119.7606 505.2203 126.0683 502.6692 133.9424 495.9568 139.8338 487.6977 129.92 497.8761 119.7606 Z"/>
<path d="M 532.7706 67.1898 541.9642 70.7102 537.7847 79.9353 530.4978 82.1827 524.6078 78.1403 532.7706 67.1898 Z"/>
<path d="M 555.8077 160.1086 557.7245 164.3968 557.959 167.3432 540.8877 168.1926 539.9336 161.1924 540.6972 159.3651 550.1332 158.2825 555.8077 160.1086 Z"/>
<path d="M 369.8055 393.5076 375.3148 387.0267 397.5305 379.5284 408.6331 389.5822 420.1552 391.7905 411.3774 419.8489 399.1872 429.552 387.6297 426.9331 377.8619 417.6835 362.6458 427.1266 371.8188 441.4012 368.2038 445.2066 356.7607 441.452 341.3092 447.4027 318.0163 461.3318 316.1685 453.0018 304.6659 441.5088 293.1099 439.4015 300.2261 431.5026 320.9629 425.9509 322.9878 418.8664 346.8186 409.8477 367.9827 398.9759 369.8055 393.5076 Z"/>
<path d="M 562.877 35.5167 560.9299 26.4664 582.3335 44.2306 576.8207 49.9593 562.877 35.5167 Z"/>
<path d="M 408.2153 16.2592 409.0444 15.5115 415.6569 20.8081 418.3994 26.954 411.1846 30.6204 408.2153 16.2592 Z"/>
<path d="M 503.4339 35.1436 506.0146 38.7312 498.9065 45.3994 492.4959 35.5448 492.5701 35.1367 503.4339 35.1436 Z"/>
<path d="M 257.729 77.5715 258.0415 84.6789 255.572 93.4688 247.0531 95.9645 234.8985 85.7006 242.4806 78.1214 257.729 77.5715 Z"/>
<path d="M 654.9796 249.0864 661.9256 250.1733 661.1024 255.6156 657.2836 258.3026 653.7443 257.9342 654.9796 249.0864 Z"/>
<path d="M 315.9988 40.0904 321.1197 46.7677 306.7012 55.1977 303.9855 51.9116 300.1073 46.6 306.0293 37.3011 315.9988 40.0904 Z"/>
<path d="M 604.3592 288.9333 615.6492 287.1785 623.0285 292.8055 604.2222 300.6211 598.0217 295.5553 604.3592 288.9333 Z"/>
<path d="M 434.0405 518.3638 441.4459 506.4114 452.3511 496.6535 486.9527 502.8945 499.0624 486.404 523.5453 498.0754 503.0308 510.9254 493.2573 513.9916 483.0904 530.7092 486.1503 541.2539 467.9122 546.7972 464.0035 539.1586 438.5486 529.2092 434.0405 518.3638 Z"/>
<path d="M 569.4578 217.4859 565.7047 210.2293 566.621 207.9859 576.3046 208.2986 577.3802 210.76 576.0268 223.3216 574.023 222.897 569.4578 217.4859 Z"/>
<path d="M 513.0445 86.6501 524.6078 78.1403 530.4978 82.1827 532.0737 90.1049 513.0445 86.6501 Z"/>
<path d="M 730.2254 280.1189 739.9504 277.7471 745.3087 266.7313 756.4062 272.7787 761.4091 280.2985 760.237 282.7647 752.1803 293.0825 732.6269 299.807 730.7802 302.0947 721.7339 299.6531 730.2254 280.1189 Z"/>
<path d="M 350.5559 262.8118 354.7823 270.5455 367.6764 273.877 359.901 286.1525 330.7015 287.1319 337.0603 275.2274 333.1141 267.8564 350.5559 262.8118 Z"/>
<path d="M 565.754 61.6224 567.6837 64.2402 573.4818 67.454 571.966 71.3476 570.9351 74.9836 557.3245 72.3438 565.754 61.6224 Z"/>
<path d="M 631.0644 228.9867 631.0709 227.0918 639.6252 225.0409 638.5534 234.3319 633.5258 236.5889 633.321 234.8153 631.0644 228.9867 Z"/>
<path d="M 648.9585 261.3515 653.2675 257.884 653.7443 257.9342 657.2836 258.3026 667.2469 264.7749 672.2469 263.4449 671.1813 273.242 658.7183 277.2668 659.9806 275.3744 648.9585 261.3515 Z"/>
<path d="M 694.4661 153.0368 699.7388 157.8594 696.5434 172.7829 682.0829 176.565 670.607 172.6997 671.0606 172.2727 675.6941 159.31 684.1776 148.3478 694.4661 153.0368 Z"/>
<path d="M 574.6025 188.1908 587.9647 187.0188 588.0042 187.1409 590.1143 193.0984 584.6531 194.9179 574.1286 195.7608 574.6025 188.1908 Z"/>
<path d="M 521.9711 231.6993 519.2028 231.2138 534.0514 233.0704 543.8206 239.4251 550.1487 241.6036 555.6638 248.8439 568.9138 257.487 570.5068 265.4294 571.6391 270.0592 562.1029 264.518 553.7263 266.5386 535.6613 261.5064 530.0743 236.524 521.9711 231.6993 Z"/>
<path d="M 431.5044 171.8514 438.5631 166.1668 449.3987 168.3947 452.3963 178.0135 451.8727 192.163 449.6002 195.9499 441.1601 189.0255 423.8492 193.628 419.8828 202.1857 413.3407 197.2531 424.7201 190.6854 422.3554 181.9412 433.5059 180.3923 431.5044 171.8514 Z"/>
<path d="M 584.4523 232.5987 581.8105 236.3105 570.7767 235.6495 574.9611 229.0616 582.0926 228.2119 584.4523 232.5987 Z"/>
<path d="M 656.6341 281.1723 654.4293 280.9394 643.4714 280.5271 648.5652 277.2216 656.6341 281.1723 Z"/>
<path d="M 413.6869 245.6726 425.8719 242.8385 424.099 255.1144 416.6971 255.2922 409.3928 251.4494 413.6869 245.6726 Z"/>
<path d="M 553.0012 236.2807 561.8194 233.9152 562.3611 233.9664 570.3531 236.0239 568.938 243.7773 561.0871 240.8588 553.0012 236.2807 Z"/>
<path d="M 655.4394 196.7384 673.8539 195.8933 671.153 189.513 654.2865 181.0213 670.607 172.6997 682.0829 176.565 687.5608 180.9049 681.0256 218.5692 677.9516 222.5456 668.3317 225.8449 657.9101 222.8313 645.4218 229.6604 639.9282 223.2502 637.2914 204.9116 652.2396 202.2959 655.4394 196.7384 Z"/>
<path d="M 530.4978 82.1827 537.7847 79.9353 542.9594 89.4423 532.0737 90.1049 530.4978 82.1827 Z"/>
<path d="M 508.9673 61.0859 517.1294 64.1418 518.8395 65.9436 505.4869 80.9988 500.6963 77.5994 506.1555 74.2675 508.9673 61.0859 Z"/>
<path d="M 452.2144 291.2271 453.8461 279.5044 456.9758 273.5907 475.0353 278.8895 483.2446 286.6603 491.0221 284.8114 500.881 293.8795 499.5012 315.5725 496.2238 328.8942 476.9474 329.9476 476.628 343.3645 466.0824 362.937 455.8682 358.5687 443.3656 340.0594 447.6872 332.1753 430.9195 326.6215 434.2756 308.4469 452.2144 291.2271 Z"/>
<path d="M 567.9846 361.1238 568.6741 358.8397 575.4988 352.6692 576.1503 352.1594 596.4576 364.1478 602.7594 370.1697 591.713 379.1524 606.2551 390.6805 605.7502 400.233 612.5568 407.0195 602.101 414.36 602.3272 422.7402 584.8911 424.2631 587.1366 407.8906 577.7661 386.5556 555.7996 386.2337 553.7488 383.7141 555.9805 379.3077 572.3493 380.0462 574.137 370.669 567.9846 361.1238 Z"/>
<path d="M 537.8734 434.8403 547.563 434.0975 564.8476 445.9928 564.5229 455.7127 553.7402 452.4603 537.8734 434.8403 Z"/>
<path d="M 507.3896 464.2678 522.7349 469.3918 528.2944 476.2577 523.5453 498.0754 499.0624 486.404 498.6992 486.2888 491.5058 470.1901 507.3896 464.2678 Z"/>
<path d="M 523.5515 20.011 525.7087 21.0317 529.1687 42.0592 521.7716 41.4393 523.5515 20.011 Z"/>
<path d="M 677.9516 222.5456 681.0256 218.5692 699.7294 227.5143 701.4689 236.0989 686.1222 237.4199 677.9516 222.5456 Z"/>
<path d="M 326.7004 127.7846 326.0782 136.5225 317.162 141.955 309.6559 133.2682 308.179 129.2098 306.0503 122.6968 310.1202 120.5201 326.7004 127.7846 Z"/>
<path d="M 588.0042 187.1409 596.8107 186.564 603.2011 195.6597 598.0213 202.4386 596.6316 203.2728 594.7567 202.6083 590.1143 193.0984 588.0042 187.1409 Z"/>
<path d="M 647.2769 262.1883 648.9585 261.3515 659.9806 275.3744 647.7079 272.0658 647.2769 262.1883 Z"/>
<path d="M 676.3433 257.2053 674.2729 261.6667 672.7073 263.2863 672.2039 253.7127 676.3433 257.2053 Z"/>
<path d="M 459.9378 80.5302 457.9275 73.6724 459.2321 71.9891 462.9707 72.7651 465.8606 78.7735 487.9111 83.9365 490.4181 86.754 482.2693 95.4213 478.4232 99.4861 470.5177 96.9456 467.2902 87.7706 459.9378 80.5302 Z"/>
<path d="M 639.4034 298.3659 636.4497 299.9012 622.4767 304.0102 608.0159 315.9152 597.9969 312.9585 604.2222 300.6211 623.0285 292.8055 636.2382 289.3891 639.4034 298.3659 Z"/>
<path d="M 453.4044 75.9385 457.9275 73.6724 459.9378 80.5302 459.1011 86.5801 445.4517 91.847 453.4044 75.9385 Z"/>
<path d="M 424.099 255.1144 426.0924 257.2504 411.4085 263.7092 416.6971 255.2922 424.099 255.1144 Z"/>
<path d="M 582.4009 161.0934 599.3328 158.8913 594.7554 171.6638 582.6851 171.0562 580.4135 168.7162 582.4009 161.0934 Z"/>
<path d="M 449.6002 195.9499 451.8727 192.163 463.2429 188.0638 479.5208 197.7513 464.9585 207.487 463.2116 209.1728 449.6002 195.9499 Z"/>
<path d="M 494.1882 224.4492 511.8455 226.6727 519.2028 231.2138 521.9711 231.6993 521.317 248.0209 508.8292 252.4971 503.2222 252.0968 497.2397 243.9604 489.3505 234.3371 489.7286 230.2105 494.1882 224.4492 Z"/>
<path d="M 292.9381 297.3613 304.7631 290.639 330.7015 287.1319 359.901 286.1525 363.8754 293.0075 377.0815 293.8402 366.4722 311.5513 368.505 315.3838 363.8723 319.4095 347.3959 312.1606 338.4208 316.9409 336.54 334.511 349.8166 347.012 370.5451 352.4329 362.0912 364.4553 350.1314 366.1904 347.73 372.9274 328.9567 368.86 319.5935 357.3244 294.2822 357.9105 290.7345 354.9239 286.214 336.4947 287.063 322.9369 300.2552 306.8981 292.9381 297.3613 Z"/>
<path d="M 27.8574 291.5977 47.2408 300.9429 49.3568 305.9116 40.3704 323.2237 29.5509 320.4934 18.7217 324.991 3.6376 319.9004 1 312.5048 14.0762 305.5728 27.8574 291.5977 Z"/>
<path d="M 445.9508 10.9108 457.7095 7.347 467.8078 13.4931 471.5924 23.0804 469.849 22.6286 448.8157 20.0117 445.9508 10.9108 Z"/>
<path d="M 277.7962 70.6007 279.9564 76.4454 280.278 79.3784 269.0264 85.4246 258.0415 84.6789 257.729 77.5715 263.0162 71.3205 277.7962 70.6007 Z"/>
<path d="M 518.8395 65.9436 532.2774 67.2547 532.7706 67.1898 524.6078 78.1403 513.0445 86.6501 507.3652 87.0051 504.4269 86.1182 505.4869 80.9988 518.8395 65.9436 Z"/>
<path d="M 502.6692 133.9424 505.2203 126.0683 521.0803 133.2858 514.2145 140.5412 510.1095 145.9724 503.497 144.7683 502.6692 133.9424 Z"/>
<path d="M 437.9864 212.7057 438.5038 208.0232 455.3844 207.575 458.4487 211.8115 447.9341 227.9539 441.5729 228.8069 443.619 220.1225 437.9864 212.7057 Z"/>
<path d="M 294.7124 81.2948 301.7008 86.0475 291.4456 93.4921 280.278 79.3784 279.9564 76.4454 294.7124 81.2948 Z"/>
<path d="M 478.431 387.5777 490.4016 384.897 501.9213 390.5164 522.7754 386.8389 540.7021 383.6738 541.1536 393.9249 536.6858 404.3574 525.0659 410.3679 517.8858 420.1462 523.2014 429.3706 515.2903 428.5473 504.0668 446.3062 494.2207 457.142 479.6868 455.6011 474.6619 463.2729 465.7945 451.904 474.2403 427.3964 471.9009 402.4075 478.431 387.5777 Z"/>
<path d="M 559.4527 229.2044 562.4978 226.6503 574.023 222.897 576.0268 223.3216 574.9611 229.0616 570.7767 235.6495 570.3531 236.0239 562.3611 233.9664 559.4527 229.2044 Z"/>
<path d="M 299.862 113.4202 304.8672 122.4245 287.2053 117.4589 288.6428 113.4637 299.862 113.4202 Z"/>
<path d="M 584.6531 194.9179 590.1143 193.0984 594.7567 202.6083 592.2235 207.2617 588.1333 202.9688 584.6531 194.9179 Z"/>
<path d="M 296.2811 60.7472 296.4958 56.6971 303.9855 51.9116 306.7012 55.1977 319.2124 62.8627 317.7737 70.6255 303.9684 71.5819 296.2811 60.7472 Z"/>
<path d="M 556.5552 191.4641 557.878 181.1344 564.8869 181.0352 574.6025 188.1908 574.1286 195.7608 573.3512 201.0866 560.9682 195.5292 556.5552 191.4641 Z"/>
<path d="M 387.6297 426.9331 399.1872 429.552 408.2612 436.561 402.0172 456.4976 386.9615 461.1078 387.0994 470.863 372.6226 481.7586 373.4375 476.9922 372.585 472.2115 386.0181 439.6966 387.6297 426.9331 Z"/>
<path d="M 503.497 144.7683 510.1095 145.9724 510.7297 147.7477 508.8827 158.5157 503.8009 156.7959 499.1779 154.2358 503.497 144.7683 Z"/>
<path d="M 323.1496 106.5539 345.7302 106.4302 353.1193 116.867 349.4296 126.5103 326.7004 127.7846 310.1202 120.5201 314.7132 117.3128 323.1496 106.5539 Z"/>
<path d="M 599.4885 176.7749 616.9664 175.6783 620.1556 178.9555 620.823 181.986 604.1743 181.9806 599.4885 176.7749 Z"/>
<path d="M 461.3226 37.3386 463.2211 38.1169 483.2325 42.263 485.1014 41.5985 488.3193 50.5436 475.8091 46.9448 468.67 50.1743 461.3226 37.3386 Z"/>
<path d="M 368.2038 445.2066 365.9539 471.0409 373.4375 476.9922 372.6226 481.7586 369.2254 491.8058 355.7118 489.2826 318.0163 461.3318 341.3092 447.4027 356.7607 441.452 368.2038 445.2066 Z"/>
<path d="M 487.7054 238.1158 489.3505 234.3371 497.2397 243.9604 487.7054 238.1158 Z"/>
<path d="M 677.1018 249.1426 675.8905 245.5734 695.5523 245.6707 686.464 255.7579 681.3554 252.4822 677.1018 249.1426 Z"/>
<path d="M 432.3417 12.6912 431.8965 13.7663 429.628 15.6892 415.609 11.0633 426.4264 1 432.3417 12.6912 Z"/>
<path d="M 561.2105 199.316 560.9682 195.5292 573.3512 201.0866 575.23 204.3063 576.3046 208.2986 566.621 207.9859 561.2105 199.316 Z"/>
<path d="M 415.171 36.9592 421.7746 34.2707 435.8531 31.5269 437.2433 40.0836 437.0511 43.8022 432.7361 52.2189 426.4296 53.1452 415.171 36.9592 Z"/>
<path d="M 485.1014 41.5985 492.4959 35.5448 498.9065 45.3994 498.2 50.0128 491.7436 51.1698 488.3193 50.5436 485.1014 41.5985 Z"/>
<path d="M 577.3802 210.76 590.3167 212.1508 591.1254 214.4657 588.0938 223.6373 582.0926 228.2119 574.9611 229.0616 576.0268 223.3216 577.3802 210.76 Z"/>
<path d="M 708.2629 249.3743 724.129 247.834 722.3673 262.1817 710.1329 265.7167 699.1085 261.3245 708.2629 249.3743 Z"/>
<path d="M 509.6107 52.3675 517.6929 52.4396 520.7182 58.4201 517.1294 64.1418 508.9673 61.0859 507.9478 60.232 509.6107 52.3675 Z"/>
<path d="M 507.3896 464.2678 510.5033 451.8893 504.0668 446.3062 515.2903 428.5473 523.2014 429.3706 537.8734 434.8403 553.7402 452.4603 564.5229 455.7127 562.7859 465.3203 550.4958 466.0263 543.3437 475.0851 528.2944 476.2577 522.7349 469.3918 507.3896 464.2678 Z M 519.187 440.9545 530.5676 446.4819 531.7286 436.8001 519.187 440.9545 Z"/>
<path d="M 389.2461 91.7517 405.7523 96.5022 402.3038 107.1862 383.9471 102.8084 382.6503 98.0504 389.2461 91.7517 Z"/>
<path d="M 473.1032 53.001 470.3093 50.8967 468.67 50.1743 475.8091 46.9448 488.3193 50.5436 491.7436 51.1698 491.1586 54.7501 489.1324 61.2637 478.1672 59.3072 473.1032 53.001 Z"/>
<path d="M 546.1968 205.3011 550.6003 202.3588 564.1724 210.3569 554.4264 216.8688 549.789 215.1312 546.1968 205.3011 Z"/>
<path d="M 349.9204 139.5435 351.0233 142.0365 351.0755 148.4915 344.0271 159.1258 325.7639 162.6522 325.688 159.1367 329.082 148.3621 349.9204 139.5435 Z"/>
<path d="M 363.9381 250.7501 378.4594 253.2585 387.4325 259.8715 394.0728 248.9393 401.567 254.5169 409.8949 264.5483 409.4311 281.0489 399.0656 283.6251 383.9344 294.9506 377.0815 293.8402 363.8754 293.0075 359.901 286.1525 367.6764 273.877 354.7823 270.5455 350.5559 262.8118 363.9381 250.7501 Z"/>
<path d="M 463.2356 96.2308 470.5177 96.9456 478.4232 99.4861 482.5001 112.3994 468.5877 110.4132 463.2356 96.2308 Z"/>
<path d="M 584.3844 246.9078 586.2095 255.4732 578.6509 258.3387 577.7264 250.0186 578.7569 248.3768 584.3844 246.9078 Z"/>
<path d="M 576.3424 57.3502 576.7088 60.066 577.8948 64.1781 573.4818 67.454 567.6837 64.2402 576.3424 57.3502 Z"/>
<path d="M 445.211 44.0195 450.3418 44.2567 452.917 50.9222 444.0725 52.0913 441.5826 49.9223 445.211 44.0195 Z"/>
<path d="M 482.2693 95.4213 490.4181 86.754 504.4269 86.1182 507.3652 87.0051 514.7451 96.1122 516.5176 104.6085 502.0826 109.7265 499.8042 109.5565 489.7225 96.1824 482.2693 95.4213 Z"/>
<path d="M 499.5012 315.5725 512.2337 321.936 515.2404 331.0198 531.2513 330.6831 529.9637 338.7811 520.1551 352.5949 529.7506 356.2379 531.9519 364.3218 524.1285 360.5824 519.7511 374.9251 522.7754 386.8389 501.9213 390.5164 490.4016 384.897 478.431 387.5777 462.8595 387.4856 470.1175 378.308 466.0824 362.937 476.628 343.3645 476.9474 329.9476 496.2238 328.8942 499.5012 315.5725 Z"/>
<path d="M 536.6434 222.5511 546.915 222.3877 549.3712 226.6504 546.454 229.8824 535.6019 229.1852 536.6434 222.5511 Z"/>
<path d="M 657.2836 258.3026 661.1024 255.6156 667.2469 264.7749 657.2836 258.3026 Z"/>
<path d="M 621.0757 244.1141 620.6703 243.5097 619.1675 237.7515 622.8827 237.0634 626.114 237.2242 626.8181 246.4623 621.0757 244.1141 Z"/>
<path d="M 596.0811 224.1828 601.2295 223.1786 602.9948 223.1547 604.543 231.6612 605.1739 233.9539 597.0603 236.2193 597.0627 235.3655 593.3582 230.0232 596.0811 224.1828 Z"/>
<path d="M 473.1032 53.001 478.1672 59.3072 475.5282 67.3146 473.7699 66.0503 473.1032 53.001 Z"/>
<path d="M 604.1743 181.9806 620.823 181.986 620.0613 185.9963 618.6825 195.3038 615.9686 201.7113 603.2011 195.6597 596.8107 186.564 604.1743 181.9806 Z"/>
<path d="M 661.1024 255.6156 661.9256 250.1733 669.7563 248.129 672.2128 249.2301 672.2039 253.7127 672.7073 263.2863 672.2469 263.4449 667.2469 264.7749 661.1024 255.6156 Z"/>
<path d="M 542.1096 147.851 550.1332 158.2825 540.6972 159.3651 536.7722 157.331 542.1096 147.851 Z"/>
<path d="M 764.7684 228.0225 779.3315 219.6044 779.0842 224.9986 778.8748 231.0419 764.5789 236.1082 764.7684 228.0225 Z"/>
<path d="M 374.2539 51.6085 372.2519 61.4156 361.182 58.8968 360.1946 57.6529 374.2539 51.6085 Z"/>
<path d="M 656.6756 281.225 658.7183 277.2668 671.1813 273.242 685.8247 271.6389 681.4949 281.5625 684.9867 294.3578 671.9746 291.0181 659.3866 291.0943 656.6756 281.225 Z"/>
<path d="M 668.3317 225.8449 668.7451 232.8745 665.3798 238.4675 649.7941 237.8259 646.9987 234.7921 644.0085 232.8221 645.4218 229.6604 657.9101 222.8313 668.3317 225.8449 Z"/>
<path d="M 610.0957 55.311 608.4566 49.7596 618.0524 48.3701 635.6767 64.1464 628.6463 77.2055 620.5741 85.306 620.0667 81.7012 616.3497 64.5658 610.0957 55.311 Z"/>
<path d="M 444.4149 72.6303 453.4044 75.9385 445.4517 91.847 439.0977 109.0709 433.4481 112.1744 405.7523 96.5022 401.8608 87.0132 412.9006 75.6983 408.307 66.6508 418.435 67.8349 425.3838 61.2642 435.3481 67.6885 444.4149 72.6303 Z"/>
<path d="M 350.5013 128.3431 357.1929 127.038 365.7311 137.0953 351.0233 142.0365 349.9204 139.5435 350.5013 128.3431 Z"/>
<path d="M 470.98 130.8174 487.6977 129.92 495.9568 139.8338 489.1274 147.2941 472.9173 147.0152 470.98 130.8174 Z"/>
<path d="M 631.681 92.2254 642.1838 108.0022 627.6355 122.4468 615.324 109.7166 615.0029 100.232 631.681 92.2254 Z"/>
<path d="M 555.0662 26.173 546.2722 32.732 542.7381 32.685 543.1848 24.8803 555.0662 26.173 Z"/>
<path d="M 510.7297 147.7477 526.4037 149.9443 534.1657 157.9318 530.9089 163.5231 508.8827 158.5157 510.7297 147.7477 Z"/>
<path d="M 390.3243 58.1873 390.6752 58.3023 406.425 60.3074 408.307 66.6508 412.9006 75.6983 401.8608 87.0132 395.5179 85.5325 386.1195 67.7133 390.3243 58.1873 Z"/>
<path d="M 542.8524 190.5075 542.847 189.8999 556.5552 191.4641 560.9682 195.5292 561.2105 199.316 550.6003 202.3588 546.1968 205.3011 544.4595 203.0432 543.0786 197.3006 542.8524 190.5075 Z"/>
<path d="M 387.6297 426.9331 386.0181 439.6966 372.585 472.2115 373.4375 476.9922 365.9539 471.0409 368.2038 445.2066 371.8188 441.4012 362.6458 427.1266 377.8619 417.6835 387.6297 426.9331 Z"/>
<path d="M 549.0973 216.3308 549.789 215.1312 554.4264 216.8688 562.18 220.477 562.4978 226.6503 559.4527 229.2044 549.0973 216.3308 Z"/>
<path d="M 335.2543 36.7163 341.9701 30.3735 360.2128 37.2213 365.8174 44.4808 356.6733 49.6937 343.8832 47.9887 337.9195 41.8825 335.2543 36.7163 Z"/>
<path d="M 303.7701 86.8927 316.0393 90.8939 311.8602 101.8579 308.9735 104.1603 304.8806 101.9327 303.7701 86.8927 Z"/>
<path d="M 464.7283 129.6274 452.8129 122.5396 452.553 118.2523 468.5877 110.4132 482.5001 112.3994 488.3827 116.7167 499.8042 109.5565 502.0826 109.7265 497.8761 119.7606 487.6977 129.92 470.98 130.8174 464.7283 129.6274 Z"/>
<path d="M 566.785 136.8477 573.9357 142.3779 574.3106 143.9998 556.7676 146.5658 556.9386 142.5216 559.5749 140.347 566.785 136.8477 Z"/>
<path d="M 361.1922 234.323 387.8687 230.0494 395.4728 240.5191 378.4594 253.2585 363.9381 250.7501 353.8586 240.0079 361.1922 234.323 Z"/>
<path d="M 556.9386 142.5216 556.7676 146.5658 556.4919 154.669 555.8077 160.1086 550.1332 158.2825 542.1096 147.851 544.5001 141.2231 556.9386 142.5216 Z"/>
<path d="M 610.1409 162.4398 621.9149 160.4995 622.6593 173.8456 620.1556 178.9555 616.9664 175.6783 610.1409 162.4398 Z"/>
<path d="M 638.9348 259.7045 637.3037 252.3997 642.1177 252.3826 643.4988 255.7204 647.2769 262.1883 647.7079 272.0658 647.3735 274.6561 635.8251 271.8231 638.9348 259.7045 Z"/>
<path d="M 373.0114 104.127 382.6503 98.0504 383.9471 102.8084 379.8771 111.5335 383.0004 121.2281 380.5154 131.4911 386.3989 136.5623 375.9281 145.3169 365.7311 137.0953 357.1929 127.038 372.3484 114.1347 373.0114 104.127 Z"/>
<path d="M 352.6705 22.0428 361.4095 31.9109 360.2128 37.2213 341.9701 30.3735 352.6705 22.0428 Z"/>
<path d="M 315.9988 40.0904 323.6593 33.0604 335.2543 36.7163 337.9195 41.8825 323.661 49.0528 321.1197 46.7677 315.9988 40.0904 Z"/>
<path d="M 515.2905 218.4228 521.8138 215.063 536.6434 222.5511 535.6019 229.1852 534.0514 233.0704 519.2028 231.2138 511.8455 226.6727 515.2905 218.4228 Z"/>
<path d="M 399.4603 33.8409 400.1187 26.0716 409.2862 31.3237 415.171 36.9592 426.4296 53.1452 424.4596 54.1831 407.2881 53.8406 408.4209 37.2132 399.4603 33.8409 Z"/>
<path d="M 762.2669 270.3569 766.0589 271.4552 761.4091 280.2985 756.4062 272.7787 762.2669 270.3569 Z"/>
<path d="M 504.0668 446.3062 510.5033 451.8893 507.3896 464.2678 491.5058 470.1901 494.2207 457.142 504.0668 446.3062 Z"/>
<path d="M 582.6998 128.5116 594.4978 129.8054 590.1029 137.9315 587.8591 140.1826 575.3743 139.6679 582.6998 128.5116 Z"/>
<path d="M 383.019 49.6859 390.3243 58.1873 386.1195 67.7133 381.9379 68.6293 372.2519 61.4156 374.2539 51.6085 383.019 49.6859 Z"/>
<path d="M 681.0256 218.5692 687.5608 180.9049 682.0829 176.565 696.5434 172.7829 706.8166 174.2813 720.3345 187.8787 724.7605 206.8217 731.7341 205.2738 738.7317 223.3123 752.7781 221.9778 763.6969 229.3064 759.5512 228.9293 743.7684 228.5526 750.8354 247.5987 740.9326 239.8524 732.6649 243.3986 724.129 247.834 708.2629 249.3743 698.3269 242.278 701.4689 236.0989 699.7294 227.5143 681.0256 218.5692 Z"/>
<path d="M 591.1254 214.4657 597.858 214.9675 601.2295 223.1786 596.0811 224.1828 588.0938 223.6373 591.1254 214.4657 Z"/>
<path d="M 573.4818 67.454 577.8948 64.1781 590.871 70.4934 589.6796 76.8634 571.966 71.3476 573.4818 67.454 Z"/>
<path d="M 397.9849 23.3967 400.3146 17.8771 408.2153 16.2592 411.1846 30.6204 409.2862 31.3237 400.1187 26.0716 397.9849 23.3967 Z"/>
<path d="M 498.9065 45.3994 506.0146 38.7312 513.2033 39.5099 514.1826 40.6418 517.6929 52.4396 509.6107 52.3675 498.2 50.0128 498.9065 45.3994 Z"/>
<path d="M 373.3839 44.9915 381.2664 40.8858 383.0118 41.8329 383.019 49.6859 374.2539 51.6085 373.3839 44.9915 Z"/>
<path d="M 401.567 254.5169 406.048 251.7208 409.3928 251.4494 416.6971 255.2922 411.4085 263.7092 409.8949 264.5483 401.567 254.5169 Z"/>
<path d="M 485.2801 243.4877 487.7054 238.1158 497.2397 243.9604 503.2222 252.0968 505.3661 267.9684 496.0119 265.4694 485.2801 243.4877 Z"/>
<path d="M 585.7929 146.7751 586.3427 146.2058 592.0625 147.8732 595.4558 154.0334 582.0429 158.3566 580.6591 152.0946 585.7929 146.7751 Z"/>
<path d="M 547.9049 276.9301 546.1486 285.7175 555.3219 288.9389 550.9401 289.5347 549.85 313.75 549.4022 326.9701 523.704 302.6636 513.366 306.3592 512.2337 321.936 499.5012 315.5725 500.881 293.8795 491.0221 284.8114 494.8257 273.4976 507.2051 273.5962 517.6321 281.8369 534.1885 277.8304 547.9049 276.9301 Z"/>
<path d="M 290.8827 48.3927 296.4958 56.6971 296.2811 60.7472 280.8833 66.185 272.7561 62.0655 272.7251 55.7577 290.8827 48.3927 Z"/>
<path d="M 563.871 123.0352 569.0961 120.5757 574.5915 116.8411 580.2659 117.9527 582.6998 128.5116 575.3743 139.6679 574.7265 141.3832 573.9357 142.3779 566.785 136.8477 563.871 123.0352 Z"/>
<path d="M 287.2053 117.4589 304.8672 122.4245 306.0503 122.6968 308.179 129.2098 293.7716 126.6886 284.3081 129.1288 287.2053 117.4589 Z"/>
<path d="M 458.4487 211.8115 463.2116 209.1728 464.9585 207.487 473.2648 212.1765 462.8102 220.2924 462.4327 227.4898 456.5145 231.0085 447.9341 227.9539 458.4487 211.8115 Z"/>
<path d="M 316.0393 90.8939 325.5498 84.067 326.6265 75.8281 330.2837 74.4421 349.7947 94.3634 356.9523 103.3631 345.7302 106.4302 323.1496 106.5539 311.8602 101.8579 316.0393 90.8939 Z"/>
<path d="M 658.1271 291.4962 659.3866 291.0943 671.9746 291.0181 658.2883 299.0926 658.1271 291.4962 Z"/>
<path d="M 587.2881 43.481 604.2754 42.1973 608.4566 49.7596 610.0957 55.311 596.7381 62.2018 596.053 61.3981 590.6563 58.8655 587.2881 43.481 Z"/>
<path d="M 648.9045 243.3465 655.5024 245.0264 655.1081 248.3907 646.1286 249.7204 644.2264 248.6995 648.9045 243.3465 Z"/>
<path d="M 424.4964 117.0384 427.2215 131.5279 418.432 142.1508 398.3957 124.8141 392.8878 122.5586 400.1978 118.5032 424.4964 117.0384 Z"/>
<path d="M 129.3258 185.8515 138.5623 187.1437 153.7311 178.9806 152.1726 185.3501 134.8319 203.061 144.69 209.6883 170.8188 209.2442 209.1903 200.7224 214.4399 213.5018 198.4065 217.8798 177.1034 234.9825 162.1403 227.2889 143.6006 225.9806 132.5526 235.5824 101.6368 233.166 95.2762 236.2011 83.2107 235.8588 94.8668 223.2402 102.5179 205.551 118.5061 201.4807 129.3258 185.8515 Z"/>
<path d="M 261.7394 367.6389 278.2292 368.6614 290.7345 354.9239 294.2822 357.9105 294.6808 370.3529 313.1233 383.1285 328.8508 384.3414 350.2147 393.4198 369.8055 393.5076 367.9827 398.9759 346.8186 409.8477 322.9878 418.8664 320.9629 425.9509 300.2261 431.5026 293.1099 439.4015 279.4615 440.0347 259.3368 424.0766 254.8639 416.6699 251.0705 396.2557 252.1373 386.5713 259.9774 380.5834 261.7394 367.6389 Z"/>
<path d="M 277.5105 108.7436 283.634 110.2781 288.6428 113.4637 287.2053 117.4589 284.3081 129.1288 267.1171 111.3112 268.6024 110.9054 277.5105 108.7436 Z"/>
<path d="M 521.8138 215.063 522.7321 209.303 536.359 210.0042 540.7678 213.3791 546.915 222.3877 536.6434 222.5511 521.8138 215.063 Z"/>
<path d="M 549.2619 99.906 553.3401 94.9074 557.4624 104.3625 551.3443 116.9935 545.2781 110.3098 549.2619 99.906 Z"/>
<path d="M 258.0415 84.6789 269.0264 85.4246 276.4187 93.4218 276.44 97.0909 270.2167 98.2863 255.572 93.4688 258.0415 84.6789 Z"/>
<path d="M 270.2167 98.2863 276.44 97.0909 277.5105 108.7436 268.6024 110.9054 270.2167 98.2863 Z"/>
<path d="M 482.5158 482.0632 498.6992 486.2888 499.0624 486.404 486.9527 502.8945 452.3511 496.6535 460.261 487.8264 473.1803 485.0577 482.5158 482.0632 Z"/>
<path d="M 621.0757 244.1141 626.8181 246.4623 628.8668 249.2358 627.824 252.3938 620.2023 250.9017 621.0757 244.1141 Z"/>
<path d="M 363.8723 319.4095 375.3078 344.6357 370.5451 352.4329 349.8166 347.012 336.54 334.511 338.4208 316.9409 347.3959 312.1606 363.8723 319.4095 Z"/>
<path d="M 531.9519 364.3218 529.7506 356.2379 520.1551 352.5949 529.9637 338.7811 531.2513 330.6831 549.8537 339.1362 567.674 352.5818 568.6741 358.8397 567.9846 361.1238 555.9805 379.3077 553.7488 383.7141 546.7357 371.5967 539.7 375.0687 531.9519 364.3218 Z"/>
<path d="M 759.5512 228.9293 749.4167 232.897 760.2316 248.5233 752.4641 254.1241 750.8354 247.5987 743.7684 228.5526 759.5512 228.9293 Z"/>
<path d="M 520.7182 58.4201 531.327 58.2402 532.2774 67.2547 518.8395 65.9436 517.1294 64.1418 520.7182 58.4201 Z"/>
<path d="M 577.3802 210.76 576.3046 208.2986 575.23 204.3063 588.1333 202.9688 592.2235 207.2617 590.3167 212.1508 577.3802 210.76 Z"/>
<path d="M 462.9707 72.7651 466.4754 71.3186 473.7699 66.0503 475.5282 67.3146 487.9111 83.9365 465.8606 78.7735 462.9707 72.7651 Z"/>
<path d="M 549.2619 99.906 545.2781 110.3098 537.8946 115.5293 518.9187 109.3974 516.5176 104.6085 514.7451 96.1122 527.3166 100.6784 549.2619 99.906 Z"/>
<path d="M 489.1324 61.2637 491.1586 54.7501 507.9478 60.232 508.9673 61.0859 506.1555 74.2675 500.6963 77.5994 489.1324 61.2637 Z"/>
<path d="M 646.1286 249.7204 655.1081 248.3907 654.9796 249.0864 653.7443 257.9342 653.2675 257.884 647.023 255.7011 646.1286 249.7204 Z"/>
<path d="M 399.0656 283.6251 409.4311 281.0489 439.2622 290.1689 428.8948 296.0814 410.5116 300.6386 400.3893 294.4531 399.0656 283.6251 Z"/>
<path d="M 361.4095 31.9109 372.1755 24.1526 373.4298 25.1344 381.5363 35.8028 381.2664 40.8858 373.3839 44.9915 365.8174 44.4808 360.2128 37.2213 361.4095 31.9109 Z"/>
<path d="M 556.0134 512.7191 542.2646 522.6638 528.4201 545.6867 522.8276 561.2313 503.4372 560.2742 506.6668 549.9754 495.7111 528.4913 503.0308 510.9254 523.5453 498.0754 528.2944 476.2577 543.3437 475.0851 547.118 486.6971 545.3466 500.3034 556.0134 512.7191 Z"/>
<path d="M 626.8277 147.0068 626.6097 156.9888 621.9149 160.4995 610.1409 162.4398 606.6817 160.0409 606.3598 146.6525 626.8277 147.0068 Z"/>
<path d="M 599.3328 158.8913 599.2157 155.9507 606.6817 160.0409 610.1409 162.4398 616.9664 175.6783 599.4885 176.7749 594.9512 176.8379 594.7554 171.6638 599.3328 158.8913 Z"/>
<path d="M 555.8077 160.1086 556.4919 154.669 559.4108 154.5055 567.2025 163.8701 557.7245 164.3968 555.8077 160.1086 Z"/>
<path d="M 582.3335 44.2306 587.2881 43.481 590.6563 58.8655 576.7088 60.066 576.3424 57.3502 576.8207 49.9593 582.3335 44.2306 Z"/>
<path d="M 382.136 9.2336 392.4317 9.9252 393.5189 11.5169 387.7949 19.6704 387.1369 17.9638 382.136 9.2336 Z"/>
<path d="M 233.3618 192.595 230.685 188.8032 239.9348 191.6161 255.5833 186.6554 264.1873 199.0309 249.5823 213.4883 231.3842 214.1311 235.8465 207.8467 233.3618 192.595 Z"/>
<path d="M 760.237 282.7647 755.7962 292.0243 752.1803 293.0825 760.237 282.7647 Z"/>
<path d="M 503.2222 252.0968 508.8292 252.4971 518.2506 263.5462 517.6321 281.8369 507.2051 273.5962 505.3661 267.9684 503.2222 252.0968 Z"/>
<path d="M 250.6541 270.8988 266.9903 271.927 279.5698 279.8435 303.4576 276.4011 314.2383 268.4266 333.1141 267.8564 337.0603 275.2274 330.7015 287.1319 304.7631 290.639 292.9381 297.3613 284.1949 303.9479 252.7406 299.8367 231.3342 302.6408 239.7643 287.2977 247.9445 281.3044 250.6541 270.8988 Z"/>
<path d="M 595.6477 124.0538 602.6706 117.97 616.4965 132.6794 604.3093 140.9311 590.1029 137.9315 594.4978 129.8054 595.6477 124.0538 Z"/>
<path d="M 685.8247 271.6389 697.5788 273.2049 695.3499 292.3034 684.9867 294.3578 681.4949 281.5625 685.8247 271.6389 Z"/>
<path d="M 557.4956 512.5606 563.8485 488.8218 582.1937 476.0498 596.8433 474.4303 605.9793 467.861 622.1224 445.4201 629.4092 448.8908 642.8725 441.5996 648.0812 446.3407 623.7175 465.6507 582.9588 488.2234 557.4956 512.5606 Z"/>
<path d="M 556.7676 146.5658 574.3106 143.9998 580.6591 152.0946 582.0429 158.3566 581.2144 159.4707 566.4499 160.3824 559.4108 154.5055 556.4919 154.669 556.7676 146.5658 Z"/>
<path d="M 631.681 92.2254 630.6037 78.6212 639.912 78.3808 642.6363 90.4071 661.1373 81.0392 666.706 88.755 658.6509 115.9937 642.1838 108.0022 631.681 92.2254 Z"/>
<path d="M 537.7847 79.9353 541.9642 70.7102 550.854 65.6247 556.6938 71.7143 557.5578 83.0152 556.7008 86.0407 542.9594 89.4423 537.7847 79.9353 Z"/>
<path d="M 695.5523 245.6707 698.3269 242.278 708.2629 249.3743 699.1085 261.3245 697.5788 273.2049 685.8247 271.6389 671.1813 273.242 672.2469 263.4449 672.7073 263.2863 674.2729 261.6667 686.464 255.7579 695.5523 245.6707 Z"/>
<path d="M 622.6593 173.8456 649.019 179.0677 650.677 180.7233 648.1244 187.6339 640.2809 189.772 632.5055 189.8013 620.0613 185.9963 620.823 181.986 620.1556 178.9555 622.6593 173.8456 Z"/>
<path d="M 251.6576 100.2019 260.4866 110.153 263.7006 117.6823 257.2269 124.9825 248.1814 111.3726 251.6576 100.2019 Z"/>
<path d="M 488.204 157.8678 492.3281 161.6699 492.7142 166.6751 493.359 194.4566 484.6283 197.8398 479.5208 197.7513 463.2429 188.0638 468.5051 180.3191 469.6206 167.1218 472.4197 166.1682 481.8212 165.6711 488.204 157.8678 Z"/>
<path d="M 615.9686 201.7113 618.6825 195.3038 624.2373 199.4946 624.1302 209.2218 615.9686 201.7113 Z"/>
<path d="M 407.7259 189.7844 413.3407 197.2531 419.8828 202.1857 438.5038 208.0232 437.9864 212.7057 418.3108 214.3326 420.5324 227.6492 412.5558 241.0153 406.048 251.7208 401.567 254.5169 394.0728 248.9393 395.4728 240.5191 387.8687 230.0494 361.1922 234.323 372.012 215.7354 379.2172 207.7675 388.3988 210.002 407.7259 189.7844 Z"/>
<path d="M 748.2984 177.2451 754.8996 175.3324 772.8003 182.6954 772.2647 202.0281 756.9554 214.7629 752.7781 221.9778 738.7317 223.3123 731.7341 205.2738 740.5564 194.9042 748.2984 177.2451 Z"/>
<path d="M 607.4638 241.6001 614.1848 245.1042 616.0432 251.7161 608.7247 255.3478 607.4638 241.6001 Z"/>
<path d="M 153.7311 178.9806 162.4503 187.8401 194.0776 195.0952 225.2603 190.6116 233.3618 192.595 235.8465 207.8467 231.3842 214.1311 216.5866 215.1774 214.4399 213.5018 209.1903 200.7224 170.8188 209.2442 144.69 209.6883 134.8319 203.061 152.1726 185.3501 153.7311 178.9806 Z"/>
<path d="M 496.7212 21.382 496.0527 20.2166 511.7307 17.76 515.7105 31.2047 513.2033 39.5099 506.0146 38.7312 503.4339 35.1436 496.7212 21.382 Z"/>
<path d="M 488.8561 155.771 488.204 157.8678 481.8212 165.6711 472.4197 166.1682 473.3071 152.6323 488.8561 155.771 Z"/>
<path d="M 420.5324 227.6492 433.3318 237.6336 440.846 235.0462 438.1086 238.8252 435.2245 242.5187 425.8719 242.8385 413.6869 245.6726 412.5558 241.0153 420.5324 227.6492 Z"/>
<path d="M 778.8748 231.0419 784.4457 236.29 769.2332 254.1636 767.4083 247.6662 764.5789 236.1082 778.8748 231.0419 Z"/>
<path d="M 446.4226 32.8053 450.4796 32.4581 452.3717 35.3504 451.5511 36.3374 450.3418 44.2567 445.211 44.0195 439.9857 41.5593 446.4226 32.8053 Z"/>
<path d="M 594.9512 176.8379 599.4885 176.7749 604.1743 181.9806 596.8107 186.564 588.0042 187.1409 587.9647 187.0188 586.9788 181.733 594.9512 176.8379 Z"/>
<path d="M 564.0738 288.1561 565.1811 289.3445 564.1336 308.5066 549.85 313.75 550.9401 289.5347 555.3219 288.9389 564.0738 288.1561 Z"/>
<path d="M 351.0233 142.0365 365.7311 137.0953 375.9281 145.3169 366.4962 157.8787 351.0755 148.4915 351.0233 142.0365 Z"/>
<path d="M 438.972 64.8921 444.9608 65.5022 446.8179 67.9735 444.4149 72.6303 435.3481 67.6885 438.972 64.8921 Z"/>
<path d="M 370.5451 352.4329 375.3078 344.6357 379.5439 343.2574 389.6557 346.3044 384.2814 358.1336 389.446 372.4504 397.5305 379.5284 375.3148 387.0267 369.8055 393.5076 350.2147 393.4198 328.8508 384.3414 313.1233 383.1285 294.6808 370.3529 294.2822 357.9105 319.5935 357.3244 328.9567 368.86 347.73 372.9274 350.1314 366.1904 362.0912 364.4553 370.5451 352.4329 Z"/>
<path d="M 402.3038 107.1862 405.7523 96.5022 433.4481 112.1744 424.4964 117.0384 400.1978 118.5032 402.3038 107.1862 Z"/>
<path d="M 394.0957 36.7256 399.4603 33.8409 408.4209 37.2132 407.2881 53.8406 406.425 60.3074 390.6752 58.3023 396.1586 46.9248 394.0957 36.7256 Z"/>
<path d="M 464.7283 129.6274 456.9213 142.2031 450.9816 140.8863 447.5994 134.5117 452.8129 122.5396 464.7283 129.6274 Z"/>
<path d="M 647.7079 272.0658 659.9806 275.3744 658.7183 277.2668 656.6756 281.225 656.6341 281.1723 648.5652 277.2216 647.3735 274.6561 647.7079 272.0658 Z"/>
<path d="M 543.8206 239.4251 545.5101 236.438 553.0012 236.2807 561.0871 240.8588 551.5627 242.4661 550.1487 241.6036 543.8206 239.4251 Z"/>
<path d="M 567.9846 361.1238 574.137 370.669 572.3493 380.0462 555.9805 379.3077 567.9846 361.1238 Z"/>
<path d="M 644.0085 232.8221 638.5534 234.3319 639.6252 225.0409 639.9282 223.2502 645.4218 229.6604 644.0085 232.8221 Z"/>
<path d="M 367.3257 74.7143 368.633 77.4842 360.4598 90.9283 356.0326 93.1118 352.3342 80.6273 367.3257 74.7143 Z"/>
<path d="M 547.1342 48.8663 556.9147 42.7613 561.7206 56.6795 550.2184 59.0539 547.1342 48.8663 Z"/>
<path d="M 466.9495 249.6819 468.6974 245.4999 485.2801 243.4877 496.0119 265.4694 505.3661 267.9684 507.2051 273.5962 494.8257 273.4976 491.0221 284.8114 483.2446 286.6603 475.0353 278.8895 472.0009 266.0762 466.9495 249.6819 Z"/>
<path d="M 358.3696 18.1525 363.1156 11.53 382.136 9.2336 387.1369 17.9638 373.4298 25.1344 372.1755 24.1526 358.3696 18.1525 Z"/>
<path d="M 701.7492 298.8432 721.7339 299.6531 730.7802 302.0947 728.0278 310.3743 731.7968 314.2991 713.044 319.9109 705.1482 314.4653 701.7492 298.8432 Z"/>
<path d="M 550.1487 241.6036 551.5627 242.4661 555.6638 248.8439 550.1487 241.6036 Z"/>
<path d="M 387.1369 17.9638 387.7949 19.6704 397.9849 23.3967 400.1187 26.0716 399.4603 33.8409 394.0957 36.7256 381.5363 35.8028 373.4298 25.1344 387.1369 17.9638 Z"/>
<path d="M 407.2881 53.8406 424.4596 54.1831 425.3838 61.2642 418.435 67.8349 408.307 66.6508 406.425 60.3074 407.2881 53.8406 Z"/>
<path d="M 491.1586 54.7501 491.7436 51.1698 498.2 50.0128 509.6107 52.3675 507.9478 60.232 491.1586 54.7501 Z"/>
<path d="M 590.6563 58.8655 596.053 61.3981 590.871 70.4934 577.8948 64.1781 576.7088 60.066 590.6563 58.8655 Z"/>
<path d="M 562.1029 264.518 571.6391 270.0592 584.5073 280.4777 594.5169 280.3681 593.4845 289.0453 587.8788 290.3296 565.1811 289.3445 564.0738 288.1561 559.9574 275.6745 562.1029 264.518 Z"/>
<path d="M 543.0786 197.3006 544.4595 203.0432 536.5516 206.5452 543.0786 197.3006 Z"/>
<path d="M 531.1292 42.9305 541.7813 40.2033 547.1342 48.8663 550.2184 59.0539 550.854 65.6247 541.9642 70.7102 532.7706 67.1898 532.2774 67.2547 531.327 58.2402 531.1292 42.9305 Z"/>
<path d="M 779.3315 219.6044 764.7684 228.0225 764.3999 228.7558 756.1761 219.9371 771.6003 213.5325 777.7784 215.1921 779.3315 219.6044 Z"/>
<path d="M 349.4214 54.6848 359.2516 57.3687 360.1946 57.6529 361.182 58.8968 356.8672 66.1321 346.8881 61.3256 349.4214 54.6848 Z"/>
<path d="M 641.0207 151.932 651.4653 149.5173 665.9111 157.5198 671.0606 172.2727 670.607 172.6997 654.2865 181.0213 650.677 180.7233 649.019 179.0677 645.9326 164.7601 649.9612 155.9538 641.0207 151.932 Z"/>
<path d="M 600.3386 258.5258 593.7284 265.7269 590.0577 259.0116 600.3386 258.5258 Z"/>
<path d="M 775.6969 254.7637 769.2332 254.1636 784.4457 236.29 787.7161 238.2005 775.6969 254.7637 Z"/>
<path d="M 597.0603 236.2193 605.1739 233.9539 605.4675 235.014 606.095 241.4833 599.2672 242.0091 597.0603 236.2193 Z"/>
<path d="M 572.1079 80.8135 570.9351 74.9836 571.966 71.3476 589.6796 76.8634 592.9395 81.4009 598.5432 90.7697 602.8506 97.2848 573.0114 91.5295 572.1079 80.8135 Z"/>
<path d="M 300.1073 46.6 303.9855 51.9116 296.4958 56.6971 290.8827 48.3927 300.1073 46.6 Z"/>
<path d="M 682.8004 414.5971 648.7848 408.9595 667.369 400.266 674.974 385.9558 691.7224 377.1253 698.1508 365.8144 698.523 345.0005 734.0848 345.0006 690.363 406.5275 682.8004 414.5971 Z"/>
<path d="M 582.6851 171.0562 594.7554 171.6638 594.9512 176.8379 586.9788 181.733 582.6851 171.0562 Z"/>
<path d="M 629.8264 278.005 629.9559 273.0279 635.8251 271.8231 647.3735 274.6561 648.5652 277.2216 643.4714 280.5271 643.2812 288.2447 639.8662 287.8824 629.8264 278.005 Z"/>
<path d="M 389.6557 346.3044 402.8983 332.5816 417.8413 327.5991 417.142 321.9319 434.2756 308.4469 430.9195 326.6215 447.6872 332.1753 443.3656 340.0594 440.6248 354.7588 446.4305 366.2167 438.7414 373.8409 423.1476 375.8481 422.7436 391.9532 420.1552 391.7905 408.6331 389.5822 397.5305 379.5284 389.446 372.4504 384.2814 358.1336 389.6557 346.3044 Z"/>
<path d="M 565.1811 289.3445 587.8788 290.3296 581.277 291.4161 580.0813 312.1281 567.3961 319.5628 562.1358 334.5621 549.8537 339.1362 549.4022 326.9701 549.85 313.75 564.1336 308.5066 565.1811 289.3445 Z"/>
<path d="M 283.0735 256.5167 306.4281 247.065 315.6689 258.8533 314.2383 268.4266 303.4576 276.4011 279.5698 279.8435 266.9903 271.927 250.6541 270.8988 248.5391 263.6943 258.8546 264.6994 283.0735 256.5167 Z"/>
<path d="M 628.8668 249.2358 632.879 245.6169 636.2608 246.2781 637.3037 252.3997 638.9348 259.7045 627.3406 259.4164 627.824 252.3938 628.8668 249.2358 Z"/>
<path d="M 393.5189 11.5169 400.3146 17.8771 397.9849 23.3967 387.7949 19.6704 393.5189 11.5169 Z"/>
<path d="M 231.039 158.874 237.3394 156.7309 246.4055 135.6626 250.0223 139.4173 272.2402 142.7248 270.304 148.9501 281.0435 155.1082 290.2729 151.7061 296.1409 164.7713 292.4396 176.9627 281.5414 180.1722 266.9276 174.1092 240.4289 160.0546 231.039 158.874 Z"/>
<path d="M 643.4988 255.7204 647.023 255.7011 653.2675 257.884 648.9585 261.3515 647.2769 262.1883 643.4988 255.7204 Z"/>
<path d="M 561.2105 199.316 566.621 207.9859 565.7047 210.2293 564.1724 210.3569 550.6003 202.3588 561.2105 199.316 Z"/>
<path d="M 460.6643 261.6471 459.0335 250.9685 461.9557 249.3137 466.9495 249.6819 472.0009 266.0762 460.6643 261.6471 Z"/>
<path d="M 633.5258 236.5889 638.5534 234.3319 644.0085 232.8221 646.9987 234.7921 640.0704 244.2421 636.2608 246.2781 632.879 245.6169 633.5258 236.5889 Z"/>
<path d="M 508.8292 252.4971 521.317 248.0209 521.9711 231.6993 530.0743 236.524 535.6613 261.5064 534.1885 277.8304 517.6321 281.8369 518.2506 263.5462 508.8292 252.4971 Z"/>
</g>
</svg>