<?xml version="1.0"?>
<svg xmlns="http://www.w3.org/2000/svg" version="1.2" baseProfile="tiny" width="800" height="881" viewBox="0 0 800 881" stroke-linecap="round" stroke-linejoin="round">
<g id="28MUE250GC_SIR">
<path d="M 557.2422 215.2457 511.65 231.5846 464.6866 226.3773 443.3185 263.5944 402.821 271.3926 357.0826 231.8823 378.572 208.0953 415.0908 208.9268 440.6134 161.626 472.3945 162.2202 522.0808 200.3052 557.2422 215.2457 Z"/>
<path d="M 410.4809 464.4535 438.9485 496.0856 416.9395 515.9061 393.2481 516.5834 396.4502 487.1795 410.4809 464.4535 Z"/>
<path d="M 341.743 626.9808 341.6881 585.6275 364.3946 561.4584 400.9969 565.2512 396.744 625.8519 466.601 682.15 471.7285 706.428 426.1217 761.6711 387.489 721.6523 395.4031 696.0589 370.5906 659.5337 341.743 626.9808 Z"/>
<path d="M 450.3115 474.462 448.9535 467.2876 498.3479 481.8399 499.2883 487.8093 468.7666 529.3714 452.5135 497.3441 450.3115 474.462 Z"/>
<path d="M 507.4207 470.5144 533.5622 481.8379 533.5386 496.7132 560.0557 512.6725 508.809 527.7908 499.2883 487.8093 498.3479 481.8399 507.4207 470.5144 Z"/>
<path d="M 361.2873 384.9301 364.3377 331.0677 367.0038 315.9183 391.1373 370.8711 419.9044 406.113 383.1197 413.7415 361.2873 384.9301 Z"/>
<path d="M 239.6677 769.6766 243.5621 773.1835 246.906 776.1938 251.4295 780.2657 255.151 783.6146 278.4102 804.526 256.6787 844.9772 223.2602 810.0342 239.6677 769.6766 Z"/>
<path d="M 302.0754 404.364 361.2873 384.9301 383.1197 413.7415 400.0584 438.2036 368.1171 456.3784 333.6027 449.5318 302.0754 404.364 Z"/>
<path d="M 593.324 524.9745 601.9854 526.2655 523.479 618.2392 521.2356 586.6408 593.324 524.9745 Z"/>
<path d="M 280.8949 313.1386 319.2069 330.5825 364.3377 331.0677 361.2873 384.9301 302.0754 404.364 289.9926 364.9665 280.8949 313.1386 Z"/>
<path d="M 438.9485 496.0856 410.4809 464.4535 431.3713 461.5771 450.3115 474.462 452.5135 497.3441 438.9485 496.0856 Z"/>
<path d="M 138.4828 746.1514 195.9308 694.0704 233.334 711.9159 234.3022 719.4697 249.3167 739.9763 252.046 761.8365 239.6677 769.6766 223.2602 810.0342 215.8475 814.292 196.9183 787.0909 138.4828 746.1514 Z"/>
<path d="M 271.8845 512.6808 281.5696 505.3261 324.0108 564.3344 289.6246 567.1003 271.8845 512.6808 Z"/>
<path d="M 560.0557 512.6725 574.4085 500.9459 581.6806 503.9997 593.324 524.9745 521.2356 586.6408 523.786 580.5927 510.4175 560.2835 500.3604 543.0789 508.809 527.7908 560.0557 512.6725 Z"/>
<path d="M 250.8415 211.8099 295.3158 204.589 357.0826 231.8823 308.411 254.3239 273.8703 246.1296 252.6067 260.6875 202.9621 262.7718 182.7838 220.4735 250.8415 211.8099 Z"/>
<path d="M 468.7666 529.3714 432.8798 541.0099 416.9395 515.9061 438.9485 496.0856 452.5135 497.3441 468.7666 529.3714 Z"/>
<path d="M 341.743 626.9808 370.5906 659.5337 340.3037 699.8354 302.6708 708.2631 309.2112 635.0408 341.743 626.9808 Z"/>
<path d="M 567.0307 324.217 569.0582 301.2024 595.5269 303.5203 605.5668 318.0692 580.4389 344.9647 567.0307 324.217 Z"/>
<path d="M 255.151 783.6146 251.4295 780.2657 246.906 776.1938 243.5621 773.1835 239.6677 769.6766 252.046 761.8365 278.021 784.7359 312.5561 765.8626 374.2981 777.6192 362.0032 819.6348 278.4102 804.526 255.151 783.6146 Z"/>
<path d="M 530.6138 348.3718 534.389 335.5128 574.7867 374.8364 580.3362 378.8117 566.4786 399.0442 530.6138 348.3718 Z"/>
<path d="M 393.2481 516.5834 416.9395 515.9061 432.8798 541.0099 401.2984 563.9983 401.1212 564.241 400.9969 565.2512 364.3946 561.4584 364.8281 561.1203 393.2481 516.5834 Z"/>
<path d="M 511.65 231.5846 557.2422 215.2457 558.3202 235.9451 509.7356 263.9101 511.65 231.5846 Z"/>
<path d="M 281.5696 505.3261 322.2517 502.2246 364.8281 561.1203 364.3946 561.4584 341.6881 585.6275 324.0108 564.3344 281.5696 505.3261 Z"/>
<path d="M 580.4389 344.9647 574.7867 374.8364 534.389 335.5128 567.0307 324.217 580.4389 344.9647 Z"/>
<path d="M 138.4828 746.1514 196.9183 787.0909 215.8475 814.292 189.8408 814.6525 178.827 845.178 127.5611 811.6335 114.3295 786.9635 138.4828 746.1514 Z"/>
<path d="M 569.0582 301.2024 562.8441 303.2377 589.9638 267.6369 604.9641 286.5274 595.5269 303.5203 569.0582 301.2024 Z"/>
<path d="M 580.3362 378.8117 616.7375 333.602 622.4017 327.3188 652.6424 347.4821 667.0937 380.1457 646.2915 461.8176 632.8075 453.2002 595.054 413.0279 580.3362 378.8117 Z"/>
<path d="M 595.5269 303.5203 604.9641 286.5274 667.06 321.9848 622.4017 327.3188 616.7375 333.602 605.5668 318.0692 595.5269 303.5203 Z"/>
<path d="M 178.827 845.178 189.8408 814.6525 215.8475 814.292 223.2602 810.0342 256.6787 844.9772 265.649 860.6066 244.2014 879.8885 187.7865 859.4202 178.827 845.178 Z"/>
<path d="M 322.2517 502.2246 309.4473 483.7791 333.6027 449.5318 368.1171 456.3784 396.4502 487.1795 393.2481 516.5834 364.8281 561.1203 322.2517 502.2246 Z"/>
<path d="M 432.8798 541.0099 468.7666 529.3714 500.3604 543.0789 510.4175 560.2835 460.2074 574.0715 401.2984 563.9983 432.8798 541.0099 Z"/>
<path d="M 250.7349 60.864 179.6795 76.9348 159.8082 165.5424 134.1015 190.3496 107.732 166.5162 121.1551 125.6158 94.595 108.3608 87.8047 74.667 103.7435 54.6851 90.5621 23.5376 111.3746 1 151.6954 6.4847 202.304 49.0692 250.7349 60.864 Z"/>
<path d="M 758.7337 388.0384 717.3775 420.714 711.02 419.4815 727.0442 386.1825 758.7337 388.0384 Z"/>
<path d="M 440.6134 161.626 415.0908 208.9268 378.572 208.0953 357.0826 231.8823 295.3158 204.589 250.8415 211.8099 276.1416 191.4252 336.9019 96.8988 415.2197 132.052 440.6134 161.626 Z"/>
<path d="M 499.2883 487.8093 508.809 527.7908 500.3604 543.0789 468.7666 529.3714 499.2883 487.8093 Z"/>
<path d="M 391.1373 370.8711 435.008 333.648 434.9428 360.2604 459.7039 384.4502 487.7009 381.6797 478.5657 407.9516 448.9535 467.2876 450.3115 474.462 431.3713 461.5771 400.0584 438.2036 383.1197 413.7415 419.9044 406.113 391.1373 370.8711 Z"/>
<path d="M 250.7349 60.864 291.5595 92.2368 336.9019 96.8988 276.1416 191.4252 250.8415 211.8099 182.7838 220.4735 178.7591 204.3042 134.1015 190.3496 159.8082 165.5424 179.6795 76.9348 250.7349 60.864 Z"/>
<path d="M 435.008 333.648 425.6389 307.9164 467.5835 351.6725 484.4502 366.8851 487.7009 381.6797 459.7039 384.4502 434.9428 360.2604 435.008 333.648 Z"/>
<path d="M 269.7533 665.7975 309.2112 635.0408 302.6708 708.2631 280.9265 724.5288 234.3022 719.4697 233.334 711.9159 269.7533 665.7975 Z"/>
<path d="M 118.4709 585.0324 160.3958 577.93 183.3953 638.4791 232.2382 638.2198 269.7533 665.7975 233.334 711.9159 195.9308 694.0704 174.3062 683.701 130.0292 634.8209 118.4709 585.0324 Z"/>
<path d="M 478.5657 407.9516 487.7009 381.6797 484.4502 366.8851 530.6138 348.3718 566.4786 399.0442 533.5622 481.8379 507.4207 470.5144 506.8331 445.7312 478.5657 407.9516 Z"/>
<path d="M 473.473 275.4496 473.5093 275.4288 562.8441 303.2377 569.0582 301.2024 567.0307 324.217 534.389 335.5128 530.6138 348.3718 484.4502 366.8851 467.5835 351.6725 478.5554 325.3962 473.473 275.4496 Z"/>
<path d="M 478.5657 407.9516 506.8331 445.7312 507.4207 470.5144 498.3479 481.8399 448.9535 467.2876 478.5657 407.9516 Z"/>
<path d="M 523.786 580.5927 521.2356 586.6408 523.479 618.2392 471.7285 706.428 466.601 682.15 498.9739 611.1881 494.3673 600.9012 523.786 580.5927 Z"/>
<path d="M 400.9969 565.2512 401.1212 564.241 475.3814 605.8887 494.3673 600.9012 498.9739 611.1881 466.601 682.15 396.744 625.8519 400.9969 565.2512 Z"/>
<path d="M 667.0937 380.1457 707.7556 386.5643 711.02 419.4815 717.3775 420.714 760.2111 436.5496 679.5968 477.3018 646.2915 461.8176 667.0937 380.1457 Z"/>
<path d="M 241.2029 434.6216 262.0428 466.0475 252.2977 514.6348 246.0019 513.8278 233.4162 478.2809 241.2029 434.6216 Z"/>
<path d="M 280.9265 724.5288 249.3167 739.9763 234.3022 719.4697 280.9265 724.5288 Z"/>
<path d="M 715.8537 335.312 687.9302 343.6093 675.8344 323.059 715.8537 335.312 Z"/>
<path d="M 262.0428 466.0475 309.4473 483.7791 322.2517 502.2246 281.5696 505.3261 271.8845 512.6808 252.2977 514.6348 262.0428 466.0475 Z"/>
<path d="M 425.6389 307.9164 394.9788 296.0314 402.821 271.3926 443.3185 263.5944 473.473 275.4496 478.5554 325.3962 467.5835 351.6725 425.6389 307.9164 Z"/>
<path d="M 667.06 321.9848 675.8344 323.059 687.9302 343.6093 715.8537 335.312 727.0442 386.1825 711.02 419.4815 707.7556 386.5643 667.0937 380.1457 652.6424 347.4821 622.4017 327.3188 667.06 321.9848 Z"/>
<path d="M 511.65 231.5846 509.7356 263.9101 473.5093 275.4288 473.473 275.4496 443.3185 263.5944 464.6866 226.3773 511.65 231.5846 Z"/>
<path d="M 302.6708 708.2631 340.3037 699.8354 370.5906 659.5337 395.4031 696.0589 387.489 721.6523 426.1217 761.6711 403.6528 819.2573 377.3066 832.9137 362.0032 819.6348 374.2981 777.6192 312.5561 765.8626 302.6708 708.2631 Z"/>
<path d="M 160.3958 577.93 222.1277 549.216 246.0019 513.8278 252.2977 514.6348 271.8845 512.6808 289.6246 567.1003 324.0108 564.3344 341.6881 585.6275 341.743 626.9808 309.2112 635.0408 269.7533 665.7975 232.2382 638.2198 183.3953 638.4791 160.3958 577.93 Z"/>
<path d="M 605.5668 318.0692 616.7375 333.602 580.3362 378.8117 574.7867 374.8364 580.4389 344.9647 605.5668 318.0692 Z"/>
<path d="M 368.1171 456.3784 400.0584 438.2036 431.3713 461.5771 410.4809 464.4535 396.4502 487.1795 368.1171 456.3784 Z"/>
<path d="M 574.4085 500.9459 560.0557 512.6725 533.5386 496.7132 574.4085 500.9459 Z"/>
<path d="M 118.5914 530.7135 119.627 561.0553 69.4949 559.8067 28.6759 612.5813 9.2905 600.8984 1 560.157 15.7751 514.6119 85.2411 510.2079 118.5914 530.7135 Z"/>
<path d="M 186.347 428.3524 226.4882 425.1916 241.2029 434.6216 233.4162 478.2809 179.9466 457.4273 186.347 428.3524 Z"/>
<path d="M 119.627 561.0553 118.4709 585.0324 130.0292 634.8209 174.3062 683.701 195.9308 694.0704 138.4828 746.1514 114.3295 786.9635 103.8515 760.2522 114.966 722.2555 80.1201 710.9544 74.4464 669.7104 28.6759 612.5813 69.4949 559.8067 119.627 561.0553 Z"/>
<path d="M 572.281 260.4046 589.9638 267.6369 562.8441 303.2377 572.281 260.4046 Z"/>
<path d="M 533.5386 496.7132 533.5622 481.8379 571.4233 497.1894 581.6806 503.9997 574.4085 500.9459 533.5386 496.7132 Z"/>
<path d="M 207.9041 289.7154 227.121 286.0936 280.8949 313.1386 289.9926 364.9665 226.4882 425.1916 186.347 428.3524 167.6765 390.7169 178.4554 368.3294 221.2109 348.675 207.9041 289.7154 Z"/>
<path d="M 510.4175 560.2835 523.786 580.5927 494.3673 600.9012 475.3814 605.8887 401.1212 564.241 401.2984 563.9983 460.2074 574.0715 510.4175 560.2835 Z"/>
<path d="M 760.2111 436.5496 717.3775 420.714 758.7337 388.0384 784.2679 388.6048 799 419.5788 760.2111 436.5496 Z"/>
<path d="M 558.3202 235.9451 572.281 260.4046 562.8441 303.2377 473.5093 275.4288 509.7356 263.9101 558.3202 235.9451 Z"/>
<path d="M 202.9621 262.7718 252.6067 260.6875 273.8703 246.1296 308.411 254.3239 357.0826 231.8823 402.821 271.3926 394.9788 296.0314 367.0038 315.9183 364.3377 331.0677 319.2069 330.5825 280.8949 313.1386 227.121 286.0936 207.9041 289.7154 202.9621 262.7718 Z"/>
<path d="M 179.9466 457.4273 233.4162 478.2809 246.0019 513.8278 222.1277 549.216 160.3958 577.93 118.4709 585.0324 119.627 561.0553 118.5914 530.7135 187.0857 503.3113 179.9466 457.4273 Z"/>
<path d="M 394.9788 296.0314 425.6389 307.9164 435.008 333.648 391.1373 370.8711 367.0038 315.9183 394.9788 296.0314 Z"/>
<path d="M 632.8075 453.2002 646.2915 461.8176 679.5968 477.3018 601.9854 526.2655 593.324 524.9745 581.6806 503.9997 571.4233 497.1894 632.8075 453.2002 Z"/>
<path d="M 278.4102 804.526 362.0032 819.6348 377.3066 832.9137 350.0541 858.3876 288.5578 874.9399 265.649 860.6066 256.6787 844.9772 278.4102 804.526 Z"/>
<path d="M 302.0754 404.364 333.6027 449.5318 309.4473 483.7791 262.0428 466.0475 241.2029 434.6216 226.4882 425.1916 289.9926 364.9665 302.0754 404.364 Z"/>
<path d="M 249.3167 739.9763 280.9265 724.5288 302.6708 708.2631 312.5561 765.8626 278.021 784.7359 252.046 761.8365 249.3167 739.9763 Z"/>
<path d="M 566.4786 399.0442 580.3362 378.8117 595.054 413.0279 632.8075 453.2002 571.4233 497.1894 533.5622 481.8379 566.4786 399.0442 Z"/>
</g>
</svg>