<?xml version="1.0"?>
<svg xmlns="http://www.w3.org/2000/svg" version="1.2" baseProfile="tiny" width="800" height="1351" viewBox="0 0 800 1351" stroke-linecap="round" stroke-linejoin="round">
<g id="17MUE250GC_SIR">
<path d="M 290.8832 1032.0638 320.8694 1007.7266 353.0869 1012.0546 300.4135 1088.9548 284.8747 1101.1567 282.5742 1104.5283 254.7372 1068.2099 290.8832 1032.0638 Z"/>
<path d="M 512.5356 367.1279 538.7465 384.8227 491.4425 409.1868 512.5356 367.1279 Z"/>
<path d="M 217.6494 547.7057 235.829 563.2797 246.5979 612.1518 222.1825 608.477 218.5007 647.7912 193.0167 666.3073 167.0266 650.0149 144.1195 631.1453 186.2246 595.3738 217.6494 547.7057 Z"/>
<path d="M 484.0416 157.3723 490.6855 162.4742 490.9022 178.4511 452.7409 169.3957 450.3201 162.5289 484.0416 157.3723 Z"/>
<path d="M 512.1331 80.2489 531.0742 72.9346 537.4934 109.2636 494.3695 122.7004 486.7667 93.9483 512.1331 80.2489 Z"/>
<path d="M 322.169 393.792 307.6248 440.2939 255.6103 433.9753 227.1083 402.6293 261.9435 393.0268 322.169 393.792 Z"/>
<path d="M 125.2922 659.1814 120.6197 731.4358 125.4062 761.9487 178.5978 784.8222 210.3486 785.7042 268.4251 840.3947 285.9515 842.972 286.2152 844.3402 271.9764 869.0863 214.9039 856.3783 158.3452 868.4041 126.3949 878.1865 21.3989 892.1823 41.0889 864.4715 87.3182 745.7336 125.2922 659.1814 Z"/>
<path d="M 385.8155 794.942 385.3533 771.2207 409.6077 777.9447 424.9417 802.2712 459.088 808.3809 475.2445 787.7734 479.405 811.7095 469.4727 835.4168 422.9338 859.2713 384.6211 850.6308 385.8155 794.942 Z"/>
<path d="M 349.2781 387.1753 397.5469 368.8843 421.0484 381.4966 422.6563 421.4004 370.7948 434.9947 364.3848 434.5381 361.604 415.6997 349.2781 387.1753 Z"/>
<path d="M 554.5836 948.471 605.731 974.1844 657.2353 968.7508 658.1839 970.0054 621.5272 1004.6708 590.907 1008.6348 583.9206 1069.5897 574.7119 1085.3868 531.359 1104.8338 542.0976 991.2994 554.5836 948.471 Z"/>
<path d="M 228.9161 988.5664 210.6868 975.9523 221.2081 966.1142 306.0422 964.7143 328.9002 974.4214 297.2192 988.853 228.9161 988.5664 Z"/>
<path d="M 416.6734 1045.7078 431.2896 1065.5432 466.0766 1089.7862 478.5124 1135.6676 426.9049 1124.9405 390.604 1097.3837 367.7554 1006.8513 371.2025 996.7455 416.6734 1045.7078 Z"/>
<path d="M 336.5763 799.5944 385.8155 794.942 384.6211 850.6308 422.9338 859.2713 409.7016 945.9528 392.9506 960.6256 371.1431 935.8873 317.2441 914.3905 316.7792 896.9609 311.024 875.6746 314.5565 864.3967 327.6343 851.0534 348.7114 837.2201 336.5763 799.5944 Z"/>
<path d="M 716.8262 1080.7208 711.8949 1126.6713 617.6287 1172.1824 612.254 1170.5467 628.7492 1146.5851 649.2937 1118.0256 693.0958 1072.2622 716.8262 1080.7208 Z"/>
<path d="M 433.4055 41.1277 435.2697 31.2797 449.3827 38.4231 473.961 32.4281 472.1208 67.1525 472.0351 75.1943 433.4055 41.1277 Z"/>
<path d="M 416.6772 614.4818 444.9987 642.0706 497.14 651.3472 490.7767 673.5413 461.3123 676.9975 415.1625 692.7884 389.0453 668.3491 399.7204 643.7341 416.6772 614.4818 Z"/>
<path d="M 472.1208 67.1525 472.2055 67.0776 486.2245 94.25 484.0668 90.2033 472.0351 75.1943 472.1208 67.1525 Z"/>
<path d="M 487.7151 932.5913 490.4075 939.6616 477.8594 981.964 404.1336 994.1275 392.9506 960.6256 409.7016 945.9528 443.3375 976.3374 487.7151 932.5913 Z"/>
<path d="M 376.3047 320.2285 376.6832 291.8485 394.1227 283.3047 398.14 286.0753 376.3047 320.2285 Z"/>
<path d="M 461.874 485.495 495.2111 533.2792 567.8856 536.684 543.002 588.458 531.8359 588.5227 520.2855 594.9672 443.202 564.5717 461.874 485.495 Z"/>
<path d="M 561.5578 1182.4862 589.3674 1169.825 612.254 1170.5467 617.6287 1172.1824 656.8053 1206.022 669.9659 1218.9834 673.0394 1230.0505 675.1758 1241.8323 668.5728 1268.7904 607.2924 1296.6435 541.0321 1317.7571 515.6749 1292.7188 563.7651 1247.8278 572.3198 1211.5705 561.5578 1182.4862 Z"/>
<path d="M 473.961 32.4281 497.0755 36.6883 489.7571 55.8838 472.2055 67.0776 472.1208 67.1525 473.961 32.4281 Z"/>
<path d="M 422.9338 859.2713 469.4727 835.4168 472.2757 849.0449 469.3197 877.2495 487.7151 932.5913 443.3375 976.3374 409.7016 945.9528 422.9338 859.2713 Z"/>
<path d="M 421.0484 381.4966 432.1555 385.242 473.6613 420.6715 453.4043 446.5194 420.7288 483.8309 397.4229 482.2087 384.1277 481.0036 370.7948 434.9947 422.6563 421.4004 421.0484 381.4966 Z"/>
<path d="M 216.5314 1071.7003 254.7372 1068.2099 282.5742 1104.5283 266.6782 1125.1318 216.4415 1136.2444 240.5398 1105.3504 216.5314 1071.7003 Z"/>
<path d="M 740.1456 814.4108 780.8488 826.8043 799 860.7546 742.2282 888.7203 725.0892 933.1512 692.3306 981.0457 672.6184 989.3064 658.1839 970.0054 657.2353 968.7508 626.1792 925.771 624.5268 897.319 594.3543 844.1344 617.4113 813.305 672.829 821.396 740.1456 814.4108 Z"/>
<path d="M 490.4075 939.6616 554.5836 948.471 542.0976 991.2994 507.4505 1019.8103 483.5296 991.3059 477.8594 981.964 490.4075 939.6616 Z"/>
<path d="M 364.3848 434.5381 370.7948 434.9947 384.1277 481.0036 342.3009 503.6276 345.4982 449.1988 364.3848 434.5381 Z"/>
<path d="M 399.7749 513.5009 398.0365 543.8189 370.4597 555.3324 341.0669 543.4667 341.398 523.3075 344.2801 513.0099 367.2036 527.5123 399.7749 513.5009 Z"/>
<path d="M 425.1368 579.3776 424.6964 562.2586 443.202 564.5717 520.2855 594.9672 531.8359 588.5227 519.8509 609.9781 462.1191 614.7344 425.4711 592.4629 425.1368 579.3776 Z"/>
<path d="M 303.3835 716.657 323.7633 687.2764 323.2478 654.1604 326.0405 653.6107 326.3713 651.5045 353.7321 656.7281 352.8562 690.1124 337.3 721.5981 303.3835 716.657 Z"/>
<path d="M 277.7292 263.103 299.3256 303.418 337.4261 317.2121 334.4619 341.2404 252.2895 326.8527 248.6481 283.3124 277.7292 263.103 Z"/>
<path d="M 462.8996 747.3912 471.8169 764.9779 475.2445 787.7734 459.088 808.3809 424.9417 802.2712 409.6077 777.9447 408.9556 776.3085 462.8996 747.3912 Z"/>
<path d="M 479.405 811.7095 516.2822 824.934 499.9638 848.8095 472.2757 849.0449 469.4727 835.4168 479.405 811.7095 Z"/>
<path d="M 286.7346 489.839 284.1727 539.3607 263.3365 564.1951 235.829 563.2797 217.6494 547.7057 246.5967 492.0121 286.7346 489.839 Z"/>
<path d="M 533.1647 227.9024 527.9786 246.0977 493.3753 247.8564 468.8444 220.5037 505.3418 205.8116 533.1647 227.9024 Z"/>
<path d="M 479.405 811.7095 475.2445 787.7734 471.8169 764.9779 500.9406 780.2431 575.6604 787.9984 593.3253 796.3806 617.4113 813.305 594.3543 844.1344 559.2783 856.2432 535.874 810.8461 516.2822 824.934 479.405 811.7095 Z"/>
<path d="M 386.2387 734.9286 408.9556 776.3085 409.6077 777.9447 385.3533 771.2207 386.2387 734.9286 Z"/>
<path d="M 376.3047 320.2285 398.14 286.0753 415.9918 297.9307 423.8512 315.5593 437.3327 353.1601 432.1555 385.242 421.0484 381.4966 397.5469 368.8843 349.2781 387.1753 302.5595 367.58 243.9438 374.9512 239.4705 355.3251 252.2895 326.8527 334.4619 341.2404 354.3966 341.5735 376.3047 320.2285 Z"/>
<path d="M 385.9002 633.7357 399.7204 643.7341 389.0453 668.3491 385.9933 677.4656 352.8562 690.1124 353.7321 656.7281 385.9002 633.7357 Z"/>
<path d="M 484.0668 90.2033 486.2245 94.25 486.7667 93.9483 494.3695 122.7004 495.9337 135.4608 462.5688 136.4133 447.2317 158.1039 409.3682 133.328 484.0668 90.2033 Z"/>
<path d="M 531.8359 588.5227 543.002 588.458 570.1996 614.9287 552.3907 668.4867 538.057 659.4957 490.7767 673.5413 497.14 651.3472 519.8509 609.9781 531.8359 588.5227 Z"/>
<path d="M 227.1083 402.6293 239.4705 355.3251 243.9438 374.9512 302.5595 367.58 349.2781 387.1753 361.604 415.6997 322.169 393.792 261.9435 393.0268 227.1083 402.6293 Z"/>
<path d="M 295.6019 1158.598 297.2887 1158.8191 283.3302 1191.3006 227.9878 1197.5624 243.6389 1163.4954 273.5887 1139.2435 295.6019 1158.598 Z"/>
<path d="M 620.793 1013.3312 649.7918 1025.8846 680.3235 1008.67 687.1265 1026.449 757.646 1049.5026 718.0588 1040.6962 648.9535 1064.3022 649.2937 1118.0256 628.7492 1146.5851 631.8709 1109.5181 599.6615 1102.7346 574.7119 1085.3868 583.9206 1069.5897 620.793 1013.3312 Z"/>
<path d="M 658.1839 970.0054 672.6184 989.3064 680.3235 1008.67 649.7918 1025.8846 620.793 1013.3312 621.5272 1004.6708 658.1839 970.0054 Z"/>
<path d="M 472.2757 849.0449 499.9638 848.8095 533.1982 870.8096 559.2783 856.2432 594.3543 844.1344 624.5268 897.319 626.1792 925.771 657.2353 968.7508 605.731 974.1844 554.5836 948.471 490.4075 939.6616 487.7151 932.5913 469.3197 877.2495 472.2757 849.0449 Z"/>
<path d="M 371.2025 996.7455 371.8544 990.6282 404.1336 994.1275 477.8594 981.964 483.5296 991.3059 447.689 1042.1839 416.6734 1045.7078 371.2025 996.7455 Z"/>
<path d="M 172.2857 1011.1911 152.5099 947.1306 185.3813 973.3456 210.6868 975.9523 228.9161 988.5664 290.8832 1032.0638 254.7372 1068.2099 216.5314 1071.7003 185.1642 1012.762 172.2857 1011.1911 Z"/>
<path d="M 300.1061 794.7061 314.5374 792.791 336.5763 799.5944 348.7114 837.2201 327.6343 851.0534 286.4303 845.4571 286.2152 844.3402 285.9515 842.972 264.9481 808.8649 300.1061 794.7061 Z"/>
<path d="M 454.7953 177.5471 474.3364 202.4704 468.8444 220.5037 443.5932 225.291 449.4737 200.2255 454.7953 177.5471 Z"/>
<path d="M 424.7784 234.0614 426.2604 229.2599 443.5932 225.291 468.8444 220.5037 493.3753 247.8564 527.9786 246.0977 521.5729 293.4304 485.6311 280.1143 424.7784 234.0614 Z"/>
<path d="M 372.7819 1182.2204 394.9737 1154.7357 407.8425 1245.7049 363.8637 1239.7501 372.7819 1182.2204 Z"/>
<path d="M 570.1996 614.9287 602.5417 621.6982 631.5224 645.4145 638.4295 671.0135 678.454 699.4345 666.856 742.243 694.3657 769.3363 611.7585 783.1538 593.3253 796.3806 575.6604 787.9984 598.4481 726.7469 594.1173 696.8129 552.3907 668.4867 570.1996 614.9287 Z"/>
<path d="M 382.7296 271.2385 394.1227 283.3047 376.6832 291.8485 356.8147 287.3269 337.4489 240.4899 342.8253 211.9783 382.7296 271.2385 Z"/>
<path d="M 507.4505 1019.8103 542.0976 991.2994 531.359 1104.8338 515.4092 1141.5575 478.5124 1135.6676 466.0766 1089.7862 431.2896 1065.5432 473.9069 1071.6526 507.4505 1019.8103 Z"/>
<path d="M 165.2467 678.3119 167.0266 650.0149 193.0167 666.3073 218.5007 647.7912 242.5576 695.2662 287.4786 718.9787 301.3138 747.3969 234.1973 730.9921 181.3136 671.795 165.2467 678.3119 Z"/>
<path d="M 271.9764 869.0863 288.4153 893.3159 288.197 908.0151 279.287 911.8779 227.9253 905.3323 192.2688 919.5255 209.0164 900.6834 158.3452 868.4041 214.9039 856.3783 271.9764 869.0863 Z"/>
<path d="M 757.646 1049.5026 731.4383 1049.4874 716.8262 1080.7208 693.0958 1072.2622 649.2937 1118.0256 648.9535 1064.3022 718.0588 1040.6962 757.646 1049.5026 Z"/>
<path d="M 316.7792 896.9609 317.2441 914.3905 306.6838 942.345 279.287 911.8779 288.197 908.0151 316.7792 896.9609 Z"/>
<path d="M 461.3123 676.9975 462.8996 747.3912 408.9556 776.3085 386.2387 734.9286 385.9933 677.4656 389.0453 668.3491 415.1625 692.7884 461.3123 676.9975 Z"/>
<path d="M 316.7792 896.9609 288.197 908.0151 288.4153 893.3159 311.024 875.6746 316.7792 896.9609 Z"/>
<path d="M 171.8757 709.5697 165.2467 678.3119 181.3136 671.795 234.1973 730.9921 301.3138 747.3969 288.2069 760.6972 259.6621 779.8979 217.8887 778.1105 217.009 778.8482 208.5462 735.7795 171.8757 709.5697 Z"/>
<path d="M 172.2857 1011.1911 185.1642 1012.762 216.5314 1071.7003 240.5398 1105.3504 216.4415 1136.2444 177.2687 1147.4791 160.7707 1130.4619 118.2288 1123.583 96.5116 1175.1994 60.1141 1199.677 38.7287 1248.414 4.5904 1210.0517 18.1085 1184.8762 8.6845 1146.0193 10.5253 1042.4325 172.2857 1011.1911 Z"/>
<path d="M 673.0394 1230.0505 669.9659 1218.9834 726.864 1234.4376 703.8274 1244.9017 673.0394 1230.0505 Z"/>
<path d="M 483.5296 991.3059 507.4505 1019.8103 473.9069 1071.6526 431.2896 1065.5432 416.6734 1045.7078 447.689 1042.1839 483.5296 991.3059 Z"/>
<path d="M 711.8949 1126.6713 710.8792 1157.8974 746.8262 1189.4528 707.23 1204.8813 656.8053 1206.022 617.6287 1172.1824 711.8949 1126.6713 Z"/>
<path d="M 379.3684 15.862 366.5563 1 416.7351 11.9163 404.9829 21.3783 379.3684 15.862 Z"/>
<path d="M 363.8637 1239.7501 407.8425 1245.7049 421.9342 1298.4675 373.5481 1320.61 362.8964 1294.7007 363.8637 1239.7501 Z"/>
<path d="M 424.7784 234.0614 485.6311 280.1143 489.1233 292.812 423.8512 315.5593 415.9918 297.9307 424.7784 234.0614 Z"/>
<path d="M 398.9738 205.7908 391.1423 193.8252 449.4737 200.2255 443.5932 225.291 426.2604 229.2599 398.9738 205.7908 Z"/>
<path d="M 404.9829 21.3783 416.7351 11.9163 432.9211 14.2458 435.2697 31.2797 433.4055 41.1277 404.9829 21.3783 Z"/>
<path d="M 617.4113 813.305 593.3253 796.3806 611.7585 783.1538 694.3657 769.3363 699.3316 797.1947 740.1456 814.4108 672.829 821.396 617.4113 813.305 Z"/>
<path d="M 277.7292 263.103 308.9141 254.8172 303.9444 271.9118 353.8291 308.5773 354.3966 341.5735 334.4619 341.2404 337.4261 317.2121 299.3256 303.418 277.7292 263.103 Z"/>
<path d="M 381.3334 617.4861 401.0072 585.4517 425.1368 579.3776 425.4711 592.4629 416.6772 614.4818 399.7204 643.7341 385.9002 633.7357 381.3334 617.4861 Z"/>
<path d="M 293.3571 574.7226 305.9886 555.9239 335.2899 570.4426 338.3085 621.0941 326.3713 651.5045 326.0405 653.6107 313.3735 598.1633 293.3571 574.7226 Z"/>
<path d="M 218.5007 647.7912 222.1825 608.477 246.5979 612.1518 312.1696 633.7213 323.2478 654.1604 323.7633 687.2764 303.3835 716.657 305.5253 740.8819 301.3138 747.3969 287.4786 718.9787 242.5576 695.2662 218.5007 647.7912 Z"/>
<path d="M 621.5272 1004.6708 620.793 1013.3312 583.9206 1069.5897 590.907 1008.6348 621.5272 1004.6708 Z"/>
<path d="M 408.0803 123.6547 409.3682 133.328 447.2317 158.1039 450.3201 162.5289 452.7409 169.3957 454.7953 177.5471 449.4737 200.2255 391.1423 193.8252 384.6573 188.9683 374.7391 165.2667 408.0803 123.6547 Z"/>
<path d="M 279.287 911.8779 306.6838 942.345 306.0422 964.7143 221.2081 966.1142 210.6868 975.9523 185.3813 973.3456 152.5099 947.1306 192.2688 919.5255 227.9253 905.3323 279.287 911.8779 Z"/>
<path d="M 284.8747 1101.1567 300.4135 1088.9548 322.7775 1110.5562 320.888 1162.858 297.2887 1158.8191 295.6019 1158.598 284.8747 1101.1567 Z"/>
<path d="M 533.1647 227.9024 505.3418 205.8116 513.6089 200.2137 514.8924 200.0516 538.4647 201.8024 533.1647 227.9024 Z"/>
<path d="M 158.3452 868.4041 209.0164 900.6834 192.2688 919.5255 152.5099 947.1306 172.2857 1011.1911 10.5253 1042.4325 1 1009.9852 20.41 958.6094 21.3989 892.1823 126.3949 878.1865 158.3452 868.4041 Z"/>
<path d="M 338.3085 621.0941 381.3334 617.4861 385.9002 633.7357 353.7321 656.7281 326.3713 651.5045 338.3085 621.0941 Z"/>
<path d="M 301.3138 747.3969 305.5253 740.8819 339.4376 750.4004 314.5374 792.791 300.1061 794.7061 288.2069 760.6972 301.3138 747.3969 Z"/>
<path d="M 228.9161 988.5664 297.2192 988.853 328.9002 974.4214 357.3933 1010.1133 353.0869 1012.0546 320.8694 1007.7266 290.8832 1032.0638 228.9161 988.5664 Z"/>
<path d="M 331.359 494.2098 341.398 523.3075 341.0669 543.4667 335.2899 570.4426 305.9886 555.9239 306.1103 528.6362 331.359 494.2098 Z"/>
<path d="M 435.2697 31.2797 432.9211 14.2458 443.4541 8.2079 449.3827 38.4231 435.2697 31.2797 Z"/>
<path d="M 574.7119 1085.3868 599.6615 1102.7346 589.3674 1169.825 561.5578 1182.4862 531.3746 1184.5322 515.4092 1141.5575 531.359 1104.8338 574.7119 1085.3868 Z"/>
<path d="M 271.9764 869.0863 286.2152 844.3402 286.4303 845.4571 314.5565 864.3967 311.024 875.6746 288.4153 893.3159 271.9764 869.0863 Z"/>
<path d="M 516.2822 824.934 535.874 810.8461 559.2783 856.2432 533.1982 870.8096 499.9638 848.8095 516.2822 824.934 Z"/>
<path d="M 288.2069 760.6972 300.1061 794.7061 264.9481 808.8649 217.8887 778.1105 259.6621 779.8979 288.2069 760.6972 Z"/>
<path d="M 489.7571 55.8838 497.0755 36.6883 531.0742 72.9346 512.1331 80.2489 489.7571 55.8838 Z"/>
<path d="M 263.3365 564.1951 293.3571 574.7226 313.3735 598.1633 326.0405 653.6107 323.2478 654.1604 312.1696 633.7213 246.5979 612.1518 235.829 563.2797 263.3365 564.1951 Z"/>
<path d="M 373.8174 35.945 379.3684 15.862 404.9829 21.3783 433.4055 41.1277 472.0351 75.1943 484.0668 90.2033 409.3682 133.328 408.0803 123.6547 398.2427 105.8347 423.3204 67.6604 373.8174 35.945 Z"/>
<path d="M 633.8827 545.2618 581.7103 522.7109 606.5096 467.903 673.332 441.58 695.9093 469.9768 683.2779 510.5025 645.2543 518.5744 633.8827 545.2618 Z"/>
<path d="M 322.169 393.792 361.604 415.6997 364.3848 434.5381 345.4982 449.1988 342.3009 503.6276 344.2801 513.0099 341.398 523.3075 331.359 494.2098 317.9886 474.7725 307.6248 440.2939 322.169 393.792 Z"/>
<path d="M 498.9072 337.8328 512.5356 367.1279 491.4425 409.1868 473.6613 420.6715 432.1555 385.242 437.3327 353.1601 483.6841 353.4258 498.9072 337.8328 Z"/>
<path d="M 495.9337 135.4608 484.0416 157.3723 450.3201 162.5289 447.2317 158.1039 462.5688 136.4133 495.9337 135.4608 Z"/>
<path d="M 490.9022 178.4511 514.8924 200.0516 513.6089 200.2137 474.3364 202.4704 454.7953 177.5471 452.7409 169.3957 490.9022 178.4511 Z"/>
<path d="M 599.6615 1102.7346 631.8709 1109.5181 628.7492 1146.5851 612.254 1170.5467 589.3674 1169.825 599.6615 1102.7346 Z"/>
<path d="M 88.2787 1202.651 154.0879 1225.797 197.516 1197.422 191.7727 1178.9593 223.6863 1197.6026 225.3431 1235.8293 244.1018 1254.7843 222.5622 1318.457 129.6489 1266.6616 69.6012 1244.0338 88.2787 1202.651 Z"/>
<path d="M 171.8757 709.5697 208.5462 735.7795 217.009 778.8482 210.3486 785.7042 178.5978 784.8222 125.4062 761.9487 120.6197 731.4358 171.8757 709.5697 Z"/>
<path d="M 254.1746 460.0131 281.327 472.3923 286.7346 489.839 246.5967 492.0121 254.1746 460.0131 Z"/>
<path d="M 366.5563 1 379.3684 15.862 373.8174 35.945 366.5563 1 Z"/>
<path d="M 223.6863 1197.6026 227.9878 1197.5624 283.3302 1191.3006 329.8774 1175.6246 306.9554 1207.8087 304.027 1241.7933 263.3939 1239.5058 244.1018 1254.7843 225.3431 1235.8293 223.6863 1197.6026 Z"/>
<path d="M 472.2055 67.0776 489.7571 55.8838 512.1331 80.2489 486.7667 93.9483 486.2245 94.25 472.2055 67.0776 Z"/>
<path d="M 398.9738 205.7908 426.2604 229.2599 424.7784 234.0614 415.9918 297.9307 398.14 286.0753 394.1227 283.3047 382.7296 271.2385 398.9738 205.7908 Z"/>
<path d="M 399.7749 513.5009 397.4229 482.2087 420.7288 483.8309 424.1716 547.3464 398.0365 543.8189 399.7749 513.5009 Z"/>
<path d="M 384.1277 481.0036 397.4229 482.2087 399.7749 513.5009 367.2036 527.5123 344.2801 513.0099 342.3009 503.6276 384.1277 481.0036 Z"/>
<path d="M 352.8562 690.1124 385.9933 677.4656 386.2387 734.9286 385.3533 771.2207 385.8155 794.942 336.5763 799.5944 314.5374 792.791 339.4376 750.4004 305.5253 740.8819 303.3835 716.657 337.3 721.5981 352.8562 690.1124 Z"/>
<path d="M 308.9141 254.8172 337.4489 240.4899 356.8147 287.3269 376.6832 291.8485 376.3047 320.2285 354.3966 341.5735 353.8291 308.5773 303.9444 271.9118 308.9141 254.8172 Z"/>
<path d="M 537.3481 134.5225 547.1472 176.9053 538.4647 201.8024 514.8924 200.0516 490.9022 178.4511 490.6855 162.4742 537.3481 134.5225 Z"/>
<path d="M 443.4541 8.2079 473.961 32.4281 449.3827 38.4231 443.4541 8.2079 Z"/>
<path d="M 461.3123 676.9975 490.7767 673.5413 538.057 659.4957 552.3907 668.4867 594.1173 696.8129 598.4481 726.7469 575.6604 787.9984 500.9406 780.2431 471.8169 764.9779 462.8996 747.3912 461.3123 676.9975 Z"/>
<path d="M 513.6089 200.2137 505.3418 205.8116 468.8444 220.5037 474.3364 202.4704 513.6089 200.2137 Z"/>
<path d="M 426.9049 1124.9405 394.9737 1154.7357 372.7819 1182.2204 329.8774 1175.6246 283.3302 1191.3006 297.2887 1158.8191 320.888 1162.858 322.7775 1110.5562 300.4135 1088.9548 353.0869 1012.0546 357.3933 1010.1133 367.7554 1006.8513 390.604 1097.3837 426.9049 1124.9405 Z"/>
<path d="M 306.6838 942.345 317.2441 914.3905 371.1431 935.8873 354.821 952.8121 371.8544 990.6282 371.2025 996.7455 367.7554 1006.8513 357.3933 1010.1133 328.9002 974.4214 306.0422 964.7143 306.6838 942.345 Z"/>
<path d="M 633.8827 545.2618 622.2245 598.2275 602.5417 621.6982 570.1996 614.9287 543.002 588.458 567.8856 536.684 581.7103 522.7109 633.8827 545.2618 Z"/>
<path d="M 538.7465 384.8227 606.5096 467.903 581.7103 522.7109 567.8856 536.684 495.2111 533.2792 461.874 485.495 453.4043 446.5194 473.6613 420.6715 491.4425 409.1868 538.7465 384.8227 Z"/>
<path d="M 371.1431 935.8873 392.9506 960.6256 404.1336 994.1275 371.8544 990.6282 354.821 952.8121 371.1431 935.8873 Z"/>
<path d="M 177.2687 1147.4791 191.7727 1178.9593 197.516 1197.422 154.0879 1225.797 88.2787 1202.651 96.5116 1175.1994 118.2288 1123.583 160.7707 1130.4619 177.2687 1147.4791 Z"/>
<path d="M 329.8774 1175.6246 372.7819 1182.2204 363.8637 1239.7501 362.8964 1294.7007 304.027 1241.7933 306.9554 1207.8087 329.8774 1175.6246 Z"/>
<path d="M 453.4043 446.5194 461.874 485.495 443.202 564.5717 424.6964 562.2586 424.1716 547.3464 420.7288 483.8309 453.4043 446.5194 Z"/>
<path d="M 286.7346 489.839 281.327 472.3923 317.9886 474.7725 331.359 494.2098 306.1103 528.6362 305.9886 555.9239 293.3571 574.7226 263.3365 564.1951 284.1727 539.3607 286.7346 489.839 Z"/>
<path d="M 703.8274 1244.9017 699.1983 1263.2895 675.1758 1241.8323 673.0394 1230.0505 703.8274 1244.9017 Z"/>
<path d="M 286.4303 845.4571 327.6343 851.0534 314.5565 864.3967 286.4303 845.4571 Z"/>
<path d="M 335.2899 570.4426 341.0669 543.4667 370.4597 555.3324 398.0365 543.8189 424.1716 547.3464 424.6964 562.2586 425.1368 579.3776 401.0072 585.4517 381.3334 617.4861 338.3085 621.0941 335.2899 570.4426 Z"/>
<path d="M 255.6103 433.9753 307.6248 440.2939 317.9886 474.7725 281.327 472.3923 254.1746 460.0131 255.6103 433.9753 Z"/>
<path d="M 295.6019 1158.598 273.5887 1139.2435 243.6389 1163.4954 227.9878 1197.5624 223.6863 1197.6026 191.7727 1178.9593 177.2687 1147.4791 216.4415 1136.2444 266.6782 1125.1318 282.5742 1104.5283 284.8747 1101.1567 295.6019 1158.598 Z"/>
<path d="M 394.9737 1154.7357 426.9049 1124.9405 478.5124 1135.6676 515.4092 1141.5575 531.3746 1184.5322 561.5578 1182.4862 572.3198 1211.5705 563.7651 1247.8278 515.6749 1292.7188 498.1808 1349.938 474.5399 1324.5296 421.0513 1323.6794 421.9342 1298.4675 407.8425 1245.7049 394.9737 1154.7357 Z"/>
<path d="M 699.1983 1263.2895 668.5728 1268.7904 675.1758 1241.8323 699.1983 1263.2895 Z"/>
<path d="M 416.6772 614.4818 425.4711 592.4629 462.1191 614.7344 519.8509 609.9781 497.14 651.3472 444.9987 642.0706 416.6772 614.4818 Z"/>
<path d="M 384.6573 188.9683 391.1423 193.8252 398.9738 205.7908 382.7296 271.2385 342.8253 211.9783 384.6573 188.9683 Z"/>
<path d="M 125.2922 659.1814 144.1195 631.1453 167.0266 650.0149 165.2467 678.3119 171.8757 709.5697 120.6197 731.4358 125.2922 659.1814 Z"/>
<path d="M 746.8262 1189.4528 726.864 1234.4376 669.9659 1218.9834 656.8053 1206.022 707.23 1204.8813 746.8262 1189.4528 Z"/>
<path d="M 485.6311 280.1143 521.5729 293.4304 498.9072 337.8328 483.6841 353.4258 437.3327 353.1601 423.8512 315.5593 489.1233 292.812 485.6311 280.1143 Z"/>
<path d="M 210.3486 785.7042 217.009 778.8482 217.8887 778.1105 264.9481 808.8649 285.9515 842.972 268.4251 840.3947 210.3486 785.7042 Z"/>
<path d="M 537.4934 109.2636 537.3481 134.5225 490.6855 162.4742 484.0416 157.3723 495.9337 135.4608 494.3695 122.7004 537.4934 109.2636 Z"/>
</g>
</svg>